<?xml version="1.0" encoding="UTF-8" standalone="no"?>
<svg
   width="471.47928mm"
   height="28.001974mm"
   viewBox="0 0 6682.3835 396.87838"
   version="1.2"
   id="svg123"
   sodipodi:docname="TwoTigers.svg"
   inkscape:version="1.4.2 (ebf0e94, 2025-05-08)"
   xmlns:inkscape="http://www.inkscape.org/namespaces/inkscape"
   xmlns:sodipodi="http://sodipodi.sourceforge.net/DTD/sodipodi-0.dtd"
   xmlns="http://www.w3.org/2000/svg"
   xmlns:svg="http://www.w3.org/2000/svg">
  <defs
     id="defs123" />
  <sodipodi:namedview
     id="namedview123"
     pagecolor="#ffffff"
     bordercolor="#000000"
     borderopacity="0.25"
     inkscape:showpageshadow="2"
     inkscape:pageopacity="0.0"
     inkscape:pagecheckerboard="0"
     inkscape:deskcolor="#d1d1d1"
     inkscape:document-units="mm"
     inkscape:zoom="0.1620453"
     inkscape:cx="-160.44896"
     inkscape:cy="-46.283353"
     inkscape:window-width="1920"
     inkscape:window-height="1034"
     inkscape:window-x="-4"
     inkscape:window-y="-4"
     inkscape:window-maximized="1"
     inkscape:current-layer="svg123" />
  <title
     id="title1">TwoTigers</title>
  <desc
     id="desc1">Generated by MuseScore Studio 4.5.2</desc>
  <polyline
     class="StaffLines"
     fill="none"
     stroke="#000000"
     stroke-width="2.73"
     stroke-linejoin="bevel"
     points="336.598,386.198 6987.8,386.198"
     id="polyline1"
     transform="translate(-305.41636,-350.28462)" />
  <polyline
     class="StaffLines"
     fill="none"
     stroke="#000000"
     stroke-width="2.73"
     stroke-linejoin="bevel"
     points="336.598,410.998 6987.8,410.998"
     id="polyline2"
     transform="translate(-305.41636,-350.28462)" />
  <polyline
     class="StaffLines"
     fill="none"
     stroke="#000000"
     stroke-width="2.73"
     stroke-linejoin="bevel"
     points="336.598,435.798 6987.8,435.798"
     id="polyline3"
     transform="translate(-305.41636,-350.28462)" />
  <polyline
     class="StaffLines"
     fill="none"
     stroke="#000000"
     stroke-width="2.73"
     stroke-linejoin="bevel"
     points="336.598,460.598 6987.8,460.598"
     id="polyline4"
     transform="translate(-305.41636,-350.28462)" />
  <polyline
     class="StaffLines"
     fill="none"
     stroke="#000000"
     stroke-width="2.73"
     stroke-linejoin="bevel"
     points="336.598,485.398 6987.8,485.398"
     id="polyline5"
     transform="translate(-305.41636,-350.28462)" />
  <polyline
     class="StaffLines"
     fill="none"
     stroke="#000000"
     stroke-width="2.73"
     stroke-linejoin="bevel"
     points="336.598,646.598 6987.8,646.598"
     id="polyline6"
     transform="translate(-305.41636,-350.28462)" />
  <polyline
     class="StaffLines"
     fill="none"
     stroke="#000000"
     stroke-width="2.73"
     stroke-linejoin="bevel"
     points="336.598,671.398 6987.8,671.398"
     id="polyline7"
     transform="translate(-305.41636,-350.28462)" />
  <polyline
     class="StaffLines"
     fill="none"
     stroke="#000000"
     stroke-width="2.73"
     stroke-linejoin="bevel"
     points="336.598,696.198 6987.8,696.198"
     id="polyline8"
     transform="translate(-305.41636,-350.28462)" />
  <polyline
     class="StaffLines"
     fill="none"
     stroke="#000000"
     stroke-width="2.73"
     stroke-linejoin="bevel"
     points="336.598,720.998 6987.8,720.998"
     id="polyline9"
     transform="translate(-305.41636,-350.28462)" />
  <polyline
     class="StaffLines"
     fill="none"
     stroke="#000000"
     stroke-width="2.73"
     stroke-linejoin="bevel"
     points="336.598,745.798 6987.8,745.798"
     id="polyline10"
     transform="translate(-305.41636,-350.28462)" />
  <polyline
     class="BarLine"
     fill="none"
     stroke="#000000"
     stroke-width="4.46"
     stroke-linejoin="bevel"
     points="4575.65,384.834 4575.65,646.598"
     id="polyline11"
     transform="translate(-372.91636,-350.28462)" />
  <polyline
     class="BarLine"
     fill="none"
     stroke="#000000"
     stroke-width="4.46"
     stroke-linejoin="bevel"
     points="2116.1,384.834 2116.1,646.598"
     id="polyline12"
     transform="translate(-372.91636,-350.28462)" />
  <polyline
     class="BarLine"
     fill="none"
     stroke="#000000"
     stroke-width="4.46"
     stroke-linejoin="bevel"
     points="2893.17,384.834 2893.17,646.598"
     id="polyline13"
     transform="translate(-395.41636,-350.28462)" />
  <polyline
     class="BarLine"
     fill="none"
     stroke="#000000"
     stroke-width="4.46"
     stroke-linejoin="bevel"
     points="3670.23,384.834 3670.23,646.598"
     id="polyline14"
     transform="translate(-380.41636,-350.28462)" />
  <polyline
     class="BarLine"
     fill="none"
     stroke="#000000"
     stroke-width="4.46"
     stroke-linejoin="bevel"
     points="1327.13,384.834 1327.13,646.598"
     id="polyline15"
     transform="translate(-372.91636,-350.28462)" />
  <polyline
     class="BarLine"
     fill="none"
     stroke="#000000"
     stroke-width="4.46"
     stroke-linejoin="bevel"
     points="6962.75,384.834 6962.75,646.598"
     id="polyline16"
     transform="translate(-305.41636,-350.28462)" />
  <polyline
     class="BarLine"
     fill="none"
     stroke="#000000"
     stroke-width="13.64"
     stroke-linejoin="bevel"
     points="6980.98,384.834 6980.98,646.598"
     id="polyline17"
     transform="translate(-305.41636,-350.28462)" />
  <polyline
     class="BarLine"
     fill="none"
     stroke="#000000"
     stroke-width="4.46"
     stroke-linejoin="bevel"
     points="5481.07,384.834 5481.07,646.598"
     id="polyline18"
     transform="translate(-372.91636,-350.28462)" />
  <polyline
     class="BarLine"
     fill="none"
     stroke="#000000"
     stroke-width="4.46"
     stroke-linejoin="bevel"
     points="6270.05,384.834 6270.05,646.598"
     id="polyline19"
     transform="translate(-380.41636,-350.28462)" />
  <polyline
     class="BarLine"
     fill="none"
     stroke="#000000"
     stroke-width="4.46"
     stroke-linejoin="bevel"
     points="338.83,384.834 338.83,646.598"
     id="polyline20"
     transform="translate(-305.41636,-350.28462)" />
  <polyline
     class="BarLine"
     fill="none"
     stroke="#000000"
     stroke-width="4.46"
     stroke-linejoin="bevel"
     points="2116.1,645.234 2116.1,747.162"
     id="polyline21"
     transform="translate(-372.91636,-350.28462)" />
  <polyline
     class="BarLine"
     fill="none"
     stroke="#000000"
     stroke-width="4.46"
     stroke-linejoin="bevel"
     points="5481.07,645.234 5481.07,747.162"
     id="polyline22"
     transform="translate(-372.91636,-350.28462)" />
  <polyline
     class="BarLine"
     fill="none"
     stroke="#000000"
     stroke-width="4.46"
     stroke-linejoin="bevel"
     points="6962.75,645.234 6962.75,747.162"
     id="polyline23"
     transform="translate(-305.41636,-350.28462)" />
  <polyline
     class="BarLine"
     fill="none"
     stroke="#000000"
     stroke-width="13.64"
     stroke-linejoin="bevel"
     points="6980.98,645.234 6980.98,747.162"
     id="polyline24"
     transform="translate(-305.41636,-350.28462)" />
  <polyline
     class="BarLine"
     fill="none"
     stroke="#000000"
     stroke-width="4.46"
     stroke-linejoin="bevel"
     points="6270.05,645.234 6270.05,747.162"
     id="polyline25"
     transform="translate(-380.41636,-350.28462)" />
  <polyline
     class="BarLine"
     fill="none"
     stroke="#000000"
     stroke-width="4.46"
     stroke-linejoin="bevel"
     points="4575.65,645.234 4575.65,747.162"
     id="polyline26"
     transform="translate(-372.91636,-350.28462)" />
  <polyline
     class="BarLine"
     fill="none"
     stroke="#000000"
     stroke-width="4.46"
     stroke-linejoin="bevel"
     points="2893.17,645.234 2893.17,747.162"
     id="polyline27"
     transform="translate(-395.41636,-350.28462)" />
  <polyline
     class="BarLine"
     fill="none"
     stroke="#000000"
     stroke-width="4.46"
     stroke-linejoin="bevel"
     points="338.83,645.234 338.83,747.162"
     id="polyline28"
     transform="translate(-305.41636,-350.28462)" />
  <polyline
     class="BarLine"
     fill="none"
     stroke="#000000"
     stroke-width="4.46"
     stroke-linejoin="bevel"
     points="3670.23,645.234 3670.23,747.162"
     id="polyline29"
     transform="translate(-380.41636,-350.28462)" />
  <polyline
     class="BarLine"
     fill="none"
     stroke="#000000"
     stroke-width="4.46"
     stroke-linejoin="bevel"
     points="1327.13,645.234 1327.13,747.162"
     id="polyline30"
     transform="translate(-372.91636,-350.28462)" />
  <polyline
     class="LedgerLine"
     fill="none"
     stroke="#000000"
     stroke-width="3.97"
     stroke-linejoin="bevel"
     points="1913.15,510.198 1961.75,510.198"
     id="polyline31"
     transform="translate(-305.41636,-350.28462)" />
  <polyline
     class="LedgerLine"
     fill="none"
     stroke="#000000"
     stroke-width="3.97"
     stroke-linejoin="bevel"
     points="6278.48,510.198 6327.07,510.198"
     id="polyline32"
     transform="translate(-305.41636,-350.28462)" />
  <polyline
     class="LedgerLine"
     fill="none"
     stroke="#000000"
     stroke-width="3.97"
     stroke-linejoin="bevel"
     points="5874.57,510.198 5923.16,510.198"
     id="polyline33"
     transform="translate(-305.41636,-350.28462)" />
  <polyline
     class="LedgerLine"
     fill="none"
     stroke="#000000"
     stroke-width="3.97"
     stroke-linejoin="bevel"
     points="5489.51,510.198 5538.1,510.198"
     id="polyline34"
     transform="translate(-305.41636,-350.28462)" />
  <polyline
     class="LedgerLine"
     fill="none"
     stroke="#000000"
     stroke-width="3.97"
     stroke-linejoin="bevel"
     points="546.592,510.198 595.185,510.198"
     id="polyline35"
     transform="translate(-305.41636,-350.28462)" />
  <polyline
     class="LedgerLine"
     fill="none"
     stroke="#000000"
     stroke-width="3.97"
     stroke-linejoin="bevel"
     points="5278.13,510.198 5326.72,510.198"
     id="polyline36"
     transform="translate(-305.41636,-350.28462)" />
  <polyline
     class="LedgerLine"
     fill="none"
     stroke="#000000"
     stroke-width="3.97"
     stroke-linejoin="bevel"
     points="6663.54,510.198 6712.13,510.198"
     id="polyline37"
     transform="translate(-305.41636,-350.28462)" />
  <polyline
     class="LedgerLine"
     fill="none"
     stroke="#000000"
     stroke-width="3.97"
     stroke-linejoin="bevel"
     points="4372.71,510.198 4421.3,510.198"
     id="polyline38"
     transform="translate(-305.41636,-350.28462)" />
  <polyline
     class="LedgerLine"
     fill="none"
     stroke="#000000"
     stroke-width="3.97"
     stroke-linejoin="bevel"
     points="1124.18,510.198 1172.78,510.198"
     id="polyline39"
     transform="translate(-305.41636,-350.28462)" />
  <polyline
     class="LedgerLine"
     fill="none"
     stroke="#000000"
     stroke-width="3.97"
     stroke-linejoin="bevel"
     points="1335.56,510.198 1384.16,510.198"
     id="polyline40"
     transform="translate(-305.41636,-350.28462)" />
  <polyline
     class="Stem"
     fill="none"
     stroke="#000000"
     stroke-width="2.48"
     stroke-linejoin="bevel"
     points="4739.7,444.23 4739.7,379.998"
     id="polyline41"
     transform="translate(-305.41636,-350.28462)" />
  <polyline
     class="Stem"
     fill="none"
     stroke="#000000"
     stroke-width="2.48"
     stroke-linejoin="bevel"
     points="6702.71,506.23 6702.71,423.398"
     id="polyline42"
     transform="translate(-305.41636,-350.28462)" />
  <polyline
     class="Stem"
     fill="none"
     stroke="#000000"
     stroke-width="2.48"
     stroke-linejoin="bevel"
     points="3834.28,444.23 3834.28,379.998"
     id="polyline43"
     transform="translate(-305.41636,-350.28462)" />
  <polyline
     class="Stem"
     fill="none"
     stroke="#000000"
     stroke-width="2.48"
     stroke-linejoin="bevel"
     points="3962.64,456.63 3962.64,379.998"
     id="polyline44"
     transform="translate(-305.41636,-350.28462)" />
  <polyline
     class="Stem"
     fill="none"
     stroke="#000000"
     stroke-width="2.48"
     stroke-linejoin="bevel"
     points="4090.99,469.03 4090.99,379.998"
     id="polyline45"
     transform="translate(-305.41636,-350.28462)" />
  <polyline
     class="Stem"
     fill="none"
     stroke="#000000"
     stroke-width="2.48"
     stroke-linejoin="bevel"
     points="4219.35,481.43 4219.35,398.598"
     id="polyline46"
     transform="translate(-305.41636,-350.28462)" />
  <polyline
     class="Stem"
     fill="none"
     stroke="#000000"
     stroke-width="2.48"
     stroke-linejoin="bevel"
     points="4411.88,506.23 4411.88,423.398"
     id="polyline47"
     transform="translate(-305.41636,-350.28462)" />
  <polyline
     class="Stem"
     fill="none"
     stroke="#000000"
     stroke-width="2.48"
     stroke-linejoin="bevel"
     points="2151.8,481.43 2151.8,398.598"
     id="polyline48"
     transform="translate(-305.41636,-350.28462)" />
  <polyline
     class="Stem"
     fill="none"
     stroke="#000000"
     stroke-width="2.48"
     stroke-linejoin="bevel"
     points="1567.26,493.83 1567.26,410.998"
     id="polyline49"
     transform="translate(-305.41636,-350.28462)" />
  <polyline
     class="Stem"
     fill="none"
     stroke="#000000"
     stroke-width="2.48"
     stroke-linejoin="bevel"
     points="4611.35,456.63 4611.35,379.998"
     id="polyline50"
     transform="translate(-305.41636,-350.28462)" />
  <polyline
     class="Stem"
     fill="none"
     stroke="#000000"
     stroke-width="2.48"
     stroke-linejoin="bevel"
     points="2536.86,456.63 2536.86,373.798"
     id="polyline51"
     transform="translate(-305.41636,-350.28462)" />
  <polyline
     class="Stem"
     fill="none"
     stroke="#000000"
     stroke-width="2.48"
     stroke-linejoin="bevel"
     points="4868.06,456.63 4868.06,379.998"
     id="polyline52"
     transform="translate(-305.41636,-350.28462)" />
  <polyline
     class="Stem"
     fill="none"
     stroke="#000000"
     stroke-width="2.48"
     stroke-linejoin="bevel"
     points="4996.41,469.03 4996.41,379.998"
     id="polyline53"
     transform="translate(-305.41636,-350.28462)" />
  <polyline
     class="Stem"
     fill="none"
     stroke="#000000"
     stroke-width="2.48"
     stroke-linejoin="bevel"
     points="5124.77,481.43 5124.77,398.598"
     id="polyline54"
     transform="translate(-305.41636,-350.28462)" />
  <polyline
     class="Stem"
     fill="none"
     stroke="#000000"
     stroke-width="2.48"
     stroke-linejoin="bevel"
     points="5317.3,506.23 5317.3,423.398"
     id="polyline55"
     transform="translate(-305.41636,-350.28462)" />
  <polyline
     class="Stem"
     fill="none"
     stroke="#000000"
     stroke-width="2.48"
     stroke-linejoin="bevel"
     points="1759.79,481.43 1759.79,398.598"
     id="polyline56"
     transform="translate(-305.41636,-350.28462)" />
  <polyline
     class="Stem"
     fill="none"
     stroke="#000000"
     stroke-width="2.48"
     stroke-linejoin="bevel"
     points="5528.68,506.23 5528.68,423.398"
     id="polyline57"
     transform="translate(-305.41636,-350.28462)" />
  <polyline
     class="Stem"
     fill="none"
     stroke="#000000"
     stroke-width="2.48"
     stroke-linejoin="bevel"
     points="5913.74,506.23 5913.74,423.398"
     id="polyline58"
     transform="translate(-305.41636,-350.28462)" />
  <polyline
     class="Stem"
     fill="none"
     stroke="#000000"
     stroke-width="2.48"
     stroke-linejoin="bevel"
     points="6317.65,506.23 6317.65,423.398"
     id="polyline59"
     transform="translate(-305.41636,-350.28462)" />
  <polyline
     class="Stem"
     fill="none"
     stroke="#000000"
     stroke-width="2.48"
     stroke-linejoin="bevel"
     points="1952.32,506.23 1952.32,423.398"
     id="polyline60"
     transform="translate(-305.41636,-350.28462)" />
  <polyline
     class="Stem"
     fill="none"
     stroke="#000000"
     stroke-width="2.48"
     stroke-linejoin="bevel"
     points="3705.93,456.63 3705.93,379.998"
     id="polyline61"
     transform="translate(-305.41636,-350.28462)" />
  <polyline
     class="Stem"
     fill="none"
     stroke="#000000"
     stroke-width="2.48"
     stroke-linejoin="bevel"
     points="2928.86,481.43 2928.86,398.598"
     id="polyline62"
     transform="translate(-305.41636,-350.28462)" />
  <polyline
     class="Stem"
     fill="none"
     stroke="#000000"
     stroke-width="2.48"
     stroke-linejoin="bevel"
     points="3121.39,469.03 3121.39,386.198"
     id="polyline63"
     transform="translate(-305.41636,-350.28462)" />
  <polyline
     class="Stem"
     fill="none"
     stroke="#000000"
     stroke-width="2.48"
     stroke-linejoin="bevel"
     points="1374.73,506.23 1374.73,423.398"
     id="polyline64"
     transform="translate(-305.41636,-350.28462)" />
  <polyline
     class="Stem"
     fill="none"
     stroke="#000000"
     stroke-width="2.48"
     stroke-linejoin="bevel"
     points="2344.33,469.03 2344.33,386.198"
     id="polyline65"
     transform="translate(-305.41636,-350.28462)" />
  <polyline
     class="Stem"
     fill="none"
     stroke="#000000"
     stroke-width="2.48"
     stroke-linejoin="bevel"
     points="3313.93,456.63 3313.93,373.798"
     id="polyline66"
     transform="translate(-305.41636,-350.28462)" />
  <polyline
     class="Stem"
     fill="none"
     stroke="#000000"
     stroke-width="2.48"
     stroke-linejoin="bevel"
     points="6480.43,663.165 6480.43,745.798"
     id="polyline67"
     transform="translate(-305.41636,-350.28462)" />
  <polyline
     class="Stem"
     fill="none"
     stroke="#000000"
     stroke-width="2.48"
     stroke-linejoin="bevel"
     points="5691.46,663.165 5691.46,745.798"
     id="polyline68"
     transform="translate(-305.41636,-350.28462)" />
  <path
     class="Note"
     d="m 4403.3036,102.08288 c 0,4.2625 3.069,9.02102 11.1135,9.02102 10.3076,0 21.1265,-8.43202 21.1265,-17.158524 0,-5.859 -4.96,-9.129475 -11.1134,-9.129475 -9.6255,0 -21.1266,8.137475 -21.1266,17.266979"
     id="path68"
     style="stroke-width:0.992" />
  <path
     class="Note"
     d="m 3369.5336,114.48288 c 0,4.2625 3.069,9.02102 11.1135,9.02102 10.3076,0 21.1265,-8.43202 21.1265,-17.15852 0,-5.859 -4.96,-9.129479 -11.1134,-9.129479 -9.6255,0 -21.1266,8.137479 -21.1266,17.266979"
     id="path69"
     style="stroke-width:0.992" />
  <path
     class="Note"
     d="m 2592.4636,139.28288 c 0,4.2625 3.069,9.02102 11.1135,9.02102 10.3076,0 21.1265,-8.43202 21.1265,-17.15852 0,-5.859 -4.96,-9.12948 -11.1134,-9.12948 -9.6255,0 -21.1266,8.13748 -21.1266,17.26698"
     id="path70"
     style="stroke-width:0.992" />
  <path
     class="Note"
     d="m 4531.6536,114.48288 c 0,4.2625 3.069,9.02102 11.1135,9.02102 10.3076,0 21.1265,-8.43202 21.1265,-17.15852 0,-5.859 -4.96,-9.129479 -11.1134,-9.129479 -9.6255,0 -21.1266,8.137479 -21.1266,17.266979"
     id="path71"
     style="stroke-width:0.992" />
  <path
     class="Note"
     d="m 4660.0136,126.88288 c 0,4.2625 3.069,9.02102 11.1135,9.02102 10.3076,0 21.1265,-8.43202 21.1265,-17.15852 0,-5.859 -4.96,-9.12948 -11.1134,-9.12948 -9.6255,0 -21.1266,8.13748 -21.1266,17.26698"
     id="path72"
     style="stroke-width:0.992" />
  <path
     class="Note"
     d="m 4788.3636,139.28288 c 0,4.2625 3.069,9.02102 11.1135,9.02102 10.3076,0 21.1265,-8.43202 21.1265,-17.15852 0,-5.859 -4.96,-9.12948 -11.1134,-9.12948 -9.6255,0 -21.1266,8.13748 -21.1266,17.26698"
     id="path73"
     style="stroke-width:0.992" />
  <path
     class="Note"
     d="m 1230.8636,151.68288 c 0,4.2625 3.069,9.02102 11.1135,9.02102 10.3076,0 21.1265,-8.43202 21.1265,-17.15852 0,-5.859 -4.96,-9.12948 -11.1134,-9.12948 -9.6255,0 -21.1266,8.13748 -21.1266,17.26698"
     id="path74"
     style="stroke-width:0.992" />
  <path
     class="Note"
     d="m 4980.8936,164.08288 c 0,4.2625 3.069,9.02102 11.1135,9.02102 10.3076,0 21.1265,-8.43202 21.1265,-17.15852 0,-5.859 -4.96,-9.12948 -11.1134,-9.12948 -9.6255,0 -21.1266,8.13748 -21.1266,17.26698"
     id="path75"
     style="stroke-width:0.992" />
  <path
     class="Note"
     d="m 1038.3336,164.08288 c 0,4.2625 3.069,9.02102 11.1135,9.02102 10.3076,0 21.1265,-8.43202 21.1265,-17.15852 0,-5.859 -4.96,-9.12948 -11.1134,-9.12948 -9.6255,0 -21.1266,8.13748 -21.1266,17.26698"
     id="path76"
     style="stroke-width:0.992" />
  <path
     class="Note"
     d="m 1423.3936,139.28288 c 0,4.2625 3.069,9.02102 11.1135,9.02102 10.3076,0 21.1265,-8.43202 21.1265,-17.15852 0,-5.859 -4.96,-9.12948 -11.1134,-9.12948 -9.6255,0 -21.1266,8.13748 -21.1266,17.26698"
     id="path77"
     style="stroke-width:0.992" />
  <path
     class="Note"
     d="m 5192.2736,164.08288 c 0,4.2625 3.069,9.02102 11.1135,9.02102 10.3076,0 21.1265,-8.43202 21.1265,-17.15852 0,-5.859 -4.96,-9.12948 -11.1134,-9.12948 -9.6255,0 -21.1266,8.13748 -21.1266,17.26698"
     id="path78"
     style="stroke-width:0.992" />
  <path
     class="Note"
     d="m 1615.9236,164.08288 c 0,4.2625 3.069,9.02102 11.1135,9.02102 10.3076,0 21.1265,-8.43202 21.1265,-17.15852 0,-5.859 -4.96,-9.12948 -11.1134,-9.12948 -9.6255,0 -21.1266,8.13748 -21.1266,17.26698"
     id="path79"
     style="stroke-width:0.992" />
  <path
     class="Note"
     d="m 5577.3336,164.08288 c 0,4.2625 3.069,9.02102 11.1135,9.02102 10.3076,0 21.1265,-8.43202 21.1265,-17.15852 0,-5.859 -4.96,-9.12948 -11.1134,-9.12948 -9.6255,0 -21.1266,8.13748 -21.1266,17.26698"
     id="path80"
     style="stroke-width:0.992" />
  <path
     class="Note"
     d="m 2200.4536,114.48288 c 0,4.2625 3.069,9.02102 11.1135,9.02102 10.3076,0 21.1265,-8.43202 21.1265,-17.15852 0,-5.859 -4.96,-9.129479 -11.1134,-9.129479 -9.6255,0 -21.1266,8.137479 -21.1266,17.266979"
     id="path81"
     style="stroke-width:0.992" />
  <path
     class="Note"
     d="m 2007.9236,126.88288 c 0,4.2625 3.069,9.02102 11.1135,9.02102 10.3076,0 21.1265,-8.43202 21.1265,-17.15852 0,-5.859 -4.96,-9.12948 -11.1134,-9.12948 -9.6255,0 -21.1266,8.13748 -21.1266,17.26698"
     id="path82"
     style="stroke-width:0.992" />
  <path
     class="Note"
     d="m 5981.2436,164.08288 c 0,4.2625 3.069,9.02102 11.1135,9.02102 10.3076,0 21.1265,-8.43202 21.1265,-17.15852 0,-5.859 -4.96,-9.12948 -11.1134,-9.12948 -9.6255,0 -21.1266,8.13748 -21.1266,17.26698"
     id="path83"
     style="stroke-width:0.992" />
  <path
     class="Note"
     d="m 3497.8836,102.08288 c 0,4.2625 3.069,9.02102 11.1135,9.02102 10.3076,0 21.1265,-8.43202 21.1265,-17.158524 0,-5.859 -4.96,-9.129475 -11.1134,-9.129475 -9.6255,0 -21.1266,8.137475 -21.1266,17.266979"
     id="path84"
     style="stroke-width:0.992" />
  <path
     class="Note"
     d="m 4274.9536,114.48288 c 0,4.2625 3.069,9.02102 11.1135,9.02102 10.3076,0 21.1265,-8.43202 21.1265,-17.15852 0,-5.859 -4.96,-9.129479 -11.1134,-9.129479 -9.6255,0 -21.1266,8.137479 -21.1266,17.266979"
     id="path85"
     style="stroke-width:0.992" />
  <path
     class="Note"
     d="m 3626.2336,114.48288 c 0,4.2625 3.069,9.02102 11.1135,9.02102 10.3076,0 21.1265,-8.43202 21.1265,-17.15852 0,-5.859 -4.96,-9.129479 -11.1134,-9.129479 -9.6255,0 -21.1266,8.137479 -21.1266,17.266979"
     id="path86"
     style="stroke-width:0.992" />
  <path
     class="Note"
     d="m 6387.4302,146.8159 c -9.6255,0 -21.1266,8.04448 -21.1266,17.26698 0,4.2625 3.069,9.02102 11.1135,9.02102 10.3076,0 21.1265,-8.43202 21.1265,-17.15852 0,-5.859 -4.96,-9.12948 -11.1134,-9.12948 m -2.6815,17.46848 c -0.2945,0.186 -7.5331,4.154 -11.0051,4.154 -3.2705,0 -3.968,-2.666 -3.968,-3.565 0,-4.1695 9.92,-9.021 10.3231,-9.22251 0.3875,-0.20149 7.44,-4.16949 11.0049,-4.16949 2.3871,0 3.968,1.395 3.968,3.565 0,4.278 -10.0129,9.0365 -10.3229,9.238"
     id="path87"
     style="stroke-width:0.992" />
  <path
     class="Note"
     d="m 2784.9936,126.88288 c 0,4.2625 3.069,9.02102 11.1135,9.02102 10.3076,0 21.1265,-8.43202 21.1265,-17.15852 0,-5.859 -4.96,-9.12948 -11.1134,-9.12948 -9.6255,0 -21.1266,8.13748 -21.1266,17.26698"
     id="path88"
     style="stroke-width:0.992" />
  <path
     class="Note"
     d="m 4075.4736,164.08288 c 0,4.2625 3.069,9.02102 11.1135,9.02102 10.3076,0 21.1265,-8.43202 21.1265,-17.15852 0,-5.859 -4.96,-9.12948 -11.1134,-9.12948 -9.6255,0 -21.1266,8.13748 -21.1266,17.26698"
     id="path89"
     style="stroke-width:0.992" />
  <path
     class="Note"
     d="m 2977.5236,114.48288 c 0,4.2625 3.069,9.02102 11.1135,9.02102 10.3076,0 21.1265,-8.43202 21.1265,-17.15852 0,-5.859 -4.96,-9.129479 -11.1134,-9.129479 -9.6255,0 -21.1266,8.137479 -21.1266,17.266979"
     id="path90"
     style="stroke-width:0.992" />
  <path
     class="Note"
     d="m 3882.9436,139.28288 c 0,4.2625 3.069,9.02102 11.1135,9.02102 10.3076,0 21.1265,-8.43202 21.1265,-17.15852 0,-5.859 -4.96,-9.12948 -11.1134,-9.12948 -9.6255,0 -21.1266,8.13748 -21.1266,17.26698"
     id="path91"
     style="stroke-width:0.992" />
  <path
     class="Note"
     d="m 3754.5936,126.88288 c 0,4.2625 3.069,9.02102 11.1135,9.02102 10.3076,0 21.1265,-8.43202 21.1265,-17.15852 0,-5.859 -4.96,-9.12948 -11.1134,-9.12948 -9.6255,0 -21.1266,8.13748 -21.1266,17.26698"
     id="path92"
     style="stroke-width:0.992" />
  <path
     class="Note"
     d="m 1815.3936,139.28288 c 0,4.2625 3.069,9.02102 11.1135,9.02102 10.3076,0 21.1265,-8.43202 21.1265,-17.15852 0,-5.859 -4.96,-9.12948 -11.1134,-9.12948 -9.6255,0 -21.1266,8.13748 -21.1266,17.26698"
     id="path93"
     style="stroke-width:0.992" />
  <path
     class="Note"
     d="m 5384.8036,312.88288 c 0,4.2625 3.069,9.02102 11.1135,9.02102 10.3076,0 21.1265,-8.43202 21.1265,-17.15852 0,-5.859 -4.96,-9.12948 -11.1134,-9.12948 -9.6255,0 -21.1266,8.13748 -21.1266,17.26698"
     id="path94"
     style="stroke-width:0.992" />
  <path
     class="Note"
     d="m 6173.7736,312.88288 c 0,4.2625 3.069,9.02102 11.1135,9.02102 10.3076,0 21.1265,-8.43202 21.1265,-17.15852 0,-5.859 -4.96,-9.12948 -11.1134,-9.12948 -9.6255,0 -21.1266,8.13748 -21.1266,17.26698"
     id="path95"
     style="stroke-width:0.992" />
  <path
     class="Clef"
     d="m 109.99912,112.39038 c 0,7.0525 -2.88295,14.291 -9.92,17.17405 -2.076953,-11.90405 -4.758429,-27.68305 -5.456003,-32.054104 8.928003,0 15.376003,6.060544 15.376003,14.880054 m -14.089478,18.35205 c -1.984,0.40295 -3.859475,0.60442 -5.750525,0.60442 -14.182426,0 -26.28797,-9.92 -26.28797,-24.90847 0,-12.090054 8.52502,-22.909004 17.26702,-30.457529 1.674,-1.488 3.270524,-2.867475 4.758524,-4.355475 0.883476,5.347475 1.580951,10.01295 2.278426,14.089475 -9.036426,2.681475 -15.174426,12.198525 -15.174426,21.529529 0,6.944 5.456,16.461 13.392,16.461 0.790426,0 1.689476,-0.40295 1.689476,-1.28653 0,-0.89895 -0.992,-1.39495 -2.185476,-2.18547 -3.875049,-2.387 -6.060524,-4.96 -6.060524,-9.827 0,-6.045 4.464,-10.912054 10.32295,-12.291529 l 5.750525,32.627579 M 87.183117,28.767901 c 0.89905,-3.968 5.456,-14.384 10.617574,-14.384 1.488,0 3.859479,4.851475 3.859479,11.702425 0,10.32305 -7.626003,18.057575 -14.477053,24.8 -0.58895,-3.968 -1.08495,-7.827475 -1.08495,-11.99695 0,-3.673475 0.294524,-7.052525 1.08495,-10.121475 m -20.832,132.431999 c 0,6.55653 5.05305,15.19 18.44505,15.19 4.665475,0 8.742,-1.19347 12.30695,-3.37905 5.363053,-3.76642 6.742523,-10.32295 6.742523,-16.56947 0,-3.85948 -0.58895,-8.32348 -1.58095,-13.98095 -0.29452,-1.984 -0.89905,-4.96 -1.488,-8.83505 9.71843,-3.17748 16.95695,-13.29895 16.95695,-23.5135 0,-14.973029 -10.61747,-25.094504 -25.094523,-25.094504 -0.992,-5.952 -1.984,-11.81105 -2.88295,-17.36 10.524523,-11.020525 17.762953,-23.420525 17.762953,-39.184 0,-9.036525 -2.77443,-16.368 -4.37095,-19.948128 C 100.77669,3.472 97.893642,0 96.111117,0 c -0.697475,0 -3.766426,1.193376 -7.03695,5.053248 -6.35505,7.548128 -8.137476,20.242653 -8.137476,28.566128 0,5.36295 0.496,10.23 2.185476,21.343475 -0.108525,0.09305 -5.27,5.347475 -7.34705,7.03705 -9.036426,8.432 -21.529475,20.42895 -21.529475,40.284479 0,18.53805 16.166525,33.12352 34.627049,33.12352 2.867476,0 5.548951,-0.29452 7.827476,-0.69747 1.89095,9.53242 2.976,16.47642 2.976,21.73095 0,10.32305 -5.254525,15.77905 -15.267476,15.77905 -2.387049,0 -4.464,-0.496 -4.665574,-0.496 -0.09295,-0.10853 -0.294426,-0.20158 -0.294426,-0.29453 0,-0.20147 0.201476,-0.31 0.496,-0.40305 4.665476,-0.69747 9.315476,-4.66547 9.315476,-11.00495 0,-5.36305 -4.06105,-11.02052 -11.50105,-11.02052 -6.944,0 -11.408,5.65747 -11.408,12.19852"
     id="path96"
     style="stroke-width:0.992" />
  <path
     class="Clef"
     d="m 79.448691,296.22033 c -7.548524,0 -13.593574,4.35557 -13.702,4.35557 -5.750544,4.26243 -8.029049,9.33095 -8.928049,12.80297 -0.496,1.78251 -0.682,3.565 -0.682,5.25451 0,2.387 0.387505,4.557 1.286505,6.448 1.193495,2.6815 3.472,4.557 6.448,5.549 1.193544,0.403 2.47997,0.60447 3.766495,0.60447 2.185475,0 4.464,-0.60447 6.355049,-1.68947 3.068951,-1.6895 4.96,-5.2545 4.96,-9.1295 0,-3.47201 -1.798,-6.6495 -4.774,-8.52501 -2.077049,-1.39497 -4.061049,-1.78254 -5.750524,-1.78254 -1.193476,0 -2.278525,0.186 -3.177476,0.496 -0.992,0.38757 -2.666049,1.37954 -3.472049,2.07705 0.31,-1.89105 1.488,-4.75853 2.588475,-6.35505 1.08505,-1.58095 3.270525,-3.56495 4.96,-4.464 2.48,-1.37948 5.657574,-1.984 9.129574,-1.984 10.121476,0 15.081476,8.13757 15.081476,24.80005 0,9.23805 -3.472,18.05752 -6.448,23.91647 -3.286,6.54105 -7.641476,12.80305 -11.516525,16.27505 -10.322951,9.424 -20.041495,13.888 -20.134495,13.888 0,0 -1.193505,0.682 -1.193505,1.87548 0,0.20147 0.093,0.29452 0.093,0.496 0.31,0.992 1.193505,1.19347 1.798,1.19347 0.093,0 0.387505,-0.093 0.496,-0.093 0.093,0 11.408049,-4.66547 20.429,-11.718 5.068525,-3.658 9.625475,-7.626 13.593475,-11.904 3.56505,-3.85947 6.649574,-8.02905 9.129574,-12.19852 4.355479,-7.44 6.835479,-15.17453 6.835479,-21.824 0,-8.23051 -2.17,-15.08148 -6.24653,-19.93305 -4.665473,-5.56443 -11.702523,-8.432 -20.924949,-8.432 m 31.139479,12.586 c 0,2.79005 2.18547,4.96005 4.774,4.96005 2.57295,0 4.75852,-2.17 4.75852,-4.96005 0,-2.77443 -2.18557,-5.05295 -4.75852,-5.05295 -2.58853,0 -4.774,2.27852 -4.774,5.05295 m 0,24.50557 c 0,2.77453 2.18547,5.06853 4.774,5.06853 2.57295,0 4.75852,-2.294 4.75852,-5.06853 0,-2.77452 -2.18557,-5.05302 -4.75852,-5.05302 -2.58853,0 -4.774,2.2785 -4.774,5.05302"
     id="path97"
     style="stroke-width:0.992" />
  <path
     class="TimeSig"
     d="m 164.15617,73.314851 v 7.331575 h -8.23053 c -0.69747,0 -1.39495,0.604425 -1.39495,1.39495 v 1.89105 c 0,0.790425 0.69748,1.379475 1.39495,1.379475 h 30.05453 c 0.806,0 1.39495,-0.58905 1.39495,-1.379475 v -1.89105 c 0,-0.790525 -0.58895,-1.39495 -1.39495,-1.39495 h -8.928 v -7.331575 h 8.928 c 0.806,0 1.39495,-0.697475 1.39495,-1.488 v -1.89097 c 0,-0.697505 -0.58895,-1.379505 -1.39495,-1.379505 h -8.928 v -15.779 c 0,-0.589 -0.29453,-1.085 -0.682,-1.286505 l -1.19348,-0.604495 c -0.20157,-0.093 -0.29452,-0.093 -0.496,-0.093 -0.10852,0 -0.10852,0 -0.20157,0 -0.29443,0 -0.69748,0.093 -0.89895,0.294495 l -9.02105,8.230505 c -0.29443,0.31 -0.40295,0.6975 -0.40295,1.1005 v 8.1375 h -11.50102 c 0,0 11.11354,-11.904 22.81597,-27.59005 0.40305,-0.496 0.496,-0.992 0.496,-1.379475 0,-0.496 -0.20148,-0.89895 -0.29443,-0.992 l -2.18557,-2.185475 c -0.29443,-0.201475 -0.58895,-0.40305 -0.992,-0.40305 -0.58895,0 -13.99643,0 -14.78695,0 -0.69748,0 -1.19348,0.604525 -1.28653,1.193575 0,0 -0.496,7.34695 -3.069,15.37597 -2.58849,8.044505 -5.56449,13.004505 -8.13749,16.662505 0,0 -0.29451,0.496 -0.29451,1.100505 0,0.201495 0,0.387545 0.093,0.58902 0.29451,0.697475 0.992,1.782525 0.992,1.782525 0,0 0.20151,0.604425 1.085,0.604425 h 17.06553"
     id="path98"
     style="stroke-width:0.992" />
  <path
     class="TimeSig"
     d="m 164.15617,122.91485 v 7.33158 h -8.23053 c -0.69747,0 -1.39495,0.60442 -1.39495,1.39495 v 1.89105 c 0,0.79042 0.69748,1.37947 1.39495,1.37947 h 30.05453 c 0.806,0 1.39495,-0.58905 1.39495,-1.37947 v -1.89105 c 0,-0.79053 -0.58895,-1.39495 -1.39495,-1.39495 h -8.928 v -7.33158 h 8.928 c 0.806,0 1.39495,-0.69747 1.39495,-1.488 v -1.89097 c 0,-0.6975 -0.58895,-1.3795 -1.39495,-1.3795 h -8.928 v -15.779 c 0,-0.589 -0.29453,-1.085 -0.682,-1.28651 l -1.19348,-0.60449 c -0.20157,-0.093 -0.29452,-0.093 -0.496,-0.093 -0.10852,0 -0.10852,0 -0.20157,0 -0.29443,0 -0.69748,0.093 -0.89895,0.29449 l -9.02105,8.23051 c -0.29443,0.31 -0.40295,0.6975 -0.40295,1.1005 v 8.1375 h -11.50102 c 0,0 11.11354,-11.904 22.81597,-27.590054 0.40305,-0.496 0.496,-0.992 0.496,-1.379475 0,-0.496 -0.20148,-0.89895 -0.29443,-0.992 l -2.18557,-2.185475 c -0.29443,-0.201475 -0.58895,-0.40305 -0.992,-0.40305 -0.58895,0 -13.99643,0 -14.78695,0 -0.69748,0 -1.19348,0.604525 -1.28653,1.193575 0,0 -0.496,7.34695 -3.069,15.375969 -2.58849,8.04451 -5.56449,13.00451 -8.13749,16.66251 0,0 -0.29451,0.496 -0.29451,1.1005 0,0.2015 0,0.38755 0.093,0.58902 0.29451,0.69748 0.992,1.78253 0.992,1.78253 0,0 0.20151,0.60442 1.085,0.60442 h 17.06553"
     id="path99"
     style="stroke-width:0.992" />
  <path
     class="TimeSig"
     d="m 164.15617,333.71485 v 7.33158 h -8.23053 c -0.69747,0 -1.39495,0.60442 -1.39495,1.39495 v 1.89105 c 0,0.79042 0.69748,1.37947 1.39495,1.37947 h 30.05453 c 0.806,0 1.39495,-0.58905 1.39495,-1.37947 v -1.89105 c 0,-0.79053 -0.58895,-1.39495 -1.39495,-1.39495 h -8.928 v -7.33158 h 8.928 c 0.806,0 1.39495,-0.69747 1.39495,-1.488 v -1.89097 c 0,-0.6975 -0.58895,-1.3795 -1.39495,-1.3795 h -8.928 v -15.779 c 0,-0.589 -0.29453,-1.085 -0.682,-1.28651 l -1.19348,-0.60449 c -0.20157,-0.093 -0.29452,-0.093 -0.496,-0.093 -0.10852,0 -0.10852,0 -0.20157,0 -0.29443,0 -0.69748,0.093 -0.89895,0.29449 l -9.02105,8.23051 c -0.29443,0.31 -0.40295,0.6975 -0.40295,1.1005 v 8.1375 h -11.50102 c 0,0 11.11354,-11.904 22.81597,-27.59005 0.40305,-0.496 0.496,-0.992 0.496,-1.37948 0,-0.496 -0.20148,-0.89895 -0.29443,-0.992 l -2.18557,-2.18547 c -0.29443,-0.20148 -0.58895,-0.40305 -0.992,-0.40305 -0.58895,0 -13.99643,0 -14.78695,0 -0.69748,0 -1.19348,0.60452 -1.28653,1.19357 0,0 -0.496,7.34695 -3.069,15.37597 -2.58849,8.04451 -5.56449,13.00451 -8.13749,16.66251 0,0 -0.29451,0.496 -0.29451,1.1005 0,0.2015 0,0.38755 0.093,0.58902 0.29451,0.69748 0.992,1.78253 0.992,1.78253 0,0 0.20151,0.60442 1.085,0.60442 h 17.06553"
     id="path100"
     style="stroke-width:0.992" />
  <path
     class="TimeSig"
     d="m 164.15617,383.31485 v 7.33158 h -8.23053 c -0.69747,0 -1.39495,0.60442 -1.39495,1.39495 v 1.89105 c 0,0.79042 0.69748,1.37947 1.39495,1.37947 h 30.05453 c 0.806,0 1.39495,-0.58905 1.39495,-1.37947 v -1.89105 c 0,-0.79053 -0.58895,-1.39495 -1.39495,-1.39495 h -8.928 v -7.33158 h 8.928 c 0.806,0 1.39495,-0.69747 1.39495,-1.488 v -1.89097 c 0,-0.6975 -0.58895,-1.3795 -1.39495,-1.3795 h -8.928 v -15.779 c 0,-0.589 -0.29453,-1.085 -0.682,-1.28651 l -1.19348,-0.60449 c -0.20157,-0.093 -0.29452,-0.093 -0.496,-0.093 -0.10852,0 -0.10852,0 -0.20157,0 -0.29443,0 -0.69748,0.093 -0.89895,0.29449 l -9.02105,8.23051 c -0.29443,0.31 -0.40295,0.6975 -0.40295,1.1005 v 8.1375 h -11.50102 c 0,0 11.11354,-11.904 22.81597,-27.59005 0.40305,-0.496 0.496,-0.992 0.496,-1.37948 0,-0.496 -0.20148,-0.89895 -0.29443,-0.992 l -2.18557,-2.18547 c -0.29443,-0.20148 -0.58895,-0.40305 -0.992,-0.40305 -0.58895,0 -13.99643,0 -14.78695,0 -0.69748,0 -1.19348,0.60452 -1.28653,1.19357 0,0 -0.496,7.34695 -3.069,15.37597 -2.58849,8.04451 -5.56449,13.00451 -8.13749,16.66251 0,0 -0.29451,0.496 -0.29451,1.1005 0,0.2015 0,0.38755 0.093,0.58902 0.29451,0.69748 0.992,1.78253 0.992,1.78253 0,0 0.20151,0.60442 1.085,0.60442 h 17.06553"
     id="path101"
     style="stroke-width:0.992" />
  <path
     class="Rest"
     d="m 2415.8096,101.97443 c -0.093,-0.0931 -0.2945,-0.29453 -0.5889,-0.682 l -11.408,-14.089549 c -0.1085,-0.108505 -0.2016,-0.403 -0.2016,-0.604505 0,-0.2945 0.093,-0.682 0.2016,-0.8835 l 10.106,-15.282975 c 0.1084,-0.201575 0.2015,-0.496 0.2015,-0.697575 v -0.883475 c 0,-0.294525 -0.093,-0.604525 -0.2946,-0.790525 l -16.0735,-21.73095 c 0,0 -0.3875,-0.604525 -0.992,-0.604525 -0.2945,0 -0.496,0.108525 -0.7905,0.31 -0.403,0.294525 -0.496,0.682 -0.496,0.992 0,0.58905 0.2945,1.08505 0.2945,1.08505 l 7.5486,10.32295 c 0.186,0.294525 0.2944,0.682 0.2944,1.178 0,0.40305 -0.1084,0.89905 -0.2944,1.193475 l -10.0286,15.28305 c -0.093,0.201495 -0.2015,0.589 -0.2015,0.790495 v 0.899 c 0,0.294505 0.1085,0.589 0.31,0.790505 l 11.0981,13.795 c -0.3876,-0.108495 -1.2865,-0.31 -2.4801,-0.31 -1.674,0 -3.8595,0.403 -5.642,1.984 -2.1855,1.98405 -3.379,4.77405 -3.379,7.254054 0,1.37947 0.2945,2.77442 1.085,3.85947 2.0925,3.17748 9.5325,12.60148 9.5325,12.60148 0,0 0.496,0.60452 1.1936,0.60452 0.186,0 0.3875,0 0.5889,-0.20147 0.496,-0.40305 0.6975,-0.79053 0.6975,-1.19358 0,-0.40295 -0.2015,-0.69747 -0.2944,-0.89895 -0.31,-0.496 -3.4721,-6.24652 -3.4721,-6.24652 0,0 -0.6975,-1.39495 -0.6975,-3.17748 0,-1.28652 0.3875,-2.86747 1.6896,-4.16947 1.178,-1.178 2.5729,-1.58105 3.8595,-1.58105 1.2865,0 2.3869,0.40305 3.1774,0.89905 l 3.8751,2.48 c 0,0 0.3875,0.186 0.7904,0.186 0.3876,0 0.6976,-0.0931 0.992,-0.496 0.2016,-0.38758 0.2945,-0.58905 0.2945,-0.88358 0,-0.29442 -0.093,-0.496 -0.2945,-0.79042 l -0.2015,-0.31"
     id="path102"
     style="stroke-width:0.992" />
  <path
     class="Rest"
     d="m 5792.6796,101.97443 c -0.093,-0.0931 -0.2945,-0.29453 -0.5889,-0.682 l -11.408,-14.089549 c -0.1085,-0.108505 -0.2016,-0.403 -0.2016,-0.604505 0,-0.2945 0.093,-0.682 0.2016,-0.8835 l 10.106,-15.282975 c 0.1084,-0.201575 0.2015,-0.496 0.2015,-0.697575 v -0.883475 c 0,-0.294525 -0.093,-0.604525 -0.2946,-0.790525 l -16.0735,-21.73095 c 0,0 -0.3875,-0.604525 -0.992,-0.604525 -0.2945,0 -0.496,0.108525 -0.7905,0.31 -0.403,0.294525 -0.496,0.682 -0.496,0.992 0,0.58905 0.2945,1.08505 0.2945,1.08505 l 7.5486,10.32295 c 0.186,0.294525 0.2944,0.682 0.2944,1.178 0,0.40305 -0.1084,0.89905 -0.2944,1.193475 l -10.0286,15.28305 c -0.093,0.201495 -0.2015,0.589 -0.2015,0.790495 v 0.899 c 0,0.294505 0.1085,0.589 0.31,0.790505 l 11.0981,13.795 c -0.3876,-0.108495 -1.2865,-0.31 -2.4801,-0.31 -1.674,0 -3.8595,0.403 -5.642,1.984 -2.1855,1.98405 -3.379,4.77405 -3.379,7.254054 0,1.37947 0.2945,2.77442 1.085,3.85947 2.0925,3.17748 9.5325,12.60148 9.5325,12.60148 0,0 0.496,0.60452 1.1936,0.60452 0.186,0 0.3875,0 0.5889,-0.20147 0.496,-0.40305 0.6975,-0.79053 0.6975,-1.19358 0,-0.40295 -0.2015,-0.69747 -0.2944,-0.89895 -0.31,-0.496 -3.4721,-6.24652 -3.4721,-6.24652 0,0 -0.6975,-1.39495 -0.6975,-3.17748 0,-1.28652 0.3875,-2.86747 1.6896,-4.16947 1.178,-1.178 2.5729,-1.58105 3.8595,-1.58105 1.2865,0 2.3869,0.40305 3.1774,0.89905 l 3.8751,2.48 c 0,0 0.3875,0.186 0.7904,0.186 0.3876,0 0.6976,-0.0931 0.992,-0.496 0.2016,-0.38758 0.2945,-0.58905 0.2945,-0.88358 0,-0.29442 -0.093,-0.496 -0.2945,-0.79042 l -0.2015,-0.31"
     id="path103"
     style="stroke-width:0.992" />
  <path
     class="Rest"
     d="m 5407.6196,101.97443 c -0.093,-0.0931 -0.2945,-0.29453 -0.5889,-0.682 l -11.408,-14.089549 c -0.1085,-0.108505 -0.2016,-0.403 -0.2016,-0.604505 0,-0.2945 0.093,-0.682 0.2016,-0.8835 l 10.106,-15.282975 c 0.1084,-0.201575 0.2015,-0.496 0.2015,-0.697575 v -0.883475 c 0,-0.294525 -0.093,-0.604525 -0.2946,-0.790525 l -16.0735,-21.73095 c 0,0 -0.3875,-0.604525 -0.992,-0.604525 -0.2945,0 -0.496,0.108525 -0.7905,0.31 -0.403,0.294525 -0.496,0.682 -0.496,0.992 0,0.58905 0.2945,1.08505 0.2945,1.08505 l 7.5486,10.32295 c 0.186,0.294525 0.2944,0.682 0.2944,1.178 0,0.40305 -0.1084,0.89905 -0.2944,1.193475 l -10.0286,15.28305 c -0.093,0.201495 -0.2015,0.589 -0.2015,0.790495 v 0.899 c 0,0.294505 0.1085,0.589 0.31,0.790505 l 11.0981,13.795 c -0.3876,-0.108495 -1.2865,-0.31 -2.4801,-0.31 -1.674,0 -3.8595,0.403 -5.642,1.984 -2.1855,1.98405 -3.379,4.77405 -3.379,7.254054 0,1.37947 0.2945,2.77442 1.085,3.85947 2.0925,3.17748 9.5325,12.60148 9.5325,12.60148 0,0 0.496,0.60452 1.1936,0.60452 0.186,0 0.3875,0 0.5889,-0.20147 0.496,-0.40305 0.6975,-0.79053 0.6975,-1.19358 0,-0.40295 -0.2015,-0.69747 -0.2944,-0.89895 -0.31,-0.496 -3.4721,-6.24652 -3.4721,-6.24652 0,0 -0.6975,-1.39495 -0.6975,-3.17748 0,-1.28652 0.3875,-2.86747 1.6896,-4.16947 1.178,-1.178 2.5729,-1.58105 3.8595,-1.58105 1.2865,0 2.3869,0.40305 3.1774,0.89905 l 3.8751,2.48 c 0,0 0.3875,0.186 0.7904,0.186 0.3876,0 0.6976,-0.0931 0.992,-0.496 0.2016,-0.38758 0.2945,-0.58905 0.2945,-0.88358 0,-0.29442 -0.093,-0.496 -0.2945,-0.79042 l -0.2015,-0.31"
     id="path104"
     style="stroke-width:0.992" />
  <path
     class="Rest"
     d="m 3192.8696,101.97443 c -0.093,-0.0931 -0.2945,-0.29453 -0.5889,-0.682 l -11.408,-14.089549 c -0.1085,-0.108505 -0.2016,-0.403 -0.2016,-0.604505 0,-0.2945 0.093,-0.682 0.2016,-0.8835 l 10.106,-15.282975 c 0.1084,-0.201575 0.2015,-0.496 0.2015,-0.697575 v -0.883475 c 0,-0.294525 -0.093,-0.604525 -0.2946,-0.790525 l -16.0735,-21.73095 c 0,0 -0.3875,-0.604525 -0.992,-0.604525 -0.2945,0 -0.496,0.108525 -0.7905,0.31 -0.403,0.294525 -0.496,0.682 -0.496,0.992 0,0.58905 0.2945,1.08505 0.2945,1.08505 l 7.5486,10.32295 c 0.186,0.294525 0.2944,0.682 0.2944,1.178 0,0.40305 -0.1084,0.89905 -0.2944,1.193475 l -10.0286,15.28305 c -0.093,0.201495 -0.2015,0.589 -0.2015,0.790495 v 0.899 c 0,0.294505 0.1085,0.589 0.31,0.790505 l 11.0981,13.795 c -0.3876,-0.108495 -1.2865,-0.31 -2.4801,-0.31 -1.674,0 -3.8595,0.403 -5.642,1.984 -2.1855,1.98405 -3.379,4.77405 -3.379,7.254054 0,1.37947 0.2945,2.77442 1.085,3.85947 2.0925,3.17748 9.5325,12.60148 9.5325,12.60148 0,0 0.496,0.60452 1.1936,0.60452 0.186,0 0.3875,0 0.5889,-0.20147 0.496,-0.40305 0.6975,-0.79053 0.6975,-1.19358 0,-0.40295 -0.2015,-0.69747 -0.2944,-0.89895 -0.31,-0.496 -3.4721,-6.24652 -3.4721,-6.24652 0,0 -0.6975,-1.39495 -0.6975,-3.17748 0,-1.28652 0.3875,-2.86747 1.6896,-4.16947 1.178,-1.178 2.5729,-1.58105 3.8595,-1.58105 1.2865,0 2.3869,0.40305 3.1774,0.89905 l 3.8751,2.48 c 0,0 0.3875,0.186 0.7904,0.186 0.3876,0 0.6976,-0.0931 0.992,-0.496 0.2016,-0.38758 0.2945,-0.58905 0.2945,-0.88358 0,-0.29442 -0.093,-0.496 -0.2945,-0.79042 l -0.2015,-0.31"
     id="path105"
     style="stroke-width:0.992" />
  <path
     class="Rest"
     d="m 6196.5896,101.97443 c -0.093,-0.0931 -0.2945,-0.29453 -0.5889,-0.682 l -11.408,-14.089549 c -0.1085,-0.108505 -0.2016,-0.403 -0.2016,-0.604505 0,-0.2945 0.093,-0.682 0.2016,-0.8835 l 10.106,-15.282975 c 0.1084,-0.201575 0.2015,-0.496 0.2015,-0.697575 v -0.883475 c 0,-0.294525 -0.093,-0.604525 -0.2946,-0.790525 l -16.0735,-21.73095 c 0,0 -0.3875,-0.604525 -0.992,-0.604525 -0.2945,0 -0.496,0.108525 -0.7905,0.31 -0.403,0.294525 -0.496,0.682 -0.496,0.992 0,0.58905 0.2945,1.08505 0.2945,1.08505 l 7.5486,10.32295 c 0.186,0.294525 0.2944,0.682 0.2944,1.178 0,0.40305 -0.1084,0.89905 -0.2944,1.193475 l -10.0286,15.28305 c -0.093,0.201495 -0.2015,0.589 -0.2015,0.790495 v 0.899 c 0,0.294505 0.1085,0.589 0.31,0.790505 l 11.0981,13.795 c -0.3876,-0.108495 -1.2865,-0.31 -2.4801,-0.31 -1.674,0 -3.8595,0.403 -5.642,1.984 -2.1855,1.98405 -3.379,4.77405 -3.379,7.254054 0,1.37947 0.2945,2.77442 1.085,3.85947 2.0925,3.17748 9.5325,12.60148 9.5325,12.60148 0,0 0.496,0.60452 1.1936,0.60452 0.186,0 0.3875,0 0.5889,-0.20147 0.496,-0.40305 0.6975,-0.79053 0.6975,-1.19358 0,-0.40295 -0.2015,-0.69747 -0.2944,-0.89895 -0.31,-0.496 -3.4721,-6.24652 -3.4721,-6.24652 0,0 -0.6975,-1.39495 -0.6975,-3.17748 0,-1.28652 0.3875,-2.86747 1.6896,-4.16947 1.178,-1.178 2.5729,-1.58105 3.8595,-1.58105 1.2865,0 2.3869,0.40305 3.1774,0.89905 l 3.8751,2.48 c 0,0 0.3875,0.186 0.7904,0.186 0.3876,0 0.6976,-0.0931 0.992,-0.496 0.2016,-0.38758 0.2945,-0.58905 0.2945,-0.88358 0,-0.29442 -0.093,-0.496 -0.2945,-0.79042 l -0.2015,-0.31"
     id="path106"
     style="stroke-width:0.992" />
  <path
     class="Rest"
     d="m 3802.8086,320.61738 c -0.806,0 -1.395,0.589 -1.395,1.395 v 10.71047 c 0,0.79053 0.589,1.37958 1.395,1.37958 h 29.4656 c 0.7905,0 1.3794,-0.58905 1.3794,-1.37958 v -10.71047 c 0,-0.806 -0.5889,-1.395 -1.3794,-1.395 h -29.4656"
     id="path107"
     style="stroke-width:0.992" />
  <path
     class="Rest"
     d="m 6004.0596,362.37443 c -0.093,-0.0931 -0.2945,-0.29453 -0.5889,-0.682 l -11.408,-14.08955 c -0.1085,-0.1085 -0.2016,-0.403 -0.2016,-0.6045 0,-0.2945 0.093,-0.682 0.2016,-0.8835 l 10.106,-15.28298 c 0.1084,-0.20157 0.2015,-0.496 0.2015,-0.69757 v -0.88348 c 0,-0.29452 -0.093,-0.60452 -0.2946,-0.79052 l -16.0735,-21.73095 c 0,0 -0.3875,-0.60453 -0.992,-0.60453 -0.2945,0 -0.496,0.10853 -0.7905,0.31 -0.403,0.29453 -0.496,0.682 -0.496,0.992 0,0.58905 0.2945,1.08505 0.2945,1.08505 l 7.5486,10.32295 c 0.186,0.29453 0.2944,0.682 0.2944,1.178 0,0.40305 -0.1084,0.89905 -0.2944,1.19348 l -10.0286,15.28305 c -0.093,0.20149 -0.2015,0.589 -0.2015,0.79049 v 0.899 c 0,0.29451 0.1085,0.589 0.31,0.79051 l 11.0981,13.795 c -0.3876,-0.1085 -1.2865,-0.31 -2.4801,-0.31 -1.674,0 -3.8595,0.403 -5.642,1.984 -2.1855,1.98405 -3.379,4.77405 -3.379,7.25405 0,1.37947 0.2945,2.77442 1.085,3.85947 2.0925,3.17748 9.5325,12.60148 9.5325,12.60148 0,0 0.496,0.60452 1.1936,0.60452 0.186,0 0.3875,0 0.5889,-0.20147 0.496,-0.40305 0.6975,-0.79053 0.6975,-1.19358 0,-0.40295 -0.2015,-0.69747 -0.2944,-0.89895 -0.31,-0.496 -3.4721,-6.24652 -3.4721,-6.24652 0,0 -0.6975,-1.39495 -0.6975,-3.17748 0,-1.28652 0.3875,-2.86747 1.6896,-4.16947 1.178,-1.178 2.5729,-1.58105 3.8595,-1.58105 1.2865,0 2.3869,0.40305 3.1774,0.89905 l 3.8751,2.48 c 0,0 0.3875,0.186 0.7904,0.186 0.3876,0 0.6976,-0.0931 0.992,-0.496 0.2016,-0.38758 0.2945,-0.58905 0.2945,-0.88358 0,-0.29442 -0.093,-0.496 -0.2945,-0.79042 l -0.2015,-0.31"
     id="path108"
     style="stroke-width:0.992" />
  <path
     class="Rest"
     d="m 5215.0896,362.37443 c -0.093,-0.0931 -0.2945,-0.29453 -0.5889,-0.682 l -11.408,-14.08955 c -0.1085,-0.1085 -0.2016,-0.403 -0.2016,-0.6045 0,-0.2945 0.093,-0.682 0.2016,-0.8835 l 10.106,-15.28298 c 0.1084,-0.20157 0.2015,-0.496 0.2015,-0.69757 v -0.88348 c 0,-0.29452 -0.093,-0.60452 -0.2946,-0.79052 l -16.0735,-21.73095 c 0,0 -0.3875,-0.60453 -0.992,-0.60453 -0.2945,0 -0.496,0.10853 -0.7905,0.31 -0.403,0.29453 -0.496,0.682 -0.496,0.992 0,0.58905 0.2945,1.08505 0.2945,1.08505 l 7.5486,10.32295 c 0.186,0.29453 0.2944,0.682 0.2944,1.178 0,0.40305 -0.1084,0.89905 -0.2944,1.19348 l -10.0286,15.28305 c -0.093,0.20149 -0.2015,0.589 -0.2015,0.79049 v 0.899 c 0,0.29451 0.1085,0.589 0.31,0.79051 l 11.0981,13.795 c -0.3876,-0.1085 -1.2865,-0.31 -2.4801,-0.31 -1.674,0 -3.8595,0.403 -5.642,1.984 -2.1855,1.98405 -3.379,4.77405 -3.379,7.25405 0,1.37947 0.2945,2.77442 1.085,3.85947 2.0925,3.17748 9.5325,12.60148 9.5325,12.60148 0,0 0.496,0.60452 1.1936,0.60452 0.186,0 0.3875,0 0.5889,-0.20147 0.496,-0.40305 0.6975,-0.79053 0.6975,-1.19358 0,-0.40295 -0.2015,-0.69747 -0.2944,-0.89895 -0.31,-0.496 -3.4721,-6.24652 -3.4721,-6.24652 0,0 -0.6975,-1.39495 -0.6975,-3.17748 0,-1.28652 0.3875,-2.86747 1.6896,-4.16947 1.178,-1.178 2.5729,-1.58105 3.8595,-1.58105 1.2865,0 2.3869,0.40305 3.1774,0.89905 l 3.8751,2.48 c 0,0 0.3875,0.186 0.7904,0.186 0.3876,0 0.6976,-0.0931 0.992,-0.496 0.2016,-0.38758 0.2945,-0.58905 0.2945,-0.88358 0,-0.29442 -0.093,-0.496 -0.2945,-0.79042 l -0.2015,-0.31"
     id="path109"
     style="stroke-width:0.992" />
  <path
     class="Rest"
     d="m 5577.3336,344.92138 c 0,1.395 0,1.395 1.395,1.395 h 29.4656 c 1.3794,0 1.3794,0 1.3794,-1.395 v -10.71053 c 0,-1.39495 0,-1.39495 -1.3794,-1.39495 h -29.4656 c -1.395,0 -1.395,0 -1.395,1.39495 v 10.71053"
     id="path110"
     style="stroke-width:0.992" />
  <path
     class="Rest"
     d="m 2184.4986,320.61738 c -0.806,0 -1.395,0.589 -1.395,1.395 v 10.71047 c 0,0.79053 0.589,1.37958 1.395,1.37958 h 29.4656 c 0.7905,0 1.3794,-0.58905 1.3794,-1.37958 v -10.71047 c 0,-0.806 -0.5889,-1.395 -1.3794,-1.395 h -29.4656"
     id="path111"
     style="stroke-width:0.992" />
  <path
     class="Rest"
     d="m 2961.5686,320.61738 c -0.806,0 -1.395,0.589 -1.395,1.395 v 10.71047 c 0,0.79053 0.589,1.37958 1.395,1.37958 h 29.4656 c 0.7905,0 1.3794,-0.58905 1.3794,-1.37958 v -10.71047 c 0,-0.806 -0.5889,-1.395 -1.3794,-1.395 h -29.4656"
     id="path112"
     style="stroke-width:0.992" />
  <path
     class="Rest"
     d="m 1401.4786,320.61738 c -0.806,0 -1.395,0.589 -1.395,1.395 v 10.71047 c 0,0.79053 0.589,1.37958 1.395,1.37958 h 29.4656 c 0.7905,0 1.3794,-0.58905 1.3794,-1.37958 v -10.71047 c 0,-0.806 -0.5889,-1.395 -1.3794,-1.395 h -29.4656"
     id="path113"
     style="stroke-width:0.992" />
  <path
     class="Rest"
     d="m 6366.3036,344.92138 c 0,1.395 0,1.395 1.395,1.395 h 29.4656 c 1.3794,0 1.3794,0 1.3794,-1.395 v -10.71053 c 0,-1.39495 0,-1.39495 -1.3794,-1.39495 h -29.4656 c -1.395,0 -1.395,0 -1.395,1.39495 v 10.71053"
     id="path114"
     style="stroke-width:0.992" />
  <path
     class="Rest"
     d="m 563.90364,320.61738 c -0.806,0 -1.395,0.589 -1.395,1.395 v 10.71047 c 0,0.79053 0.589,1.37958 1.395,1.37958 h 29.46553 c 0.79052,0 1.37947,-0.58905 1.37947,-1.37958 v -10.71047 c 0,-0.806 -0.58895,-1.395 -1.37947,-1.395 h -29.46553"
     id="path115"
     style="stroke-width:0.992" />
  <path
     class="Rest"
     d="m 4708.2286,320.61738 c -0.806,0 -1.395,0.589 -1.395,1.395 v 10.71047 c 0,0.79053 0.589,1.37958 1.395,1.37958 h 29.4656 c 0.7905,0 1.3794,-0.58905 1.3794,-1.37958 v -10.71047 c 0,-0.806 -0.5889,-1.395 -1.3794,-1.395 h -29.4656"
     id="path116"
     style="stroke-width:0.992" />
  <path
     class="Beam"
     fill-rule="evenodd"
     d="m 3399.2736,23.513376 h 387.54 v 12.4 h -387.54 v -12.4"
     id="path117" />
  <path
     class="Beam"
     fill-rule="evenodd"
     d="m 4304.6936,23.513376 h 387.54 v 12.4 h -387.54 v -12.4"
     id="path118" />
  <path
     class="Bracket"
     d="m 3.3985167,215.71338 c 6.4615805,-6.85506 19.0475803,-20.84566 19.0475803,-46.748 0,-32.75741 -14.0468748,-65.85175 -14.0468748,-86.304004 0,-21.969402 12.5859998,-42.47775 13.3164198,-43.152 0,-0.393402 0,-0.393402 0,-0.730348 0,-0.393402 0,-0.730707 -0.337125,-1.067652 -0.393295,0 -1.12375,0 -1.460875,0.67425 -0.337125,0.393402 -19.77800025,19.778 -19.77800025,49.276348 0,31.633656 12.58600025,53.939996 12.58600025,95.293996 0,7.92235 -3.2588753,20.50835 -12.24887525,31.68975 -0.337125,0 -0.337125,0.67425 -0.337125,1.06766 -0.337125,0.33694 0,0.73034 0.337125,1.06765 8.98999995,11.12494 12.24887525,23.71094 12.24887525,31.63329 0,41.354 -12.58600025,63.66071 -12.58600025,95.294 0,29.16148 19.44087525,48.93949 19.77800025,49.27662 0.337125,0.73044 1.06758,1.06756 1.460875,0.73044 0.337125,-0.33713 0.67425,-0.73044 0.337125,-1.06757 0,0 0,-0.39331 0,-0.73043 -0.73042,-0.73046 -13.3164198,-21.23888 -13.3164198,-43.152 0,-20.50835 14.0468748,-53.60306 14.0468748,-86.304 0,-26.23966 -12.5859998,-39.94941 -19.0475803,-46.748"
     id="path119"
     style="stroke-width:3.596" />
  <path
     class="Note"
     d="m 826.95364,164.08288 c 0,4.2625 3.069,9.02102 11.11348,9.02102 10.30757,0 21.12652,-8.43202 21.12652,-17.15852 0,-5.859 -4.96,-9.12948 -11.11347,-9.12948 -9.62548,0 -21.12653,8.13748 -21.12653,17.26698"
     id="path120"
     style="stroke-width:0.992" />
  <polyline
     class="Stem"
     fill="none"
     stroke="#000000"
     stroke-width="2.48"
     stroke-linejoin="bevel"
     points="1163.35,506.23 1163.35,423.398"
     id="polyline120"
     transform="translate(-305.41636,-350.28462)" />
  <path
     class="Note"
     d="m 634.42164,139.28288 c 0,4.2625 3.069,9.02102 11.11348,9.02102 10.30757,0 21.12652,-8.43202 21.12652,-17.15852 0,-5.859 -4.96,-9.12948 -11.11347,-9.12948 -9.62548,0 -21.12653,8.13748 -21.12653,17.26698"
     id="path121"
     style="stroke-width:0.992" />
  <polyline
     class="Stem"
     fill="none"
     stroke="#000000"
     stroke-width="2.48"
     stroke-linejoin="bevel"
     points="970.822,481.43 970.822,398.598"
     id="polyline121"
     transform="translate(-305.41636,-350.28462)" />
  <path
     class="Note"
     d="m 441.89064,151.68288 c 0,4.2625 3.069,9.02102 11.11348,9.02102 10.30757,0 21.12652,-8.43202 21.12652,-17.15852 0,-5.859 -4.96,-9.12948 -11.11347,-9.12948 -9.62548,0 -21.12653,8.13748 -21.12653,17.26698"
     id="path122"
     style="stroke-width:0.992" />
  <polyline
     class="Stem"
     fill="none"
     stroke="#000000"
     stroke-width="2.48"
     stroke-linejoin="bevel"
     points="778.292,493.83 778.292,410.998"
     id="polyline122"
     transform="translate(-305.41636,-350.28462)" />
  <path
     class="Note"
     d="m 249.35964,164.08288 c 0,4.2625 3.069,9.02102 11.11348,9.02102 10.30757,0 21.12652,-8.43202 21.12652,-17.15852 0,-5.859 -4.96,-9.12948 -11.11347,-9.12948 -9.62548,0 -21.12653,8.13748 -21.12653,17.26698"
     id="path123"
     style="stroke-width:0.992" />
  <polyline
     class="Stem"
     fill="none"
     stroke="#000000"
     stroke-width="2.48"
     stroke-linejoin="bevel"
     points="585.761,506.23 585.761,423.398"
     id="polyline123"
     transform="translate(-305.41636,-350.28462)" />
</svg>
