<?xml version="1.0" encoding="UTF-8" standalone="no"?>
<svg
   width="576.64801mm"
   height="32.906616mm"
   viewBox="0 0 8172.9639 466.393"
   version="1.2"
   id="svg440"
   sodipodi:docname="song-1.svg"
   inkscape:version="1.2.2 (b0a8486541, 2022-12-01)"
   xmlns:inkscape="http://www.inkscape.org/namespaces/inkscape"
   xmlns:sodipodi="http://sodipodi.sourceforge.net/DTD/sodipodi-0.dtd"
   xmlns="http://www.w3.org/2000/svg"
   xmlns:svg="http://www.w3.org/2000/svg">
  <defs
     id="defs444" />
  <sodipodi:namedview
     id="namedview442"
     pagecolor="#ffffff"
     bordercolor="#666666"
     borderopacity="1.0"
     inkscape:showpageshadow="2"
     inkscape:pageopacity="0.0"
     inkscape:pagecheckerboard="0"
     inkscape:deskcolor="#d1d1d1"
     inkscape:document-units="mm"
     showgrid="false"
     inkscape:zoom="2.2033334"
     inkscape:cx="1358.1694"
     inkscape:cy="72.390316"
     inkscape:window-width="1920"
     inkscape:window-height="1032"
     inkscape:window-x="-4"
     inkscape:window-y="-4"
     inkscape:window-maximized="1"
     inkscape:current-layer="svg440" />
  <title
     id="title2">song.mid</title>
  <desc
     id="desc4">Generated by MuseScore Studio 4.5.2</desc>
  <polyline
     class="StaffLines"
     fill="none"
     stroke="#000000"
     stroke-width="2.73"
     stroke-linejoin="bevel"
     points="336.598,386.198 8478.38,386.198"
     id="polyline6"
     transform="translate(-305.41636,-280.77)" />
  <polyline
     class="StaffLines"
     fill="none"
     stroke="#000000"
     stroke-width="2.73"
     stroke-linejoin="bevel"
     points="336.598,410.998 8478.38,410.998"
     id="polyline8"
     transform="translate(-305.41636,-280.77)" />
  <polyline
     class="StaffLines"
     fill="none"
     stroke="#000000"
     stroke-width="2.73"
     stroke-linejoin="bevel"
     points="336.598,435.798 8478.38,435.798"
     id="polyline10"
     transform="translate(-305.41636,-280.77)" />
  <polyline
     class="StaffLines"
     fill="none"
     stroke="#000000"
     stroke-width="2.73"
     stroke-linejoin="bevel"
     points="336.598,460.598 8478.38,460.598"
     id="polyline12"
     transform="translate(-305.41636,-280.77)" />
  <polyline
     class="StaffLines"
     fill="none"
     stroke="#000000"
     stroke-width="2.73"
     stroke-linejoin="bevel"
     points="336.598,485.398 8478.38,485.398"
     id="polyline14"
     transform="translate(-305.41636,-280.77)" />
  <polyline
     class="StaffLines"
     fill="none"
     stroke="#000000"
     stroke-width="2.73"
     stroke-linejoin="bevel"
     points="336.598,646.598 8478.38,646.598"
     id="polyline16"
     transform="translate(-305.41636,-280.77)" />
  <polyline
     class="StaffLines"
     fill="none"
     stroke="#000000"
     stroke-width="2.73"
     stroke-linejoin="bevel"
     points="336.598,671.398 8478.38,671.398"
     id="polyline18"
     transform="translate(-305.41636,-280.77)" />
  <polyline
     class="StaffLines"
     fill="none"
     stroke="#000000"
     stroke-width="2.73"
     stroke-linejoin="bevel"
     points="336.598,696.198 8478.38,696.198"
     id="polyline20"
     transform="translate(-305.41636,-280.77)" />
  <polyline
     class="StaffLines"
     fill="none"
     stroke="#000000"
     stroke-width="2.73"
     stroke-linejoin="bevel"
     points="336.598,720.998 8478.38,720.998"
     id="polyline22"
     transform="translate(-305.41636,-280.77)" />
  <polyline
     class="StaffLines"
     fill="none"
     stroke="#000000"
     stroke-width="2.73"
     stroke-linejoin="bevel"
     points="336.598,745.798 8478.38,745.798"
     id="polyline24"
     transform="translate(-305.41636,-280.77)" />
  <polyline
     class="BarLine"
     fill="none"
     stroke="#000000"
     stroke-width="4.46"
     stroke-linejoin="bevel"
     points="5500.14,384.834 5500.14,646.598"
     id="polyline26"
     transform="translate(-347.9399,-280.77)" />
  <polyline
     class="BarLine"
     fill="none"
     stroke="#000000"
     stroke-width="4.46"
     stroke-linejoin="bevel"
     points="1036.14,384.834 1036.14,646.598"
     id="polyline28"
     transform="translate(-347.9399,-280.77)" />
  <polyline
     class="BarLine"
     fill="none"
     stroke="#000000"
     stroke-width="4.46"
     stroke-linejoin="bevel"
     points="5004.14,384.834 5004.14,646.598"
     id="polyline30"
     transform="translate(-347.9399,-280.77)" />
  <polyline
     class="BarLine"
     fill="none"
     stroke="#000000"
     stroke-width="4.46"
     stroke-linejoin="bevel"
     points="6988.14,384.834 6988.14,646.598"
     id="polyline32"
     transform="translate(-347.9399,-280.77)" />
  <polyline
     class="BarLine"
     fill="none"
     stroke="#000000"
     stroke-width="4.46"
     stroke-linejoin="bevel"
     points="4508.14,384.834 4508.14,646.598"
     id="polyline34"
     transform="translate(-347.9399,-280.77)" />
  <polyline
     class="BarLine"
     fill="none"
     stroke="#000000"
     stroke-width="4.46"
     stroke-linejoin="bevel"
     points="1532.14,384.834 1532.14,646.598"
     id="polyline36"
     transform="translate(-347.9399,-280.77)" />
  <polyline
     class="BarLine"
     fill="none"
     stroke="#000000"
     stroke-width="4.46"
     stroke-linejoin="bevel"
     points="7484.14,384.834 7484.14,646.598"
     id="polyline38"
     transform="translate(-347.9399,-280.77)" />
  <polyline
     class="BarLine"
     fill="none"
     stroke="#000000"
     stroke-width="4.46"
     stroke-linejoin="bevel"
     points="4012.14,384.834 4012.14,646.598"
     id="polyline40"
     transform="translate(-347.9399,-280.77)" />
  <polyline
     class="BarLine"
     fill="none"
     stroke="#000000"
     stroke-width="4.46"
     stroke-linejoin="bevel"
     points="2028.14,384.834 2028.14,646.598"
     id="polyline42"
     transform="translate(-347.9399,-280.77)" />
  <polyline
     class="BarLine"
     fill="none"
     stroke="#000000"
     stroke-width="4.46"
     stroke-linejoin="bevel"
     points="7980.14,384.834 7980.14,646.598"
     id="polyline44"
     transform="translate(-347.9399,-280.77)" />
  <polyline
     class="BarLine"
     fill="none"
     stroke="#000000"
     stroke-width="4.46"
     stroke-linejoin="bevel"
     points="6492.14,384.834 6492.14,646.598"
     id="polyline46"
     transform="translate(-347.9399,-280.77)" />
  <polyline
     class="BarLine"
     fill="none"
     stroke="#000000"
     stroke-width="4.46"
     stroke-linejoin="bevel"
     points="3516.14,384.834 3516.14,646.598"
     id="polyline48"
     transform="translate(-347.9399,-280.77)" />
  <polyline
     class="BarLine"
     fill="none"
     stroke="#000000"
     stroke-width="4.46"
     stroke-linejoin="bevel"
     points="5996.14,384.834 5996.14,646.598"
     id="polyline50"
     transform="translate(-347.9399,-280.77)" />
  <polyline
     class="BarLine"
     fill="none"
     stroke="#000000"
     stroke-width="4.46"
     stroke-linejoin="bevel"
     points="8453.33,384.834 8453.33,646.598"
     id="polyline52"
     transform="translate(-305.41636,-280.77)" />
  <polyline
     class="BarLine"
     fill="none"
     stroke="#000000"
     stroke-width="13.64"
     stroke-linejoin="bevel"
     points="8471.56,384.834 8471.56,646.598"
     id="polyline54"
     transform="translate(-305.41636,-280.77)" />
  <polyline
     class="BarLine"
     fill="none"
     stroke="#000000"
     stroke-width="4.46"
     stroke-linejoin="bevel"
     points="3020.14,384.834 3020.14,646.598"
     id="polyline56"
     transform="translate(-347.9399,-280.77)" />
  <polyline
     class="BarLine"
     fill="none"
     stroke="#000000"
     stroke-width="4.46"
     stroke-linejoin="bevel"
     points="2524.14,384.834 2524.14,646.598"
     id="polyline58"
     transform="translate(-347.9399,-280.77)" />
  <polyline
     class="BarLine"
     fill="none"
     stroke="#000000"
     stroke-width="4.46"
     stroke-linejoin="bevel"
     points="338.83,384.834 338.83,646.598"
     id="polyline60"
     transform="translate(-305.41636,-280.77)" />
  <polyline
     class="BarLine"
     fill="none"
     stroke="#000000"
     stroke-width="4.46"
     stroke-linejoin="bevel"
     points="5996.14,645.234 5996.14,747.162"
     id="polyline62"
     transform="translate(-347.9399,-280.77)" />
  <polyline
     class="BarLine"
     fill="none"
     stroke="#000000"
     stroke-width="4.46"
     stroke-linejoin="bevel"
     points="1532.14,645.234 1532.14,747.162"
     id="polyline64"
     transform="translate(-347.9399,-280.77)" />
  <polyline
     class="BarLine"
     fill="none"
     stroke="#000000"
     stroke-width="4.46"
     stroke-linejoin="bevel"
     points="5500.14,645.234 5500.14,747.162"
     id="polyline66"
     transform="translate(-347.9399,-280.77)" />
  <polyline
     class="BarLine"
     fill="none"
     stroke="#000000"
     stroke-width="4.46"
     stroke-linejoin="bevel"
     points="5004.14,645.234 5004.14,747.162"
     id="polyline68"
     transform="translate(-347.9399,-280.77)" />
  <polyline
     class="BarLine"
     fill="none"
     stroke="#000000"
     stroke-width="4.46"
     stroke-linejoin="bevel"
     points="4508.14,645.234 4508.14,747.162"
     id="polyline70"
     transform="translate(-347.9399,-280.77)" />
  <polyline
     class="BarLine"
     fill="none"
     stroke="#000000"
     stroke-width="4.46"
     stroke-linejoin="bevel"
     points="4012.14,645.234 4012.14,747.162"
     id="polyline72"
     transform="translate(-347.9399,-280.77)" />
  <polyline
     class="BarLine"
     fill="none"
     stroke="#000000"
     stroke-width="4.46"
     stroke-linejoin="bevel"
     points="2028.14,645.234 2028.14,747.162"
     id="polyline74"
     transform="translate(-347.9399,-280.77)" />
  <polyline
     class="BarLine"
     fill="none"
     stroke="#000000"
     stroke-width="4.46"
     stroke-linejoin="bevel"
     points="3516.14,645.234 3516.14,747.162"
     id="polyline76"
     transform="translate(-347.9399,-280.77)" />
  <polyline
     class="BarLine"
     fill="none"
     stroke="#000000"
     stroke-width="4.46"
     stroke-linejoin="bevel"
     points="3020.14,645.234 3020.14,747.162"
     id="polyline78"
     transform="translate(-347.9399,-280.77)" />
  <polyline
     class="BarLine"
     fill="none"
     stroke="#000000"
     stroke-width="4.46"
     stroke-linejoin="bevel"
     points="2524.14,645.234 2524.14,747.162"
     id="polyline80"
     transform="translate(-347.9399,-280.77)" />
  <polyline
     class="BarLine"
     fill="none"
     stroke="#000000"
     stroke-width="4.46"
     stroke-linejoin="bevel"
     points="338.83,645.234 338.83,747.162"
     id="polyline82"
     transform="translate(-305.41636,-280.77)" />
  <polyline
     class="BarLine"
     fill="none"
     stroke="#000000"
     stroke-width="4.46"
     stroke-linejoin="bevel"
     points="8453.33,645.234 8453.33,747.162"
     id="polyline84"
     transform="translate(-305.41636,-280.77)" />
  <polyline
     class="BarLine"
     fill="none"
     stroke="#000000"
     stroke-width="13.64"
     stroke-linejoin="bevel"
     points="8471.56,645.234 8471.56,747.162"
     id="polyline86"
     transform="translate(-305.41636,-280.77)" />
  <polyline
     class="BarLine"
     fill="none"
     stroke="#000000"
     stroke-width="4.46"
     stroke-linejoin="bevel"
     points="6492.14,645.234 6492.14,747.162"
     id="polyline88"
     transform="translate(-347.9399,-280.77)" />
  <polyline
     class="BarLine"
     fill="none"
     stroke="#000000"
     stroke-width="4.46"
     stroke-linejoin="bevel"
     points="1036.14,645.234 1036.14,747.162"
     id="polyline90"
     transform="translate(-347.9399,-280.77)" />
  <polyline
     class="BarLine"
     fill="none"
     stroke="#000000"
     stroke-width="4.46"
     stroke-linejoin="bevel"
     points="7980.14,645.234 7980.14,747.162"
     id="polyline92"
     transform="translate(-347.9399,-280.77)" />
  <polyline
     class="BarLine"
     fill="none"
     stroke="#000000"
     stroke-width="4.46"
     stroke-linejoin="bevel"
     points="7484.14,645.234 7484.14,747.162"
     id="polyline94"
     transform="translate(-347.9399,-280.77)" />
  <polyline
     class="BarLine"
     fill="none"
     stroke="#000000"
     stroke-width="4.46"
     stroke-linejoin="bevel"
     points="6988.14,645.234 6988.14,747.162"
     id="polyline96"
     transform="translate(-347.9399,-280.77)" />
  <polyline
     class="LedgerLine"
     fill="none"
     stroke="#000000"
     stroke-width="3.97"
     stroke-linejoin="bevel"
     points="8239.27,510.198 8287.87,510.198"
     id="polyline98"
     transform="translate(-305.41636,-280.77)" />
  <polyline
     class="LedgerLine"
     fill="none"
     stroke="#000000"
     stroke-width="3.97"
     stroke-linejoin="bevel"
     points="4189.19,510.198 4237.78,510.198"
     id="polyline100"
     transform="translate(-305.41636,-280.77)" />
  <polyline
     class="LedgerLine"
     fill="none"
     stroke="#000000"
     stroke-width="3.97"
     stroke-linejoin="bevel"
     points="4284.13,510.198 4332.72,510.198"
     id="polyline102"
     transform="translate(-305.41636,-280.77)" />
  <polyline
     class="LedgerLine"
     fill="none"
     stroke="#000000"
     stroke-width="3.97"
     stroke-linejoin="bevel"
     points="3524.58,510.198 3573.17,510.198"
     id="polyline104"
     transform="translate(-305.41636,-280.77)" />
  <polyline
     class="LedgerLine"
     fill="none"
     stroke="#000000"
     stroke-width="3.97"
     stroke-linejoin="bevel"
     points="7611.86,510.198 7660.46,510.198"
     id="polyline106"
     transform="translate(-305.41636,-280.77)" />
  <polyline
     class="LedgerLine"
     fill="none"
     stroke="#000000"
     stroke-width="3.97"
     stroke-linejoin="bevel"
     points="1540.58,510.198 1589.17,510.198"
     id="polyline108"
     transform="translate(-305.41636,-280.77)" />
  <polyline
     class="LedgerLine"
     fill="none"
     stroke="#000000"
     stroke-width="3.97"
     stroke-linejoin="bevel"
     points="3643.86,510.198 3692.46,510.198"
     id="polyline110"
     transform="translate(-305.41636,-280.77)" />
  <polyline
     class="LedgerLine"
     fill="none"
     stroke="#000000"
     stroke-width="3.97"
     stroke-linejoin="bevel"
     points="4871.46,510.198 4920.06,510.198"
     id="polyline112"
     transform="translate(-305.41636,-280.77)" />
  <polyline
     class="LedgerLine"
     fill="none"
     stroke="#000000"
     stroke-width="3.97"
     stroke-linejoin="bevel"
     points="5376.87,510.198 5425.46,510.198"
     id="polyline114"
     transform="translate(-305.41636,-280.77)" />
  <polyline
     class="LedgerLine"
     fill="none"
     stroke="#000000"
     stroke-width="3.97"
     stroke-linejoin="bevel"
     points="7492.58,510.198 7541.17,510.198"
     id="polyline116"
     transform="translate(-305.41636,-280.77)" />
  <polyline
     class="LedgerLine"
     fill="none"
     stroke="#000000"
     stroke-width="3.97"
     stroke-linejoin="bevel"
     points="8148.77,510.198 8197.36,510.198"
     id="polyline118"
     transform="translate(-305.41636,-280.77)" />
  <polyline
     class="LedgerLine"
     fill="none"
     stroke="#000000"
     stroke-width="3.97"
     stroke-linejoin="bevel"
     points="1659.86,510.198 1708.46,510.198"
     id="polyline120"
     transform="translate(-305.41636,-280.77)" />
  <polyline
     class="LedgerLine"
     fill="none"
     stroke="#000000"
     stroke-width="3.97"
     stroke-linejoin="bevel"
     points="6004.58,510.198 6053.17,510.198"
     id="polyline122"
     transform="translate(-305.41636,-280.77)" />
  <polyline
     class="Stem"
     fill="none"
     stroke="#000000"
     stroke-width="2.48"
     stroke-linejoin="bevel"
     points="819.129,469.03 819.129,386.198"
     id="polyline124"
     transform="translate(-305.41636,-280.77)" />
  <polyline
     class="Stem"
     fill="none"
     stroke="#000000"
     stroke-width="2.48"
     stroke-linejoin="bevel"
     points="6772.37,469.03 6772.37,386.198"
     id="polyline126"
     transform="translate(-305.41636,-280.77)" />
  <polyline
     class="Stem"
     fill="none"
     stroke="#000000"
     stroke-width="2.48"
     stroke-linejoin="bevel"
     points="4788.37,481.43 4788.37,398.598"
     id="polyline128"
     transform="translate(-305.41636,-280.77)" />
  <polyline
     class="Stem"
     fill="none"
     stroke="#000000"
     stroke-width="2.48"
     stroke-linejoin="bevel"
     points="4666.1,493.83 4666.1,410.998"
     id="polyline130"
     transform="translate(-305.41636,-280.77)" />
  <polyline
     class="Stem"
     fill="none"
     stroke="#000000"
     stroke-width="2.48"
     stroke-linejoin="bevel"
     points="696.245,481.43 696.245,398.598"
     id="polyline132"
     transform="translate(-305.41636,-280.77)" />
  <polyline
     class="Stem"
     fill="none"
     stroke="#000000"
     stroke-width="2.48"
     stroke-linejoin="bevel"
     points="4910.63,506.23 4910.63,423.398"
     id="polyline134"
     transform="translate(-305.41636,-280.77)" />
  <polyline
     class="Stem"
     fill="none"
     stroke="#000000"
     stroke-width="2.48"
     stroke-linejoin="bevel"
     points="4543.84,493.83 4543.84,410.998"
     id="polyline136"
     transform="translate(-305.41636,-280.77)" />
  <polyline
     class="Stem"
     fill="none"
     stroke="#000000"
     stroke-width="2.48"
     stroke-linejoin="bevel"
     points="6894.63,456.63 6894.63,373.798"
     id="polyline138"
     transform="translate(-305.41636,-280.77)" />
  <polyline
     class="Stem"
     fill="none"
     stroke="#000000"
     stroke-width="2.48"
     stroke-linejoin="bevel"
     points="7023.84,456.63 7023.84,373.798"
     id="polyline140"
     transform="translate(-305.41636,-280.77)" />
  <polyline
     class="Stem"
     fill="none"
     stroke="#000000"
     stroke-width="2.48"
     stroke-linejoin="bevel"
     points="1699.03,506.23 1699.03,423.398"
     id="polyline142"
     transform="translate(-305.41636,-280.77)" />
  <polyline
     class="Stem"
     fill="none"
     stroke="#000000"
     stroke-width="2.48"
     stroke-linejoin="bevel"
     points="1579.74,506.23 1579.74,423.398"
     id="polyline144"
     transform="translate(-305.41636,-280.77)" />
  <polyline
     class="Stem"
     fill="none"
     stroke="#000000"
     stroke-width="2.48"
     stroke-linejoin="bevel"
     points="7146.1,469.03 7146.1,386.198"
     id="polyline146"
     transform="translate(-305.41636,-280.77)" />
  <polyline
     class="Stem"
     fill="none"
     stroke="#000000"
     stroke-width="2.48"
     stroke-linejoin="bevel"
     points="1316.37,481.43 1316.37,398.598"
     id="polyline148"
     transform="translate(-305.41636,-280.77)" />
  <polyline
     class="Stem"
     fill="none"
     stroke="#000000"
     stroke-width="2.48"
     stroke-linejoin="bevel"
     points="1194.1,469.03 1194.1,386.198"
     id="polyline150"
     transform="translate(-305.41636,-280.77)" />
  <polyline
     class="Stem"
     fill="none"
     stroke="#000000"
     stroke-width="2.48"
     stroke-linejoin="bevel"
     points="6043.74,506.23 6043.74,423.398"
     id="polyline152"
     transform="translate(-305.41636,-280.77)" />
  <polyline
     class="Stem"
     fill="none"
     stroke="#000000"
     stroke-width="2.48"
     stroke-linejoin="bevel"
     points="5912.04,493.83 5912.04,410.998"
     id="polyline154"
     transform="translate(-305.41636,-280.77)" />
  <polyline
     class="Stem"
     fill="none"
     stroke="#000000"
     stroke-width="2.48"
     stroke-linejoin="bevel"
     points="5799.18,481.43 5799.18,398.598"
     id="polyline156"
     transform="translate(-305.41636,-280.77)" />
  <polyline
     class="Stem"
     fill="none"
     stroke="#000000"
     stroke-width="2.48"
     stroke-linejoin="bevel"
     points="5723.94,469.03 5723.94,404.897"
     id="polyline158"
     transform="translate(-305.41636,-280.77)" />
  <polyline
     class="Stem"
     fill="none"
     stroke="#000000"
     stroke-width="2.48"
     stroke-linejoin="bevel"
     points="6180.07,493.83 6180.07,410.998"
     id="polyline160"
     transform="translate(-305.41636,-280.77)" />
  <polyline
     class="Stem"
     fill="none"
     stroke="#000000"
     stroke-width="2.48"
     stroke-linejoin="bevel"
     points="5648.7,481.43 5648.7,410.9"
     id="polyline162"
     transform="translate(-305.41636,-280.77)" />
  <polyline
     class="Stem"
     fill="none"
     stroke="#000000"
     stroke-width="2.48"
     stroke-linejoin="bevel"
     points="1071.84,456.63 1071.84,373.798"
     id="polyline164"
     transform="translate(-305.41636,-280.77)" />
  <polyline
     class="Stem"
     fill="none"
     stroke="#000000"
     stroke-width="2.48"
     stroke-linejoin="bevel"
     points="5535.84,493.83 5535.84,410.998"
     id="polyline166"
     transform="translate(-305.41636,-280.77)" />
  <polyline
     class="Stem"
     fill="none"
     stroke="#000000"
     stroke-width="2.48"
     stroke-linejoin="bevel"
     points="5039.84,493.83 5039.84,410.998"
     id="polyline168"
     transform="translate(-305.41636,-280.77)" />
  <polyline
     class="Stem"
     fill="none"
     stroke="#000000"
     stroke-width="2.48"
     stroke-linejoin="bevel"
     points="1438.63,493.83 1438.63,410.998"
     id="polyline170"
     transform="translate(-305.41636,-280.77)" />
  <polyline
     class="Stem"
     fill="none"
     stroke="#000000"
     stroke-width="2.48"
     stroke-linejoin="bevel"
     points="942.013,456.63 942.013,373.798"
     id="polyline172"
     transform="translate(-305.41636,-280.77)" />
  <polyline
     class="Stem"
     fill="none"
     stroke="#000000"
     stroke-width="2.48"
     stroke-linejoin="bevel"
     points="5416.04,506.23 5416.04,423.398"
     id="polyline174"
     transform="translate(-305.41636,-280.77)" />
  <polyline
     class="Stem"
     fill="none"
     stroke="#000000"
     stroke-width="2.48"
     stroke-linejoin="bevel"
     points="6527.84,481.43 6527.84,398.598"
     id="polyline176"
     transform="translate(-305.41636,-280.77)" />
  <polyline
     class="Stem"
     fill="none"
     stroke="#000000"
     stroke-width="2.48"
     stroke-linejoin="bevel"
     points="5303.18,481.43 5303.18,398.598"
     id="polyline178"
     transform="translate(-305.41636,-280.77)" />
  <polyline
     class="Stem"
     fill="none"
     stroke="#000000"
     stroke-width="2.48"
     stroke-linejoin="bevel"
     points="5227.94,469.03 5227.94,404.897"
     id="polyline180"
     transform="translate(-305.41636,-280.77)" />
  <polyline
     class="Stem"
     fill="none"
     stroke="#000000"
     stroke-width="2.48"
     stroke-linejoin="bevel"
     points="6650.1,481.43 6650.1,398.598"
     id="polyline182"
     transform="translate(-305.41636,-280.77)" />
  <polyline
     class="Stem"
     fill="none"
     stroke="#000000"
     stroke-width="2.48"
     stroke-linejoin="bevel"
     points="5152.7,481.43 5152.7,410.9"
     id="polyline184"
     transform="translate(-305.41636,-280.77)" />
  <polyline
     class="Stem"
     fill="none"
     stroke="#000000"
     stroke-width="2.48"
     stroke-linejoin="bevel"
     points="4323.29,506.23 4323.29,423.398"
     id="polyline186"
     transform="translate(-305.41636,-280.77)" />
  <polyline
     class="Stem"
     fill="none"
     stroke="#000000"
     stroke-width="2.48"
     stroke-linejoin="bevel"
     points="4228.36,506.23 4228.36,423.597"
     id="polyline188"
     transform="translate(-305.41636,-280.77)" />
  <polyline
     class="Stem"
     fill="none"
     stroke="#000000"
     stroke-width="2.48"
     stroke-linejoin="bevel"
     points="3300.37,481.43 3300.37,398.598"
     id="polyline190"
     transform="translate(-305.41636,-280.77)" />
  <polyline
     class="Stem"
     fill="none"
     stroke="#000000"
     stroke-width="2.48"
     stroke-linejoin="bevel"
     points="3178.1,469.03 3178.1,386.198"
     id="polyline192"
     transform="translate(-305.41636,-280.77)" />
  <polyline
     class="Stem"
     fill="none"
     stroke="#000000"
     stroke-width="2.48"
     stroke-linejoin="bevel"
     points="7889.61,481.43 7889.61,398.598"
     id="polyline194"
     transform="translate(-305.41636,-280.77)" />
  <polyline
     class="Stem"
     fill="none"
     stroke="#000000"
     stroke-width="2.48"
     stroke-linejoin="bevel"
     points="3422.63,493.83 3422.63,410.998"
     id="polyline196"
     transform="translate(-305.41636,-280.77)" />
  <polyline
     class="Stem"
     fill="none"
     stroke="#000000"
     stroke-width="2.48"
     stroke-linejoin="bevel"
     points="8015.84,493.83 8015.84,410.998"
     id="polyline198"
     transform="translate(-305.41636,-280.77)" />
  <polyline
     class="Stem"
     fill="none"
     stroke="#000000"
     stroke-width="2.48"
     stroke-linejoin="bevel"
     points="3055.84,456.63 3055.84,373.798"
     id="polyline200"
     transform="translate(-305.41636,-280.77)" />
  <polyline
     class="Stem"
     fill="none"
     stroke="#000000"
     stroke-width="2.48"
     stroke-linejoin="bevel"
     points="7770.32,493.83 7770.32,410.998"
     id="polyline202"
     transform="translate(-305.41636,-280.77)" />
  <polyline
     class="Stem"
     fill="none"
     stroke="#000000"
     stroke-width="2.48"
     stroke-linejoin="bevel"
     points="2063.84,481.43 2063.84,398.598"
     id="polyline204"
     transform="translate(-305.41636,-280.77)" />
  <polyline
     class="Stem"
     fill="none"
     stroke="#000000"
     stroke-width="2.48"
     stroke-linejoin="bevel"
     points="3563.74,506.23 3563.74,423.398"
     id="polyline206"
     transform="translate(-305.41636,-280.77)" />
  <polyline
     class="Stem"
     fill="none"
     stroke="#000000"
     stroke-width="2.48"
     stroke-linejoin="bevel"
     points="7651.03,506.23 7651.03,423.398"
     id="polyline208"
     transform="translate(-305.41636,-280.77)" />
  <polyline
     class="Stem"
     fill="none"
     stroke="#000000"
     stroke-width="2.48"
     stroke-linejoin="bevel"
     points="3683.03,506.23 3683.03,423.398"
     id="polyline210"
     transform="translate(-305.41636,-280.77)" />
  <polyline
     class="Stem"
     fill="none"
     stroke="#000000"
     stroke-width="2.48"
     stroke-linejoin="bevel"
     points="2244.36,493.83 2244.36,411.197"
     id="polyline212"
     transform="translate(-305.41636,-280.77)" />
  <polyline
     class="Stem"
     fill="none"
     stroke="#000000"
     stroke-width="2.48"
     stroke-linejoin="bevel"
     points="8187.94,506.23 8187.94,423.597"
     id="polyline214"
     transform="translate(-305.41636,-280.77)" />
  <polyline
     class="Stem"
     fill="none"
     stroke="#000000"
     stroke-width="2.48"
     stroke-linejoin="bevel"
     points="3802.32,493.83 3802.32,410.998"
     id="polyline216"
     transform="translate(-305.41636,-280.77)" />
  <polyline
     class="Stem"
     fill="none"
     stroke="#000000"
     stroke-width="2.48"
     stroke-linejoin="bevel"
     points="7531.74,506.23 7531.74,423.398"
     id="polyline218"
     transform="translate(-305.41636,-280.77)" />
  <polyline
     class="Stem"
     fill="none"
     stroke="#000000"
     stroke-width="2.48"
     stroke-linejoin="bevel"
     points="573.361,481.43 573.361,398.598"
     id="polyline220"
     transform="translate(-305.41636,-280.77)" />
  <polyline
     class="Stem"
     fill="none"
     stroke="#000000"
     stroke-width="2.48"
     stroke-linejoin="bevel"
     points="2926.63,456.63 2926.63,373.798"
     id="polyline222"
     transform="translate(-305.41636,-280.77)" />
  <polyline
     class="Stem"
     fill="none"
     stroke="#000000"
     stroke-width="2.48"
     stroke-linejoin="bevel"
     points="1937.61,481.43 1937.61,398.598"
     id="polyline224"
     transform="translate(-305.41636,-280.77)" />
  <polyline
     class="Stem"
     fill="none"
     stroke="#000000"
     stroke-width="2.48"
     stroke-linejoin="bevel"
     points="2804.37,469.03 2804.37,386.198"
     id="polyline226"
     transform="translate(-305.41636,-280.77)" />
  <polyline
     class="Stem"
     fill="none"
     stroke="#000000"
     stroke-width="2.48"
     stroke-linejoin="bevel"
     points="1818.32,493.83 1818.32,410.998"
     id="polyline228"
     transform="translate(-305.41636,-280.77)" />
  <polyline
     class="Stem"
     fill="none"
     stroke="#000000"
     stroke-width="2.48"
     stroke-linejoin="bevel"
     points="4047.84,493.83 4047.84,410.998"
     id="polyline230"
     transform="translate(-305.41636,-280.77)" />
  <polyline
     class="Stem"
     fill="none"
     stroke="#000000"
     stroke-width="2.48"
     stroke-linejoin="bevel"
     points="3921.61,481.43 3921.61,398.598"
     id="polyline232"
     transform="translate(-305.41636,-280.77)" />
  <polyline
     class="Stem"
     fill="none"
     stroke="#000000"
     stroke-width="2.48"
     stroke-linejoin="bevel"
     points="2339.29,493.83 2339.29,410.998"
     id="polyline234"
     transform="translate(-305.41636,-280.77)" />
  <polyline
     class="Stem"
     fill="none"
     stroke="#000000"
     stroke-width="2.48"
     stroke-linejoin="bevel"
     points="7390.63,493.83 7390.63,410.998"
     id="polyline236"
     transform="translate(-305.41636,-280.77)" />
  <polyline
     class="Stem"
     fill="none"
     stroke="#000000"
     stroke-width="2.48"
     stroke-linejoin="bevel"
     points="8278.44,506.23 8278.44,423.398"
     id="polyline238"
     transform="translate(-305.41636,-280.77)" />
  <polyline
     class="Stem"
     fill="none"
     stroke="#000000"
     stroke-width="2.48"
     stroke-linejoin="bevel"
     points="2682.1,481.43 2682.1,398.598"
     id="polyline240"
     transform="translate(-305.41636,-280.77)" />
  <polyline
     class="Stem"
     fill="none"
     stroke="#000000"
     stroke-width="2.48"
     stroke-linejoin="bevel"
     points="7268.37,481.43 7268.37,398.598"
     id="polyline242"
     transform="translate(-305.41636,-280.77)" />
  <polyline
     class="Stem"
     fill="none"
     stroke="#000000"
     stroke-width="2.48"
     stroke-linejoin="bevel"
     points="2559.84,481.43 2559.84,398.598"
     id="polyline244"
     transform="translate(-305.41636,-280.77)" />
  <polyline
     class="Stem"
     fill="none"
     stroke="#000000"
     stroke-width="2.48"
     stroke-linejoin="bevel"
     points="6286.66,663.165 6286.66,745.798"
     id="polyline246"
     transform="translate(-304.72356,-280.77)" />
  <path
     class="Hook"
     d="m 3921.7036,165.14948 c 0,0.29452 0.093,0.79052 0.7905,1.08504 4.2625,1.39496 12.803,6.758 19.251,17.76296 1.7825,3.06904 4.6656,7.34704 4.6656,15.57757 0,7.14547 -1.8911,14.47695 -4.464,21.62243 -0.2016,0.60452 -0.4031,1.10052 -0.31,1.488 0,0.40304 0.1084,0.69757 0.496,0.89904 0.2015,0.093 0.4029,0.093 0.496,0.093 0.6975,0 1.1935,-0.38748 1.5964,-1.08496 4.6656,-8.246 6.2465,-18.75504 6.1536,-25.00147 0,-0.496 0,-0.79053 0,-1.19357 -0.496,-12.80296 -7.8431,-22.22696 -7.8431,-22.22696 0.2946,0 -9.1294,-12.19852 -11.811,-16.368 -3.658,-5.65752 -5.3475,-11.29952 -5.549,-11.70252 -0.093,-0.2945 -0.992,-3.875 -0.992,-3.875 -0.093,-0.3875 -0.589,-0.7905 -1.1935,-0.7905 -0.6975,0 -1.2865,0.6045 -1.2865,1.2865 v 22.42848"
     id="path248"
     style="stroke-width:0.992" />
  <path
     class="Hook"
     d="m 7881.2836,165.14948 c 0,0.29452 0.093,0.79052 0.7905,1.08504 4.2625,1.39496 12.803,6.758 19.251,17.76296 1.7825,3.06904 4.6656,7.34704 4.6656,15.57757 0,7.14547 -1.8911,14.47695 -4.464,21.62243 -0.2016,0.60452 -0.4031,1.10052 -0.31,1.488 0,0.40304 0.1084,0.69757 0.496,0.89904 0.2015,0.093 0.4029,0.093 0.496,0.093 0.6975,0 1.1935,-0.38748 1.5964,-1.08496 4.6656,-8.246 6.2465,-18.75504 6.1536,-25.00147 0,-0.496 0,-0.79053 0,-1.19357 -0.496,-12.80296 -7.8431,-22.22696 -7.8431,-22.22696 0.2946,0 -9.1294,-12.19852 -11.811,-16.368 -3.658,-5.65752 -5.3475,-11.29952 -5.549,-11.70252 -0.093,-0.2945 -0.992,-3.875 -0.992,-3.875 -0.093,-0.3875 -0.589,-0.7905 -1.1935,-0.7905 -0.6975,0 -1.2865,0.6045 -1.2865,1.2865 v 22.42848"
     id="path250"
     style="stroke-width:0.992" />
  <path
     class="Hook"
     d="m 1937.7036,152.74948 c 0,0.29452 0.093,0.79052 0.7905,1.08504 4.2625,1.39496 12.803,6.758 19.251,17.76296 1.7825,3.06904 4.6656,7.34704 4.6656,15.57757 0,7.14547 -1.8911,14.47695 -4.464,21.62243 -0.2016,0.60452 -0.4031,1.10052 -0.31,1.488 0,0.40304 0.1084,0.69757 0.496,0.89904 0.2015,0.093 0.4029,0.093 0.496,0.093 0.6975,0 1.1935,-0.38748 1.5964,-1.08496 4.6656,-8.246 6.2465,-18.75504 6.1536,-25.00147 0,-0.496 0,-0.79053 0,-1.19357 -0.496,-12.80296 -7.8431,-22.22696 -7.8431,-22.22696 0.2946,0 -9.1294,-12.19852 -11.811,-16.368 -3.658,-5.65752 -5.3475,-11.29952 -5.549,-11.70252 -0.093,-0.2945 -0.992,-3.875 -0.992,-3.875 -0.093,-0.3875 -0.589,-0.7905 -1.1935,-0.7905 -0.6975,0 -1.2865,0.6045 -1.2865,1.2865 v 22.42848"
     id="path252"
     style="stroke-width:0.992" />
  <path
     class="Note"
     d="m 359.84364,208.7975 c 0,4.2625 3.069,9.02102 11.11348,9.02102 10.30757,0 21.12652,-8.43202 21.12652,-17.15852 0,-5.859 -4.96,-9.12948 -11.11347,-9.12948 -9.62548,0 -21.12653,8.13748 -21.12653,17.26698"
     id="path254"
     style="stroke-width:0.992" />
  <path
     class="Note"
     d="m 6809.7036,196.3975 c 0,4.2625 3.069,9.02102 11.1135,9.02102 10.3076,0 21.1265,-8.43202 21.1265,-17.15852 0,-5.859 -4.96,-9.12948 -11.1134,-9.12948 -9.6255,0 -21.1266,8.13748 -21.1266,17.26698"
     id="path256"
     style="stroke-width:0.992" />
  <path
     class="Note"
     d="m 735.44364,183.9975 c 0,4.2625 3.069,9.02102 11.11348,9.02102 10.30757,0 21.12652,-8.43202 21.12652,-17.15852 0,-5.859 -4.96,-9.12948 -11.11347,-9.12948 -9.62548,0 -21.12653,8.13748 -21.12653,17.26698"
     id="path258"
     style="stroke-width:0.992" />
  <path
     class="Note"
     d="m 979.96364,208.7975 c 0,4.2625 3.069,9.02102 11.11348,9.02102 10.30758,0 21.12648,-8.43202 21.12648,-17.15852 0,-5.859 -4.96,-9.12948 -11.1134,-9.12948 -9.62551,0 -21.12656,8.13748 -21.12656,17.26698"
     id="path260"
     style="stroke-width:0.992" />
  <path
     class="Note"
     d="m 7963.1702,216.33052 c -9.6255,0 -21.1266,8.04448 -21.1266,17.26698 0,4.2625 3.069,9.02102 11.1135,9.02102 10.3076,0 21.1265,-8.43202 21.1265,-17.15852 0,-5.859 -4.96,-9.12948 -11.1134,-9.12948 m -2.6815,17.46848 c -0.2945,0.186 -7.5331,4.154 -11.0051,4.154 -3.2705,0 -3.968,-2.666 -3.968,-3.565 0,-4.1695 9.92,-9.021 10.3231,-9.2225 0.3875,-0.2015 7.44,-4.1695 11.0049,-4.1695 2.3871,0 3.968,1.395 3.968,3.565 0,4.278 -10.0129,9.0365 -10.3229,9.238"
     id="path262"
     style="stroke-width:0.992" />
  <path
     class="Note"
     d="m 6931.9636,208.7975 c 0,4.2625 3.069,9.02102 11.1135,9.02102 10.3076,0 21.1265,-8.43202 21.1265,-17.15852 0,-5.859 -4.96,-9.12948 -11.1134,-9.12948 -9.6255,0 -21.1266,8.13748 -21.1266,17.26698"
     id="path264"
     style="stroke-width:0.992" />
  <path
     class="Note"
     d="m 6687.4436,183.9975 c 0,4.2625 3.069,9.02102 11.1135,9.02102 10.3076,0 21.1265,-8.43202 21.1265,-17.15852 0,-5.859 -4.96,-9.12948 -11.1134,-9.12948 -9.6255,0 -21.1266,8.13748 -21.1266,17.26698"
     id="path266"
     style="stroke-width:0.992" />
  <path
     class="Note"
     d="m 5707.3436,233.5975 c 0,4.2625 3.069,9.02102 11.1135,9.02102 10.3076,0 21.1265,-8.43202 21.1265,-17.15852 0,-5.859 -4.96,-9.12948 -11.1134,-9.12948 -9.6255,0 -21.1266,8.13748 -21.1266,17.26698"
     id="path268"
     style="stroke-width:0.992" />
  <path
     class="Note"
     d="m 7054.2336,221.1975 c 0,4.2625 3.069,9.02102 11.1135,9.02102 10.3076,0 21.1265,-8.43202 21.1265,-17.15852 0,-5.859 -4.96,-9.12948 -11.1134,-9.12948 -9.6255,0 -21.1266,8.13748 -21.1266,17.26698"
     id="path270"
     style="stroke-width:0.992" />
  <path
     class="Note"
     d="m 7851.5336,233.5975 c 0,4.2625 3.069,9.02102 11.1135,9.02102 10.3076,0 21.1265,-8.43202 21.1265,-17.15852 0,-5.859 -4.96,-9.12948 -11.1134,-9.12948 -9.6255,0 -21.1266,8.13748 -21.1266,17.26698"
     id="path272"
     style="stroke-width:0.992" />
  <path
     class="Note"
     d="m 5843.6736,221.1975 c 0,4.2625 3.069,9.02102 11.1135,9.02102 10.3076,0 21.1265,-8.43202 21.1265,-17.15852 0,-5.859 -4.96,-9.12948 -11.1134,-9.12948 -9.6255,0 -21.1266,8.13748 -21.1266,17.26698"
     id="path274"
     style="stroke-width:0.992" />
  <path
     class="Note"
     d="m 7553.2036,208.7975 c 0,4.2625 3.069,9.02102 11.1135,9.02102 10.3076,0 21.1265,-8.43202 21.1265,-17.15852 0,-5.859 -4.96,-9.12948 -11.1134,-9.12948 -9.6255,0 -21.1266,8.13748 -21.1266,17.26698"
     id="path276"
     style="stroke-width:0.992" />
  <path
     class="Note"
     d="m 482.72764,196.3975 c 0,4.2625 3.069,9.02102 11.11348,9.02102 10.30757,0 21.12652,-8.43202 21.12652,-17.15852 0,-5.859 -4.96,-9.12948 -11.11347,-9.12948 -9.62548,0 -21.12653,8.13748 -21.12653,17.26698"
     id="path278"
     style="stroke-width:0.992" />
  <path
     class="Note"
     d="m 7195.3436,233.5975 c 0,4.2625 3.069,9.02102 11.1135,9.02102 10.3076,0 21.1265,-8.43202 21.1265,-17.15852 0,-5.859 -4.96,-9.12948 -11.1134,-9.12948 -9.6255,0 -21.1266,8.13748 -21.1266,17.26698"
     id="path280"
     style="stroke-width:0.992" />
  <path
     class="Note"
     d="m 6558.2336,183.9975 c 0,4.2625 3.069,9.02102 11.1135,9.02102 10.3076,0 21.1265,-8.43202 21.1265,-17.15852 0,-5.859 -4.96,-9.12948 -11.1134,-9.12948 -9.6255,0 -21.1266,8.13748 -21.1266,17.26698"
     id="path282"
     style="stroke-width:0.992" />
  <path
     class="Note"
     d="m 7314.6336,233.5975 c 0,4.2625 3.069,9.02102 11.1135,9.02102 10.3076,0 21.1265,-8.43202 21.1265,-17.15852 0,-5.859 -4.96,-9.12948 -11.1134,-9.12948 -9.6255,0 -21.1266,8.13748 -21.1266,17.26698"
     id="path284"
     style="stroke-width:0.992" />
  <path
     class="Note"
     d="m 6435.9636,196.3975 c 0,4.2625 3.069,9.02102 11.1135,9.02102 10.3076,0 21.1265,-8.43202 21.1265,-17.15852 0,-5.859 -4.96,-9.12948 -11.1134,-9.12948 -9.6255,0 -21.1266,8.13748 -21.1266,17.26698"
     id="path286"
     style="stroke-width:0.992" />
  <path
     class="Note"
     d="m 7433.9236,221.1975 c 0,4.2625 3.069,9.02102 11.1135,9.02102 10.3076,0 21.1265,-8.43202 21.1265,-17.15852 0,-5.859 -4.96,-9.12948 -11.1134,-9.12948 -9.6255,0 -21.1266,8.13748 -21.1266,17.26698"
     id="path288"
     style="stroke-width:0.992" />
  <path
     class="Note"
     d="m 605.61164,183.9975 c 0,4.2625 3.069,9.02102 11.11348,9.02102 10.30757,0 21.12652,-8.43202 21.12652,-17.15852 0,-5.859 -4.96,-9.12948 -11.11347,-9.12948 -9.62548,0 -21.12653,8.13748 -21.12653,17.26698"
     id="path290"
     style="stroke-width:0.992" />
  <path
     class="Note"
     d="m 7679.4436,221.1975 c 0,4.2625 3.069,9.02102 11.1135,9.02102 10.3076,0 21.1265,-8.43202 21.1265,-17.15852 0,-5.859 -4.96,-9.12948 -11.1134,-9.12948 -9.6255,0 -21.1266,8.13748 -21.1266,17.26698"
     id="path292"
     style="stroke-width:0.992" />
  <path
     class="Note"
     d="m 6313.7036,208.7975 c 0,4.2625 3.069,9.02102 11.1135,9.02102 10.3076,0 21.1265,-8.43202 21.1265,-17.15852 0,-5.859 -4.96,-9.12948 -11.1134,-9.12948 -9.6255,0 -21.1266,8.13748 -21.1266,17.26698"
     id="path294"
     style="stroke-width:0.992" />
  <path
     class="Note"
     d="m 6191.4436,208.7975 c 0,4.2625 3.069,9.02102 11.1135,9.02102 10.3076,0 21.1265,-8.43202 21.1265,-17.15852 0,-5.859 -4.96,-9.12948 -11.1134,-9.12948 -9.6255,0 -21.1266,8.13748 -21.1266,17.26698"
     id="path296"
     style="stroke-width:0.992" />
  <path
     class="Note"
     d="m 3346.6336,233.5975 c 0,4.2625 3.069,9.02102 11.1135,9.02102 10.3076,0 21.1265,-8.43202 21.1265,-17.15852 0,-5.859 -4.96,-9.12948 -11.1134,-9.12948 -9.6255,0 -21.1266,8.13748 -21.1266,17.26698"
     id="path298"
     style="stroke-width:0.992" />
  <path
     class="Note"
     d="m 4451.9636,208.7975 c 0,4.2625 3.069,9.02102 11.1135,9.02102 10.3076,0 21.1265,-8.43202 21.1265,-17.15852 0,-5.859 -4.96,-9.12948 -11.1134,-9.12948 -9.6255,0 -21.1266,8.13748 -21.1266,17.26698"
     id="path300"
     style="stroke-width:0.992" />
  <path
     class="Note"
     d="m 4329.7036,221.1975 c 0,4.2625 3.069,9.02102 11.1135,9.02102 10.3076,0 21.1265,-8.43202 21.1265,-17.15852 0,-5.859 -4.96,-9.12948 -11.1134,-9.12948 -9.6255,0 -21.1266,8.13748 -21.1266,17.26698"
     id="path302"
     style="stroke-width:0.992" />
  <path
     class="Note"
     d="m 4207.4436,221.1975 c 0,4.2625 3.069,9.02102 11.1135,9.02102 10.3076,0 21.1265,-8.43202 21.1265,-17.15852 0,-5.859 -4.96,-9.12948 -11.1134,-9.12948 -9.6255,0 -21.1266,8.13748 -21.1266,17.26698"
     id="path304"
     style="stroke-width:0.992" />
  <path
     class="Note"
     d="m 1362.6336,233.5975 c 0,4.2625 3.069,9.02102 11.1135,9.02102 10.3076,0 21.1265,-8.43202 21.1265,-17.15852 0,-5.859 -4.96,-9.12948 -11.1134,-9.12948 -9.6255,0 -21.1266,8.13748 -21.1266,17.26698"
     id="path306"
     style="stroke-width:0.992" />
  <path
     class="Note"
     d="m 4008.0202,216.33052 c -9.6255,0 -21.1266,8.04448 -21.1266,17.26698 0,4.2625 3.069,9.02102 11.1135,9.02102 10.3076,0 21.1265,-8.43202 21.1265,-17.15852 0,-5.859 -4.96,-9.12948 -11.1134,-9.12948 m -2.6815,17.46848 c -0.2945,0.186 -7.5331,4.154 -11.0051,4.154 -3.2705,0 -3.968,-2.666 -3.968,-3.565 0,-4.1695 9.92,-9.021 10.3231,-9.2225 0.3875,-0.2015 7.44,-4.1695 11.0049,-4.1695 2.3871,0 3.968,1.395 3.968,3.565 0,4.278 -10.0129,9.0365 -10.3229,9.238"
     id="path308"
     style="stroke-width:0.992" />
  <path
     class="Note"
     d="m 3891.9636,233.5975 c 0,4.2625 3.069,9.02102 11.1135,9.02102 10.3076,0 21.1265,-8.43202 21.1265,-17.15852 0,-5.859 -4.96,-9.12948 -11.1134,-9.12948 -9.6255,0 -21.1266,8.13748 -21.1266,17.26698"
     id="path310"
     style="stroke-width:0.992" />
  <path
     class="Note"
     d="m 3711.4436,221.1975 c 0,4.2625 3.069,9.02102 11.1135,9.02102 10.3076,0 21.1265,-8.43202 21.1265,-17.15852 0,-5.859 -4.96,-9.12948 -11.1134,-9.12948 -9.6255,0 -21.1266,8.13748 -21.1266,17.26698"
     id="path312"
     style="stroke-width:0.992" />
  <path
     class="Note"
     d="m 1481.9236,221.1975 c 0,4.2625 3.069,9.02102 11.1135,9.02102 10.3076,0 21.1265,-8.43202 21.1265,-17.15852 0,-5.859 -4.96,-9.12948 -11.1134,-9.12948 -9.6255,0 -21.1266,8.13748 -21.1266,17.26698"
     id="path314"
     style="stroke-width:0.992" />
  <path
     class="Note"
     d="m 1601.2036,208.7975 c 0,4.2625 3.069,9.02102 11.1135,9.02102 10.3076,0 21.1265,-8.43202 21.1265,-17.15852 0,-5.859 -4.96,-9.12948 -11.1134,-9.12948 -9.6255,0 -21.1266,8.13748 -21.1266,17.26698"
     id="path316"
     style="stroke-width:0.992" />
  <path
     class="Note"
     d="m 3585.2036,208.7975 c 0,4.2625 3.069,9.02102 11.1135,9.02102 10.3076,0 21.1265,-8.43202 21.1265,-17.15852 0,-5.859 -4.96,-9.12948 -11.1134,-9.12948 -9.6255,0 -21.1266,8.13748 -21.1266,17.26698"
     id="path318"
     style="stroke-width:0.992" />
  <path
     class="Note"
     d="m 3465.9236,221.1975 c 0,4.2625 3.069,9.02102 11.1135,9.02102 10.3076,0 21.1265,-8.43202 21.1265,-17.15852 0,-5.859 -4.96,-9.12948 -11.1134,-9.12948 -9.6255,0 -21.1266,8.13748 -21.1266,17.26698"
     id="path320"
     style="stroke-width:0.992" />
  <path
     class="Note"
     d="m 857.70364,196.3975 c 0,4.2625 3.069,9.02102 11.11348,9.02102 10.30757,0 21.12652,-8.43202 21.12652,-17.15852 0,-5.859 -4.96,-9.12948 -11.11347,-9.12948 -9.62548,0 -21.12653,8.13748 -21.12653,17.26698"
     id="path322"
     style="stroke-width:0.992" />
  <path
     class="Note"
     d="m 3227.3436,233.5975 c 0,4.2625 3.069,9.02102 11.1135,9.02102 10.3076,0 21.1265,-8.43202 21.1265,-17.15852 0,-5.859 -4.96,-9.12948 -11.1134,-9.12948 -9.6255,0 -21.1266,8.13748 -21.1266,17.26698"
     id="path324"
     style="stroke-width:0.992" />
  <path
     class="Note"
     d="m 1727.4436,208.7975 c 0,4.2625 3.069,9.02102 11.1135,9.02102 10.3076,0 21.1265,-8.43202 21.1265,-17.15852 0,-5.859 -4.96,-9.12948 -11.1134,-9.12948 -9.6255,0 -21.1266,8.13748 -21.1266,17.26698"
     id="path326"
     style="stroke-width:0.992" />
  <path
     class="Note"
     d="m 3086.2336,221.1975 c 0,4.2625 3.069,9.02102 11.1135,9.02102 10.3076,0 21.1265,-8.43202 21.1265,-17.15852 0,-5.859 -4.96,-9.12948 -11.1134,-9.12948 -9.6255,0 -21.1266,8.13748 -21.1266,17.26698"
     id="path328"
     style="stroke-width:0.992" />
  <path
     class="Note"
     d="m 2963.9636,208.7975 c 0,4.2625 3.069,9.02102 11.1135,9.02102 10.3076,0 21.1265,-8.43202 21.1265,-17.15852 0,-5.859 -4.96,-9.12948 -11.1134,-9.12948 -9.6255,0 -21.1266,8.13748 -21.1266,17.26698"
     id="path330"
     style="stroke-width:0.992" />
  <path
     class="Note"
     d="m 2841.7036,196.3975 c 0,4.2625 3.069,9.02102 11.1135,9.02102 10.3076,0 21.1265,-8.43202 21.1265,-17.15852 0,-5.859 -4.96,-9.12948 -11.1134,-9.12948 -9.6255,0 -21.1266,8.13748 -21.1266,17.26698"
     id="path332"
     style="stroke-width:0.992" />
  <path
     class="Note"
     d="m 2719.4436,183.9975 c 0,4.2625 3.069,9.02102 11.1135,9.02102 10.3076,0 21.1265,-8.43202 21.1265,-17.15852 0,-5.859 -4.96,-9.12948 -11.1134,-9.12948 -9.6255,0 -21.1266,8.13748 -21.1266,17.26698"
     id="path334"
     style="stroke-width:0.992" />
  <path
     class="Note"
     d="m 1907.9636,221.1975 c 0,4.2625 3.069,9.02102 11.1135,9.02102 10.3076,0 21.1265,-8.43202 21.1265,-17.15852 0,-5.859 -4.96,-9.12948 -11.1134,-9.12948 -9.6255,0 -21.1266,8.13748 -21.1266,17.26698"
     id="path336"
     style="stroke-width:0.992" />
  <path
     class="Note"
     d="m 2590.2336,183.9975 c 0,4.2625 3.069,9.02102 11.1135,9.02102 10.3076,0 21.1265,-8.43202 21.1265,-17.15852 0,-5.859 -4.96,-9.12948 -11.1134,-9.12948 -9.6255,0 -21.1266,8.13748 -21.1266,17.26698"
     id="path338"
     style="stroke-width:0.992" />
  <path
     class="Note"
     d="m 2467.9636,196.3975 c 0,4.2625 3.069,9.02102 11.1135,9.02102 10.3076,0 21.1265,-8.43202 21.1265,-17.15852 0,-5.859 -4.96,-9.12948 -11.1134,-9.12948 -9.6255,0 -21.1266,8.13748 -21.1266,17.26698"
     id="path340"
     style="stroke-width:0.992" />
  <path
     class="Note"
     d="m 2345.7036,208.7975 c 0,4.2625 3.069,9.02102 11.1135,9.02102 10.3076,0 21.1265,-8.43202 21.1265,-17.15852 0,-5.859 -4.96,-9.12948 -11.1134,-9.12948 -9.6255,0 -21.1266,8.13748 -21.1266,17.26698"
     id="path342"
     style="stroke-width:0.992" />
  <path
     class="Note"
     d="m 2223.4436,208.7975 c 0,4.2625 3.069,9.02102 11.1135,9.02102 10.3076,0 21.1265,-8.43202 21.1265,-17.15852 0,-5.859 -4.96,-9.12948 -11.1134,-9.12948 -9.6255,0 -21.1266,8.13748 -21.1266,17.26698"
     id="path344"
     style="stroke-width:0.992" />
  <path
     class="Note"
     d="m 1243.3436,233.5975 c 0,4.2625 3.069,9.02102 11.1135,9.02102 10.3076,0 21.1265,-8.43202 21.1265,-17.15852 0,-5.859 -4.96,-9.12948 -11.1134,-9.12948 -9.6255,0 -21.1266,8.13748 -21.1266,17.26698"
     id="path346"
     style="stroke-width:0.992" />
  <path
     class="Note"
     d="m 5575.6336,221.1975 c 0,4.2625 3.069,9.02102 11.1135,9.02102 10.3076,0 21.1265,-8.43202 21.1265,-17.15852 0,-5.859 -4.96,-9.12948 -11.1134,-9.12948 -9.6255,0 -21.1266,8.13748 -21.1266,17.26698"
     id="path348"
     style="stroke-width:0.992" />
  <path
     class="Note"
     d="m 4703.4436,221.1975 c 0,4.2625 3.069,9.02102 11.1135,9.02102 10.3076,0 21.1265,-8.43202 21.1265,-17.15852 0,-5.859 -4.96,-9.12948 -11.1134,-9.12948 -9.6255,0 -21.1266,8.13748 -21.1266,17.26698"
     id="path350"
     style="stroke-width:0.992" />
  <path
     class="Note"
     d="m 5462.7736,208.7975 c 0,4.2625 3.069,9.02102 11.1135,9.02102 10.3076,0 21.1265,-8.43202 21.1265,-17.15852 0,-5.859 -4.96,-9.12948 -11.1134,-9.12948 -9.6255,0 -21.1266,8.13748 -21.1266,17.26698"
     id="path352"
     style="stroke-width:0.992" />
  <path
     class="Note"
     d="m 5387.5336,196.3975 c 0,4.2625 3.069,9.02102 11.1135,9.02102 10.3076,0 21.1265,-8.43202 21.1265,-17.15852 0,-5.859 -4.96,-9.12948 -11.1134,-9.12948 -9.6255,0 -21.1266,8.13748 -21.1266,17.26698"
     id="path354"
     style="stroke-width:0.992" />
  <path
     class="Note"
     d="m 5312.3036,208.7975 c 0,4.2625 3.069,9.02102 11.1135,9.02102 10.3076,0 21.1265,-8.43202 21.1265,-17.15852 0,-5.859 -4.96,-9.12948 -11.1134,-9.12948 -9.6255,0 -21.1266,8.13748 -21.1266,17.26698"
     id="path356"
     style="stroke-width:0.992" />
  <path
     class="Note"
     d="m 4816.3036,208.7975 c 0,4.2625 3.069,9.02102 11.1135,9.02102 10.3076,0 21.1265,-8.43202 21.1265,-17.15852 0,-5.859 -4.96,-9.12948 -11.1134,-9.12948 -9.6255,0 -21.1266,8.13748 -21.1266,17.26698"
     id="path358"
     style="stroke-width:0.992" />
  <path
     class="Note"
     d="m 4574.2336,233.5975 c 0,4.2625 3.069,9.02102 11.1135,9.02102 10.3076,0 21.1265,-8.43202 21.1265,-17.15852 0,-5.859 -4.96,-9.12948 -11.1134,-9.12948 -9.6255,0 -21.1266,8.13748 -21.1266,17.26698"
     id="path360"
     style="stroke-width:0.992" />
  <path
     class="Note"
     d="m 5199.4436,221.1975 c 0,4.2625 3.069,9.02102 11.1135,9.02102 10.3076,0 21.1265,-8.43202 21.1265,-17.15852 0,-5.859 -4.96,-9.12948 -11.1134,-9.12948 -9.6255,0 -21.1266,8.13748 -21.1266,17.26698"
     id="path362"
     style="stroke-width:0.992" />
  <path
     class="Note"
     d="m 2024.0202,203.93052 c -9.6255,0 -21.1266,8.04448 -21.1266,17.26698 0,4.2625 3.069,9.02102 11.1135,9.02102 10.3076,0 21.1265,-8.43202 21.1265,-17.15852 0,-5.859 -4.96,-9.12948 -11.1134,-9.12948 m -2.6815,17.46848 c -0.2945,0.186 -7.5331,4.154 -11.0051,4.154 -3.2705,0 -3.968,-2.666 -3.968,-3.565 0,-4.1695 9.92,-9.021 10.3231,-9.2225 0.3875,-0.2015 7.44,-4.1695 11.0049,-4.1695 2.3871,0 3.968,1.395 3.968,3.565 0,4.278 -10.0129,9.0365 -10.3229,9.238"
     id="path364"
     style="stroke-width:0.992" />
  <path
     class="Note"
     d="m 1102.2336,221.1975 c 0,4.2625 3.069,9.02102 11.1135,9.02102 10.3076,0 21.1265,-8.43202 21.1265,-17.15852 0,-5.859 -4.96,-9.12948 -11.1134,-9.12948 -9.6255,0 -21.1266,8.13748 -21.1266,17.26698"
     id="path366"
     style="stroke-width:0.992" />
  <path
     class="Note"
     d="m 4891.5336,196.3975 c 0,4.2625 3.069,9.02102 11.1135,9.02102 10.3076,0 21.1265,-8.43202 21.1265,-17.15852 0,-5.859 -4.96,-9.12948 -11.1134,-9.12948 -9.6255,0 -21.1266,8.13748 -21.1266,17.26698"
     id="path368"
     style="stroke-width:0.992" />
  <path
     class="Note"
     d="m 5079.6336,233.5975 c 0,4.2625 3.069,9.02102 11.1135,9.02102 10.3076,0 21.1265,-8.43202 21.1265,-17.15852 0,-5.859 -4.96,-9.12948 -11.1134,-9.12948 -9.6255,0 -21.1266,8.13748 -21.1266,17.26698"
     id="path370"
     style="stroke-width:0.992" />
  <path
     class="Note"
     d="m 4966.7736,208.7975 c 0,4.2625 3.069,9.02102 11.1135,9.02102 10.3076,0 21.1265,-8.43202 21.1265,-17.15852 0,-5.859 -4.96,-9.12948 -11.1134,-9.12948 -9.6255,0 -21.1266,8.13748 -21.1266,17.26698"
     id="path372"
     style="stroke-width:0.992" />
  <path
     class="Note"
     d="m 6001.1302,365.13052 c -9.6255,0 -21.1266,8.04448 -21.1266,17.26698 0,4.2625 3.069,9.02102 11.1135,9.02102 10.3076,0 21.1265,-8.43202 21.1265,-17.15852 0,-5.859 -4.96,-9.12948 -11.1134,-9.12948 m -2.6815,17.46848 c -0.2945,0.186 -7.5331,4.154 -11.0051,4.154 -3.2705,0 -3.968,-2.666 -3.968,-3.565 0,-4.1695 9.92,-9.021 10.3231,-9.2225 0.3875,-0.2015 7.44,-4.1695 11.0049,-4.1695 2.3871,0 3.968,1.395 3.968,3.565 0,4.278 -10.0129,9.0365 -10.3229,9.238"
     id="path374"
     style="stroke-width:0.992" />
  <path
     class="Note"
     d="m 236.95964,208.7975 c 0,4.2625 3.069,9.02102 11.11348,9.02102 10.30757,0 21.12652,-8.43202 21.12652,-17.15852 0,-5.859 -4.96,-9.12948 -11.11347,-9.12948 -9.62548,0 -21.12653,8.13748 -21.12653,17.26698"
     id="path376"
     style="stroke-width:0.992" />
  <path
     class="Clef"
     d="m 109.99912,181.905 c 0,7.0525 -2.88295,14.291 -9.92,17.17405 -2.076953,-11.90405 -4.758429,-27.68305 -5.456003,-32.0541 8.928003,0 15.376003,6.06055 15.376003,14.88005 m -14.089478,18.35205 c -1.984,0.40295 -3.859475,0.60443 -5.750525,0.60443 -14.182426,0 -26.28797,-9.92 -26.28797,-24.90848 0,-12.09005 8.52502,-22.909 17.26702,-30.45752 1.674,-1.488 3.270524,-2.86748 4.758524,-4.35548 0.883476,5.34748 1.580951,10.01295 2.278426,14.08948 -9.036426,2.68147 -15.174426,12.19852 -15.174426,21.52952 0,6.944 5.456,16.461 13.392,16.461 0.790426,0 1.689476,-0.40295 1.689476,-1.28652 0,-0.89896 -0.992,-1.39496 -2.185476,-2.18548 -3.875049,-2.387 -6.060524,-4.96 -6.060524,-9.827 0,-6.045 4.464,-10.91205 10.32295,-12.29152 l 5.750525,32.62757 M 87.183117,98.282525 c 0.89905,-3.968 5.456,-14.384 10.617574,-14.384 1.488,0 3.859479,4.851475 3.859479,11.702425 0,10.32305 -7.626003,18.05757 -14.477053,24.8 -0.58895,-3.968 -1.08495,-7.82747 -1.08495,-11.99695 0,-3.67348 0.294524,-7.05252 1.08495,-10.121475 m -20.832,132.431995 c 0,6.55653 5.05305,15.19 18.44505,15.19 4.665475,0 8.742,-1.19347 12.30695,-3.37904 5.363053,-3.76643 6.742523,-10.32296 6.742523,-16.56948 0,-3.85948 -0.58895,-8.32348 -1.58095,-13.98095 -0.29452,-1.984 -0.89905,-4.96 -1.488,-8.83505 9.71843,-3.17748 16.95695,-13.29895 16.95695,-23.5135 0,-14.97302 -10.61747,-25.0945 -25.094523,-25.0945 -0.992,-5.952 -1.984,-11.81105 -2.88295,-17.36 10.524523,-11.02052 17.762953,-23.42052 17.762953,-39.184 0,-9.036525 -2.77443,-16.368 -4.37095,-19.948128 -2.37148,-5.053248 -5.254528,-8.525248 -7.037053,-8.525248 -0.697475,0 -3.766426,1.193376 -7.03695,5.053248 -6.35505,7.548128 -8.137476,20.242653 -8.137476,28.566128 0,5.36295 0.496,10.23 2.185476,21.34348 -0.108525,0.093 -5.27,5.34747 -7.34705,7.03704 -9.036426,8.432 -21.529475,20.42896 -21.529475,40.28448 0,18.53805 16.166525,33.12352 34.627049,33.12352 2.867476,0 5.548951,-0.29452 7.827476,-0.69747 1.89095,9.53243 2.976,16.47643 2.976,21.73095 0,10.32305 -5.254525,15.77905 -15.267476,15.77905 -2.387049,0 -4.464,-0.496 -4.665574,-0.496 -0.09295,-0.10853 -0.294426,-0.20157 -0.294426,-0.29453 0,-0.20147 0.201476,-0.31 0.496,-0.40304 4.665476,-0.69748 9.315476,-4.66548 9.315476,-11.00496 0,-5.36304 -4.06105,-11.02052 -11.50105,-11.02052 -6.944,0 -11.408,5.65748 -11.408,12.19852"
     id="path378"
     style="stroke-width:0.992" />
  <path
     class="Clef"
     d="m 79.448691,365.73495 c -7.548524,0 -13.593574,4.35557 -13.702,4.35557 -5.750544,4.26243 -8.029049,9.33096 -8.928049,12.80298 -0.496,1.7825 -0.682,3.565 -0.682,5.2545 0,2.387 0.387505,4.557 1.286505,6.448 1.193495,2.6815 3.472,4.557 6.448,5.549 1.193544,0.403 2.47997,0.60448 3.766495,0.60448 2.185475,0 4.464,-0.60448 6.355049,-1.68948 3.068951,-1.6895 4.96,-5.2545 4.96,-9.1295 0,-3.472 -1.798,-6.6495 -4.774,-8.525 -2.077049,-1.39498 -4.061049,-1.78255 -5.750524,-1.78255 -1.193476,0 -2.278525,0.186 -3.177476,0.496 -0.992,0.38757 -2.666049,1.37955 -3.472049,2.07705 0.31,-1.89105 1.488,-4.75852 2.588475,-6.35505 1.08505,-1.58095 3.270525,-3.56495 4.96,-4.464 2.48,-1.37947 5.657574,-1.984 9.129574,-1.984 10.121476,0 15.081476,8.13757 15.081476,24.80005 0,9.23805 -3.472,18.05752 -6.448,23.91648 -3.286,6.54104 -7.641476,12.80304 -11.516525,16.27504 -10.322951,9.424 -20.041495,13.888 -20.134495,13.888 0,0 -1.193505,0.682 -1.193505,1.87548 0,0.20148 0.093,0.29452 0.093,0.496 0.31,0.992 1.193505,1.19348 1.798,1.19348 0.093,0 0.387505,-0.093 0.496,-0.093 0.093,0 11.408049,-4.66547 20.429,-11.718 5.068525,-3.658 9.625475,-7.626 13.593475,-11.904 3.56505,-3.85947 6.649574,-8.02904 9.129574,-12.19852 4.355479,-7.44 6.835479,-15.17452 6.835479,-21.824 0,-8.2305 -2.17,-15.08148 -6.24653,-19.93305 -4.665473,-5.56443 -11.702523,-8.432 -20.924949,-8.432 m 31.139479,12.586 c 0,2.79005 2.18547,4.96005 4.774,4.96005 2.57295,0 4.75852,-2.17 4.75852,-4.96005 0,-2.77443 -2.18557,-5.05295 -4.75852,-5.05295 -2.58853,0 -4.774,2.27852 -4.774,5.05295 m 0,24.50557 c 0,2.77453 2.18547,5.06853 4.774,5.06853 2.57295,0 4.75852,-2.294 4.75852,-5.06853 0,-2.77452 -2.18557,-5.05302 -4.75852,-5.05302 -2.58853,0 -4.774,2.2785 -4.774,5.05302"
     id="path380"
     style="stroke-width:0.992" />
  <path
     class="TimeSig"
     d="m 164.15617,142.82948 v 7.33157 h -8.23053 c -0.69747,0 -1.39495,0.60443 -1.39495,1.39495 v 1.89105 c 0,0.79043 0.69748,1.37947 1.39495,1.37947 h 30.05453 c 0.806,0 1.39495,-0.58904 1.39495,-1.37947 V 151.556 c 0,-0.79052 -0.58895,-1.39495 -1.39495,-1.39495 h -8.928 v -7.33157 h 8.928 c 0.806,0 1.39495,-0.69748 1.39495,-1.488 v -1.89098 c 0,-0.6975 -0.58895,-1.3795 -1.39495,-1.3795 h -8.928 v -15.779 c 0,-0.589 -0.29453,-1.085 -0.682,-1.2865 l -1.19348,-0.6045 c -0.20157,-0.093 -0.29452,-0.093 -0.496,-0.093 -0.10852,0 -0.10852,0 -0.20157,0 -0.29443,0 -0.69748,0.093 -0.89895,0.2945 l -9.02105,8.2305 c -0.29443,0.31 -0.40295,0.6975 -0.40295,1.1005 v 8.1375 h -11.50102 c 0,0 11.11354,-11.904 22.81597,-27.59005 0.40305,-0.496 0.496,-0.992 0.496,-1.37947 0,-0.496 -0.20148,-0.89896 -0.29443,-0.992 l -2.18557,-2.18548 c -0.29443,-0.20148 -0.58895,-0.40305 -0.992,-0.40305 -0.58895,0 -13.99643,0 -14.78695,0 -0.69748,0 -1.19348,0.60453 -1.28653,1.19357 0,0 -0.496,7.34696 -3.069,15.37598 -2.58849,8.0445 -5.56449,13.0045 -8.13749,16.6625 0,0 -0.29451,0.496 -0.29451,1.1005 0,0.2015 0,0.38755 0.093,0.58902 0.29451,0.69748 0.992,1.78253 0.992,1.78253 0,0 0.20151,0.60443 1.085,0.60443 h 17.06553"
     id="path382"
     style="stroke-width:0.992" />
  <path
     class="TimeSig"
     d="m 164.15617,192.42948 v 7.33157 h -8.23053 c -0.69747,0 -1.39495,0.60443 -1.39495,1.39495 v 1.89105 c 0,0.79043 0.69748,1.37947 1.39495,1.37947 h 30.05453 c 0.806,0 1.39495,-0.58904 1.39495,-1.37947 V 201.156 c 0,-0.79052 -0.58895,-1.39495 -1.39495,-1.39495 h -8.928 v -7.33157 h 8.928 c 0.806,0 1.39495,-0.69748 1.39495,-1.488 v -1.89098 c 0,-0.6975 -0.58895,-1.3795 -1.39495,-1.3795 h -8.928 v -15.779 c 0,-0.589 -0.29453,-1.085 -0.682,-1.2865 l -1.19348,-0.6045 c -0.20157,-0.093 -0.29452,-0.093 -0.496,-0.093 -0.10852,0 -0.10852,0 -0.20157,0 -0.29443,0 -0.69748,0.093 -0.89895,0.2945 l -9.02105,8.2305 c -0.29443,0.31 -0.40295,0.6975 -0.40295,1.1005 v 8.1375 h -11.50102 c 0,0 11.11354,-11.904 22.81597,-27.59005 0.40305,-0.496 0.496,-0.992 0.496,-1.37947 0,-0.496 -0.20148,-0.89896 -0.29443,-0.992 l -2.18557,-2.18548 c -0.29443,-0.20148 -0.58895,-0.40305 -0.992,-0.40305 -0.58895,0 -13.99643,0 -14.78695,0 -0.69748,0 -1.19348,0.60453 -1.28653,1.19357 0,0 -0.496,7.34696 -3.069,15.37598 -2.58849,8.0445 -5.56449,13.0045 -8.13749,16.6625 0,0 -0.29451,0.496 -0.29451,1.1005 0,0.2015 0,0.38755 0.093,0.58902 0.29451,0.69748 0.992,1.78253 0.992,1.78253 0,0 0.20151,0.60443 1.085,0.60443 h 17.06553"
     id="path384"
     style="stroke-width:0.992" />
  <path
     class="TimeSig"
     d="m 164.15617,403.22948 v 7.33157 h -8.23053 c -0.69747,0 -1.39495,0.60443 -1.39495,1.39495 v 1.89105 c 0,0.79043 0.69748,1.37947 1.39495,1.37947 h 30.05453 c 0.806,0 1.39495,-0.58904 1.39495,-1.37947 V 411.956 c 0,-0.79052 -0.58895,-1.39495 -1.39495,-1.39495 h -8.928 v -7.33157 h 8.928 c 0.806,0 1.39495,-0.69748 1.39495,-1.488 v -1.89098 c 0,-0.6975 -0.58895,-1.3795 -1.39495,-1.3795 h -8.928 v -15.779 c 0,-0.589 -0.29453,-1.085 -0.682,-1.2865 l -1.19348,-0.6045 c -0.20157,-0.093 -0.29452,-0.093 -0.496,-0.093 -0.10852,0 -0.10852,0 -0.20157,0 -0.29443,0 -0.69748,0.093 -0.89895,0.2945 l -9.02105,8.2305 c -0.29443,0.31 -0.40295,0.6975 -0.40295,1.1005 v 8.1375 h -11.50102 c 0,0 11.11354,-11.904 22.81597,-27.59005 0.40305,-0.496 0.496,-0.992 0.496,-1.37947 0,-0.496 -0.20148,-0.89896 -0.29443,-0.992 l -2.18557,-2.18548 c -0.29443,-0.20148 -0.58895,-0.40305 -0.992,-0.40305 -0.58895,0 -13.99643,0 -14.78695,0 -0.69748,0 -1.19348,0.60453 -1.28653,1.19357 0,0 -0.496,7.34696 -3.069,15.37598 -2.58849,8.0445 -5.56449,13.0045 -8.13749,16.6625 0,0 -0.29451,0.496 -0.29451,1.1005 0,0.2015 0,0.38755 0.093,0.58902 0.29451,0.69748 0.992,1.78253 0.992,1.78253 0,0 0.20151,0.60443 1.085,0.60443 h 17.06553"
     id="path386"
     style="stroke-width:0.992" />
  <path
     class="TimeSig"
     d="m 164.15617,452.82948 v 7.33157 h -8.23053 c -0.69747,0 -1.39495,0.60443 -1.39495,1.39495 v 1.89105 c 0,0.79043 0.69748,1.37947 1.39495,1.37947 h 30.05453 c 0.806,0 1.39495,-0.58904 1.39495,-1.37947 V 461.556 c 0,-0.79052 -0.58895,-1.39495 -1.39495,-1.39495 h -8.928 v -7.33157 h 8.928 c 0.806,0 1.39495,-0.69748 1.39495,-1.488 v -1.89098 c 0,-0.6975 -0.58895,-1.3795 -1.39495,-1.3795 h -8.928 v -15.779 c 0,-0.589 -0.29453,-1.085 -0.682,-1.2865 l -1.19348,-0.6045 c -0.20157,-0.093 -0.29452,-0.093 -0.496,-0.093 -0.10852,0 -0.10852,0 -0.20157,0 -0.29443,0 -0.69748,0.093 -0.89895,0.2945 l -9.02105,8.2305 c -0.29443,0.31 -0.40295,0.6975 -0.40295,1.1005 v 8.1375 h -11.50102 c 0,0 11.11354,-11.904 22.81597,-27.59005 0.40305,-0.496 0.496,-0.992 0.496,-1.37947 0,-0.496 -0.20148,-0.89896 -0.29443,-0.992 l -2.18557,-2.18548 c -0.29443,-0.20148 -0.58895,-0.40305 -0.992,-0.40305 -0.58895,0 -13.99643,0 -14.78695,0 -0.69748,0 -1.19348,0.60453 -1.28653,1.19357 0,0 -0.496,7.34696 -3.069,15.37598 -2.58849,8.0445 -5.56449,13.0045 -8.13749,16.6625 0,0 -0.29451,0.496 -0.29451,1.1005 0,0.2015 0,0.38755 0.093,0.58902 0.29451,0.69748 0.992,1.78253 0.992,1.78253 0,0 0.20151,0.60443 1.085,0.60443 h 17.06553"
     id="path388"
     style="stroke-width:0.992" />
  <path
     class="Rest"
     d="m 5980.0036,154.036 c 0,1.395 0,1.395 1.395,1.395 h 29.4656 c 1.3794,0 1.3794,0 1.3794,-1.395 v -10.71052 c 0,-1.39496 0,-1.39496 -1.3794,-1.39496 h -29.4656 c -1.395,0 -1.395,0 -1.395,1.39496 V 154.036"
     id="path390"
     style="stroke-width:0.992" />
  <path
     class="Rest"
     d="m 964.00864,390.132 c -0.806,0 -1.395,0.589 -1.395,1.395 v 10.71048 c 0,0.79052 0.589,1.37957 1.395,1.37957 h 29.46553 c 0.79052,0 1.37947,-0.58905 1.37947,-1.37957 V 391.527 c 0,-0.806 -0.58895,-1.395 -1.37947,-1.395 h -29.46553"
     id="path392"
     style="stroke-width:0.992" />
  <path
     class="Rest"
     d="m 2452.0086,390.132 c -0.806,0 -1.395,0.589 -1.395,1.395 v 10.71048 c 0,0.79052 0.589,1.37957 1.395,1.37957 h 29.4656 c 0.7905,0 1.3794,-0.58905 1.3794,-1.37957 V 391.527 c 0,-0.806 -0.5889,-1.395 -1.3794,-1.395 h -29.4656"
     id="path394"
     style="stroke-width:0.992" />
  <path
     class="Rest"
     d="m 4436.0086,390.132 c -0.806,0 -1.395,0.589 -1.395,1.395 v 10.71048 c 0,0.79052 0.589,1.37957 1.395,1.37957 h 29.4656 c 0.7905,0 1.3794,-0.58905 1.3794,-1.37957 V 391.527 c 0,-0.806 -0.5889,-1.395 -1.3794,-1.395 h -29.4656"
     id="path396"
     style="stroke-width:0.992" />
  <path
     class="Rest"
     d="m 1460.0086,390.132 c -0.806,0 -1.395,0.589 -1.395,1.395 v 10.71048 c 0,0.79052 0.589,1.37957 1.395,1.37957 h 29.4656 c 0.7905,0 1.3794,-0.58905 1.3794,-1.37957 V 391.527 c 0,-0.806 -0.5889,-1.395 -1.3794,-1.395 h -29.4656"
     id="path398"
     style="stroke-width:0.992" />
  <path
     class="Rest"
     d="m 4932.0086,390.132 c -0.806,0 -1.395,0.589 -1.395,1.395 v 10.71048 c 0,0.79052 0.589,1.37957 1.395,1.37957 h 29.4656 c 0.7905,0 1.3794,-0.58905 1.3794,-1.37957 V 391.527 c 0,-0.806 -0.5889,-1.395 -1.3794,-1.395 h -29.4656"
     id="path400"
     style="stroke-width:0.992" />
  <path
     class="Rest"
     d="m 5707.3436,414.436 c 0,1.395 0,1.395 1.395,1.395 h 29.4656 c 1.3794,0 1.3794,0 1.3794,-1.395 v -10.71052 c 0,-1.39496 0,-1.39496 -1.3794,-1.39496 h -29.4656 c -1.395,0 -1.395,0 -1.395,1.39496 V 414.436"
     id="path402"
     style="stroke-width:0.992" />
  <path
     class="Rest"
     d="m 1956.0086,390.132 c -0.806,0 -1.395,0.589 -1.395,1.395 v 10.71048 c 0,0.79052 0.589,1.37957 1.395,1.37957 h 29.4656 c 0.7905,0 1.3794,-0.58905 1.3794,-1.37957 V 391.527 c 0,-0.806 -0.5889,-1.395 -1.3794,-1.395 h -29.4656"
     id="path404"
     style="stroke-width:0.992" />
  <path
     class="Rest"
     d="m 7896.5986,390.132 c -0.806,0 -1.395,0.589 -1.395,1.395 v 10.71048 c 0,0.79052 0.589,1.37957 1.395,1.37957 h 29.4656 c 0.7905,0 1.3794,-0.58905 1.3794,-1.37957 V 391.527 c 0,-0.806 -0.5889,-1.395 -1.3794,-1.395 h -29.4656"
     id="path406"
     style="stroke-width:0.992" />
  <path
     class="Rest"
     d="m 443.21064,390.132 c -0.806,0 -1.395,0.589 -1.395,1.395 v 10.71048 c 0,0.79052 0.589,1.37957 1.395,1.37957 h 29.46553 c 0.79052,0 1.37947,-0.58905 1.37947,-1.37957 V 391.527 c 0,-0.806 -0.58895,-1.395 -1.37947,-1.395 h -29.46553"
     id="path408"
     style="stroke-width:0.992" />
  <path
     class="Rest"
     d="m 2948.0086,390.132 c -0.806,0 -1.395,0.589 -1.395,1.395 v 10.71048 c 0,0.79052 0.589,1.37957 1.395,1.37957 h 29.4656 c 0.7905,0 1.3794,-0.58905 1.3794,-1.37957 V 391.527 c 0,-0.806 -0.5889,-1.395 -1.3794,-1.395 h -29.4656"
     id="path410"
     style="stroke-width:0.992" />
  <path
     class="Rest"
     d="m 6916.0086,390.132 c -0.806,0 -1.395,0.589 -1.395,1.395 v 10.71048 c 0,0.79052 0.589,1.37957 1.395,1.37957 h 29.4656 c 0.7905,0 1.3794,-0.58905 1.3794,-1.37957 V 391.527 c 0,-0.806 -0.5889,-1.395 -1.3794,-1.395 h -29.4656"
     id="path412"
     style="stroke-width:0.992" />
  <path
     class="Rest"
     d="m 5428.0086,390.132 c -0.806,0 -1.395,0.589 -1.395,1.395 v 10.71048 c 0,0.79052 0.589,1.37957 1.395,1.37957 h 29.4656 c 0.7905,0 1.3794,-0.58905 1.3794,-1.37957 V 391.527 c 0,-0.806 -0.5889,-1.395 -1.3794,-1.395 h -29.4656"
     id="path414"
     style="stroke-width:0.992" />
  <path
     class="Rest"
     d="m 3940.0086,390.132 c -0.806,0 -1.395,0.589 -1.395,1.395 v 10.71048 c 0,0.79052 0.589,1.37957 1.395,1.37957 h 29.4656 c 0.7905,0 1.3794,-0.58905 1.3794,-1.37957 V 391.527 c 0,-0.806 -0.5889,-1.395 -1.3794,-1.395 h -29.4656"
     id="path416"
     style="stroke-width:0.992" />
  <path
     class="Rest"
     d="m 3444.0086,390.132 c -0.806,0 -1.395,0.589 -1.395,1.395 v 10.71048 c 0,0.79052 0.589,1.37957 1.395,1.37957 h 29.4656 c 0.7905,0 1.3794,-0.58905 1.3794,-1.37957 V 391.527 c 0,-0.806 -0.5889,-1.395 -1.3794,-1.395 h -29.4656"
     id="path418"
     style="stroke-width:0.992" />
  <path
     class="Rest"
     d="m 7412.0086,390.132 c -0.806,0 -1.395,0.589 -1.395,1.395 v 10.71048 c 0,0.79052 0.589,1.37957 1.395,1.37957 h 29.4656 c 0.7905,0 1.3794,-0.58905 1.3794,-1.37957 V 391.527 c 0,-0.806 -0.5889,-1.395 -1.3794,-1.395 h -29.4656"
     id="path420"
     style="stroke-width:0.992" />
  <path
     class="Rest"
     d="m 6420.0086,390.132 c -0.806,0 -1.395,0.589 -1.395,1.395 v 10.71048 c 0,0.79052 0.589,1.37957 1.395,1.37957 h 29.4656 c 0.7905,0 1.3794,-0.58905 1.3794,-1.37957 V 391.527 c 0,-0.806 -0.5889,-1.395 -1.3794,-1.395 h -29.4656"
     id="path422"
     style="stroke-width:0.992" />
  <path
     class="Beam"
     fill-rule="evenodd"
     d="m 5342.0436,124.009 77.72,-6.2 v 12.439 l -77.72,6.2 v -12.439"
     id="path424" />
  <path
     class="Beam"
     fill-rule="evenodd"
     d="m 4846.0436,124.009 77.72,-6.2 v 12.439 l -77.72,6.2 v -12.439"
     id="path426" />
  <path
     class="Tempo"
     d="m 168.85464,0 h -3.266 v 42.266 c -1.094,-0.688 -2.484,-1.094 -4.063,-1.281 -3.562,0 -6.437,0.39 -9.609,2.172 -3.953,2.078 -8.312,6.437 -8.312,11.281 0,1.094 0.203,2.187 0.796,3.172 1.282,2.468 4.36,3.859 7.813,3.859 6.937,0 16.641,-5.937 16.641,-13.469 V 0"
     id="path428" />
  <path
     class="Tempo"
     d="m 191.10464,37.953 h 30.234 v -6.906 h -30.234 v 6.906 m 0,12.36 h 30.234 v -6.906 h -30.234 v 6.906 m 72.781,-36.969 h -2.11 c -3.781,2.828 -8.031,4.031 -15.171,4.141 v 3.359 h 2.515 c 5.344,0 5.406,0.125 5.344,5.047 v 21.297 c 0,3.719 0,3.906 -0.422,4.5 -0.547,0.656 -1.75,0.906 -4.984,0.906 h -1.922 v 3.234 h 23.937 v -3.234 h -1.922 c -3.171,0 -4.312,-0.25 -4.859,-0.906 -0.406,-0.594 -0.406,-0.844 -0.406,-4.5 V 13.344 m 40.797,26.531 -0.672,3 c -0.531,2.391 -0.891,3.172 -1.375,3.469 -0.594,0.422 -0.719,0.422 -4.5,0.484 h -11.578 c 2.093,-1.796 3.656,-2.937 6,-4.5 8.453,-5.453 10.203,-6.781 11.937,-9 2.047,-2.703 3.235,-5.875 3.235,-8.703 0,-6.422 -6.297,-11.281 -14.75,-11.281 -8.157,0 -14.469,5.281 -14.469,12.125 0,4.203 2.344,6.906 5.953,6.906 3.109,0 5.094,-1.984 5.094,-5.109 0,-2.578 -1.141,-4.078 -3.907,-5.391 -0.656,-0.312 -0.953,-0.672 -0.953,-1.14 0,-1.922 3.235,-3.969 6.235,-3.969 4.203,0 6.609,2.578 6.609,7.031 0,4.969 -1.922,8.516 -8.281,15.297 -6.719,7.141 -9.063,9.828 -12.063,14.156 v 2.813 c 1.563,-0.172 2.219,-0.235 3.125,-0.235 h 22.547 c 1.141,0 1.86,0.063 3.672,0.235 l 1.375,-16.188 h -3.234 m 23.031,-26.531 c -9,0 -15.594,9.188 -15.594,21.672 0,12.469 6.594,21.656 15.594,21.656 8.812,0 15.547,-9.187 15.547,-21.359 0,-7.078 -1.625,-12.297 -5.172,-16.75 -2.813,-3.406 -6.359,-5.219 -10.375,-5.219 m -0.063,3.125 c 1.797,0 3.25,1.078 3.907,3 0.781,1.984 1.25,8.281 1.25,15.719 0,6.187 -0.469,12.656 -1.016,14.703 -0.656,2.391 -2.094,3.656 -4.141,3.656 -1.859,0 -3.234,-1.015 -3.953,-3 -0.781,-1.984 -1.265,-8.344 -1.265,-15.531 0,-6.313 0.484,-12.844 1.015,-14.891 0.672,-2.39 2.11,-3.656 4.203,-3.656"
     id="path430" />
  <path
     class="NoteDot"
     d="m 7724.0636,217.028 c 0,2.7745 2.1855,4.96 4.96,4.96 2.7745,0 4.96,-2.1855 4.96,-4.96 0,-2.7745 -2.1855,-4.96 -4.96,-4.96 -2.7745,0 -4.96,2.1855 -4.96,4.96"
     id="path432"
     style="stroke-width:0.992" />
  <path
     class="NoteDot"
     d="m 1772.0636,192.228 c 0,2.7745 2.1855,4.96 4.96,4.96 2.7745,0 4.96,-2.1855 4.96,-4.96 0,-2.7745 -2.1855,-4.96 -4.96,-4.96 -2.7745,0 -4.96,2.1855 -4.96,4.96"
     id="path434"
     style="stroke-width:0.992" />
  <path
     class="NoteDot"
     d="m 3756.0636,217.028 c 0,2.7745 2.1855,4.96 4.96,4.96 2.7745,0 4.96,-2.1855 4.96,-4.96 0,-2.7745 -2.1855,-4.96 -4.96,-4.96 -2.7745,0 -4.96,2.1855 -4.96,4.96"
     id="path436"
     style="stroke-width:0.992" />
  <path
     class="Bracket"
     d="m 3.3985167,285.228 c 6.4615805,-6.85505 19.0475803,-20.84565 19.0475803,-46.748 0,-32.7574 -14.0468748,-65.85175 -14.0468748,-86.304 0,-21.9694 12.5859998,-42.47775 13.3164198,-43.152 0,-0.3934 0,-0.3934 0,-0.73035 0,-0.3934 0,-0.7307 -0.337125,-1.06765 -0.393295,0 -1.12375,0 -1.460875,0.67425 -0.337125,0.3934 -19.77800025,19.778 -19.77800025,49.27635 0,31.63365 12.58600025,53.94 12.58600025,95.294 0,7.92235 -3.2588753,20.50835 -12.24887525,31.68975 -0.337125,0 -0.337125,0.67425 -0.337125,1.06765 -0.337125,0.33695 0,0.73035 0.337125,1.06765 8.98999995,11.12495 12.24887525,23.71095 12.24887525,31.6333 0,41.354 -12.58600025,63.6607 -12.58600025,95.294 0,29.16147 19.44087525,48.93949 19.77800025,49.27661 0.337125,0.73044 1.06758,1.06757 1.460875,0.73044 0.337125,-0.33713 0.67425,-0.73044 0.337125,-1.06756 0,0 0,-0.39331 0,-0.73044 -0.73042,-0.73046 -13.3164198,-21.23888 -13.3164198,-43.152 0,-20.50835 14.0468748,-53.60305 14.0468748,-86.304 0,-26.23965 -12.5859998,-39.9494 -19.0475803,-46.748"
     id="path438"
     style="stroke-width:3.596" />
  <path
     style="fill:none;stroke:#000000;stroke-width:3.75px;stroke-linecap:butt;stroke-linejoin:miter;stroke-opacity:1"
     d="M 390.82865,188.58784 H 267.94464"
     id="path1824" />
</svg>
