<?xml version="1.0" encoding="UTF-8" standalone="no"?>
<svg
   width="576.64795mm"
   height="28.001976mm"
   viewBox="0 0 8172.963 396.87841"
   version="1.2"
   id="svg440"
   sodipodi:docname="staff.svg"
   inkscape:version="1.2.2 (b0a8486541, 2022-12-01)"
   xmlns:inkscape="http://www.inkscape.org/namespaces/inkscape"
   xmlns:sodipodi="http://sodipodi.sourceforge.net/DTD/sodipodi-0.dtd"
   xmlns="http://www.w3.org/2000/svg"
   xmlns:svg="http://www.w3.org/2000/svg">
  <defs
     id="defs444" />
  <sodipodi:namedview
     id="namedview442"
     pagecolor="#ffffff"
     bordercolor="#666666"
     borderopacity="1.0"
     inkscape:showpageshadow="2"
     inkscape:pageopacity="0.0"
     inkscape:pagecheckerboard="0"
     inkscape:deskcolor="#d1d1d1"
     inkscape:document-units="mm"
     showgrid="false"
     inkscape:zoom="1.557992"
     inkscape:cx="-123.55648"
     inkscape:cy="131.2587"
     inkscape:window-width="1444"
     inkscape:window-height="1024"
     inkscape:window-x="0"
     inkscape:window-y="0"
     inkscape:window-maximized="0"
     inkscape:current-layer="svg440" />
  <title
     id="title2">song.mid</title>
  <desc
     id="desc4">Generated by MuseScore Studio 4.5.2</desc>
  <polyline
     class="StaffLines"
     fill="none"
     stroke="#000000"
     stroke-width="2.73"
     stroke-linejoin="bevel"
     points="336.598,386.198 8478.38,386.198"
     id="polyline6"
     transform="translate(-305.41636,-350.2846)" />
  <polyline
     class="StaffLines"
     fill="none"
     stroke="#000000"
     stroke-width="2.73"
     stroke-linejoin="bevel"
     points="336.598,410.998 8478.38,410.998"
     id="polyline8"
     transform="translate(-305.41636,-350.2846)" />
  <polyline
     class="StaffLines"
     fill="none"
     stroke="#000000"
     stroke-width="2.73"
     stroke-linejoin="bevel"
     points="336.598,435.798 8478.38,435.798"
     id="polyline10"
     transform="translate(-305.41636,-350.2846)" />
  <polyline
     class="StaffLines"
     fill="none"
     stroke="#000000"
     stroke-width="2.73"
     stroke-linejoin="bevel"
     points="336.598,460.598 8478.38,460.598"
     id="polyline12"
     transform="translate(-305.41636,-350.2846)" />
  <polyline
     class="StaffLines"
     fill="none"
     stroke="#000000"
     stroke-width="2.73"
     stroke-linejoin="bevel"
     points="336.598,485.398 8478.38,485.398"
     id="polyline14"
     transform="translate(-305.41636,-350.2846)" />
  <polyline
     class="StaffLines"
     fill="none"
     stroke="#000000"
     stroke-width="2.73"
     stroke-linejoin="bevel"
     points="336.598,646.598 8478.38,646.598"
     id="polyline16"
     transform="translate(-305.41636,-350.2846)" />
  <polyline
     class="StaffLines"
     fill="none"
     stroke="#000000"
     stroke-width="2.73"
     stroke-linejoin="bevel"
     points="336.598,671.398 8478.38,671.398"
     id="polyline18"
     transform="translate(-305.41636,-350.2846)" />
  <polyline
     class="StaffLines"
     fill="none"
     stroke="#000000"
     stroke-width="2.73"
     stroke-linejoin="bevel"
     points="336.598,696.198 8478.38,696.198"
     id="polyline20"
     transform="translate(-305.41636,-350.2846)" />
  <polyline
     class="StaffLines"
     fill="none"
     stroke="#000000"
     stroke-width="2.73"
     stroke-linejoin="bevel"
     points="336.598,720.998 8478.38,720.998"
     id="polyline22"
     transform="translate(-305.41636,-350.2846)" />
  <polyline
     class="StaffLines"
     fill="none"
     stroke="#000000"
     stroke-width="2.73"
     stroke-linejoin="bevel"
     points="336.598,745.798 8478.38,745.798"
     id="polyline24"
     transform="translate(-305.41636,-350.2846)" />
  <polyline
     class="BarLine"
     fill="none"
     stroke="#000000"
     stroke-width="4.46"
     stroke-linejoin="bevel"
     points="338.83,384.834 338.83,646.598"
     id="polyline60"
     transform="translate(-305.41636,-350.2846)" />
  <polyline
     class="BarLine"
     fill="none"
     stroke="#000000"
     stroke-width="4.46"
     stroke-linejoin="bevel"
     points="338.83,645.234 338.83,747.162"
     id="polyline82"
     transform="translate(-305.41636,-350.2846)" />
  <path
     class="Clef"
     d="m 109.99912,112.3904 c 0,7.0525 -2.88295,14.291 -9.92,17.174 -2.076953,-11.904 -4.758429,-27.683 -5.456003,-32.0541 8.928003,0 15.376003,6.0606 15.376003,14.8801 m -14.089478,18.352 c -1.984,0.403 -3.859475,0.6045 -5.750525,0.6045 -14.182426,0 -26.28797,-9.92 -26.28797,-24.9085 0,-12.0901 8.52502,-22.909 17.26702,-30.4575 1.674,-1.488 3.270524,-2.8675 4.758524,-4.3555 0.883476,5.3475 1.580951,10.0129 2.278426,14.0895 -9.036426,2.6814 -15.174426,12.1985 -15.174426,21.5295 0,6.944 5.456,16.461 13.392,16.461 0.790426,0 1.689476,-0.403 1.689476,-1.2865 0,-0.899 -0.992,-1.395 -2.185476,-2.1855 -3.875049,-2.387 -6.060524,-4.96 -6.060524,-9.827 0,-6.045 4.464,-10.9121 10.32295,-12.2915 l 5.750525,32.6275 M 87.183117,28.7679 c 0.89905,-3.968 5.456,-14.384 10.617574,-14.384 1.488,0 3.859479,4.8515 3.859479,11.7024 0,10.3231 -7.626003,18.0576 -14.477053,24.8 -0.58895,-3.968 -1.08495,-7.8274 -1.08495,-11.9969 0,-3.6735 0.294524,-7.0525 1.08495,-10.1215 m -20.832,132.432 c 0,6.5565 5.05305,15.19 18.44505,15.19 4.665475,0 8.742,-1.1935 12.30695,-3.379 5.363053,-3.7665 6.742523,-10.323 6.742523,-16.5695 0,-3.8595 -0.58895,-8.3235 -1.58095,-13.981 -0.29452,-1.984 -0.89905,-4.96 -1.488,-8.835 9.71843,-3.1775 16.95695,-13.299 16.95695,-23.5135 0,-14.973 -10.61747,-25.0945 -25.094523,-25.0945 -0.992,-5.952 -1.984,-11.8111 -2.88295,-17.36 10.524523,-11.0205 17.762953,-23.4205 17.762953,-39.184 0,-9.0365 -2.77443,-16.368 -4.37095,-19.9481 C 100.77669,3.472 97.893642,0 96.111117,0 c -0.697475,0 -3.766426,1.1934 -7.03695,5.0533 -6.35505,7.5481 -8.137476,20.2426 -8.137476,28.5661 0,5.3629 0.496,10.23 2.185476,21.3435 -0.108525,0.093 -5.27,5.3474 -7.34705,7.037 -9.036426,8.432 -21.529475,20.429 -21.529475,40.2845 0,18.538 16.166525,33.1235 34.627049,33.1235 2.867476,0 5.548951,-0.2945 7.827476,-0.6975 1.89095,9.5325 2.976,16.4765 2.976,21.731 0,10.323 -5.254525,15.779 -15.267476,15.779 -2.387049,0 -4.464,-0.496 -4.665574,-0.496 -0.09295,-0.1085 -0.294426,-0.2015 -0.294426,-0.2945 0,-0.2015 0.201476,-0.31 0.496,-0.403 4.665476,-0.6975 9.315476,-4.6655 9.315476,-11.005 0,-5.363 -4.06105,-11.0205 -11.50105,-11.0205 -6.944,0 -11.408,5.6575 -11.408,12.1985"
     id="path378"
     style="stroke-width:0.992" />
  <path
     class="Clef"
     d="m 79.448691,296.2203 c -7.548524,0 -13.593574,4.3556 -13.702,4.3556 -5.750544,4.2624 -8.029049,9.331 -8.928049,12.803 -0.496,1.7825 -0.682,3.565 -0.682,5.2545 0,2.387 0.387505,4.557 1.286505,6.448 1.193495,2.6815 3.472,4.557 6.448,5.549 1.193544,0.403 2.47997,0.6045 3.766495,0.6045 2.185475,0 4.464,-0.6045 6.355049,-1.6895 3.068951,-1.6895 4.96,-5.2545 4.96,-9.1295 0,-3.472 -1.798,-6.6495 -4.774,-8.525 -2.077049,-1.395 -4.061049,-1.7826 -5.750524,-1.7826 -1.193476,0 -2.278525,0.186 -3.177476,0.496 -0.992,0.3876 -2.666049,1.3796 -3.472049,2.0771 0.31,-1.8911 1.488,-4.7585 2.588475,-6.3551 1.08505,-1.5809 3.270525,-3.5649 4.96,-4.464 2.48,-1.3794 5.657574,-1.984 9.129574,-1.984 10.121476,0 15.081476,8.1376 15.081476,24.8001 0,9.238 -3.472,18.0575 -6.448,23.9165 -3.286,6.541 -7.641476,12.803 -11.516525,16.275 -10.322951,9.424 -20.041495,13.888 -20.134495,13.888 0,0 -1.193505,0.682 -1.193505,1.8755 0,0.2015 0.093,0.2945 0.093,0.496 0.31,0.992 1.193505,1.1935 1.798,1.1935 0.093,0 0.387505,-0.093 0.496,-0.093 0.093,0 11.408049,-4.6655 20.429,-11.718 5.068525,-3.658 9.625475,-7.626 13.593475,-11.904 3.56505,-3.8595 6.649574,-8.0291 9.129574,-12.1986 4.355479,-7.44 6.835479,-15.1745 6.835479,-21.824 0,-8.2305 -2.17,-15.0814 -6.24653,-19.933 -4.665473,-5.5644 -11.702523,-8.432 -20.924949,-8.432 m 31.139479,12.586 c 0,2.79 2.18547,4.96 4.774,4.96 2.57295,0 4.75852,-2.17 4.75852,-4.96 0,-2.7744 -2.18557,-5.053 -4.75852,-5.053 -2.58853,0 -4.774,2.2786 -4.774,5.053 m 0,24.5056 c 0,2.7745 2.18547,5.0685 4.774,5.0685 2.57295,0 4.75852,-2.294 4.75852,-5.0685 0,-2.7746 -2.18557,-5.0531 -4.75852,-5.0531 -2.58853,0 -4.774,2.2785 -4.774,5.0531"
     id="path380"
     style="stroke-width:0.992" />
  <path
     class="Bracket"
     d="m 3.3985167,215.7134 c 6.4615805,-6.8551 19.0475803,-20.8457 19.0475803,-46.748 0,-32.7574 -14.0468748,-65.8518 -14.0468748,-86.304 0,-21.9694 12.5859998,-42.4778 13.3164198,-43.152 0,-0.3934 0,-0.3934 0,-0.7304 0,-0.3934 0,-0.7307 -0.337125,-1.0676 -0.393295,0 -1.12375,0 -1.460875,0.6742 -0.337125,0.3934 -19.77800025,19.778 -19.77800025,49.2764 0,31.6336 12.58600025,53.94 12.58600025,95.294 0,7.9223 -3.2588753,20.5083 -12.24887525,31.6897 -0.337125,0 -0.337125,0.6743 -0.337125,1.0677 -0.337125,0.3369 0,0.7303 0.337125,1.0676 8.98999995,11.125 12.24887525,23.711 12.24887525,31.6333 0,41.354 -12.58600025,63.6607 -12.58600025,95.294 0,29.1615 19.44087525,48.9395 19.77800025,49.2766 0.337125,0.7305 1.06758,1.0676 1.460875,0.7305 0.337125,-0.3371 0.67425,-0.7305 0.337125,-1.0676 0,0 0,-0.3933 0,-0.7304 -0.73042,-0.7305 -13.3164198,-21.2389 -13.3164198,-43.152 0,-20.5084 14.0468748,-53.6031 14.0468748,-86.304 0,-26.2397 -12.5859998,-39.9494 -19.0475803,-46.748"
     id="path438"
     style="stroke-width:3.596" />
</svg>
