<?xml version="1.0" encoding="UTF-8" standalone="no"?>
<svg
   width="979.48071mm"
   height="28.001982mm"
   viewBox="0 0 13882.404 396.87849"
   version="1.2"
   id="svg276"
   sodipodi:docname="Allthings-1.svg"
   inkscape:version="1.4.2 (ebf0e94, 2025-05-08)"
   xmlns:inkscape="http://www.inkscape.org/namespaces/inkscape"
   xmlns:sodipodi="http://sodipodi.sourceforge.net/DTD/sodipodi-0.dtd"
   xmlns="http://www.w3.org/2000/svg"
   xmlns:svg="http://www.w3.org/2000/svg">
  <defs
     id="defs276" />
  <sodipodi:namedview
     id="namedview276"
     pagecolor="#ffffff"
     bordercolor="#000000"
     borderopacity="0.25"
     inkscape:showpageshadow="2"
     inkscape:pageopacity="0.0"
     inkscape:pagecheckerboard="0"
     inkscape:deskcolor="#d1d1d1"
     inkscape:document-units="mm"
     inkscape:zoom="0.66512232"
     inkscape:cx="-69.911953"
     inkscape:cy="6.0139314"
     inkscape:window-width="1025"
     inkscape:window-height="1026"
     inkscape:window-x="0"
     inkscape:window-y="0"
     inkscape:window-maximized="0"
     inkscape:current-layer="svg276" />
  <title
     id="title1">Allthings</title>
  <desc
     id="desc1">Generated by MuseScore Studio 4.5.2</desc>
  <polyline
     class="StaffLines"
     fill="none"
     stroke="#000000"
     stroke-width="2.73"
     stroke-linejoin="bevel"
     points="336.599,386.199 14187.8,386.199"
     id="polyline1"
     transform="translate(-305.41636,-350.28551)" />
  <polyline
     class="StaffLines"
     fill="none"
     stroke="#000000"
     stroke-width="2.73"
     stroke-linejoin="bevel"
     points="336.599,410.999 14187.8,410.999"
     id="polyline2"
     transform="translate(-305.41636,-350.28551)" />
  <polyline
     class="StaffLines"
     fill="none"
     stroke="#000000"
     stroke-width="2.73"
     stroke-linejoin="bevel"
     points="336.599,435.799 14187.8,435.799"
     id="polyline3"
     transform="translate(-305.41636,-350.28551)" />
  <polyline
     class="StaffLines"
     fill="none"
     stroke="#000000"
     stroke-width="2.73"
     stroke-linejoin="bevel"
     points="336.599,460.599 14187.8,460.599"
     id="polyline4"
     transform="translate(-305.41636,-350.28551)" />
  <polyline
     class="StaffLines"
     fill="none"
     stroke="#000000"
     stroke-width="2.73"
     stroke-linejoin="bevel"
     points="336.599,485.399 14187.8,485.399"
     id="polyline5"
     transform="translate(-305.41636,-350.28551)" />
  <polyline
     class="StaffLines"
     fill="none"
     stroke="#000000"
     stroke-width="2.73"
     stroke-linejoin="bevel"
     points="336.599,646.599 14187.8,646.599"
     id="polyline6"
     transform="translate(-305.41636,-350.28551)" />
  <polyline
     class="StaffLines"
     fill="none"
     stroke="#000000"
     stroke-width="2.73"
     stroke-linejoin="bevel"
     points="336.599,671.399 14187.8,671.399"
     id="polyline7"
     transform="translate(-305.41636,-350.28551)" />
  <polyline
     class="StaffLines"
     fill="none"
     stroke="#000000"
     stroke-width="2.73"
     stroke-linejoin="bevel"
     points="336.599,696.199 14187.8,696.199"
     id="polyline8"
     transform="translate(-305.41636,-350.28551)" />
  <polyline
     class="StaffLines"
     fill="none"
     stroke="#000000"
     stroke-width="2.73"
     stroke-linejoin="bevel"
     points="336.599,720.999 14187.8,720.999"
     id="polyline9"
     transform="translate(-305.41636,-350.28551)" />
  <polyline
     class="StaffLines"
     fill="none"
     stroke="#000000"
     stroke-width="2.73"
     stroke-linejoin="bevel"
     points="336.599,745.799 14187.8,745.799"
     id="polyline10"
     transform="translate(-305.41636,-350.28551)" />
  <polyline
     class="BarLine"
     fill="none"
     stroke="#000000"
     stroke-width="4.46"
     stroke-linejoin="bevel"
     points="8438.92,384.835 8438.92,646.599"
     id="polyline11"
     transform="translate(-305.41636,-350.28551)" />
  <polyline
     class="BarLine"
     fill="none"
     stroke="#000000"
     stroke-width="4.46"
     stroke-linejoin="bevel"
     points="1062.43,384.835 1062.43,646.599"
     id="polyline12"
     transform="translate(-305.41636,-350.28551)" />
  <polyline
     class="BarLine"
     fill="none"
     stroke="#000000"
     stroke-width="4.46"
     stroke-linejoin="bevel"
     points="11276,384.835 11276,646.599"
     id="polyline13"
     transform="translate(-305.41636,-350.28551)" />
  <polyline
     class="BarLine"
     fill="none"
     stroke="#000000"
     stroke-width="4.46"
     stroke-linejoin="bevel"
     points="3899.54,384.835 3899.54,646.599"
     id="polyline14"
     transform="translate(-305.41636,-350.28551)" />
  <polyline
     class="BarLine"
     fill="none"
     stroke="#000000"
     stroke-width="4.46"
     stroke-linejoin="bevel"
     points="10708.6,384.835 10708.6,646.599"
     id="polyline15"
     transform="translate(-305.41636,-350.28551)" />
  <polyline
     class="BarLine"
     fill="none"
     stroke="#000000"
     stroke-width="4.46"
     stroke-linejoin="bevel"
     points="10141.2,384.835 10141.2,646.599"
     id="polyline16"
     transform="translate(-305.41636,-350.28551)" />
  <polyline
     class="BarLine"
     fill="none"
     stroke="#000000"
     stroke-width="4.46"
     stroke-linejoin="bevel"
     points="5034.39,384.835 5034.39,646.599"
     id="polyline17"
     transform="translate(-305.41636,-350.28551)" />
  <polyline
     class="BarLine"
     fill="none"
     stroke="#000000"
     stroke-width="4.46"
     stroke-linejoin="bevel"
     points="1629.85,384.835 1629.85,646.599"
     id="polyline18"
     transform="translate(-305.41636,-350.28551)" />
  <polyline
     class="BarLine"
     fill="none"
     stroke="#000000"
     stroke-width="4.46"
     stroke-linejoin="bevel"
     points="9573.77,384.835 9573.77,646.599"
     id="polyline19"
     transform="translate(-305.41636,-350.28551)" />
  <polyline
     class="BarLine"
     fill="none"
     stroke="#000000"
     stroke-width="4.46"
     stroke-linejoin="bevel"
     points="9006.35,384.835 9006.35,646.599"
     id="polyline20"
     transform="translate(-305.41636,-350.28551)" />
  <polyline
     class="BarLine"
     fill="none"
     stroke="#000000"
     stroke-width="4.46"
     stroke-linejoin="bevel"
     points="4466.97,384.835 4466.97,646.599"
     id="polyline21"
     transform="translate(-305.41636,-350.28551)" />
  <polyline
     class="BarLine"
     fill="none"
     stroke="#000000"
     stroke-width="4.46"
     stroke-linejoin="bevel"
     points="2197.28,384.835 2197.28,646.599"
     id="polyline22"
     transform="translate(-305.41636,-350.28551)" />
  <polyline
     class="BarLine"
     fill="none"
     stroke="#000000"
     stroke-width="4.46"
     stroke-linejoin="bevel"
     points="2764.7,384.835 2764.7,646.599"
     id="polyline23"
     transform="translate(-305.41636,-350.28551)" />
  <polyline
     class="BarLine"
     fill="none"
     stroke="#000000"
     stroke-width="4.46"
     stroke-linejoin="bevel"
     points="7871.5,384.835 7871.5,646.599"
     id="polyline24"
     transform="translate(-305.41636,-350.28551)" />
  <polyline
     class="BarLine"
     fill="none"
     stroke="#000000"
     stroke-width="4.46"
     stroke-linejoin="bevel"
     points="5601.81,384.835 5601.81,646.599"
     id="polyline25"
     transform="translate(-305.41636,-350.28551)" />
  <polyline
     class="BarLine"
     fill="none"
     stroke="#000000"
     stroke-width="4.46"
     stroke-linejoin="bevel"
     points="7304.08,384.835 7304.08,646.599"
     id="polyline26"
     transform="translate(-305.41636,-350.28551)" />
  <polyline
     class="BarLine"
     fill="none"
     stroke="#000000"
     stroke-width="4.46"
     stroke-linejoin="bevel"
     points="6736.66,384.835 6736.66,646.599"
     id="polyline27"
     transform="translate(-305.41636,-350.28551)" />
  <polyline
     class="BarLine"
     fill="none"
     stroke="#000000"
     stroke-width="4.46"
     stroke-linejoin="bevel"
     points="3332.12,384.835 3332.12,646.599"
     id="polyline28"
     transform="translate(-305.41636,-350.28551)" />
  <polyline
     class="BarLine"
     fill="none"
     stroke="#000000"
     stroke-width="4.46"
     stroke-linejoin="bevel"
     points="6169.23,384.835 6169.23,646.599"
     id="polyline29"
     transform="translate(-305.41636,-350.28551)" />
  <polyline
     class="BarLine"
     fill="none"
     stroke="#000000"
     stroke-width="4.46"
     stroke-linejoin="bevel"
     points="14162.8,384.835 14162.8,646.599"
     id="polyline30"
     transform="translate(-305.41636,-350.28551)" />
  <polyline
     class="BarLine"
     fill="none"
     stroke="#000000"
     stroke-width="13.64"
     stroke-linejoin="bevel"
     points="14181,384.835 14181,646.599"
     id="polyline31"
     transform="translate(-305.41636,-350.28551)" />
  <polyline
     class="BarLine"
     fill="none"
     stroke="#000000"
     stroke-width="4.46"
     stroke-linejoin="bevel"
     points="338.831,384.835 338.831,646.599"
     id="polyline32"
     transform="translate(-305.41636,-350.28551)" />
  <polyline
     class="BarLine"
     fill="none"
     stroke="#000000"
     stroke-width="4.46"
     stroke-linejoin="bevel"
     points="12978.3,384.835 12978.3,646.599"
     id="polyline33"
     transform="translate(-305.41636,-350.28551)" />
  <polyline
     class="BarLine"
     fill="none"
     stroke="#000000"
     stroke-width="4.46"
     stroke-linejoin="bevel"
     points="12410.9,384.835 12410.9,646.599"
     id="polyline34"
     transform="translate(-305.41636,-350.28551)" />
  <polyline
     class="BarLine"
     fill="none"
     stroke="#000000"
     stroke-width="4.46"
     stroke-linejoin="bevel"
     points="13545.7,384.835 13545.7,646.599"
     id="polyline35"
     transform="translate(-305.41636,-350.28551)" />
  <polyline
     class="BarLine"
     fill="none"
     stroke="#000000"
     stroke-width="4.46"
     stroke-linejoin="bevel"
     points="11843.5,384.835 11843.5,646.599"
     id="polyline36"
     transform="translate(-305.41636,-350.28551)" />
  <polyline
     class="BarLine"
     fill="none"
     stroke="#000000"
     stroke-width="4.46"
     stroke-linejoin="bevel"
     points="338.831,645.235 338.831,747.163"
     id="polyline37"
     transform="translate(-305.41636,-350.28551)" />
  <polyline
     class="BarLine"
     fill="none"
     stroke="#000000"
     stroke-width="4.46"
     stroke-linejoin="bevel"
     points="6736.66,645.235 6736.66,747.163"
     id="polyline38"
     transform="translate(-305.41636,-350.28551)" />
  <polyline
     class="BarLine"
     fill="none"
     stroke="#000000"
     stroke-width="4.46"
     stroke-linejoin="bevel"
     points="5601.81,645.235 5601.81,747.163"
     id="polyline39"
     transform="translate(-305.41636,-350.28551)" />
  <polyline
     class="BarLine"
     fill="none"
     stroke="#000000"
     stroke-width="4.46"
     stroke-linejoin="bevel"
     points="13545.7,645.235 13545.7,747.163"
     id="polyline40"
     transform="translate(-305.41636,-350.28551)" />
  <polyline
     class="BarLine"
     fill="none"
     stroke="#000000"
     stroke-width="4.46"
     stroke-linejoin="bevel"
     points="7304.08,645.235 7304.08,747.163"
     id="polyline41"
     transform="translate(-305.41636,-350.28551)" />
  <polyline
     class="BarLine"
     fill="none"
     stroke="#000000"
     stroke-width="4.46"
     stroke-linejoin="bevel"
     points="3332.12,645.235 3332.12,747.163"
     id="polyline42"
     transform="translate(-305.41636,-350.28551)" />
  <polyline
     class="BarLine"
     fill="none"
     stroke="#000000"
     stroke-width="4.46"
     stroke-linejoin="bevel"
     points="4466.97,645.235 4466.97,747.163"
     id="polyline43"
     transform="translate(-305.41636,-350.28551)" />
  <polyline
     class="BarLine"
     fill="none"
     stroke="#000000"
     stroke-width="4.46"
     stroke-linejoin="bevel"
     points="2764.7,645.235 2764.7,747.163"
     id="polyline44"
     transform="translate(-305.41636,-350.28551)" />
  <polyline
     class="BarLine"
     fill="none"
     stroke="#000000"
     stroke-width="4.46"
     stroke-linejoin="bevel"
     points="7871.5,645.235 7871.5,747.163"
     id="polyline45"
     transform="translate(-305.41636,-350.28551)" />
  <polyline
     class="BarLine"
     fill="none"
     stroke="#000000"
     stroke-width="4.46"
     stroke-linejoin="bevel"
     points="2197.28,645.235 2197.28,747.163"
     id="polyline46"
     transform="translate(-305.41636,-350.28551)" />
  <polyline
     class="BarLine"
     fill="none"
     stroke="#000000"
     stroke-width="4.46"
     stroke-linejoin="bevel"
     points="6169.23,645.235 6169.23,747.163"
     id="polyline47"
     transform="translate(-305.41636,-350.28551)" />
  <polyline
     class="BarLine"
     fill="none"
     stroke="#000000"
     stroke-width="4.46"
     stroke-linejoin="bevel"
     points="12978.3,645.235 12978.3,747.163"
     id="polyline48"
     transform="translate(-305.41636,-350.28551)" />
  <polyline
     class="BarLine"
     fill="none"
     stroke="#000000"
     stroke-width="4.46"
     stroke-linejoin="bevel"
     points="1062.43,645.235 1062.43,747.163"
     id="polyline49"
     transform="translate(-305.41636,-350.28551)" />
  <polyline
     class="BarLine"
     fill="none"
     stroke="#000000"
     stroke-width="4.46"
     stroke-linejoin="bevel"
     points="8438.92,645.235 8438.92,747.163"
     id="polyline50"
     transform="translate(-305.41636,-350.28551)" />
  <polyline
     class="BarLine"
     fill="none"
     stroke="#000000"
     stroke-width="4.46"
     stroke-linejoin="bevel"
     points="9006.35,645.235 9006.35,747.163"
     id="polyline51"
     transform="translate(-305.41636,-350.28551)" />
  <polyline
     class="BarLine"
     fill="none"
     stroke="#000000"
     stroke-width="4.46"
     stroke-linejoin="bevel"
     points="5034.39,645.235 5034.39,747.163"
     id="polyline52"
     transform="translate(-305.41636,-350.28551)" />
  <polyline
     class="BarLine"
     fill="none"
     stroke="#000000"
     stroke-width="4.46"
     stroke-linejoin="bevel"
     points="12410.9,645.235 12410.9,747.163"
     id="polyline53"
     transform="translate(-305.41636,-350.28551)" />
  <polyline
     class="BarLine"
     fill="none"
     stroke="#000000"
     stroke-width="4.46"
     stroke-linejoin="bevel"
     points="3899.54,645.235 3899.54,747.163"
     id="polyline54"
     transform="translate(-305.41636,-350.28551)" />
  <polyline
     class="BarLine"
     fill="none"
     stroke="#000000"
     stroke-width="4.46"
     stroke-linejoin="bevel"
     points="10708.6,645.235 10708.6,747.163"
     id="polyline55"
     transform="translate(-305.41636,-350.28551)" />
  <polyline
     class="BarLine"
     fill="none"
     stroke="#000000"
     stroke-width="4.46"
     stroke-linejoin="bevel"
     points="10141.2,645.235 10141.2,747.163"
     id="polyline56"
     transform="translate(-305.41636,-350.28551)" />
  <polyline
     class="BarLine"
     fill="none"
     stroke="#000000"
     stroke-width="4.46"
     stroke-linejoin="bevel"
     points="11843.5,645.235 11843.5,747.163"
     id="polyline57"
     transform="translate(-305.41636,-350.28551)" />
  <polyline
     class="BarLine"
     fill="none"
     stroke="#000000"
     stroke-width="4.46"
     stroke-linejoin="bevel"
     points="14162.8,645.235 14162.8,747.163"
     id="polyline58"
     transform="translate(-305.41636,-350.28551)" />
  <polyline
     class="BarLine"
     fill="none"
     stroke="#000000"
     stroke-width="13.64"
     stroke-linejoin="bevel"
     points="14181,645.235 14181,747.163"
     id="polyline59"
     transform="translate(-305.41636,-350.28551)" />
  <polyline
     class="BarLine"
     fill="none"
     stroke="#000000"
     stroke-width="4.46"
     stroke-linejoin="bevel"
     points="1629.85,645.235 1629.85,747.163"
     id="polyline60"
     transform="translate(-305.41636,-350.28551)" />
  <polyline
     class="BarLine"
     fill="none"
     stroke="#000000"
     stroke-width="4.46"
     stroke-linejoin="bevel"
     points="11276,645.235 11276,747.163"
     id="polyline61"
     transform="translate(-305.41636,-350.28551)" />
  <polyline
     class="BarLine"
     fill="none"
     stroke="#000000"
     stroke-width="4.46"
     stroke-linejoin="bevel"
     points="9573.77,645.235 9573.77,747.163"
     id="polyline62"
     transform="translate(-305.41636,-350.28551)" />
  <path
     class="Accidental"
     d="m 1790.0842,112.29748 c 0.6045,-0.093 1.1005,-0.79053 1.1005,-1.39505 v -5.84349 c 0,-0.79052 -0.6045,-1.39495 -1.395,-1.39495 -0.093,0 -0.093,0 -0.2015,0 l -3.2705,0.69748 V 89.574404 h -2.7746 v 15.376016 l -8.8349,1.798 V 92.751982 h -2.7746 v 14.585488 l -3.875,0.79053 c -0.589,0.10842 -1.085,0.79042 -1.085,1.39495 v 0.20147 5.75055 -0.20149 c 0,0.7905 0.589,1.395 1.395,1.395 0.093,0 0.186,0 0.2945,0 l 3.2705,-0.6975 V 132.339 l -3.875,0.7905 c -0.589,0.0931 -1.085,0.79052 -1.085,1.39505 v 5.75043 c 0,0.79053 0.589,1.37958 1.395,1.37958 0.093,0 0.186,0 0.2945,0 l 3.2705,-0.682 v 14.77149 h 2.7746 v -15.37602 l 8.8349,-1.78253 v 13.99654 h 2.7746 v -14.58549 l 3.7665,-0.69757 c 0.6045,-0.10843 1.1005,-0.79043 1.1005,-1.39495 v -5.84354 c 0,-0.806 -0.6045,-1.395 -1.395,-1.395 -0.093,0 -0.093,0 -0.2015,0 l -3.2705,0.69751 v -16.36803 l 3.7665,-0.69749 m -15.376,3.069 8.8349,-1.78251 V 129.952 l -8.8349,1.891 v -16.47652"
     id="path62"
     style="stroke-width:0.992001" />
  <path
     class="Accidental"
     d="m 10868.894,112.29748 c 0.605,-0.093 1.101,-0.79053 1.101,-1.39505 v -5.84349 c 0,-0.79052 -0.605,-1.39495 -1.395,-1.39495 -0.09,0 -0.09,0 -0.202,0 l -3.27,0.69748 V 89.574404 h -2.775 v 15.376016 l -8.835,1.798 V 92.751982 h -2.774 v 14.585488 l -3.875,0.79053 c -0.589,0.10842 -1.085,0.79042 -1.085,1.39495 v 0.20147 5.75055 -0.20149 c 0,0.7905 0.589,1.395 1.395,1.395 0.09,0 0.186,0 0.294,0 l 3.271,-0.6975 V 132.339 l -3.875,0.7905 c -0.589,0.0931 -1.085,0.79052 -1.085,1.39505 v 5.75043 c 0,0.79053 0.589,1.37958 1.395,1.37958 0.09,0 0.186,0 0.294,0 l 3.271,-0.682 v 14.77149 h 2.774 v -15.37602 l 8.835,-1.78253 v 13.99654 h 2.775 v -14.58549 l 3.766,-0.69757 c 0.605,-0.10843 1.101,-0.79043 1.101,-1.39495 v -5.84354 c 0,-0.806 -0.605,-1.395 -1.395,-1.395 -0.09,0 -0.09,0 -0.202,0 l -3.27,0.69751 v -16.36803 l 3.766,-0.69749 m -15.376,3.069 8.835,-1.78251 V 129.952 l -8.835,1.891 v -16.47652"
     id="path63"
     style="stroke-width:0.992001" />
  <polyline
     class="LedgerLine"
     fill="none"
     stroke="#000000"
     stroke-width="3.97"
     stroke-linejoin="bevel"
     points="13159.3,510.199 13207.9,510.199"
     id="polyline63"
     transform="translate(-305.41636,-350.28551)" />
  <polyline
     class="LedgerLine"
     fill="none"
     stroke="#000000"
     stroke-width="3.97"
     stroke-linejoin="bevel"
     points="5073.57,510.199 5122.17,510.199"
     id="polyline64"
     transform="translate(-305.41636,-350.28551)" />
  <polyline
     class="LedgerLine"
     fill="none"
     stroke="#000000"
     stroke-width="3.97"
     stroke-linejoin="bevel"
     points="3655.02,510.199 3703.61,510.199"
     id="polyline65"
     transform="translate(-305.41636,-350.28551)" />
  <polyline
     class="LedgerLine"
     fill="none"
     stroke="#000000"
     stroke-width="3.97"
     stroke-linejoin="bevel"
     points="676.048,510.199 724.641,510.199"
     id="polyline66"
     transform="translate(-305.41636,-350.28551)" />
  <polyline
     class="LedgerLine"
     fill="none"
     stroke="#000000"
     stroke-width="3.97"
     stroke-linejoin="bevel"
     points="6208.42,510.199 6257.01,510.199"
     id="polyline67"
     transform="translate(-305.41636,-350.28551)" />
  <polyline
     class="LedgerLine"
     fill="none"
     stroke="#000000"
     stroke-width="3.97"
     stroke-linejoin="bevel"
     points="12733.8,510.199 12782.4,510.199"
     id="polyline68"
     transform="translate(-305.41636,-350.28551)" />
  <polyline
     class="LedgerLine"
     fill="none"
     stroke="#000000"
     stroke-width="3.97"
     stroke-linejoin="bevel"
     points="13582.5,510.199 13635.9,510.199"
     id="polyline69"
     transform="translate(-305.41636,-350.28551)" />
  <polyline
     class="LedgerLine"
     fill="none"
     stroke="#000000"
     stroke-width="3.97"
     stroke-linejoin="bevel"
     points="8478.11,510.199 8526.7,510.199"
     id="polyline70"
     transform="translate(-305.41636,-350.28551)" />
  <polyline
     class="LedgerLine"
     fill="none"
     stroke="#000000"
     stroke-width="3.97"
     stroke-linejoin="bevel"
     points="8194.4,510.199 8242.99,510.199"
     id="polyline71"
     transform="translate(-305.41636,-350.28551)" />
  <polyline
     class="LedgerLine"
     fill="none"
     stroke="#000000"
     stroke-width="3.97"
     stroke-linejoin="bevel"
     points="5924.71,510.199 5973.3,510.199"
     id="polyline72"
     transform="translate(-305.41636,-350.28551)" />
  <polyline
     class="LedgerLine"
     fill="none"
     stroke="#000000"
     stroke-width="3.97"
     stroke-linejoin="bevel"
     points="12024.5,510.199 12073.1,510.199"
     id="polyline73"
     transform="translate(-305.41636,-350.28551)" />
  <polyline
     class="LedgerLine"
     fill="none"
     stroke="#000000"
     stroke-width="3.97"
     stroke-linejoin="bevel"
     points="4080.58,510.199 4129.18,510.199"
     id="polyline74"
     transform="translate(-305.41636,-350.28551)" />
  <polyline
     class="LedgerLine"
     fill="none"
     stroke="#000000"
     stroke-width="3.97"
     stroke-linejoin="bevel"
     points="7343.26,510.199 7391.86,510.199"
     id="polyline75"
     transform="translate(-305.41636,-350.28551)" />
  <polyline
     class="LedgerLine"
     fill="none"
     stroke="#000000"
     stroke-width="3.97"
     stroke-linejoin="bevel"
     points="1385.33,510.199 1433.92,510.199"
     id="polyline76"
     transform="translate(-305.41636,-350.28551)" />
  <polyline
     class="LedgerLine"
     fill="none"
     stroke="#000000"
     stroke-width="3.97"
     stroke-linejoin="bevel"
     points="2945.74,510.199 2994.33,510.199"
     id="polyline77"
     transform="translate(-305.41636,-350.28551)" />
  <polyline
     class="LedgerLine"
     fill="none"
     stroke="#000000"
     stroke-width="3.97"
     stroke-linejoin="bevel"
     points="4222.44,510.199 4271.03,510.199"
     id="polyline78"
     transform="translate(-305.41636,-350.28551)" />
  <polyline
     class="LedgerLine"
     fill="none"
     stroke="#000000"
     stroke-width="3.97"
     stroke-linejoin="bevel"
     points="13443.1,510.199 13491.6,510.199"
     id="polyline79"
     transform="translate(-305.41636,-350.28551)" />
  <polyline
     class="LedgerLine"
     fill="none"
     stroke="#000000"
     stroke-width="3.97"
     stroke-linejoin="bevel"
     points="4503.76,510.199 4557.13,510.199"
     id="polyline80"
     transform="translate(-305.41636,-350.28551)" />
  <polyline
     class="LedgerLine"
     fill="none"
     stroke="#000000"
     stroke-width="3.97"
     stroke-linejoin="bevel"
     points="13301.2,510.199 13349.8,510.199"
     id="polyline81"
     transform="translate(-305.41636,-350.28551)" />
  <polyline
     class="LedgerLine"
     fill="none"
     stroke="#000000"
     stroke-width="3.97"
     stroke-linejoin="bevel"
     points="9754.81,510.199 9803.4,510.199"
     id="polyline82"
     transform="translate(-305.41636,-350.28551)" />
  <polyline
     class="LedgerLine"
     fill="none"
     stroke="#000000"
     stroke-width="3.97"
     stroke-linejoin="bevel"
     points="4364.3,510.199 4412.89,510.199"
     id="polyline83"
     transform="translate(-305.41636,-350.28551)" />
  <polyline
     class="LedgerLine"
     fill="none"
     stroke="#000000"
     stroke-width="3.97"
     stroke-linejoin="bevel"
     points="10464.1,510.199 10512.7,510.199"
     id="polyline84"
     transform="translate(-305.41636,-350.28551)" />
  <polyline
     class="Stem"
     fill="none"
     stroke="#000000"
     stroke-width="2.48"
     stroke-linejoin="bevel"
     points="7382.43,506.231 7382.43,423.399"
     id="polyline85"
     transform="translate(-305.41636,-350.28551)" />
  <polyline
     class="Stem"
     fill="none"
     stroke="#000000"
     stroke-width="2.48"
     stroke-linejoin="bevel"
     points="12063.7,506.231 12063.7,423.399"
     id="polyline86"
     transform="translate(-305.41636,-350.28551)" />
  <polyline
     class="Stem"
     fill="none"
     stroke="#000000"
     stroke-width="2.48"
     stroke-linejoin="bevel"
     points="8233.57,506.231 8233.57,423.399"
     id="polyline87"
     transform="translate(-305.41636,-350.28551)" />
  <polyline
     class="Stem"
     fill="none"
     stroke="#000000"
     stroke-width="2.48"
     stroke-linejoin="bevel"
     points="2843.05,456.631 2843.05,373.799"
     id="polyline88"
     transform="translate(-305.41636,-350.28551)" />
  <polyline
     class="Stem"
     fill="none"
     stroke="#000000"
     stroke-width="2.48"
     stroke-linejoin="bevel"
     points="1140.78,481.431 1140.78,398.599"
     id="polyline89"
     transform="translate(-305.41636,-350.28551)" />
  <polyline
     class="Stem"
     fill="none"
     stroke="#000000"
     stroke-width="2.48"
     stroke-linejoin="bevel"
     points="8091.71,469.031 8091.71,386.199"
     id="polyline90"
     transform="translate(-305.41636,-350.28551)" />
  <polyline
     class="Stem"
     fill="none"
     stroke="#000000"
     stroke-width="2.48"
     stroke-linejoin="bevel"
     points="7949.85,481.431 7949.85,398.599"
     id="polyline91"
     transform="translate(-305.41636,-350.28551)" />
  <polyline
     class="Stem"
     fill="none"
     stroke="#000000"
     stroke-width="2.48"
     stroke-linejoin="bevel"
     points="998.928,469.031 998.928,386.199"
     id="polyline92"
     transform="translate(-305.41636,-350.28551)" />
  <polyline
     class="Stem"
     fill="none"
     stroke="#000000"
     stroke-width="2.48"
     stroke-linejoin="bevel"
     points="7808,469.031 7808,386.199"
     id="polyline93"
     transform="translate(-305.41636,-350.28551)" />
  <polyline
     class="Stem"
     fill="none"
     stroke="#000000"
     stroke-width="2.48"
     stroke-linejoin="bevel"
     points="857.073,493.831 857.073,410.999"
     id="polyline94"
     transform="translate(-305.41636,-350.28551)" />
  <polyline
     class="Stem"
     fill="none"
     stroke="#000000"
     stroke-width="2.48"
     stroke-linejoin="bevel"
     points="7666.14,469.031 7666.14,386.199"
     id="polyline95"
     transform="translate(-305.41636,-350.28551)" />
  <polyline
     class="Stem"
     fill="none"
     stroke="#000000"
     stroke-width="2.48"
     stroke-linejoin="bevel"
     points="11070.7,456.631 11070.7,373.799"
     id="polyline96"
     transform="translate(-305.41636,-350.28551)" />
  <polyline
     class="Stem"
     fill="none"
     stroke="#000000"
     stroke-width="2.48"
     stroke-linejoin="bevel"
     points="7524.29,469.031 7524.29,386.199"
     id="polyline97"
     transform="translate(-305.41636,-350.28551)" />
  <polyline
     class="Stem"
     fill="none"
     stroke="#000000"
     stroke-width="2.48"
     stroke-linejoin="bevel"
     points="11921.8,456.631 11921.8,373.799"
     id="polyline98"
     transform="translate(-305.41636,-350.28551)" />
  <polyline
     class="Stem"
     fill="none"
     stroke="#000000"
     stroke-width="2.48"
     stroke-linejoin="bevel"
     points="1353.57,493.831 1353.57,411.197"
     id="polyline99"
     transform="translate(-305.41636,-350.28551)" />
  <polyline
     class="Stem"
     fill="none"
     stroke="#000000"
     stroke-width="2.48"
     stroke-linejoin="bevel"
     points="1424.5,506.231 1424.5,423.399"
     id="polyline100"
     transform="translate(-305.41636,-350.28551)" />
  <polyline
     class="Stem"
     fill="none"
     stroke="#000000"
     stroke-width="2.48"
     stroke-linejoin="bevel"
     points="1566.35,481.431 1566.35,398.599"
     id="polyline101"
     transform="translate(-305.41636,-350.28551)" />
  <polyline
     class="Stem"
     fill="none"
     stroke="#000000"
     stroke-width="2.48"
     stroke-linejoin="bevel"
     points="10077.7,469.031 10077.7,386.199"
     id="polyline102"
     transform="translate(-305.41636,-350.28551)" />
  <polyline
     class="Stem"
     fill="none"
     stroke="#000000"
     stroke-width="2.48"
     stroke-linejoin="bevel"
     points="10432.3,493.831 10432.3,411.197"
     id="polyline103"
     transform="translate(-305.41636,-350.28551)" />
  <polyline
     class="Stem"
     fill="none"
     stroke="#000000"
     stroke-width="2.48"
     stroke-linejoin="bevel"
     points="9935.83,493.831 9935.83,410.999"
     id="polyline104"
     transform="translate(-305.41636,-350.28551)" />
  <polyline
     class="Stem"
     fill="none"
     stroke="#000000"
     stroke-width="2.48"
     stroke-linejoin="bevel"
     points="9793.98,506.231 9793.98,423.399"
     id="polyline105"
     transform="translate(-305.41636,-350.28551)" />
  <polyline
     class="Stem"
     fill="none"
     stroke="#000000"
     stroke-width="2.48"
     stroke-linejoin="bevel"
     points="10503.3,506.231 10503.3,423.399"
     id="polyline106"
     transform="translate(-305.41636,-350.28551)" />
  <polyline
     class="Stem"
     fill="none"
     stroke="#000000"
     stroke-width="2.48"
     stroke-linejoin="bevel"
     points="9652.12,456.631 9652.12,373.799"
     id="polyline107"
     transform="translate(-305.41636,-350.28551)" />
  <polyline
     class="Stem"
     fill="none"
     stroke="#000000"
     stroke-width="2.48"
     stroke-linejoin="bevel"
     points="1708.21,456.631 1708.21,373.799"
     id="polyline108"
     transform="translate(-305.41636,-350.28551)" />
  <polyline
     class="Stem"
     fill="none"
     stroke="#000000"
     stroke-width="2.48"
     stroke-linejoin="bevel"
     points="10645.1,481.431 10645.1,398.599"
     id="polyline109"
     transform="translate(-305.41636,-350.28551)" />
  <polyline
     class="Stem"
     fill="none"
     stroke="#000000"
     stroke-width="2.48"
     stroke-linejoin="bevel"
     points="9226.56,469.031 9226.56,386.199"
     id="polyline110"
     transform="translate(-305.41636,-350.28551)" />
  <polyline
     class="Stem"
     fill="none"
     stroke="#000000"
     stroke-width="2.48"
     stroke-linejoin="bevel"
     points="2133.77,469.031 2133.77,386.199"
     id="polyline111"
     transform="translate(-305.41636,-350.28551)" />
  <polyline
     class="Stem"
     fill="none"
     stroke="#000000"
     stroke-width="2.48"
     stroke-linejoin="bevel"
     points="9084.7,481.431 9084.7,398.599"
     id="polyline112"
     transform="translate(-305.41636,-350.28551)" />
  <polyline
     class="Stem"
     fill="none"
     stroke="#000000"
     stroke-width="2.48"
     stroke-linejoin="bevel"
     points="10787,456.631 10787,373.799"
     id="polyline113"
     transform="translate(-305.41636,-350.28551)" />
  <polyline
     class="Stem"
     fill="none"
     stroke="#000000"
     stroke-width="2.48"
     stroke-linejoin="bevel"
     points="1850.06,456.631 1850.06,373.799"
     id="polyline114"
     transform="translate(-305.41636,-350.28551)" />
  <polyline
     class="Stem"
     fill="none"
     stroke="#000000"
     stroke-width="2.48"
     stroke-linejoin="bevel"
     points="1991.92,456.631 1991.92,373.799"
     id="polyline115"
     transform="translate(-305.41636,-350.28551)" />
  <polyline
     class="Stem"
     fill="none"
     stroke="#000000"
     stroke-width="2.48"
     stroke-linejoin="bevel"
     points="10928.8,456.631 10928.8,373.799"
     id="polyline116"
     transform="translate(-305.41636,-350.28551)" />
  <polyline
     class="Stem"
     fill="none"
     stroke="#000000"
     stroke-width="2.48"
     stroke-linejoin="bevel"
     points="8942.84,469.031 8942.84,386.199"
     id="polyline117"
     transform="translate(-305.41636,-350.28551)" />
  <polyline
     class="Stem"
     fill="none"
     stroke="#000000"
     stroke-width="2.48"
     stroke-linejoin="bevel"
     points="8800.99,469.031 8800.99,386.199"
     id="polyline118"
     transform="translate(-305.41636,-350.28551)" />
  <polyline
     class="Stem"
     fill="none"
     stroke="#000000"
     stroke-width="2.48"
     stroke-linejoin="bevel"
     points="10219.5,481.431 10219.5,398.599"
     id="polyline119"
     transform="translate(-305.41636,-350.28551)" />
  <polyline
     class="Stem"
     fill="none"
     stroke="#000000"
     stroke-width="2.48"
     stroke-linejoin="bevel"
     points="8659.13,469.031 8659.13,386.199"
     id="polyline120"
     transform="translate(-305.41636,-350.28551)" />
  <polyline
     class="Stem"
     fill="none"
     stroke="#000000"
     stroke-width="2.48"
     stroke-linejoin="bevel"
     points="11212.5,469.031 11212.5,386.199"
     id="polyline121"
     transform="translate(-305.41636,-350.28551)" />
  <polyline
     class="Stem"
     fill="none"
     stroke="#000000"
     stroke-width="2.48"
     stroke-linejoin="bevel"
     points="8517.28,506.231 8517.28,423.399"
     id="polyline122"
     transform="translate(-305.41636,-350.28551)" />
  <polyline
     class="Stem"
     fill="none"
     stroke="#000000"
     stroke-width="2.48"
     stroke-linejoin="bevel"
     points="13340.4,506.231 13340.4,423.399"
     id="polyline123"
     transform="translate(-305.41636,-350.28551)" />
  <polyline
     class="Stem"
     fill="none"
     stroke="#000000"
     stroke-width="2.48"
     stroke-linejoin="bevel"
     points="6389.44,469.031 6389.44,386.199"
     id="polyline124"
     transform="translate(-305.41636,-350.28551)" />
  <polyline
     class="Stem"
     fill="none"
     stroke="#000000"
     stroke-width="2.48"
     stroke-linejoin="bevel"
     points="12489.2,481.431 12489.2,398.599"
     id="polyline125"
     transform="translate(-305.41636,-350.28551)" />
  <polyline
     class="Stem"
     fill="none"
     stroke="#000000"
     stroke-width="2.48"
     stroke-linejoin="bevel"
     points="573.361,456.631 573.361,373.799"
     id="polyline126"
     transform="translate(-305.41636,-350.28551)" />
  <polyline
     class="Stem"
     fill="none"
     stroke="#000000"
     stroke-width="2.48"
     stroke-linejoin="bevel"
     points="6247.59,506.231 6247.59,423.399"
     id="polyline127"
     transform="translate(-305.41636,-350.28551)" />
  <polyline
     class="Stem"
     fill="none"
     stroke="#000000"
     stroke-width="2.48"
     stroke-linejoin="bevel"
     points="3410.47,481.431 3410.47,398.599"
     id="polyline128"
     transform="translate(-305.41636,-350.28551)" />
  <polyline
     class="Stem"
     fill="none"
     stroke="#000000"
     stroke-width="2.48"
     stroke-linejoin="bevel"
     points="3977.9,456.631 3977.9,373.799"
     id="polyline129"
     transform="translate(-305.41636,-350.28551)" />
  <polyline
     class="Stem"
     fill="none"
     stroke="#000000"
     stroke-width="2.48"
     stroke-linejoin="bevel"
     points="12914.8,481.431 12914.8,398.599"
     id="polyline130"
     transform="translate(-305.41636,-350.28551)" />
  <polyline
     class="Stem"
     fill="none"
     stroke="#000000"
     stroke-width="2.48"
     stroke-linejoin="bevel"
     points="12702,493.831 12702,411.197"
     id="polyline131"
     transform="translate(-305.41636,-350.28551)" />
  <polyline
     class="Stem"
     fill="none"
     stroke="#000000"
     stroke-width="2.48"
     stroke-linejoin="bevel"
     points="5963.88,506.231 5963.88,423.399"
     id="polyline132"
     transform="translate(-305.41636,-350.28551)" />
  <polyline
     class="Stem"
     fill="none"
     stroke="#000000"
     stroke-width="2.48"
     stroke-linejoin="bevel"
     points="13056.7,456.631 13056.7,373.799"
     id="polyline133"
     transform="translate(-305.41636,-350.28551)" />
  <polyline
     class="Stem"
     fill="none"
     stroke="#000000"
     stroke-width="2.48"
     stroke-linejoin="bevel"
     points="5396.45,469.031 5396.45,386.199"
     id="polyline134"
     transform="translate(-305.41636,-350.28551)" />
  <polyline
     class="Stem"
     fill="none"
     stroke="#000000"
     stroke-width="2.48"
     stroke-linejoin="bevel"
     points="5822.02,469.031 5822.02,386.199"
     id="polyline135"
     transform="translate(-305.41636,-350.28551)" />
  <polyline
     class="Stem"
     fill="none"
     stroke="#000000"
     stroke-width="2.48"
     stroke-linejoin="bevel"
     points="12772.9,506.231 12772.9,423.399"
     id="polyline136"
     transform="translate(-305.41636,-350.28551)" />
  <polyline
     class="Stem"
     fill="none"
     stroke="#000000"
     stroke-width="2.48"
     stroke-linejoin="bevel"
     points="3836.04,481.431 3836.04,398.599"
     id="polyline137"
     transform="translate(-305.41636,-350.28551)" />
  <polyline
     class="Stem"
     fill="none"
     stroke="#000000"
     stroke-width="2.48"
     stroke-linejoin="bevel"
     points="5680.16,481.431 5680.16,398.599"
     id="polyline138"
     transform="translate(-305.41636,-350.28551)" />
  <polyline
     class="Stem"
     fill="none"
     stroke="#000000"
     stroke-width="2.48"
     stroke-linejoin="bevel"
     points="2984.91,506.231 2984.91,423.399"
     id="polyline139"
     transform="translate(-305.41636,-350.28551)" />
  <polyline
     class="Stem"
     fill="none"
     stroke="#000000"
     stroke-width="2.48"
     stroke-linejoin="bevel"
     points="3623.26,493.831 3623.26,411.197"
     id="polyline140"
     transform="translate(-305.41636,-350.28551)" />
  <polyline
     class="Stem"
     fill="none"
     stroke="#000000"
     stroke-width="2.48"
     stroke-linejoin="bevel"
     points="3694.19,506.231 3694.19,423.399"
     id="polyline141"
     transform="translate(-305.41636,-350.28551)" />
  <polyline
     class="Stem"
     fill="none"
     stroke="#000000"
     stroke-width="2.48"
     stroke-linejoin="bevel"
     points="3126.76,493.831 3126.76,410.999"
     id="polyline142"
     transform="translate(-305.41636,-350.28551)" />
  <polyline
     class="Stem"
     fill="none"
     stroke="#000000"
     stroke-width="2.48"
     stroke-linejoin="bevel"
     points="5538.31,469.031 5538.31,386.199"
     id="polyline143"
     transform="translate(-305.41636,-350.28551)" />
  <polyline
     class="Stem"
     fill="none"
     stroke="#000000"
     stroke-width="2.48"
     stroke-linejoin="bevel"
     points="6956.87,469.031 6956.87,386.199"
     id="polyline144"
     transform="translate(-305.41636,-350.28551)" />
  <polyline
     class="Stem"
     fill="none"
     stroke="#000000"
     stroke-width="2.48"
     stroke-linejoin="bevel"
     points="12205.5,493.831 12205.5,410.999"
     id="polyline145"
     transform="translate(-305.41636,-350.28551)" />
  <polyline
     class="Stem"
     fill="none"
     stroke="#000000"
     stroke-width="2.48"
     stroke-linejoin="bevel"
     points="4119.75,506.231 4119.75,423.399"
     id="polyline146"
     transform="translate(-305.41636,-350.28551)" />
  <polyline
     class="Stem"
     fill="none"
     stroke="#000000"
     stroke-width="2.48"
     stroke-linejoin="bevel"
     points="13198.5,506.231 13198.5,423.399"
     id="polyline147"
     transform="translate(-305.41636,-350.28551)" />
  <polyline
     class="Stem"
     fill="none"
     stroke="#000000"
     stroke-width="2.48"
     stroke-linejoin="bevel"
     points="6815.01,481.431 6815.01,398.599"
     id="polyline148"
     transform="translate(-305.41636,-350.28551)" />
  <polyline
     class="Stem"
     fill="none"
     stroke="#000000"
     stroke-width="2.48"
     stroke-linejoin="bevel"
     points="12347.4,469.031 12347.4,386.199"
     id="polyline149"
     transform="translate(-305.41636,-350.28551)" />
  <polyline
     class="Stem"
     fill="none"
     stroke="#000000"
     stroke-width="2.48"
     stroke-linejoin="bevel"
     points="5254.6,469.031 5254.6,386.199"
     id="polyline150"
     transform="translate(-305.41636,-350.28551)" />
  <polyline
     class="Stem"
     fill="none"
     stroke="#000000"
     stroke-width="2.48"
     stroke-linejoin="bevel"
     points="4261.61,506.231 4261.61,423.399"
     id="polyline151"
     transform="translate(-305.41636,-350.28551)" />
  <polyline
     class="Stem"
     fill="none"
     stroke="#000000"
     stroke-width="2.48"
     stroke-linejoin="bevel"
     points="3268.62,469.031 3268.62,386.199"
     id="polyline152"
     transform="translate(-305.41636,-350.28551)" />
  <polyline
     class="Stem"
     fill="none"
     stroke="#000000"
     stroke-width="2.48"
     stroke-linejoin="bevel"
     points="5112.74,506.231 5112.74,423.399"
     id="polyline153"
     transform="translate(-305.41636,-350.28551)" />
  <polyline
     class="Stem"
     fill="none"
     stroke="#000000"
     stroke-width="2.48"
     stroke-linejoin="bevel"
     points="6673.15,469.031 6673.15,386.199"
     id="polyline154"
     transform="translate(-305.41636,-350.28551)" />
  <polyline
     class="Stem"
     fill="none"
     stroke="#000000"
     stroke-width="2.48"
     stroke-linejoin="bevel"
     points="715.217,506.231 715.217,423.399"
     id="polyline155"
     transform="translate(-305.41636,-350.28551)" />
  <polyline
     class="Stem"
     fill="none"
     stroke="#000000"
     stroke-width="2.48"
     stroke-linejoin="bevel"
     points="4403.46,518.631 4403.46,435.799"
     id="polyline156"
     transform="translate(-305.41636,-350.28551)" />
  <polyline
     class="Stem"
     fill="none"
     stroke="#000000"
     stroke-width="2.48"
     stroke-linejoin="bevel"
     points="6531.3,469.031 6531.3,386.199"
     id="polyline157"
     transform="translate(-305.41636,-350.28551)" />
  <polyline
     class="Stem"
     fill="none"
     stroke="#000000"
     stroke-width="2.48"
     stroke-linejoin="bevel"
     points="13482.2,518.631 13482.2,435.799"
     id="polyline158"
     transform="translate(-305.41636,-350.28551)" />
  <path
     class="Hook"
     d="m 1046.9136,83.234985 c 0,0.294525 0.093,0.790526 0.7905,1.085051 4.2625,1.394952 12.803,6.758007 19.251,17.762964 1.7826,3.06906 4.6656,7.34706 4.6656,15.57759 0,7.14549 -1.891,14.47697 -4.464,21.62245 -0.2016,0.60453 -0.403,1.10053 -0.31,1.488 0,0.40305 0.1084,0.69758 0.496,0.89905 0.2015,0.093 0.403,0.093 0.496,0.093 0.6975,0 1.1935,-0.38747 1.5964,-1.08495 4.6656,-8.24601 6.2466,-18.75507 6.1536,-25.0015 0,-0.496 0,-0.79052 0,-1.19357 -0.496,-12.80297 -7.843,-22.226976 -7.843,-22.226976 0.2945,0 -9.1295,-12.198537 -11.811,-16.368017 -3.6581,-5.65753 -5.3475,-11.299536 -5.5491,-11.702536 -0.093,-0.294496 -0.992,-3.875004 -0.992,-3.875004 -0.093,-0.387501 -0.589,-0.790506 -1.1935,-0.790506 -0.6975,0 -1.2865,0.604506 -1.2865,1.286506 v 22.428498"
     id="path158"
     style="stroke-width:0.992001" />
  <path
     class="Hook"
     d="m 3316.6036,83.234985 c 0,0.294525 0.093,0.790526 0.7905,1.085051 4.2625,1.394952 12.803,6.758007 19.251,17.762964 1.7826,3.06906 4.6656,7.34706 4.6656,15.57759 0,7.14549 -1.891,14.47697 -4.464,21.62245 -0.2016,0.60453 -0.403,1.10053 -0.31,1.488 0,0.40305 0.1084,0.69758 0.496,0.89905 0.2015,0.093 0.403,0.093 0.496,0.093 0.6975,0 1.1935,-0.38747 1.5964,-1.08495 4.6656,-8.24601 6.2466,-18.75507 6.1536,-25.0015 0,-0.496 0,-0.79052 0,-1.19357 -0.496,-12.80297 -7.843,-22.226976 -7.843,-22.226976 0.2945,0 -9.1295,-12.198537 -11.811,-16.368017 -3.6581,-5.65753 -5.3475,-11.299536 -5.5491,-11.702536 -0.093,-0.294496 -0.992,-3.875004 -0.992,-3.875004 -0.093,-0.387501 -0.589,-0.790506 -1.1935,-0.790506 -0.6975,0 -1.2865,0.604506 -1.2865,1.286506 v 22.428498"
     id="path159"
     style="stroke-width:0.992001" />
  <path
     class="Hook"
     d="m 12395.384,83.234985 c 0,0.294525 0.09,0.790526 0.79,1.085051 4.263,1.394952 12.803,6.758007 19.251,17.762964 1.783,3.06906 4.666,7.34706 4.666,15.57759 0,7.14549 -1.891,14.47697 -4.464,21.62245 -0.202,0.60453 -0.403,1.10053 -0.31,1.488 0,0.40305 0.108,0.69758 0.496,0.89905 0.201,0.093 0.403,0.093 0.496,0.093 0.697,0 1.193,-0.38747 1.596,-1.08495 4.666,-8.24601 6.247,-18.75507 6.154,-25.0015 0,-0.496 0,-0.79052 0,-1.19357 -0.496,-12.80297 -7.843,-22.226976 -7.843,-22.226976 0.294,0 -9.13,-12.198537 -11.811,-16.368017 -3.658,-5.65753 -5.348,-11.299536 -5.549,-11.702536 -0.09,-0.294496 -0.992,-3.875004 -0.992,-3.875004 -0.09,-0.387501 -0.589,-0.790506 -1.194,-0.790506 -0.697,0 -1.286,0.604506 -1.286,1.286506 v 22.428498"
     id="path160"
     style="stroke-width:0.992001" />
  <path
     class="Hook"
     d="m 10125.684,83.234985 c 0,0.294525 0.09,0.790526 0.79,1.085051 4.263,1.394952 12.803,6.758007 19.251,17.762964 1.783,3.06906 4.666,7.34706 4.666,15.57759 0,7.14549 -1.891,14.47697 -4.464,21.62245 -0.202,0.60453 -0.403,1.10053 -0.31,1.488 0,0.40305 0.108,0.69758 0.496,0.89905 0.201,0.093 0.403,0.093 0.496,0.093 0.697,0 1.193,-0.38747 1.596,-1.08495 4.666,-8.24601 6.247,-18.75507 6.154,-25.0015 0,-0.496 0,-0.79052 0,-1.19357 -0.496,-12.80297 -7.843,-22.226976 -7.843,-22.226976 0.294,0 -9.13,-12.198537 -11.811,-16.368017 -3.658,-5.65753 -5.348,-11.299536 -5.549,-11.702536 -0.09,-0.294496 -0.992,-3.875004 -0.992,-3.875004 -0.09,-0.387501 -0.589,-0.790506 -1.194,-0.790506 -0.697,0 -1.286,0.604506 -1.286,1.286506 v 22.428498"
     id="path161"
     style="stroke-width:0.992001" />
  <path
     class="Note"
     d="m 12720.284,114.483 c 0,4.2625 3.069,9.02103 11.113,9.02103 10.308,0 21.127,-8.43203 21.127,-17.15855 0,-5.859 -4.96,-9.129481 -11.114,-9.129481 -9.625,0 -21.126,8.137481 -21.126,17.267001"
     id="path162"
     style="stroke-width:0.992001" />
  <path
     class="Note"
     d="m 12436.584,164.083 c 0,4.2625 3.069,9.02103 11.113,9.02103 10.308,0 21.127,-8.43203 21.127,-17.15855 0,-5.859 -4.96,-9.12948 -11.114,-9.12948 -9.625,0 -21.126,8.13748 -21.126,17.267"
     id="path163"
     style="stroke-width:0.992001" />
  <path
     class="Note"
     d="m 10166.884,164.083 c 0,4.2625 3.069,9.02103 11.113,9.02103 10.308,0 21.127,-8.43203 21.127,-17.15855 0,-5.859 -4.96,-9.12948 -11.114,-9.12948 -9.625,0 -21.126,8.13748 -21.126,17.267"
     id="path164"
     style="stroke-width:0.992001" />
  <path
     class="Note"
     d="m 12862.084,164.083 c 0,4.2625 3.069,9.02103 11.113,9.02103 10.308,0 21.127,-8.43203 21.127,-17.15855 0,-5.859 -4.96,-9.12948 -11.114,-9.12948 -9.625,0 -21.126,8.13748 -21.126,17.267"
     id="path165"
     style="stroke-width:0.992001" />
  <path
     class="Note"
     d="m 10095.884,151.683 c 0,4.2625 3.069,9.02103 11.113,9.02103 10.308,0 21.127,-8.43203 21.127,-17.15855 0,-5.859 -4.96,-9.12948 -11.114,-9.12948 -9.625,0 -21.126,8.13748 -21.126,17.267"
     id="path166"
     style="stroke-width:0.992001" />
  <path
     class="Note"
     d="m 13003.984,164.083 c 0,4.2625 3.069,9.02103 11.113,9.02103 10.308,0 21.127,-8.43203 21.127,-17.15855 0,-5.859 -4.96,-9.12948 -11.114,-9.12948 -9.625,0 -21.126,8.13748 -21.126,17.267"
     id="path167"
     style="stroke-width:0.992001" />
  <path
     class="Note"
     d="m 13303.837,146.42842 c -13.686,0 -18.553,6.94406 -18.553,13.39207 0,6.448 4.867,13.39206 18.553,13.39206 13.687,0 18.445,-6.94406 18.445,-13.39206 0,-6.44801 -4.758,-13.39207 -18.445,-13.39207 m 5.053,23.00208 c -1.193,0.403 -2.774,0.60447 -4.262,0.60447 -2.775,0 -4.666,-0.79047 -5.952,-3.27048 -1.287,-2.48 -3.069,-8.835 -3.178,-11.51651 -0.201,-2.6815 0.791,-4.2625 3.178,-5.05301 1.193,-0.40297 2.774,-0.60454 4.262,-0.60454 2.775,0 4.573,0.60454 5.952,3.28605 1.395,2.666 3.178,9.02101 3.178,11.50101 0,2.573 -0.791,4.37101 -3.178,5.05301"
     id="path168"
     style="stroke-width:0.992001" />
  <path
     class="Note"
     d="m 13145.784,176.483 c 0,4.2625 3.069,9.02103 11.113,9.02103 10.308,0 21.127,-8.43203 21.127,-17.15855 0,-5.859 -4.96,-9.12948 -11.114,-9.12948 -9.625,0 -21.126,8.13748 -21.126,17.267"
     id="path169"
     style="stroke-width:0.992001" />
  <path
     class="Note"
     d="m 1513.6636,114.483 c 0,4.2625 3.069,9.02103 11.1135,9.02103 10.3076,0 21.1266,-8.43203 21.1266,-17.15855 0,-5.859 -4.96,-9.129481 -11.1135,-9.129481 -9.6255,0 -21.1266,8.137481 -21.1266,17.267001"
     id="path170"
     style="stroke-width:0.992001" />
  <path
     class="Note"
     d="m 12152.884,139.283 c 0,4.2625 3.069,9.02103 11.113,9.02103 10.308,0 21.127,-8.43203 21.127,-17.15855 0,-5.859 -4.96,-9.12948 -11.114,-9.12948 -9.625,0 -21.126,8.13748 -21.126,17.267"
     id="path171"
     style="stroke-width:0.992001" />
  <path
     class="Note"
     d="m 11727.284,164.083 c 0,4.2625 3.069,9.02103 11.113,9.02103 10.308,0 21.127,-8.43203 21.127,-17.15855 0,-5.859 -4.96,-9.12948 -11.114,-9.12948 -9.625,0 -21.126,8.13748 -21.126,17.267"
     id="path172"
     style="stroke-width:0.992001" />
  <path
     class="Note"
     d="m 11869.084,151.683 c 0,4.2625 3.069,9.02103 11.113,9.02103 10.308,0 21.127,-8.43203 21.127,-17.15855 0,-5.859 -4.96,-9.12948 -11.114,-9.12948 -9.625,0 -21.126,8.13748 -21.126,17.267"
     id="path173"
     style="stroke-width:0.992001" />
  <path
     class="Note"
     d="m 11585.384,114.483 c 0,4.2625 3.069,9.02103 11.113,9.02103 10.308,0 21.127,-8.43203 21.127,-17.15855 0,-5.859 -4.96,-9.129481 -11.114,-9.129481 -9.625,0 -21.126,8.137481 -21.126,17.267001"
     id="path174"
     style="stroke-width:0.992001" />
  <path
     class="Note"
     d="m 378.81564,164.083 c 0,4.2625 3.069,9.02103 11.11349,9.02103 10.30758,0 21.12654,-8.43203 21.12654,-17.15855 0,-5.859 -4.96,-9.12948 -11.11348,-9.12948 -9.62549,0 -21.12655,8.13748 -21.12655,17.267"
     id="path175"
     style="stroke-width:0.992001" />
  <path
     class="Note"
     d="m 12010.984,126.883 c 0,4.2625 3.069,9.02103 11.113,9.02103 10.308,0 21.127,-8.43203 21.127,-17.15855 0,-5.859 -4.96,-9.12948 -11.114,-9.12948 -9.625,0 -21.126,8.13748 -21.126,17.267"
     id="path176"
     style="stroke-width:0.992001" />
  <path
     class="Note"
     d="m 520.67164,151.683 c 0,4.2625 3.069,9.02103 11.11349,9.02103 10.30758,0 21.12654,-8.43203 21.12654,-17.15855 0,-5.859 -4.96,-9.12948 -11.11348,-9.12948 -9.62549,0 -21.12655,8.13748 -21.12655,17.267"
     id="path177"
     style="stroke-width:0.992001" />
  <path
     class="Note"
     d="m 11034.137,96.828424 c -13.686,0 -18.553,6.944056 -18.553,13.392066 0,6.448 4.867,13.39206 18.553,13.39206 13.687,0 18.445,-6.94406 18.445,-13.39206 0,-6.44801 -4.758,-13.392066 -18.445,-13.392066 m 5.053,23.002076 c -1.193,0.403 -2.774,0.60447 -4.262,0.60447 -2.775,0 -4.666,-0.79047 -5.952,-3.27048 -1.287,-2.48 -3.069,-8.835 -3.178,-11.51651 -0.201,-2.6815 0.791,-4.2625 3.178,-5.05301 1.193,-0.40297 2.774,-0.604543 4.262,-0.604543 2.775,0 4.573,0.604543 5.952,3.286053 1.395,2.666 3.178,9.02101 3.178,11.50101 0,2.573 -0.791,4.37101 -3.178,5.05301"
     id="path178"
     style="stroke-width:0.992001" />
  <path
     class="Note"
     d="m 236.96064,114.483 c 0,4.2625 3.069,9.02103 11.11349,9.02103 10.30758,0 21.12654,-8.43203 21.12654,-17.15855 0,-5.859 -4.96,-9.129481 -11.11348,-9.129481 -9.62549,0 -21.12655,8.137481 -21.12655,17.267001"
     id="path179"
     style="stroke-width:0.992001" />
  <path
     class="Note"
     d="m 662.52764,126.883 c 0,4.2625 3.069,9.02103 11.11349,9.02103 10.30758,0 21.12654,-8.43203 21.12654,-17.15855 0,-5.859 -4.96,-9.12948 -11.11348,-9.12948 -9.62549,0 -21.12655,8.13748 -21.12655,17.267"
     id="path180"
     style="stroke-width:0.992001" />
  <path
     class="Note"
     d="m 10308.684,139.283 c 0,4.2625 3.069,9.02103 11.113,9.02103 10.308,0 21.127,-8.43203 21.127,-17.15855 0,-5.859 -4.96,-9.12948 -11.114,-9.12948 -9.625,0 -21.126,8.13748 -21.126,17.267"
     id="path181"
     style="stroke-width:0.992001" />
  <path
     class="Note"
     d="m 804.38364,139.283 c 0,4.2625 3.069,9.02103 11.11349,9.02103 10.30758,0 21.12654,-8.43203 21.12654,-17.15855 0,-5.859 -4.96,-9.12948 -11.11348,-9.12948 -9.62549,0 -21.12655,8.13748 -21.12655,17.267"
     id="path182"
     style="stroke-width:0.992001" />
  <path
     class="Note"
     d="m 10876.084,126.883 c 0,4.2625 3.069,9.02103 11.113,9.02103 10.308,0 21.127,-8.43203 21.127,-17.15855 0,-5.859 -4.96,-9.12948 -11.114,-9.12948 -9.625,0 -21.126,8.13748 -21.126,17.267"
     id="path183"
     style="stroke-width:0.992001" />
  <path
     class="Note"
     d="m 12365.584,151.683 c 0,4.2625 3.069,9.02103 11.113,9.02103 10.308,0 21.127,-8.43203 21.127,-17.15855 0,-5.859 -4.96,-9.12948 -11.114,-9.12948 -9.625,0 -21.126,8.13748 -21.126,17.267"
     id="path184"
     style="stroke-width:0.992001" />
  <path
     class="Note"
     d="m 10734.284,114.483 c 0,4.2625 3.069,9.02103 11.113,9.02103 10.308,0 21.127,-8.43203 21.127,-17.15855 0,-5.859 -4.96,-9.129481 -11.114,-9.129481 -9.625,0 -21.126,8.137481 -21.126,17.267001"
     id="path185"
     style="stroke-width:0.992001" />
  <path
     class="Note"
     d="m 10592.384,114.483 c 0,4.2625 3.069,9.02103 11.113,9.02103 10.308,0 21.127,-8.43203 21.127,-17.15855 0,-5.859 -4.96,-9.129481 -11.114,-9.129481 -9.625,0 -21.126,8.137481 -21.126,17.267001"
     id="path186"
     style="stroke-width:0.992001" />
  <path
     class="Note"
     d="m 12578.384,139.283 c 0,4.2625 3.069,9.02103 11.113,9.02103 10.308,0 21.127,-8.43203 21.127,-17.15855 0,-5.859 -4.96,-9.12948 -11.114,-9.12948 -9.625,0 -21.126,8.13748 -21.126,17.267"
     id="path187"
     style="stroke-width:0.992001" />
  <path
     class="Note"
     d="m 10450.584,114.483 c 0,4.2625 3.069,9.02103 11.113,9.02103 10.308,0 21.127,-8.43203 21.127,-17.15855 0,-5.859 -4.96,-9.129481 -11.114,-9.129481 -9.625,0 -21.126,8.137481 -21.126,17.267001"
     id="path188"
     style="stroke-width:0.992001" />
  <path
     class="Note"
     d="m 1017.1636,151.683 c 0,4.2625 3.069,9.02103 11.1135,9.02103 10.3076,0 21.1266,-8.43203 21.1266,-17.15855 0,-5.859 -4.96,-9.12948 -11.1135,-9.12948 -9.6255,0 -21.1266,8.13748 -21.1266,17.267"
     id="path189"
     style="stroke-width:0.992001" />
  <path
     class="Note"
     d="m 5648.6002,146.816 c -9.6255,0 -21.1266,8.04448 -21.1266,17.267 0,4.2625 3.069,9.02103 11.1135,9.02103 10.3076,0 21.1266,-8.43203 21.1266,-17.15855 0,-5.859 -4.96,-9.12948 -11.1135,-9.12948 m -2.6815,17.46849 c -0.2945,0.186 -7.533,4.15401 -11.0051,4.15401 -3.2704,0 -3.968,-2.66601 -3.968,-3.56501 0,-4.1695 9.9201,-9.02101 10.3231,-9.22251 0.3875,-0.2015 7.44,-4.1695 11.005,-4.1695 2.387,0 3.968,1.395 3.968,3.565 0,4.27801 -10.013,9.03652 -10.323,9.23801"
     id="path190"
     style="stroke-width:0.992001" />
  <path
     class="Note"
     d="m 7471.5936,126.883 c 0,4.2625 3.069,9.02103 11.1135,9.02103 10.3076,0 21.1266,-8.43203 21.1266,-17.15855 0,-5.859 -4.96,-9.12948 -11.1135,-9.12948 -9.6255,0 -21.1266,8.13748 -21.1266,17.267"
     id="path191"
     style="stroke-width:0.992001" />
  <path
     class="Note"
     d="m 7329.7436,126.883 c 0,4.2625 3.069,9.02103 11.1135,9.02103 10.3076,0 21.1266,-8.43203 21.1266,-17.15855 0,-5.859 -4.96,-9.12948 -11.1135,-9.12948 -9.6255,0 -21.1266,8.13748 -21.1266,17.267"
     id="path192"
     style="stroke-width:0.992001" />
  <path
     class="Note"
     d="m 7187.8836,126.883 c 0,4.2625 3.069,9.02103 11.1135,9.02103 10.3076,0 21.1266,-8.43203 21.1266,-17.15855 0,-5.859 -4.96,-9.12948 -11.1135,-9.12948 -9.6255,0 -21.1266,8.13748 -21.1266,17.267"
     id="path193"
     style="stroke-width:0.992001" />
  <path
     class="Note"
     d="m 7046.0336,164.083 c 0,4.2625 3.069,9.02103 11.1135,9.02103 10.3076,0 21.1266,-8.43203 21.1266,-17.15855 0,-5.859 -4.96,-9.12948 -11.1135,-9.12948 -9.6255,0 -21.1266,8.13748 -21.1266,17.267"
     id="path194"
     style="stroke-width:0.992001" />
  <path
     class="Note"
     d="m 2506.6536,114.483 c 0,4.2625 3.069,9.02103 11.1135,9.02103 10.3076,0 21.1266,-8.43203 21.1266,-17.15855 0,-5.859 -4.96,-9.129481 -11.1135,-9.129481 -9.6255,0 -21.1266,8.137481 -21.1266,17.267001"
     id="path195"
     style="stroke-width:0.992001" />
  <path
     class="Note"
     d="m 6641.5902,109.616 c -9.6255,0 -21.1266,8.04448 -21.1266,17.267 0,4.2625 3.069,9.02103 11.1135,9.02103 10.3076,0 21.1266,-8.43203 21.1266,-17.15855 0,-5.859 -4.96,-9.12948 -11.1135,-9.12948 m -2.6815,17.46849 c -0.2945,0.186 -7.533,4.15401 -11.0051,4.15401 -3.2704,0 -3.968,-2.66601 -3.968,-3.56501 0,-4.1695 9.9201,-9.02101 10.3231,-9.22251 0.3875,-0.2015 7.44,-4.1695 11.005,-4.1695 2.387,0 3.968,1.395 3.968,3.565 0,4.27801 -10.013,9.03652 -10.323,9.23801"
     id="path196"
     style="stroke-width:0.992001" />
  <path
     class="Note"
     d="m 6478.6036,139.283 c 0,4.2625 3.069,9.02103 11.1135,9.02103 10.3076,0 21.1266,-8.43203 21.1266,-17.15855 0,-5.859 -4.96,-9.12948 -11.1135,-9.12948 -9.6255,0 -21.1266,8.13748 -21.1266,17.267"
     id="path197"
     style="stroke-width:0.992001" />
  <path
     class="Note"
     d="m 2648.5036,164.083 c 0,4.2625 3.069,9.02103 11.1135,9.02103 10.3076,0 21.1266,-8.43203 21.1266,-17.15855 0,-5.859 -4.96,-9.12948 -11.1135,-9.12948 -9.6255,0 -21.1266,8.13748 -21.1266,17.267"
     id="path198"
     style="stroke-width:0.992001" />
  <path
     class="Note"
     d="m 2790.3636,151.683 c 0,4.2625 3.069,9.02103 11.1135,9.02103 10.3076,0 21.1266,-8.43203 21.1266,-17.15855 0,-5.859 -4.96,-9.12948 -11.1135,-9.12948 -9.6255,0 -21.1266,8.13748 -21.1266,17.267"
     id="path199"
     style="stroke-width:0.992001" />
  <path
     class="Note"
     d="m 6336.7536,126.883 c 0,4.2625 3.069,9.02103 11.1135,9.02103 10.3076,0 21.1266,-8.43203 21.1266,-17.15855 0,-5.859 -4.96,-9.12948 -11.1135,-9.12948 -9.6255,0 -21.1266,8.13748 -21.1266,17.267"
     id="path200"
     style="stroke-width:0.992001" />
  <path
     class="Note"
     d="m 6194.8936,126.883 c 0,4.2625 3.069,9.02103 11.1135,9.02103 10.3076,0 21.1266,-8.43203 21.1266,-17.15855 0,-5.859 -4.96,-9.12948 -11.1135,-9.12948 -9.6255,0 -21.1266,8.13748 -21.1266,17.267"
     id="path201"
     style="stroke-width:0.992001" />
  <path
     class="Note"
     d="m 6053.0436,126.883 c 0,4.2625 3.069,9.02103 11.1135,9.02103 10.3076,0 21.1266,-8.43203 21.1266,-17.15855 0,-5.859 -4.96,-9.12948 -11.1135,-9.12948 -9.6255,0 -21.1266,8.13748 -21.1266,17.267"
     id="path202"
     style="stroke-width:0.992001" />
  <path
     class="Note"
     d="m 5911.1836,164.083 c 0,4.2625 3.069,9.02103 11.1135,9.02103 10.3076,0 21.1266,-8.43203 21.1266,-17.15855 0,-5.859 -4.96,-9.12948 -11.1135,-9.12948 -9.6255,0 -21.1266,8.13748 -21.1266,17.267"
     id="path203"
     style="stroke-width:0.992001" />
  <path
     class="Note"
     d="m 2932.2136,126.883 c 0,4.2625 3.069,9.02103 11.1135,9.02103 10.3076,0 21.1266,-8.43203 21.1266,-17.15855 0,-5.859 -4.96,-9.12948 -11.1135,-9.12948 -9.6255,0 -21.1266,8.13748 -21.1266,17.267"
     id="path204"
     style="stroke-width:0.992001" />
  <path
     class="Note"
     d="m 3074.0736,139.283 c 0,4.2625 3.069,9.02103 11.1135,9.02103 10.3076,0 21.1266,-8.43203 21.1266,-17.15855 0,-5.859 -4.96,-9.12948 -11.1135,-9.12948 -9.6255,0 -21.1266,8.13748 -21.1266,17.267"
     id="path205"
     style="stroke-width:0.992001" />
  <path
     class="Note"
     d="m 1088.0936,164.083 c 0,4.2625 3.069,9.02103 11.1135,9.02103 10.3076,0 21.1266,-8.43203 21.1266,-17.15855 0,-5.859 -4.96,-9.12948 -11.1135,-9.12948 -9.6255,0 -21.1266,8.13748 -21.1266,17.267"
     id="path206"
     style="stroke-width:0.992001" />
  <path
     class="Note"
     d="m 5485.6236,126.883 c 0,4.2625 3.069,9.02103 11.1135,9.02103 10.3076,0 21.1266,-8.43203 21.1266,-17.15855 0,-5.859 -4.96,-9.12948 -11.1135,-9.12948 -9.6255,0 -21.1266,8.13748 -21.1266,17.267"
     id="path207"
     style="stroke-width:0.992001" />
  <path
     class="Note"
     d="m 5343.7636,139.283 c 0,4.2625 3.069,9.02103 11.1135,9.02103 10.3076,0 21.1266,-8.43203 21.1266,-17.15855 0,-5.859 -4.96,-9.12948 -11.1135,-9.12948 -9.6255,0 -21.1266,8.13748 -21.1266,17.267"
     id="path208"
     style="stroke-width:0.992001" />
  <path
     class="Note"
     d="m 3286.8536,151.683 c 0,4.2625 3.069,9.02103 11.1135,9.02103 10.3076,0 21.1266,-8.43203 21.1266,-17.15855 0,-5.859 -4.96,-9.12948 -11.1135,-9.12948 -9.6255,0 -21.1266,8.13748 -21.1266,17.267"
     id="path209"
     style="stroke-width:0.992001" />
  <path
     class="Note"
     d="m 5201.9036,126.883 c 0,4.2625 3.069,9.02103 11.1135,9.02103 10.3076,0 21.1266,-8.43203 21.1266,-17.15855 0,-5.859 -4.96,-9.12948 -11.1135,-9.12948 -9.6255,0 -21.1266,8.13748 -21.1266,17.267"
     id="path210"
     style="stroke-width:0.992001" />
  <path
     class="Note"
     d="m 5060.0536,126.883 c 0,4.2625 3.069,9.02103 11.1135,9.02103 10.3076,0 21.1266,-8.43203 21.1266,-17.15855 0,-5.859 -4.96,-9.12948 -11.1135,-9.12948 -9.6255,0 -21.1266,8.13748 -21.1266,17.267"
     id="path211"
     style="stroke-width:0.992001" />
  <path
     class="Note"
     d="m 4918.1936,126.883 c 0,4.2625 3.069,9.02103 11.1135,9.02103 10.3076,0 21.1266,-8.43203 21.1266,-17.15855 0,-5.859 -4.96,-9.12948 -11.1135,-9.12948 -9.6255,0 -21.1266,8.13748 -21.1266,17.267"
     id="path212"
     style="stroke-width:0.992001" />
  <path
     class="Note"
     d="m 4776.3436,164.083 c 0,4.2625 3.069,9.02103 11.1135,9.02103 10.3076,0 21.1266,-8.43203 21.1266,-17.15855 0,-5.859 -4.96,-9.12948 -11.1135,-9.12948 -9.6255,0 -21.1266,8.13748 -21.1266,17.267"
     id="path213"
     style="stroke-width:0.992001" />
  <path
     class="Note"
     d="m 3357.7836,164.083 c 0,4.2625 3.069,9.02103 11.1135,9.02103 10.3076,0 21.1266,-8.43203 21.1266,-17.15855 0,-5.859 -4.96,-9.12948 -11.1135,-9.12948 -9.6255,0 -21.1266,8.13748 -21.1266,17.267"
     id="path214"
     style="stroke-width:0.992001" />
  <path
     class="Note"
     d="m 4225.0871,146.42842 c -13.6865,0 -18.5535,6.94406 -18.5535,13.39207 0,6.448 4.867,13.39206 18.5535,13.39206 13.6866,0 18.4451,-6.94406 18.4451,-13.39206 0,-6.44801 -4.7585,-13.39207 -18.4451,-13.39207 m 5.0531,23.00208 c -1.1935,0.403 -2.7745,0.60447 -4.2625,0.60447 -2.7746,0 -4.6655,-0.79047 -5.952,-3.27048 -1.2866,-2.48 -3.069,-8.835 -3.1775,-11.51651 -0.2015,-2.6815 0.7905,-4.2625 3.1775,-5.05301 1.1934,-0.40297 2.7745,-0.60454 4.2625,-0.60454 2.7745,0 4.5725,0.60454 5.952,3.28605 1.3949,2.666 3.1775,9.02101 3.1775,11.50101 0,2.573 -0.7906,4.37101 -3.1775,5.05301"
     id="path215"
     style="stroke-width:0.992001" />
  <path
     class="Note"
     d="m 3499.6436,139.283 c 0,4.2625 3.069,9.02103 11.1135,9.02103 10.3076,0 21.1266,-8.43203 21.1266,-17.15855 0,-5.859 -4.96,-9.12948 -11.1135,-9.12948 -9.6255,0 -21.1266,8.13748 -21.1266,17.267"
     id="path216"
     style="stroke-width:0.992001" />
  <path
     class="Note"
     d="m 3641.4936,114.483 c 0,4.2625 3.069,9.02103 11.1135,9.02103 10.3076,0 21.1266,-8.43203 21.1266,-17.15855 0,-5.859 -4.96,-9.129481 -11.1135,-9.129481 -9.6255,0 -21.1266,8.137481 -21.1266,17.267001"
     id="path217"
     style="stroke-width:0.992001" />
  <path
     class="Note"
     d="m 4067.0636,176.483 c 0,4.2625 3.069,9.02103 11.1135,9.02103 10.3076,0 21.1266,-8.43203 21.1266,-17.15855 0,-5.859 -4.96,-9.12948 -11.1135,-9.12948 -9.6255,0 -21.1266,8.13748 -21.1266,17.267"
     id="path218"
     style="stroke-width:0.992001" />
  <path
     class="Note"
     d="m 3925.2036,164.083 c 0,4.2625 3.069,9.02103 11.1135,9.02103 10.3076,0 21.1266,-8.43203 21.1266,-17.15855 0,-5.859 -4.96,-9.12948 -11.1135,-9.12948 -9.6255,0 -21.1266,8.13748 -21.1266,17.267"
     id="path219"
     style="stroke-width:0.992001" />
  <path
     class="Note"
     d="m 3783.3536,164.083 c 0,4.2625 3.069,9.02103 11.1135,9.02103 10.3076,0 21.1266,-8.43203 21.1266,-17.15855 0,-5.859 -4.96,-9.12948 -11.1135,-9.12948 -9.6255,0 -21.1266,8.13748 -21.1266,17.267"
     id="path220"
     style="stroke-width:0.992001" />
  <path
     class="Note"
     d="m 9741.2836,126.883 c 0,4.2625 3.069,9.02103 11.1135,9.02103 10.3076,0 21.1266,-8.43203 21.1266,-17.15855 0,-5.859 -4.96,-9.12948 -11.1135,-9.12948 -9.6255,0 -21.1266,8.13748 -21.1266,17.267"
     id="path221"
     style="stroke-width:0.992001" />
  <path
     class="Note"
     d="m 8606.4436,126.883 c 0,4.2625 3.069,9.02103 11.1135,9.02103 10.3076,0 21.1266,-8.43203 21.1266,-17.15855 0,-5.859 -4.96,-9.12948 -11.1135,-9.12948 -9.6255,0 -21.1266,8.13748 -21.1266,17.267"
     id="path222"
     style="stroke-width:0.992001" />
  <path
     class="Note"
     d="m 9315.7236,114.483 c 0,4.2625 3.069,9.02103 11.1135,9.02103 10.3076,0 21.1266,-8.43203 21.1266,-17.15855 0,-5.859 -4.96,-9.129481 -11.1135,-9.129481 -9.6255,0 -21.1266,8.137481 -21.1266,17.267001"
     id="path223"
     style="stroke-width:0.992001" />
  <path
     class="Note"
     d="m 8464.5836,126.883 c 0,4.2625 3.069,9.02103 11.1135,9.02103 10.3076,0 21.1266,-8.43203 21.1266,-17.15855 0,-5.859 -4.96,-9.12948 -11.1135,-9.12948 -9.6255,0 -21.1266,8.13748 -21.1266,17.267"
     id="path224"
     style="stroke-width:0.992001" />
  <path
     class="Note"
     d="m 9457.5736,164.083 c 0,4.2625 3.069,9.02103 11.1135,9.02103 10.3076,0 21.1266,-8.43203 21.1266,-17.15855 0,-5.859 -4.96,-9.12948 -11.1135,-9.12948 -9.6255,0 -21.1266,8.13748 -21.1266,17.267"
     id="path225"
     style="stroke-width:0.992001" />
  <path
     class="Note"
     d="m 8322.7336,126.883 c 0,4.2625 3.069,9.02103 11.1135,9.02103 10.3076,0 21.1266,-8.43203 21.1266,-17.15855 0,-5.859 -4.96,-9.12948 -11.1135,-9.12948 -9.6255,0 -21.1266,8.13748 -21.1266,17.267"
     id="path226"
     style="stroke-width:0.992001" />
  <path
     class="Note"
     d="m 9599.4336,151.683 c 0,4.2625 3.069,9.02103 11.1135,9.02103 10.3076,0 21.1266,-8.43203 21.1266,-17.15855 0,-5.859 -4.96,-9.12948 -11.1135,-9.12948 -9.6255,0 -21.1266,8.13748 -21.1266,17.267"
     id="path227"
     style="stroke-width:0.992001" />
  <path
     class="Note"
     d="m 8180.8736,164.083 c 0,4.2625 3.069,9.02103 11.1135,9.02103 10.3076,0 21.1266,-8.43203 21.1266,-17.15855 0,-5.859 -4.96,-9.12948 -11.1135,-9.12948 -9.6255,0 -21.1266,8.13748 -21.1266,17.267"
     id="path228"
     style="stroke-width:0.992001" />
  <path
     class="Note"
     d="m 1655.5136,114.483 c 0,4.2625 3.069,9.02103 11.1135,9.02103 10.3076,0 21.1266,-8.43203 21.1266,-17.15855 0,-5.859 -4.96,-9.129481 -11.1135,-9.129481 -9.6255,0 -21.1266,8.137481 -21.1266,17.267001"
     id="path229"
     style="stroke-width:0.992001" />
  <path
     class="Note"
     d="m 1797.3736,126.883 c 0,4.2625 3.069,9.02103 11.1135,9.02103 10.3076,0 21.1266,-8.43203 21.1266,-17.15855 0,-5.859 -4.96,-9.12948 -11.1135,-9.12948 -9.6255,0 -21.1266,8.13748 -21.1266,17.267"
     id="path230"
     style="stroke-width:0.992001" />
  <path
     class="Note"
     d="m 7918.2902,146.816 c -9.6255,0 -21.1266,8.04448 -21.1266,17.267 0,4.2625 3.069,9.02103 11.1135,9.02103 10.3076,0 21.1266,-8.43203 21.1266,-17.15855 0,-5.859 -4.96,-9.12948 -11.1135,-9.12948 m -2.6815,17.46849 c -0.2945,0.186 -7.533,4.15401 -11.0051,4.15401 -3.2704,0 -3.968,-2.66601 -3.968,-3.56501 0,-4.1695 9.9201,-9.02101 10.3231,-9.22251 0.3875,-0.2015 7.44,-4.1695 11.005,-4.1695 2.387,0 3.968,1.395 3.968,3.565 0,4.27801 -10.013,9.03652 -10.323,9.23801"
     id="path231"
     style="stroke-width:0.992001" />
  <path
     class="Note"
     d="m 1229.9536,139.283 c 0,4.2625 3.069,9.02103 11.1135,9.02103 10.3076,0 21.1266,-8.43203 21.1266,-17.15855 0,-5.859 -4.96,-9.12948 -11.1135,-9.12948 -9.6255,0 -21.1266,8.13748 -21.1266,17.267"
     id="path232"
     style="stroke-width:0.992001" />
  <path
     class="Note"
     d="m 7755.3136,126.883 c 0,4.2625 3.069,9.02103 11.1135,9.02103 10.3076,0 21.1266,-8.43203 21.1266,-17.15855 0,-5.859 -4.96,-9.12948 -11.1135,-9.12948 -9.6255,0 -21.1266,8.13748 -21.1266,17.267"
     id="path233"
     style="stroke-width:0.992001" />
  <path
     class="Note"
     d="m 9883.1836,139.283 c 0,4.2625 3.069,9.02103 11.1135,9.02103 10.3076,0 21.1266,-8.43203 21.1266,-17.15855 0,-5.859 -4.96,-9.12948 -11.1135,-9.12948 -9.6255,0 -21.1266,8.13748 -21.1266,17.267"
     id="path234"
     style="stroke-width:0.992001" />
  <path
     class="Note"
     d="m 1371.8036,114.483 c 0,4.2625 3.069,9.02103 11.1135,9.02103 10.3076,0 21.1266,-8.43203 21.1266,-17.15855 0,-5.859 -4.96,-9.129481 -11.1135,-9.129481 -9.6255,0 -21.1266,8.137481 -21.1266,17.267001"
     id="path235"
     style="stroke-width:0.992001" />
  <path
     class="Note"
     d="m 8748.3036,139.283 c 0,4.2625 3.069,9.02103 11.1135,9.02103 10.3076,0 21.1266,-8.43203 21.1266,-17.15855 0,-5.859 -4.96,-9.12948 -11.1135,-9.12948 -9.6255,0 -21.1266,8.13748 -21.1266,17.267"
     id="path236"
     style="stroke-width:0.992001" />
  <path
     class="Note"
     d="m 7613.4536,139.283 c 0,4.2625 3.069,9.02103 11.1135,9.02103 10.3076,0 21.1266,-8.43203 21.1266,-17.15855 0,-5.859 -4.96,-9.12948 -11.1135,-9.12948 -9.6255,0 -21.1266,8.13748 -21.1266,17.267"
     id="path237"
     style="stroke-width:0.992001" />
  <path
     class="Note"
     d="m 1955.3971,96.828424 c -13.6865,0 -18.5535,6.944056 -18.5535,13.392066 0,6.448 4.867,13.39206 18.5535,13.39206 13.6866,0 18.4451,-6.94406 18.4451,-13.39206 0,-6.44801 -4.7585,-13.392066 -18.4451,-13.392066 m 5.0531,23.002076 c -1.1935,0.403 -2.7745,0.60447 -4.2625,0.60447 -2.7746,0 -4.6655,-0.79047 -5.952,-3.27048 -1.2866,-2.48 -3.069,-8.835 -3.1775,-11.51651 -0.2015,-2.6815 0.7905,-4.2625 3.1775,-5.05301 1.1934,-0.40297 2.7745,-0.604543 4.2625,-0.604543 2.7745,0 4.5725,0.604543 5.952,3.286053 1.3949,2.666 3.1775,9.02101 3.1775,11.50101 0,2.573 -0.7906,4.37101 -3.1775,5.05301"
     id="path238"
     style="stroke-width:0.992001" />
  <path
     class="Note"
     d="m 8911.2802,109.616 c -9.6255,0 -21.1266,8.04448 -21.1266,17.267 0,4.2625 3.069,9.02103 11.1135,9.02103 10.3076,0 21.1266,-8.43203 21.1266,-17.15855 0,-5.859 -4.96,-9.12948 -11.1135,-9.12948 m -2.6815,17.46849 c -0.2945,0.186 -7.533,4.15401 -11.0051,4.15401 -3.2704,0 -3.968,-2.66601 -3.968,-3.56501 0,-4.1695 9.9201,-9.02101 10.3231,-9.22251 0.3875,-0.2015 7.44,-4.1695 11.005,-4.1695 2.387,0 3.968,1.395 3.968,3.565 0,4.27801 -10.013,9.03652 -10.323,9.23801"
     id="path239"
     style="stroke-width:0.992001" />
  <path
     class="Clef"
     d="m 110.00017,112.39049 c 0,7.05251 -2.88295,14.29101 -9.92001,17.17407 -2.076949,-11.90407 -4.758427,-27.68308 -5.456002,-32.054135 8.928012,0 15.376012,6.060555 15.376012,14.880065 m -14.089486,18.35207 c -1.984002,0.40295 -3.859479,0.60442 -5.750531,0.60442 -14.18244,0 -26.287997,-9.92001 -26.287997,-24.9085 0,-12.090058 8.525029,-22.90902 17.267038,-30.457552 1.674001,-1.488002 3.270528,-2.867478 4.758529,-4.35548 0.883476,5.347481 1.580952,10.012961 2.278428,14.08949 -9.036435,2.681478 -15.174441,12.198537 -15.174441,21.529542 0,6.94401 5.456006,16.46102 13.392014,16.46102 0.790426,0 1.689477,-0.40295 1.689477,-1.28653 0,-0.89895 -0.992001,-1.39495 -2.185478,-2.18547 -3.875053,-2.38701 -6.060531,-4.96001 -6.060531,-9.82701 0,-6.04501 4.464005,-10.912063 10.322961,-12.29154 l 5.750531,32.62761 M 87.18415,28.76793 c 0.899051,-3.968004 5.456006,-14.384015 10.617585,-14.384015 1.488002,0 3.859475,4.85148 3.859475,11.702438 0,10.32306 -7.626003,18.057592 -14.47706,24.800025 -0.588951,-3.968004 -1.084951,-7.827483 -1.084951,-11.996963 0,-3.673479 0.294525,-7.052532 1.084951,-10.121485 M 66.352129,161.20006 c 0,6.55653 5.053055,15.19002 18.445068,15.19002 4.66548,0 8.742009,-1.19348 12.306963,-3.37905 5.36306,-3.76643 6.74253,-10.32297 6.74253,-16.5695 0,-3.85948 -0.58895,-8.32348 -1.58095,-13.98096 -0.29453,-1.984 -0.89905,-4.96001 -1.488,-8.83506 9.71843,-3.17748 16.95697,-13.29896 16.95697,-23.51352 0,-14.973043 -10.61749,-25.094528 -25.094554,-25.094528 C 91.648155,79.065456 90.656154,73.2064 89.757202,67.657444 100.28174,56.636908 107.52017,44.236896 107.52017,28.473405 c 0,-9.036534 -2.77443,-16.368017 -4.37095,-19.9481484 C 100.77774,3.4720035 97.894686,0 96.112159,0 95.414683,0 92.34573,1.1933772 89.075202,5.0532531 82.720146,12.601389 80.937718,25.295926 80.937718,33.61941 c 0,5.362956 0.496001,10.23001 2.185478,21.343497 -0.108525,0.09305 -5.270006,5.34748 -7.347057,7.037056 -9.036435,8.432009 -21.529497,20.428971 -21.529497,40.284517 0,18.53807 16.166541,33.12356 34.627084,33.12356 2.867478,0 5.548956,-0.29453 7.827483,-0.69748 1.890953,9.53244 2.976003,16.47644 2.976003,21.73097 0,10.32306 -5.25453,15.77907 -15.26749,15.77907 -2.387052,0 -4.464005,-0.496 -4.665579,-0.496 -0.09295,-0.10853 -0.294426,-0.20158 -0.294426,-0.29453 0,-0.20147 0.201475,-0.31 0.496,-0.40305 4.66548,-0.69747 9.315485,-4.66548 9.315485,-11.00496 0,-5.36305 -4.061054,-11.02053 -11.501061,-11.02053 -6.944007,0 -11.408012,5.65748 -11.408012,12.19853"
     id="path240"
     style="stroke-width:0.992001" />
  <path
     class="Clef"
     d="m 79.449717,296.22041 c -7.548533,0 -13.593588,4.35558 -13.702014,4.35558 -5.75055,4.26243 -8.029058,9.33096 -8.928059,12.80298 -0.496,1.78251 -0.682,3.56501 -0.682,5.25451 0,2.38701 0.387505,4.55701 1.286506,6.44801 1.193496,2.68151 3.472003,4.55701 6.448006,5.54901 1.193546,0.403 2.479973,0.60447 3.766499,0.60447 2.185478,0 4.464005,-0.60447 6.355056,-1.68947 3.068954,-1.6895 4.960005,-5.2545 4.960005,-9.12951 0,-3.47201 -1.798002,-6.64951 -4.774005,-8.52502 -2.077051,-1.39497 -4.061053,-1.78254 -5.75053,-1.78254 -1.193477,0 -2.278527,0.186 -3.177479,0.496 -0.992001,0.38757 -2.666052,1.37954 -3.472053,2.07705 0.310001,-1.89105 1.488002,-4.75853 2.588478,-6.35506 1.085051,-1.58095 3.270528,-3.56495 4.960005,-4.464 2.480003,-1.37948 5.65758,-1.984 9.129584,-1.984 10.121485,0 15.08149,8.13758 15.08149,24.80007 0,9.23806 -3.472003,18.05754 -6.448006,23.9165 -3.286004,6.54106 -7.641483,12.80306 -11.516537,16.27507 -10.322961,9.42401 -20.041515,13.88801 -20.134515,13.88801 0,0 -1.193506,0.682 -1.193506,1.87548 0,0.20147 0.093,0.29452 0.093,0.496 0.31,0.992 1.193506,1.19347 1.798002,1.19347 0.093,0 0.387505,-0.0929 0.496,-0.0929 0.093,0 11.408061,-4.66548 20.429021,-11.71801 5.06853,-3.658 9.625485,-7.62601 13.593489,-11.90401 3.565053,-3.85948 6.649581,-8.02906 9.129583,-12.19854 4.355483,-7.44 6.835483,-15.17454 6.835483,-21.82402 0,-8.23051 -2.17,-15.08149 -6.24653,-19.93307 -4.665482,-5.56443 -11.702538,-8.43201 -20.924973,-8.43201 m 31.139503,12.58602 c 0,2.79005 2.18548,4.96005 4.77401,4.96005 2.57295,0 4.75853,-2.17 4.75853,-4.96005 0,-2.77443 -2.18558,-5.05296 -4.75853,-5.05296 -2.58853,0 -4.77401,2.27853 -4.77401,5.05296 m 0,24.50559 c 0,2.77453 2.18548,5.06853 4.77401,5.06853 2.57295,0 4.75853,-2.294 4.75853,-5.06853 0,-2.77452 -2.18558,-5.05302 -4.75853,-5.05302 -2.58853,0 -4.77401,2.2785 -4.77401,5.05302"
     id="path241"
     style="stroke-width:0.992001" />
  <path
     class="TimeSig"
     d="m 164.15719,73.314975 v 7.331582 h -8.23054 c -0.69747,0 -1.39495,0.604426 -1.39495,1.394952 v 1.891051 c 0,0.790427 0.69748,1.379477 1.39495,1.379477 h 30.05456 c 0.806,0 1.39495,-0.58905 1.39495,-1.379477 v -1.891051 c 0,-0.790526 -0.58895,-1.394952 -1.39495,-1.394952 h -8.92801 v -7.331582 h 8.92801 c 0.806,0 1.39495,-0.697476 1.39495,-1.488001 v -1.890973 c 0,-0.697505 -0.58895,-1.379506 -1.39495,-1.379506 H 177.0532 V 52.777479 c 0,-0.589 -0.29452,-1.085001 -0.682,-1.286506 l -1.19348,-0.604496 c -0.20157,-0.093 -0.29452,-0.093 -0.496,-0.093 -0.10852,0 -0.10852,0 -0.20157,0 -0.29443,0 -0.69748,0.093 -0.89895,0.294496 l -9.02106,8.230513 c -0.29443,0.31 -0.40295,0.6975 -0.40295,1.100501 v 8.137508 h -11.50103 c 0,0 11.11355,-11.904012 22.81599,-27.590077 0.40305,-0.496001 0.496,-0.992001 0.496,-1.379477 0,-0.496 -0.20148,-0.898951 -0.29443,-0.992001 l -2.18557,-2.185477 c -0.29443,-0.201476 -0.58895,-0.40305 -0.992,-0.40305 -0.58895,0 -13.99644,0 -14.78697,0 -0.69748,0 -1.19348,0.604525 -1.28653,1.193575 0,0 -0.496,7.346958 -3.069,15.375986 -2.5885,8.044513 -5.5645,13.004518 -8.1375,16.662522 0,0 -0.29451,0.496 -0.29451,1.100506 0,0.201495 0,0.387545 0.093,0.58902 0.29451,0.697476 0.992,1.782527 0.992,1.782527 0,0 0.20151,0.604426 1.08501,0.604426 h 17.06554"
     id="path242"
     style="stroke-width:0.992001" />
  <path
     class="TimeSig"
     d="m 164.15719,122.91498 v 7.33158 h -8.23054 c -0.69747,0 -1.39495,0.60442 -1.39495,1.39495 v 1.89105 c 0,0.79043 0.69748,1.37948 1.39495,1.37948 h 30.05456 c 0.806,0 1.39495,-0.58905 1.39495,-1.37948 v -1.89105 c 0,-0.79053 -0.58895,-1.39495 -1.39495,-1.39495 h -8.92801 v -7.33158 h 8.92801 c 0.806,0 1.39495,-0.69748 1.39495,-1.48801 V 119.536 c 0,-0.6975 -0.58895,-1.3795 -1.39495,-1.3795 h -8.92801 v -15.77902 c 0,-0.589 -0.29452,-1.085 -0.682,-1.28651 l -1.19348,-0.60449 c -0.20157,-0.093 -0.29452,-0.093 -0.496,-0.093 -0.10852,0 -0.10852,0 -0.20157,0 -0.29443,0 -0.69748,0.093 -0.89895,0.29449 l -9.02106,8.23052 c -0.29443,0.31 -0.40295,0.6975 -0.40295,1.1005 v 8.13751 h -11.50103 c 0,0 11.11355,-11.90402 22.81599,-27.590082 0.40305,-0.496001 0.496,-0.992001 0.496,-1.379477 0,-0.496 -0.20148,-0.898951 -0.29443,-0.992001 l -2.18557,-2.185477 c -0.29443,-0.201476 -0.58895,-0.40305 -0.992,-0.40305 -0.58895,0 -13.99644,0 -14.78697,0 -0.69748,0 -1.19348,0.604525 -1.28653,1.193575 0,0 -0.496,7.346958 -3.069,15.375982 -2.5885,8.04452 -5.5645,13.00452 -8.1375,16.66253 0,0 -0.29451,0.496 -0.29451,1.1005 0,0.2015 0,0.38755 0.093,0.58902 0.29451,0.69748 0.992,1.78253 0.992,1.78253 0,0 0.20151,0.60443 1.08501,0.60443 h 17.06554"
     id="path243"
     style="stroke-width:0.992001" />
  <path
     class="TimeSig"
     d="m 164.15719,333.71498 v 7.33158 h -8.23054 c -0.69747,0 -1.39495,0.60442 -1.39495,1.39495 v 1.89105 c 0,0.79043 0.69748,1.37948 1.39495,1.37948 h 30.05456 c 0.806,0 1.39495,-0.58905 1.39495,-1.37948 v -1.89105 c 0,-0.79053 -0.58895,-1.39495 -1.39495,-1.39495 h -8.92801 v -7.33158 h 8.92801 c 0.806,0 1.39495,-0.69748 1.39495,-1.48801 V 330.336 c 0,-0.6975 -0.58895,-1.3795 -1.39495,-1.3795 h -8.92801 v -15.77902 c 0,-0.589 -0.29452,-1.085 -0.682,-1.28651 l -1.19348,-0.60449 c -0.20157,-0.093 -0.29452,-0.093 -0.496,-0.093 -0.10852,0 -0.10852,0 -0.20157,0 -0.29443,0 -0.69748,0.093 -0.89895,0.29449 l -9.02106,8.23052 c -0.29443,0.31 -0.40295,0.6975 -0.40295,1.1005 v 8.13751 h -11.50103 c 0,0 11.11355,-11.90402 22.81599,-27.59008 0.40305,-0.496 0.496,-0.992 0.496,-1.37948 0,-0.496 -0.20148,-0.89895 -0.29443,-0.992 l -2.18557,-2.18548 c -0.29443,-0.20147 -0.58895,-0.40305 -0.992,-0.40305 -0.58895,0 -13.99644,0 -14.78697,0 -0.69748,0 -1.19348,0.60453 -1.28653,1.19358 0,0 -0.496,7.34696 -3.069,15.37598 -2.5885,8.04452 -5.5645,13.00452 -8.1375,16.66253 0,0 -0.29451,0.496 -0.29451,1.1005 0,0.2015 0,0.38755 0.093,0.58902 0.29451,0.69748 0.992,1.78253 0.992,1.78253 0,0 0.20151,0.60443 1.08501,0.60443 h 17.06554"
     id="path244"
     style="stroke-width:0.992001" />
  <path
     class="TimeSig"
     d="m 164.15719,383.31498 v 7.33158 h -8.23054 c -0.69747,0 -1.39495,0.60442 -1.39495,1.39495 v 1.89105 c 0,0.79043 0.69748,1.37948 1.39495,1.37948 h 30.05456 c 0.806,0 1.39495,-0.58905 1.39495,-1.37948 v -1.89105 c 0,-0.79053 -0.58895,-1.39495 -1.39495,-1.39495 h -8.92801 v -7.33158 h 8.92801 c 0.806,0 1.39495,-0.69748 1.39495,-1.48801 V 379.936 c 0,-0.6975 -0.58895,-1.3795 -1.39495,-1.3795 h -8.92801 v -15.77902 c 0,-0.589 -0.29452,-1.085 -0.682,-1.28651 l -1.19348,-0.60449 c -0.20157,-0.093 -0.29452,-0.093 -0.496,-0.093 -0.10852,0 -0.10852,0 -0.20157,0 -0.29443,0 -0.69748,0.093 -0.89895,0.29449 l -9.02106,8.23052 c -0.29443,0.31 -0.40295,0.6975 -0.40295,1.1005 v 8.13751 h -11.50103 c 0,0 11.11355,-11.90402 22.81599,-27.59008 0.40305,-0.496 0.496,-0.992 0.496,-1.37948 0,-0.496 -0.20148,-0.89895 -0.29443,-0.992 l -2.18557,-2.18548 c -0.29443,-0.20147 -0.58895,-0.40305 -0.992,-0.40305 -0.58895,0 -13.99644,0 -14.78697,0 -0.69748,0 -1.19348,0.60453 -1.28653,1.19358 0,0 -0.496,7.34696 -3.069,15.37598 -2.5885,8.04452 -5.5645,13.00452 -8.1375,16.66253 0,0 -0.29451,0.496 -0.29451,1.1005 0,0.2015 0,0.38755 0.093,0.58902 0.29451,0.69748 0.992,1.78253 0.992,1.78253 0,0 0.20151,0.60443 1.08501,0.60443 h 17.06554"
     id="path245"
     style="stroke-width:0.992001" />
  <path
     class="Rest"
     d="m 4453.1086,320.61749 c -0.806,0 -1.395,0.589 -1.395,1.395 v 10.71048 c 0,0.79053 0.589,1.37958 1.395,1.37958 h 29.4656 c 0.7905,0 1.3795,-0.58905 1.3795,-1.37958 v -10.71048 c 0,-0.806 -0.589,-1.395 -1.3795,-1.395 h -29.4656"
     id="path246"
     style="stroke-width:0.992001" />
  <path
     class="Rest"
     d="m 9559.9186,320.61749 c -0.806,0 -1.395,0.589 -1.395,1.395 v 10.71048 c 0,0.79053 0.589,1.37958 1.395,1.37958 h 29.4656 c 0.7905,0 1.3795,-0.58905 1.3795,-1.37958 v -10.71048 c 0,-0.806 -0.589,-1.395 -1.3795,-1.395 h -29.4656"
     id="path247"
     style="stroke-width:0.992001" />
  <path
     class="Rest"
     d="m 10127.379,320.61749 c -0.806,0 -1.395,0.589 -1.395,1.395 v 10.71048 c 0,0.79053 0.589,1.37958 1.395,1.37958 h 29.465 c 0.791,0 1.38,-0.58905 1.38,-1.37958 v -10.71048 c 0,-0.806 -0.589,-1.395 -1.38,-1.395 h -29.465"
     id="path248"
     style="stroke-width:0.992001" />
  <path
     class="Rest"
     d="m 12964.479,320.61749 c -0.806,0 -1.395,0.589 -1.395,1.395 v 10.71048 c 0,0.79053 0.589,1.37958 1.395,1.37958 h 29.465 c 0.791,0 1.38,-0.58905 1.38,-1.37958 v -10.71048 c 0,-0.806 -0.589,-1.395 -1.38,-1.395 h -29.465"
     id="path249"
     style="stroke-width:0.992001" />
  <path
     class="Rest"
     d="m 5020.5386,320.61749 c -0.806,0 -1.395,0.589 -1.395,1.395 v 10.71048 c 0,0.79053 0.589,1.37958 1.395,1.37958 h 29.4656 c 0.7905,0 1.3795,-0.58905 1.3795,-1.37958 v -10.71048 c 0,-0.806 -0.589,-1.395 -1.3795,-1.395 h -29.4656"
     id="path250"
     style="stroke-width:0.992001" />
  <path
     class="Rest"
     d="m 11262.179,320.61749 c -0.806,0 -1.395,0.589 -1.395,1.395 v 10.71048 c 0,0.79053 0.589,1.37958 1.395,1.37958 h 29.465 c 0.791,0 1.38,-0.58905 1.38,-1.37958 v -10.71048 c 0,-0.806 -0.589,-1.395 -1.38,-1.395 h -29.465"
     id="path251"
     style="stroke-width:0.992001" />
  <path
     class="Rest"
     d="m 8992.4886,320.61749 c -0.806,0 -1.395,0.589 -1.395,1.395 v 10.71048 c 0,0.79053 0.589,1.37958 1.395,1.37958 h 29.4656 c 0.7905,0 1.3795,-0.58905 1.3795,-1.37958 v -10.71048 c 0,-0.806 -0.589,-1.395 -1.3795,-1.395 h -29.4656"
     id="path252"
     style="stroke-width:0.992001" />
  <path
     class="Rest"
     d="m 2183.4186,320.61749 c -0.806,0 -1.395,0.589 -1.395,1.395 v 10.71048 c 0,0.79053 0.589,1.37958 1.395,1.37958 h 29.4656 c 0.7905,0 1.3795,-0.58905 1.3795,-1.37958 v -10.71048 c 0,-0.806 -0.589,-1.395 -1.3795,-1.395 h -29.4656"
     id="path253"
     style="stroke-width:0.992001" />
  <path
     class="Rest"
     d="m 7290.2286,320.61749 c -0.806,0 -1.395,0.589 -1.395,1.395 v 10.71048 c 0,0.79053 0.589,1.37958 1.395,1.37958 h 29.4656 c 0.7905,0 1.3795,-0.58905 1.3795,-1.37958 v -10.71048 c 0,-0.806 -0.589,-1.395 -1.3795,-1.395 h -29.4656"
     id="path254"
     style="stroke-width:0.992001" />
  <path
     class="Rest"
     d="m 7857.6486,320.61749 c -0.806,0 -1.395,0.589 -1.395,1.395 v 10.71048 c 0,0.79053 0.589,1.37958 1.395,1.37958 h 29.4656 c 0.7905,0 1.3795,-0.58905 1.3795,-1.37958 v -10.71048 c 0,-0.806 -0.589,-1.395 -1.3795,-1.395 h -29.4656"
     id="path255"
     style="stroke-width:0.992001" />
  <path
     class="Rest"
     d="m 11829.579,320.61749 c -0.806,0 -1.395,0.589 -1.395,1.395 v 10.71048 c 0,0.79053 0.589,1.37958 1.395,1.37958 h 29.465 c 0.791,0 1.38,-0.58905 1.38,-1.37958 v -10.71048 c 0,-0.806 -0.589,-1.395 -1.38,-1.395 h -29.465"
     id="path256"
     style="stroke-width:0.992001" />
  <path
     class="Rest"
     d="m 2750.8486,320.61749 c -0.806,0 -1.395,0.589 -1.395,1.395 v 10.71048 c 0,0.79053 0.589,1.37958 1.395,1.37958 h 29.4656 c 0.7905,0 1.3795,-0.58905 1.3795,-1.37958 v -10.71048 c 0,-0.806 -0.589,-1.395 -1.3795,-1.395 h -29.4656"
     id="path257"
     style="stroke-width:0.992001" />
  <path
     class="Rest"
     d="m 6722.7986,320.61749 c -0.806,0 -1.395,0.589 -1.395,1.395 v 10.71048 c 0,0.79053 0.589,1.37958 1.395,1.37958 h 29.4656 c 0.7905,0 1.3795,-0.58905 1.3795,-1.37958 v -10.71048 c 0,-0.806 -0.589,-1.395 -1.3795,-1.395 h -29.4656"
     id="path258"
     style="stroke-width:0.992001" />
  <path
     class="Rest"
     d="m 8425.0686,320.61749 c -0.806,0 -1.395,0.589 -1.395,1.395 v 10.71048 c 0,0.79053 0.589,1.37958 1.395,1.37958 h 29.4656 c 0.7905,0 1.3795,-0.58905 1.3795,-1.37958 v -10.71048 c 0,-0.806 -0.589,-1.395 -1.3795,-1.395 h -29.4656"
     id="path259"
     style="stroke-width:0.992001" />
  <path
     class="Rest"
     d="m 456.35464,320.61749 c -0.806,0 -1.395,0.589 -1.395,1.395 v 10.71048 c 0,0.79053 0.589,1.37958 1.395,1.37958 h 29.46556 c 0.79052,0 1.37947,-0.58905 1.37947,-1.37958 v -10.71048 c 0,-0.806 -0.58895,-1.395 -1.37947,-1.395 h -29.46556"
     id="path260"
     style="stroke-width:0.992001" />
  <path
     class="Rest"
     d="m 6155.3786,320.61749 c -0.806,0 -1.395,0.589 -1.395,1.395 v 10.71048 c 0,0.79053 0.589,1.37958 1.395,1.37958 h 29.4656 c 0.7905,0 1.3795,-0.58905 1.3795,-1.37958 v -10.71048 c 0,-0.806 -0.589,-1.395 -1.3795,-1.395 h -29.4656"
     id="path261"
     style="stroke-width:0.992001" />
  <path
     class="Rest"
     d="m 10694.779,320.61749 c -0.806,0 -1.395,0.589 -1.395,1.395 v 10.71048 c 0,0.79053 0.589,1.37958 1.395,1.37958 h 29.465 c 0.791,0 1.38,-0.58905 1.38,-1.37958 v -10.71048 c 0,-0.806 -0.589,-1.395 -1.38,-1.395 h -29.465"
     id="path262"
     style="stroke-width:0.992001" />
  <path
     class="Rest"
     d="m 12396.979,320.61749 c -0.806,0 -1.395,0.589 -1.395,1.395 v 10.71048 c 0,0.79053 0.589,1.37958 1.395,1.37958 h 29.465 c 0.791,0 1.38,-0.58905 1.38,-1.37958 v -10.71048 c 0,-0.806 -0.589,-1.395 -1.38,-1.395 h -29.465"
     id="path263"
     style="stroke-width:0.992001" />
  <path
     class="Rest"
     d="m 3885.6886,320.61749 c -0.806,0 -1.395,0.589 -1.395,1.395 v 10.71048 c 0,0.79053 0.589,1.37958 1.395,1.37958 h 29.4656 c 0.7905,0 1.3795,-0.58905 1.3795,-1.37958 v -10.71048 c 0,-0.806 -0.589,-1.395 -1.3795,-1.395 h -29.4656"
     id="path264"
     style="stroke-width:0.992001" />
  <path
     class="Rest"
     d="m 1615.9986,320.61749 c -0.806,0 -1.395,0.589 -1.395,1.395 v 10.71048 c 0,0.79053 0.589,1.37958 1.395,1.37958 h 29.4656 c 0.7905,0 1.3795,-0.58905 1.3795,-1.37958 v -10.71048 c 0,-0.806 -0.589,-1.395 -1.3795,-1.395 h -29.4656"
     id="path265"
     style="stroke-width:0.992001" />
  <path
     class="Rest"
     d="m 1048.5786,320.61749 c -0.806,0 -1.395,0.589 -1.395,1.395 v 10.71048 c 0,0.79053 0.589,1.37958 1.395,1.37958 h 29.4656 c 0.7905,0 1.3795,-0.58905 1.3795,-1.37958 v -10.71048 c 0,-0.806 -0.589,-1.395 -1.3795,-1.395 h -29.4656"
     id="path266"
     style="stroke-width:0.992001" />
  <path
     class="Rest"
     d="m 5587.9586,320.61749 c -0.806,0 -1.395,0.589 -1.395,1.395 v 10.71048 c 0,0.79053 0.589,1.37958 1.395,1.37958 h 29.4656 c 0.7905,0 1.3795,-0.58905 1.3795,-1.37958 v -10.71048 c 0,-0.806 -0.589,-1.395 -1.3795,-1.395 h -29.4656"
     id="path267"
     style="stroke-width:0.992001" />
  <path
     class="Rest"
     d="m 3318.2686,320.61749 c -0.806,0 -1.395,0.589 -1.395,1.395 v 10.71048 c 0,0.79053 0.589,1.37958 1.395,1.37958 h 29.4656 c 0.7905,0 1.3795,-0.58905 1.3795,-1.37958 v -10.71048 c 0,-0.806 -0.589,-1.395 -1.3795,-1.395 h -29.4656"
     id="path268"
     style="stroke-width:0.992001" />
  <path
     class="Rest"
     d="m 13556.679,320.61749 c -0.806,0 -1.395,0.589 -1.395,1.395 v 10.71048 c 0,0.79053 0.589,1.37958 1.395,1.37958 h 29.465 c 0.791,0 1.38,-0.58905 1.38,-1.37958 v -10.71048 c 0,-0.806 -0.589,-1.395 -1.38,-1.395 h -29.465"
     id="path269"
     style="stroke-width:0.992001" />
  <path
     class="NoteDot"
     d="m 6665.0936,122.71349 c 0,2.7745 2.1855,4.96 4.96,4.96 2.7746,0 4.9601,-2.1855 4.9601,-4.96 0,-2.77451 -2.1855,-4.96001 -4.9601,-4.96001 -2.7745,0 -4.96,2.1855 -4.96,4.96001"
     id="path270"
     style="stroke-width:0.992001" />
  <path
     class="NoteDot"
     d="m 12197.484,122.71349 c 0,2.7745 2.185,4.96 4.96,4.96 2.774,0 4.96,-2.1855 4.96,-4.96 0,-2.77451 -2.186,-4.96001 -4.96,-4.96001 -2.775,0 -4.96,2.1855 -4.96,4.96001"
     id="path271"
     style="stroke-width:0.992001" />
  <path
     class="NoteDot"
     d="m 9927.7836,122.71349 c 0,2.7745 2.1855,4.96 4.96,4.96 2.7746,0 4.9601,-2.1855 4.9601,-4.96 0,-2.77451 -2.1855,-4.96001 -4.9601,-4.96001 -2.7745,0 -4.96,2.1855 -4.96,4.96001"
     id="path272"
     style="stroke-width:0.992001" />
  <path
     class="NoteDot"
     d="m 8934.7836,122.71349 c 0,2.7745 2.1855,4.96 4.96,4.96 2.7746,0 4.9601,-2.1855 4.9601,-4.96 0,-2.77451 -2.1855,-4.96001 -4.9601,-4.96001 -2.7745,0 -4.96,2.1855 -4.96,4.96001"
     id="path273"
     style="stroke-width:0.992001" />
  <path
     class="NoteDot"
     d="m 3118.6936,122.71349 c 0,2.7745 2.1855,4.96 4.96,4.96 2.7746,0 4.9601,-2.1855 4.9601,-4.96 0,-2.77451 -2.1855,-4.96001 -4.9601,-4.96001 -2.7745,0 -4.96,2.1855 -4.96,4.96001"
     id="path274"
     style="stroke-width:0.992001" />
  <path
     class="NoteDot"
     d="m 849.00364,122.71349 c 0,2.7745 2.18551,4.96 4.96001,4.96 2.7745,0 4.96,-2.1855 4.96,-4.96 0,-2.77451 -2.1855,-4.96001 -4.96,-4.96001 -2.7745,0 -4.96001,2.1855 -4.96001,4.96001"
     id="path275"
     style="stroke-width:0.992001" />
  <path
     class="Bracket"
     d="m 3.3985167,215.71349 c 6.4615805,-6.85506 19.0475803,-20.84566 19.0475803,-46.748 0,-32.75741 -14.0468748,-65.85175 -14.0468748,-86.304003 0,-21.969402 12.5859998,-42.47775 13.3164198,-43.152 0,-0.393402 0,-0.393402 0,-0.730347 0,-0.393403 0,-0.730708 -0.337125,-1.067653 -0.393295,0 -1.12375,0 -1.460875,0.67425 -0.337125,0.393403 -19.77800025,19.778 -19.77800025,49.276348 0,31.633655 12.58600025,53.939995 12.58600025,95.293995 0,7.92235 -3.2588753,20.50835 -12.24887525,31.68975 -0.337125,0 -0.337125,0.67425 -0.337125,1.06766 -0.337125,0.33694 0,0.73034 0.337125,1.06765 8.98999995,11.12494 12.24887525,23.71094 12.24887525,31.63329 0,41.354 -12.58600025,63.66071 -12.58600025,95.294 0,29.16148 19.44087525,48.93949 19.77800025,49.27662 0.337125,0.73044 1.06758,1.06756 1.460875,0.73044 0.337125,-0.33713 0.67425,-0.73044 0.337125,-1.06757 0,0 0,-0.39331 0,-0.73043 -0.73042,-0.73046 -13.3164198,-21.23888 -13.3164198,-43.152 0,-20.50835 14.0468748,-53.60306 14.0468748,-86.304 0,-26.23966 -12.5859998,-39.94941 -19.0475803,-46.748"
     id="path276"
     style="stroke-width:3.596" />
</svg>
