<?xml version="1.0" encoding="UTF-8" standalone="no"?>
<svg
   width="296.10568mm"
   height="28.001974mm"
   viewBox="0 0 4196.7735 396.87839"
   version="1.2"
   id="svg266"
   sodipodi:docname="Brother John.svg"
   inkscape:version="1.4.2 (ebf0e94, 2025-05-08)"
   xmlns:inkscape="http://www.inkscape.org/namespaces/inkscape"
   xmlns:sodipodi="http://sodipodi.sourceforge.net/DTD/sodipodi-0.dtd"
   xmlns="http://www.w3.org/2000/svg"
   xmlns:svg="http://www.w3.org/2000/svg">
  <defs
     id="defs270" />
  <sodipodi:namedview
     id="namedview268"
     pagecolor="#ffffff"
     bordercolor="#666666"
     borderopacity="1.0"
     inkscape:showpageshadow="2"
     inkscape:pageopacity="0.0"
     inkscape:pagecheckerboard="0"
     inkscape:deskcolor="#d1d1d1"
     inkscape:document-units="mm"
     showgrid="false"
     inkscape:zoom="0.55083335"
     inkscape:cx="291.37669"
     inkscape:cy="16.33888"
     inkscape:window-width="1444"
     inkscape:window-height="1024"
     inkscape:window-x="0"
     inkscape:window-y="0"
     inkscape:window-maximized="0"
     inkscape:current-layer="svg266" />
  <title
     id="title2">TwoTigers.mid</title>
  <desc
     id="desc4">Generated by MuseScore Studio 4.5.2</desc>
  <polyline
     class="StaffLines"
     fill="none"
     stroke="#000000"
     stroke-width="2.73"
     stroke-linejoin="bevel"
     points="336.598,386.198 4502.19,386.198"
     id="polyline6"
     transform="translate(-305.41636,-350.28462)" />
  <polyline
     class="StaffLines"
     fill="none"
     stroke="#000000"
     stroke-width="2.73"
     stroke-linejoin="bevel"
     points="336.598,410.998 4502.19,410.998"
     id="polyline8"
     transform="translate(-305.41636,-350.28462)" />
  <polyline
     class="StaffLines"
     fill="none"
     stroke="#000000"
     stroke-width="2.73"
     stroke-linejoin="bevel"
     points="336.598,435.798 4502.19,435.798"
     id="polyline10"
     transform="translate(-305.41636,-350.28462)" />
  <polyline
     class="StaffLines"
     fill="none"
     stroke="#000000"
     stroke-width="2.73"
     stroke-linejoin="bevel"
     points="336.598,460.598 4502.19,460.598"
     id="polyline12"
     transform="translate(-305.41636,-350.28462)" />
  <polyline
     class="StaffLines"
     fill="none"
     stroke="#000000"
     stroke-width="2.73"
     stroke-linejoin="bevel"
     points="336.598,485.398 4502.19,485.398"
     id="polyline14"
     transform="translate(-305.41636,-350.28462)" />
  <polyline
     class="StaffLines"
     fill="none"
     stroke="#000000"
     stroke-width="2.73"
     stroke-linejoin="bevel"
     points="336.598,646.598 4502.19,646.598"
     id="polyline16"
     transform="translate(-305.41636,-350.28462)" />
  <polyline
     class="StaffLines"
     fill="none"
     stroke="#000000"
     stroke-width="2.73"
     stroke-linejoin="bevel"
     points="336.598,671.398 4502.19,671.398"
     id="polyline18"
     transform="translate(-305.41636,-350.28462)" />
  <polyline
     class="StaffLines"
     fill="none"
     stroke="#000000"
     stroke-width="2.73"
     stroke-linejoin="bevel"
     points="336.598,696.198 4502.19,696.198"
     id="polyline20"
     transform="translate(-305.41636,-350.28462)" />
  <polyline
     class="StaffLines"
     fill="none"
     stroke="#000000"
     stroke-width="2.73"
     stroke-linejoin="bevel"
     points="336.598,720.998 4502.19,720.998"
     id="polyline22"
     transform="translate(-305.41636,-350.28462)" />
  <polyline
     class="StaffLines"
     fill="none"
     stroke="#000000"
     stroke-width="2.73"
     stroke-linejoin="bevel"
     points="336.598,745.798 4502.19,745.798"
     id="polyline24"
     transform="translate(-305.41636,-350.28462)" />
  <polyline
     class="BarLine"
     fill="none"
     stroke="#000000"
     stroke-width="4.46"
     stroke-linejoin="bevel"
     points="2019.96,384.834 2019.96,646.598"
     id="polyline26"
     transform="translate(-327.91636,-350.28462)" />
  <polyline
     class="BarLine"
     fill="none"
     stroke="#000000"
     stroke-width="4.46"
     stroke-linejoin="bevel"
     points="4477.14,384.834 4477.14,646.598"
     id="polyline28"
     transform="translate(-305.41636,-350.28462)" />
  <polyline
     class="BarLine"
     fill="none"
     stroke="#000000"
     stroke-width="13.64"
     stroke-linejoin="bevel"
     points="4495.37,384.834 4495.37,646.598"
     id="polyline30"
     transform="translate(-305.41636,-350.28462)" />
  <polyline
     class="BarLine"
     fill="none"
     stroke="#000000"
     stroke-width="4.46"
     stroke-linejoin="bevel"
     points="1523.96,384.834 1523.96,646.598"
     id="polyline32"
     transform="translate(-327.91636,-350.28462)" />
  <polyline
     class="BarLine"
     fill="none"
     stroke="#000000"
     stroke-width="4.46"
     stroke-linejoin="bevel"
     points="3507.96,384.834 3507.96,646.598"
     id="polyline34"
     transform="translate(-327.91636,-350.28462)" />
  <polyline
     class="BarLine"
     fill="none"
     stroke="#000000"
     stroke-width="4.46"
     stroke-linejoin="bevel"
     points="1027.96,384.834 1027.96,646.598"
     id="polyline36"
     transform="translate(-327.91636,-350.28462)" />
  <polyline
     class="BarLine"
     fill="none"
     stroke="#000000"
     stroke-width="4.46"
     stroke-linejoin="bevel"
     points="3011.96,384.834 3011.96,646.598"
     id="polyline38"
     transform="translate(-327.91636,-350.28462)" />
  <polyline
     class="BarLine"
     fill="none"
     stroke="#000000"
     stroke-width="4.46"
     stroke-linejoin="bevel"
     points="4003.96,384.834 4003.96,646.598"
     id="polyline40"
     transform="translate(-327.91636,-350.28462)" />
  <polyline
     class="BarLine"
     fill="none"
     stroke="#000000"
     stroke-width="4.46"
     stroke-linejoin="bevel"
     points="2515.96,384.834 2515.96,646.598"
     id="polyline42"
     transform="translate(-327.91636,-350.28462)" />
  <polyline
     class="BarLine"
     fill="none"
     stroke="#000000"
     stroke-width="4.46"
     stroke-linejoin="bevel"
     points="338.83,384.834 338.83,646.598"
     id="polyline44"
     transform="translate(-305.41636,-350.28462)" />
  <polyline
     class="BarLine"
     fill="none"
     stroke="#000000"
     stroke-width="4.46"
     stroke-linejoin="bevel"
     points="4003.96,645.234 4003.96,747.162"
     id="polyline46"
     transform="translate(-327.91636,-350.28462)" />
  <polyline
     class="BarLine"
     fill="none"
     stroke="#000000"
     stroke-width="4.46"
     stroke-linejoin="bevel"
     points="1523.96,645.234 1523.96,747.162"
     id="polyline48"
     transform="translate(-327.91636,-350.28462)" />
  <polyline
     class="BarLine"
     fill="none"
     stroke="#000000"
     stroke-width="4.46"
     stroke-linejoin="bevel"
     points="2019.96,645.234 2019.96,747.162"
     id="polyline50"
     transform="translate(-327.91636,-350.28462)" />
  <polyline
     class="BarLine"
     fill="none"
     stroke="#000000"
     stroke-width="4.46"
     stroke-linejoin="bevel"
     points="4477.14,645.234 4477.14,747.162"
     id="polyline52"
     transform="translate(-305.41636,-350.28462)" />
  <polyline
     class="BarLine"
     fill="none"
     stroke="#000000"
     stroke-width="13.64"
     stroke-linejoin="bevel"
     points="4495.37,645.234 4495.37,747.162"
     id="polyline54"
     transform="translate(-305.41636,-350.28462)" />
  <polyline
     class="BarLine"
     fill="none"
     stroke="#000000"
     stroke-width="4.46"
     stroke-linejoin="bevel"
     points="338.83,645.234 338.83,747.162"
     id="polyline56"
     transform="translate(-305.41636,-350.28462)" />
  <polyline
     class="BarLine"
     fill="none"
     stroke="#000000"
     stroke-width="4.46"
     stroke-linejoin="bevel"
     points="3011.96,645.234 3011.96,747.162"
     id="polyline58"
     transform="translate(-327.91636,-350.28462)" />
  <polyline
     class="BarLine"
     fill="none"
     stroke="#000000"
     stroke-width="4.46"
     stroke-linejoin="bevel"
     points="1027.96,645.234 1027.96,747.162"
     id="polyline60"
     transform="translate(-327.91636,-350.28462)" />
  <polyline
     class="BarLine"
     fill="none"
     stroke="#000000"
     stroke-width="4.46"
     stroke-linejoin="bevel"
     points="2515.96,645.234 2515.96,747.162"
     id="polyline62"
     transform="translate(-327.91636,-350.28462)" />
  <polyline
     class="BarLine"
     fill="none"
     stroke="#000000"
     stroke-width="4.46"
     stroke-linejoin="bevel"
     points="3507.96,645.234 3507.96,747.162"
     id="polyline64"
     transform="translate(-327.91636,-350.28462)" />
  <polyline
     class="LedgerLine"
     fill="none"
     stroke="#000000"
     stroke-width="3.97"
     stroke-linejoin="bevel"
     points="3754.97,510.198 3803.56,510.198"
     id="polyline66"
     transform="translate(-305.41636,-350.28462)" />
  <polyline
     class="LedgerLine"
     fill="none"
     stroke="#000000"
     stroke-width="3.97"
     stroke-linejoin="bevel"
     points="534.192,510.198 582.785,510.198"
     id="polyline68"
     transform="translate(-305.41636,-350.28462)" />
  <polyline
     class="LedgerLine"
     fill="none"
     stroke="#000000"
     stroke-width="3.97"
     stroke-linejoin="bevel"
     points="2896.75,510.198 2945.34,510.198"
     id="polyline70"
     transform="translate(-305.41636,-350.28462)" />
  <polyline
     class="LedgerLine"
     fill="none"
     stroke="#000000"
     stroke-width="3.97"
     stroke-linejoin="bevel"
     points="3516.39,510.198 3564.98,510.198"
     id="polyline72"
     transform="translate(-305.41636,-350.28462)" />
  <polyline
     class="LedgerLine"
     fill="none"
     stroke="#000000"
     stroke-width="3.97"
     stroke-linejoin="bevel"
     points="896.706,510.198 945.299,510.198"
     id="polyline74"
     transform="translate(-305.41636,-350.28462)" />
  <polyline
     class="LedgerLine"
     fill="none"
     stroke="#000000"
     stroke-width="3.97"
     stroke-linejoin="bevel"
     points="1036.39,510.198 1084.98,510.198"
     id="polyline76"
     transform="translate(-305.41636,-350.28462)" />
  <polyline
     class="LedgerLine"
     fill="none"
     stroke="#000000"
     stroke-width="3.97"
     stroke-linejoin="bevel"
     points="3392.75,510.198 3441.34,510.198"
     id="polyline78"
     transform="translate(-305.41636,-350.28462)" />
  <polyline
     class="LedgerLine"
     fill="none"
     stroke="#000000"
     stroke-width="3.97"
     stroke-linejoin="bevel"
     points="4012.39,510.198 4060.98,510.198"
     id="polyline80"
     transform="translate(-305.41636,-350.28462)" />
  <polyline
     class="LedgerLine"
     fill="none"
     stroke="#000000"
     stroke-width="3.97"
     stroke-linejoin="bevel"
     points="1394.26,510.198 1442.85,510.198"
     id="polyline82"
     transform="translate(-305.41636,-350.28462)" />
  <polyline
     class="LedgerLine"
     fill="none"
     stroke="#000000"
     stroke-width="3.97"
     stroke-linejoin="bevel"
     points="4272.01,510.198 4320.61,510.198"
     id="polyline84"
     transform="translate(-305.41636,-350.28462)" />
  <polyline
     class="Stem"
     fill="none"
     stroke="#000000"
     stroke-width="2.48"
     stroke-linejoin="bevel"
     points="4051.56,506.23 4051.56,423.398"
     id="polyline86"
     transform="translate(-305.41636,-350.28462)" />
  <polyline
     class="Stem"
     fill="none"
     stroke="#000000"
     stroke-width="2.48"
     stroke-linejoin="bevel"
     points="2621.52,444.23 2621.52,379.998"
     id="polyline88"
     transform="translate(-305.41636,-350.28462)" />
  <polyline
     class="Stem"
     fill="none"
     stroke="#000000"
     stroke-width="2.48"
     stroke-linejoin="bevel"
     points="4311.18,506.23 4311.18,423.398"
     id="polyline90"
     transform="translate(-305.41636,-350.28462)" />
  <polyline
     class="Stem"
     fill="none"
     stroke="#000000"
     stroke-width="2.48"
     stroke-linejoin="bevel"
     points="2691.39,456.63 2691.39,379.998"
     id="polyline92"
     transform="translate(-305.41636,-350.28462)" />
  <polyline
     class="Stem"
     fill="none"
     stroke="#000000"
     stroke-width="2.48"
     stroke-linejoin="bevel"
     points="3257.25,469.03 3257.25,379.998"
     id="polyline94"
     transform="translate(-305.41636,-350.28462)" />
  <polyline
     class="Stem"
     fill="none"
     stroke="#000000"
     stroke-width="2.48"
     stroke-linejoin="bevel"
     points="2551.66,456.63 2551.66,379.998"
     id="polyline96"
     transform="translate(-305.41636,-350.28462)" />
  <polyline
     class="Stem"
     fill="none"
     stroke="#000000"
     stroke-width="2.48"
     stroke-linejoin="bevel"
     points="3794.14,506.23 3794.14,423.398"
     id="polyline98"
     transform="translate(-305.41636,-350.28462)" />
  <polyline
     class="Stem"
     fill="none"
     stroke="#000000"
     stroke-width="2.48"
     stroke-linejoin="bevel"
     points="2761.25,469.03 2761.25,379.998"
     id="polyline100"
     transform="translate(-305.41636,-350.28462)" />
  <polyline
     class="Stem"
     fill="none"
     stroke="#000000"
     stroke-width="2.48"
     stroke-linejoin="bevel"
     points="2831.12,481.43 2831.12,398.598"
     id="polyline102"
     transform="translate(-305.41636,-350.28462)" />
  <polyline
     class="Stem"
     fill="none"
     stroke="#000000"
     stroke-width="2.48"
     stroke-linejoin="bevel"
     points="2935.92,506.23 2935.92,423.398"
     id="polyline104"
     transform="translate(-305.41636,-350.28462)" />
  <polyline
     class="Stem"
     fill="none"
     stroke="#000000"
     stroke-width="2.48"
     stroke-linejoin="bevel"
     points="3555.56,506.23 3555.56,423.398"
     id="polyline106"
     transform="translate(-305.41636,-350.28462)" />
  <polyline
     class="Stem"
     fill="none"
     stroke="#000000"
     stroke-width="2.48"
     stroke-linejoin="bevel"
     points="3431.92,506.23 3431.92,423.398"
     id="polyline108"
     transform="translate(-305.41636,-350.28462)" />
  <polyline
     class="Stem"
     fill="none"
     stroke="#000000"
     stroke-width="2.48"
     stroke-linejoin="bevel"
     points="3047.66,456.63 3047.66,379.998"
     id="polyline110"
     transform="translate(-305.41636,-350.28462)" />
  <polyline
     class="Stem"
     fill="none"
     stroke="#000000"
     stroke-width="2.48"
     stroke-linejoin="bevel"
     points="3327.12,481.43 3327.12,398.598"
     id="polyline112"
     transform="translate(-305.41636,-350.28462)" />
  <polyline
     class="Stem"
     fill="none"
     stroke="#000000"
     stroke-width="2.48"
     stroke-linejoin="bevel"
     points="3117.52,444.23 3117.52,379.998"
     id="polyline114"
     transform="translate(-305.41636,-350.28462)" />
  <polyline
     class="Stem"
     fill="none"
     stroke="#000000"
     stroke-width="2.48"
     stroke-linejoin="bevel"
     points="3187.39,456.63 3187.39,379.998"
     id="polyline116"
     transform="translate(-305.41636,-350.28462)" />
  <polyline
     class="Stem"
     fill="none"
     stroke="#000000"
     stroke-width="2.48"
     stroke-linejoin="bevel"
     points="935.875,506.23 935.875,423.398"
     id="polyline118"
     transform="translate(-305.41636,-350.28462)" />
  <polyline
     class="Stem"
     fill="none"
     stroke="#000000"
     stroke-width="2.48"
     stroke-linejoin="bevel"
     points="1314.14,481.43 1314.14,398.598"
     id="polyline120"
     transform="translate(-305.41636,-350.28462)" />
  <polyline
     class="Stem"
     fill="none"
     stroke="#000000"
     stroke-width="2.48"
     stroke-linejoin="bevel"
     points="1433.42,506.23 1433.42,423.398"
     id="polyline122"
     transform="translate(-305.41636,-350.28462)" />
  <polyline
     class="Stem"
     fill="none"
     stroke="#000000"
     stroke-width="2.48"
     stroke-linejoin="bevel"
     points="1194.85,493.83 1194.85,410.998"
     id="polyline124"
     transform="translate(-305.41636,-350.28462)" />
  <polyline
     class="Stem"
     fill="none"
     stroke="#000000"
     stroke-width="2.48"
     stroke-linejoin="bevel"
     points="1559.66,481.43 1559.66,398.598"
     id="polyline126"
     transform="translate(-305.41636,-350.28462)" />
  <polyline
     class="Stem"
     fill="none"
     stroke="#000000"
     stroke-width="2.48"
     stroke-linejoin="bevel"
     points="1681.92,469.03 1681.92,386.198"
     id="polyline128"
     transform="translate(-305.41636,-350.28462)" />
  <polyline
     class="Stem"
     fill="none"
     stroke="#000000"
     stroke-width="2.48"
     stroke-linejoin="bevel"
     points="1075.56,506.23 1075.56,423.398"
     id="polyline130"
     transform="translate(-305.41636,-350.28462)" />
  <polyline
     class="Stem"
     fill="none"
     stroke="#000000"
     stroke-width="2.48"
     stroke-linejoin="bevel"
     points="1804.18,456.63 1804.18,373.798"
     id="polyline132"
     transform="translate(-305.41636,-350.28462)" />
  <polyline
     class="Stem"
     fill="none"
     stroke="#000000"
     stroke-width="2.48"
     stroke-linejoin="bevel"
     points="815.037,481.43 815.037,398.598"
     id="polyline134"
     transform="translate(-305.41636,-350.28462)" />
  <polyline
     class="Stem"
     fill="none"
     stroke="#000000"
     stroke-width="2.48"
     stroke-linejoin="bevel"
     points="2055.66,481.43 2055.66,398.598"
     id="polyline136"
     transform="translate(-305.41636,-350.28462)" />
  <polyline
     class="Stem"
     fill="none"
     stroke="#000000"
     stroke-width="2.48"
     stroke-linejoin="bevel"
     points="694.199,493.83 694.199,410.998"
     id="polyline138"
     transform="translate(-305.41636,-350.28462)" />
  <polyline
     class="Stem"
     fill="none"
     stroke="#000000"
     stroke-width="2.48"
     stroke-linejoin="bevel"
     points="2300.18,456.63 2300.18,373.798"
     id="polyline140"
     transform="translate(-305.41636,-350.28462)" />
  <polyline
     class="Stem"
     fill="none"
     stroke="#000000"
     stroke-width="2.48"
     stroke-linejoin="bevel"
     points="573.361,506.23 573.361,423.398"
     id="polyline142"
     transform="translate(-305.41636,-350.28462)" />
  <polyline
     class="Stem"
     fill="none"
     stroke="#000000"
     stroke-width="2.48"
     stroke-linejoin="bevel"
     points="2177.92,469.03 2177.92,386.198"
     id="polyline144"
     transform="translate(-305.41636,-350.28462)" />
  <polyline
     class="Stem"
     fill="none"
     stroke="#000000"
     stroke-width="2.48"
     stroke-linejoin="bevel"
     points="3645.1,663.165 3645.1,745.798"
     id="polyline146"
     transform="translate(-305.41636,-350.28462)" />
  <polyline
     class="Stem"
     fill="none"
     stroke="#000000"
     stroke-width="2.48"
     stroke-linejoin="bevel"
     points="4151.63,663.165 4151.63,745.798"
     id="polyline148"
     transform="translate(-305.41636,-350.28462)" />
  <path
     class="Note"
     d="m 3995.9102,146.8159 c -9.6255,0 -21.1266,8.04448 -21.1266,17.26698 0,4.2625 3.069,9.02102 11.1135,9.02102 10.3076,0 21.1265,-8.43202 21.1265,-17.15852 0,-5.859 -4.96,-9.12948 -11.1134,-9.12948 m -2.6815,17.46848 c -0.2945,0.186 -7.5331,4.154 -11.0051,4.154 -3.2705,0 -3.968,-2.666 -3.968,-3.565 0,-4.1695 9.92,-9.021 10.3231,-9.2225 0.3875,-0.2015 7.44,-4.1695 11.0049,-4.1695 2.3871,0 3.968,1.395 3.968,3.565 0,4.278 -10.0129,9.0365 -10.3229,9.238"
     id="path150"
     style="stroke-width:0.992" />
  <path
     class="Note"
     d="m 3219.1636,164.08288 c 0,4.2625 3.069,9.02102 11.1135,9.02102 10.3076,0 21.1265,-8.43202 21.1265,-17.15852 0,-5.859 -4.96,-9.12948 -11.1134,-9.12948 -9.6255,0 -21.1266,8.13748 -21.1266,17.26698"
     id="path152"
     style="stroke-width:0.992" />
  <path
     class="Note"
     d="m 2850.9836,114.48288 c 0,4.2625 3.069,9.02102 11.1135,9.02102 10.3076,0 21.1265,-8.43202 21.1265,-17.15852 0,-5.859 -4.96,-9.129484 -11.1134,-9.129484 -9.6255,0 -21.1266,8.137484 -21.1266,17.266984"
     id="path154"
     style="stroke-width:0.992" />
  <path
     class="Note"
     d="m 858.44364,151.68288 c 0,4.2625 3.069,9.02102 11.11348,9.02102 10.30757,0 21.12652,-8.43202 21.12652,-17.15852 0,-5.859 -4.96,-9.12948 -11.11347,-9.12948 -9.62548,0 -21.12653,8.13748 -21.12653,17.26698"
     id="path156"
     style="stroke-width:0.992" />
  <path
     class="Note"
     d="m 2920.8536,126.88288 c 0,4.2625 3.069,9.02102 11.1135,9.02102 10.3076,0 21.1265,-8.43202 21.1265,-17.15852 0,-5.859 -4.96,-9.12948 -11.1134,-9.12948 -9.6255,0 -21.1266,8.13748 -21.1266,17.26698"
     id="path158"
     style="stroke-width:0.992" />
  <path
     class="Note"
     d="m 2990.7136,139.28288 c 0,4.2625 3.069,9.02102 11.1135,9.02102 10.3076,0 21.1265,-8.43202 21.1265,-17.15852 0,-5.859 -4.96,-9.12948 -11.1134,-9.12948 -9.6255,0 -21.1266,8.13748 -21.1266,17.26698"
     id="path160"
     style="stroke-width:0.992" />
  <path
     class="Note"
     d="m 739.16364,164.08288 c 0,4.2625 3.069,9.02102 11.11348,9.02102 10.30757,0 21.12652,-8.43202 21.12652,-17.15852 0,-5.859 -4.96,-9.12948 -11.11347,-9.12948 -9.62548,0 -21.12653,8.13748 -21.12653,17.26698"
     id="path162"
     style="stroke-width:0.992" />
  <path
     class="Note"
     d="m 3715.1636,164.08288 c 0,4.2625 3.069,9.02102 11.1135,9.02102 10.3076,0 21.1265,-8.43202 21.1265,-17.15852 0,-5.859 -4.96,-9.12948 -11.1134,-9.12948 -9.6255,0 -21.1266,8.13748 -21.1266,17.26698"
     id="path164"
     style="stroke-width:0.992" />
  <path
     class="Note"
     d="m 3095.5136,164.08288 c 0,4.2625 3.069,9.02102 11.1135,9.02102 10.3076,0 21.1265,-8.43202 21.1265,-17.15852 0,-5.859 -4.96,-9.12948 -11.1134,-9.12948 -9.6255,0 -21.1266,8.13748 -21.1266,17.26698"
     id="path166"
     style="stroke-width:0.992" />
  <path
     class="Note"
     d="m 3457.7336,164.08288 c 0,4.2625 3.069,9.02102 11.1135,9.02102 10.3076,0 21.1265,-8.43202 21.1265,-17.15852 0,-5.859 -4.96,-9.12948 -11.1134,-9.12948 -9.6255,0 -21.1266,8.13748 -21.1266,17.26698"
     id="path168"
     style="stroke-width:0.992" />
  <path
     class="Note"
     d="m 599.47364,164.08288 c 0,4.2625 3.069,9.02102 11.11348,9.02102 10.30757,0 21.12652,-8.43202 21.12652,-17.15852 0,-5.859 -4.96,-9.12948 -11.11347,-9.12948 -9.62548,0 -21.12653,8.13748 -21.12653,17.26698"
     id="path170"
     style="stroke-width:0.992" />
  <path
     class="Note"
     d="m 1963.7836,114.48288 c 0,4.2625 3.069,9.02102 11.1135,9.02102 10.3076,0 21.1265,-8.43202 21.1265,-17.15852 0,-5.859 -4.96,-9.129484 -11.1134,-9.129484 -9.6255,0 -21.1266,8.137484 -21.1266,17.266984"
     id="path172"
     style="stroke-width:0.992" />
  <path
     class="Note"
     d="m 478.63564,139.28288 c 0,4.2625 3.069,9.02102 11.11348,9.02102 10.30757,0 21.12652,-8.43202 21.12652,-17.15852 0,-5.859 -4.96,-9.12948 -11.11347,-9.12948 -9.62548,0 -21.12653,8.13748 -21.12653,17.26698"
     id="path174"
     style="stroke-width:0.992" />
  <path
     class="Note"
     d="m 357.79764,151.68288 c 0,4.2625 3.069,9.02102 11.11348,9.02102 10.30757,0 21.12652,-8.43202 21.12652,-17.15852 0,-5.859 -4.96,-9.12948 -11.11347,-9.12948 -9.62548,0 -21.12653,8.13748 -21.12653,17.26698"
     id="path176"
     style="stroke-width:0.992" />
  <path
     class="Note"
     d="m 977.73364,139.28288 c 0,4.2625 3.069,9.02102 11.11348,9.02102 10.30757,0 21.12648,-8.43202 21.12648,-17.15852 0,-5.859 -4.96,-9.12948 -11.11343,-9.12948 -9.62548,0 -21.12653,8.13748 -21.12653,17.26698"
     id="path178"
     style="stroke-width:0.992" />
  <path
     class="Note"
     d="m 2215.2536,114.48288 c 0,4.2625 3.069,9.02102 11.1135,9.02102 10.3076,0 21.1265,-8.43202 21.1265,-17.15852 0,-5.859 -4.96,-9.129484 -11.1134,-9.129484 -9.6255,0 -21.1266,8.137484 -21.1266,17.266984"
     id="path180"
     style="stroke-width:0.992" />
  <path
     class="Note"
     d="m 1841.5236,126.88288 c 0,4.2625 3.069,9.02102 11.1135,9.02102 10.3076,0 21.1265,-8.43202 21.1265,-17.15852 0,-5.859 -4.96,-9.12948 -11.1134,-9.12948 -9.6255,0 -21.1266,8.13748 -21.1266,17.26698"
     id="path182"
     style="stroke-width:0.992" />
  <path
     class="Note"
     d="m 1719.2536,139.28288 c 0,4.2625 3.069,9.02102 11.1135,9.02102 10.3076,0 21.1265,-8.43202 21.1265,-17.15852 0,-5.859 -4.96,-9.12948 -11.1134,-9.12948 -9.6255,0 -21.1266,8.13748 -21.1266,17.26698"
     id="path184"
     style="stroke-width:0.992" />
  <path
     class="Note"
     d="m 2285.1236,102.08288 c 0,4.2625 3.069,9.02102 11.1135,9.02102 10.3076,0 21.1265,-8.43202 21.1265,-17.158524 0,-5.859 -4.96,-9.12948 -11.1134,-9.12948 -9.6255,0 -21.1266,8.13748 -21.1266,17.266984"
     id="path186"
     style="stroke-width:0.992" />
  <path
     class="Note"
     d="m 2354.9836,114.48288 c 0,4.2625 3.069,9.02102 11.1135,9.02102 10.3076,0 21.1265,-8.43202 21.1265,-17.15852 0,-5.859 -4.96,-9.129484 -11.1134,-9.129484 -9.6255,0 -21.1266,8.137484 -21.1266,17.266984"
     id="path188"
     style="stroke-width:0.992" />
  <path
     class="Note"
     d="m 2424.8536,126.88288 c 0,4.2625 3.069,9.02102 11.1135,9.02102 10.3076,0 21.1265,-8.43202 21.1265,-17.15852 0,-5.859 -4.96,-9.12948 -11.1134,-9.12948 -9.6255,0 -21.1266,8.13748 -21.1266,17.26698"
     id="path190"
     style="stroke-width:0.992" />
  <path
     class="Note"
     d="m 1467.7836,114.48288 c 0,4.2625 3.069,9.02102 11.1135,9.02102 10.3076,0 21.1265,-8.43202 21.1265,-17.15852 0,-5.859 -4.96,-9.129484 -11.1134,-9.129484 -9.6255,0 -21.1266,8.137484 -21.1266,17.266984"
     id="path192"
     style="stroke-width:0.992" />
  <path
     class="Note"
     d="m 2494.7136,139.28288 c 0,4.2625 3.069,9.02102 11.1135,9.02102 10.3076,0 21.1265,-8.43202 21.1265,-17.15852 0,-5.859 -4.96,-9.12948 -11.1134,-9.12948 -9.6255,0 -21.1266,8.13748 -21.1266,17.26698"
     id="path194"
     style="stroke-width:0.992" />
  <path
     class="Note"
     d="m 2599.5136,164.08288 c 0,4.2625 3.069,9.02102 11.1135,9.02102 10.3076,0 21.1265,-8.43202 21.1265,-17.15852 0,-5.859 -4.96,-9.12948 -11.1134,-9.12948 -9.6255,0 -21.1266,8.13748 -21.1266,17.26698"
     id="path196"
     style="stroke-width:0.992" />
  <path
     class="Note"
     d="m 2781.1236,102.08288 c 0,4.2625 3.069,9.02102 11.1135,9.02102 10.3076,0 21.1265,-8.43202 21.1265,-17.158524 0,-5.859 -4.96,-9.12948 -11.1134,-9.12948 -9.6255,0 -21.1266,8.13748 -21.1266,17.266984"
     id="path198"
     style="stroke-width:0.992" />
  <path
     class="Note"
     d="m 1345.5236,126.88288 c 0,4.2625 3.069,9.02102 11.1135,9.02102 10.3076,0 21.1265,-8.43202 21.1265,-17.15852 0,-5.859 -4.96,-9.12948 -11.1134,-9.12948 -9.6255,0 -21.1266,8.13748 -21.1266,17.26698"
     id="path200"
     style="stroke-width:0.992" />
  <path
     class="Note"
     d="m 1223.2536,139.28288 c 0,4.2625 3.069,9.02102 11.1135,9.02102 10.3076,0 21.1265,-8.43202 21.1265,-17.15852 0,-5.859 -4.96,-9.12948 -11.1134,-9.12948 -9.6255,0 -21.1266,8.13748 -21.1266,17.26698"
     id="path202"
     style="stroke-width:0.992" />
  <path
     class="Note"
     d="m 1097.0236,164.08288 c 0,4.2625 3.069,9.02102 11.1135,9.02102 10.3076,0 21.1265,-8.43202 21.1265,-17.15852 0,-5.859 -4.96,-9.12948 -11.1134,-9.12948 -9.6255,0 -21.1266,8.13748 -21.1266,17.26698"
     id="path204"
     style="stroke-width:0.992" />
  <path
     class="Note"
     d="m 2711.2536,114.48288 c 0,4.2625 3.069,9.02102 11.1135,9.02102 10.3076,0 21.1265,-8.43202 21.1265,-17.15852 0,-5.859 -4.96,-9.129484 -11.1134,-9.129484 -9.6255,0 -21.1266,8.137484 -21.1266,17.266984"
     id="path206"
     style="stroke-width:0.992" />
  <path
     class="Note"
     d="m 3844.9736,312.88288 c 0,4.2625 3.069,9.02102 11.1135,9.02102 10.3076,0 21.1265,-8.43202 21.1265,-17.15852 0,-5.859 -4.96,-9.12948 -11.1134,-9.12948 -9.6255,0 -21.1266,8.13748 -21.1266,17.26698"
     id="path208"
     style="stroke-width:0.992" />
  <path
     class="Note"
     d="m 3338.4436,312.88288 c 0,4.2625 3.069,9.02102 11.1135,9.02102 10.3076,0 21.1265,-8.43202 21.1265,-17.15852 0,-5.859 -4.96,-9.12948 -11.1134,-9.12948 -9.6255,0 -21.1266,8.13748 -21.1266,17.26698"
     id="path210"
     style="stroke-width:0.992" />
  <path
     class="Note"
     d="m 236.95964,164.08288 c 0,4.2625 3.069,9.02102 11.11348,9.02102 10.30757,0 21.12652,-8.43202 21.12652,-17.15852 0,-5.859 -4.96,-9.12948 -11.11347,-9.12948 -9.62548,0 -21.12653,8.13748 -21.12653,17.26698"
     id="path212"
     style="stroke-width:0.992" />
  <path
     class="Clef"
     d="m 109.99912,112.39038 c 0,7.0525 -2.88295,14.291 -9.92,17.17405 -2.076953,-11.90405 -4.758429,-27.68305 -5.456003,-32.054104 8.928003,0 15.376003,6.060554 15.376003,14.880054 m -14.089478,18.35205 c -1.984,0.40295 -3.859475,0.60443 -5.750525,0.60443 -14.182426,0 -26.28797,-9.92 -26.28797,-24.90848 0,-12.090054 8.52502,-22.909004 17.26702,-30.457524 1.674,-1.488 3.270524,-2.86748 4.758524,-4.35548 0.883476,5.34748 1.580951,10.01295 2.278426,14.08948 -9.036426,2.68147 -15.174426,12.19852 -15.174426,21.529524 0,6.944 5.456,16.461 13.392,16.461 0.790426,0 1.689476,-0.40295 1.689476,-1.28652 0,-0.89896 -0.992,-1.39496 -2.185476,-2.18548 -3.875049,-2.387 -6.060524,-4.96 -6.060524,-9.827 0,-6.045 4.464,-10.912054 10.32295,-12.291524 l 5.750525,32.627574 M 87.183117,28.767901 c 0.89905,-3.968 5.456,-14.384 10.617574,-14.384 1.488,0 3.859479,4.851475 3.859479,11.702425 0,10.32305 -7.626003,18.05757 -14.477053,24.8 -0.58895,-3.968 -1.08495,-7.82747 -1.08495,-11.99695 0,-3.67348 0.294524,-7.05252 1.08495,-10.121475 m -20.832,132.431999 c 0,6.55653 5.05305,15.19 18.44505,15.19 4.665475,0 8.742,-1.19347 12.30695,-3.37904 5.363053,-3.76643 6.742523,-10.32296 6.742523,-16.56948 0,-3.85948 -0.58895,-8.32348 -1.58095,-13.98095 -0.29452,-1.984 -0.89905,-4.96 -1.488,-8.83505 9.71843,-3.17748 16.95695,-13.29895 16.95695,-23.5135 0,-14.973024 -10.61747,-25.094504 -25.094523,-25.094504 -0.992,-5.952 -1.984,-11.81105 -2.88295,-17.36 10.524523,-11.02052 17.762953,-23.42052 17.762953,-39.184 0,-9.036525 -2.77443,-16.368 -4.37095,-19.948128 C 100.77669,3.472 97.893642,0 96.111117,0 c -0.697475,0 -3.766426,1.193376 -7.03695,5.053248 -6.35505,7.548128 -8.137476,20.242653 -8.137476,28.566128 0,5.36295 0.496,10.23 2.185476,21.34348 -0.108525,0.093 -5.27,5.34747 -7.34705,7.03704 -9.036426,8.432 -21.529475,20.42896 -21.529475,40.284484 0,18.53805 16.166525,33.12352 34.627049,33.12352 2.867476,0 5.548951,-0.29452 7.827476,-0.69747 1.89095,9.53243 2.976,16.47643 2.976,21.73095 0,10.32305 -5.254525,15.77905 -15.267476,15.77905 -2.387049,0 -4.464,-0.496 -4.665574,-0.496 -0.09295,-0.10853 -0.294426,-0.20157 -0.294426,-0.29453 0,-0.20147 0.201476,-0.31 0.496,-0.40304 4.665476,-0.69748 9.315476,-4.66548 9.315476,-11.00496 0,-5.36304 -4.06105,-11.02052 -11.50105,-11.02052 -6.944,0 -11.408,5.65748 -11.408,12.19852"
     id="path214"
     style="stroke-width:0.992" />
  <path
     class="Clef"
     d="m 79.448691,296.22033 c -7.548524,0 -13.593574,4.35557 -13.702,4.35557 -5.750544,4.26243 -8.029049,9.33096 -8.928049,12.80298 -0.496,1.7825 -0.682,3.565 -0.682,5.2545 0,2.387 0.387505,4.557 1.286505,6.448 1.193495,2.6815 3.472,4.557 6.448,5.549 1.193544,0.403 2.47997,0.60448 3.766495,0.60448 2.185475,0 4.464,-0.60448 6.355049,-1.68948 3.068951,-1.6895 4.96,-5.2545 4.96,-9.1295 0,-3.472 -1.798,-6.6495 -4.774,-8.525 -2.077049,-1.39498 -4.061049,-1.78255 -5.750524,-1.78255 -1.193476,0 -2.278525,0.186 -3.177476,0.496 -0.992,0.38757 -2.666049,1.37955 -3.472049,2.07705 0.31,-1.89105 1.488,-4.75852 2.588475,-6.35505 1.08505,-1.58095 3.270525,-3.56495 4.96,-4.464 2.48,-1.37947 5.657574,-1.984 9.129574,-1.984 10.121476,0 15.081476,8.13757 15.081476,24.80005 0,9.23805 -3.472,18.05752 -6.448,23.91648 -3.286,6.54104 -7.641476,12.80304 -11.516525,16.27504 -10.322951,9.424 -20.041495,13.888 -20.134495,13.888 0,0 -1.193505,0.682 -1.193505,1.87548 0,0.20148 0.093,0.29452 0.093,0.496 0.31,0.992 1.193505,1.19348 1.798,1.19348 0.093,0 0.387505,-0.093 0.496,-0.093 0.093,0 11.408049,-4.66547 20.429,-11.718 5.068525,-3.658 9.625475,-7.626 13.593475,-11.904 3.56505,-3.85947 6.649574,-8.02904 9.129574,-12.19852 4.355479,-7.44 6.835479,-15.17452 6.835479,-21.824 0,-8.2305 -2.17,-15.08148 -6.24653,-19.93305 -4.665473,-5.56443 -11.702523,-8.432 -20.924949,-8.432 m 31.139479,12.586 c 0,2.79005 2.18547,4.96005 4.774,4.96005 2.57295,0 4.75852,-2.17 4.75852,-4.96005 0,-2.77443 -2.18557,-5.05295 -4.75852,-5.05295 -2.58853,0 -4.774,2.27852 -4.774,5.05295 m 0,24.50557 c 0,2.77453 2.18547,5.06853 4.774,5.06853 2.57295,0 4.75852,-2.294 4.75852,-5.06853 0,-2.77452 -2.18557,-5.05302 -4.75852,-5.05302 -2.58853,0 -4.774,2.2785 -4.774,5.05302"
     id="path216"
     style="stroke-width:0.992" />
  <path
     class="TimeSig"
     d="m 164.15617,73.314856 v 7.33157 h -8.23053 c -0.69747,0 -1.39495,0.60443 -1.39495,1.39495 v 1.89105 c 0,0.79043 0.69748,1.37947 1.39495,1.37947 h 30.05453 c 0.806,0 1.39495,-0.58904 1.39495,-1.37947 v -1.89105 c 0,-0.79052 -0.58895,-1.39495 -1.39495,-1.39495 h -8.928 v -7.33157 h 8.928 c 0.806,0 1.39495,-0.69748 1.39495,-1.488 v -1.89098 c 0,-0.6975 -0.58895,-1.3795 -1.39495,-1.3795 h -8.928 v -15.779 c 0,-0.589 -0.29453,-1.085 -0.682,-1.2865 l -1.19348,-0.6045 c -0.20157,-0.093 -0.29452,-0.093 -0.496,-0.093 -0.10852,0 -0.10852,0 -0.20157,0 -0.29443,0 -0.69748,0.093 -0.89895,0.2945 l -9.02105,8.2305 c -0.29443,0.31 -0.40295,0.6975 -0.40295,1.1005 v 8.1375 h -11.50102 c 0,0 11.11354,-11.904 22.81597,-27.59005 0.40305,-0.496 0.496,-0.992 0.496,-1.37947 0,-0.496 -0.20148,-0.89896 -0.29443,-0.992 l -2.18557,-2.18548 c -0.29443,-0.20148 -0.58895,-0.40305 -0.992,-0.40305 -0.58895,0 -13.99643,0 -14.78695,0 -0.69748,0 -1.19348,0.60453 -1.28653,1.19357 0,0 -0.496,7.34696 -3.069,15.37598 -2.58849,8.0445 -5.56449,13.0045 -8.13749,16.6625 0,0 -0.29451,0.496 -0.29451,1.1005 0,0.2015 0,0.38755 0.093,0.58902 0.29451,0.69748 0.992,1.78253 0.992,1.78253 0,0 0.20151,0.60443 1.085,0.60443 h 17.06553"
     id="path218"
     style="stroke-width:0.992" />
  <path
     class="TimeSig"
     d="m 164.15617,122.91486 v 7.33157 h -8.23053 c -0.69747,0 -1.39495,0.60443 -1.39495,1.39495 v 1.89105 c 0,0.79043 0.69748,1.37947 1.39495,1.37947 h 30.05453 c 0.806,0 1.39495,-0.58904 1.39495,-1.37947 v -1.89105 c 0,-0.79052 -0.58895,-1.39495 -1.39495,-1.39495 h -8.928 v -7.33157 h 8.928 c 0.806,0 1.39495,-0.69748 1.39495,-1.488 v -1.89098 c 0,-0.6975 -0.58895,-1.3795 -1.39495,-1.3795 h -8.928 v -15.779 c 0,-0.589 -0.29453,-1.085 -0.682,-1.2865 l -1.19348,-0.6045 c -0.20157,-0.093 -0.29452,-0.093 -0.496,-0.093 -0.10852,0 -0.10852,0 -0.20157,0 -0.29443,0 -0.69748,0.093 -0.89895,0.2945 l -9.02105,8.2305 c -0.29443,0.31 -0.40295,0.6975 -0.40295,1.1005 v 8.1375 h -11.50102 c 0,0 11.11354,-11.904 22.81597,-27.590054 0.40305,-0.496 0.496,-0.992 0.496,-1.37947 0,-0.496 -0.20148,-0.89896 -0.29443,-0.992 l -2.18557,-2.18548 c -0.29443,-0.20148 -0.58895,-0.40305 -0.992,-0.40305 -0.58895,0 -13.99643,0 -14.78695,0 -0.69748,0 -1.19348,0.60453 -1.28653,1.19357 0,0 -0.496,7.34696 -3.069,15.375984 -2.58849,8.0445 -5.56449,13.0045 -8.13749,16.6625 0,0 -0.29451,0.496 -0.29451,1.1005 0,0.2015 0,0.38755 0.093,0.58902 0.29451,0.69748 0.992,1.78253 0.992,1.78253 0,0 0.20151,0.60443 1.085,0.60443 h 17.06553"
     id="path220"
     style="stroke-width:0.992" />
  <path
     class="TimeSig"
     d="m 164.15617,333.71486 v 7.33157 h -8.23053 c -0.69747,0 -1.39495,0.60443 -1.39495,1.39495 v 1.89105 c 0,0.79043 0.69748,1.37947 1.39495,1.37947 h 30.05453 c 0.806,0 1.39495,-0.58904 1.39495,-1.37947 v -1.89105 c 0,-0.79052 -0.58895,-1.39495 -1.39495,-1.39495 h -8.928 v -7.33157 h 8.928 c 0.806,0 1.39495,-0.69748 1.39495,-1.488 v -1.89098 c 0,-0.6975 -0.58895,-1.3795 -1.39495,-1.3795 h -8.928 v -15.779 c 0,-0.589 -0.29453,-1.085 -0.682,-1.2865 l -1.19348,-0.6045 c -0.20157,-0.093 -0.29452,-0.093 -0.496,-0.093 -0.10852,0 -0.10852,0 -0.20157,0 -0.29443,0 -0.69748,0.093 -0.89895,0.2945 l -9.02105,8.2305 c -0.29443,0.31 -0.40295,0.6975 -0.40295,1.1005 v 8.1375 h -11.50102 c 0,0 11.11354,-11.904 22.81597,-27.59005 0.40305,-0.496 0.496,-0.992 0.496,-1.37947 0,-0.496 -0.20148,-0.89896 -0.29443,-0.992 l -2.18557,-2.18548 c -0.29443,-0.20148 -0.58895,-0.40305 -0.992,-0.40305 -0.58895,0 -13.99643,0 -14.78695,0 -0.69748,0 -1.19348,0.60453 -1.28653,1.19357 0,0 -0.496,7.34696 -3.069,15.37598 -2.58849,8.0445 -5.56449,13.0045 -8.13749,16.6625 0,0 -0.29451,0.496 -0.29451,1.1005 0,0.2015 0,0.38755 0.093,0.58902 0.29451,0.69748 0.992,1.78253 0.992,1.78253 0,0 0.20151,0.60443 1.085,0.60443 h 17.06553"
     id="path222"
     style="stroke-width:0.992" />
  <path
     class="TimeSig"
     d="m 164.15617,383.31486 v 7.33157 h -8.23053 c -0.69747,0 -1.39495,0.60443 -1.39495,1.39495 v 1.89105 c 0,0.79043 0.69748,1.37947 1.39495,1.37947 h 30.05453 c 0.806,0 1.39495,-0.58904 1.39495,-1.37947 v -1.89105 c 0,-0.79052 -0.58895,-1.39495 -1.39495,-1.39495 h -8.928 v -7.33157 h 8.928 c 0.806,0 1.39495,-0.69748 1.39495,-1.488 v -1.89098 c 0,-0.6975 -0.58895,-1.3795 -1.39495,-1.3795 h -8.928 v -15.779 c 0,-0.589 -0.29453,-1.085 -0.682,-1.2865 l -1.19348,-0.6045 c -0.20157,-0.093 -0.29452,-0.093 -0.496,-0.093 -0.10852,0 -0.10852,0 -0.20157,0 -0.29443,0 -0.69748,0.093 -0.89895,0.2945 l -9.02105,8.2305 c -0.29443,0.31 -0.40295,0.6975 -0.40295,1.1005 v 8.1375 h -11.50102 c 0,0 11.11354,-11.904 22.81597,-27.59005 0.40305,-0.496 0.496,-0.992 0.496,-1.37947 0,-0.496 -0.20148,-0.89896 -0.29443,-0.992 l -2.18557,-2.18548 c -0.29443,-0.20148 -0.58895,-0.40305 -0.992,-0.40305 -0.58895,0 -13.99643,0 -14.78695,0 -0.69748,0 -1.19348,0.60453 -1.28653,1.19357 0,0 -0.496,7.34696 -3.069,15.37598 -2.58849,8.0445 -5.56449,13.0045 -8.13749,16.6625 0,0 -0.29451,0.496 -0.29451,1.1005 0,0.2015 0,0.38755 0.093,0.58902 0.29451,0.69748 0.992,1.78253 0.992,1.78253 0,0 0.20151,0.60443 1.085,0.60443 h 17.06553"
     id="path224"
     style="stroke-width:0.992" />
  <path
     class="Rest"
     d="m 3361.2596,101.97443 c -0.093,-0.0931 -0.2945,-0.29453 -0.5889,-0.682 l -11.408,-14.089554 c -0.1085,-0.1085 -0.2016,-0.403 -0.2016,-0.6045 0,-0.2945 0.093,-0.682 0.2016,-0.8835 l 10.106,-15.28298 c 0.1084,-0.20157 0.2015,-0.496 0.2015,-0.69757 v -0.88347 c 0,-0.29453 -0.093,-0.60453 -0.2946,-0.79053 l -16.0735,-21.73095 c 0,0 -0.3875,-0.60452 -0.992,-0.60452 -0.2945,0 -0.496,0.10852 -0.7905,0.31 -0.403,0.29452 -0.496,0.682 -0.496,0.992 0,0.58904 0.2945,1.08504 0.2945,1.08504 l 7.5486,10.32296 c 0.186,0.29452 0.2944,0.682 0.2944,1.178 0,0.40304 -0.1084,0.89904 -0.2944,1.19347 l -10.0286,15.28305 c -0.093,0.2015 -0.2015,0.589 -0.2015,0.7905 v 0.899 c 0,0.2945 0.1085,0.589 0.31,0.7905 l 11.0981,13.795 c -0.3876,-0.1085 -1.2865,-0.31 -2.4801,-0.31 -1.674,0 -3.8595,0.403 -5.642,1.984 -2.1855,1.98405 -3.379,4.77405 -3.379,7.254054 0,1.37947 0.2945,2.77443 1.085,3.85947 2.0925,3.17748 9.5325,12.60148 9.5325,12.60148 0,0 0.496,0.60452 1.1936,0.60452 0.186,0 0.3875,0 0.5889,-0.20147 0.496,-0.40305 0.6975,-0.79053 0.6975,-1.19357 0,-0.40296 -0.2015,-0.69748 -0.2944,-0.89896 -0.31,-0.496 -3.4721,-6.24652 -3.4721,-6.24652 0,0 -0.6975,-1.39495 -0.6975,-3.17748 0,-1.28652 0.3875,-2.86747 1.6896,-4.16947 1.178,-1.178 2.5729,-1.58105 3.8595,-1.58105 1.2865,0 2.3869,0.40305 3.1774,0.89905 l 3.8751,2.48 c 0,0 0.3875,0.186 0.7904,0.186 0.3876,0 0.6976,-0.0931 0.992,-0.496 0.2016,-0.38757 0.2945,-0.58905 0.2945,-0.88357 0,-0.29443 -0.093,-0.496 -0.2945,-0.79043 l -0.2015,-0.31"
     id="path226"
     style="stroke-width:0.992" />
  <path
     class="Rest"
     d="m 1612.8596,101.97443 c -0.093,-0.0931 -0.2945,-0.29453 -0.5889,-0.682 l -11.408,-14.089554 c -0.1085,-0.1085 -0.2016,-0.403 -0.2016,-0.6045 0,-0.2945 0.093,-0.682 0.2016,-0.8835 l 10.106,-15.28298 c 0.1084,-0.20157 0.2015,-0.496 0.2015,-0.69757 v -0.88347 c 0,-0.29453 -0.093,-0.60453 -0.2946,-0.79053 l -16.0735,-21.73095 c 0,0 -0.3875,-0.60452 -0.992,-0.60452 -0.2945,0 -0.496,0.10852 -0.7905,0.31 -0.403,0.29452 -0.496,0.682 -0.496,0.992 0,0.58904 0.2945,1.08504 0.2945,1.08504 l 7.5486,10.32296 c 0.186,0.29452 0.2944,0.682 0.2944,1.178 0,0.40304 -0.1084,0.89904 -0.2944,1.19347 l -10.0286,15.28305 c -0.093,0.2015 -0.2015,0.589 -0.2015,0.7905 v 0.899 c 0,0.2945 0.1085,0.589 0.31,0.7905 l 11.0981,13.795 c -0.3876,-0.1085 -1.2865,-0.31 -2.4801,-0.31 -1.674,0 -3.8595,0.403 -5.642,1.984 -2.1855,1.98405 -3.379,4.77405 -3.379,7.254054 0,1.37947 0.2945,2.77443 1.085,3.85947 2.0925,3.17748 9.5325,12.60148 9.5325,12.60148 0,0 0.496,0.60452 1.1936,0.60452 0.186,0 0.3875,0 0.5889,-0.20147 0.496,-0.40305 0.6975,-0.79053 0.6975,-1.19357 0,-0.40296 -0.2015,-0.69748 -0.2944,-0.89896 -0.31,-0.496 -3.4721,-6.24652 -3.4721,-6.24652 0,0 -0.6975,-1.39495 -0.6975,-3.17748 0,-1.28652 0.3875,-2.86747 1.6896,-4.16947 1.178,-1.178 2.5729,-1.58105 3.8595,-1.58105 1.2865,0 2.3869,0.40305 3.1774,0.89905 l 3.8751,2.48 c 0,0 0.3875,0.186 0.7904,0.186 0.3876,0 0.6976,-0.0931 0.992,-0.496 0.2016,-0.38757 0.2945,-0.58905 0.2945,-0.88357 0,-0.29443 -0.093,-0.496 -0.2945,-0.79043 l -0.2015,-0.31"
     id="path228"
     style="stroke-width:0.992" />
  <path
     class="Rest"
     d="m 2108.8596,101.97443 c -0.093,-0.0931 -0.2945,-0.29453 -0.5889,-0.682 l -11.408,-14.089554 c -0.1085,-0.1085 -0.2016,-0.403 -0.2016,-0.6045 0,-0.2945 0.093,-0.682 0.2016,-0.8835 l 10.106,-15.28298 c 0.1084,-0.20157 0.2015,-0.496 0.2015,-0.69757 v -0.88347 c 0,-0.29453 -0.093,-0.60453 -0.2946,-0.79053 l -16.0735,-21.73095 c 0,0 -0.3875,-0.60452 -0.992,-0.60452 -0.2945,0 -0.496,0.10852 -0.7905,0.31 -0.403,0.29452 -0.496,0.682 -0.496,0.992 0,0.58904 0.2945,1.08504 0.2945,1.08504 l 7.5486,10.32296 c 0.186,0.29452 0.2944,0.682 0.2944,1.178 0,0.40304 -0.1084,0.89904 -0.2944,1.19347 l -10.0286,15.28305 c -0.093,0.2015 -0.2015,0.589 -0.2015,0.7905 v 0.899 c 0,0.2945 0.1085,0.589 0.31,0.7905 l 11.0981,13.795 c -0.3876,-0.1085 -1.2865,-0.31 -2.4801,-0.31 -1.674,0 -3.8595,0.403 -5.642,1.984 -2.1855,1.98405 -3.379,4.77405 -3.379,7.254054 0,1.37947 0.2945,2.77443 1.085,3.85947 2.0925,3.17748 9.5325,12.60148 9.5325,12.60148 0,0 0.496,0.60452 1.1936,0.60452 0.186,0 0.3875,0 0.5889,-0.20147 0.496,-0.40305 0.6975,-0.79053 0.6975,-1.19357 0,-0.40296 -0.2015,-0.69748 -0.2944,-0.89896 -0.31,-0.496 -3.4721,-6.24652 -3.4721,-6.24652 0,0 -0.6975,-1.39495 -0.6975,-3.17748 0,-1.28652 0.3875,-2.86747 1.6896,-4.16947 1.178,-1.178 2.5729,-1.58105 3.8595,-1.58105 1.2865,0 2.3869,0.40305 3.1774,0.89905 l 3.8751,2.48 c 0,0 0.3875,0.186 0.7904,0.186 0.3876,0 0.6976,-0.0931 0.992,-0.496 0.2016,-0.38757 0.2945,-0.58905 0.2945,-0.88357 0,-0.29443 -0.093,-0.496 -0.2945,-0.79043 l -0.2015,-0.31"
     id="path230"
     style="stroke-width:0.992" />
  <path
     class="Rest"
     d="m 3867.7896,101.97443 c -0.093,-0.0931 -0.2945,-0.29453 -0.5889,-0.682 l -11.408,-14.089554 c -0.1085,-0.1085 -0.2016,-0.403 -0.2016,-0.6045 0,-0.2945 0.093,-0.682 0.2016,-0.8835 l 10.106,-15.28298 c 0.1084,-0.20157 0.2015,-0.496 0.2015,-0.69757 v -0.88347 c 0,-0.29453 -0.093,-0.60453 -0.2946,-0.79053 l -16.0735,-21.73095 c 0,0 -0.3875,-0.60452 -0.992,-0.60452 -0.2945,0 -0.496,0.10852 -0.7905,0.31 -0.403,0.29452 -0.496,0.682 -0.496,0.992 0,0.58904 0.2945,1.08504 0.2945,1.08504 l 7.5486,10.32296 c 0.186,0.29452 0.2944,0.682 0.2944,1.178 0,0.40304 -0.1084,0.89904 -0.2944,1.19347 l -10.0286,15.28305 c -0.093,0.2015 -0.2015,0.589 -0.2015,0.7905 v 0.899 c 0,0.2945 0.1085,0.589 0.31,0.7905 l 11.0981,13.795 c -0.3876,-0.1085 -1.2865,-0.31 -2.4801,-0.31 -1.674,0 -3.8595,0.403 -5.642,1.984 -2.1855,1.98405 -3.379,4.77405 -3.379,7.254054 0,1.37947 0.2945,2.77443 1.085,3.85947 2.0925,3.17748 9.5325,12.60148 9.5325,12.60148 0,0 0.496,0.60452 1.1936,0.60452 0.186,0 0.3875,0 0.5889,-0.20147 0.496,-0.40305 0.6975,-0.79053 0.6975,-1.19357 0,-0.40296 -0.2015,-0.69748 -0.2944,-0.89896 -0.31,-0.496 -3.4721,-6.24652 -3.4721,-6.24652 0,0 -0.6975,-1.39495 -0.6975,-3.17748 0,-1.28652 0.3875,-2.86747 1.6896,-4.16947 1.178,-1.178 2.5729,-1.58105 3.8595,-1.58105 1.2865,0 2.3869,0.40305 3.1774,0.89905 l 3.8751,2.48 c 0,0 0.3875,0.186 0.7904,0.186 0.3876,0 0.6976,-0.0931 0.992,-0.496 0.2016,-0.38757 0.2945,-0.58905 0.2945,-0.88357 0,-0.29443 -0.093,-0.496 -0.2945,-0.79043 l -0.2015,-0.31"
     id="path232"
     style="stroke-width:0.992" />
  <path
     class="Rest"
     d="m 3599.8396,101.97443 c -0.093,-0.0931 -0.2945,-0.29453 -0.5889,-0.682 l -11.408,-14.089554 c -0.1085,-0.1085 -0.2016,-0.403 -0.2016,-0.6045 0,-0.2945 0.093,-0.682 0.2016,-0.8835 l 10.106,-15.28298 c 0.1084,-0.20157 0.2015,-0.496 0.2015,-0.69757 v -0.88347 c 0,-0.29453 -0.093,-0.60453 -0.2946,-0.79053 l -16.0735,-21.73095 c 0,0 -0.3875,-0.60452 -0.992,-0.60452 -0.2945,0 -0.496,0.10852 -0.7905,0.31 -0.403,0.29452 -0.496,0.682 -0.496,0.992 0,0.58904 0.2945,1.08504 0.2945,1.08504 l 7.5486,10.32296 c 0.186,0.29452 0.2944,0.682 0.2944,1.178 0,0.40304 -0.1084,0.89904 -0.2944,1.19347 l -10.0286,15.28305 c -0.093,0.2015 -0.2015,0.589 -0.2015,0.7905 v 0.899 c 0,0.2945 0.1085,0.589 0.31,0.7905 l 11.0981,13.795 c -0.3876,-0.1085 -1.2865,-0.31 -2.4801,-0.31 -1.674,0 -3.8595,0.403 -5.642,1.984 -2.1855,1.98405 -3.379,4.77405 -3.379,7.254054 0,1.37947 0.2945,2.77443 1.085,3.85947 2.0925,3.17748 9.5325,12.60148 9.5325,12.60148 0,0 0.496,0.60452 1.1936,0.60452 0.186,0 0.3875,0 0.5889,-0.20147 0.496,-0.40305 0.6975,-0.79053 0.6975,-1.19357 0,-0.40296 -0.2015,-0.69748 -0.2944,-0.89896 -0.31,-0.496 -3.4721,-6.24652 -3.4721,-6.24652 0,0 -0.6975,-1.39495 -0.6975,-3.17748 0,-1.28652 0.3875,-2.86747 1.6896,-4.16947 1.178,-1.178 2.5729,-1.58105 3.8595,-1.58105 1.2865,0 2.3869,0.40305 3.1774,0.89905 l 3.8751,2.48 c 0,0 0.3875,0.186 0.7904,0.186 0.3876,0 0.6976,-0.0931 0.992,-0.496 0.2016,-0.38757 0.2945,-0.58905 0.2945,-0.88357 0,-0.29443 -0.093,-0.496 -0.2945,-0.79043 l -0.2015,-0.31"
     id="path234"
     style="stroke-width:0.992" />
  <path
     class="Rest"
     d="m 3737.9796,362.37443 c -0.093,-0.0931 -0.2945,-0.29453 -0.5889,-0.682 l -11.408,-14.08955 c -0.1085,-0.1085 -0.2016,-0.403 -0.2016,-0.6045 0,-0.2945 0.093,-0.682 0.2016,-0.8835 l 10.106,-15.28298 c 0.1084,-0.20157 0.2015,-0.496 0.2015,-0.69757 v -0.88347 c 0,-0.29453 -0.093,-0.60453 -0.2946,-0.79053 l -16.0735,-21.73095 c 0,0 -0.3875,-0.60452 -0.992,-0.60452 -0.2945,0 -0.496,0.10852 -0.7905,0.31 -0.403,0.29452 -0.496,0.682 -0.496,0.992 0,0.58904 0.2945,1.08504 0.2945,1.08504 l 7.5486,10.32296 c 0.186,0.29452 0.2944,0.682 0.2944,1.178 0,0.40304 -0.1084,0.89904 -0.2944,1.19347 l -10.0286,15.28305 c -0.093,0.2015 -0.2015,0.589 -0.2015,0.7905 v 0.899 c 0,0.2945 0.1085,0.589 0.31,0.7905 l 11.0981,13.795 c -0.3876,-0.1085 -1.2865,-0.31 -2.4801,-0.31 -1.674,0 -3.8595,0.403 -5.642,1.984 -2.1855,1.98405 -3.379,4.77405 -3.379,7.25405 0,1.37947 0.2945,2.77443 1.085,3.85947 2.0925,3.17748 9.5325,12.60148 9.5325,12.60148 0,0 0.496,0.60452 1.1936,0.60452 0.186,0 0.3875,0 0.5889,-0.20147 0.496,-0.40305 0.6975,-0.79053 0.6975,-1.19357 0,-0.40296 -0.2015,-0.69748 -0.2944,-0.89896 -0.31,-0.496 -3.4721,-6.24652 -3.4721,-6.24652 0,0 -0.6975,-1.39495 -0.6975,-3.17748 0,-1.28652 0.3875,-2.86747 1.6896,-4.16947 1.178,-1.178 2.5729,-1.58105 3.8595,-1.58105 1.2865,0 2.3869,0.40305 3.1774,0.89905 l 3.8751,2.48 c 0,0 0.3875,0.186 0.7904,0.186 0.3876,0 0.6976,-0.0931 0.992,-0.496 0.2016,-0.38757 0.2945,-0.58905 0.2945,-0.88357 0,-0.29443 -0.093,-0.496 -0.2945,-0.79043 l -0.2015,-0.31"
     id="path236"
     style="stroke-width:0.992" />
  <path
     class="Rest"
     d="m 3974.7836,344.92138 c 0,1.395 0,1.395 1.395,1.395 h 29.4656 c 1.3794,0 1.3794,0 1.3794,-1.395 v -10.71052 c 0,-1.39496 0,-1.39496 -1.3794,-1.39496 h -29.4656 c -1.395,0 -1.395,0 -1.395,1.39496 v 10.71052"
     id="path238"
     style="stroke-width:0.992" />
  <path
     class="Rest"
     d="m 3457.7336,344.92138 c 0,1.395 0,1.395 1.395,1.395 h 29.4656 c 1.3794,0 1.3794,0 1.3794,-1.395 v -10.71052 c 0,-1.39496 0,-1.39496 -1.3794,-1.39496 h -29.4656 c -1.395,0 -1.395,0 -1.395,1.39496 v 10.71052"
     id="path240"
     style="stroke-width:0.992" />
  <path
     class="Rest"
     d="m 1947.8286,320.61738 c -0.806,0 -1.395,0.589 -1.395,1.395 v 10.71048 c 0,0.79052 0.589,1.37957 1.395,1.37957 h 29.4656 c 0.7905,0 1.3794,-0.58905 1.3794,-1.37957 v -10.71048 c 0,-0.806 -0.5889,-1.395 -1.3794,-1.395 h -29.4656"
     id="path242"
     style="stroke-width:0.992" />
  <path
     class="Rest"
     d="m 439.11864,320.61738 c -0.806,0 -1.395,0.589 -1.395,1.395 v 10.71048 c 0,0.79052 0.589,1.37957 1.395,1.37957 h 29.46553 c 0.79052,0 1.37947,-0.58905 1.37947,-1.37957 v -10.71048 c 0,-0.806 -0.58895,-1.395 -1.37947,-1.395 h -29.46553"
     id="path244"
     style="stroke-width:0.992" />
  <path
     class="Rest"
     d="m 2443.8286,320.61738 c -0.806,0 -1.395,0.589 -1.395,1.395 v 10.71048 c 0,0.79052 0.589,1.37957 1.395,1.37957 h 29.4656 c 0.7905,0 1.3794,-0.58905 1.3794,-1.37957 v -10.71048 c 0,-0.806 -0.5889,-1.395 -1.3794,-1.395 h -29.4656"
     id="path246"
     style="stroke-width:0.992" />
  <path
     class="Rest"
     d="m 3241.9796,362.37443 c -0.093,-0.0931 -0.2945,-0.29453 -0.5889,-0.682 l -11.408,-14.08955 c -0.1085,-0.1085 -0.2016,-0.403 -0.2016,-0.6045 0,-0.2945 0.093,-0.682 0.2016,-0.8835 l 10.106,-15.28298 c 0.1084,-0.20157 0.2015,-0.496 0.2015,-0.69757 v -0.88347 c 0,-0.29453 -0.093,-0.60453 -0.2946,-0.79053 l -16.0735,-21.73095 c 0,0 -0.3875,-0.60452 -0.992,-0.60452 -0.2945,0 -0.496,0.10852 -0.7905,0.31 -0.403,0.29452 -0.496,0.682 -0.496,0.992 0,0.58904 0.2945,1.08504 0.2945,1.08504 l 7.5486,10.32296 c 0.186,0.29452 0.2944,0.682 0.2944,1.178 0,0.40304 -0.1084,0.89904 -0.2944,1.19347 l -10.0286,15.28305 c -0.093,0.2015 -0.2015,0.589 -0.2015,0.7905 v 0.899 c 0,0.2945 0.1085,0.589 0.31,0.7905 l 11.0981,13.795 c -0.3876,-0.1085 -1.2865,-0.31 -2.4801,-0.31 -1.674,0 -3.8595,0.403 -5.642,1.984 -2.1855,1.98405 -3.379,4.77405 -3.379,7.25405 0,1.37947 0.2945,2.77443 1.085,3.85947 2.0925,3.17748 9.5325,12.60148 9.5325,12.60148 0,0 0.496,0.60452 1.1936,0.60452 0.186,0 0.3875,0 0.5889,-0.20147 0.496,-0.40305 0.6975,-0.79053 0.6975,-1.19357 0,-0.40296 -0.2015,-0.69748 -0.2944,-0.89896 -0.31,-0.496 -3.4721,-6.24652 -3.4721,-6.24652 0,0 -0.6975,-1.39495 -0.6975,-3.17748 0,-1.28652 0.3875,-2.86747 1.6896,-4.16947 1.178,-1.178 2.5729,-1.58105 3.8595,-1.58105 1.2865,0 2.3869,0.40305 3.1774,0.89905 l 3.8751,2.48 c 0,0 0.3875,0.186 0.7904,0.186 0.3876,0 0.6976,-0.0931 0.992,-0.496 0.2016,-0.38757 0.2945,-0.58905 0.2945,-0.88357 0,-0.29443 -0.093,-0.496 -0.2945,-0.79043 l -0.2015,-0.31"
     id="path248"
     style="stroke-width:0.992" />
  <path
     class="Rest"
     d="m 1451.8286,320.61738 c -0.806,0 -1.395,0.589 -1.395,1.395 v 10.71048 c 0,0.79052 0.589,1.37957 1.395,1.37957 h 29.4656 c 0.7905,0 1.3794,-0.58905 1.3794,-1.37957 v -10.71048 c 0,-0.806 -0.5889,-1.395 -1.3794,-1.395 h -29.4656"
     id="path250"
     style="stroke-width:0.992" />
  <path
     class="Rest"
     d="m 955.82864,320.61738 c -0.806,0 -1.395,0.589 -1.395,1.395 v 10.71048 c 0,0.79052 0.589,1.37957 1.395,1.37957 h 29.46553 c 0.79052,0 1.37947,-0.58905 1.37947,-1.37957 v -10.71048 c 0,-0.806 -0.58895,-1.395 -1.37947,-1.395 h -29.46553"
     id="path252"
     style="stroke-width:0.992" />
  <path
     class="Rest"
     d="m 2939.8286,320.61738 c -0.806,0 -1.395,0.589 -1.395,1.395 v 10.71048 c 0,0.79052 0.589,1.37957 1.395,1.37957 h 29.4656 c 0.7905,0 1.3794,-0.58905 1.3794,-1.37957 v -10.71048 c 0,-0.806 -0.5889,-1.395 -1.3794,-1.395 h -29.4656"
     id="path254"
     style="stroke-width:0.992" />
  <path
     class="Beam"
     fill-rule="evenodd"
     d="m 2245.0036,23.513376 h 212.07 v 12.4 h -212.07 v -12.4"
     id="path256" />
  <path
     class="Beam"
     fill-rule="evenodd"
     d="m 2741.0036,23.513376 h 212.07 v 12.4 h -212.07 v -12.4"
     id="path258" />
  <path
     class="Bracket"
     d="m 3.3985167,215.71338 c 6.4615805,-6.85505 19.0475803,-20.84565 19.0475803,-46.748 0,-32.7574 -14.0468748,-65.85175 -14.0468748,-86.304004 0,-21.9694 12.5859998,-42.47775 13.3164198,-43.152 0,-0.3934 0,-0.3934 0,-0.73035 0,-0.3934 0,-0.7307 -0.337125,-1.06765 -0.393295,0 -1.12375,0 -1.460875,0.67425 -0.337125,0.3934 -19.77800025,19.778 -19.77800025,49.27635 0,31.633654 12.58600025,53.940004 12.58600025,95.294004 0,7.92235 -3.2588753,20.50835 -12.24887525,31.68975 -0.337125,0 -0.337125,0.67425 -0.337125,1.06765 -0.337125,0.33695 0,0.73035 0.337125,1.06765 8.98999995,11.12495 12.24887525,23.71095 12.24887525,31.6333 0,41.354 -12.58600025,63.6607 -12.58600025,95.294 0,29.16147 19.44087525,48.93949 19.77800025,49.27661 0.337125,0.73044 1.06758,1.06757 1.460875,0.73044 0.337125,-0.33713 0.67425,-0.73044 0.337125,-1.06756 0,0 0,-0.39331 0,-0.73044 -0.73042,-0.73046 -13.3164198,-21.23888 -13.3164198,-43.152 0,-20.50835 14.0468748,-53.60305 14.0468748,-86.304 0,-26.23965 -12.5859998,-39.9494 -19.0475803,-46.748"
     id="path264"
     style="stroke-width:3.596" />
</svg>
