<?xml version="1.0" encoding="UTF-8" standalone="no"?>
<svg
   width="543.86932mm"
   height="28.001974mm"
   viewBox="0 0 7708.3839 396.87838"
   version="1.2"
   id="svg148"
   sodipodi:docname="HeyDiddleDiddle.svg"
   inkscape:version="1.4.2 (ebf0e94, 2025-05-08)"
   xmlns:inkscape="http://www.inkscape.org/namespaces/inkscape"
   xmlns:sodipodi="http://sodipodi.sourceforge.net/DTD/sodipodi-0.dtd"
   xmlns="http://www.w3.org/2000/svg"
   xmlns:svg="http://www.w3.org/2000/svg">
  <defs
     id="defs148" />
  <sodipodi:namedview
     id="namedview148"
     pagecolor="#ffffff"
     bordercolor="#000000"
     borderopacity="0.25"
     inkscape:showpageshadow="2"
     inkscape:pageopacity="0.0"
     inkscape:pagecheckerboard="0"
     inkscape:deskcolor="#d1d1d1"
     inkscape:document-units="mm"
     inkscape:zoom="0.41165207"
     inkscape:cx="1014.206"
     inkscape:cy="434.83323"
     inkscape:window-width="1025"
     inkscape:window-height="1026"
     inkscape:window-x="0"
     inkscape:window-y="0"
     inkscape:window-maximized="0"
     inkscape:current-layer="svg148" />
  <title
     id="title1">Untitled score</title>
  <desc
     id="desc1">Generated by MuseScore Studio 4.5.2</desc>
  <polyline
     class="StaffLines"
     fill="none"
     stroke="#000000"
     stroke-width="2.73"
     stroke-linejoin="bevel"
     points="336.598,386.198 8013.8,386.198"
     id="polyline1"
     transform="translate(-305.41636,-350.28462)" />
  <polyline
     class="StaffLines"
     fill="none"
     stroke="#000000"
     stroke-width="2.73"
     stroke-linejoin="bevel"
     points="336.598,410.998 8013.8,410.998"
     id="polyline2"
     transform="translate(-305.41636,-350.28462)" />
  <polyline
     class="StaffLines"
     fill="none"
     stroke="#000000"
     stroke-width="2.73"
     stroke-linejoin="bevel"
     points="336.598,435.798 8013.8,435.798"
     id="polyline3"
     transform="translate(-305.41636,-350.28462)" />
  <polyline
     class="StaffLines"
     fill="none"
     stroke="#000000"
     stroke-width="2.73"
     stroke-linejoin="bevel"
     points="336.598,460.598 8013.8,460.598"
     id="polyline4"
     transform="translate(-305.41636,-350.28462)" />
  <polyline
     class="StaffLines"
     fill="none"
     stroke="#000000"
     stroke-width="2.73"
     stroke-linejoin="bevel"
     points="336.598,485.398 8013.8,485.398"
     id="polyline5"
     transform="translate(-305.41636,-350.28462)" />
  <polyline
     class="StaffLines"
     fill="none"
     stroke="#000000"
     stroke-width="2.73"
     stroke-linejoin="bevel"
     points="336.598,646.598 8013.8,646.598"
     id="polyline6"
     transform="translate(-305.41636,-350.28462)" />
  <polyline
     class="StaffLines"
     fill="none"
     stroke="#000000"
     stroke-width="2.73"
     stroke-linejoin="bevel"
     points="336.598,671.398 8013.8,671.398"
     id="polyline7"
     transform="translate(-305.41636,-350.28462)" />
  <polyline
     class="StaffLines"
     fill="none"
     stroke="#000000"
     stroke-width="2.73"
     stroke-linejoin="bevel"
     points="336.598,696.198 8013.8,696.198"
     id="polyline8"
     transform="translate(-305.41636,-350.28462)" />
  <polyline
     class="StaffLines"
     fill="none"
     stroke="#000000"
     stroke-width="2.73"
     stroke-linejoin="bevel"
     points="336.598,720.998 8013.8,720.998"
     id="polyline9"
     transform="translate(-305.41636,-350.28462)" />
  <polyline
     class="StaffLines"
     fill="none"
     stroke="#000000"
     stroke-width="2.73"
     stroke-linejoin="bevel"
     points="336.598,745.798 8013.8,745.798"
     id="polyline10"
     transform="translate(-305.41636,-350.28462)" />
  <path
     class="TieSegment"
     stroke="#000000"
     stroke-width="1.24"
     stroke-linecap="round"
     stroke-linejoin="round"
     fill-rule="evenodd"
     d="m 3229.3536,165.71038 c 98.33,35.752 393.32,35.752 491.65,0 -98.33,43.688 -393.32,43.688 -491.65,0"
     id="path10" />
  <polyline
     class="BarLine"
     fill="none"
     stroke="#000000"
     stroke-width="4.46"
     stroke-linejoin="bevel"
     points="7442.54,384.834 7442.54,646.598"
     id="polyline11"
     transform="translate(-305.41636,-350.28462)" />
  <polyline
     class="BarLine"
     fill="none"
     stroke="#000000"
     stroke-width="4.46"
     stroke-linejoin="bevel"
     points="986.67,384.834 986.67,646.598"
     id="polyline12"
     transform="translate(-305.41636,-350.28462)" />
  <polyline
     class="BarLine"
     fill="none"
     stroke="#000000"
     stroke-width="4.46"
     stroke-linejoin="bevel"
     points="6449.33,384.834 6449.33,646.598"
     id="polyline13"
     transform="translate(-305.41636,-350.28462)" />
  <polyline
     class="BarLine"
     fill="none"
     stroke="#000000"
     stroke-width="4.46"
     stroke-linejoin="bevel"
     points="1979.88,384.834 1979.88,646.598"
     id="polyline14"
     transform="translate(-305.41636,-350.28462)" />
  <polyline
     class="BarLine"
     fill="none"
     stroke="#000000"
     stroke-width="4.46"
     stroke-linejoin="bevel"
     points="3469.7,384.834 3469.7,646.598"
     id="polyline15"
     transform="translate(-305.41636,-350.28462)" />
  <polyline
     class="BarLine"
     fill="none"
     stroke="#000000"
     stroke-width="4.46"
     stroke-linejoin="bevel"
     points="6945.94,384.834 6945.94,646.598"
     id="polyline16"
     transform="translate(-305.41636,-350.28462)" />
  <polyline
     class="BarLine"
     fill="none"
     stroke="#000000"
     stroke-width="4.46"
     stroke-linejoin="bevel"
     points="5456.12,384.834 5456.12,646.598"
     id="polyline17"
     transform="translate(-305.41636,-350.28462)" />
  <polyline
     class="BarLine"
     fill="none"
     stroke="#000000"
     stroke-width="4.46"
     stroke-linejoin="bevel"
     points="5952.73,384.834 5952.73,646.598"
     id="polyline18"
     transform="translate(-305.41636,-350.28462)" />
  <polyline
     class="BarLine"
     fill="none"
     stroke="#000000"
     stroke-width="4.46"
     stroke-linejoin="bevel"
     points="1483.28,384.834 1483.28,646.598"
     id="polyline19"
     transform="translate(-305.41636,-350.28462)" />
  <polyline
     class="BarLine"
     fill="none"
     stroke="#000000"
     stroke-width="4.46"
     stroke-linejoin="bevel"
     points="3966.3,384.834 3966.3,646.598"
     id="polyline20"
     transform="translate(-305.41636,-350.28462)" />
  <polyline
     class="BarLine"
     fill="none"
     stroke="#000000"
     stroke-width="4.46"
     stroke-linejoin="bevel"
     points="2973.09,384.834 2973.09,646.598"
     id="polyline21"
     transform="translate(-305.41636,-350.28462)" />
  <polyline
     class="BarLine"
     fill="none"
     stroke="#000000"
     stroke-width="4.46"
     stroke-linejoin="bevel"
     points="2476.49,384.834 2476.49,646.598"
     id="polyline22"
     transform="translate(-305.41636,-350.28462)" />
  <polyline
     class="BarLine"
     fill="none"
     stroke="#000000"
     stroke-width="4.46"
     stroke-linejoin="bevel"
     points="7988.75,384.834 7988.75,646.598"
     id="polyline23"
     transform="translate(-305.41636,-350.28462)" />
  <polyline
     class="BarLine"
     fill="none"
     stroke="#000000"
     stroke-width="13.64"
     stroke-linejoin="bevel"
     points="8006.98,384.834 8006.98,646.598"
     id="polyline24"
     transform="translate(-305.41636,-350.28462)" />
  <polyline
     class="BarLine"
     fill="none"
     stroke="#000000"
     stroke-width="4.46"
     stroke-linejoin="bevel"
     points="4462.91,384.834 4462.91,646.598"
     id="polyline25"
     transform="translate(-305.41636,-350.28462)" />
  <polyline
     class="BarLine"
     fill="none"
     stroke="#000000"
     stroke-width="4.46"
     stroke-linejoin="bevel"
     points="338.83,384.834 338.83,646.598"
     id="polyline26"
     transform="translate(-305.41636,-350.28462)" />
  <polyline
     class="BarLine"
     fill="none"
     stroke="#000000"
     stroke-width="4.46"
     stroke-linejoin="bevel"
     points="4959.52,384.834 4959.52,646.598"
     id="polyline27"
     transform="translate(-305.41636,-350.28462)" />
  <polyline
     class="BarLine"
     fill="none"
     stroke="#000000"
     stroke-width="4.46"
     stroke-linejoin="bevel"
     points="5952.73,645.234 5952.73,747.162"
     id="polyline28"
     transform="translate(-305.41636,-350.28462)" />
  <polyline
     class="BarLine"
     fill="none"
     stroke="#000000"
     stroke-width="4.46"
     stroke-linejoin="bevel"
     points="1979.88,645.234 1979.88,747.162"
     id="polyline29"
     transform="translate(-305.41636,-350.28462)" />
  <polyline
     class="BarLine"
     fill="none"
     stroke="#000000"
     stroke-width="4.46"
     stroke-linejoin="bevel"
     points="4462.91,645.234 4462.91,747.162"
     id="polyline30"
     transform="translate(-305.41636,-350.28462)" />
  <polyline
     class="BarLine"
     fill="none"
     stroke="#000000"
     stroke-width="4.46"
     stroke-linejoin="bevel"
     points="5456.12,645.234 5456.12,747.162"
     id="polyline31"
     transform="translate(-305.41636,-350.28462)" />
  <polyline
     class="BarLine"
     fill="none"
     stroke="#000000"
     stroke-width="4.46"
     stroke-linejoin="bevel"
     points="3966.3,645.234 3966.3,747.162"
     id="polyline32"
     transform="translate(-305.41636,-350.28462)" />
  <polyline
     class="BarLine"
     fill="none"
     stroke="#000000"
     stroke-width="4.46"
     stroke-linejoin="bevel"
     points="1483.28,645.234 1483.28,747.162"
     id="polyline33"
     transform="translate(-305.41636,-350.28462)" />
  <polyline
     class="BarLine"
     fill="none"
     stroke="#000000"
     stroke-width="4.46"
     stroke-linejoin="bevel"
     points="4959.52,645.234 4959.52,747.162"
     id="polyline34"
     transform="translate(-305.41636,-350.28462)" />
  <polyline
     class="BarLine"
     fill="none"
     stroke="#000000"
     stroke-width="4.46"
     stroke-linejoin="bevel"
     points="986.67,645.234 986.67,747.162"
     id="polyline35"
     transform="translate(-305.41636,-350.28462)" />
  <polyline
     class="BarLine"
     fill="none"
     stroke="#000000"
     stroke-width="4.46"
     stroke-linejoin="bevel"
     points="6449.33,645.234 6449.33,747.162"
     id="polyline36"
     transform="translate(-305.41636,-350.28462)" />
  <polyline
     class="BarLine"
     fill="none"
     stroke="#000000"
     stroke-width="4.46"
     stroke-linejoin="bevel"
     points="3469.7,645.234 3469.7,747.162"
     id="polyline37"
     transform="translate(-305.41636,-350.28462)" />
  <polyline
     class="BarLine"
     fill="none"
     stroke="#000000"
     stroke-width="4.46"
     stroke-linejoin="bevel"
     points="6945.94,645.234 6945.94,747.162"
     id="polyline38"
     transform="translate(-305.41636,-350.28462)" />
  <polyline
     class="BarLine"
     fill="none"
     stroke="#000000"
     stroke-width="4.46"
     stroke-linejoin="bevel"
     points="2973.09,645.234 2973.09,747.162"
     id="polyline39"
     transform="translate(-305.41636,-350.28462)" />
  <polyline
     class="BarLine"
     fill="none"
     stroke="#000000"
     stroke-width="4.46"
     stroke-linejoin="bevel"
     points="7442.54,645.234 7442.54,747.162"
     id="polyline40"
     transform="translate(-305.41636,-350.28462)" />
  <polyline
     class="BarLine"
     fill="none"
     stroke="#000000"
     stroke-width="4.46"
     stroke-linejoin="bevel"
     points="7988.75,645.234 7988.75,747.162"
     id="polyline41"
     transform="translate(-305.41636,-350.28462)" />
  <polyline
     class="BarLine"
     fill="none"
     stroke="#000000"
     stroke-width="13.64"
     stroke-linejoin="bevel"
     points="8006.98,645.234 8006.98,747.162"
     id="polyline42"
     transform="translate(-305.41636,-350.28462)" />
  <polyline
     class="BarLine"
     fill="none"
     stroke="#000000"
     stroke-width="4.46"
     stroke-linejoin="bevel"
     points="338.83,645.234 338.83,747.162"
     id="polyline43"
     transform="translate(-305.41636,-350.28462)" />
  <polyline
     class="BarLine"
     fill="none"
     stroke="#000000"
     stroke-width="4.46"
     stroke-linejoin="bevel"
     points="2476.49,645.234 2476.49,747.162"
     id="polyline44"
     transform="translate(-305.41636,-350.28462)" />
  <polyline
     class="LedgerLine"
     fill="none"
     stroke="#000000"
     stroke-width="3.97"
     stroke-linejoin="bevel"
     points="7481.73,510.198 7530.32,510.198"
     id="polyline45"
     transform="translate(-305.41636,-350.28462)" />
  <polyline
     class="LedgerLine"
     fill="none"
     stroke="#000000"
     stroke-width="3.97"
     stroke-linejoin="bevel"
     points="1191.39,510.198 1239.98,510.198"
     id="polyline46"
     transform="translate(-305.41636,-350.28462)" />
  <polyline
     class="LedgerLine"
     fill="none"
     stroke="#000000"
     stroke-width="3.97"
     stroke-linejoin="bevel"
     points="2184.6,510.198 2233.19,510.198"
     id="polyline47"
     transform="translate(-305.41636,-350.28462)" />
  <polyline
     class="Stem"
     fill="none"
     stroke="#000000"
     stroke-width="2.48"
     stroke-linejoin="bevel"
     points="1809.93,469.03 1809.93,386.397"
     id="polyline48"
     transform="translate(-305.41636,-350.28462)" />
  <polyline
     class="Stem"
     fill="none"
     stroke="#000000"
     stroke-width="2.48"
     stroke-linejoin="bevel"
     points="4872.33,481.43 4872.33,398.598"
     id="polyline49"
     transform="translate(-305.41636,-350.28462)" />
  <polyline
     class="Stem"
     fill="none"
     stroke="#000000"
     stroke-width="2.48"
     stroke-linejoin="bevel"
     points="4706.8,469.03 4706.8,386.198"
     id="polyline50"
     transform="translate(-305.41636,-350.28462)" />
  <polyline
     class="Stem"
     fill="none"
     stroke="#000000"
     stroke-width="2.48"
     stroke-linejoin="bevel"
     points="6332.41,427.565 6332.41,503.998"
     id="polyline51"
     transform="translate(-305.41636,-350.28462)" />
  <polyline
     class="Stem"
     fill="none"
     stroke="#000000"
     stroke-width="2.48"
     stroke-linejoin="bevel"
     points="4541.26,469.03 4541.26,386.198"
     id="polyline52"
     transform="translate(-305.41636,-350.28462)" />
  <polyline
     class="Stem"
     fill="none"
     stroke="#000000"
     stroke-width="2.48"
     stroke-linejoin="bevel"
     points="899.487,481.43 899.487,398.598"
     id="polyline53"
     transform="translate(-305.41636,-350.28462)" />
  <polyline
     class="Stem"
     fill="none"
     stroke="#000000"
     stroke-width="2.48"
     stroke-linejoin="bevel"
     points="6031.08,444.23 6031.08,367.598"
     id="polyline54"
     transform="translate(-305.41636,-350.28462)" />
  <polyline
     class="Stem"
     fill="none"
     stroke="#000000"
     stroke-width="2.48"
     stroke-linejoin="bevel"
     points="4375.73,481.43 4375.73,398.598"
     id="polyline55"
     transform="translate(-305.41636,-350.28462)" />
  <polyline
     class="Stem"
     fill="none"
     stroke="#000000"
     stroke-width="2.48"
     stroke-linejoin="bevel"
     points="816.719,469.03 816.719,386.397"
     id="polyline56"
     transform="translate(-305.41636,-350.28462)" />
  <polyline
     class="Stem"
     fill="none"
     stroke="#000000"
     stroke-width="2.48"
     stroke-linejoin="bevel"
     points="4044.66,493.83 4044.66,410.998"
     id="polyline57"
     transform="translate(-305.41636,-350.28462)" />
  <polyline
     class="Stem"
     fill="none"
     stroke="#000000"
     stroke-width="2.48"
     stroke-linejoin="bevel"
     points="6166.87,439.965 6166.87,510.198"
     id="polyline58"
     transform="translate(-305.41636,-350.28462)" />
  <polyline
     class="Stem"
     fill="none"
     stroke="#000000"
     stroke-width="2.48"
     stroke-linejoin="bevel"
     points="1561.63,481.43 1561.63,398.598"
     id="polyline59"
     transform="translate(-305.41636,-350.28462)" />
  <polyline
     class="Stem"
     fill="none"
     stroke="#000000"
     stroke-width="2.48"
     stroke-linejoin="bevel"
     points="6497.94,427.565 6497.94,503.998"
     id="polyline60"
     transform="translate(-305.41636,-350.28462)" />
  <polyline
     class="Stem"
     fill="none"
     stroke="#000000"
     stroke-width="2.48"
     stroke-linejoin="bevel"
     points="5037.87,469.03 5037.87,386.198"
     id="polyline61"
     transform="translate(-305.41636,-350.28462)" />
  <polyline
     class="Stem"
     fill="none"
     stroke="#000000"
     stroke-width="2.48"
     stroke-linejoin="bevel"
     points="1065.02,493.83 1065.02,410.998"
     id="polyline62"
     transform="translate(-305.41636,-350.28462)" />
  <polyline
     class="Stem"
     fill="none"
     stroke="#000000"
     stroke-width="2.48"
     stroke-linejoin="bevel"
     points="5368.94,481.43 5368.94,398.598"
     id="polyline63"
     transform="translate(-305.41636,-350.28462)" />
  <polyline
     class="Stem"
     fill="none"
     stroke="#000000"
     stroke-width="2.48"
     stroke-linejoin="bevel"
     points="1396.09,493.83 1396.09,410.998"
     id="polyline64"
     transform="translate(-305.41636,-350.28462)" />
  <polyline
     class="Stem"
     fill="none"
     stroke="#000000"
     stroke-width="2.48"
     stroke-linejoin="bevel"
     points="1230.56,506.23 1230.56,423.398"
     id="polyline65"
     transform="translate(-305.41636,-350.28462)" />
  <polyline
     class="Stem"
     fill="none"
     stroke="#000000"
     stroke-width="2.48"
     stroke-linejoin="bevel"
     points="5534.47,469.03 5534.47,386.198"
     id="polyline66"
     transform="translate(-305.41636,-350.28462)" />
  <polyline
     class="Stem"
     fill="none"
     stroke="#000000"
     stroke-width="2.48"
     stroke-linejoin="bevel"
     points="5865.54,456.63 5865.54,373.798"
     id="polyline67"
     transform="translate(-305.41636,-350.28462)" />
  <polyline
     class="Stem"
     fill="none"
     stroke="#000000"
     stroke-width="2.48"
     stroke-linejoin="bevel"
     points="2389.3,493.83 2389.3,410.998"
     id="polyline68"
     transform="translate(-305.41636,-350.28462)" />
  <polyline
     class="Stem"
     fill="none"
     stroke="#000000"
     stroke-width="2.48"
     stroke-linejoin="bevel"
     points="7355.36,493.83 7355.36,410.998"
     id="polyline69"
     transform="translate(-305.41636,-350.28462)" />
  <polyline
     class="Stem"
     fill="none"
     stroke="#000000"
     stroke-width="2.48"
     stroke-linejoin="bevel"
     points="3051.45,456.63 3051.45,373.798"
     id="polyline70"
     transform="translate(-305.41636,-350.28462)" />
  <polyline
     class="Stem"
     fill="none"
     stroke="#000000"
     stroke-width="2.48"
     stroke-linejoin="bevel"
     points="3216.98,469.03 3216.98,386.198"
     id="polyline71"
     transform="translate(-305.41636,-350.28462)" />
  <polyline
     class="Stem"
     fill="none"
     stroke="#000000"
     stroke-width="2.48"
     stroke-linejoin="bevel"
     points="7189.83,469.03 7189.83,386.198"
     id="polyline72"
     transform="translate(-305.41636,-350.28462)" />
  <polyline
     class="Stem"
     fill="none"
     stroke="#000000"
     stroke-width="2.48"
     stroke-linejoin="bevel"
     points="3382.52,481.43 3382.52,398.598"
     id="polyline73"
     transform="translate(-305.41636,-350.28462)" />
  <polyline
     class="Stem"
     fill="none"
     stroke="#000000"
     stroke-width="2.48"
     stroke-linejoin="bevel"
     points="1892.7,481.43 1892.7,398.598"
     id="polyline74"
     transform="translate(-305.41636,-350.28462)" />
  <polyline
     class="Stem"
     fill="none"
     stroke="#000000"
     stroke-width="2.48"
     stroke-linejoin="bevel"
     points="2223.77,506.23 2223.77,423.398"
     id="polyline75"
     transform="translate(-305.41636,-350.28462)" />
  <polyline
     class="Stem"
     fill="none"
     stroke="#000000"
     stroke-width="2.48"
     stroke-linejoin="bevel"
     points="7024.29,481.43 7024.29,398.598"
     id="polyline76"
     transform="translate(-305.41636,-350.28462)" />
  <polyline
     class="Stem"
     fill="none"
     stroke="#000000"
     stroke-width="2.48"
     stroke-linejoin="bevel"
     points="2058.23,493.83 2058.23,410.998"
     id="polyline77"
     transform="translate(-305.41636,-350.28462)" />
  <polyline
     class="Stem"
     fill="none"
     stroke="#000000"
     stroke-width="2.48"
     stroke-linejoin="bevel"
     points="568.416,481.43 568.416,398.598"
     id="polyline78"
     transform="translate(-305.41636,-350.28462)" />
  <polyline
     class="Stem"
     fill="none"
     stroke="#000000"
     stroke-width="2.48"
     stroke-linejoin="bevel"
     points="3548.05,493.83 3548.05,410.998"
     id="polyline79"
     transform="translate(-305.41636,-350.28462)" />
  <polyline
     class="Stem"
     fill="none"
     stroke="#000000"
     stroke-width="2.48"
     stroke-linejoin="bevel"
     points="7520.9,506.23 7520.9,423.398"
     id="polyline80"
     transform="translate(-305.41636,-350.28462)" />
  <polyline
     class="Stem"
     fill="none"
     stroke="#000000"
     stroke-width="2.48"
     stroke-linejoin="bevel"
     points="2885.91,481.43 2885.91,398.598"
     id="polyline81"
     transform="translate(-305.41636,-350.28462)" />
  <polyline
     class="Stem"
     fill="none"
     stroke="#000000"
     stroke-width="2.48"
     stroke-linejoin="bevel"
     points="6858.76,481.43 6858.76,398.598"
     id="polyline82"
     transform="translate(-305.41636,-350.28462)" />
  <polyline
     class="Stem"
     fill="none"
     stroke="#000000"
     stroke-width="2.48"
     stroke-linejoin="bevel"
     points="6693.22,456.63 6693.22,373.798"
     id="polyline83"
     transform="translate(-305.41636,-350.28462)" />
  <polyline
     class="Stem"
     fill="none"
     stroke="#000000"
     stroke-width="2.48"
     stroke-linejoin="bevel"
     points="2554.84,481.43 2554.84,398.598"
     id="polyline84"
     transform="translate(-305.41636,-350.28462)" />
  <path
     class="Hook"
     d="m 510.06264,58.434851 c 0,0.294525 0.093,0.790525 0.7905,1.08505 4.2625,1.39495 12.80298,6.758 19.25098,17.76295 1.78252,3.06905 4.66557,7.34705 4.66557,15.577575 0,7.145474 -1.89105,14.476954 -4.464,21.622424 -0.20157,0.60453 -0.40305,1.10053 -0.31,1.488 0,0.40305 0.10843,0.69758 0.496,0.89905 0.20148,0.093 0.40295,0.093 0.496,0.093 0.69748,0 1.19348,-0.38747 1.59643,-1.08495 4.66557,-8.246 6.24652,-18.755049 6.15357,-25.001474 0,-0.496 0,-0.790525 0,-1.193575 -0.496,-12.80295 -7.84305,-22.22695 -7.84305,-22.22695 0.29453,0 -9.12947,-12.198525 -11.811,-16.368 -3.658,-5.657525 -5.34749,-11.299525 -5.549,-11.702525 -0.093,-0.294495 -0.992,-3.875 -0.992,-3.875 -0.093,-0.3875 -0.589,-0.790505 -1.19349,-0.790505 -0.69751,0 -1.28651,0.604505 -1.28651,1.286505 v 22.428475"
     id="path84"
     style="stroke-width:0.992" />
  <path
     class="Hook"
     d="m 1503.2736,58.434851 c 0,0.294525 0.093,0.790525 0.7905,1.08505 4.2625,1.39495 12.803,6.758 19.251,17.76295 1.7825,3.06905 4.6656,7.34705 4.6656,15.577575 0,7.145474 -1.8911,14.476954 -4.464,21.622424 -0.2016,0.60453 -0.4031,1.10053 -0.31,1.488 0,0.40305 0.1084,0.69758 0.496,0.89905 0.2015,0.093 0.4029,0.093 0.496,0.093 0.6975,0 1.1935,-0.38747 1.5964,-1.08495 4.6656,-8.246 6.2465,-18.755049 6.1536,-25.001474 0,-0.496 0,-0.790525 0,-1.193575 -0.496,-12.80295 -7.8431,-22.22695 -7.8431,-22.22695 0.2946,0 -9.1294,-12.198525 -11.811,-16.368 -3.658,-5.657525 -5.3475,-11.299525 -5.549,-11.702525 -0.093,-0.294495 -0.992,-3.875 -0.992,-3.875 -0.093,-0.3875 -0.589,-0.790505 -1.1935,-0.790505 -0.6975,0 -1.2865,0.604505 -1.2865,1.286505 v 22.428475"
     id="path85"
     style="stroke-width:0.992" />
  <path
     class="Note"
     d="m 6687.8936,139.28288 c 0,4.2625 3.069,9.02102 11.1135,9.02102 10.3076,0 21.1265,-8.43202 21.1265,-17.15852 0,-5.859 -4.96,-9.12948 -11.1134,-9.12948 -9.6255,0 -21.1266,8.13748 -21.1266,17.26698"
     id="path86"
     style="stroke-width:0.992" />
  <path
     class="Note"
     d="m 728.62364,151.68288 c 0,4.2625 3.069,9.02102 11.11348,9.02102 10.30757,0 21.12652,-8.43202 21.12652,-17.15852 0,-5.859 -4.96,-9.12948 -11.11347,-9.12948 -9.62548,0 -21.12653,8.13748 -21.12653,17.26698"
     id="path87"
     style="stroke-width:0.992" />
  <path
     class="Note"
     d="m 7018.9636,151.68288 c 0,4.2625 3.069,9.02102 11.1135,9.02102 10.3076,0 21.1265,-8.43202 21.1265,-17.15852 0,-5.859 -4.96,-9.12948 -11.1134,-9.12948 -9.6255,0 -21.1266,8.13748 -21.1266,17.26698"
     id="path88"
     style="stroke-width:0.992" />
  <path
     class="Note"
     d="m 7205.6202,146.8159 c -9.6255,0 -21.1266,8.04448 -21.1266,17.26698 0,4.2625 3.069,9.02102 11.1135,9.02102 10.3076,0 21.1265,-8.43202 21.1265,-17.15852 0,-5.859 -4.96,-9.12948 -11.1134,-9.12948 m -2.6815,17.46848 c -0.2945,0.186 -7.5331,4.154 -11.0051,4.154 -3.2705,0 -3.968,-2.666 -3.968,-3.565 0,-4.1695 9.92,-9.021 10.3231,-9.22251 0.3875,-0.20149 7.44,-4.16949 11.0049,-4.16949 2.3871,0 3.968,1.395 3.968,3.565 0,4.278 -10.0129,9.0365 -10.3229,9.238"
     id="path89"
     style="stroke-width:0.992" />
  <path
     class="Note"
     d="m 5529.1436,114.48288 c 0,4.2625 3.069,9.02102 11.1135,9.02102 10.3076,0 21.1265,-8.43202 21.1265,-17.15852 0,-5.859 -4.96,-9.129479 -11.1134,-9.129479 -9.6255,0 -21.1266,8.137479 -21.1266,17.266979"
     id="path90"
     style="stroke-width:0.992" />
  <path
     class="Note"
     d="m 6853.4236,126.88288 c 0,4.2625 3.069,9.02102 11.1135,9.02102 10.3076,0 21.1265,-8.43202 21.1265,-17.15852 0,-5.859 -4.96,-9.12948 -11.1134,-9.12948 -9.6255,0 -21.1266,8.13748 -21.1266,17.26698"
     id="path91"
     style="stroke-width:0.992" />
  <path
     class="Note"
     d="m 5694.6836,102.08288 c 0,4.2625 3.069,9.02102 11.1135,9.02102 10.3076,0 21.1265,-8.43202 21.1265,-17.158524 0,-5.859 -4.96,-9.129475 -11.1134,-9.129475 -9.6255,0 -21.1266,8.137475 -21.1266,17.266979"
     id="path92"
     style="stroke-width:0.992" />
  <path
     class="Note"
     d="m 5860.2136,89.682881 c 0,4.262495 3.069,9.02102 11.1135,9.02102 10.3076,0 21.1265,-8.43202 21.1265,-17.158525 0,-5.859 -4.96,-9.129475 -11.1134,-9.129475 -9.6255,0 -21.1266,8.137475 -21.1266,17.26698"
     id="path93"
     style="stroke-width:0.992" />
  <path
     class="Note"
     d="m 6025.7536,77.282881 c 0,4.262495 3.069,9.02102 11.1135,9.02102 10.3076,0 21.1265,-8.43202 21.1265,-17.158525 0,-5.859 -4.96,-9.129475 -11.1134,-9.129475 -9.6255,0 -21.1266,8.137475 -21.1266,17.26698"
     id="path94"
     style="stroke-width:0.992" />
  <path
     class="Note"
     d="m 563.08564,139.28288 c 0,4.2625 3.069,9.02102 11.11348,9.02102 10.30757,0 21.12652,-8.43202 21.12652,-17.15852 0,-5.859 -4.96,-9.12948 -11.11347,-9.12948 -9.62548,0 -21.12653,8.13748 -21.12653,17.26698"
     id="path95"
     style="stroke-width:0.992" />
  <path
     class="Note"
     d="m 6522.3536,139.28288 c 0,4.2625 3.069,9.02102 11.1135,9.02102 10.3076,0 21.1265,-8.43202 21.1265,-17.15852 0,-5.859 -4.96,-9.12948 -11.1134,-9.12948 -9.6255,0 -21.1266,8.13748 -21.1266,17.26698"
     id="path96"
     style="stroke-width:0.992" />
  <path
     class="Note"
     d="m 480.31864,126.88288 c 0,4.2625 3.069,9.02102 11.11348,9.02102 10.30757,0 21.12652,-8.43202 21.12652,-17.15852 0,-5.859 -4.96,-9.12948 -11.11347,-9.12948 -9.62548,0 -21.12653,8.13748 -21.12653,17.26698"
     id="path97"
     style="stroke-width:0.992" />
  <path
     class="Note"
     d="m 6356.8236,114.48288 c 0,4.2625 3.069,9.02102 11.1135,9.02102 10.3076,0 21.1265,-8.43202 21.1265,-17.15852 0,-5.859 -4.96,-9.129479 -11.1134,-9.129479 -9.6255,0 -21.1266,8.137479 -21.1266,17.266979"
     id="path98"
     style="stroke-width:0.992" />
  <path
     class="Note"
     d="m 894.15364,164.08288 c 0,4.2625 3.069,9.02102 11.11348,9.02102 10.30757,0 21.12652,-8.43202 21.12652,-17.15852 0,-5.859 -4.96,-9.12948 -11.11347,-9.12948 -9.62548,0 -21.12653,8.13748 -21.12653,17.26698"
     id="path99"
     style="stroke-width:0.992" />
  <path
     class="Note"
     d="m 6191.2836,77.282881 c 0,4.262495 3.069,9.02102 11.1135,9.02102 10.3076,0 21.1265,-8.43202 21.1265,-17.158525 0,-5.859 -4.96,-9.129475 -11.1134,-9.129475 -9.6255,0 -21.1266,8.137475 -21.1266,17.26698"
     id="path100"
     style="stroke-width:0.992" />
  <path
     class="Note"
     d="m 5219.2002,109.6159 c -9.6255,0 -21.1266,8.04448 -21.1266,17.26698 0,4.2625 3.069,9.02102 11.1135,9.02102 10.3076,0 21.1265,-8.43202 21.1265,-17.15852 0,-5.859 -4.96,-9.12948 -11.1134,-9.12948 m -2.6815,17.46848 c -0.2945,0.186 -7.5331,4.154 -11.0051,4.154 -3.2705,0 -3.968,-2.666 -3.968,-3.565 0,-4.1695 9.92,-9.021 10.3231,-9.22251 0.3875,-0.20149 7.44,-4.16949 11.0049,-4.16949 2.3871,0 3.968,1.395 3.968,3.565 0,4.278 -10.0129,9.0365 -10.3229,9.238"
     id="path101"
     style="stroke-width:0.992" />
  <path
     class="Note"
     d="m 2239.5602,122.0159 c -9.6255,0 -21.1266,8.04448 -21.1266,17.26698 0,4.2625 3.069,9.02102 11.1135,9.02102 10.3076,0 21.1265,-8.43202 21.1265,-17.15852 0,-5.859 -4.96,-9.12948 -11.1134,-9.12948 m -2.6815,17.46848 c -0.2945,0.186 -7.5331,4.154 -11.0051,4.154 -3.2705,0 -3.968,-2.666 -3.968,-3.565 0,-4.1695 9.92,-9.021 10.3231,-9.22251 0.3875,-0.20149 7.44,-4.16949 11.0049,-4.16949 2.3871,0 3.968,1.395 3.968,3.565 0,4.278 -10.0129,9.0365 -10.3229,9.238"
     id="path102"
     style="stroke-width:0.992" />
  <path
     class="Note"
     d="m 2549.5136,139.28288 c 0,4.2625 3.069,9.02102 11.1135,9.02102 10.3076,0 21.1265,-8.43202 21.1265,-17.15852 0,-5.859 -4.96,-9.12948 -11.1134,-9.12948 -9.6255,0 -21.1266,8.13748 -21.1266,17.26698"
     id="path103"
     style="stroke-width:0.992" />
  <path
     class="Note"
     d="m 2052.9036,151.68288 c 0,4.2625 3.069,9.02102 11.1135,9.02102 10.3076,0 21.1265,-8.43202 21.1265,-17.15852 0,-5.859 -4.96,-9.12948 -11.1134,-9.12948 -9.6255,0 -21.1266,8.13748 -21.1266,17.26698"
     id="path104"
     style="stroke-width:0.992" />
  <path
     class="Note"
     d="m 1887.3636,164.08288 c 0,4.2625 3.069,9.02102 11.1135,9.02102 10.3076,0 21.1265,-8.43202 21.1265,-17.15852 0,-5.859 -4.96,-9.12948 -11.1134,-9.12948 -9.6255,0 -21.1266,8.13748 -21.1266,17.26698"
     id="path105"
     style="stroke-width:0.992" />
  <path
     class="Note"
     d="m 2715.0436,114.48288 c 0,4.2625 3.069,9.02102 11.1135,9.02102 10.3076,0 21.1265,-8.43202 21.1265,-17.15852 0,-5.859 -4.96,-9.129479 -11.1134,-9.129479 -9.6255,0 -21.1266,8.137479 -21.1266,17.266979"
     id="path106"
     style="stroke-width:0.992" />
  <path
     class="Note"
     d="m 2880.5836,126.88288 c 0,4.2625 3.069,9.02102 11.1135,9.02102 10.3076,0 21.1265,-8.43202 21.1265,-17.15852 0,-5.859 -4.96,-9.12948 -11.1134,-9.12948 -9.6255,0 -21.1266,8.13748 -21.1266,17.26698"
     id="path107"
     style="stroke-width:0.992" />
  <path
     class="Note"
     d="m 3046.1136,139.28288 c 0,4.2625 3.069,9.02102 11.1135,9.02102 10.3076,0 21.1265,-8.43202 21.1265,-17.15852 0,-5.859 -4.96,-9.12948 -11.1134,-9.12948 -9.6255,0 -21.1266,8.13748 -21.1266,17.26698"
     id="path108"
     style="stroke-width:0.992" />
  <path
     class="Note"
     d="m 1721.8336,151.68288 c 0,4.2625 3.069,9.02102 11.1135,9.02102 10.3076,0 21.1265,-8.43202 21.1265,-17.15852 0,-5.859 -4.96,-9.12948 -11.1134,-9.12948 -9.6255,0 -21.1266,8.13748 -21.1266,17.26698"
     id="path109"
     style="stroke-width:0.992" />
  <path
     class="Note"
     d="m 3232.7802,134.4159 c -9.6255,0 -21.1266,8.04448 -21.1266,17.26698 0,4.2625 3.069,9.02102 11.1135,9.02102 10.3076,0 21.1265,-8.43202 21.1265,-17.15852 0,-5.859 -4.96,-9.12948 -11.1134,-9.12948 m -2.6815,17.46848 c -0.2945,0.186 -7.5331,4.154 -11.0051,4.154 -3.2705,0 -3.968,-2.666 -3.968,-3.565 0,-4.1695 9.92,-9.021 10.3231,-9.22251 0.3875,-0.20149 7.44,-4.16949 11.0049,-4.16949 2.3871,0 3.968,1.395 3.968,3.565 0,4.278 -10.0129,9.0365 -10.3229,9.238"
     id="path110"
     style="stroke-width:0.992" />
  <path
     class="Note"
     d="m 1556.2936,139.28288 c 0,4.2625 3.069,9.02102 11.1135,9.02102 10.3076,0 21.1265,-8.43202 21.1265,-17.15852 0,-5.859 -4.96,-9.12948 -11.1134,-9.12948 -9.6255,0 -21.1266,8.13748 -21.1266,17.26698"
     id="path111"
     style="stroke-width:0.992" />
  <path
     class="Note"
     d="m 1473.5336,126.88288 c 0,4.2625 3.069,9.02102 11.1135,9.02102 10.3076,0 21.1265,-8.43202 21.1265,-17.15852 0,-5.859 -4.96,-9.12948 -11.1134,-9.12948 -9.6255,0 -21.1266,8.13748 -21.1266,17.26698"
     id="path112"
     style="stroke-width:0.992" />
  <path
     class="Note"
     d="m 3729.3802,134.4159 c -9.6255,0 -21.1266,8.04448 -21.1266,17.26698 0,4.2625 3.069,9.02102 11.1135,9.02102 10.3076,0 21.1265,-8.43202 21.1265,-17.15852 0,-5.859 -4.96,-9.12948 -11.1134,-9.12948 m -2.6815,17.46848 c -0.2945,0.186 -7.5331,4.154 -11.0051,4.154 -3.2705,0 -3.968,-2.666 -3.968,-3.565 0,-4.1695 9.92,-9.021 10.3231,-9.22251 0.3875,-0.20149 7.44,-4.16949 11.0049,-4.16949 2.3871,0 3.968,1.395 3.968,3.565 0,4.278 -10.0129,9.0365 -10.3229,9.238"
     id="path113"
     style="stroke-width:0.992" />
  <path
     class="Note"
     d="m 4039.3236,139.28288 c 0,4.2625 3.069,9.02102 11.1135,9.02102 10.3076,0 21.1265,-8.43202 21.1265,-17.15852 0,-5.859 -4.96,-9.12948 -11.1134,-9.12948 -9.6255,0 -21.1266,8.13748 -21.1266,17.26698"
     id="path114"
     style="stroke-width:0.992" />
  <path
     class="Note"
     d="m 5032.5336,139.28288 c 0,4.2625 3.069,9.02102 11.1135,9.02102 10.3076,0 21.1265,-8.43202 21.1265,-17.15852 0,-5.859 -4.96,-9.12948 -11.1134,-9.12948 -9.6255,0 -21.1266,8.13748 -21.1266,17.26698"
     id="path115"
     style="stroke-width:0.992" />
  <path
     class="Note"
     d="m 4722.5902,109.6159 c -9.6255,0 -21.1266,8.04448 -21.1266,17.26698 0,4.2625 3.069,9.02102 11.1135,9.02102 10.3076,0 21.1265,-8.43202 21.1265,-17.15852 0,-5.859 -4.96,-9.12948 -11.1134,-9.12948 m -2.6815,17.46848 c -0.2945,0.186 -7.5331,4.154 -11.0051,4.154 -3.2705,0 -3.968,-2.666 -3.968,-3.565 0,-4.1695 9.92,-9.021 10.3231,-9.22251 0.3875,-0.20149 7.44,-4.16949 11.0049,-4.16949 2.3871,0 3.968,1.395 3.968,3.565 0,4.278 -10.0129,9.0365 -10.3229,9.238"
     id="path116"
     style="stroke-width:0.992" />
  <path
     class="Note"
     d="m 4204.8636,126.88288 c 0,4.2625 3.069,9.02102 11.1135,9.02102 10.3076,0 21.1265,-8.43202 21.1265,-17.15852 0,-5.859 -4.96,-9.12948 -11.1134,-9.12948 -9.6255,0 -21.1266,8.13748 -21.1266,17.26698"
     id="path117"
     style="stroke-width:0.992" />
  <path
     class="Note"
     d="m 1059.6936,151.68288 c 0,4.2625 3.069,9.02102 11.1135,9.02102 10.3076,0 21.1265,-8.43202 21.1265,-17.15852 0,-5.859 -4.96,-9.12948 -11.1134,-9.12948 -9.6255,0 -21.1266,8.13748 -21.1266,17.26698"
     id="path118"
     style="stroke-width:0.992" />
  <path
     class="Note"
     d="m 1225.2236,139.28288 c 0,4.2625 3.069,9.02102 11.1135,9.02102 10.3076,0 21.1265,-8.43202 21.1265,-17.15852 0,-5.859 -4.96,-9.12948 -11.1134,-9.12948 -9.6255,0 -21.1266,8.13748 -21.1266,17.26698"
     id="path119"
     style="stroke-width:0.992" />
  <path
     class="Note"
     d="m 4370.3936,126.88288 c 0,4.2625 3.069,9.02102 11.1135,9.02102 10.3076,0 21.1265,-8.43202 21.1265,-17.15852 0,-5.859 -4.96,-9.12948 -11.1134,-9.12948 -9.6255,0 -21.1266,8.13748 -21.1266,17.26698"
     id="path120"
     style="stroke-width:0.992" />
  <path
     class="Note"
     d="m 4535.9336,139.28288 c 0,4.2625 3.069,9.02102 11.1135,9.02102 10.3076,0 21.1265,-8.43202 21.1265,-17.15852 0,-5.859 -4.96,-9.12948 -11.1134,-9.12948 -9.6255,0 -21.1266,8.13748 -21.1266,17.26698"
     id="path121"
     style="stroke-width:0.992" />
  <path
     class="Note"
     d="m 232.01564,139.28288 c 0,4.2625 3.069,9.02102 11.11348,9.02102 10.30757,0 21.12652,-8.43202 21.12652,-17.15852 0,-5.859 -4.96,-9.12948 -11.11347,-9.12948 -9.62548,0 -21.12653,8.13748 -21.12653,17.26698"
     id="path122"
     style="stroke-width:0.992" />
  <path
     class="Clef"
     d="m 109.99912,112.39038 c 0,7.0525 -2.88295,14.291 -9.92,17.17405 -2.076953,-11.90405 -4.758429,-27.68305 -5.456003,-32.054104 8.928003,0 15.376003,6.060544 15.376003,14.880054 m -14.089478,18.35205 c -1.984,0.40295 -3.859475,0.60442 -5.750525,0.60442 -14.182426,0 -26.28797,-9.92 -26.28797,-24.90847 0,-12.090054 8.52502,-22.909004 17.26702,-30.457529 1.674,-1.488 3.270524,-2.867475 4.758524,-4.355475 0.883476,5.347475 1.580951,10.01295 2.278426,14.089475 -9.036426,2.681475 -15.174426,12.198525 -15.174426,21.529529 0,6.944 5.456,16.461 13.392,16.461 0.790426,0 1.689476,-0.40295 1.689476,-1.28653 0,-0.89895 -0.992,-1.39495 -2.185476,-2.18547 -3.875049,-2.387 -6.060524,-4.96 -6.060524,-9.827 0,-6.045 4.464,-10.912054 10.32295,-12.291529 l 5.750525,32.627579 M 87.183117,28.767901 c 0.89905,-3.968 5.456,-14.384 10.617574,-14.384 1.488,0 3.859479,4.851475 3.859479,11.702425 0,10.32305 -7.626003,18.057575 -14.477053,24.8 -0.58895,-3.968 -1.08495,-7.827475 -1.08495,-11.99695 0,-3.673475 0.294524,-7.052525 1.08495,-10.121475 m -20.832,132.431999 c 0,6.55653 5.05305,15.19 18.44505,15.19 4.665475,0 8.742,-1.19347 12.30695,-3.37905 5.363053,-3.76642 6.742523,-10.32295 6.742523,-16.56947 0,-3.85948 -0.58895,-8.32348 -1.58095,-13.98095 -0.29452,-1.984 -0.89905,-4.96 -1.488,-8.83505 9.71843,-3.17748 16.95695,-13.29895 16.95695,-23.5135 0,-14.973029 -10.61747,-25.094504 -25.094523,-25.094504 -0.992,-5.952 -1.984,-11.81105 -2.88295,-17.36 10.524523,-11.020525 17.762953,-23.420525 17.762953,-39.184 0,-9.036525 -2.77443,-16.368 -4.37095,-19.948128 C 100.77669,3.472 97.893642,0 96.111117,0 c -0.697475,0 -3.766426,1.193376 -7.03695,5.053248 -6.35505,7.548128 -8.137476,20.242653 -8.137476,28.566128 0,5.36295 0.496,10.23 2.185476,21.343475 -0.108525,0.09305 -5.27,5.347475 -7.34705,7.03705 -9.036426,8.432 -21.529475,20.42895 -21.529475,40.284479 0,18.53805 16.166525,33.12352 34.627049,33.12352 2.867476,0 5.548951,-0.29452 7.827476,-0.69747 1.89095,9.53242 2.976,16.47642 2.976,21.73095 0,10.32305 -5.254525,15.77905 -15.267476,15.77905 -2.387049,0 -4.464,-0.496 -4.665574,-0.496 -0.09295,-0.10853 -0.294426,-0.20158 -0.294426,-0.29453 0,-0.20147 0.201476,-0.31 0.496,-0.40305 4.665476,-0.69747 9.315476,-4.66547 9.315476,-11.00495 0,-5.36305 -4.06105,-11.02052 -11.50105,-11.02052 -6.944,0 -11.408,5.65747 -11.408,12.19852"
     id="path123"
     style="stroke-width:0.992" />
  <path
     class="Clef"
     d="m 79.448691,296.22033 c -7.548524,0 -13.593574,4.35557 -13.702,4.35557 -5.750544,4.26243 -8.029049,9.33095 -8.928049,12.80297 -0.496,1.78251 -0.682,3.565 -0.682,5.25451 0,2.387 0.387505,4.557 1.286505,6.448 1.193495,2.6815 3.472,4.557 6.448,5.549 1.193544,0.403 2.47997,0.60447 3.766495,0.60447 2.185475,0 4.464,-0.60447 6.355049,-1.68947 3.068951,-1.6895 4.96,-5.2545 4.96,-9.1295 0,-3.47201 -1.798,-6.6495 -4.774,-8.52501 -2.077049,-1.39497 -4.061049,-1.78254 -5.750524,-1.78254 -1.193476,0 -2.278525,0.186 -3.177476,0.496 -0.992,0.38757 -2.666049,1.37954 -3.472049,2.07705 0.31,-1.89105 1.488,-4.75853 2.588475,-6.35505 1.08505,-1.58095 3.270525,-3.56495 4.96,-4.464 2.48,-1.37948 5.657574,-1.984 9.129574,-1.984 10.121476,0 15.081476,8.13757 15.081476,24.80005 0,9.23805 -3.472,18.05752 -6.448,23.91647 -3.286,6.54105 -7.641476,12.80305 -11.516525,16.27505 -10.322951,9.424 -20.041495,13.888 -20.134495,13.888 0,0 -1.193505,0.682 -1.193505,1.87548 0,0.20147 0.093,0.29452 0.093,0.496 0.31,0.992 1.193505,1.19347 1.798,1.19347 0.093,0 0.387505,-0.093 0.496,-0.093 0.093,0 11.408049,-4.66547 20.429,-11.718 5.068525,-3.658 9.625475,-7.626 13.593475,-11.904 3.56505,-3.85947 6.649574,-8.02905 9.129574,-12.19852 4.355479,-7.44 6.835479,-15.17453 6.835479,-21.824 0,-8.23051 -2.17,-15.08148 -6.24653,-19.93305 -4.665473,-5.56443 -11.702523,-8.432 -20.924949,-8.432 m 31.139479,12.586 c 0,2.79005 2.18547,4.96005 4.774,4.96005 2.57295,0 4.75852,-2.17 4.75852,-4.96005 0,-2.77443 -2.18557,-5.05295 -4.75852,-5.05295 -2.58853,0 -4.774,2.27852 -4.774,5.05295 m 0,24.50557 c 0,2.77453 2.18547,5.06853 4.774,5.06853 2.57295,0 4.75852,-2.294 4.75852,-5.06853 0,-2.77452 -2.18557,-5.05302 -4.75852,-5.05302 -2.58853,0 -4.774,2.2785 -4.774,5.05302"
     id="path124"
     style="stroke-width:0.992" />
  <path
     class="TimeSig"
     d="m 168.23312,56.450871 c -6.06043,0 -8.23043,1.782505 -9.62548,3.270505 -0.29452,-2.077 -0.496,-3.673505 -0.496,-5.254505 0,-1.596495 0.20148,-2.976 0.496,-4.758545 0.58905,-3.673475 3.06905,-8.246 8.432,-8.246 2.48,0 3.968,0.806 4.96,1.89105 -2.07695,0.89895 -3.76652,3.56495 -3.76652,5.85895 0,3.56505 2.77452,6.339545 6.35505,6.339545 3.56495,0 6.448,-2.774495 6.448,-6.339545 v -0.201475 c 0,0 0,0 0,-0.108525 0,-0.883475 -0.20148,-2.371475 -0.60453,-3.162 -1.28652,-3.580425 -5.456,-8.83495 -15.376,-8.83495 -8.928,0 -15.376,8.52495 -17.36,13.097475 -0.992,2.371525 -2.48,7.238525 -2.48,12.787525 0,6.060505 1.68951,12.89605 7.533,18.057525 5.76605,4.37095 9.42405,4.572525 12.89605,4.572525 3.48748,0 16.47643,-4.076525 16.47643,-15.577545 0,-9.718505 -7.64148,-13.39201 -13.888,-13.39201 m -3.67348,24.79998 c -3.27052,0 -5.952,-4.464 -5.952,-10.028425 0,-5.54905 2.68148,-10.10605 5.952,-10.10605 3.27053,0 6.06053,4.557 6.06053,10.10605 0,5.564425 -2.79,10.028425 -6.06053,10.028425"
     id="path125"
     style="stroke-width:0.992" />
  <path
     class="TimeSig"
     d="m 175.57969,108.28287 c 3.27043,-2.48 5.54895,-5.65749 5.54895,-9.625494 0,-7.145475 -7.82747,-12.98905 -17.45295,-12.98905 -9.62557,0 -17.46854,5.843575 -17.46854,12.98905 0,3.968004 0.992,7.533004 5.65749,10.509004 -4.464,2.5885 -6.944,6.262 -6.944,11.02047 0,8.02905 8.432,14.47705 18.75505,14.47705 10.30748,0 18.73948,-6.448 18.73948,-14.47705 0,-4.75847 -1.674,-9.22247 -6.83548,-11.90398 m -11.904,20.83198 c -6.35505,0 -11.81105,-3.472 -11.81105,-9.03642 0,-6.63405 5.16148,-8.23055 5.16148,-8.23055 6.74252,2.2785 16.368,5.6575 16.368,11.1135 0,2.68147 -3.472,6.15347 -9.71843,6.15347 m 6.33948,-23.51347 c -6.74253,-2.18551 -14.18253,-5.456 -14.18253,-9.920004 0,-3.87505 3.56505,-5.456 7.84305,-5.456 6.15348,0 10.30748,2.88295 10.30748,7.44 0,4.758494 -2.17,7.037004 -3.968,7.936004"
     id="path126"
     style="stroke-width:0.992" />
  <path
     class="TimeSig"
     d="m 168.23312,316.85087 c -6.06043,0 -8.23043,1.78251 -9.62548,3.27051 -0.29452,-2.077 -0.496,-3.67351 -0.496,-5.25451 0,-1.59649 0.20148,-2.976 0.496,-4.75854 0.58905,-3.67348 3.06905,-8.246 8.432,-8.246 2.48,0 3.968,0.806 4.96,1.89105 -2.07695,0.89895 -3.76652,3.56495 -3.76652,5.85895 0,3.56505 2.77452,6.33954 6.35505,6.33954 3.56495,0 6.448,-2.77449 6.448,-6.33954 v -0.20148 c 0,0 0,0 0,-0.10852 0,-0.88348 -0.20148,-2.37148 -0.60453,-3.162 -1.28652,-3.58043 -5.456,-8.83495 -15.376,-8.83495 -8.928,0 -15.376,8.52495 -17.36,13.09747 -0.992,2.37153 -2.48,7.23853 -2.48,12.78753 0,6.0605 1.68951,12.89605 7.533,18.05752 5.76605,4.37095 9.42405,4.57253 12.89605,4.57253 3.48748,0 16.47643,-4.07653 16.47643,-15.57755 0,-9.7185 -7.64148,-13.39201 -13.888,-13.39201 m -3.67348,24.79998 c -3.27052,0 -5.952,-4.464 -5.952,-10.02842 0,-5.54905 2.68148,-10.10605 5.952,-10.10605 3.27053,0 6.06053,4.557 6.06053,10.10605 0,5.56442 -2.79,10.02842 -6.06053,10.02842"
     id="path127"
     style="stroke-width:0.992" />
  <path
     class="TimeSig"
     d="m 175.57969,368.68287 c 3.27043,-2.48 5.54895,-5.65749 5.54895,-9.62549 0,-7.14548 -7.82747,-12.98905 -17.45295,-12.98905 -9.62557,0 -17.46854,5.84357 -17.46854,12.98905 0,3.968 0.992,7.533 5.65749,10.509 -4.464,2.5885 -6.944,6.262 -6.944,11.02047 0,8.02905 8.432,14.47705 18.75505,14.47705 10.30748,0 18.73948,-6.448 18.73948,-14.47705 0,-4.75847 -1.674,-9.22247 -6.83548,-11.90398 m -11.904,20.83198 c -6.35505,0 -11.81105,-3.472 -11.81105,-9.03642 0,-6.63405 5.16148,-8.23055 5.16148,-8.23055 6.74252,2.2785 16.368,5.6575 16.368,11.1135 0,2.68147 -3.472,6.15347 -9.71843,6.15347 m 6.33948,-23.51347 c -6.74253,-2.18551 -14.18253,-5.456 -14.18253,-9.92 0,-3.87505 3.56505,-5.456 7.84305,-5.456 6.15348,0 10.30748,2.88295 10.30748,7.44 0,4.75849 -2.17,7.037 -3.968,7.936"
     id="path128"
     style="stroke-width:0.992" />
  <path
     class="Rest"
     d="m 7538.3796,101.97443 c -0.093,-0.0931 -0.2945,-0.29453 -0.5889,-0.682 l -11.408,-14.089549 c -0.1085,-0.108505 -0.2016,-0.403 -0.2016,-0.604505 0,-0.2945 0.093,-0.682 0.2016,-0.8835 l 10.106,-15.282975 c 0.1084,-0.201575 0.2015,-0.496 0.2015,-0.697575 v -0.883475 c 0,-0.294525 -0.093,-0.604525 -0.2946,-0.790525 l -16.0735,-21.73095 c 0,0 -0.3875,-0.604525 -0.992,-0.604525 -0.2945,0 -0.496,0.108525 -0.7905,0.31 -0.403,0.294525 -0.496,0.682 -0.496,0.992 0,0.58905 0.2945,1.08505 0.2945,1.08505 l 7.5486,10.32295 c 0.186,0.294525 0.2944,0.682 0.2944,1.178 0,0.40305 -0.1084,0.89905 -0.2944,1.193475 l -10.0286,15.28305 c -0.093,0.201495 -0.2015,0.589 -0.2015,0.790495 v 0.899 c 0,0.294505 0.1085,0.589 0.31,0.790505 l 11.0981,13.795 c -0.3876,-0.108495 -1.2865,-0.31 -2.4801,-0.31 -1.674,0 -3.8595,0.403 -5.642,1.984 -2.1855,1.98405 -3.379,4.77405 -3.379,7.254054 0,1.37947 0.2945,2.77442 1.085,3.85947 2.0925,3.17748 9.5325,12.60148 9.5325,12.60148 0,0 0.496,0.60452 1.1936,0.60452 0.186,0 0.3875,0 0.5889,-0.20147 0.496,-0.40305 0.6975,-0.79053 0.6975,-1.19358 0,-0.40295 -0.2015,-0.69747 -0.2944,-0.89895 -0.31,-0.496 -3.4721,-6.24652 -3.4721,-6.24652 0,0 -0.6975,-1.39495 -0.6975,-3.17748 0,-1.28652 0.3875,-2.86747 1.6896,-4.16947 1.178,-1.178 2.5729,-1.58105 3.8595,-1.58105 1.2865,0 2.3869,0.40305 3.1774,0.89905 l 3.8751,2.48 c 0,0 0.3875,0.186 0.7904,0.186 0.3876,0 0.6976,-0.0931 0.992,-0.496 0.2016,-0.38758 0.2945,-0.58905 0.2945,-0.88358 0,-0.29442 -0.093,-0.496 -0.2945,-0.79042 l -0.2015,-0.31"
     id="path129"
     style="stroke-width:0.992" />
  <path
     class="Rest"
     d="m 5903.4686,320.61738 c -0.806,0 -1.395,0.589 -1.395,1.395 v 10.71047 c 0,0.79053 0.589,1.37958 1.395,1.37958 h 29.4656 c 0.7905,0 1.3794,-0.58905 1.3794,-1.37958 v -10.71047 c 0,-0.806 -0.5889,-1.395 -1.3794,-1.395 h -29.4656"
     id="path130"
     style="stroke-width:0.992" />
  <path
     class="Rest"
     d="m 7418.0786,320.61738 c -0.806,0 -1.395,0.589 -1.395,1.395 v 10.71047 c 0,0.79053 0.589,1.37958 1.395,1.37958 h 29.4656 c 0.7905,0 1.3794,-0.58905 1.3794,-1.37958 v -10.71047 c 0,-0.806 -0.5889,-1.395 -1.3794,-1.395 h -29.4656"
     id="path131"
     style="stroke-width:0.992" />
  <path
     class="Rest"
     d="m 5406.8586,320.61738 c -0.806,0 -1.395,0.589 -1.395,1.395 v 10.71047 c 0,0.79053 0.589,1.37958 1.395,1.37958 h 29.4656 c 0.7905,0 1.3794,-0.58905 1.3794,-1.37958 v -10.71047 c 0,-0.806 -0.5889,-1.395 -1.3794,-1.395 h -29.4656"
     id="path132"
     style="stroke-width:0.992" />
  <path
     class="Rest"
     d="m 2427.2286,320.61738 c -0.806,0 -1.395,0.589 -1.395,1.395 v 10.71047 c 0,0.79053 0.589,1.37958 1.395,1.37958 h 29.4656 c 0.7905,0 1.3794,-0.58905 1.3794,-1.37958 v -10.71047 c 0,-0.806 -0.5889,-1.395 -1.3794,-1.395 h -29.4656"
     id="path133"
     style="stroke-width:0.992" />
  <path
     class="Rest"
     d="m 937.40864,320.61738 c -0.806,0 -1.395,0.589 -1.395,1.395 v 10.71047 c 0,0.79053 0.589,1.37958 1.395,1.37958 h 29.46553 c 0.79052,0 1.37947,-0.58905 1.37947,-1.37958 v -10.71047 c 0,-0.806 -0.58895,-1.395 -1.37947,-1.395 h -29.46553"
     id="path134"
     style="stroke-width:0.992" />
  <path
     class="Rest"
     d="m 1434.0086,320.61738 c -0.806,0 -1.395,0.589 -1.395,1.395 v 10.71047 c 0,0.79053 0.589,1.37958 1.395,1.37958 h 29.4656 c 0.7905,0 1.3794,-0.58905 1.3794,-1.37958 v -10.71047 c 0,-0.806 -0.5889,-1.395 -1.3794,-1.395 h -29.4656"
     id="path135"
     style="stroke-width:0.992" />
  <path
     class="Rest"
     d="m 4910.2486,320.61738 c -0.806,0 -1.395,0.589 -1.395,1.395 v 10.71047 c 0,0.79053 0.589,1.37958 1.395,1.37958 h 29.4656 c 0.7905,0 1.3794,-0.58905 1.3794,-1.37958 v -10.71047 c 0,-0.806 -0.5889,-1.395 -1.3794,-1.395 h -29.4656"
     id="path136"
     style="stroke-width:0.992" />
  <path
     class="Rest"
     d="m 3917.0386,320.61738 c -0.806,0 -1.395,0.589 -1.395,1.395 v 10.71047 c 0,0.79053 0.589,1.37958 1.395,1.37958 h 29.4656 c 0.7905,0 1.3794,-0.58905 1.3794,-1.37958 v -10.71047 c 0,-0.806 -0.5889,-1.395 -1.3794,-1.395 h -29.4656"
     id="path137"
     style="stroke-width:0.992" />
  <path
     class="Rest"
     d="m 2923.8286,320.61738 c -0.806,0 -1.395,0.589 -1.395,1.395 v 10.71047 c 0,0.79053 0.589,1.37958 1.395,1.37958 h 29.4656 c 0.7905,0 1.3794,-0.58905 1.3794,-1.37958 v -10.71047 c 0,-0.806 -0.5889,-1.395 -1.3794,-1.395 h -29.4656"
     id="path138"
     style="stroke-width:0.992" />
  <path
     class="Rest"
     d="m 4413.6486,320.61738 c -0.806,0 -1.395,0.589 -1.395,1.395 v 10.71047 c 0,0.79053 0.589,1.37958 1.395,1.37958 h 29.4656 c 0.7905,0 1.3794,-0.58905 1.3794,-1.37958 v -10.71047 c 0,-0.806 -0.5889,-1.395 -1.3794,-1.395 h -29.4656"
     id="path139"
     style="stroke-width:0.992" />
  <path
     class="Rest"
     d="m 6896.6786,320.61738 c -0.806,0 -1.395,0.589 -1.395,1.395 v 10.71047 c 0,0.79053 0.589,1.37958 1.395,1.37958 h 29.4656 c 0.7905,0 1.3794,-0.58905 1.3794,-1.37958 v -10.71047 c 0,-0.806 -0.5889,-1.395 -1.3794,-1.395 h -29.4656"
     id="path140"
     style="stroke-width:0.992" />
  <path
     class="Rest"
     d="m 6400.0686,320.61738 c -0.806,0 -1.395,0.589 -1.395,1.395 v 10.71047 c 0,0.79053 0.589,1.37958 1.395,1.37958 h 29.4656 c 0.7905,0 1.3794,-0.58905 1.3794,-1.37958 v -10.71047 c 0,-0.806 -0.5889,-1.395 -1.3794,-1.395 h -29.4656"
     id="path141"
     style="stroke-width:0.992" />
  <path
     class="Rest"
     d="m 1930.6186,320.61738 c -0.806,0 -1.395,0.589 -1.395,1.395 v 10.71047 c 0,0.79053 0.589,1.37958 1.395,1.37958 h 29.4656 c 0.7905,0 1.3794,-0.58905 1.3794,-1.37958 v -10.71047 c 0,-0.806 -0.5889,-1.395 -1.3794,-1.395 h -29.4656"
     id="path142"
     style="stroke-width:0.992" />
  <path
     class="Rest"
     d="m 3420.4386,320.61738 c -0.806,0 -1.395,0.589 -1.395,1.395 v 10.71047 c 0,0.79053 0.589,1.37958 1.395,1.37958 h 29.4656 c 0.7905,0 1.3794,-0.58905 1.3794,-1.37958 v -10.71047 c 0,-0.806 -0.5889,-1.395 -1.3794,-1.395 h -29.4656"
     id="path143"
     style="stroke-width:0.992" />
  <path
     class="Rest"
     d="m 416.00164,320.61738 c -0.806,0 -1.395,0.589 -1.395,1.395 v 10.71047 c 0,0.79053 0.589,1.37958 1.395,1.37958 h 29.46553 c 0.79052,0 1.37947,-0.58905 1.37947,-1.37958 v -10.71047 c 0,-0.806 -0.58895,-1.395 -1.37947,-1.395 h -29.46553"
     id="path144"
     style="stroke-width:0.992" />
  <path
     class="NoteDot"
     d="m 1269.8536,122.71338 c 0,2.7745 2.1855,4.96 4.96,4.96 2.7745,0 4.96,-2.1855 4.96,-4.96 0,-2.77451 -2.1855,-4.96 -4.96,-4.96 -2.7745,0 -4.96,2.18549 -4.96,4.96"
     id="path145"
     style="stroke-width:0.992" />
  <path
     class="NoteDot"
     d="m 276.63964,122.71338 c 0,2.7745 2.18551,4.96 4.96,4.96 2.77451,0 4.96,-2.1855 4.96,-4.96 0,-2.77451 -2.18549,-4.96 -4.96,-4.96 -2.77449,0 -4.96,2.18549 -4.96,4.96"
     id="path146"
     style="stroke-width:0.992" />
  <path
     class="NoteDot"
     d="m 3256.2736,147.51338 c 0,2.7745 2.1855,4.96 4.96,4.96 2.7745,0 4.96,-2.1855 4.96,-4.96 0,-2.77451 -2.1855,-4.96 -4.96,-4.96 -2.7745,0 -4.96,2.18549 -4.96,4.96"
     id="path147"
     style="stroke-width:0.992" />
  <path
     class="Bracket"
     d="m 3.3985167,215.71338 c 6.4615805,-6.85506 19.0475803,-20.84566 19.0475803,-46.748 0,-32.75741 -14.0468748,-65.85175 -14.0468748,-86.304004 0,-21.969402 12.5859998,-42.47775 13.3164198,-43.152 0,-0.393402 0,-0.393402 0,-0.730348 0,-0.393402 0,-0.730707 -0.337125,-1.067652 -0.393295,0 -1.12375,0 -1.460875,0.67425 -0.337125,0.393402 -19.77800025,19.778 -19.77800025,49.276348 0,31.633656 12.58600025,53.939996 12.58600025,95.293996 0,7.92235 -3.2588753,20.50835 -12.24887525,31.68975 -0.337125,0 -0.337125,0.67425 -0.337125,1.06766 -0.337125,0.33694 0,0.73034 0.337125,1.06765 8.98999995,11.12494 12.24887525,23.71094 12.24887525,31.63329 0,41.354 -12.58600025,63.66071 -12.58600025,95.294 0,29.16148 19.44087525,48.93949 19.77800025,49.27662 0.337125,0.73044 1.06758,1.06756 1.460875,0.73044 0.337125,-0.33713 0.67425,-0.73044 0.337125,-1.06757 0,0 0,-0.39331 0,-0.73043 -0.73042,-0.73046 -13.3164198,-21.23888 -13.3164198,-43.152 0,-20.50835 14.0468748,-53.60306 14.0468748,-86.304 0,-26.23966 -12.5859998,-39.94941 -19.0475803,-46.748"
     id="path148"
     style="stroke-width:3.596" />
</svg>
