<?xml version="1.0" encoding="UTF-8" standalone="no"?>
<svg
   width="471.47928mm"
   height="28.001974mm"
   viewBox="0 0 6682.3835 396.87838"
   version="1.2"
   id="svg101"
   sodipodi:docname="MaryHadALittleLamb.svg"
   inkscape:version="1.4.2 (ebf0e94, 2025-05-08)"
   xmlns:inkscape="http://www.inkscape.org/namespaces/inkscape"
   xmlns:sodipodi="http://sodipodi.sourceforge.net/DTD/sodipodi-0.dtd"
   xmlns="http://www.w3.org/2000/svg"
   xmlns:svg="http://www.w3.org/2000/svg">
  <defs
     id="defs101" />
  <sodipodi:namedview
     id="namedview101"
     pagecolor="#ffffff"
     bordercolor="#000000"
     borderopacity="0.25"
     inkscape:showpageshadow="2"
     inkscape:pageopacity="0.0"
     inkscape:pagecheckerboard="0"
     inkscape:deskcolor="#d1d1d1"
     inkscape:document-units="mm"
     inkscape:zoom="0.4703125"
     inkscape:cx="879.20266"
     inkscape:cy="433.75415"
     inkscape:window-width="1025"
     inkscape:window-height="1026"
     inkscape:window-x="0"
     inkscape:window-y="0"
     inkscape:window-maximized="0"
     inkscape:current-layer="svg101" />
  <title
     id="title1">Untitled score</title>
  <desc
     id="desc1">Generated by MuseScore Studio 4.5.2</desc>
  <polyline
     class="StaffLines"
     fill="none"
     stroke="#000000"
     stroke-width="2.73"
     stroke-linejoin="bevel"
     points="336.598,386.198 6987.8,386.198"
     id="polyline1"
     transform="translate(-305.41636,-350.28462)" />
  <polyline
     class="StaffLines"
     fill="none"
     stroke="#000000"
     stroke-width="2.73"
     stroke-linejoin="bevel"
     points="336.598,410.998 6987.8,410.998"
     id="polyline2"
     transform="translate(-305.41636,-350.28462)" />
  <polyline
     class="StaffLines"
     fill="none"
     stroke="#000000"
     stroke-width="2.73"
     stroke-linejoin="bevel"
     points="336.598,435.798 6987.8,435.798"
     id="polyline3"
     transform="translate(-305.41636,-350.28462)" />
  <polyline
     class="StaffLines"
     fill="none"
     stroke="#000000"
     stroke-width="2.73"
     stroke-linejoin="bevel"
     points="336.598,460.598 6987.8,460.598"
     id="polyline4"
     transform="translate(-305.41636,-350.28462)" />
  <polyline
     class="StaffLines"
     fill="none"
     stroke="#000000"
     stroke-width="2.73"
     stroke-linejoin="bevel"
     points="336.598,485.398 6987.8,485.398"
     id="polyline5"
     transform="translate(-305.41636,-350.28462)" />
  <polyline
     class="StaffLines"
     fill="none"
     stroke="#000000"
     stroke-width="2.73"
     stroke-linejoin="bevel"
     points="336.598,646.598 6987.8,646.598"
     id="polyline6"
     transform="translate(-305.41636,-350.28462)" />
  <polyline
     class="StaffLines"
     fill="none"
     stroke="#000000"
     stroke-width="2.73"
     stroke-linejoin="bevel"
     points="336.598,671.398 6987.8,671.398"
     id="polyline7"
     transform="translate(-305.41636,-350.28462)" />
  <polyline
     class="StaffLines"
     fill="none"
     stroke="#000000"
     stroke-width="2.73"
     stroke-linejoin="bevel"
     points="336.598,696.198 6987.8,696.198"
     id="polyline8"
     transform="translate(-305.41636,-350.28462)" />
  <polyline
     class="StaffLines"
     fill="none"
     stroke="#000000"
     stroke-width="2.73"
     stroke-linejoin="bevel"
     points="336.598,720.998 6987.8,720.998"
     id="polyline9"
     transform="translate(-305.41636,-350.28462)" />
  <polyline
     class="StaffLines"
     fill="none"
     stroke="#000000"
     stroke-width="2.73"
     stroke-linejoin="bevel"
     points="336.598,745.798 6987.8,745.798"
     id="polyline10"
     transform="translate(-305.41636,-350.28462)" />
  <polyline
     class="BarLine"
     fill="none"
     stroke="#000000"
     stroke-width="4.46"
     stroke-linejoin="bevel"
     points="6110.88,384.834 6110.88,646.598"
     id="polyline11"
     transform="translate(-305.41636,-350.28462)" />
  <polyline
     class="BarLine"
     fill="none"
     stroke="#000000"
     stroke-width="4.46"
     stroke-linejoin="bevel"
     points="1297.28,384.834 1297.28,646.598"
     id="polyline12"
     transform="translate(-305.41636,-350.28462)" />
  <polyline
     class="BarLine"
     fill="none"
     stroke="#000000"
     stroke-width="4.46"
     stroke-linejoin="bevel"
     points="5308.61,384.834 5308.61,646.598"
     id="polyline13"
     transform="translate(-305.41636,-350.28462)" />
  <polyline
     class="BarLine"
     fill="none"
     stroke="#000000"
     stroke-width="4.46"
     stroke-linejoin="bevel"
     points="4506.35,384.834 4506.35,646.598"
     id="polyline14"
     transform="translate(-305.41636,-350.28462)" />
  <polyline
     class="BarLine"
     fill="none"
     stroke="#000000"
     stroke-width="4.46"
     stroke-linejoin="bevel"
     points="2099.54,384.834 2099.54,646.598"
     id="polyline15"
     transform="translate(-305.41636,-350.28462)" />
  <polyline
     class="BarLine"
     fill="none"
     stroke="#000000"
     stroke-width="4.46"
     stroke-linejoin="bevel"
     points="3704.08,384.834 3704.08,646.598"
     id="polyline16"
     transform="translate(-305.41636,-350.28462)" />
  <polyline
     class="BarLine"
     fill="none"
     stroke="#000000"
     stroke-width="4.46"
     stroke-linejoin="bevel"
     points="2901.81,384.834 2901.81,646.598"
     id="polyline17"
     transform="translate(-305.41636,-350.28462)" />
  <polyline
     class="BarLine"
     fill="none"
     stroke="#000000"
     stroke-width="4.46"
     stroke-linejoin="bevel"
     points="6962.75,384.834 6962.75,646.598"
     id="polyline18"
     transform="translate(-305.41636,-350.28462)" />
  <polyline
     class="BarLine"
     fill="none"
     stroke="#000000"
     stroke-width="13.64"
     stroke-linejoin="bevel"
     points="6980.98,384.834 6980.98,646.598"
     id="polyline19"
     transform="translate(-305.41636,-350.28462)" />
  <polyline
     class="BarLine"
     fill="none"
     stroke="#000000"
     stroke-width="4.46"
     stroke-linejoin="bevel"
     points="338.83,384.834 338.83,646.598"
     id="polyline20"
     transform="translate(-305.41636,-350.28462)" />
  <polyline
     class="BarLine"
     fill="none"
     stroke="#000000"
     stroke-width="4.46"
     stroke-linejoin="bevel"
     points="2901.81,645.234 2901.81,747.162"
     id="polyline21"
     transform="translate(-305.41636,-350.28462)" />
  <polyline
     class="BarLine"
     fill="none"
     stroke="#000000"
     stroke-width="4.46"
     stroke-linejoin="bevel"
     points="6110.88,645.234 6110.88,747.162"
     id="polyline22"
     transform="translate(-305.41636,-350.28462)" />
  <polyline
     class="BarLine"
     fill="none"
     stroke="#000000"
     stroke-width="4.46"
     stroke-linejoin="bevel"
     points="4506.35,645.234 4506.35,747.162"
     id="polyline23"
     transform="translate(-305.41636,-350.28462)" />
  <polyline
     class="BarLine"
     fill="none"
     stroke="#000000"
     stroke-width="4.46"
     stroke-linejoin="bevel"
     points="2099.54,645.234 2099.54,747.162"
     id="polyline24"
     transform="translate(-305.41636,-350.28462)" />
  <polyline
     class="BarLine"
     fill="none"
     stroke="#000000"
     stroke-width="4.46"
     stroke-linejoin="bevel"
     points="6962.75,645.234 6962.75,747.162"
     id="polyline25"
     transform="translate(-305.41636,-350.28462)" />
  <polyline
     class="BarLine"
     fill="none"
     stroke="#000000"
     stroke-width="13.64"
     stroke-linejoin="bevel"
     points="6980.98,645.234 6980.98,747.162"
     id="polyline26"
     transform="translate(-305.41636,-350.28462)" />
  <polyline
     class="BarLine"
     fill="none"
     stroke="#000000"
     stroke-width="4.46"
     stroke-linejoin="bevel"
     points="338.83,645.234 338.83,747.162"
     id="polyline27"
     transform="translate(-305.41636,-350.28462)" />
  <polyline
     class="BarLine"
     fill="none"
     stroke="#000000"
     stroke-width="4.46"
     stroke-linejoin="bevel"
     points="1297.28,645.234 1297.28,747.162"
     id="polyline28"
     transform="translate(-305.41636,-350.28462)" />
  <polyline
     class="BarLine"
     fill="none"
     stroke="#000000"
     stroke-width="4.46"
     stroke-linejoin="bevel"
     points="5308.61,645.234 5308.61,747.162"
     id="polyline29"
     transform="translate(-305.41636,-350.28462)" />
  <polyline
     class="BarLine"
     fill="none"
     stroke="#000000"
     stroke-width="4.46"
     stroke-linejoin="bevel"
     points="3704.08,645.234 3704.08,747.162"
     id="polyline30"
     transform="translate(-305.41636,-350.28462)" />
  <polyline
     class="LedgerLine"
     fill="none"
     stroke="#000000"
     stroke-width="3.97"
     stroke-linejoin="bevel"
     points="935.326,510.198 983.919,510.198"
     id="polyline31"
     transform="translate(-305.41636,-350.28462)" />
  <polyline
     class="LedgerLine"
     fill="none"
     stroke="#000000"
     stroke-width="3.97"
     stroke-linejoin="bevel"
     points="6147.68,510.198 6201.05,510.198"
     id="polyline32"
     transform="translate(-305.41636,-350.28462)" />
  <polyline
     class="LedgerLine"
     fill="none"
     stroke="#000000"
     stroke-width="3.97"
     stroke-linejoin="bevel"
     points="4144.4,510.198 4192.99,510.198"
     id="polyline33"
     transform="translate(-305.41636,-350.28462)" />
  <polyline
     class="Stem"
     fill="none"
     stroke="#000000"
     stroke-width="2.48"
     stroke-linejoin="bevel"
     points="3381.3,456.63 3381.3,373.798"
     id="polyline34"
     transform="translate(-305.41636,-350.28462)" />
  <polyline
     class="Stem"
     fill="none"
     stroke="#000000"
     stroke-width="2.48"
     stroke-linejoin="bevel"
     points="3180.73,456.63 3180.73,373.798"
     id="polyline35"
     transform="translate(-305.41636,-350.28462)" />
  <polyline
     class="Stem"
     fill="none"
     stroke="#000000"
     stroke-width="2.48"
     stroke-linejoin="bevel"
     points="3782.43,481.43 3782.43,398.598"
     id="polyline36"
     transform="translate(-305.41636,-350.28462)" />
  <polyline
     class="Stem"
     fill="none"
     stroke="#000000"
     stroke-width="2.48"
     stroke-linejoin="bevel"
     points="3983,493.83 3983,410.998"
     id="polyline37"
     transform="translate(-305.41636,-350.28462)" />
  <polyline
     class="Stem"
     fill="none"
     stroke="#000000"
     stroke-width="2.48"
     stroke-linejoin="bevel"
     points="4183.57,506.23 4183.57,423.398"
     id="polyline38"
     transform="translate(-305.41636,-350.28462)" />
  <polyline
     class="Stem"
     fill="none"
     stroke="#000000"
     stroke-width="2.48"
     stroke-linejoin="bevel"
     points="4384.13,493.83 4384.13,410.998"
     id="polyline39"
     transform="translate(-305.41636,-350.28462)" />
  <polyline
     class="Stem"
     fill="none"
     stroke="#000000"
     stroke-width="2.48"
     stroke-linejoin="bevel"
     points="4584.7,481.43 4584.7,398.598"
     id="polyline40"
     transform="translate(-305.41636,-350.28462)" />
  <polyline
     class="Stem"
     fill="none"
     stroke="#000000"
     stroke-width="2.48"
     stroke-linejoin="bevel"
     points="4785.27,481.43 4785.27,398.598"
     id="polyline41"
     transform="translate(-305.41636,-350.28462)" />
  <polyline
     class="Stem"
     fill="none"
     stroke="#000000"
     stroke-width="2.48"
     stroke-linejoin="bevel"
     points="4985.83,481.43 4985.83,398.598"
     id="polyline42"
     transform="translate(-305.41636,-350.28462)" />
  <polyline
     class="Stem"
     fill="none"
     stroke="#000000"
     stroke-width="2.48"
     stroke-linejoin="bevel"
     points="5186.4,481.43 5186.4,398.598"
     id="polyline43"
     transform="translate(-305.41636,-350.28462)" />
  <polyline
     class="Stem"
     fill="none"
     stroke="#000000"
     stroke-width="2.48"
     stroke-linejoin="bevel"
     points="5386.97,493.83 5386.97,410.998"
     id="polyline44"
     transform="translate(-305.41636,-350.28462)" />
  <polyline
     class="Stem"
     fill="none"
     stroke="#000000"
     stroke-width="2.48"
     stroke-linejoin="bevel"
     points="5587.53,493.83 5587.53,410.998"
     id="polyline45"
     transform="translate(-305.41636,-350.28462)" />
  <polyline
     class="Stem"
     fill="none"
     stroke="#000000"
     stroke-width="2.48"
     stroke-linejoin="bevel"
     points="5788.1,481.43 5788.1,398.598"
     id="polyline46"
     transform="translate(-305.41636,-350.28462)" />
  <polyline
     class="Stem"
     fill="none"
     stroke="#000000"
     stroke-width="2.48"
     stroke-linejoin="bevel"
     points="5988.67,493.83 5988.67,410.998"
     id="polyline47"
     transform="translate(-305.41636,-350.28462)" />
  <polyline
     class="Stem"
     fill="none"
     stroke="#000000"
     stroke-width="2.48"
     stroke-linejoin="bevel"
     points="2378.46,493.83 2378.46,410.998"
     id="polyline48"
     transform="translate(-305.41636,-350.28462)" />
  <polyline
     class="Stem"
     fill="none"
     stroke="#000000"
     stroke-width="2.48"
     stroke-linejoin="bevel"
     points="1576.2,481.43 1576.2,398.598"
     id="polyline49"
     transform="translate(-305.41636,-350.28462)" />
  <polyline
     class="Stem"
     fill="none"
     stroke="#000000"
     stroke-width="2.48"
     stroke-linejoin="bevel"
     points="1776.76,481.43 1776.76,398.598"
     id="polyline50"
     transform="translate(-305.41636,-350.28462)" />
  <polyline
     class="Stem"
     fill="none"
     stroke="#000000"
     stroke-width="2.48"
     stroke-linejoin="bevel"
     points="1375.63,481.43 1375.63,398.598"
     id="polyline51"
     transform="translate(-305.41636,-350.28462)" />
  <polyline
     class="Stem"
     fill="none"
     stroke="#000000"
     stroke-width="2.48"
     stroke-linejoin="bevel"
     points="2177.9,493.83 2177.9,410.998"
     id="polyline52"
     transform="translate(-305.41636,-350.28462)" />
  <polyline
     class="Stem"
     fill="none"
     stroke="#000000"
     stroke-width="2.48"
     stroke-linejoin="bevel"
     points="1175.06,493.83 1175.06,410.998"
     id="polyline53"
     transform="translate(-305.41636,-350.28462)" />
  <polyline
     class="Stem"
     fill="none"
     stroke="#000000"
     stroke-width="2.48"
     stroke-linejoin="bevel"
     points="974.495,506.23 974.495,423.398"
     id="polyline54"
     transform="translate(-305.41636,-350.28462)" />
  <polyline
     class="Stem"
     fill="none"
     stroke="#000000"
     stroke-width="2.48"
     stroke-linejoin="bevel"
     points="2579.03,493.83 2579.03,410.998"
     id="polyline55"
     transform="translate(-305.41636,-350.28462)" />
  <polyline
     class="Stem"
     fill="none"
     stroke="#000000"
     stroke-width="2.48"
     stroke-linejoin="bevel"
     points="773.928,493.83 773.928,410.998"
     id="polyline56"
     transform="translate(-305.41636,-350.28462)" />
  <polyline
     class="Stem"
     fill="none"
     stroke="#000000"
     stroke-width="2.48"
     stroke-linejoin="bevel"
     points="2980.16,481.43 2980.16,398.598"
     id="polyline57"
     transform="translate(-305.41636,-350.28462)" />
  <polyline
     class="Stem"
     fill="none"
     stroke="#000000"
     stroke-width="2.48"
     stroke-linejoin="bevel"
     points="573.361,481.43 573.361,398.598"
     id="polyline58"
     transform="translate(-305.41636,-350.28462)" />
  <path
     class="Note"
     d="m 5050.5636,151.68288 c 0,4.2625 3.069,9.02102 11.1135,9.02102 10.3076,0 21.1265,-8.43202 21.1265,-17.15852 0,-5.859 -4.96,-9.12948 -11.1134,-9.12948 -9.6255,0 -21.1266,8.13748 -21.1266,17.26698"
     id="path58"
     style="stroke-width:0.992" />
  <path
     class="Note"
     d="m 437.52664,151.68288 c 0,4.2625 3.069,9.02102 11.11348,9.02102 10.30757,0 21.12652,-8.43202 21.12652,-17.15852 0,-5.859 -4.96,-9.12948 -11.11347,-9.12948 -9.62548,0 -21.12653,8.13748 -21.12653,17.26698"
     id="path59"
     style="stroke-width:0.992" />
  <path
     class="Note"
     d="m 5251.1336,151.68288 c 0,4.2625 3.069,9.02102 11.1135,9.02102 10.3076,0 21.1265,-8.43202 21.1265,-17.15852 0,-5.859 -4.96,-9.12948 -11.1134,-9.12948 -9.6255,0 -21.1266,8.13748 -21.1266,17.26698"
     id="path60"
     style="stroke-width:0.992" />
  <path
     class="Note"
     d="m 2844.3336,114.48288 c 0,4.2625 3.069,9.02102 11.1135,9.02102 10.3076,0 21.1265,-8.43202 21.1265,-17.15852 0,-5.859 -4.96,-9.129479 -11.1134,-9.129479 -9.6255,0 -21.1266,8.137479 -21.1266,17.266979"
     id="path61"
     style="stroke-width:0.992" />
  <path
     class="Note"
     d="m 638.09364,164.08288 c 0,4.2625 3.069,9.02102 11.11348,9.02102 10.30757,0 21.12652,-8.43202 21.12652,-17.15852 0,-5.859 -4.96,-9.12948 -11.11347,-9.12948 -9.62548,0 -21.12653,8.13748 -21.12653,17.26698"
     id="path62"
     style="stroke-width:0.992" />
  <path
     class="Note"
     d="m 838.66364,151.68288 c 0,4.2625 3.069,9.02102 11.11348,9.02102 10.30757,0 21.12652,-8.43202 21.12652,-17.15852 0,-5.859 -4.96,-9.12948 -11.11347,-9.12948 -9.62548,0 -21.12653,8.13748 -21.12653,17.26698"
     id="path63"
     style="stroke-width:0.992" />
  <path
     class="Note"
     d="m 4850.0036,139.28288 c 0,4.2625 3.069,9.02102 11.1135,9.02102 10.3076,0 21.1265,-8.43202 21.1265,-17.15852 0,-5.859 -4.96,-9.12948 -11.1134,-9.12948 -9.6255,0 -21.1266,8.13748 -21.1266,17.26698"
     id="path64"
     style="stroke-width:0.992" />
  <path
     class="Note"
     d="m 5451.7036,139.28288 c 0,4.2625 3.069,9.02102 11.1135,9.02102 10.3076,0 21.1265,-8.43202 21.1265,-17.15852 0,-5.859 -4.96,-9.12948 -11.1134,-9.12948 -9.6255,0 -21.1266,8.13748 -21.1266,17.26698"
     id="path65"
     style="stroke-width:0.992" />
  <path
     class="Note"
     d="m 5652.2636,151.68288 c 0,4.2625 3.069,9.02102 11.1135,9.02102 10.3076,0 21.1265,-8.43202 21.1265,-17.15852 0,-5.859 -4.96,-9.12948 -11.1134,-9.12948 -9.6255,0 -21.1266,8.13748 -21.1266,17.26698"
     id="path66"
     style="stroke-width:0.992" />
  <path
     class="Note"
     d="m 4649.4336,139.28288 c 0,4.2625 3.069,9.02102 11.1135,9.02102 10.3076,0 21.1265,-8.43202 21.1265,-17.15852 0,-5.859 -4.96,-9.12948 -11.1134,-9.12948 -9.6255,0 -21.1266,8.13748 -21.1266,17.26698"
     id="path67"
     style="stroke-width:0.992" />
  <path
     class="Note"
     d="m 1039.2236,139.28288 c 0,4.2625 3.069,9.02102 11.1135,9.02102 10.3076,0 21.1265,-8.43202 21.1265,-17.15852 0,-5.859 -4.96,-9.12948 -11.1134,-9.12948 -9.6255,0 -21.1266,8.13748 -21.1266,17.26698"
     id="path68"
     style="stroke-width:0.992" />
  <path
     class="Note"
     d="m 4448.8636,139.28288 c 0,4.2625 3.069,9.02102 11.1135,9.02102 10.3076,0 21.1265,-8.43202 21.1265,-17.15852 0,-5.859 -4.96,-9.12948 -11.1134,-9.12948 -9.6255,0 -21.1266,8.13748 -21.1266,17.26698"
     id="path69"
     style="stroke-width:0.992" />
  <path
     class="Note"
     d="m 5868.9971,146.42833 c -13.6865,0 -18.5535,6.94405 -18.5535,13.39205 0,6.448 4.867,13.39205 18.5535,13.39205 13.6865,0 18.4451,-6.94405 18.4451,-13.39205 0,-6.448 -4.7586,-13.39205 -18.4451,-13.39205 m 5.0531,23.00205 c -1.1935,0.403 -2.7746,0.60447 -4.2626,0.60447 -2.7745,0 -4.6654,-0.79047 -5.952,-3.27047 -1.2865,-2.48 -3.0689,-8.835 -3.1774,-11.51651 -0.2015,-2.68149 0.7905,-4.26249 3.1774,-5.053 1.1935,-0.40297 2.7746,-0.60454 4.2626,-0.60454 2.7745,0 4.5725,0.60454 5.952,3.28605 1.3949,2.666 3.1774,9.021 3.1774,11.501 0,2.573 -0.7905,4.371 -3.1774,5.053"
     id="path70"
     style="stroke-width:0.992" />
  <path
     class="Note"
     d="m 4248.3036,139.28288 c 0,4.2625 3.069,9.02102 11.1135,9.02102 10.3076,0 21.1265,-8.43202 21.1265,-17.15852 0,-5.859 -4.96,-9.12948 -11.1134,-9.12948 -9.6255,0 -21.1266,8.13748 -21.1266,17.26698"
     id="path71"
     style="stroke-width:0.992" />
  <path
     class="Note"
     d="m 2643.7636,139.28288 c 0,4.2625 3.069,9.02102 11.1135,9.02102 10.3076,0 21.1265,-8.43202 21.1265,-17.15852 0,-5.859 -4.96,-9.12948 -11.1134,-9.12948 -9.6255,0 -21.1266,8.13748 -21.1266,17.26698"
     id="path72"
     style="stroke-width:0.992" />
  <path
     class="Note"
     d="m 3044.8936,114.48288 c 0,4.2625 3.069,9.02102 11.1135,9.02102 10.3076,0 21.1265,-8.43202 21.1265,-17.15852 0,-5.859 -4.96,-9.129479 -11.1134,-9.129479 -9.6255,0 -21.1266,8.137479 -21.1266,17.266979"
     id="path73"
     style="stroke-width:0.992" />
  <path
     class="Note"
     d="m 2242.6336,151.68288 c 0,4.2625 3.069,9.02102 11.1135,9.02102 10.3076,0 21.1265,-8.43202 21.1265,-17.15852 0,-5.859 -4.96,-9.12948 -11.1134,-9.12948 -9.6255,0 -21.1266,8.13748 -21.1266,17.26698"
     id="path74"
     style="stroke-width:0.992" />
  <path
     class="Note"
     d="m 2042.0636,151.68288 c 0,4.2625 3.069,9.02102 11.1135,9.02102 10.3076,0 21.1265,-8.43202 21.1265,-17.15852 0,-5.859 -4.96,-9.12948 -11.1134,-9.12948 -9.6255,0 -21.1266,8.13748 -21.1266,17.26698"
     id="path75"
     style="stroke-width:0.992" />
  <path
     class="Note"
     d="m 3446.0336,139.28288 c 0,4.2625 3.069,9.02102 11.1135,9.02102 10.3076,0 21.1265,-8.43202 21.1265,-17.15852 0,-5.859 -4.96,-9.12948 -11.1134,-9.12948 -9.6255,0 -21.1266,8.13748 -21.1266,17.26698"
     id="path76"
     style="stroke-width:0.992" />
  <path
     class="Note"
     d="m 3646.5936,151.68288 c 0,4.2625 3.069,9.02102 11.1135,9.02102 10.3076,0 21.1265,-8.43202 21.1265,-17.15852 0,-5.859 -4.96,-9.12948 -11.1134,-9.12948 -9.6255,0 -21.1266,8.13748 -21.1266,17.26698"
     id="path77"
     style="stroke-width:0.992" />
  <path
     class="Note"
     d="m 1841.4936,151.68288 c 0,4.2625 3.069,9.02102 11.1135,9.02102 10.3076,0 21.1265,-8.43202 21.1265,-17.15852 0,-5.859 -4.96,-9.12948 -11.1134,-9.12948 -9.6255,0 -21.1266,8.13748 -21.1266,17.26698"
     id="path78"
     style="stroke-width:0.992" />
  <path
     class="Note"
     d="m 4047.7336,151.68288 c 0,4.2625 3.069,9.02102 11.1135,9.02102 10.3076,0 21.1265,-8.43202 21.1265,-17.15852 0,-5.859 -4.96,-9.12948 -11.1134,-9.12948 -9.6255,0 -21.1266,8.13748 -21.1266,17.26698"
     id="path79"
     style="stroke-width:0.992" />
  <path
     class="Note"
     d="m 3847.1636,164.08288 c 0,4.2625 3.069,9.02102 11.1135,9.02102 10.3076,0 21.1265,-8.43202 21.1265,-17.15852 0,-5.859 -4.96,-9.12948 -11.1134,-9.12948 -9.6255,0 -21.1266,8.13748 -21.1266,17.26698"
     id="path80"
     style="stroke-width:0.992" />
  <path
     class="Note"
     d="m 1440.3636,139.28288 c 0,4.2625 3.069,9.02102 11.1135,9.02102 10.3076,0 21.1265,-8.43202 21.1265,-17.15852 0,-5.859 -4.96,-9.12948 -11.1134,-9.12948 -9.6255,0 -21.1266,8.13748 -21.1266,17.26698"
     id="path81"
     style="stroke-width:0.992" />
  <path
     class="Note"
     d="m 1239.7936,139.28288 c 0,4.2625 3.069,9.02102 11.1135,9.02102 10.3076,0 21.1265,-8.43202 21.1265,-17.15852 0,-5.859 -4.96,-9.12948 -11.1134,-9.12948 -9.6255,0 -21.1266,8.13748 -21.1266,17.26698"
     id="path82"
     style="stroke-width:0.992" />
  <path
     class="Note"
     d="m 236.95964,139.28288 c 0,4.2625 3.069,9.02102 11.11348,9.02102 10.30757,0 21.12652,-8.43202 21.12652,-17.15852 0,-5.859 -4.96,-9.12948 -11.11347,-9.12948 -9.62548,0 -21.12653,8.13748 -21.12653,17.26698"
     id="path83"
     style="stroke-width:0.992" />
  <path
     class="Clef"
     d="m 109.99912,112.39038 c 0,7.0525 -2.88295,14.291 -9.92,17.17405 -2.076953,-11.90405 -4.758429,-27.68305 -5.456003,-32.054104 8.928003,0 15.376003,6.060544 15.376003,14.880054 m -14.089478,18.35205 c -1.984,0.40295 -3.859475,0.60442 -5.750525,0.60442 -14.182426,0 -26.28797,-9.92 -26.28797,-24.90847 0,-12.090054 8.52502,-22.909004 17.26702,-30.457529 1.674,-1.488 3.270524,-2.867475 4.758524,-4.355475 0.883476,5.347475 1.580951,10.01295 2.278426,14.089475 -9.036426,2.681475 -15.174426,12.198525 -15.174426,21.529529 0,6.944 5.456,16.461 13.392,16.461 0.790426,0 1.689476,-0.40295 1.689476,-1.28653 0,-0.89895 -0.992,-1.39495 -2.185476,-2.18547 -3.875049,-2.387 -6.060524,-4.96 -6.060524,-9.827 0,-6.045 4.464,-10.912054 10.32295,-12.291529 l 5.750525,32.627579 M 87.183117,28.767901 c 0.89905,-3.968 5.456,-14.384 10.617574,-14.384 1.488,0 3.859479,4.851475 3.859479,11.702425 0,10.32305 -7.626003,18.057575 -14.477053,24.8 -0.58895,-3.968 -1.08495,-7.827475 -1.08495,-11.99695 0,-3.673475 0.294524,-7.052525 1.08495,-10.121475 m -20.832,132.431999 c 0,6.55653 5.05305,15.19 18.44505,15.19 4.665475,0 8.742,-1.19347 12.30695,-3.37905 5.363053,-3.76642 6.742523,-10.32295 6.742523,-16.56947 0,-3.85948 -0.58895,-8.32348 -1.58095,-13.98095 -0.29452,-1.984 -0.89905,-4.96 -1.488,-8.83505 9.71843,-3.17748 16.95695,-13.29895 16.95695,-23.5135 0,-14.973029 -10.61747,-25.094504 -25.094523,-25.094504 -0.992,-5.952 -1.984,-11.81105 -2.88295,-17.36 10.524523,-11.020525 17.762953,-23.420525 17.762953,-39.184 0,-9.036525 -2.77443,-16.368 -4.37095,-19.948128 C 100.77669,3.472 97.893642,0 96.111117,0 c -0.697475,0 -3.766426,1.193376 -7.03695,5.053248 -6.35505,7.548128 -8.137476,20.242653 -8.137476,28.566128 0,5.36295 0.496,10.23 2.185476,21.343475 -0.108525,0.09305 -5.27,5.347475 -7.34705,7.03705 -9.036426,8.432 -21.529475,20.42895 -21.529475,40.284479 0,18.53805 16.166525,33.12352 34.627049,33.12352 2.867476,0 5.548951,-0.29452 7.827476,-0.69747 1.89095,9.53242 2.976,16.47642 2.976,21.73095 0,10.32305 -5.254525,15.77905 -15.267476,15.77905 -2.387049,0 -4.464,-0.496 -4.665574,-0.496 -0.09295,-0.10853 -0.294426,-0.20158 -0.294426,-0.29453 0,-0.20147 0.201476,-0.31 0.496,-0.40305 4.665476,-0.69747 9.315476,-4.66547 9.315476,-11.00495 0,-5.36305 -4.06105,-11.02052 -11.50105,-11.02052 -6.944,0 -11.408,5.65747 -11.408,12.19852"
     id="path84"
     style="stroke-width:0.992" />
  <path
     class="Clef"
     d="m 79.448691,296.22033 c -7.548524,0 -13.593574,4.35557 -13.702,4.35557 -5.750544,4.26243 -8.029049,9.33095 -8.928049,12.80297 -0.496,1.78251 -0.682,3.565 -0.682,5.25451 0,2.387 0.387505,4.557 1.286505,6.448 1.193495,2.6815 3.472,4.557 6.448,5.549 1.193544,0.403 2.47997,0.60447 3.766495,0.60447 2.185475,0 4.464,-0.60447 6.355049,-1.68947 3.068951,-1.6895 4.96,-5.2545 4.96,-9.1295 0,-3.47201 -1.798,-6.6495 -4.774,-8.52501 -2.077049,-1.39497 -4.061049,-1.78254 -5.750524,-1.78254 -1.193476,0 -2.278525,0.186 -3.177476,0.496 -0.992,0.38757 -2.666049,1.37954 -3.472049,2.07705 0.31,-1.89105 1.488,-4.75853 2.588475,-6.35505 1.08505,-1.58095 3.270525,-3.56495 4.96,-4.464 2.48,-1.37948 5.657574,-1.984 9.129574,-1.984 10.121476,0 15.081476,8.13757 15.081476,24.80005 0,9.23805 -3.472,18.05752 -6.448,23.91647 -3.286,6.54105 -7.641476,12.80305 -11.516525,16.27505 -10.322951,9.424 -20.041495,13.888 -20.134495,13.888 0,0 -1.193505,0.682 -1.193505,1.87548 0,0.20147 0.093,0.29452 0.093,0.496 0.31,0.992 1.193505,1.19347 1.798,1.19347 0.093,0 0.387505,-0.093 0.496,-0.093 0.093,0 11.408049,-4.66547 20.429,-11.718 5.068525,-3.658 9.625475,-7.626 13.593475,-11.904 3.56505,-3.85947 6.649574,-8.02905 9.129574,-12.19852 4.355479,-7.44 6.835479,-15.17453 6.835479,-21.824 0,-8.23051 -2.17,-15.08148 -6.24653,-19.93305 -4.665473,-5.56443 -11.702523,-8.432 -20.924949,-8.432 m 31.139479,12.586 c 0,2.79005 2.18547,4.96005 4.774,4.96005 2.57295,0 4.75852,-2.17 4.75852,-4.96005 0,-2.77443 -2.18557,-5.05295 -4.75852,-5.05295 -2.58853,0 -4.774,2.27852 -4.774,5.05295 m 0,24.50557 c 0,2.77453 2.18547,5.06853 4.774,5.06853 2.57295,0 4.75852,-2.294 4.75852,-5.06853 0,-2.77452 -2.18557,-5.05302 -4.75852,-5.05302 -2.58853,0 -4.774,2.2785 -4.774,5.05302"
     id="path85"
     style="stroke-width:0.992" />
  <path
     class="TimeSig"
     d="m 164.15617,73.314851 v 7.331575 h -8.23053 c -0.69747,0 -1.39495,0.604425 -1.39495,1.39495 v 1.89105 c 0,0.790425 0.69748,1.379475 1.39495,1.379475 h 30.05453 c 0.806,0 1.39495,-0.58905 1.39495,-1.379475 v -1.89105 c 0,-0.790525 -0.58895,-1.39495 -1.39495,-1.39495 h -8.928 v -7.331575 h 8.928 c 0.806,0 1.39495,-0.697475 1.39495,-1.488 v -1.89097 c 0,-0.697505 -0.58895,-1.379505 -1.39495,-1.379505 h -8.928 v -15.779 c 0,-0.589 -0.29453,-1.085 -0.682,-1.286505 l -1.19348,-0.604495 c -0.20157,-0.093 -0.29452,-0.093 -0.496,-0.093 -0.10852,0 -0.10852,0 -0.20157,0 -0.29443,0 -0.69748,0.093 -0.89895,0.294495 l -9.02105,8.230505 c -0.29443,0.31 -0.40295,0.6975 -0.40295,1.1005 v 8.1375 h -11.50102 c 0,0 11.11354,-11.904 22.81597,-27.59005 0.40305,-0.496 0.496,-0.992 0.496,-1.379475 0,-0.496 -0.20148,-0.89895 -0.29443,-0.992 l -2.18557,-2.185475 c -0.29443,-0.201475 -0.58895,-0.40305 -0.992,-0.40305 -0.58895,0 -13.99643,0 -14.78695,0 -0.69748,0 -1.19348,0.604525 -1.28653,1.193575 0,0 -0.496,7.34695 -3.069,15.37597 -2.58849,8.044505 -5.56449,13.004505 -8.13749,16.662505 0,0 -0.29451,0.496 -0.29451,1.100505 0,0.201495 0,0.387545 0.093,0.58902 0.29451,0.697475 0.992,1.782525 0.992,1.782525 0,0 0.20151,0.604425 1.085,0.604425 h 17.06553"
     id="path86"
     style="stroke-width:0.992" />
  <path
     class="TimeSig"
     d="m 164.15617,122.91485 v 7.33158 h -8.23053 c -0.69747,0 -1.39495,0.60442 -1.39495,1.39495 v 1.89105 c 0,0.79042 0.69748,1.37947 1.39495,1.37947 h 30.05453 c 0.806,0 1.39495,-0.58905 1.39495,-1.37947 v -1.89105 c 0,-0.79053 -0.58895,-1.39495 -1.39495,-1.39495 h -8.928 v -7.33158 h 8.928 c 0.806,0 1.39495,-0.69747 1.39495,-1.488 v -1.89097 c 0,-0.6975 -0.58895,-1.3795 -1.39495,-1.3795 h -8.928 v -15.779 c 0,-0.589 -0.29453,-1.085 -0.682,-1.28651 l -1.19348,-0.60449 c -0.20157,-0.093 -0.29452,-0.093 -0.496,-0.093 -0.10852,0 -0.10852,0 -0.20157,0 -0.29443,0 -0.69748,0.093 -0.89895,0.29449 l -9.02105,8.23051 c -0.29443,0.31 -0.40295,0.6975 -0.40295,1.1005 v 8.1375 h -11.50102 c 0,0 11.11354,-11.904 22.81597,-27.590054 0.40305,-0.496 0.496,-0.992 0.496,-1.379475 0,-0.496 -0.20148,-0.89895 -0.29443,-0.992 l -2.18557,-2.185475 c -0.29443,-0.201475 -0.58895,-0.40305 -0.992,-0.40305 -0.58895,0 -13.99643,0 -14.78695,0 -0.69748,0 -1.19348,0.604525 -1.28653,1.193575 0,0 -0.496,7.34695 -3.069,15.375969 -2.58849,8.04451 -5.56449,13.00451 -8.13749,16.66251 0,0 -0.29451,0.496 -0.29451,1.1005 0,0.2015 0,0.38755 0.093,0.58902 0.29451,0.69748 0.992,1.78253 0.992,1.78253 0,0 0.20151,0.60442 1.085,0.60442 h 17.06553"
     id="path87"
     style="stroke-width:0.992" />
  <path
     class="TimeSig"
     d="m 164.15617,333.71485 v 7.33158 h -8.23053 c -0.69747,0 -1.39495,0.60442 -1.39495,1.39495 v 1.89105 c 0,0.79042 0.69748,1.37947 1.39495,1.37947 h 30.05453 c 0.806,0 1.39495,-0.58905 1.39495,-1.37947 v -1.89105 c 0,-0.79053 -0.58895,-1.39495 -1.39495,-1.39495 h -8.928 v -7.33158 h 8.928 c 0.806,0 1.39495,-0.69747 1.39495,-1.488 v -1.89097 c 0,-0.6975 -0.58895,-1.3795 -1.39495,-1.3795 h -8.928 v -15.779 c 0,-0.589 -0.29453,-1.085 -0.682,-1.28651 l -1.19348,-0.60449 c -0.20157,-0.093 -0.29452,-0.093 -0.496,-0.093 -0.10852,0 -0.10852,0 -0.20157,0 -0.29443,0 -0.69748,0.093 -0.89895,0.29449 l -9.02105,8.23051 c -0.29443,0.31 -0.40295,0.6975 -0.40295,1.1005 v 8.1375 h -11.50102 c 0,0 11.11354,-11.904 22.81597,-27.59005 0.40305,-0.496 0.496,-0.992 0.496,-1.37948 0,-0.496 -0.20148,-0.89895 -0.29443,-0.992 l -2.18557,-2.18547 c -0.29443,-0.20148 -0.58895,-0.40305 -0.992,-0.40305 -0.58895,0 -13.99643,0 -14.78695,0 -0.69748,0 -1.19348,0.60452 -1.28653,1.19357 0,0 -0.496,7.34695 -3.069,15.37597 -2.58849,8.04451 -5.56449,13.00451 -8.13749,16.66251 0,0 -0.29451,0.496 -0.29451,1.1005 0,0.2015 0,0.38755 0.093,0.58902 0.29451,0.69748 0.992,1.78253 0.992,1.78253 0,0 0.20151,0.60442 1.085,0.60442 h 17.06553"
     id="path88"
     style="stroke-width:0.992" />
  <path
     class="TimeSig"
     d="m 164.15617,383.31485 v 7.33158 h -8.23053 c -0.69747,0 -1.39495,0.60442 -1.39495,1.39495 v 1.89105 c 0,0.79042 0.69748,1.37947 1.39495,1.37947 h 30.05453 c 0.806,0 1.39495,-0.58905 1.39495,-1.37947 v -1.89105 c 0,-0.79053 -0.58895,-1.39495 -1.39495,-1.39495 h -8.928 v -7.33158 h 8.928 c 0.806,0 1.39495,-0.69747 1.39495,-1.488 v -1.89097 c 0,-0.6975 -0.58895,-1.3795 -1.39495,-1.3795 h -8.928 v -15.779 c 0,-0.589 -0.29453,-1.085 -0.682,-1.28651 l -1.19348,-0.60449 c -0.20157,-0.093 -0.29452,-0.093 -0.496,-0.093 -0.10852,0 -0.10852,0 -0.20157,0 -0.29443,0 -0.69748,0.093 -0.89895,0.29449 l -9.02105,8.23051 c -0.29443,0.31 -0.40295,0.6975 -0.40295,1.1005 v 8.1375 h -11.50102 c 0,0 11.11354,-11.904 22.81597,-27.59005 0.40305,-0.496 0.496,-0.992 0.496,-1.37948 0,-0.496 -0.20148,-0.89895 -0.29443,-0.992 l -2.18557,-2.18547 c -0.29443,-0.20148 -0.58895,-0.40305 -0.992,-0.40305 -0.58895,0 -13.99643,0 -14.78695,0 -0.69748,0 -1.19348,0.60452 -1.28653,1.19357 0,0 -0.496,7.34695 -3.069,15.37597 -2.58849,8.04451 -5.56449,13.00451 -8.13749,16.66251 0,0 -0.29451,0.496 -0.29451,1.1005 0,0.2015 0,0.38755 0.093,0.58902 0.29451,0.69748 0.992,1.78253 0.992,1.78253 0,0 0.20151,0.60442 1.085,0.60442 h 17.06553"
     id="path89"
     style="stroke-width:0.992" />
  <path
     class="Rest"
     d="m 2466.0096,101.97443 c -0.093,-0.0931 -0.2945,-0.29453 -0.5889,-0.682 l -11.408,-14.089549 c -0.1085,-0.108505 -0.2016,-0.403 -0.2016,-0.604505 0,-0.2945 0.093,-0.682 0.2016,-0.8835 l 10.106,-15.282975 c 0.1084,-0.201575 0.2015,-0.496 0.2015,-0.697575 v -0.883475 c 0,-0.294525 -0.093,-0.604525 -0.2946,-0.790525 l -16.0735,-21.73095 c 0,0 -0.3875,-0.604525 -0.992,-0.604525 -0.2945,0 -0.496,0.108525 -0.7905,0.31 -0.403,0.294525 -0.496,0.682 -0.496,0.992 0,0.58905 0.2945,1.08505 0.2945,1.08505 l 7.5486,10.32295 c 0.186,0.294525 0.2944,0.682 0.2944,1.178 0,0.40305 -0.1084,0.89905 -0.2944,1.193475 l -10.0286,15.28305 c -0.093,0.201495 -0.2015,0.589 -0.2015,0.790495 v 0.899 c 0,0.294505 0.1085,0.589 0.31,0.790505 l 11.0981,13.795 c -0.3876,-0.108495 -1.2865,-0.31 -2.4801,-0.31 -1.674,0 -3.8595,0.403 -5.642,1.984 -2.1855,1.98405 -3.379,4.77405 -3.379,7.254054 0,1.37947 0.2945,2.77442 1.085,3.85947 2.0925,3.17748 9.5325,12.60148 9.5325,12.60148 0,0 0.496,0.60452 1.1936,0.60452 0.186,0 0.3875,0 0.5889,-0.20147 0.496,-0.40305 0.6975,-0.79053 0.6975,-1.19358 0,-0.40295 -0.2015,-0.69747 -0.2944,-0.89895 -0.31,-0.496 -3.4721,-6.24652 -3.4721,-6.24652 0,0 -0.6975,-1.39495 -0.6975,-3.17748 0,-1.28652 0.3875,-2.86747 1.6896,-4.16947 1.178,-1.178 2.5729,-1.58105 3.8595,-1.58105 1.2865,0 2.3869,0.40305 3.1774,0.89905 l 3.8751,2.48 c 0,0 0.3875,0.186 0.7904,0.186 0.3876,0 0.6976,-0.0931 0.992,-0.496 0.2016,-0.38758 0.2945,-0.58905 0.2945,-0.88358 0,-0.29442 -0.093,-0.496 -0.2945,-0.79042 l -0.2015,-0.31"
     id="path90"
     style="stroke-width:0.992" />
  <path
     class="Rest"
     d="m 3268.2796,101.97443 c -0.093,-0.0931 -0.2945,-0.29453 -0.5889,-0.682 l -11.408,-14.089549 c -0.1085,-0.108505 -0.2016,-0.403 -0.2016,-0.604505 0,-0.2945 0.093,-0.682 0.2016,-0.8835 l 10.106,-15.282975 c 0.1084,-0.201575 0.2015,-0.496 0.2015,-0.697575 v -0.883475 c 0,-0.294525 -0.093,-0.604525 -0.2946,-0.790525 l -16.0735,-21.73095 c 0,0 -0.3875,-0.604525 -0.992,-0.604525 -0.2945,0 -0.496,0.108525 -0.7905,0.31 -0.403,0.294525 -0.496,0.682 -0.496,0.992 0,0.58905 0.2945,1.08505 0.2945,1.08505 l 7.5486,10.32295 c 0.186,0.294525 0.2944,0.682 0.2944,1.178 0,0.40305 -0.1084,0.89905 -0.2944,1.193475 l -10.0286,15.28305 c -0.093,0.201495 -0.2015,0.589 -0.2015,0.790495 v 0.899 c 0,0.294505 0.1085,0.589 0.31,0.790505 l 11.0981,13.795 c -0.3876,-0.108495 -1.2865,-0.31 -2.4801,-0.31 -1.674,0 -3.8595,0.403 -5.642,1.984 -2.1855,1.98405 -3.379,4.77405 -3.379,7.254054 0,1.37947 0.2945,2.77442 1.085,3.85947 2.0925,3.17748 9.5325,12.60148 9.5325,12.60148 0,0 0.496,0.60452 1.1936,0.60452 0.186,0 0.3875,0 0.5889,-0.20147 0.496,-0.40305 0.6975,-0.79053 0.6975,-1.19358 0,-0.40295 -0.2015,-0.69747 -0.2944,-0.89895 -0.31,-0.496 -3.4721,-6.24652 -3.4721,-6.24652 0,0 -0.6975,-1.39495 -0.6975,-3.17748 0,-1.28652 0.3875,-2.86747 1.6896,-4.16947 1.178,-1.178 2.5729,-1.58105 3.8595,-1.58105 1.2865,0 2.3869,0.40305 3.1774,0.89905 l 3.8751,2.48 c 0,0 0.3875,0.186 0.7904,0.186 0.3876,0 0.6976,-0.0931 0.992,-0.496 0.2016,-0.38758 0.2945,-0.58905 0.2945,-0.88358 0,-0.29442 -0.093,-0.496 -0.2945,-0.79042 l -0.2015,-0.31"
     id="path91"
     style="stroke-width:0.992" />
  <path
     class="Rest"
     d="m 1663.7396,101.97443 c -0.093,-0.0931 -0.2945,-0.29453 -0.5889,-0.682 l -11.408,-14.089549 c -0.1085,-0.108505 -0.2016,-0.403 -0.2016,-0.604505 0,-0.2945 0.093,-0.682 0.2016,-0.8835 l 10.106,-15.282975 c 0.1084,-0.201575 0.2015,-0.496 0.2015,-0.697575 v -0.883475 c 0,-0.294525 -0.093,-0.604525 -0.2946,-0.790525 l -16.0735,-21.73095 c 0,0 -0.3875,-0.604525 -0.992,-0.604525 -0.2945,0 -0.496,0.108525 -0.7905,0.31 -0.403,0.294525 -0.496,0.682 -0.496,0.992 0,0.58905 0.2945,1.08505 0.2945,1.08505 l 7.5486,10.32295 c 0.186,0.294525 0.2944,0.682 0.2944,1.178 0,0.40305 -0.1084,0.89905 -0.2944,1.193475 l -10.0286,15.28305 c -0.093,0.201495 -0.2015,0.589 -0.2015,0.790495 v 0.899 c 0,0.294505 0.1085,0.589 0.31,0.790505 l 11.0981,13.795 c -0.3876,-0.108495 -1.2865,-0.31 -2.4801,-0.31 -1.674,0 -3.8595,0.403 -5.642,1.984 -2.1855,1.98405 -3.379,4.77405 -3.379,7.254054 0,1.37947 0.2945,2.77442 1.085,3.85947 2.0925,3.17748 9.5325,12.60148 9.5325,12.60148 0,0 0.496,0.60452 1.1936,0.60452 0.186,0 0.3875,0 0.5889,-0.20147 0.496,-0.40305 0.6975,-0.79053 0.6975,-1.19358 0,-0.40295 -0.2015,-0.69747 -0.2944,-0.89895 -0.31,-0.496 -3.4721,-6.24652 -3.4721,-6.24652 0,0 -0.6975,-1.39495 -0.6975,-3.17748 0,-1.28652 0.3875,-2.86747 1.6896,-4.16947 1.178,-1.178 2.5729,-1.58105 3.8595,-1.58105 1.2865,0 2.3869,0.40305 3.1774,0.89905 l 3.8751,2.48 c 0,0 0.3875,0.186 0.7904,0.186 0.3876,0 0.6976,-0.0931 0.992,-0.496 0.2016,-0.38758 0.2945,-0.58905 0.2945,-0.88358 0,-0.29442 -0.093,-0.496 -0.2945,-0.79042 l -0.2015,-0.31"
     id="path92"
     style="stroke-width:0.992" />
  <path
     class="Rest"
     d="m 3005.3786,320.61738 c -0.806,0 -1.395,0.589 -1.395,1.395 v 10.71047 c 0,0.79053 0.589,1.37958 1.395,1.37958 h 29.4656 c 0.7905,0 1.3794,-0.58905 1.3794,-1.37958 v -10.71047 c 0,-0.806 -0.5889,-1.395 -1.3794,-1.395 h -29.4656"
     id="path93"
     style="stroke-width:0.992" />
  <path
     class="Rest"
     d="m 4609.9186,320.61738 c -0.806,0 -1.395,0.589 -1.395,1.395 v 10.71047 c 0,0.79053 0.589,1.37958 1.395,1.37958 h 29.4656 c 0.7905,0 1.3794,-0.58905 1.3794,-1.37958 v -10.71047 c 0,-0.806 -0.5889,-1.395 -1.3794,-1.395 h -29.4656"
     id="path94"
     style="stroke-width:0.992" />
  <path
     class="Rest"
     d="m 6239.2486,320.61738 c -0.806,0 -1.395,0.589 -1.395,1.395 v 10.71047 c 0,0.79053 0.589,1.37958 1.395,1.37958 h 29.4656 c 0.7905,0 1.3794,-0.58905 1.3794,-1.37958 v -10.71047 c 0,-0.806 -0.5889,-1.395 -1.3794,-1.395 h -29.4656"
     id="path95"
     style="stroke-width:0.992" />
  <path
     class="Rest"
     d="m 573.77664,320.61738 c -0.806,0 -1.395,0.589 -1.395,1.395 v 10.71047 c 0,0.79053 0.589,1.37958 1.395,1.37958 h 29.46553 c 0.79052,0 1.37947,-0.58905 1.37947,-1.37958 v -10.71047 c 0,-0.806 -0.58895,-1.395 -1.37947,-1.395 h -29.46553"
     id="path96"
     style="stroke-width:0.992" />
  <path
     class="Rest"
     d="m 5412.1786,320.61738 c -0.806,0 -1.395,0.589 -1.395,1.395 v 10.71047 c 0,0.79053 0.589,1.37958 1.395,1.37958 h 29.4656 c 0.7905,0 1.3794,-0.58905 1.3794,-1.37958 v -10.71047 c 0,-0.806 -0.5889,-1.395 -1.3794,-1.395 h -29.4656"
     id="path97"
     style="stroke-width:0.992" />
  <path
     class="Rest"
     d="m 3807.6486,320.61738 c -0.806,0 -1.395,0.589 -1.395,1.395 v 10.71047 c 0,0.79053 0.589,1.37958 1.395,1.37958 h 29.4656 c 0.7905,0 1.3794,-0.58905 1.3794,-1.37958 v -10.71047 c 0,-0.806 -0.5889,-1.395 -1.3794,-1.395 h -29.4656"
     id="path98"
     style="stroke-width:0.992" />
  <path
     class="Rest"
     d="m 2203.1086,320.61738 c -0.806,0 -1.395,0.589 -1.395,1.395 v 10.71047 c 0,0.79053 0.589,1.37958 1.395,1.37958 h 29.4656 c 0.7905,0 1.3794,-0.58905 1.3794,-1.37958 v -10.71047 c 0,-0.806 -0.5889,-1.395 -1.3794,-1.395 h -29.4656"
     id="path99"
     style="stroke-width:0.992" />
  <path
     class="Rest"
     d="m 1400.8486,320.61738 c -0.806,0 -1.395,0.589 -1.395,1.395 v 10.71047 c 0,0.79053 0.589,1.37958 1.395,1.37958 h 29.4656 c 0.7905,0 1.3794,-0.58905 1.3794,-1.37958 v -10.71047 c 0,-0.806 -0.5889,-1.395 -1.3794,-1.395 h -29.4656"
     id="path100"
     style="stroke-width:0.992" />
  <path
     class="Bracket"
     d="m 3.3985167,215.71338 c 6.4615805,-6.85506 19.0475803,-20.84566 19.0475803,-46.748 0,-32.75741 -14.0468748,-65.85175 -14.0468748,-86.304004 0,-21.969402 12.5859998,-42.47775 13.3164198,-43.152 0,-0.393402 0,-0.393402 0,-0.730348 0,-0.393402 0,-0.730707 -0.337125,-1.067652 -0.393295,0 -1.12375,0 -1.460875,0.67425 -0.337125,0.393402 -19.77800025,19.778 -19.77800025,49.276348 0,31.633656 12.58600025,53.939996 12.58600025,95.293996 0,7.92235 -3.2588753,20.50835 -12.24887525,31.68975 -0.337125,0 -0.337125,0.67425 -0.337125,1.06766 -0.337125,0.33694 0,0.73034 0.337125,1.06765 8.98999995,11.12494 12.24887525,23.71094 12.24887525,31.63329 0,41.354 -12.58600025,63.66071 -12.58600025,95.294 0,29.16148 19.44087525,48.93949 19.77800025,49.27662 0.337125,0.73044 1.06758,1.06756 1.460875,0.73044 0.337125,-0.33713 0.67425,-0.73044 0.337125,-1.06757 0,0 0,-0.39331 0,-0.73043 -0.73042,-0.73046 -13.3164198,-21.23888 -13.3164198,-43.152 0,-20.50835 14.0468748,-53.60306 14.0468748,-86.304 0,-26.23966 -12.5859998,-39.94941 -19.0475803,-46.748"
     id="path101"
     style="stroke-width:3.596" />
</svg>
