<?xml version="1.0" encoding="UTF-8" standalone="no"?>
<svg
   width="296.68353mm"
   height="32.906616mm"
   viewBox="0 0 4204.9635 466.393"
   version="1.2"
   id="svg214"
   sodipodi:docname="Mary Had a Little Lamb.svg"
   inkscape:version="1.2.2 (b0a8486541, 2022-12-01)"
   xmlns:inkscape="http://www.inkscape.org/namespaces/inkscape"
   xmlns:sodipodi="http://sodipodi.sourceforge.net/DTD/sodipodi-0.dtd"
   xmlns="http://www.w3.org/2000/svg"
   xmlns:svg="http://www.w3.org/2000/svg">
  <defs
     id="defs218" />
  <sodipodi:namedview
     id="namedview216"
     pagecolor="#ffffff"
     bordercolor="#666666"
     borderopacity="1.0"
     inkscape:showpageshadow="2"
     inkscape:pageopacity="0.0"
     inkscape:pagecheckerboard="0"
     inkscape:deskcolor="#d1d1d1"
     inkscape:document-units="mm"
     showgrid="false"
     inkscape:zoom="1.28"
     inkscape:cx="527.34375"
     inkscape:cy="119.14063"
     inkscape:window-width="1920"
     inkscape:window-height="1032"
     inkscape:window-x="-4"
     inkscape:window-y="-4"
     inkscape:window-maximized="1"
     inkscape:current-layer="svg214" />
  <title
     id="title2">Mary Had A Little Lamb.mid</title>
  <desc
     id="desc4">Generated by MuseScore Studio 4.5.2</desc>
  <polyline
     class="StaffLines"
     fill="none"
     stroke="#000000"
     stroke-width="2.73"
     stroke-linejoin="bevel"
     points="336.598,386.198 4510.38,386.198"
     id="polyline6"
     transform="translate(-305.41636,-280.77)" />
  <polyline
     class="StaffLines"
     fill="none"
     stroke="#000000"
     stroke-width="2.73"
     stroke-linejoin="bevel"
     points="336.598,410.998 4510.38,410.998"
     id="polyline8"
     transform="translate(-305.41636,-280.77)" />
  <polyline
     class="StaffLines"
     fill="none"
     stroke="#000000"
     stroke-width="2.73"
     stroke-linejoin="bevel"
     points="336.598,435.798 4510.38,435.798"
     id="polyline10"
     transform="translate(-305.41636,-280.77)" />
  <polyline
     class="StaffLines"
     fill="none"
     stroke="#000000"
     stroke-width="2.73"
     stroke-linejoin="bevel"
     points="336.598,460.598 4510.38,460.598"
     id="polyline12"
     transform="translate(-305.41636,-280.77)" />
  <polyline
     class="StaffLines"
     fill="none"
     stroke="#000000"
     stroke-width="2.73"
     stroke-linejoin="bevel"
     points="336.598,485.398 4510.38,485.398"
     id="polyline14"
     transform="translate(-305.41636,-280.77)" />
  <polyline
     class="StaffLines"
     fill="none"
     stroke="#000000"
     stroke-width="2.73"
     stroke-linejoin="bevel"
     points="336.598,646.598 4510.38,646.598"
     id="polyline16"
     transform="translate(-305.41636,-280.77)" />
  <polyline
     class="StaffLines"
     fill="none"
     stroke="#000000"
     stroke-width="2.73"
     stroke-linejoin="bevel"
     points="336.598,671.398 4510.38,671.398"
     id="polyline18"
     transform="translate(-305.41636,-280.77)" />
  <polyline
     class="StaffLines"
     fill="none"
     stroke="#000000"
     stroke-width="2.73"
     stroke-linejoin="bevel"
     points="336.598,696.198 4510.38,696.198"
     id="polyline20"
     transform="translate(-305.41636,-280.77)" />
  <polyline
     class="StaffLines"
     fill="none"
     stroke="#000000"
     stroke-width="2.73"
     stroke-linejoin="bevel"
     points="336.598,720.998 4510.38,720.998"
     id="polyline22"
     transform="translate(-305.41636,-280.77)" />
  <polyline
     class="StaffLines"
     fill="none"
     stroke="#000000"
     stroke-width="2.73"
     stroke-linejoin="bevel"
     points="336.598,745.798 4510.38,745.798"
     id="polyline24"
     transform="translate(-305.41636,-280.77)" />
  <polyline
     class="BarLine"
     fill="none"
     stroke="#000000"
     stroke-width="4.46"
     stroke-linejoin="bevel"
     points="3471.01,384.834 3471.01,646.598"
     id="polyline26"
     transform="translate(-305.41636,-280.77)" />
  <polyline
     class="BarLine"
     fill="none"
     stroke="#000000"
     stroke-width="4.46"
     stroke-linejoin="bevel"
     points="338.83,384.834 338.83,646.598"
     id="polyline28"
     transform="translate(-305.41636,-280.77)" />
  <polyline
     class="BarLine"
     fill="none"
     stroke="#000000"
     stroke-width="4.46"
     stroke-linejoin="bevel"
     points="2975.01,384.834 2975.01,646.598"
     id="polyline30"
     transform="translate(-305.41636,-280.77)" />
  <polyline
     class="BarLine"
     fill="none"
     stroke="#000000"
     stroke-width="4.46"
     stroke-linejoin="bevel"
     points="4485.33,384.834 4485.33,646.598"
     id="polyline32"
     transform="translate(-305.41636,-280.77)" />
  <polyline
     class="BarLine"
     fill="none"
     stroke="#000000"
     stroke-width="13.64"
     stroke-linejoin="bevel"
     points="4503.56,384.834 4503.56,646.598"
     id="polyline34"
     transform="translate(-305.41636,-280.77)" />
  <polyline
     class="BarLine"
     fill="none"
     stroke="#000000"
     stroke-width="4.46"
     stroke-linejoin="bevel"
     points="991.008,384.834 991.008,646.598"
     id="polyline36"
     transform="translate(-305.41636,-280.77)" />
  <polyline
     class="BarLine"
     fill="none"
     stroke="#000000"
     stroke-width="4.46"
     stroke-linejoin="bevel"
     points="2479.01,384.834 2479.01,646.598"
     id="polyline38"
     transform="translate(-305.41636,-280.77)" />
  <polyline
     class="BarLine"
     fill="none"
     stroke="#000000"
     stroke-width="4.46"
     stroke-linejoin="bevel"
     points="1983.01,384.834 1983.01,646.598"
     id="polyline40"
     transform="translate(-305.41636,-280.77)" />
  <polyline
     class="BarLine"
     fill="none"
     stroke="#000000"
     stroke-width="4.46"
     stroke-linejoin="bevel"
     points="3967.01,384.834 3967.01,646.598"
     id="polyline42"
     transform="translate(-305.41636,-280.77)" />
  <polyline
     class="BarLine"
     fill="none"
     stroke="#000000"
     stroke-width="4.46"
     stroke-linejoin="bevel"
     points="1487.01,384.834 1487.01,646.598"
     id="polyline44"
     transform="translate(-305.41636,-280.77)" />
  <polyline
     class="BarLine"
     fill="none"
     stroke="#000000"
     stroke-width="4.46"
     stroke-linejoin="bevel"
     points="1983.01,645.234 1983.01,747.162"
     id="polyline46"
     transform="translate(-305.41636,-280.77)" />
  <polyline
     class="BarLine"
     fill="none"
     stroke="#000000"
     stroke-width="4.46"
     stroke-linejoin="bevel"
     points="3471.01,645.234 3471.01,747.162"
     id="polyline48"
     transform="translate(-305.41636,-280.77)" />
  <polyline
     class="BarLine"
     fill="none"
     stroke="#000000"
     stroke-width="4.46"
     stroke-linejoin="bevel"
     points="991.008,645.234 991.008,747.162"
     id="polyline50"
     transform="translate(-305.41636,-280.77)" />
  <polyline
     class="BarLine"
     fill="none"
     stroke="#000000"
     stroke-width="4.46"
     stroke-linejoin="bevel"
     points="2975.01,645.234 2975.01,747.162"
     id="polyline52"
     transform="translate(-305.41636,-280.77)" />
  <polyline
     class="BarLine"
     fill="none"
     stroke="#000000"
     stroke-width="4.46"
     stroke-linejoin="bevel"
     points="1487.01,645.234 1487.01,747.162"
     id="polyline54"
     transform="translate(-305.41636,-280.77)" />
  <polyline
     class="BarLine"
     fill="none"
     stroke="#000000"
     stroke-width="4.46"
     stroke-linejoin="bevel"
     points="3967.01,645.234 3967.01,747.162"
     id="polyline56"
     transform="translate(-305.41636,-280.77)" />
  <polyline
     class="BarLine"
     fill="none"
     stroke="#000000"
     stroke-width="4.46"
     stroke-linejoin="bevel"
     points="2479.01,645.234 2479.01,747.162"
     id="polyline58"
     transform="translate(-305.41636,-280.77)" />
  <polyline
     class="BarLine"
     fill="none"
     stroke="#000000"
     stroke-width="4.46"
     stroke-linejoin="bevel"
     points="4485.33,645.234 4485.33,747.162"
     id="polyline60"
     transform="translate(-305.41636,-280.77)" />
  <polyline
     class="BarLine"
     fill="none"
     stroke="#000000"
     stroke-width="13.64"
     stroke-linejoin="bevel"
     points="4503.56,645.234 4503.56,747.162"
     id="polyline62"
     transform="translate(-305.41636,-280.77)" />
  <polyline
     class="BarLine"
     fill="none"
     stroke="#000000"
     stroke-width="4.46"
     stroke-linejoin="bevel"
     points="338.83,645.234 338.83,747.162"
     id="polyline64"
     transform="translate(-305.41636,-280.77)" />
  <polyline
     class="LedgerLine"
     fill="none"
     stroke="#000000"
     stroke-width="3.97"
     stroke-linejoin="bevel"
     points="782.192,510.198 830.785,510.198"
     id="polyline66"
     transform="translate(-305.41636,-280.77)" />
  <polyline
     class="LedgerLine"
     fill="none"
     stroke="#000000"
     stroke-width="3.97"
     stroke-linejoin="bevel"
     points="4003.81,510.198 4057.17,510.198"
     id="polyline68"
     transform="translate(-305.41636,-280.77)" />
  <polyline
     class="LedgerLine"
     fill="none"
     stroke="#000000"
     stroke-width="3.97"
     stroke-linejoin="bevel"
     points="2766.19,510.198 2814.78,510.198"
     id="polyline70"
     transform="translate(-305.41636,-280.77)" />
  <polyline
     class="Stem"
     fill="none"
     stroke="#000000"
     stroke-width="2.48"
     stroke-linejoin="bevel"
     points="2309.36,456.63 2309.36,373.798"
     id="polyline72"
     transform="translate(-305.41636,-280.77)" />
  <polyline
     class="Stem"
     fill="none"
     stroke="#000000"
     stroke-width="2.48"
     stroke-linejoin="bevel"
     points="2185.36,456.63 2185.36,373.798"
     id="polyline74"
     transform="translate(-305.41636,-280.77)" />
  <polyline
     class="Stem"
     fill="none"
     stroke="#000000"
     stroke-width="2.48"
     stroke-linejoin="bevel"
     points="2557.36,481.43 2557.36,398.598"
     id="polyline76"
     transform="translate(-305.41636,-280.77)" />
  <polyline
     class="Stem"
     fill="none"
     stroke="#000000"
     stroke-width="2.48"
     stroke-linejoin="bevel"
     points="2681.36,493.83 2681.36,410.998"
     id="polyline78"
     transform="translate(-305.41636,-280.77)" />
  <polyline
     class="Stem"
     fill="none"
     stroke="#000000"
     stroke-width="2.48"
     stroke-linejoin="bevel"
     points="2805.36,506.23 2805.36,423.398"
     id="polyline80"
     transform="translate(-305.41636,-280.77)" />
  <polyline
     class="Stem"
     fill="none"
     stroke="#000000"
     stroke-width="2.48"
     stroke-linejoin="bevel"
     points="2929.36,493.83 2929.36,410.998"
     id="polyline82"
     transform="translate(-305.41636,-280.77)" />
  <polyline
     class="Stem"
     fill="none"
     stroke="#000000"
     stroke-width="2.48"
     stroke-linejoin="bevel"
     points="3053.36,481.43 3053.36,398.598"
     id="polyline84"
     transform="translate(-305.41636,-280.77)" />
  <polyline
     class="Stem"
     fill="none"
     stroke="#000000"
     stroke-width="2.48"
     stroke-linejoin="bevel"
     points="3177.36,481.43 3177.36,398.598"
     id="polyline86"
     transform="translate(-305.41636,-280.77)" />
  <polyline
     class="Stem"
     fill="none"
     stroke="#000000"
     stroke-width="2.48"
     stroke-linejoin="bevel"
     points="3301.36,481.43 3301.36,398.598"
     id="polyline88"
     transform="translate(-305.41636,-280.77)" />
  <polyline
     class="Stem"
     fill="none"
     stroke="#000000"
     stroke-width="2.48"
     stroke-linejoin="bevel"
     points="3425.36,481.43 3425.36,398.598"
     id="polyline90"
     transform="translate(-305.41636,-280.77)" />
  <polyline
     class="Stem"
     fill="none"
     stroke="#000000"
     stroke-width="2.48"
     stroke-linejoin="bevel"
     points="3549.36,493.83 3549.36,410.998"
     id="polyline92"
     transform="translate(-305.41636,-280.77)" />
  <polyline
     class="Stem"
     fill="none"
     stroke="#000000"
     stroke-width="2.48"
     stroke-linejoin="bevel"
     points="3673.36,493.83 3673.36,410.998"
     id="polyline94"
     transform="translate(-305.41636,-280.77)" />
  <polyline
     class="Stem"
     fill="none"
     stroke="#000000"
     stroke-width="2.48"
     stroke-linejoin="bevel"
     points="3797.36,481.43 3797.36,398.598"
     id="polyline96"
     transform="translate(-305.41636,-280.77)" />
  <polyline
     class="Stem"
     fill="none"
     stroke="#000000"
     stroke-width="2.48"
     stroke-linejoin="bevel"
     points="3921.36,493.83 3921.36,410.998"
     id="polyline98"
     transform="translate(-305.41636,-280.77)" />
  <polyline
     class="Stem"
     fill="none"
     stroke="#000000"
     stroke-width="2.48"
     stroke-linejoin="bevel"
     points="1813.36,493.83 1813.36,410.998"
     id="polyline100"
     transform="translate(-305.41636,-280.77)" />
  <polyline
     class="Stem"
     fill="none"
     stroke="#000000"
     stroke-width="2.48"
     stroke-linejoin="bevel"
     points="1565.36,493.83 1565.36,410.998"
     id="polyline102"
     transform="translate(-305.41636,-280.77)" />
  <polyline
     class="Stem"
     fill="none"
     stroke="#000000"
     stroke-width="2.48"
     stroke-linejoin="bevel"
     points="945.361,493.83 945.361,410.998"
     id="polyline104"
     transform="translate(-305.41636,-280.77)" />
  <polyline
     class="Stem"
     fill="none"
     stroke="#000000"
     stroke-width="2.48"
     stroke-linejoin="bevel"
     points="821.361,506.23 821.361,423.398"
     id="polyline106"
     transform="translate(-305.41636,-280.77)" />
  <polyline
     class="Stem"
     fill="none"
     stroke="#000000"
     stroke-width="2.48"
     stroke-linejoin="bevel"
     points="697.361,493.83 697.361,410.998"
     id="polyline108"
     transform="translate(-305.41636,-280.77)" />
  <polyline
     class="Stem"
     fill="none"
     stroke="#000000"
     stroke-width="2.48"
     stroke-linejoin="bevel"
     points="1689.36,493.83 1689.36,410.998"
     id="polyline110"
     transform="translate(-305.41636,-280.77)" />
  <polyline
     class="Stem"
     fill="none"
     stroke="#000000"
     stroke-width="2.48"
     stroke-linejoin="bevel"
     points="1069.36,481.43 1069.36,398.598"
     id="polyline112"
     transform="translate(-305.41636,-280.77)" />
  <polyline
     class="Stem"
     fill="none"
     stroke="#000000"
     stroke-width="2.48"
     stroke-linejoin="bevel"
     points="1317.36,481.43 1317.36,398.598"
     id="polyline114"
     transform="translate(-305.41636,-280.77)" />
  <polyline
     class="Stem"
     fill="none"
     stroke="#000000"
     stroke-width="2.48"
     stroke-linejoin="bevel"
     points="1193.36,481.43 1193.36,398.598"
     id="polyline116"
     transform="translate(-305.41636,-280.77)" />
  <polyline
     class="Stem"
     fill="none"
     stroke="#000000"
     stroke-width="2.48"
     stroke-linejoin="bevel"
     points="2061.36,481.43 2061.36,398.598"
     id="polyline118"
     transform="translate(-305.41636,-280.77)" />
  <polyline
     class="Stem"
     fill="none"
     stroke="#000000"
     stroke-width="2.48"
     stroke-linejoin="bevel"
     points="573.361,481.43 573.361,398.598"
     id="polyline120"
     transform="translate(-305.41636,-280.77)" />
  <path
     class="Note"
     d="m 360.95964,221.1975 c 0,4.2625 3.069,9.02102 11.11348,9.02102 10.30757,0 21.12652,-8.43202 21.12652,-17.15852 0,-5.859 -4.96,-9.12948 -11.11347,-9.12948 -9.62548,0 -21.12653,8.13748 -21.12653,17.26698"
     id="path122"
     style="stroke-width:0.992" />
  <path
     class="Note"
     d="m 2964.9636,208.7975 c 0,4.2625 3.069,9.02102 11.1135,9.02102 10.3076,0 21.1265,-8.43202 21.1265,-17.15852 0,-5.859 -4.96,-9.12948 -11.1134,-9.12948 -9.6255,0 -21.1266,8.13748 -21.1266,17.26698"
     id="path124"
     style="stroke-width:0.992" />
  <path
     class="Note"
     d="m 2840.9636,208.7975 c 0,4.2625 3.069,9.02102 11.1135,9.02102 10.3076,0 21.1265,-8.43202 21.1265,-17.15852 0,-5.859 -4.96,-9.12948 -11.1134,-9.12948 -9.6255,0 -21.1266,8.13748 -21.1266,17.26698"
     id="path126"
     style="stroke-width:0.992" />
  <path
     class="Note"
     d="m 608.95964,221.1975 c 0,4.2625 3.069,9.02102 11.11348,9.02102 10.30757,0 21.12652,-8.43202 21.12652,-17.15852 0,-5.859 -4.96,-9.12948 -11.11347,-9.12948 -9.62548,0 -21.12653,8.13748 -21.12653,17.26698"
     id="path128"
     style="stroke-width:0.992" />
  <path
     class="Note"
     d="m 3088.9636,208.7975 c 0,4.2625 3.069,9.02102 11.1135,9.02102 10.3076,0 21.1265,-8.43202 21.1265,-17.15852 0,-5.859 -4.96,-9.12948 -11.1134,-9.12948 -9.6255,0 -21.1266,8.13748 -21.1266,17.26698"
     id="path130"
     style="stroke-width:0.992" />
  <path
     class="Note"
     d="m 732.96364,208.7975 c 0,4.2625 3.069,9.02102 11.11348,9.02102 10.30757,0 21.12652,-8.43202 21.12652,-17.15852 0,-5.859 -4.96,-9.12948 -11.11347,-9.12948 -9.62548,0 -21.12653,8.13748 -21.12653,17.26698"
     id="path132"
     style="stroke-width:0.992" />
  <path
     class="Note"
     d="m 484.95964,233.5975 c 0,4.2625 3.069,9.02102 11.11348,9.02102 10.30757,0 21.12652,-8.43202 21.12652,-17.15852 0,-5.859 -4.96,-9.12948 -11.11347,-9.12948 -9.62548,0 -21.12653,8.13748 -21.12653,17.26698"
     id="path134"
     style="stroke-width:0.992" />
  <path
     class="Note"
     d="m 1724.9636,208.7975 c 0,4.2625 3.069,9.02102 11.1135,9.02102 10.3076,0 21.1265,-8.43202 21.1265,-17.15852 0,-5.859 -4.96,-9.12948 -11.1134,-9.12948 -9.6255,0 -21.1266,8.13748 -21.1266,17.26698"
     id="path136"
     style="stroke-width:0.992" />
  <path
     class="Note"
     d="m 3212.9636,221.1975 c 0,4.2625 3.069,9.02102 11.1135,9.02102 10.3076,0 21.1265,-8.43202 21.1265,-17.15852 0,-5.859 -4.96,-9.12948 -11.1134,-9.12948 -9.6255,0 -21.1266,8.13748 -21.1266,17.26698"
     id="path138"
     style="stroke-width:0.992" />
  <path
     class="Note"
     d="m 3336.9636,221.1975 c 0,4.2625 3.069,9.02102 11.1135,9.02102 10.3076,0 21.1265,-8.43202 21.1265,-17.15852 0,-5.859 -4.96,-9.12948 -11.1134,-9.12948 -9.6255,0 -21.1266,8.13748 -21.1266,17.26698"
     id="path140"
     style="stroke-width:0.992" />
  <path
     class="Note"
     d="m 3460.9636,208.7975 c 0,4.2625 3.069,9.02102 11.1135,9.02102 10.3076,0 21.1265,-8.43202 21.1265,-17.15852 0,-5.859 -4.96,-9.12948 -11.1134,-9.12948 -9.6255,0 -21.1266,8.13748 -21.1266,17.26698"
     id="path142"
     style="stroke-width:0.992" />
  <path
     class="Note"
     d="m 236.95964,208.7975 c 0,4.2625 3.069,9.02102 11.11348,9.02102 10.30757,0 21.12652,-8.43202 21.12652,-17.15852 0,-5.859 -4.96,-9.12948 -11.11347,-9.12948 -9.62548,0 -21.12653,8.13748 -21.12653,17.26698"
     id="path144"
     style="stroke-width:0.992" />
  <path
     class="Note"
     d="m 3584.9636,221.1975 c 0,4.2625 3.069,9.02102 11.1135,9.02102 10.3076,0 21.1265,-8.43202 21.1265,-17.15852 0,-5.859 -4.96,-9.12948 -11.1134,-9.12948 -9.6255,0 -21.1266,8.13748 -21.1266,17.26698"
     id="path146"
     style="stroke-width:0.992" />
  <path
     class="Note"
     d="m 3725.1271,215.94295 c -13.6865,0 -18.5535,6.94405 -18.5535,13.39205 0,6.448 4.867,13.39205 18.5535,13.39205 13.6865,0 18.4451,-6.94405 18.4451,-13.39205 0,-6.448 -4.7586,-13.39205 -18.4451,-13.39205 m 5.0531,23.00205 c -1.1935,0.403 -2.7746,0.60448 -4.2626,0.60448 -2.7745,0 -4.6654,-0.79048 -5.952,-3.27048 -1.2865,-2.48 -3.0689,-8.835 -3.1774,-11.5165 -0.2015,-2.6815 0.7905,-4.2625 3.1774,-5.053 1.1935,-0.40298 2.7746,-0.60455 4.2626,-0.60455 2.7745,0 4.5725,0.60455 5.952,3.28605 1.3949,2.666 3.1774,9.021 3.1774,11.501 0,2.573 -0.7905,4.371 -3.1774,5.053"
     id="path148"
     style="stroke-width:0.992" />
  <path
     class="Note"
     d="m 2716.9636,208.7975 c 0,4.2625 3.069,9.02102 11.1135,9.02102 10.3076,0 21.1265,-8.43202 21.1265,-17.15852 0,-5.859 -4.96,-9.12948 -11.1134,-9.12948 -9.6255,0 -21.1266,8.13748 -21.1266,17.26698"
     id="path150"
     style="stroke-width:0.992" />
  <path
     class="Note"
     d="m 1848.9636,183.9975 c 0,4.2625 3.069,9.02102 11.1135,9.02102 10.3076,0 21.1265,-8.43202 21.1265,-17.15852 0,-5.859 -4.96,-9.12948 -11.1134,-9.12948 -9.6255,0 -21.1266,8.13748 -21.1266,17.26698"
     id="path152"
     style="stroke-width:0.992" />
  <path
     class="Note"
     d="m 1972.9636,183.9975 c 0,4.2625 3.069,9.02102 11.1135,9.02102 10.3076,0 21.1265,-8.43202 21.1265,-17.15852 0,-5.859 -4.96,-9.12948 -11.1134,-9.12948 -9.6255,0 -21.1266,8.13748 -21.1266,17.26698"
     id="path154"
     style="stroke-width:0.992" />
  <path
     class="Note"
     d="m 1476.9636,221.1975 c 0,4.2625 3.069,9.02102 11.1135,9.02102 10.3076,0 21.1265,-8.43202 21.1265,-17.15852 0,-5.859 -4.96,-9.12948 -11.1134,-9.12948 -9.6255,0 -21.1266,8.13748 -21.1266,17.26698"
     id="path156"
     style="stroke-width:0.992" />
  <path
     class="Note"
     d="m 1352.9636,221.1975 c 0,4.2625 3.069,9.02102 11.1135,9.02102 10.3076,0 21.1265,-8.43202 21.1265,-17.15852 0,-5.859 -4.96,-9.12948 -11.1134,-9.12948 -9.6255,0 -21.1266,8.13748 -21.1266,17.26698"
     id="path158"
     style="stroke-width:0.992" />
  <path
     class="Note"
     d="m 2220.9636,208.7975 c 0,4.2625 3.069,9.02102 11.1135,9.02102 10.3076,0 21.1265,-8.43202 21.1265,-17.15852 0,-5.859 -4.96,-9.12948 -11.1134,-9.12948 -9.6255,0 -21.1266,8.13748 -21.1266,17.26698"
     id="path160"
     style="stroke-width:0.992" />
  <path
     class="Note"
     d="m 2344.9636,221.1975 c 0,4.2625 3.069,9.02102 11.1135,9.02102 10.3076,0 21.1265,-8.43202 21.1265,-17.15852 0,-5.859 -4.96,-9.12948 -11.1134,-9.12948 -9.6255,0 -21.1266,8.13748 -21.1266,17.26698"
     id="path162"
     style="stroke-width:0.992" />
  <path
     class="Note"
     d="m 1228.9636,221.1975 c 0,4.2625 3.069,9.02102 11.1135,9.02102 10.3076,0 21.1265,-8.43202 21.1265,-17.15852 0,-5.859 -4.96,-9.12948 -11.1134,-9.12948 -9.6255,0 -21.1266,8.13748 -21.1266,17.26698"
     id="path164"
     style="stroke-width:0.992" />
  <path
     class="Note"
     d="m 2468.9636,233.5975 c 0,4.2625 3.069,9.02102 11.1135,9.02102 10.3076,0 21.1265,-8.43202 21.1265,-17.15852 0,-5.859 -4.96,-9.12948 -11.1134,-9.12948 -9.6255,0 -21.1266,8.13748 -21.1266,17.26698"
     id="path166"
     style="stroke-width:0.992" />
  <path
     class="Note"
     d="m 2592.9636,221.1975 c 0,4.2625 3.069,9.02102 11.1135,9.02102 10.3076,0 21.1265,-8.43202 21.1265,-17.15852 0,-5.859 -4.96,-9.12948 -11.1134,-9.12948 -9.6255,0 -21.1266,8.13748 -21.1266,17.26698"
     id="path168"
     style="stroke-width:0.992" />
  <path
     class="Note"
     d="m 980.96364,208.7975 c 0,4.2625 3.069,9.02102 11.11348,9.02102 10.30758,0 21.12648,-8.43202 21.12648,-17.15852 0,-5.859 -4.96,-9.12948 -11.1134,-9.12948 -9.62551,0 -21.12656,8.13748 -21.12656,17.26698"
     id="path170"
     style="stroke-width:0.992" />
  <path
     class="Note"
     d="m 856.96364,208.7975 c 0,4.2625 3.069,9.02102 11.11348,9.02102 10.30757,0 21.12652,-8.43202 21.12652,-17.15852 0,-5.859 -4.96,-9.12948 -11.11347,-9.12948 -9.62548,0 -21.12653,8.13748 -21.12653,17.26698"
     id="path172"
     style="stroke-width:0.992" />
  <path
     class="Clef"
     d="m 109.99912,181.905 c 0,7.0525 -2.88295,14.291 -9.92,17.17405 -2.076953,-11.90405 -4.758429,-27.68305 -5.456003,-32.0541 8.928003,0 15.376003,6.06055 15.376003,14.88005 m -14.089478,18.35205 c -1.984,0.40295 -3.859475,0.60443 -5.750525,0.60443 -14.182426,0 -26.28797,-9.92 -26.28797,-24.90848 0,-12.09005 8.52502,-22.909 17.26702,-30.45752 1.674,-1.488 3.270524,-2.86748 4.758524,-4.35548 0.883476,5.34748 1.580951,10.01295 2.278426,14.08948 -9.036426,2.68147 -15.174426,12.19852 -15.174426,21.52952 0,6.944 5.456,16.461 13.392,16.461 0.790426,0 1.689476,-0.40295 1.689476,-1.28652 0,-0.89896 -0.992,-1.39496 -2.185476,-2.18548 -3.875049,-2.387 -6.060524,-4.96 -6.060524,-9.827 0,-6.045 4.464,-10.91205 10.32295,-12.29152 l 5.750525,32.62757 M 87.183117,98.282525 c 0.89905,-3.968 5.456,-14.384 10.617574,-14.384 1.488,0 3.859479,4.851475 3.859479,11.702425 0,10.32305 -7.626003,18.05757 -14.477053,24.8 -0.58895,-3.968 -1.08495,-7.82747 -1.08495,-11.99695 0,-3.67348 0.294524,-7.05252 1.08495,-10.121475 m -20.832,132.431995 c 0,6.55653 5.05305,15.19 18.44505,15.19 4.665475,0 8.742,-1.19347 12.30695,-3.37904 5.363053,-3.76643 6.742523,-10.32296 6.742523,-16.56948 0,-3.85948 -0.58895,-8.32348 -1.58095,-13.98095 -0.29452,-1.984 -0.89905,-4.96 -1.488,-8.83505 9.71843,-3.17748 16.95695,-13.29895 16.95695,-23.5135 0,-14.97302 -10.61747,-25.0945 -25.094523,-25.0945 -0.992,-5.952 -1.984,-11.81105 -2.88295,-17.36 10.524523,-11.02052 17.762953,-23.42052 17.762953,-39.184 0,-9.036525 -2.77443,-16.368 -4.37095,-19.948128 -2.37148,-5.053248 -5.254528,-8.525248 -7.037053,-8.525248 -0.697475,0 -3.766426,1.193376 -7.03695,5.053248 -6.35505,7.548128 -8.137476,20.242653 -8.137476,28.566128 0,5.36295 0.496,10.23 2.185476,21.34348 -0.108525,0.093 -5.27,5.34747 -7.34705,7.03704 -9.036426,8.432 -21.529475,20.42896 -21.529475,40.28448 0,18.53805 16.166525,33.12352 34.627049,33.12352 2.867476,0 5.548951,-0.29452 7.827476,-0.69747 1.89095,9.53243 2.976,16.47643 2.976,21.73095 0,10.32305 -5.254525,15.77905 -15.267476,15.77905 -2.387049,0 -4.464,-0.496 -4.665574,-0.496 -0.09295,-0.10853 -0.294426,-0.20157 -0.294426,-0.29453 0,-0.20147 0.201476,-0.31 0.496,-0.40304 4.665476,-0.69748 9.315476,-4.66548 9.315476,-11.00496 0,-5.36304 -4.06105,-11.02052 -11.50105,-11.02052 -6.944,0 -11.408,5.65748 -11.408,12.19852"
     id="path174"
     style="stroke-width:0.992" />
  <path
     class="Clef"
     d="m 79.448691,365.73495 c -7.548524,0 -13.593574,4.35557 -13.702,4.35557 -5.750544,4.26243 -8.029049,9.33096 -8.928049,12.80298 -0.496,1.7825 -0.682,3.565 -0.682,5.2545 0,2.387 0.387505,4.557 1.286505,6.448 1.193495,2.6815 3.472,4.557 6.448,5.549 1.193544,0.403 2.47997,0.60448 3.766495,0.60448 2.185475,0 4.464,-0.60448 6.355049,-1.68948 3.068951,-1.6895 4.96,-5.2545 4.96,-9.1295 0,-3.472 -1.798,-6.6495 -4.774,-8.525 -2.077049,-1.39498 -4.061049,-1.78255 -5.750524,-1.78255 -1.193476,0 -2.278525,0.186 -3.177476,0.496 -0.992,0.38757 -2.666049,1.37955 -3.472049,2.07705 0.31,-1.89105 1.488,-4.75852 2.588475,-6.35505 1.08505,-1.58095 3.270525,-3.56495 4.96,-4.464 2.48,-1.37947 5.657574,-1.984 9.129574,-1.984 10.121476,0 15.081476,8.13757 15.081476,24.80005 0,9.23805 -3.472,18.05752 -6.448,23.91648 -3.286,6.54104 -7.641476,12.80304 -11.516525,16.27504 -10.322951,9.424 -20.041495,13.888 -20.134495,13.888 0,0 -1.193505,0.682 -1.193505,1.87548 0,0.20148 0.093,0.29452 0.093,0.496 0.31,0.992 1.193505,1.19348 1.798,1.19348 0.093,0 0.387505,-0.093 0.496,-0.093 0.093,0 11.408049,-4.66547 20.429,-11.718 5.068525,-3.658 9.625475,-7.626 13.593475,-11.904 3.56505,-3.85947 6.649574,-8.02904 9.129574,-12.19852 4.355479,-7.44 6.835479,-15.17452 6.835479,-21.824 0,-8.2305 -2.17,-15.08148 -6.24653,-19.93305 -4.665473,-5.56443 -11.702523,-8.432 -20.924949,-8.432 m 31.139479,12.586 c 0,2.79005 2.18547,4.96005 4.774,4.96005 2.57295,0 4.75852,-2.17 4.75852,-4.96005 0,-2.77443 -2.18557,-5.05295 -4.75852,-5.05295 -2.58853,0 -4.774,2.27852 -4.774,5.05295 m 0,24.50557 c 0,2.77453 2.18547,5.06853 4.774,5.06853 2.57295,0 4.75852,-2.294 4.75852,-5.06853 0,-2.77452 -2.18557,-5.05302 -4.75852,-5.05302 -2.58853,0 -4.774,2.2785 -4.774,5.05302"
     id="path176"
     style="stroke-width:0.992" />
  <path
     class="TimeSig"
     d="m 164.15617,142.82948 v 7.33157 h -8.23053 c -0.69747,0 -1.39495,0.60443 -1.39495,1.39495 v 1.89105 c 0,0.79043 0.69748,1.37947 1.39495,1.37947 h 30.05453 c 0.806,0 1.39495,-0.58904 1.39495,-1.37947 V 151.556 c 0,-0.79052 -0.58895,-1.39495 -1.39495,-1.39495 h -8.928 v -7.33157 h 8.928 c 0.806,0 1.39495,-0.69748 1.39495,-1.488 v -1.89098 c 0,-0.6975 -0.58895,-1.3795 -1.39495,-1.3795 h -8.928 v -15.779 c 0,-0.589 -0.29453,-1.085 -0.682,-1.2865 l -1.19348,-0.6045 c -0.20157,-0.093 -0.29452,-0.093 -0.496,-0.093 -0.10852,0 -0.10852,0 -0.20157,0 -0.29443,0 -0.69748,0.093 -0.89895,0.2945 l -9.02105,8.2305 c -0.29443,0.31 -0.40295,0.6975 -0.40295,1.1005 v 8.1375 h -11.50102 c 0,0 11.11354,-11.904 22.81597,-27.59005 0.40305,-0.496 0.496,-0.992 0.496,-1.37947 0,-0.496 -0.20148,-0.89896 -0.29443,-0.992 l -2.18557,-2.18548 c -0.29443,-0.20148 -0.58895,-0.40305 -0.992,-0.40305 -0.58895,0 -13.99643,0 -14.78695,0 -0.69748,0 -1.19348,0.60453 -1.28653,1.19357 0,0 -0.496,7.34696 -3.069,15.37598 -2.58849,8.0445 -5.56449,13.0045 -8.13749,16.6625 0,0 -0.29451,0.496 -0.29451,1.1005 0,0.2015 0,0.38755 0.093,0.58902 0.29451,0.69748 0.992,1.78253 0.992,1.78253 0,0 0.20151,0.60443 1.085,0.60443 h 17.06553"
     id="path178"
     style="stroke-width:0.992" />
  <path
     class="TimeSig"
     d="m 164.15617,192.42948 v 7.33157 h -8.23053 c -0.69747,0 -1.39495,0.60443 -1.39495,1.39495 v 1.89105 c 0,0.79043 0.69748,1.37947 1.39495,1.37947 h 30.05453 c 0.806,0 1.39495,-0.58904 1.39495,-1.37947 V 201.156 c 0,-0.79052 -0.58895,-1.39495 -1.39495,-1.39495 h -8.928 v -7.33157 h 8.928 c 0.806,0 1.39495,-0.69748 1.39495,-1.488 v -1.89098 c 0,-0.6975 -0.58895,-1.3795 -1.39495,-1.3795 h -8.928 v -15.779 c 0,-0.589 -0.29453,-1.085 -0.682,-1.2865 l -1.19348,-0.6045 c -0.20157,-0.093 -0.29452,-0.093 -0.496,-0.093 -0.10852,0 -0.10852,0 -0.20157,0 -0.29443,0 -0.69748,0.093 -0.89895,0.2945 l -9.02105,8.2305 c -0.29443,0.31 -0.40295,0.6975 -0.40295,1.1005 v 8.1375 h -11.50102 c 0,0 11.11354,-11.904 22.81597,-27.59005 0.40305,-0.496 0.496,-0.992 0.496,-1.37947 0,-0.496 -0.20148,-0.89896 -0.29443,-0.992 l -2.18557,-2.18548 c -0.29443,-0.20148 -0.58895,-0.40305 -0.992,-0.40305 -0.58895,0 -13.99643,0 -14.78695,0 -0.69748,0 -1.19348,0.60453 -1.28653,1.19357 0,0 -0.496,7.34696 -3.069,15.37598 -2.58849,8.0445 -5.56449,13.0045 -8.13749,16.6625 0,0 -0.29451,0.496 -0.29451,1.1005 0,0.2015 0,0.38755 0.093,0.58902 0.29451,0.69748 0.992,1.78253 0.992,1.78253 0,0 0.20151,0.60443 1.085,0.60443 h 17.06553"
     id="path180"
     style="stroke-width:0.992" />
  <path
     class="TimeSig"
     d="m 164.15617,403.22948 v 7.33157 h -8.23053 c -0.69747,0 -1.39495,0.60443 -1.39495,1.39495 v 1.89105 c 0,0.79043 0.69748,1.37947 1.39495,1.37947 h 30.05453 c 0.806,0 1.39495,-0.58904 1.39495,-1.37947 V 411.956 c 0,-0.79052 -0.58895,-1.39495 -1.39495,-1.39495 h -8.928 v -7.33157 h 8.928 c 0.806,0 1.39495,-0.69748 1.39495,-1.488 v -1.89098 c 0,-0.6975 -0.58895,-1.3795 -1.39495,-1.3795 h -8.928 v -15.779 c 0,-0.589 -0.29453,-1.085 -0.682,-1.2865 l -1.19348,-0.6045 c -0.20157,-0.093 -0.29452,-0.093 -0.496,-0.093 -0.10852,0 -0.10852,0 -0.20157,0 -0.29443,0 -0.69748,0.093 -0.89895,0.2945 l -9.02105,8.2305 c -0.29443,0.31 -0.40295,0.6975 -0.40295,1.1005 v 8.1375 h -11.50102 c 0,0 11.11354,-11.904 22.81597,-27.59005 0.40305,-0.496 0.496,-0.992 0.496,-1.37947 0,-0.496 -0.20148,-0.89896 -0.29443,-0.992 l -2.18557,-2.18548 c -0.29443,-0.20148 -0.58895,-0.40305 -0.992,-0.40305 -0.58895,0 -13.99643,0 -14.78695,0 -0.69748,0 -1.19348,0.60453 -1.28653,1.19357 0,0 -0.496,7.34696 -3.069,15.37598 -2.58849,8.0445 -5.56449,13.0045 -8.13749,16.6625 0,0 -0.29451,0.496 -0.29451,1.1005 0,0.2015 0,0.38755 0.093,0.58902 0.29451,0.69748 0.992,1.78253 0.992,1.78253 0,0 0.20151,0.60443 1.085,0.60443 h 17.06553"
     id="path182"
     style="stroke-width:0.992" />
  <path
     class="TimeSig"
     d="m 164.15617,452.82948 v 7.33157 h -8.23053 c -0.69747,0 -1.39495,0.60443 -1.39495,1.39495 v 1.89105 c 0,0.79043 0.69748,1.37947 1.39495,1.37947 h 30.05453 c 0.806,0 1.39495,-0.58904 1.39495,-1.37947 V 461.556 c 0,-0.79052 -0.58895,-1.39495 -1.39495,-1.39495 h -8.928 v -7.33157 h 8.928 c 0.806,0 1.39495,-0.69748 1.39495,-1.488 v -1.89098 c 0,-0.6975 -0.58895,-1.3795 -1.39495,-1.3795 h -8.928 v -15.779 c 0,-0.589 -0.29453,-1.085 -0.682,-1.2865 l -1.19348,-0.6045 c -0.20157,-0.093 -0.29452,-0.093 -0.496,-0.093 -0.10852,0 -0.10852,0 -0.20157,0 -0.29443,0 -0.69748,0.093 -0.89895,0.2945 l -9.02105,8.2305 c -0.29443,0.31 -0.40295,0.6975 -0.40295,1.1005 v 8.1375 h -11.50102 c 0,0 11.11354,-11.904 22.81597,-27.59005 0.40305,-0.496 0.496,-0.992 0.496,-1.37947 0,-0.496 -0.20148,-0.89896 -0.29443,-0.992 l -2.18557,-2.18548 c -0.29443,-0.20148 -0.58895,-0.40305 -0.992,-0.40305 -0.58895,0 -13.99643,0 -14.78695,0 -0.69748,0 -1.19348,0.60453 -1.28653,1.19357 0,0 -0.496,7.34696 -3.069,15.37598 -2.58849,8.0445 -5.56449,13.0045 -8.13749,16.6625 0,0 -0.29451,0.496 -0.29451,1.1005 0,0.2015 0,0.38755 0.093,0.58902 0.29451,0.69748 0.992,1.78253 0.992,1.78253 0,0 0.20151,0.60443 1.085,0.60443 h 17.06553"
     id="path184"
     style="stroke-width:0.992" />
  <path
     class="Rest"
     d="m 1127.7796,171.48905 c -0.093,-0.0931 -0.2945,-0.29453 -0.5889,-0.682 l -11.408,-14.08955 c -0.1085,-0.1085 -0.2016,-0.403 -0.2016,-0.6045 0,-0.2945 0.093,-0.682 0.2016,-0.8835 l 10.106,-15.28298 c 0.1084,-0.20157 0.2015,-0.496 0.2015,-0.69757 v -0.88347 c 0,-0.29453 -0.093,-0.60453 -0.2946,-0.79053 L 1109.7221,115.844 c 0,0 -0.3875,-0.60452 -0.992,-0.60452 -0.2945,0 -0.496,0.10852 -0.7905,0.31 -0.403,0.29452 -0.496,0.682 -0.496,0.992 0,0.58904 0.2945,1.08504 0.2945,1.08504 l 7.5486,10.32296 c 0.186,0.29452 0.2944,0.682 0.2944,1.178 0,0.40304 -0.1084,0.89904 -0.2944,1.19347 l -10.0286,15.28305 c -0.093,0.2015 -0.2015,0.589 -0.2015,0.7905 v 0.899 c 0,0.2945 0.1085,0.589 0.31,0.7905 l 11.0981,13.795 c -0.3876,-0.1085 -1.2865,-0.31 -2.4801,-0.31 -1.674,0 -3.8595,0.403 -5.642,1.984 -2.1855,1.98405 -3.379,4.77405 -3.379,7.25405 0,1.37947 0.2945,2.77443 1.085,3.85947 2.0925,3.17748 9.5325,12.60148 9.5325,12.60148 0,0 0.496,0.60452 1.1936,0.60452 0.186,0 0.3875,0 0.5889,-0.20147 0.496,-0.40305 0.6975,-0.79053 0.6975,-1.19357 0,-0.40296 -0.2015,-0.69748 -0.2944,-0.89896 -0.31,-0.496 -3.4721,-6.24652 -3.4721,-6.24652 0,0 -0.6975,-1.39495 -0.6975,-3.17748 0,-1.28652 0.3875,-2.86747 1.6896,-4.16947 1.178,-1.178 2.5729,-1.58105 3.8595,-1.58105 1.2865,0 2.3869,0.40305 3.1774,0.89905 l 3.8751,2.48 c 0,0 0.3875,0.186 0.7904,0.186 0.3876,0 0.6976,-0.0931 0.992,-0.496 0.2016,-0.38757 0.2945,-0.58905 0.2945,-0.88357 0,-0.29443 -0.093,-0.496 -0.2945,-0.79043 l -0.2015,-0.31"
     id="path186"
     style="stroke-width:0.992" />
  <path
     class="Rest"
     d="m 1623.7796,171.48905 c -0.093,-0.0931 -0.2945,-0.29453 -0.5889,-0.682 l -11.408,-14.08955 c -0.1085,-0.1085 -0.2016,-0.403 -0.2016,-0.6045 0,-0.2945 0.093,-0.682 0.2016,-0.8835 l 10.106,-15.28298 c 0.1084,-0.20157 0.2015,-0.496 0.2015,-0.69757 v -0.88347 c 0,-0.29453 -0.093,-0.60453 -0.2946,-0.79053 L 1605.7221,115.844 c 0,0 -0.3875,-0.60452 -0.992,-0.60452 -0.2945,0 -0.496,0.10852 -0.7905,0.31 -0.403,0.29452 -0.496,0.682 -0.496,0.992 0,0.58904 0.2945,1.08504 0.2945,1.08504 l 7.5486,10.32296 c 0.186,0.29452 0.2944,0.682 0.2944,1.178 0,0.40304 -0.1084,0.89904 -0.2944,1.19347 l -10.0286,15.28305 c -0.093,0.2015 -0.2015,0.589 -0.2015,0.7905 v 0.899 c 0,0.2945 0.1085,0.589 0.31,0.7905 l 11.0981,13.795 c -0.3876,-0.1085 -1.2865,-0.31 -2.4801,-0.31 -1.674,0 -3.8595,0.403 -5.642,1.984 -2.1855,1.98405 -3.379,4.77405 -3.379,7.25405 0,1.37947 0.2945,2.77443 1.085,3.85947 2.0925,3.17748 9.5325,12.60148 9.5325,12.60148 0,0 0.496,0.60452 1.1936,0.60452 0.186,0 0.3875,0 0.5889,-0.20147 0.496,-0.40305 0.6975,-0.79053 0.6975,-1.19357 0,-0.40296 -0.2015,-0.69748 -0.2944,-0.89896 -0.31,-0.496 -3.4721,-6.24652 -3.4721,-6.24652 0,0 -0.6975,-1.39495 -0.6975,-3.17748 0,-1.28652 0.3875,-2.86747 1.6896,-4.16947 1.178,-1.178 2.5729,-1.58105 3.8595,-1.58105 1.2865,0 2.3869,0.40305 3.1774,0.89905 l 3.8751,2.48 c 0,0 0.3875,0.186 0.7904,0.186 0.3876,0 0.6976,-0.0931 0.992,-0.496 0.2016,-0.38757 0.2945,-0.58905 0.2945,-0.88357 0,-0.29443 -0.093,-0.496 -0.2945,-0.79043 l -0.2015,-0.31"
     id="path188"
     style="stroke-width:0.992" />
  <path
     class="Rest"
     d="m 2119.7796,171.48905 c -0.093,-0.0931 -0.2945,-0.29453 -0.5889,-0.682 l -11.408,-14.08955 c -0.1085,-0.1085 -0.2016,-0.403 -0.2016,-0.6045 0,-0.2945 0.093,-0.682 0.2016,-0.8835 l 10.106,-15.28298 c 0.1084,-0.20157 0.2015,-0.496 0.2015,-0.69757 v -0.88347 c 0,-0.29453 -0.093,-0.60453 -0.2946,-0.79053 L 2101.7221,115.844 c 0,0 -0.3875,-0.60452 -0.992,-0.60452 -0.2945,0 -0.496,0.10852 -0.7905,0.31 -0.403,0.29452 -0.496,0.682 -0.496,0.992 0,0.58904 0.2945,1.08504 0.2945,1.08504 l 7.5486,10.32296 c 0.186,0.29452 0.2944,0.682 0.2944,1.178 0,0.40304 -0.1084,0.89904 -0.2944,1.19347 l -10.0286,15.28305 c -0.093,0.2015 -0.2015,0.589 -0.2015,0.7905 v 0.899 c 0,0.2945 0.1085,0.589 0.31,0.7905 l 11.0981,13.795 c -0.3876,-0.1085 -1.2865,-0.31 -2.4801,-0.31 -1.674,0 -3.8595,0.403 -5.642,1.984 -2.1855,1.98405 -3.379,4.77405 -3.379,7.25405 0,1.37947 0.2945,2.77443 1.085,3.85947 2.0925,3.17748 9.5325,12.60148 9.5325,12.60148 0,0 0.496,0.60452 1.1936,0.60452 0.186,0 0.3875,0 0.5889,-0.20147 0.496,-0.40305 0.6975,-0.79053 0.6975,-1.19357 0,-0.40296 -0.2015,-0.69748 -0.2944,-0.89896 -0.31,-0.496 -3.4721,-6.24652 -3.4721,-6.24652 0,0 -0.6975,-1.39495 -0.6975,-3.17748 0,-1.28652 0.3875,-2.86747 1.6896,-4.16947 1.178,-1.178 2.5729,-1.58105 3.8595,-1.58105 1.2865,0 2.3869,0.40305 3.1774,0.89905 l 3.8751,2.48 c 0,0 0.3875,0.186 0.7904,0.186 0.3876,0 0.6976,-0.0931 0.992,-0.496 0.2016,-0.38757 0.2945,-0.58905 0.2945,-0.88357 0,-0.29443 -0.093,-0.496 -0.2945,-0.79043 l -0.2015,-0.31"
     id="path190"
     style="stroke-width:0.992" />
  <path
     class="Rest"
     d="m 3928.5986,390.132 c -0.806,0 -1.395,0.589 -1.395,1.395 v 10.71048 c 0,0.79052 0.589,1.37957 1.395,1.37957 h 29.4656 c 0.7905,0 1.3794,-0.58905 1.3794,-1.37957 V 391.527 c 0,-0.806 -0.5889,-1.395 -1.3794,-1.395 h -29.4656"
     id="path192"
     style="stroke-width:0.992" />
  <path
     class="Rest"
     d="m 1933.4386,390.132 c -0.806,0 -1.395,0.589 -1.395,1.395 v 10.71048 c 0,0.79052 0.589,1.37957 1.395,1.37957 h 29.4656 c 0.7905,0 1.3794,-0.58905 1.3794,-1.37957 V 391.527 c 0,-0.806 -0.5889,-1.395 -1.3794,-1.395 h -29.4656"
     id="path194"
     style="stroke-width:0.992" />
  <path
     class="Rest"
     d="m 2925.4386,390.132 c -0.806,0 -1.395,0.589 -1.395,1.395 v 10.71048 c 0,0.79052 0.589,1.37957 1.395,1.37957 h 29.4656 c 0.7905,0 1.3794,-0.58905 1.3794,-1.37957 V 391.527 c 0,-0.806 -0.5889,-1.395 -1.3794,-1.395 h -29.4656"
     id="path196"
     style="stroke-width:0.992" />
  <path
     class="Rest"
     d="m 420.64264,390.132 c -0.806,0 -1.395,0.589 -1.395,1.395 v 10.71048 c 0,0.79052 0.589,1.37957 1.395,1.37957 h 29.46553 c 0.79052,0 1.37947,-0.58905 1.37947,-1.37957 V 391.527 c 0,-0.806 -0.58895,-1.395 -1.37947,-1.395 h -29.46553"
     id="path198"
     style="stroke-width:0.992" />
  <path
     class="Rest"
     d="m 3421.4386,390.132 c -0.806,0 -1.395,0.589 -1.395,1.395 v 10.71048 c 0,0.79052 0.589,1.37957 1.395,1.37957 h 29.4656 c 0.7905,0 1.3794,-0.58905 1.3794,-1.37957 V 391.527 c 0,-0.806 -0.5889,-1.395 -1.3794,-1.395 h -29.4656"
     id="path200"
     style="stroke-width:0.992" />
  <path
     class="Rest"
     d="m 2429.4386,390.132 c -0.806,0 -1.395,0.589 -1.395,1.395 v 10.71048 c 0,0.79052 0.589,1.37957 1.395,1.37957 h 29.4656 c 0.7905,0 1.3794,-0.58905 1.3794,-1.37957 V 391.527 c 0,-0.806 -0.5889,-1.395 -1.3794,-1.395 h -29.4656"
     id="path202"
     style="stroke-width:0.992" />
  <path
     class="Rest"
     d="m 1437.4386,390.132 c -0.806,0 -1.395,0.589 -1.395,1.395 v 10.71048 c 0,0.79052 0.589,1.37957 1.395,1.37957 h 29.4656 c 0.7905,0 1.3794,-0.58905 1.3794,-1.37957 V 391.527 c 0,-0.806 -0.5889,-1.395 -1.3794,-1.395 h -29.4656"
     id="path204"
     style="stroke-width:0.992" />
  <path
     class="Rest"
     d="m 941.43864,390.132 c -0.806,0 -1.395,0.589 -1.395,1.395 v 10.71048 c 0,0.79052 0.589,1.37957 1.395,1.37957 h 29.46553 c 0.79052,0 1.37947,-0.58905 1.37947,-1.37957 V 391.527 c 0,-0.806 -0.58895,-1.395 -1.37947,-1.395 h -29.46553"
     id="path206"
     style="stroke-width:0.992" />
  <path
     class="Tempo"
     d="m 168.85464,0 h -3.266 v 42.266 c -1.094,-0.688 -2.484,-1.094 -4.063,-1.281 -3.562,0 -6.437,0.39 -9.609,2.172 -3.953,2.078 -8.312,6.437 -8.312,11.281 0,1.094 0.203,2.187 0.796,3.172 1.282,2.468 4.36,3.859 7.813,3.859 6.937,0 16.641,-5.937 16.641,-13.469 V 0"
     id="path208" />
  <path
     class="Tempo"
     d="m 190.58864,37.953 h 30.234 v -6.906 h -30.234 v 6.906 m 0,12.36 h 30.234 v -6.906 h -30.234 v 6.906 m 72.203,-36.969 h -2.109 c -3.782,2.828 -8.032,4.031 -15.172,4.141 v 3.359 h 2.515 c 5.344,0 5.407,0.125 5.344,5.047 v 21.297 c 0,3.719 0,3.906 -0.422,4.5 -0.547,0.656 -1.75,0.906 -4.984,0.906 h -1.922 v 3.234 h 23.938 v -3.234 h -1.922 c -3.172,0 -4.313,-0.25 -4.86,-0.906 -0.406,-0.594 -0.406,-0.844 -0.406,-4.5 V 13.344 m 40.359,26.531 -0.671,3 c -0.532,2.391 -0.891,3.172 -1.375,3.469 -0.594,0.422 -0.719,0.422 -4.5,0.484 h -11.579 c 2.094,-1.796 3.657,-2.937 6,-4.5 8.454,-5.453 10.204,-6.781 11.938,-9 2.047,-2.703 3.234,-5.875 3.234,-8.703 0,-6.422 -6.297,-11.281 -14.75,-11.281 -8.156,0 -14.468,5.281 -14.468,12.125 0,4.203 2.343,6.906 5.953,6.906 3.109,0 5.093,-1.984 5.093,-5.109 0,-2.578 -1.14,-4.078 -3.906,-5.391 -0.656,-0.312 -0.953,-0.672 -0.953,-1.14 0,-1.922 3.234,-3.969 6.234,-3.969 4.204,0 6.61,2.578 6.61,7.031 0,4.969 -1.922,8.516 -8.281,15.297 -6.719,7.141 -9.063,9.828 -12.063,14.156 v 2.813 c 1.563,-0.172 2.219,-0.235 3.125,-0.235 h 22.547 c 1.141,0 1.859,0.063 3.672,0.235 l 1.375,-16.188 h -3.235 m 22.594,-26.531 c -9,0 -15.594,9.188 -15.594,21.672 0,12.469 6.594,21.656 15.594,21.656 8.813,0 15.547,-9.187 15.547,-21.359 0,-7.078 -1.625,-12.297 -5.172,-16.75 -2.812,-3.406 -6.359,-5.219 -10.375,-5.219 m -0.062,3.125 c 1.797,0 3.25,1.078 3.906,3 0.781,1.984 1.25,8.281 1.25,15.719 0,6.187 -0.469,12.656 -1.016,14.703 -0.656,2.391 -2.093,3.656 -4.14,3.656 -1.86,0 -3.235,-1.015 -3.953,-3 -0.782,-1.984 -1.266,-8.344 -1.266,-15.531 0,-6.313 0.484,-12.844 1.016,-14.891 0.671,-2.39 2.109,-3.656 4.203,-3.656"
     id="path210" />
  <path
     class="Bracket"
     d="m 3.3985167,285.228 c 6.4615805,-6.85505 19.0475803,-20.84565 19.0475803,-46.748 0,-32.7574 -14.0468748,-65.85175 -14.0468748,-86.304 0,-21.9694 12.5859998,-42.47775 13.3164198,-43.152 0,-0.3934 0,-0.3934 0,-0.73035 0,-0.3934 0,-0.7307 -0.337125,-1.06765 -0.393295,0 -1.12375,0 -1.460875,0.67425 -0.337125,0.3934 -19.77800025,19.778 -19.77800025,49.27635 0,31.63365 12.58600025,53.94 12.58600025,95.294 0,7.92235 -3.2588753,20.50835 -12.24887525,31.68975 -0.337125,0 -0.337125,0.67425 -0.337125,1.06765 -0.337125,0.33695 0,0.73035 0.337125,1.06765 8.98999995,11.12495 12.24887525,23.71095 12.24887525,31.6333 0,41.354 -12.58600025,63.6607 -12.58600025,95.294 0,29.16147 19.44087525,48.93949 19.77800025,49.27661 0.337125,0.73044 1.06758,1.06757 1.460875,0.73044 0.337125,-0.33713 0.67425,-0.73044 0.337125,-1.06756 0,0 0,-0.39331 0,-0.73044 -0.73042,-0.73046 -13.3164198,-21.23888 -13.3164198,-43.152 0,-20.50835 14.0468748,-53.60305 14.0468748,-86.304 0,-26.23965 -12.5859998,-39.9494 -19.0475803,-46.748"
     id="path212"
     style="stroke-width:3.596" />
</svg>
