<?xml version="1.0" encoding="UTF-8" standalone="no"?>
<svg
   width="979.48071mm"
   height="28.871828mm"
   viewBox="0 0 13882.404 409.20702"
   version="1.2"
   id="svg272"
   sodipodi:docname="Minuet In G.svg"
   inkscape:version="1.4.2 (ebf0e94, 2025-05-08)"
   xmlns:inkscape="http://www.inkscape.org/namespaces/inkscape"
   xmlns:sodipodi="http://sodipodi.sourceforge.net/DTD/sodipodi-0.dtd"
   xmlns="http://www.w3.org/2000/svg"
   xmlns:svg="http://www.w3.org/2000/svg">
  <defs
     id="defs272" />
  <sodipodi:namedview
     id="namedview272"
     pagecolor="#ffffff"
     bordercolor="#000000"
     borderopacity="0.25"
     inkscape:showpageshadow="2"
     inkscape:pageopacity="0.0"
     inkscape:pagecheckerboard="0"
     inkscape:deskcolor="#d1d1d1"
     inkscape:document-units="mm"
     inkscape:zoom="0.66512232"
     inkscape:cx="1860.56"
     inkscape:cy="100.73335"
     inkscape:window-width="1025"
     inkscape:window-height="1026"
     inkscape:window-x="0"
     inkscape:window-y="0"
     inkscape:window-maximized="0"
     inkscape:current-layer="svg272" />
  <title
     id="title1">MinuetInG</title>
  <desc
     id="desc1">Generated by MuseScore Studio 4.5.2</desc>
  <polyline
     class="StaffLines"
     fill="none"
     stroke="#000000"
     stroke-width="2.73"
     stroke-linejoin="bevel"
     points="336.599,386.199 14187.8,386.199"
     id="polyline1"
     transform="translate(-305.41636,-348.992)" />
  <polyline
     class="StaffLines"
     fill="none"
     stroke="#000000"
     stroke-width="2.73"
     stroke-linejoin="bevel"
     points="336.599,410.999 14187.8,410.999"
     id="polyline2"
     transform="translate(-305.41636,-348.992)" />
  <polyline
     class="StaffLines"
     fill="none"
     stroke="#000000"
     stroke-width="2.73"
     stroke-linejoin="bevel"
     points="336.599,435.799 14187.8,435.799"
     id="polyline3"
     transform="translate(-305.41636,-348.992)" />
  <polyline
     class="StaffLines"
     fill="none"
     stroke="#000000"
     stroke-width="2.73"
     stroke-linejoin="bevel"
     points="336.599,460.599 14187.8,460.599"
     id="polyline4"
     transform="translate(-305.41636,-348.992)" />
  <polyline
     class="StaffLines"
     fill="none"
     stroke="#000000"
     stroke-width="2.73"
     stroke-linejoin="bevel"
     points="336.599,485.399 14187.8,485.399"
     id="polyline5"
     transform="translate(-305.41636,-348.992)" />
  <polyline
     class="StaffLines"
     fill="none"
     stroke="#000000"
     stroke-width="2.73"
     stroke-linejoin="bevel"
     points="336.599,646.599 14187.8,646.599"
     id="polyline6"
     transform="translate(-305.41636,-348.992)" />
  <polyline
     class="StaffLines"
     fill="none"
     stroke="#000000"
     stroke-width="2.73"
     stroke-linejoin="bevel"
     points="336.599,671.399 14187.8,671.399"
     id="polyline7"
     transform="translate(-305.41636,-348.992)" />
  <polyline
     class="StaffLines"
     fill="none"
     stroke="#000000"
     stroke-width="2.73"
     stroke-linejoin="bevel"
     points="336.599,696.199 14187.8,696.199"
     id="polyline8"
     transform="translate(-305.41636,-348.992)" />
  <polyline
     class="StaffLines"
     fill="none"
     stroke="#000000"
     stroke-width="2.73"
     stroke-linejoin="bevel"
     points="336.599,720.999 14187.8,720.999"
     id="polyline9"
     transform="translate(-305.41636,-348.992)" />
  <polyline
     class="StaffLines"
     fill="none"
     stroke="#000000"
     stroke-width="2.73"
     stroke-linejoin="bevel"
     points="336.599,745.799 14187.8,745.799"
     id="polyline10"
     transform="translate(-305.41636,-348.992)" />
  <polyline
     class="BarLine"
     fill="none"
     stroke="#000000"
     stroke-width="4.46"
     stroke-linejoin="bevel"
     points="5300.44,384.835 5300.44,646.599"
     id="polyline11"
     transform="translate(-305.41636,-348.992)" />
  <polyline
     class="BarLine"
     fill="none"
     stroke="#000000"
     stroke-width="4.46"
     stroke-linejoin="bevel"
     points="11709.1,384.835 11709.1,646.599"
     id="polyline12"
     transform="translate(-305.41636,-348.992)" />
  <polyline
     class="BarLine"
     fill="none"
     stroke="#000000"
     stroke-width="4.46"
     stroke-linejoin="bevel"
     points="1295.91,384.835 1295.91,646.599"
     id="polyline13"
     transform="translate(-305.41636,-348.992)" />
  <polyline
     class="BarLine"
     fill="none"
     stroke="#000000"
     stroke-width="4.46"
     stroke-linejoin="bevel"
     points="7704.53,384.835 7704.53,646.599"
     id="polyline14"
     transform="translate(-305.41636,-348.992)" />
  <polyline
     class="BarLine"
     fill="none"
     stroke="#000000"
     stroke-width="4.46"
     stroke-linejoin="bevel"
     points="4499.53,384.835 4499.53,646.599"
     id="polyline15"
     transform="translate(-305.41636,-348.992)" />
  <polyline
     class="BarLine"
     fill="none"
     stroke="#000000"
     stroke-width="4.46"
     stroke-linejoin="bevel"
     points="2096.82,384.835 2096.82,646.599"
     id="polyline16"
     transform="translate(-305.41636,-348.992)" />
  <polyline
     class="BarLine"
     fill="none"
     stroke="#000000"
     stroke-width="4.46"
     stroke-linejoin="bevel"
     points="6903.63,384.835 6903.63,646.599"
     id="polyline17"
     transform="translate(-305.41636,-348.992)" />
  <polyline
     class="BarLine"
     fill="none"
     stroke="#000000"
     stroke-width="4.46"
     stroke-linejoin="bevel"
     points="8505.44,384.835 8505.44,646.599"
     id="polyline18"
     transform="translate(-305.41636,-348.992)" />
  <polyline
     class="BarLine"
     fill="none"
     stroke="#000000"
     stroke-width="4.46"
     stroke-linejoin="bevel"
     points="12511.3,384.835 12511.3,646.599"
     id="polyline19"
     transform="translate(-305.41636,-348.992)" />
  <polyline
     class="BarLine"
     fill="none"
     stroke="#000000"
     stroke-width="4.46"
     stroke-linejoin="bevel"
     points="10908.2,384.835 10908.2,646.599"
     id="polyline20"
     transform="translate(-305.41636,-348.992)" />
  <polyline
     class="BarLine"
     fill="none"
     stroke="#000000"
     stroke-width="4.46"
     stroke-linejoin="bevel"
     points="3698.63,384.835 3698.63,646.599"
     id="polyline21"
     transform="translate(-305.41636,-348.992)" />
  <polyline
     class="BarLine"
     fill="none"
     stroke="#000000"
     stroke-width="4.46"
     stroke-linejoin="bevel"
     points="6102.72,384.835 6102.72,646.599"
     id="polyline22"
     transform="translate(-305.41636,-348.992)" />
  <polyline
     class="BarLine"
     fill="none"
     stroke="#000000"
     stroke-width="4.46"
     stroke-linejoin="bevel"
     points="9306.34,384.835 9306.34,646.599"
     id="polyline23"
     transform="translate(-305.41636,-348.992)" />
  <polyline
     class="BarLine"
     fill="none"
     stroke="#000000"
     stroke-width="4.46"
     stroke-linejoin="bevel"
     points="338.831,384.835 338.831,646.599"
     id="polyline24"
     transform="translate(-305.41636,-348.992)" />
  <polyline
     class="BarLine"
     fill="none"
     stroke="#000000"
     stroke-width="4.46"
     stroke-linejoin="bevel"
     points="2897.72,384.835 2897.72,646.599"
     id="polyline25"
     transform="translate(-305.41636,-348.992)" />
  <polyline
     class="BarLine"
     fill="none"
     stroke="#000000"
     stroke-width="4.46"
     stroke-linejoin="bevel"
     points="10107.2,384.835 10107.2,646.599"
     id="polyline26"
     transform="translate(-305.41636,-348.992)" />
  <polyline
     class="BarLine"
     fill="none"
     stroke="#000000"
     stroke-width="4.46"
     stroke-linejoin="bevel"
     points="13312.2,384.835 13312.2,646.599"
     id="polyline27"
     transform="translate(-305.41636,-348.992)" />
  <polyline
     class="BarLine"
     fill="none"
     stroke="#000000"
     stroke-width="4.46"
     stroke-linejoin="bevel"
     points="14162.8,384.835 14162.8,646.599"
     id="polyline28"
     transform="translate(-305.41636,-348.992)" />
  <polyline
     class="BarLine"
     fill="none"
     stroke="#000000"
     stroke-width="13.64"
     stroke-linejoin="bevel"
     points="14181,384.835 14181,646.599"
     id="polyline29"
     transform="translate(-305.41636,-348.992)" />
  <polyline
     class="BarLine"
     fill="none"
     stroke="#000000"
     stroke-width="4.46"
     stroke-linejoin="bevel"
     points="9306.34,645.235 9306.34,747.163"
     id="polyline30"
     transform="translate(-305.41636,-348.992)" />
  <polyline
     class="BarLine"
     fill="none"
     stroke="#000000"
     stroke-width="4.46"
     stroke-linejoin="bevel"
     points="4499.53,645.235 4499.53,747.163"
     id="polyline31"
     transform="translate(-305.41636,-348.992)" />
  <polyline
     class="BarLine"
     fill="none"
     stroke="#000000"
     stroke-width="4.46"
     stroke-linejoin="bevel"
     points="2897.72,645.235 2897.72,747.163"
     id="polyline32"
     transform="translate(-305.41636,-348.992)" />
  <polyline
     class="BarLine"
     fill="none"
     stroke="#000000"
     stroke-width="4.46"
     stroke-linejoin="bevel"
     points="7704.53,645.235 7704.53,747.163"
     id="polyline33"
     transform="translate(-305.41636,-348.992)" />
  <polyline
     class="BarLine"
     fill="none"
     stroke="#000000"
     stroke-width="4.46"
     stroke-linejoin="bevel"
     points="2096.82,645.235 2096.82,747.163"
     id="polyline34"
     transform="translate(-305.41636,-348.992)" />
  <polyline
     class="BarLine"
     fill="none"
     stroke="#000000"
     stroke-width="4.46"
     stroke-linejoin="bevel"
     points="10107.2,645.235 10107.2,747.163"
     id="polyline35"
     transform="translate(-305.41636,-348.992)" />
  <polyline
     class="BarLine"
     fill="none"
     stroke="#000000"
     stroke-width="4.46"
     stroke-linejoin="bevel"
     points="8505.44,645.235 8505.44,747.163"
     id="polyline36"
     transform="translate(-305.41636,-348.992)" />
  <polyline
     class="BarLine"
     fill="none"
     stroke="#000000"
     stroke-width="4.46"
     stroke-linejoin="bevel"
     points="10908.2,645.235 10908.2,747.163"
     id="polyline37"
     transform="translate(-305.41636,-348.992)" />
  <polyline
     class="BarLine"
     fill="none"
     stroke="#000000"
     stroke-width="4.46"
     stroke-linejoin="bevel"
     points="11709.1,645.235 11709.1,747.163"
     id="polyline38"
     transform="translate(-305.41636,-348.992)" />
  <polyline
     class="BarLine"
     fill="none"
     stroke="#000000"
     stroke-width="4.46"
     stroke-linejoin="bevel"
     points="3698.63,645.235 3698.63,747.163"
     id="polyline39"
     transform="translate(-305.41636,-348.992)" />
  <polyline
     class="BarLine"
     fill="none"
     stroke="#000000"
     stroke-width="4.46"
     stroke-linejoin="bevel"
     points="338.831,645.235 338.831,747.163"
     id="polyline40"
     transform="translate(-305.41636,-348.992)" />
  <polyline
     class="BarLine"
     fill="none"
     stroke="#000000"
     stroke-width="4.46"
     stroke-linejoin="bevel"
     points="14162.8,645.235 14162.8,747.163"
     id="polyline41"
     transform="translate(-305.41636,-348.992)" />
  <polyline
     class="BarLine"
     fill="none"
     stroke="#000000"
     stroke-width="13.64"
     stroke-linejoin="bevel"
     points="14181,645.235 14181,747.163"
     id="polyline42"
     transform="translate(-305.41636,-348.992)" />
  <polyline
     class="BarLine"
     fill="none"
     stroke="#000000"
     stroke-width="4.46"
     stroke-linejoin="bevel"
     points="5300.44,645.235 5300.44,747.163"
     id="polyline43"
     transform="translate(-305.41636,-348.992)" />
  <polyline
     class="BarLine"
     fill="none"
     stroke="#000000"
     stroke-width="4.46"
     stroke-linejoin="bevel"
     points="1295.91,645.235 1295.91,747.163"
     id="polyline44"
     transform="translate(-305.41636,-348.992)" />
  <polyline
     class="BarLine"
     fill="none"
     stroke="#000000"
     stroke-width="4.46"
     stroke-linejoin="bevel"
     points="6102.72,645.235 6102.72,747.163"
     id="polyline45"
     transform="translate(-305.41636,-348.992)" />
  <polyline
     class="BarLine"
     fill="none"
     stroke="#000000"
     stroke-width="4.46"
     stroke-linejoin="bevel"
     points="12511.3,645.235 12511.3,747.163"
     id="polyline46"
     transform="translate(-305.41636,-348.992)" />
  <polyline
     class="BarLine"
     fill="none"
     stroke="#000000"
     stroke-width="4.46"
     stroke-linejoin="bevel"
     points="13312.2,645.235 13312.2,747.163"
     id="polyline47"
     transform="translate(-305.41636,-348.992)" />
  <polyline
     class="BarLine"
     fill="none"
     stroke="#000000"
     stroke-width="4.46"
     stroke-linejoin="bevel"
     points="6903.63,645.235 6903.63,747.163"
     id="polyline48"
     transform="translate(-305.41636,-348.992)" />
  <path
     class="Accidental"
     d="m 2498.9042,26.790989 c 0.6045,-0.09305 1.1005,-0.790525 1.1005,-1.395051 v -5.843481 c 0,-0.790525 -0.6045,-1.394951 -1.395,-1.394951 -0.093,0 -0.093,0 -0.2015,0 l -3.2705,0.697475 V 4.067917 h -2.7746 v 15.376015 l -8.8349,1.798002 V 7.2454946 h -2.7746 V 21.830984 l -3.875,0.790526 c -0.589,0.108426 -1.085,0.790426 -1.085,1.394952 v 0.201475 5.750551 -0.201496 c 0,0.790496 0.589,1.395002 1.395,1.395002 0.093,0 0.186,0 0.2945,0 l 3.2705,-0.697506 v 16.368027 l -3.875,0.790495 c -0.589,0.09305 -1.085,0.790526 -1.085,1.395052 v 5.750431 c 0,0.790525 0.589,1.379576 1.395,1.379576 0.093,0 0.186,0 0.2945,0 l 3.2705,-0.682001 v 14.77149 h 2.7746 V 54.861543 l 8.8349,-1.782527 v 13.996539 h 2.7746 v -14.58549 l 3.7665,-0.697575 c 0.6045,-0.108426 1.1005,-0.790426 1.1005,-1.394952 v -5.843531 c 0,-0.806 -0.6045,-1.395001 -1.395,-1.395001 -0.093,0 -0.093,0 -0.2015,0 l -3.2705,0.697506 V 27.488485 l 3.7665,-0.697496 m -15.376,3.069004 8.8349,-1.782507 v 16.368026 l -8.8349,1.891002 V 29.859993"
     id="path48"
     style="stroke-width:0.992001" />
  <path
     class="Accidental"
     d="m 8907.5242,26.790989 c 0.6045,-0.09305 1.1005,-0.790525 1.1005,-1.395051 v -5.843481 c 0,-0.790525 -0.6045,-1.394951 -1.395,-1.394951 -0.093,0 -0.093,0 -0.2015,0 l -3.2705,0.697475 V 4.067917 h -2.7746 v 15.376015 l -8.8349,1.798002 V 7.2454946 h -2.7746 V 21.830984 l -3.875,0.790526 c -0.589,0.108426 -1.085,0.790426 -1.085,1.394952 v 0.201475 5.750551 -0.201496 c 0,0.790496 0.589,1.395002 1.395,1.395002 0.093,0 0.186,0 0.2945,0 l 3.2705,-0.697506 v 16.368027 l -3.875,0.790495 c -0.589,0.09305 -1.085,0.790526 -1.085,1.395052 v 5.750431 c 0,0.790525 0.589,1.379576 1.395,1.379576 0.093,0 0.186,0 0.2945,0 l 3.2705,-0.682001 v 14.77149 h 2.7746 V 54.861543 l 8.8349,-1.782527 v 13.996539 h 2.7746 v -14.58549 l 3.7665,-0.697575 c 0.6045,-0.108426 1.1005,-0.790426 1.1005,-1.394952 v -5.843531 c 0,-0.806 -0.6045,-1.395001 -1.395,-1.395001 -0.093,0 -0.093,0 -0.2015,0 l -3.2705,0.697506 V 27.488485 l 3.7665,-0.697496 m -15.376,3.069004 8.8349,-1.782507 v 16.368026 l -8.8349,1.891002 V 29.859993"
     id="path49"
     style="stroke-width:0.992001" />
  <path
     class="Accidental"
     d="m 11445.094,113.59099 c 0.605,-0.0931 1.101,-0.79053 1.101,-1.39505 v -5.84348 c 0,-0.79053 -0.605,-1.39495 -1.395,-1.39495 -0.09,0 -0.09,0 -0.202,0 l -3.27,0.69747 V 90.867917 h -2.775 v 15.376013 l -8.835,1.798 V 94.045495 h -2.774 v 14.585485 l -3.875,0.79053 c -0.589,0.10843 -1.085,0.79043 -1.085,1.39495 v 0.20148 5.75055 -0.2015 c 0,0.7905 0.589,1.395 1.395,1.395 0.09,0 0.186,0 0.294,0 l 3.271,-0.6975 v 16.36802 l -3.875,0.7905 c -0.589,0.0931 -1.085,0.79053 -1.085,1.39505 v 5.75043 c 0,0.79053 0.589,1.37958 1.395,1.37958 0.09,0 0.186,0 0.294,0 l 3.271,-0.682 v 14.77149 h 2.774 v -15.37602 l 8.835,-1.78252 v 13.99653 h 2.775 v -14.58548 l 3.766,-0.69758 c 0.605,-0.10843 1.101,-0.79043 1.101,-1.39495 v -5.84353 c 0,-0.806 -0.605,-1.395 -1.395,-1.395 -0.09,0 -0.09,0 -0.202,0 l -3.27,0.6975 v -16.36802 l 3.766,-0.6975 m -15.376,3.069 8.835,-1.7825 v 16.36802 l -8.835,1.891 v -16.47652"
     id="path50"
     style="stroke-width:0.992001" />
  <path
     class="Accidental"
     d="m 5036.4842,113.59099 c 0.6045,-0.0931 1.1005,-0.79053 1.1005,-1.39505 v -5.84348 c 0,-0.79053 -0.6045,-1.39495 -1.395,-1.39495 -0.093,0 -0.093,0 -0.2015,0 l -3.2705,0.69747 V 90.867917 h -2.7746 v 15.376013 l -8.8349,1.798 V 94.045495 h -2.7746 v 14.585485 l -3.875,0.79053 c -0.589,0.10843 -1.085,0.79043 -1.085,1.39495 v 0.20148 5.75055 -0.2015 c 0,0.7905 0.589,1.395 1.395,1.395 0.093,0 0.186,0 0.2945,0 l 3.2705,-0.6975 v 16.36802 l -3.875,0.7905 c -0.589,0.0931 -1.085,0.79053 -1.085,1.39505 v 5.75043 c 0,0.79053 0.589,1.37958 1.395,1.37958 0.093,0 0.186,0 0.2945,0 l 3.2705,-0.682 v 14.77149 h 2.7746 v -15.37602 l 8.8349,-1.78252 v 13.99653 h 2.7746 v -14.58548 l 3.7665,-0.69758 c 0.6045,-0.10843 1.1005,-0.79043 1.1005,-1.39495 v -5.84353 c 0,-0.806 -0.6045,-1.395 -1.395,-1.395 -0.093,0 -0.093,0 -0.2015,0 l -3.2705,0.6975 v -16.36802 l 3.7665,-0.6975 m -15.376,3.069 8.8349,-1.7825 v 16.36802 l -8.8349,1.891 v -16.47652"
     id="path51"
     style="stroke-width:0.992001" />
  <path
     class="Accidental"
     d="m 6371.3242,311.99099 c 0.6045,-0.0931 1.1005,-0.79053 1.1005,-1.39505 v -5.84348 c 0,-0.79053 -0.6045,-1.39495 -1.395,-1.39495 -0.093,0 -0.093,0 -0.2015,0 l -3.2705,0.69747 v -14.78706 h -2.7746 v 15.37601 l -8.8349,1.798 v -13.99644 h -2.7746 v 14.58549 l -3.875,0.79053 c -0.589,0.10843 -1.085,0.79043 -1.085,1.39495 v 0.20148 5.75055 -0.2015 c 0,0.7905 0.589,1.395 1.395,1.395 0.093,0 0.186,0 0.2945,0 l 3.2705,-0.6975 v 16.36802 l -3.875,0.7905 c -0.589,0.0931 -1.085,0.79053 -1.085,1.39505 v 5.75043 c 0,0.79053 0.589,1.37958 1.395,1.37958 0.093,0 0.186,0 0.2945,0 l 3.2705,-0.682 v 14.77149 h 2.7746 v -15.37602 l 8.8349,-1.78252 v 13.99653 h 2.7746 v -14.58548 l 3.7665,-0.69758 c 0.6045,-0.10843 1.1005,-0.79043 1.1005,-1.39495 v -5.84353 c 0,-0.806 -0.6045,-1.395 -1.395,-1.395 -0.093,0 -0.093,0 -0.2015,0 l -3.2705,0.6975 v -16.36802 l 3.7665,-0.6975 m -15.376,3.069 8.8349,-1.7825 v 16.36802 l -8.8349,1.891 v -16.47652"
     id="path52"
     style="stroke-width:0.992001" />
  <path
     class="Accidental"
     d="m 12779.894,311.99099 c 0.605,-0.0931 1.101,-0.79053 1.101,-1.39505 v -5.84348 c 0,-0.79053 -0.605,-1.39495 -1.395,-1.39495 -0.09,0 -0.09,0 -0.202,0 l -3.27,0.69747 v -14.78706 h -2.775 v 15.37601 l -8.835,1.798 v -13.99644 h -2.774 v 14.58549 l -3.875,0.79053 c -0.589,0.10843 -1.085,0.79043 -1.085,1.39495 v 0.20148 5.75055 -0.2015 c 0,0.7905 0.589,1.395 1.395,1.395 0.09,0 0.186,0 0.294,0 l 3.271,-0.6975 v 16.36802 l -3.875,0.7905 c -0.589,0.0931 -1.085,0.79053 -1.085,1.39505 v 5.75043 c 0,0.79053 0.589,1.37958 1.395,1.37958 0.09,0 0.186,0 0.294,0 l 3.271,-0.682 v 14.77149 h 2.774 v -15.37602 l 8.835,-1.78252 v 13.99653 h 2.775 v -14.58548 l 3.766,-0.69758 c 0.605,-0.10843 1.101,-0.79043 1.101,-1.39495 v -5.84353 c 0,-0.806 -0.605,-1.395 -1.395,-1.395 -0.09,0 -0.09,0 -0.202,0 l -3.27,0.6975 v -16.36802 l 3.766,-0.6975 m -15.376,3.069 8.835,-1.7825 v 16.36802 l -8.835,1.891 v -16.47652"
     id="path53"
     style="stroke-width:0.992001" />
  <polyline
     class="LedgerLine"
     fill="none"
     stroke="#000000"
     stroke-width="3.97"
     stroke-linejoin="bevel"
     points="11749.6,621.799 11798.2,621.799"
     id="polyline53"
     transform="translate(-305.41636,-348.992)" />
  <polyline
     class="LedgerLine"
     fill="none"
     stroke="#000000"
     stroke-width="3.97"
     stroke-linejoin="bevel"
     points="8544.62,621.799 8593.21,621.799"
     id="polyline54"
     transform="translate(-305.41636,-348.992)" />
  <polyline
     class="LedgerLine"
     fill="none"
     stroke="#000000"
     stroke-width="3.97"
     stroke-linejoin="bevel"
     points="5341,621.799 5389.59,621.799"
     id="polyline55"
     transform="translate(-305.41636,-348.992)" />
  <polyline
     class="LedgerLine"
     fill="none"
     stroke="#000000"
     stroke-width="3.97"
     stroke-linejoin="bevel"
     points="2136,621.799 2184.6,621.799"
     id="polyline56"
     transform="translate(-305.41636,-348.992)" />
  <polyline
     class="Stem"
     fill="none"
     stroke="#000000"
     stroke-width="2.48"
     stroke-linejoin="bevel"
     points="12055.8,456.631 12055.8,367.599"
     id="polyline57"
     transform="translate(-305.41636,-348.992)" />
  <polyline
     class="Stem"
     fill="none"
     stroke="#000000"
     stroke-width="2.48"
     stroke-linejoin="bevel"
     points="7248.95,456.631 7248.95,373.741"
     id="polyline58"
     transform="translate(-305.41636,-348.992)" />
  <polyline
     class="Stem"
     fill="none"
     stroke="#000000"
     stroke-width="2.48"
     stroke-linejoin="bevel"
     points="11653.9,456.631 11653.9,373.741"
     id="polyline59"
     transform="translate(-305.41636,-348.992)" />
  <polyline
     class="Stem"
     fill="none"
     stroke="#000000"
     stroke-width="2.48"
     stroke-linejoin="bevel"
     points="12189.2,444.231 12189.2,367.599"
     id="polyline60"
     transform="translate(-305.41636,-348.992)" />
  <polyline
     class="Stem"
     fill="none"
     stroke="#000000"
     stroke-width="2.48"
     stroke-linejoin="bevel"
     points="12322.7,431.831 12322.7,367.599"
     id="polyline61"
     transform="translate(-305.41636,-348.992)" />
  <polyline
     class="Stem"
     fill="none"
     stroke="#000000"
     stroke-width="2.48"
     stroke-linejoin="bevel"
     points="7382.43,444.231 7382.43,367.579"
     id="polyline62"
     transform="translate(-305.41636,-348.992)" />
  <polyline
     class="Stem"
     fill="none"
     stroke="#000000"
     stroke-width="2.48"
     stroke-linejoin="bevel"
     points="6448.04,444.231 6448.04,367.599"
     id="polyline63"
     transform="translate(-305.41636,-348.992)" />
  <polyline
     class="Stem"
     fill="none"
     stroke="#000000"
     stroke-width="2.48"
     stroke-linejoin="bevel"
     points="6151.33,439.965 6151.33,510.199"
     id="polyline64"
     transform="translate(-305.41636,-348.992)" />
  <polyline
     class="Stem"
     fill="none"
     stroke="#000000"
     stroke-width="2.48"
     stroke-linejoin="bevel"
     points="12456.2,456.631 12456.2,367.599"
     id="polyline65"
     transform="translate(-305.41636,-348.992)" />
  <polyline
     class="Stem"
     fill="none"
     stroke="#000000"
     stroke-width="2.48"
     stroke-linejoin="bevel"
     points="12559.9,439.965 12559.9,510.199"
     id="polyline66"
     transform="translate(-305.41636,-348.992)" />
  <polyline
     class="Stem"
     fill="none"
     stroke="#000000"
     stroke-width="2.48"
     stroke-linejoin="bevel"
     points="12856.7,444.231 12856.7,367.599"
     id="polyline67"
     transform="translate(-305.41636,-348.992)" />
  <polyline
     class="Stem"
     fill="none"
     stroke="#000000"
     stroke-width="2.48"
     stroke-linejoin="bevel"
     points="13390.6,456.631 13390.6,373.799"
     id="polyline68"
     transform="translate(-305.41636,-348.992)" />
  <polyline
     class="Stem"
     fill="none"
     stroke="#000000"
     stroke-width="2.48"
     stroke-linejoin="bevel"
     points="6952.24,415.165 6952.24,497.799"
     id="polyline69"
     transform="translate(-305.41636,-348.992)" />
  <polyline
     class="Stem"
     fill="none"
     stroke="#000000"
     stroke-width="2.48"
     stroke-linejoin="bevel"
     points="6047.59,456.631 6047.59,367.599"
     id="polyline70"
     transform="translate(-305.41636,-348.992)" />
  <polyline
     class="Stem"
     fill="none"
     stroke="#000000"
     stroke-width="2.48"
     stroke-linejoin="bevel"
     points="5914.11,431.831 5914.11,367.599"
     id="polyline71"
     transform="translate(-305.41636,-348.992)" />
  <polyline
     class="Stem"
     fill="none"
     stroke="#000000"
     stroke-width="2.48"
     stroke-linejoin="bevel"
     points="5780.62,444.231 5780.62,367.599"
     id="polyline72"
     transform="translate(-305.41636,-348.992)" />
  <polyline
     class="Stem"
     fill="none"
     stroke="#000000"
     stroke-width="2.48"
     stroke-linejoin="bevel"
     points="10823.3,452.365 10823.3,516.342"
     id="polyline73"
     transform="translate(-305.41636,-348.992)" />
  <polyline
     class="Stem"
     fill="none"
     stroke="#000000"
     stroke-width="2.48"
     stroke-linejoin="bevel"
     points="9354.95,377.965 9354.95,460.599"
     id="polyline74"
     transform="translate(-305.41636,-348.992)" />
  <polyline
     class="Stem"
     fill="none"
     stroke="#000000"
     stroke-width="2.48"
     stroke-linejoin="bevel"
     points="9918.63,456.631 9918.63,373.799"
     id="polyline75"
     transform="translate(-305.41636,-348.992)" />
  <polyline
     class="Stem"
     fill="none"
     stroke="#000000"
     stroke-width="2.48"
     stroke-linejoin="bevel"
     points="9221.47,390.365 9221.47,479.237"
     id="polyline76"
     transform="translate(-305.41636,-348.992)" />
  <polyline
     class="Stem"
     fill="none"
     stroke="#000000"
     stroke-width="2.48"
     stroke-linejoin="bevel"
     points="9087.98,402.765 9087.98,483.345"
     id="polyline77"
     transform="translate(-305.41636,-348.992)" />
  <polyline
     class="Stem"
     fill="none"
     stroke="#000000"
     stroke-width="2.48"
     stroke-linejoin="bevel"
     points="10155.9,427.565 10155.9,503.999"
     id="polyline78"
     transform="translate(-305.41636,-348.992)" />
  <polyline
     class="Stem"
     fill="none"
     stroke="#000000"
     stroke-width="2.48"
     stroke-linejoin="bevel"
     points="10422.8,415.165 10422.8,497.856"
     id="polyline79"
     transform="translate(-305.41636,-348.992)" />
  <polyline
     class="Stem"
     fill="none"
     stroke="#000000"
     stroke-width="2.48"
     stroke-linejoin="bevel"
     points="10556.3,427.565 10556.3,504.018"
     id="polyline80"
     transform="translate(-305.41636,-348.992)" />
  <polyline
     class="Stem"
     fill="none"
     stroke="#000000"
     stroke-width="2.48"
     stroke-linejoin="bevel"
     points="10689.8,439.965 10689.8,510.18"
     id="polyline81"
     transform="translate(-305.41636,-348.992)" />
  <polyline
     class="Stem"
     fill="none"
     stroke="#000000"
     stroke-width="2.48"
     stroke-linejoin="bevel"
     points="8954.5,415.165 8954.5,487.453"
     id="polyline82"
     transform="translate(-305.41636,-348.992)" />
  <polyline
     class="Stem"
     fill="none"
     stroke="#000000"
     stroke-width="2.48"
     stroke-linejoin="bevel"
     points="8821.01,427.565 8821.01,491.561"
     id="polyline83"
     transform="translate(-305.41636,-348.992)" />
  <polyline
     class="Stem"
     fill="none"
     stroke="#000000"
     stroke-width="2.48"
     stroke-linejoin="bevel"
     points="8554.04,402.765 8554.04,485.399"
     id="polyline84"
     transform="translate(-305.41636,-348.992)" />
  <polyline
     class="Stem"
     fill="none"
     stroke="#000000"
     stroke-width="2.48"
     stroke-linejoin="bevel"
     points="7515.92,431.831 7515.92,361.418"
     id="polyline85"
     transform="translate(-305.41636,-348.992)" />
  <polyline
     class="Stem"
     fill="none"
     stroke="#000000"
     stroke-width="2.48"
     stroke-linejoin="bevel"
     points="8316.82,456.631 8316.82,373.799"
     id="polyline86"
     transform="translate(-305.41636,-348.992)" />
  <polyline
     class="Stem"
     fill="none"
     stroke="#000000"
     stroke-width="2.48"
     stroke-linejoin="bevel"
     points="8049.85,456.631 8049.85,373.799"
     id="polyline87"
     transform="translate(-305.41636,-348.992)" />
  <polyline
     class="Stem"
     fill="none"
     stroke="#000000"
     stroke-width="2.48"
     stroke-linejoin="bevel"
     points="7753.14,415.165 7753.14,497.799"
     id="polyline88"
     transform="translate(-305.41636,-348.992)" />
  <polyline
     class="Stem"
     fill="none"
     stroke="#000000"
     stroke-width="2.48"
     stroke-linejoin="bevel"
     points="10956.8,439.965 10956.8,510.199"
     id="polyline89"
     transform="translate(-305.41636,-348.992)" />
  <polyline
     class="Stem"
     fill="none"
     stroke="#000000"
     stroke-width="2.48"
     stroke-linejoin="bevel"
     points="11253.5,419.431 11253.5,355.256"
     id="polyline90"
     transform="translate(-305.41636,-348.992)" />
  <polyline
     class="Stem"
     fill="none"
     stroke="#000000"
     stroke-width="2.48"
     stroke-linejoin="bevel"
     points="11387,431.831 11387,361.418"
     id="polyline91"
     transform="translate(-305.41636,-348.992)" />
  <polyline
     class="Stem"
     fill="none"
     stroke="#000000"
     stroke-width="2.48"
     stroke-linejoin="bevel"
     points="11520.4,444.231 11520.4,367.579"
     id="polyline92"
     transform="translate(-305.41636,-348.992)" />
  <polyline
     class="Stem"
     fill="none"
     stroke="#000000"
     stroke-width="2.48"
     stroke-linejoin="bevel"
     points="9651.66,456.631 9651.66,373.799"
     id="polyline93"
     transform="translate(-305.41636,-348.992)" />
  <polyline
     class="Stem"
     fill="none"
     stroke="#000000"
     stroke-width="2.48"
     stroke-linejoin="bevel"
     points="11788.8,469.031 11788.8,386.199"
     id="polyline94"
     transform="translate(-305.41636,-348.992)" />
  <polyline
     class="Stem"
     fill="none"
     stroke="#000000"
     stroke-width="2.48"
     stroke-linejoin="bevel"
     points="7649.4,419.431 7649.4,355.256"
     id="polyline95"
     transform="translate(-305.41636,-348.992)" />
  <polyline
     class="Stem"
     fill="none"
     stroke="#000000"
     stroke-width="2.48"
     stroke-linejoin="bevel"
     points="2946.33,377.965 2946.33,460.599"
     id="polyline96"
     transform="translate(-305.41636,-348.992)" />
  <polyline
     class="Stem"
     fill="none"
     stroke="#000000"
     stroke-width="2.48"
     stroke-linejoin="bevel"
     points="1240.78,419.431 1240.78,355.256"
     id="polyline97"
     transform="translate(-305.41636,-348.992)" />
  <polyline
     class="Stem"
     fill="none"
     stroke="#000000"
     stroke-width="2.48"
     stroke-linejoin="bevel"
     points="1344.52,415.165 1344.52,497.799"
     id="polyline98"
     transform="translate(-305.41636,-348.992)" />
  <polyline
     class="Stem"
     fill="none"
     stroke="#000000"
     stroke-width="2.48"
     stroke-linejoin="bevel"
     points="4548.14,439.965 4548.14,510.199"
     id="polyline99"
     transform="translate(-305.41636,-348.992)" />
  <polyline
     class="Stem"
     fill="none"
     stroke="#000000"
     stroke-width="2.48"
     stroke-linejoin="bevel"
     points="4414.66,452.365 4414.66,516.342"
     id="polyline100"
     transform="translate(-305.41636,-348.992)" />
  <polyline
     class="Stem"
     fill="none"
     stroke="#000000"
     stroke-width="2.48"
     stroke-linejoin="bevel"
     points="4281.17,439.965 4281.17,510.18"
     id="polyline101"
     transform="translate(-305.41636,-348.992)" />
  <polyline
     class="Stem"
     fill="none"
     stroke="#000000"
     stroke-width="2.48"
     stroke-linejoin="bevel"
     points="1641.23,456.631 1641.23,373.799"
     id="polyline102"
     transform="translate(-305.41636,-348.992)" />
  <polyline
     class="Stem"
     fill="none"
     stroke="#000000"
     stroke-width="2.48"
     stroke-linejoin="bevel"
     points="4844.85,419.431 4844.85,355.256"
     id="polyline103"
     transform="translate(-305.41636,-348.992)" />
  <polyline
     class="Stem"
     fill="none"
     stroke="#000000"
     stroke-width="2.48"
     stroke-linejoin="bevel"
     points="1107.3,431.831 1107.3,361.418"
     id="polyline104"
     transform="translate(-305.41636,-348.992)" />
  <polyline
     class="Stem"
     fill="none"
     stroke="#000000"
     stroke-width="2.48"
     stroke-linejoin="bevel"
     points="4978.34,431.831 4978.34,361.418"
     id="polyline105"
     transform="translate(-305.41636,-348.992)" />
  <polyline
     class="Stem"
     fill="none"
     stroke="#000000"
     stroke-width="2.48"
     stroke-linejoin="bevel"
     points="1908.2,456.631 1908.2,373.799"
     id="polyline106"
     transform="translate(-305.41636,-348.992)" />
  <polyline
     class="Stem"
     fill="none"
     stroke="#000000"
     stroke-width="2.48"
     stroke-linejoin="bevel"
     points="5111.82,444.231 5111.82,367.579"
     id="polyline107"
     transform="translate(-305.41636,-348.992)" />
  <polyline
     class="Stem"
     fill="none"
     stroke="#000000"
     stroke-width="2.48"
     stroke-linejoin="bevel"
     points="4147.69,427.565 4147.69,504.018"
     id="polyline108"
     transform="translate(-305.41636,-348.992)" />
  <polyline
     class="Stem"
     fill="none"
     stroke="#000000"
     stroke-width="2.48"
     stroke-linejoin="bevel"
     points="4014.2,415.165 4014.2,497.856"
     id="polyline109"
     transform="translate(-305.41636,-348.992)" />
  <polyline
     class="Stem"
     fill="none"
     stroke="#000000"
     stroke-width="2.48"
     stroke-linejoin="bevel"
     points="2145.43,402.765 2145.43,485.399"
     id="polyline110"
     transform="translate(-305.41636,-348.992)" />
  <polyline
     class="Stem"
     fill="none"
     stroke="#000000"
     stroke-width="2.48"
     stroke-linejoin="bevel"
     points="973.814,444.231 973.814,367.579"
     id="polyline111"
     transform="translate(-305.41636,-348.992)" />
  <polyline
     class="Stem"
     fill="none"
     stroke="#000000"
     stroke-width="2.48"
     stroke-linejoin="bevel"
     points="840.33,456.631 840.33,373.741"
     id="polyline112"
     transform="translate(-305.41636,-348.992)" />
  <polyline
     class="Stem"
     fill="none"
     stroke="#000000"
     stroke-width="2.48"
     stroke-linejoin="bevel"
     points="5245.31,456.631 5245.31,373.741"
     id="polyline113"
     transform="translate(-305.41636,-348.992)" />
  <polyline
     class="Stem"
     fill="none"
     stroke="#000000"
     stroke-width="2.48"
     stroke-linejoin="bevel"
     points="2412.39,427.565 2412.39,491.561"
     id="polyline114"
     transform="translate(-305.41636,-348.992)" />
  <polyline
     class="Stem"
     fill="none"
     stroke="#000000"
     stroke-width="2.48"
     stroke-linejoin="bevel"
     points="5380.17,469.031 5380.17,386.199"
     id="polyline115"
     transform="translate(-305.41636,-348.992)" />
  <polyline
     class="Stem"
     fill="none"
     stroke="#000000"
     stroke-width="2.48"
     stroke-linejoin="bevel"
     points="3747.24,427.565 3747.24,503.999"
     id="polyline116"
     transform="translate(-305.41636,-348.992)" />
  <polyline
     class="Stem"
     fill="none"
     stroke="#000000"
     stroke-width="2.48"
     stroke-linejoin="bevel"
     points="2812.85,390.365 2812.85,479.237"
     id="polyline117"
     transform="translate(-305.41636,-348.992)" />
  <polyline
     class="Stem"
     fill="none"
     stroke="#000000"
     stroke-width="2.48"
     stroke-linejoin="bevel"
     points="3510.01,456.631 3510.01,373.799"
     id="polyline118"
     transform="translate(-305.41636,-348.992)" />
  <polyline
     class="Stem"
     fill="none"
     stroke="#000000"
     stroke-width="2.48"
     stroke-linejoin="bevel"
     points="2545.88,415.165 2545.88,487.453"
     id="polyline119"
     transform="translate(-305.41636,-348.992)" />
  <polyline
     class="Stem"
     fill="none"
     stroke="#000000"
     stroke-width="2.48"
     stroke-linejoin="bevel"
     points="3243.04,456.631 3243.04,373.799"
     id="polyline120"
     transform="translate(-305.41636,-348.992)" />
  <polyline
     class="Stem"
     fill="none"
     stroke="#000000"
     stroke-width="2.48"
     stroke-linejoin="bevel"
     points="543.617,415.165 543.617,497.799"
     id="polyline121"
     transform="translate(-305.41636,-348.992)" />
  <polyline
     class="Stem"
     fill="none"
     stroke="#000000"
     stroke-width="2.48"
     stroke-linejoin="bevel"
     points="2679.36,402.765 2679.36,483.345"
     id="polyline122"
     transform="translate(-305.41636,-348.992)" />
  <polyline
     class="Stem"
     fill="none"
     stroke="#000000"
     stroke-width="2.48"
     stroke-linejoin="bevel"
     points="5647.14,456.631 5647.14,367.599"
     id="polyline123"
     transform="translate(-305.41636,-348.992)" />
  <polyline
     class="Stem"
     fill="none"
     stroke="#000000"
     stroke-width="2.48"
     stroke-linejoin="bevel"
     points="7486.17,650.765 7486.17,733.399"
     id="polyline124"
     transform="translate(-305.41636,-348.992)" />
  <polyline
     class="Stem"
     fill="none"
     stroke="#000000"
     stroke-width="2.48"
     stroke-linejoin="bevel"
     points="5617.39,638.365 5617.39,720.999"
     id="polyline125"
     transform="translate(-305.41636,-348.992)" />
  <polyline
     class="Stem"
     fill="none"
     stroke="#000000"
     stroke-width="2.48"
     stroke-linejoin="bevel"
     points="9354.95,638.365 9354.95,720.999"
     id="polyline126"
     transform="translate(-305.41636,-348.992)" />
  <polyline
     class="Stem"
     fill="none"
     stroke="#000000"
     stroke-width="2.48"
     stroke-linejoin="bevel"
     points="1344.52,638.365 1344.52,720.999"
     id="polyline127"
     transform="translate(-305.41636,-348.992)" />
  <polyline
     class="Stem"
     fill="none"
     stroke="#000000"
     stroke-width="2.48"
     stroke-linejoin="bevel"
     points="2946.33,638.365 2946.33,720.999"
     id="polyline128"
     transform="translate(-305.41636,-348.992)" />
  <polyline
     class="Stem"
     fill="none"
     stroke="#000000"
     stroke-width="2.48"
     stroke-linejoin="bevel"
     points="7753.14,638.365 7753.14,720.999"
     id="polyline129"
     transform="translate(-305.41636,-348.992)" />
  <polyline
     class="Stem"
     fill="none"
     stroke="#000000"
     stroke-width="2.48"
     stroke-linejoin="bevel"
     points="10155.9,650.765 10155.9,733.399"
     id="polyline130"
     transform="translate(-305.41636,-348.992)" />
  <polyline
     class="Stem"
     fill="none"
     stroke="#000000"
     stroke-width="2.48"
     stroke-linejoin="bevel"
     points="10956.8,663.165 10956.8,745.799"
     id="polyline131"
     transform="translate(-305.41636,-348.992)" />
  <polyline
     class="Stem"
     fill="none"
     stroke="#000000"
     stroke-width="2.48"
     stroke-linejoin="bevel"
     points="2145.43,625.965 2145.43,708.599"
     id="polyline132"
     transform="translate(-305.41636,-348.992)" />
  <polyline
     class="Stem"
     fill="none"
     stroke="#000000"
     stroke-width="2.48"
     stroke-linejoin="bevel"
     points="8554.04,625.965 8554.04,708.599"
     id="polyline133"
     transform="translate(-305.41636,-348.992)" />
  <polyline
     class="Stem"
     fill="none"
     stroke="#000000"
     stroke-width="2.48"
     stroke-linejoin="bevel"
     points="3747.24,650.765 3747.24,733.399"
     id="polyline134"
     transform="translate(-305.41636,-348.992)" />
  <polyline
     class="Stem"
     fill="none"
     stroke="#000000"
     stroke-width="2.48"
     stroke-linejoin="bevel"
     points="6952.24,663.165 6952.24,745.799"
     id="polyline135"
     transform="translate(-305.41636,-348.992)" />
  <polyline
     class="Stem"
     fill="none"
     stroke="#000000"
     stroke-width="2.48"
     stroke-linejoin="bevel"
     points="5350.43,613.565 5350.43,696.199"
     id="polyline136"
     transform="translate(-305.41636,-348.992)" />
  <polyline
     class="Stem"
     fill="none"
     stroke="#000000"
     stroke-width="2.48"
     stroke-linejoin="bevel"
     points="6685.27,675.565 6685.27,758.199"
     id="polyline137"
     transform="translate(-305.41636,-348.992)" />
  <polyline
     class="Stem"
     fill="none"
     stroke="#000000"
     stroke-width="2.48"
     stroke-linejoin="bevel"
     points="12293,663.165 12293,745.799"
     id="polyline138"
     transform="translate(-305.41636,-348.992)" />
  <polyline
     class="Stem"
     fill="none"
     stroke="#000000"
     stroke-width="2.48"
     stroke-linejoin="bevel"
     points="543.617,663.165 543.617,745.799"
     id="polyline139"
     transform="translate(-305.41636,-348.992)" />
  <polyline
     class="Stem"
     fill="none"
     stroke="#000000"
     stroke-width="2.48"
     stroke-linejoin="bevel"
     points="6418.3,650.765 6418.3,733.399"
     id="polyline140"
     transform="translate(-305.41636,-348.992)" />
  <polyline
     class="Stem"
     fill="none"
     stroke="#000000"
     stroke-width="2.48"
     stroke-linejoin="bevel"
     points="12559.9,638.365 12559.9,720.999"
     id="polyline141"
     transform="translate(-305.41636,-348.992)" />
  <polyline
     class="Stem"
     fill="none"
     stroke="#000000"
     stroke-width="2.48"
     stroke-linejoin="bevel"
     points="12826.9,650.765 12826.9,733.399"
     id="polyline142"
     transform="translate(-305.41636,-348.992)" />
  <polyline
     class="Stem"
     fill="none"
     stroke="#000000"
     stroke-width="2.48"
     stroke-linejoin="bevel"
     points="5884.36,663.165 5884.36,745.799"
     id="polyline143"
     transform="translate(-305.41636,-348.992)" />
  <polyline
     class="Stem"
     fill="none"
     stroke="#000000"
     stroke-width="2.48"
     stroke-linejoin="bevel"
     points="4548.14,663.165 4548.14,745.799"
     id="polyline144"
     transform="translate(-305.41636,-348.992)" />
  <polyline
     class="Stem"
     fill="none"
     stroke="#000000"
     stroke-width="2.48"
     stroke-linejoin="bevel"
     points="13093.9,675.565 13093.9,758.199"
     id="polyline145"
     transform="translate(-305.41636,-348.992)" />
  <polyline
     class="Stem"
     fill="none"
     stroke="#000000"
     stroke-width="2.48"
     stroke-linejoin="bevel"
     points="12026,638.365 12026,720.999"
     id="polyline146"
     transform="translate(-305.41636,-348.992)" />
  <polyline
     class="Stem"
     fill="none"
     stroke="#000000"
     stroke-width="2.48"
     stroke-linejoin="bevel"
     points="6151.33,638.365 6151.33,720.999"
     id="polyline147"
     transform="translate(-305.41636,-348.992)" />
  <polyline
     class="Stem"
     fill="none"
     stroke="#000000"
     stroke-width="2.48"
     stroke-linejoin="bevel"
     points="1077.55,650.765 1077.55,733.399"
     id="polyline148"
     transform="translate(-305.41636,-348.992)" />
  <polyline
     class="Stem"
     fill="none"
     stroke="#000000"
     stroke-width="2.48"
     stroke-linejoin="bevel"
     points="13360.9,663.165 13360.9,745.799"
     id="polyline149"
     transform="translate(-305.41636,-348.992)" />
  <polyline
     class="Stem"
     fill="none"
     stroke="#000000"
     stroke-width="2.48"
     stroke-linejoin="bevel"
     points="11759,613.565 11759,696.199"
     id="polyline150"
     transform="translate(-305.41636,-348.992)" />
  <path
     class="Note"
     d="m 2239.2236,66.176509 c 0,4.262499 3.069,9.021029 11.1135,9.021029 10.3076,0 21.1266,-8.432028 21.1266,-17.158542 0,-5.859006 -4.96,-9.129484 -11.1135,-9.129484 -9.6255,0 -21.1266,8.137483 -21.1266,17.266997"
     id="path150"
     style="stroke-width:0.992001" />
  <path
     class="Note"
     d="m 2105.7336,78.576509 c 0,4.262499 3.069,9.021029 11.1135,9.021029 10.3076,0 21.1266,-8.432028 21.1266,-17.158542 0,-5.859006 -4.96,-9.129484 -11.1135,-9.129484 -9.6255,0 -21.1266,8.137483 -21.1266,17.266997"
     id="path151"
     style="stroke-width:0.992001" />
  <path
     class="Note"
     d="m 10249.684,78.576509 c 0,4.262499 3.069,9.021029 11.113,9.021029 10.308,0 21.127,-8.432028 21.127,-17.158542 0,-5.859006 -4.96,-9.129484 -11.114,-9.129484 -9.625,0 -21.126,8.137483 -21.126,17.266997"
     id="path152"
     style="stroke-width:0.992001" />
  <path
     class="Note"
     d="m 10116.184,66.176509 c 0,4.262499 3.069,9.021029 11.113,9.021029 10.308,0 21.127,-8.432028 21.127,-17.158542 0,-5.859006 -4.96,-9.129484 -11.114,-9.129484 -9.625,0 -21.126,8.137483 -21.126,17.266997"
     id="path153"
     style="stroke-width:0.992001" />
  <path
     class="Note"
     d="m 12253.284,90.976509 c 0,4.262499 3.069,9.021029 11.113,9.021029 10.308,0 21.127,-8.432028 21.127,-17.158542 0,-5.859006 -4.96,-9.129484 -11.114,-9.129484 -9.625,0 -21.126,8.137483 -21.126,17.266997"
     id="path154"
     style="stroke-width:0.992001" />
  <path
     class="Note"
     d="m 9849.1836,78.576509 c 0,4.262499 3.069,9.021029 11.1135,9.021029 10.3076,0 21.1266,-8.432028 21.1266,-17.158542 0,-5.859006 -4.96,-9.129484 -11.1135,-9.129484 -9.6255,0 -21.1266,8.137483 -21.1266,17.266997"
     id="path155"
     style="stroke-width:0.992001" />
  <path
     class="Note"
     d="m 12541.41,86.109512 c -9.625,0 -21.126,8.044483 -21.126,17.266998 0,4.2625 3.069,9.02103 11.113,9.02103 10.308,0 21.127,-8.43203 21.127,-17.158544 0,-5.859006 -4.96,-9.129484 -11.114,-9.129484 m -2.681,17.468488 c -0.295,0.186 -7.533,4.15401 -11.005,4.15401 -3.271,0 -3.968,-2.666 -3.968,-3.56501 0,-4.169499 9.92,-9.021004 10.323,-9.222509 0.387,-0.201496 7.44,-4.1695 11.005,-4.1695 2.387,0 3.968,1.395002 3.968,3.565004 0,4.278004 -10.013,9.036515 -10.323,9.238005"
     id="path156"
     style="stroke-width:0.992001" />
  <path
     class="Note"
     d="m 12119.784,115.77651 c 0,4.2625 3.069,9.02103 11.113,9.02103 10.308,0 21.127,-8.43203 21.127,-17.15854 0,-5.85901 -4.96,-9.129488 -11.114,-9.129488 -9.625,0 -21.126,8.137478 -21.126,17.266998"
     id="path157"
     style="stroke-width:0.992001" />
  <path
     class="Note"
     d="m 2372.7036,53.776509 c 0,4.262499 3.069,9.021029 11.1135,9.021029 10.3076,0 21.1266,-8.432028 21.1266,-17.158542 0,-5.859006 -4.96,-9.129484 -11.1135,-9.129484 -9.6255,0 -21.1266,8.137483 -21.1266,17.266997"
     id="path158"
     style="stroke-width:0.992001" />
  <path
     class="Note"
     d="m 13075.31,98.509512 c -9.625,0 -21.126,8.044478 -21.126,17.266998 0,4.2625 3.069,9.02103 11.113,9.02103 10.308,0 21.127,-8.43203 21.127,-17.15854 0,-5.85901 -4.96,-9.129488 -11.114,-9.129488 m -2.681,17.468488 c -0.295,0.186 -7.533,4.15401 -11.005,4.15401 -3.271,0 -3.968,-2.666 -3.968,-3.56501 0,-4.1695 9.92,-9.021 10.323,-9.22251 0.387,-0.20149 7.44,-4.1695 11.005,-4.1695 2.387,0 3.968,1.395 3.968,3.56501 0,4.278 -10.013,9.03651 -10.323,9.238"
     id="path159"
     style="stroke-width:0.992001" />
  <path
     class="Note"
     d="m 9582.2336,115.77651 c 0,4.2625 3.069,9.02103 11.1135,9.02103 10.3076,0 21.1266,-8.43203 21.1266,-17.15854 0,-5.85901 -4.96,-9.129488 -11.1135,-9.129488 -9.6255,0 -21.1266,8.137478 -21.1266,17.266998"
     id="path160"
     style="stroke-width:0.992001" />
  <path
     class="Note"
     d="m 9315.2636,115.77651 c 0,4.2625 3.069,9.02103 11.1135,9.02103 10.3076,0 21.1266,-8.43203 21.1266,-17.15854 0,-5.85901 -4.96,-9.129488 -11.1135,-9.129488 -9.6255,0 -21.1266,8.137478 -21.1266,17.266998"
     id="path161"
     style="stroke-width:0.992001" />
  <path
     class="Note"
     d="m 2506.1936,41.376509 c 0,4.262499 3.069,9.021029 11.1135,9.021029 10.3076,0 21.1266,-8.432028 21.1266,-17.158542 0,-5.859006 -4.96,-9.129484 -11.1135,-9.129484 -9.6255,0 -21.1266,8.137483 -21.1266,17.266997"
     id="path162"
     style="stroke-width:0.992001" />
  <path
     class="Note"
     d="m 1304.8336,115.77651 c 0,4.2625 3.069,9.02103 11.1135,9.02103 10.3076,0 21.1266,-8.43203 21.1266,-17.15854 0,-5.85901 -4.96,-9.129488 -11.1135,-9.129488 -9.6255,0 -21.1266,8.137478 -21.1266,17.266998"
     id="path163"
     style="stroke-width:0.992001" />
  <path
     class="Note"
     d="m 904.38364,78.576509 c 0,4.262499 3.069,9.021029 11.11349,9.021029 10.30758,0 21.12654,-8.432028 21.12654,-17.158542 0,-5.859006 -4.96,-9.129484 -11.11348,-9.129484 -9.62549,0 -21.12655,8.137483 -21.12655,17.266997"
     id="path164"
     style="stroke-width:0.992001" />
  <path
     class="Note"
     d="m 11452.384,128.17651 c 0,4.2625 3.069,9.02103 11.113,9.02103 10.308,0 21.127,-8.43203 21.127,-17.15854 0,-5.85901 -4.96,-9.12949 -11.114,-9.12949 -9.625,0 -21.126,8.13748 -21.126,17.267"
     id="path165"
     style="stroke-width:0.992001" />
  <path
     class="Note"
     d="m 1037.8636,66.176509 c 0,4.262499 3.069,9.021029 11.1135,9.021029 10.3076,0 21.1266,-8.432028 21.1266,-17.158542 0,-5.859006 -4.96,-9.129484 -11.1135,-9.129484 -9.6255,0 -21.1266,8.137483 -21.1266,17.266997"
     id="path166"
     style="stroke-width:0.992001" />
  <path
     class="Note"
     d="m 11719.384,115.77651 c 0,4.2625 3.069,9.02103 11.113,9.02103 10.308,0 21.127,-8.43203 21.127,-17.15854 0,-5.85901 -4.96,-9.129488 -11.114,-9.129488 -9.625,0 -21.126,8.137478 -21.126,17.266998"
     id="path167"
     style="stroke-width:0.992001" />
  <path
     class="Note"
     d="m 11317.484,115.77651 c 0,4.2625 3.069,9.02103 11.113,9.02103 10.308,0 21.127,-8.43203 21.127,-17.15854 0,-5.85901 -4.96,-9.129488 -11.114,-9.129488 -9.625,0 -21.126,8.137478 -21.126,17.266998"
     id="path168"
     style="stroke-width:0.992001" />
  <path
     class="Note"
     d="m 11184.084,103.37651 c 0,4.2625 3.069,9.02103 11.113,9.02103 10.308,0 21.127,-8.43203 21.127,-17.158544 0,-5.859006 -4.96,-9.129484 -11.114,-9.129484 -9.625,0 -21.126,8.137483 -21.126,17.266998"
     id="path169"
     style="stroke-width:0.992001" />
  <path
     class="Note"
     d="m 770.89364,90.976509 c 0,4.262499 3.069,9.021029 11.11349,9.021029 10.30758,0 21.12654,-8.432028 21.12654,-17.158542 0,-5.859006 -4.96,-9.129484 -11.11348,-9.129484 -9.62549,0 -21.12655,8.137483 -21.12655,17.266997"
     id="path170"
     style="stroke-width:0.992001" />
  <path
     class="Note"
     d="m 11852.884,103.37651 c 0,4.2625 3.069,9.02103 11.113,9.02103 10.308,0 21.127,-8.43203 21.127,-17.158544 0,-5.859006 -4.96,-9.129484 -11.114,-9.129484 -9.625,0 -21.126,8.137483 -21.126,17.266998"
     id="path171"
     style="stroke-width:0.992001" />
  <path
     class="Note"
     d="m 11050.584,90.976509 c 0,4.262499 3.069,9.021029 11.113,9.021029 10.308,0 21.127,-8.432028 21.127,-17.158542 0,-5.859006 -4.96,-9.129484 -11.114,-9.129484 -9.625,0 -21.126,8.137483 -21.126,17.266997"
     id="path172"
     style="stroke-width:0.992001" />
  <path
     class="Note"
     d="m 10383.184,90.976509 c 0,4.262499 3.069,9.021029 11.113,9.021029 10.308,0 21.127,-8.432028 21.127,-17.158542 0,-5.859006 -4.96,-9.129484 -11.114,-9.129484 -9.625,0 -21.126,8.137483 -21.126,17.266997"
     id="path173"
     style="stroke-width:0.992001" />
  <path
     class="Note"
     d="m 10917.084,78.576509 c 0,4.262499 3.069,9.021029 11.113,9.021029 10.308,0 21.127,-8.432028 21.127,-17.158542 0,-5.859006 -4.96,-9.129484 -11.114,-9.129484 -9.625,0 -21.126,8.137483 -21.126,17.266997"
     id="path174"
     style="stroke-width:0.992001" />
  <path
     class="Note"
     d="m 11986.284,90.976509 c 0,4.262499 3.069,9.021029 11.113,9.021029 10.308,0 21.127,-8.432028 21.127,-17.158542 0,-5.859006 -4.96,-9.129484 -11.114,-9.129484 -9.625,0 -21.126,8.137483 -21.126,17.266997"
     id="path175"
     style="stroke-width:0.992001" />
  <path
     class="Note"
     d="m 10650.084,90.976509 c 0,4.262499 3.069,9.021029 11.113,9.021029 10.308,0 21.127,-8.432028 21.127,-17.158542 0,-5.859006 -4.96,-9.129484 -11.114,-9.129484 -9.625,0 -21.126,8.137483 -21.126,17.266997"
     id="path176"
     style="stroke-width:0.992001" />
  <path
     class="Note"
     d="m 1571.8036,115.77651 c 0,4.2625 3.069,9.02103 11.1135,9.02103 10.3076,0 21.1266,-8.43203 21.1266,-17.15854 0,-5.85901 -4.96,-9.129488 -11.1135,-9.129488 -9.6255,0 -21.1266,8.137478 -21.1266,17.266998"
     id="path177"
     style="stroke-width:0.992001" />
  <path
     class="Note"
     d="m 637.41264,103.37651 c 0,4.2625 3.069,9.02103 11.11349,9.02103 10.30758,0 21.12654,-8.43203 21.12654,-17.158544 0,-5.859006 -4.96,-9.129484 -11.11348,-9.129484 -9.62549,0 -21.12655,8.137483 -21.12655,17.266998"
     id="path178"
     style="stroke-width:0.992001" />
  <path
     class="Note"
     d="m 1838.7736,53.776509 c 0,4.262499 3.069,9.021029 11.1135,9.021029 10.3076,0 21.1266,-8.432028 21.1266,-17.158542 0,-5.859006 -4.96,-9.129484 -11.1135,-9.129484 -9.6255,0 -21.1266,8.137483 -21.1266,17.266997"
     id="path179"
     style="stroke-width:0.992001" />
  <path
     class="Note"
     d="m 503.92864,115.77651 c 0,4.2625 3.069,9.02103 11.11349,9.02103 10.30758,0 21.12654,-8.43203 21.12654,-17.15854 0,-5.85901 -4.96,-9.129488 -11.11348,-9.129488 -9.62549,0 -21.12655,8.137478 -21.12655,17.266998"
     id="path180"
     style="stroke-width:0.992001" />
  <path
     class="Note"
     d="m 10516.584,103.37651 c 0,4.2625 3.069,9.02103 11.113,9.02103 10.308,0 21.127,-8.43203 21.127,-17.158544 0,-5.859006 -4.96,-9.129484 -11.114,-9.129484 -9.625,0 -21.126,8.137483 -21.126,17.266998"
     id="path181"
     style="stroke-width:0.992001" />
  <path
     class="Note"
     d="m 7980.4236,115.77651 c 0,4.2625 3.069,9.02103 11.1135,9.02103 10.3076,0 21.1266,-8.43203 21.1266,-17.15854 0,-5.85901 -4.96,-9.129488 -11.1135,-9.129488 -9.6255,0 -21.1266,8.137478 -21.1266,17.266998"
     id="path182"
     style="stroke-width:0.992001" />
  <path
     class="Note"
     d="m 5711.1936,115.77651 c 0,4.2625 3.069,9.02103 11.1135,9.02103 10.3076,0 21.1266,-8.43203 21.1266,-17.15854 0,-5.85901 -4.96,-9.129488 -11.1135,-9.129488 -9.6255,0 -21.1266,8.137478 -21.1266,17.266998"
     id="path183"
     style="stroke-width:0.992001" />
  <path
     class="Note"
     d="m 4241.4836,90.976509 c 0,4.262499 3.069,9.021029 11.1135,9.021029 10.3076,0 21.1266,-8.432028 21.1266,-17.158542 0,-5.859006 -4.96,-9.129484 -11.1135,-9.129484 -9.6255,0 -21.1266,8.137483 -21.1266,17.266997"
     id="path184"
     style="stroke-width:0.992001" />
  <path
     class="Note"
     d="m 5043.7736,128.17651 c 0,4.2625 3.069,9.02103 11.1135,9.02103 10.3076,0 21.1266,-8.43203 21.1266,-17.15854 0,-5.85901 -4.96,-9.12949 -11.1135,-9.12949 -9.6255,0 -21.1266,8.13748 -21.1266,17.267"
     id="path185"
     style="stroke-width:0.992001" />
  <path
     class="Note"
     d="m 4908.9036,115.77651 c 0,4.2625 3.069,9.02103 11.1135,9.02103 10.3076,0 21.1266,-8.43203 21.1266,-17.15854 0,-5.85901 -4.96,-9.129488 -11.1135,-9.129488 -9.6255,0 -21.1266,8.137478 -21.1266,17.266998"
     id="path186"
     style="stroke-width:0.992001" />
  <path
     class="Note"
     d="m 8247.3836,53.776509 c 0,4.262499 3.069,9.021029 11.1135,9.021029 10.3076,0 21.1266,-8.432028 21.1266,-17.158542 0,-5.859006 -4.96,-9.129484 -11.1135,-9.129484 -9.6255,0 -21.1266,8.137483 -21.1266,17.266997"
     id="path187"
     style="stroke-width:0.992001" />
  <path
     class="Note"
     d="m 7313.0036,78.576509 c 0,4.262499 3.069,9.021029 11.1135,9.021029 10.3076,0 21.1266,-8.432028 21.1266,-17.158542 0,-5.859006 -4.96,-9.129484 -11.1135,-9.129484 -9.6255,0 -21.1266,8.137483 -21.1266,17.266997"
     id="path188"
     style="stroke-width:0.992001" />
  <path
     class="Note"
     d="m 5844.6736,90.976509 c 0,4.262499 3.069,9.021029 11.1135,9.021029 10.3076,0 21.1266,-8.432028 21.1266,-17.158542 0,-5.859006 -4.96,-9.129484 -11.1135,-9.129484 -9.6255,0 -21.1266,8.137483 -21.1266,17.266997"
     id="path189"
     style="stroke-width:0.992001" />
  <path
     class="Note"
     d="m 3707.5436,66.176509 c 0,4.262499 3.069,9.021029 11.1135,9.021029 10.3076,0 21.1266,-8.432028 21.1266,-17.158542 0,-5.859006 -4.96,-9.129484 -11.1135,-9.129484 -9.6255,0 -21.1266,8.137483 -21.1266,17.266997"
     id="path190"
     style="stroke-width:0.992001" />
  <path
     class="Note"
     d="m 4508.4536,78.576509 c 0,4.262499 3.069,9.021029 11.1135,9.021029 10.3076,0 21.1266,-8.432028 21.1266,-17.158542 0,-5.859006 -4.96,-9.129484 -11.1135,-9.129484 -9.6255,0 -21.1266,8.137483 -21.1266,17.266997"
     id="path191"
     style="stroke-width:0.992001" />
  <path
     class="Note"
     d="m 3440.5836,78.576509 c 0,4.262499 3.069,9.021029 11.1135,9.021029 10.3076,0 21.1266,-8.432028 21.1266,-17.158542 0,-5.859006 -4.96,-9.129484 -11.1135,-9.129484 -9.6255,0 -21.1266,8.137483 -21.1266,17.266997"
     id="path192"
     style="stroke-width:0.992001" />
  <path
     class="Note"
     d="m 4775.4236,103.37651 c 0,4.2625 3.069,9.02103 11.1135,9.02103 10.3076,0 21.1266,-8.43203 21.1266,-17.158544 0,-5.859006 -4.96,-9.129484 -11.1135,-9.129484 -9.6255,0 -21.1266,8.137483 -21.1266,17.266998"
     id="path193"
     style="stroke-width:0.992001" />
  <path
     class="Note"
     d="m 6132.7702,86.109512 c -9.6255,0 -21.1266,8.044483 -21.1266,17.266998 0,4.2625 3.069,9.02103 11.1135,9.02103 10.3076,0 21.1266,-8.43203 21.1266,-17.158544 0,-5.859006 -4.96,-9.129484 -11.1135,-9.129484 m -2.6815,17.468488 c -0.2945,0.186 -7.533,4.15401 -11.0051,4.15401 -3.2704,0 -3.968,-2.666 -3.968,-3.56501 0,-4.169499 9.9201,-9.021004 10.3231,-9.222509 0.3875,-0.201496 7.44,-4.1695 11.005,-4.1695 2.387,0 3.968,1.395002 3.968,3.565004 0,4.278004 -10.013,9.036515 -10.323,9.238005"
     id="path194"
     style="stroke-width:0.992001" />
  <path
     class="Note"
     d="m 7713.4536,115.77651 c 0,4.2625 3.069,9.02103 11.1135,9.02103 10.3076,0 21.1266,-8.43203 21.1266,-17.15854 0,-5.85901 -4.96,-9.129488 -11.1135,-9.129488 -9.6255,0 -21.1266,8.137478 -21.1266,17.266998"
     id="path195"
     style="stroke-width:0.992001" />
  <path
     class="Note"
     d="m 3841.0336,78.576509 c 0,4.262499 3.069,9.021029 11.1135,9.021029 10.3076,0 21.1266,-8.432028 21.1266,-17.158542 0,-5.859006 -4.96,-9.129484 -11.1135,-9.129484 -9.6255,0 -21.1266,8.137483 -21.1266,17.266997"
     id="path196"
     style="stroke-width:0.992001" />
  <path
     class="Note"
     d="m 4108.0036,103.37651 c 0,4.2625 3.069,9.02103 11.1135,9.02103 10.3076,0 21.1266,-8.43203 21.1266,-17.158544 0,-5.859006 -4.96,-9.129484 -11.1135,-9.129484 -9.6255,0 -21.1266,8.137483 -21.1266,17.266998"
     id="path197"
     style="stroke-width:0.992001" />
  <path
     class="Note"
     d="m 4641.9336,90.976509 c 0,4.262499 3.069,9.021029 11.1135,9.021029 10.3076,0 21.1266,-8.432028 21.1266,-17.158542 0,-5.859006 -4.96,-9.129484 -11.1135,-9.129484 -9.6255,0 -21.1266,8.137483 -21.1266,17.266997"
     id="path198"
     style="stroke-width:0.992001" />
  <path
     class="Note"
     d="m 3974.5136,90.976509 c 0,4.262499 3.069,9.021029 11.1135,9.021029 10.3076,0 21.1266,-8.432028 21.1266,-17.158542 0,-5.859006 -4.96,-9.129484 -11.1135,-9.129484 -9.6255,0 -21.1266,8.137483 -21.1266,17.266997"
     id="path199"
     style="stroke-width:0.992001" />
  <path
     class="Note"
     d="m 7446.4836,66.176509 c 0,4.262499 3.069,9.021029 11.1135,9.021029 10.3076,0 21.1266,-8.432028 21.1266,-17.158542 0,-5.859006 -4.96,-9.129484 -11.1135,-9.129484 -9.6255,0 -21.1266,8.137483 -21.1266,17.266997"
     id="path200"
     style="stroke-width:0.992001" />
  <path
     class="Note"
     d="m 8781.3236,53.776509 c 0,4.262499 3.069,9.021029 11.1135,9.021029 10.3076,0 21.1266,-8.432028 21.1266,-17.158542 0,-5.859006 -4.96,-9.129484 -11.1135,-9.129484 -9.6255,0 -21.1266,8.137483 -21.1266,17.266997"
     id="path201"
     style="stroke-width:0.992001" />
  <path
     class="Note"
     d="m 6912.5436,115.77651 c 0,4.2625 3.069,9.02103 11.1135,9.02103 10.3076,0 21.1266,-8.43203 21.1266,-17.15854 0,-5.85901 -4.96,-9.129488 -11.1135,-9.129488 -9.6255,0 -21.1266,8.137478 -21.1266,17.266998"
     id="path202"
     style="stroke-width:0.992001" />
  <path
     class="Note"
     d="m 9048.2936,28.976509 c 0,4.262499 3.069,9.021029 11.1135,9.021029 10.3076,0 21.1266,-8.432028 21.1266,-17.158542 0,-5.859006 -4.96,-9.129484 -11.1135,-9.129484 -9.6255,0 -21.1266,8.137483 -21.1266,17.266997"
     id="path203"
     style="stroke-width:0.992001" />
  <path
     class="Note"
     d="m 2639.6736,28.976509 c 0,4.262499 3.069,9.021029 11.1135,9.021029 10.3076,0 21.1266,-8.432028 21.1266,-17.158542 0,-5.859006 -4.96,-9.129484 -11.1135,-9.129484 -9.6255,0 -21.1266,8.137483 -21.1266,17.266997"
     id="path204"
     style="stroke-width:0.992001" />
  <path
     class="Note"
     d="m 5310.7336,115.77651 c 0,4.2625 3.069,9.02103 11.1135,9.02103 10.3076,0 21.1266,-8.43203 21.1266,-17.15854 0,-5.85901 -4.96,-9.129488 -11.1135,-9.129488 -9.6255,0 -21.1266,8.137478 -21.1266,17.266998"
     id="path205"
     style="stroke-width:0.992001" />
  <path
     class="Note"
     d="m 5444.2236,103.37651 c 0,4.2625 3.069,9.02103 11.1135,9.02103 10.3076,0 21.1266,-8.43203 21.1266,-17.158544 0,-5.859006 -4.96,-9.129484 -11.1135,-9.129484 -9.6255,0 -21.1266,8.137483 -21.1266,17.266998"
     id="path206"
     style="stroke-width:0.992001" />
  <path
     class="Note"
     d="m 2906.6436,115.77651 c 0,4.2625 3.069,9.02103 11.1135,9.02103 10.3076,0 21.1266,-8.43203 21.1266,-17.15854 0,-5.85901 -4.96,-9.129488 -11.1135,-9.129488 -9.6255,0 -21.1266,8.137478 -21.1266,17.266998"
     id="path207"
     style="stroke-width:0.992001" />
  <path
     class="Note"
     d="m 8914.8136,41.376509 c 0,4.262499 3.069,9.021029 11.1135,9.021029 10.3076,0 21.1266,-8.432028 21.1266,-17.158542 0,-5.859006 -4.96,-9.129484 -11.1135,-9.129484 -9.6255,0 -21.1266,8.137483 -21.1266,17.266997"
     id="path208"
     style="stroke-width:0.992001" />
  <path
     class="Note"
     d="m 3173.6136,115.77651 c 0,4.2625 3.069,9.02103 11.1135,9.02103 10.3076,0 21.1266,-8.43203 21.1266,-17.15854 0,-5.85901 -4.96,-9.129488 -11.1135,-9.129488 -9.6255,0 -21.1266,8.137478 -21.1266,17.266998"
     id="path209"
     style="stroke-width:0.992001" />
  <path
     class="Note"
     d="m 5577.7036,90.976509 c 0,4.262499 3.069,9.021029 11.1135,9.021029 10.3076,0 21.1266,-8.432028 21.1266,-17.158542 0,-5.859006 -4.96,-9.129484 -11.1135,-9.129484 -9.6255,0 -21.1266,8.137483 -21.1266,17.266997"
     id="path210"
     style="stroke-width:0.992001" />
  <path
     class="Note"
     d="m 7046.0336,103.37651 c 0,4.2625 3.069,9.02103 11.1135,9.02103 10.3076,0 21.1266,-8.43203 21.1266,-17.158544 0,-5.859006 -4.96,-9.129484 -11.1135,-9.129484 -9.6255,0 -21.1266,8.137483 -21.1266,17.266998"
     id="path211"
     style="stroke-width:0.992001" />
  <path
     class="Note"
     d="m 8647.8436,66.176509 c 0,4.262499 3.069,9.021029 11.1135,9.021029 10.3076,0 21.1266,-8.432028 21.1266,-17.158542 0,-5.859006 -4.96,-9.129484 -11.1135,-9.129484 -9.6255,0 -21.1266,8.137483 -21.1266,17.266997"
     id="path212"
     style="stroke-width:0.992001" />
  <path
     class="Note"
     d="m 7179.5136,90.976509 c 0,4.262499 3.069,9.021029 11.1135,9.021029 10.3076,0 21.1266,-8.432028 21.1266,-17.158542 0,-5.859006 -4.96,-9.129484 -11.1135,-9.129484 -9.6255,0 -21.1266,8.137483 -21.1266,17.266997"
     id="path213"
     style="stroke-width:0.992001" />
  <path
     class="Note"
     d="m 6645.5836,66.176509 c 0,4.262499 3.069,9.021029 11.1135,9.021029 10.3076,0 21.1266,-8.432028 21.1266,-17.158542 0,-5.859006 -4.96,-9.129484 -11.1135,-9.129484 -9.6255,0 -21.1266,8.137483 -21.1266,17.266997"
     id="path214"
     style="stroke-width:0.992001" />
  <path
     class="Note"
     d="m 8514.3536,78.576509 c 0,4.262499 3.069,9.021029 11.1135,9.021029 10.3076,0 21.1266,-8.432028 21.1266,-17.158542 0,-5.859006 -4.96,-9.129484 -11.1135,-9.129484 -9.6255,0 -21.1266,8.137483 -21.1266,17.266997"
     id="path215"
     style="stroke-width:0.992001" />
  <path
     class="Note"
     d="m 258.08719,296.90951 c -9.62549,0 -21.12655,8.04448 -21.12655,17.267 0,4.2625 3.069,9.02103 11.11349,9.02103 10.30758,0 21.12654,-8.43203 21.12654,-17.15854 0,-5.85901 -4.96,-9.12949 -11.11348,-9.12949 m -2.68148,17.46849 c -0.29453,0.186 -7.53306,4.15401 -11.00506,4.15401 -3.2705,0 -3.968,-2.666 -3.968,-3.565 0,-4.16951 9.92001,-9.02101 10.32306,-9.22252 0.38747,-0.20149 7.44,-4.1695 11.00496,-4.1695 2.38705,0 3.968,1.395 3.968,3.56501 0,4.278 -10.01296,9.03651 -10.32296,9.238"
     id="path216"
     style="stroke-width:0.992001" />
  <path
     class="Note"
     d="m 11719.384,289.37651 c 0,4.2625 3.069,9.02103 11.113,9.02103 10.308,0 21.127,-8.43203 21.127,-17.15854 0,-5.85901 -4.96,-9.12949 -11.114,-9.12949 -9.625,0 -21.126,8.13748 -21.126,17.267"
     id="path217"
     style="stroke-width:0.992001" />
  <path
     class="Note"
     d="m 6666.7102,296.90951 c -9.6255,0 -21.1266,8.04448 -21.1266,17.267 0,4.2625 3.069,9.02103 11.1135,9.02103 10.3076,0 21.1266,-8.43203 21.1266,-17.15854 0,-5.85901 -4.96,-9.12949 -11.1135,-9.12949 m -2.6815,17.46849 c -0.2945,0.186 -7.533,4.15401 -11.0051,4.15401 -3.2704,0 -3.968,-2.666 -3.968,-3.565 0,-4.16951 9.9201,-9.02101 10.3231,-9.22252 0.3875,-0.20149 7.44,-4.1695 11.005,-4.1695 2.387,0 3.968,1.395 3.968,3.56501 0,4.278 -10.013,9.03651 -10.323,9.238"
     id="path218"
     style="stroke-width:0.992001" />
  <path
     class="Note"
     d="m 6378.6136,326.57651 c 0,4.2625 3.069,9.02103 11.1135,9.02103 10.3076,0 21.1266,-8.43203 21.1266,-17.15854 0,-5.85901 -4.96,-9.12949 -11.1135,-9.12949 -9.6255,0 -21.1266,8.13748 -21.1266,17.267"
     id="path219"
     style="stroke-width:0.992001" />
  <path
     class="Note"
     d="m 11986.284,314.17651 c 0,4.2625 3.069,9.02103 11.113,9.02103 10.308,0 21.127,-8.43203 21.127,-17.15854 0,-5.85901 -4.96,-9.12949 -11.114,-9.12949 -9.625,0 -21.126,8.13748 -21.126,17.267"
     id="path220"
     style="stroke-width:0.992001" />
  <path
     class="Note"
     d="m 6111.6436,301.77651 c 0,4.2625 3.069,9.02103 11.1135,9.02103 10.3076,0 21.1266,-8.43203 21.1266,-17.15854 0,-5.85901 -4.96,-9.12949 -11.1135,-9.12949 -9.6255,0 -21.1266,8.13748 -21.1266,17.267"
     id="path221"
     style="stroke-width:0.992001" />
  <path
     class="Note"
     d="m 5844.6736,289.37651 c 0,4.2625 3.069,9.02103 11.1135,9.02103 10.3076,0 21.1266,-8.43203 21.1266,-17.15854 0,-5.85901 -4.96,-9.12949 -11.1135,-9.12949 -9.6255,0 -21.1266,8.13748 -21.1266,17.267"
     id="path222"
     style="stroke-width:0.992001" />
  <path
     class="Note"
     d="m 9069.4202,272.10951 c -9.6255,0 -21.1266,8.04448 -21.1266,17.267 0,4.2625 3.069,9.02103 11.1135,9.02103 10.3076,0 21.1266,-8.43203 21.1266,-17.15854 0,-5.85901 -4.96,-9.12949 -11.1135,-9.12949 m -2.6815,17.46849 c -0.2945,0.186 -7.533,4.15401 -11.0051,4.15401 -3.2704,0 -3.968,-2.666 -3.968,-3.56501 0,-4.1695 9.9201,-9.021 10.3231,-9.22251 0.3875,-0.20149 7.44,-4.1695 11.005,-4.1695 2.387,0 3.968,1.395 3.968,3.56501 0,4.278 -10.013,9.03651 -10.323,9.238"
     id="path223"
     style="stroke-width:0.992001" />
  <path
     class="Note"
     d="m 12253.284,289.37651 c 0,4.2625 3.069,9.02103 11.113,9.02103 10.308,0 21.127,-8.43203 21.127,-17.15854 0,-5.85901 -4.96,-9.12949 -11.114,-9.12949 -9.625,0 -21.126,8.13748 -21.126,17.267"
     id="path224"
     style="stroke-width:0.992001" />
  <path
     class="Note"
     d="m 5043.7736,264.57651 c 0,4.2625 3.069,9.02103 11.1135,9.02103 10.3076,0 21.1266,-8.43203 21.1266,-17.15854 0,-5.85901 -4.96,-9.12949 -11.1135,-9.12949 -9.6255,0 -21.1266,8.13748 -21.1266,17.267"
     id="path225"
     style="stroke-width:0.992001" />
  <path
     class="Note"
     d="m 5577.7036,314.17651 c 0,4.2625 3.069,9.02103 11.1135,9.02103 10.3076,0 21.1266,-8.43203 21.1266,-17.15854 0,-5.85901 -4.96,-9.12949 -11.1135,-9.12949 -9.6255,0 -21.1266,8.13748 -21.1266,17.267"
     id="path226"
     style="stroke-width:0.992001" />
  <path
     class="Note"
     d="m 12520.284,301.77651 c 0,4.2625 3.069,9.02103 11.113,9.02103 10.308,0 21.127,-8.43203 21.127,-17.15854 0,-5.85901 -4.96,-9.12949 -11.114,-9.12949 -9.625,0 -21.126,8.13748 -21.126,17.267"
     id="path227"
     style="stroke-width:0.992001" />
  <path
     class="Note"
     d="m 12787.184,326.57651 c 0,4.2625 3.069,9.02103 11.113,9.02103 10.308,0 21.127,-8.43203 21.127,-17.15854 0,-5.85901 -4.96,-9.12949 -11.114,-9.12949 -9.625,0 -21.126,8.13748 -21.126,17.267"
     id="path228"
     style="stroke-width:0.992001" />
  <path
     class="Note"
     d="m 5310.7336,289.37651 c 0,4.2625 3.069,9.02103 11.1135,9.02103 10.3076,0 21.1266,-8.43203 21.1266,-17.15854 0,-5.85901 -4.96,-9.12949 -11.1135,-9.12949 -9.6255,0 -21.1266,8.13748 -21.1266,17.267"
     id="path229"
     style="stroke-width:0.992001" />
  <path
     class="Note"
     d="m 13075.31,296.90951 c -9.625,0 -21.126,8.04448 -21.126,17.267 0,4.2625 3.069,9.02103 11.113,9.02103 10.308,0 21.127,-8.43203 21.127,-17.15854 0,-5.85901 -4.96,-9.12949 -11.114,-9.12949 m -2.681,17.46849 c -0.295,0.186 -7.533,4.15401 -11.005,4.15401 -3.271,0 -3.968,-2.666 -3.968,-3.565 0,-4.16951 9.92,-9.02101 10.323,-9.22252 0.387,-0.20149 7.44,-4.1695 11.005,-4.1695 2.387,0 3.968,1.395 3.968,3.56501 0,4.278 -10.013,9.03651 -10.323,9.238"
     id="path230"
     style="stroke-width:0.992001" />
  <path
     class="Note"
     d="m 9870.3102,284.50951 c -9.6255,0 -21.1266,8.04448 -21.1266,17.267 0,4.2625 3.069,9.02103 11.1135,9.02103 10.3076,0 21.1266,-8.43203 21.1266,-17.15854 0,-5.85901 -4.96,-9.12949 -11.1135,-9.12949 m -2.6815,17.46849 c -0.2945,0.186 -7.533,4.15401 -11.0051,4.15401 -3.2704,0 -3.968,-2.666 -3.968,-3.56501 0,-4.1695 9.9201,-9.021 10.3231,-9.22251 0.3875,-0.20149 7.44,-4.1695 11.005,-4.1695 2.387,0 3.968,1.395 3.968,3.56501 0,4.278 -10.013,9.03651 -10.323,9.238"
     id="path231"
     style="stroke-width:0.992001" />
  <path
     class="Note"
     d="m 3461.7102,284.50951 c -9.6255,0 -21.1266,8.04448 -21.1266,17.267 0,4.2625 3.069,9.02103 11.1135,9.02103 10.3076,0 21.1266,-8.43203 21.1266,-17.15854 0,-5.85901 -4.96,-9.12949 -11.1135,-9.12949 m -2.6815,17.46849 c -0.2945,0.186 -7.533,4.15401 -11.0051,4.15401 -3.2704,0 -3.968,-2.666 -3.968,-3.56501 0,-4.1695 9.9201,-9.021 10.3231,-9.22251 0.3875,-0.20149 7.44,-4.1695 11.005,-4.1695 2.387,0 3.968,1.395 3.968,3.56501 0,4.278 -10.013,9.03651 -10.323,9.238"
     id="path232"
     style="stroke-width:0.992001" />
  <path
     class="Note"
     d="m 1859.9002,259.70951 c -9.6255,0 -21.1266,8.04448 -21.1266,17.267 0,4.2625 3.069,9.02103 11.1135,9.02103 10.3076,0 21.1266,-8.43203 21.1266,-17.15854 0,-5.85901 -4.96,-9.12949 -11.1135,-9.12949 m -2.6815,17.46849 c -0.2945,0.186 -7.533,4.15401 -11.0051,4.15401 -3.2704,0 -3.968,-2.666 -3.968,-3.56501 0,-4.1695 9.9201,-9.021 10.3231,-9.22251 0.3875,-0.20149 7.44,-4.1695 11.005,-4.1695 2.387,0 3.968,1.395 3.968,3.56501 0,4.278 -10.013,9.03651 -10.323,9.238"
     id="path233"
     style="stroke-width:0.992001" />
  <path
     class="Note"
     d="m 10671.21,296.90951 c -9.625,0 -21.126,8.04448 -21.126,17.267 0,4.2625 3.069,9.02103 11.113,9.02103 10.308,0 21.127,-8.43203 21.127,-17.15854 0,-5.85901 -4.96,-9.12949 -11.114,-9.12949 m -2.681,17.46849 c -0.295,0.186 -7.533,4.15401 -11.005,4.15401 -3.271,0 -3.968,-2.666 -3.968,-3.565 0,-4.16951 9.92,-9.02101 10.323,-9.22252 0.387,-0.20149 7.44,-4.1695 11.005,-4.1695 2.387,0 3.968,1.395 3.968,3.56501 0,4.278 -10.013,9.03651 -10.323,9.238"
     id="path234"
     style="stroke-width:0.992001" />
  <path
     class="Note"
     d="m 8268.5102,259.70951 c -9.6255,0 -21.1266,8.04448 -21.1266,17.267 0,4.2625 3.069,9.02103 11.1135,9.02103 10.3076,0 21.1266,-8.43203 21.1266,-17.15854 0,-5.85901 -4.96,-9.12949 -11.1135,-9.12949 m -2.6815,17.46849 c -0.2945,0.186 -7.533,4.15401 -11.0051,4.15401 -3.2704,0 -3.968,-2.666 -3.968,-3.56501 0,-4.1695 9.9201,-9.021 10.3231,-9.22251 0.3875,-0.20149 7.44,-4.1695 11.005,-4.1695 2.387,0 3.968,1.395 3.968,3.56501 0,4.278 -10.013,9.03651 -10.323,9.238"
     id="path235"
     style="stroke-width:0.992001" />
  <path
     class="Note"
     d="m 11452.384,264.57651 c 0,4.2625 3.069,9.02103 11.113,9.02103 10.308,0 21.127,-8.43203 21.127,-17.15854 0,-5.85901 -4.96,-9.12949 -11.114,-9.12949 -9.625,0 -21.126,8.13748 -21.126,17.267"
     id="path236"
     style="stroke-width:0.992001" />
  <path
     class="Note"
     d="m 2660.8002,272.10951 c -9.6255,0 -21.1266,8.04448 -21.1266,17.267 0,4.2625 3.069,9.02103 11.1135,9.02103 10.3076,0 21.1266,-8.43203 21.1266,-17.15854 0,-5.85901 -4.96,-9.12949 -11.1135,-9.12949 m -2.6815,17.46849 c -0.2945,0.186 -7.533,4.15401 -11.0051,4.15401 -3.2704,0 -3.968,-2.666 -3.968,-3.56501 0,-4.1695 9.9201,-9.021 10.3231,-9.22251 0.3875,-0.20149 7.44,-4.1695 11.005,-4.1695 2.387,0 3.968,1.395 3.968,3.56501 0,4.278 -10.013,9.03651 -10.323,9.238"
     id="path237"
     style="stroke-width:0.992001" />
  <path
     class="Note"
     d="m 7467.6102,272.10951 c -9.6255,0 -21.1266,8.04448 -21.1266,17.267 0,4.2625 3.069,9.02103 11.1135,9.02103 10.3076,0 21.1266,-8.43203 21.1266,-17.15854 0,-5.85901 -4.96,-9.12949 -11.1135,-9.12949 m -2.6815,17.46849 c -0.2945,0.186 -7.533,4.15401 -11.0051,4.15401 -3.2704,0 -3.968,-2.666 -3.968,-3.56501 0,-4.1695 9.9201,-9.021 10.3231,-9.22251 0.3875,-0.20149 7.44,-4.1695 11.005,-4.1695 2.387,0 3.968,1.395 3.968,3.56501 0,4.278 -10.013,9.03651 -10.323,9.238"
     id="path238"
     style="stroke-width:0.992001" />
  <path
     class="Note"
     d="m 1058.9902,272.10951 c -9.6255,0 -21.1266,8.04448 -21.1266,17.267 0,4.2625 3.069,9.02103 11.1135,9.02103 10.3076,0 21.1266,-8.43203 21.1266,-17.15854 0,-5.85901 -4.96,-9.12949 -11.1135,-9.12949 m -2.6815,17.46849 c -0.2945,0.186 -7.533,4.15401 -11.0051,4.15401 -3.2704,0 -3.968,-2.666 -3.968,-3.56501 0,-4.1695 9.9201,-9.021 10.3231,-9.22251 0.3875,-0.20149 7.44,-4.1695 11.005,-4.1695 2.387,0 3.968,1.395 3.968,3.56501 0,4.278 -10.013,9.03651 -10.323,9.238"
     id="path239"
     style="stroke-width:0.992001" />
  <path
     class="Note"
     d="m 7179.5136,301.77651 c 0,4.2625 3.069,9.02103 11.1135,9.02103 10.3076,0 21.1266,-8.43203 21.1266,-17.15854 0,-5.85901 -4.96,-9.12949 -11.1135,-9.12949 -9.6255,0 -21.1266,8.13748 -21.1266,17.267"
     id="path240"
     style="stroke-width:0.992001" />
  <path
     class="Note"
     d="m 4262.6102,296.90951 c -9.6255,0 -21.1266,8.04448 -21.1266,17.267 0,4.2625 3.069,9.02103 11.1135,9.02103 10.3076,0 21.1266,-8.43203 21.1266,-17.15854 0,-5.85901 -4.96,-9.12949 -11.1135,-9.12949 m -2.6815,17.46849 c -0.2945,0.186 -7.533,4.15401 -11.0051,4.15401 -3.2704,0 -3.968,-2.666 -3.968,-3.565 0,-4.16951 9.9201,-9.02101 10.3231,-9.22252 0.3875,-0.20149 7.44,-4.1695 11.005,-4.1695 2.387,0 3.968,1.395 3.968,3.56501 0,4.278 -10.013,9.03651 -10.323,9.238"
     id="path241"
     style="stroke-width:0.992001" />
  <path
     class="Note"
     d="m 770.89364,301.77651 c 0,4.2625 3.069,9.02103 11.11349,9.02103 10.30758,0 21.12654,-8.43203 21.12654,-17.15854 0,-5.85901 -4.96,-9.12949 -11.11348,-9.12949 -9.62549,0 -21.12655,8.13748 -21.12655,17.267"
     id="path242"
     style="stroke-width:0.992001" />
  <path
     class="Note"
     d="m 236.96064,66.176509 c 0,4.262499 3.069,9.021029 11.11349,9.021029 10.30758,0 21.12654,-8.432028 21.12654,-17.158542 0,-5.859006 -4.96,-9.129484 -11.11348,-9.129484 -9.62549,0 -21.12655,8.137483 -21.12655,17.266997"
     id="path243"
     style="stroke-width:0.992001" />
  <path
     class="Clef"
     d="m 110.00017,113.684 c 0,7.05251 -2.88295,14.29102 -9.92001,17.17407 -2.076949,-11.90406 -4.758427,-27.68308 -5.456002,-32.054133 8.928012,0 15.376012,6.060553 15.376012,14.880063 m -14.089486,18.35207 c -1.984002,0.40295 -3.859479,0.60443 -5.750531,0.60443 -14.18244,0 -26.287997,-9.92001 -26.287997,-24.9085 0,-12.090066 8.525029,-22.909027 17.267038,-30.457559 1.674001,-1.488002 3.270528,-2.867479 4.758529,-4.35548 0.883476,5.347481 1.580952,10.01296 2.278428,14.089489 -9.036435,2.681478 -15.174441,12.198537 -15.174441,21.52955 0,6.944 5.456006,16.46101 13.392014,16.46101 0.790426,0 1.689477,-0.40295 1.689477,-1.28652 0,-0.89895 -0.992001,-1.39495 -2.185478,-2.18548 -3.875053,-2.387 -6.060531,-4.96001 -6.060531,-9.82701 0,-6.04501 4.464005,-10.91206 10.322961,-12.291537 l 5.750531,32.627607 M 87.18415,30.061443 c 0.899051,-3.968004 5.456006,-14.384015 10.617585,-14.384015 1.488002,0 3.859475,4.85148 3.859475,11.702437 0,10.32306 -7.626003,18.057593 -14.47706,24.800025 -0.588951,-3.968004 -1.084951,-7.827483 -1.084951,-11.996962 0,-3.673479 0.294525,-7.052532 1.084951,-10.121485 M 66.352129,162.49358 c 0,6.55653 5.053055,15.19001 18.445068,15.19001 4.66548,0 8.742009,-1.19347 12.306963,-3.37905 5.36306,-3.76643 6.74253,-10.32296 6.74253,-16.56949 0,-3.85948 -0.58895,-8.32349 -1.58095,-13.98097 -0.29453,-1.984 -0.89905,-4.96 -1.488,-8.83506 9.71843,-3.17747 16.95697,-13.29896 16.95697,-23.51352 0,-14.97304 -10.61749,-25.094526 -25.094554,-25.094526 -0.992001,-5.952006 -1.984002,-11.811061 -2.882954,-17.360017 10.524538,-11.020536 17.762968,-23.420548 17.762968,-39.18404 0,-9.036533 -2.77443,-16.368016 -4.37095,-19.9481476 -2.37148,-5.0532531 -5.254534,-8.5252566 -7.037061,-8.5252566 -0.697476,0 -3.766429,1.1933772 -7.036957,5.0532531 -6.355056,7.5481351 -8.137484,20.2426731 -8.137484,28.5661571 0,5.362955 0.496001,10.23001 2.185478,21.343496 -0.108525,0.09305 -5.270006,5.347481 -7.347057,7.037057 -9.036435,8.432009 -21.529497,20.428971 -21.529497,40.284514 0,18.53807 16.166541,33.12356 34.627084,33.12356 2.867478,0 5.548956,-0.29453 7.827483,-0.69748 1.890953,9.53244 2.976003,16.47645 2.976003,21.73098 0,10.32306 -5.25453,15.77906 -15.26749,15.77906 -2.387052,0 -4.464005,-0.496 -4.665579,-0.496 -0.09295,-0.10852 -0.294426,-0.20157 -0.294426,-0.29452 0,-0.20148 0.201475,-0.31 0.496,-0.40305 4.66548,-0.69748 9.315485,-4.66548 9.315485,-11.00497 0,-5.36305 -4.061054,-11.02053 -11.501061,-11.02053 -6.944007,0 -11.408012,5.65748 -11.408012,12.19854"
     id="path244"
     style="stroke-width:0.992001" />
  <path
     class="Clef"
     d="m 79.449717,297.51393 c -7.548533,0 -13.593588,4.35557 -13.702014,4.35557 -5.75055,4.26243 -8.029058,9.33096 -8.928059,12.80299 -0.496,1.7825 -0.682,3.565 -0.682,5.25451 0,2.387 0.387505,4.557 1.286506,6.448 1.193496,2.68151 3.472003,4.55701 6.448006,5.54901 1.193546,0.403 2.479973,0.60448 3.766499,0.60448 2.185478,0 4.464005,-0.60448 6.355056,-1.68948 3.068954,-1.6895 4.960005,-5.2545 4.960005,-9.12951 0,-3.47201 -1.798002,-6.64951 -4.774005,-8.52501 -2.077051,-1.39498 -4.061053,-1.78255 -5.75053,-1.78255 -1.193477,0 -2.278527,0.186 -3.177479,0.496 -0.992001,0.38757 -2.666052,1.37955 -3.472053,2.07705 0.310001,-1.89105 1.488002,-4.75853 2.588478,-6.35505 1.085051,-1.58096 3.270528,-3.56496 4.960005,-4.46401 2.480003,-1.37948 5.65758,-1.984 9.129584,-1.984 10.121485,0 15.08149,8.13758 15.08149,24.80007 0,9.23806 -3.472003,18.05755 -6.448006,23.9165 -3.286004,6.54106 -7.641483,12.80307 -11.516537,16.27507 -10.322961,9.42401 -20.041515,13.88801 -20.134515,13.88801 0,0 -1.193506,0.682 -1.193506,1.87548 0,0.20148 0.093,0.29453 0.093,0.496 0.31,0.992 1.193506,1.19348 1.798002,1.19348 0.093,0 0.387505,-0.0929 0.496,-0.0929 0.093,0 11.408061,-4.66548 20.429021,-11.71802 5.06853,-3.658 9.625485,-7.626 13.593489,-11.90401 3.565053,-3.85948 6.649581,-8.02906 9.129583,-12.19853 4.355483,-7.44001 6.835483,-15.17454 6.835483,-21.82403 0,-8.23051 -2.17,-15.08149 -6.24653,-19.93307 -4.665482,-5.56443 -11.702538,-8.432 -20.924973,-8.432 m 31.139503,12.58601 c 0,2.79005 2.18548,4.96005 4.77401,4.96005 2.57295,0 4.75853,-2.17 4.75853,-4.96005 0,-2.77443 -2.18558,-5.05296 -4.75853,-5.05296 -2.58853,0 -4.77401,2.27853 -4.77401,5.05296 m 0,24.5056 c 0,2.77452 2.18548,5.06853 4.77401,5.06853 2.57295,0 4.75853,-2.29401 4.75853,-5.06853 0,-2.77453 -2.18558,-5.05303 -4.75853,-5.05303 -2.58853,0 -4.77401,2.2785 -4.77401,5.05303"
     id="path245"
     style="stroke-width:0.992001" />
  <path
     class="TimeSig"
     d="m 174.41814,60.921998 c 7.93601,-3.084508 8.43201,-8.246008 8.43201,-10.028485 0,-0.201575 0,-0.387575 0,-0.496 0,-0.883576 -0.29442,-12.105587 -17.36001,-12.105587 -17.0655,0 -16.5695,12.105587 -16.5695,12.105587 h 0.093 l -0.093,0.201475 c 0,3.565004 2.88301,6.355006 6.44801,6.355006 3.56505,0 6.35506,-2.790002 6.35506,-6.355006 0,-2.883053 -2.18558,-5.657481 -4.96006,-6.246531 0.093,-0.108525 0.186,-0.201476 0.29451,-0.294525 1.37954,-0.992001 3.27049,-1.488002 5.16155,-1.488002 4.154,0 8.618,2.480003 8.618,7.827583 0,6.246481 -4.65,7.145482 -5.84358,7.346977 -1.19347,0.201505 -6.74243,0.589001 -7.93597,0.589001 -1.19351,0 -1.28651,1.395001 -1.28651,1.395001 v 1.984007 c 0,0 0.186,1.085001 1.28651,1.193501 1.68954,0.093 3.96797,0.093 7.14555,0.589001 4.35548,0.589001 6.634,3.565004 6.634,10.50906 0,6.649482 -4.464,8.432009 -8.618,8.432009 -2.79001,0 -5.36306,-0.790526 -6.44806,-1.581052 3.27048,-0.201475 5.95206,-3.068953 5.95206,-6.354956 0,-3.565054 -2.79001,-6.448056 -6.35506,-6.448056 -3.565,0 -6.44801,2.883002 -6.44801,6.448056 0,0 0,0.201475 0,0.40295 0,1.286527 0.29451,4.867055 3.87501,8.137484 3.85951,3.565053 8.72648,3.673578 10.91206,3.673578 9.51696,0 19.84002,-3.286003 19.84002,-14.089589 0,-7.238482 -4.96001,-10.322985 -9.33106,-11.702487 h 0.20147"
     id="path246"
     style="stroke-width:0.992001" />
  <path
     class="TimeSig"
     d="m 164.15719,124.20849 v 7.33158 h -8.23054 c -0.69747,0 -1.39495,0.60443 -1.39495,1.39495 v 1.89105 c 0,0.79043 0.69748,1.37948 1.39495,1.37948 h 30.05456 c 0.806,0 1.39495,-0.58905 1.39495,-1.37948 v -1.89105 c 0,-0.79052 -0.58895,-1.39495 -1.39495,-1.39495 h -8.92801 v -7.33158 h 8.92801 c 0.806,0 1.39495,-0.69748 1.39495,-1.488 v -1.89098 c 0,-0.6975 -0.58895,-1.3795 -1.39495,-1.3795 h -8.92801 v -15.77902 c 0,-0.589 -0.29452,-1.085 -0.682,-1.2865 l -1.19348,-0.6045 c -0.20157,-0.093 -0.29452,-0.093 -0.496,-0.093 -0.10852,0 -0.10852,0 -0.20157,0 -0.29443,0 -0.69748,0.093 -0.89895,0.2945 l -9.02106,8.23051 c -0.29443,0.31 -0.40295,0.6975 -0.40295,1.1005 v 8.13751 h -11.50103 c 0,0 11.11355,-11.90401 22.81599,-27.59008 0.40305,-0.496 0.496,-0.992001 0.496,-1.379476 0,-0.496001 -0.20148,-0.898951 -0.29443,-0.992001 l -2.18557,-2.185478 c -0.29443,-0.201475 -0.58895,-0.40305 -0.992,-0.40305 -0.58895,0 -13.99644,0 -14.78697,0 -0.69748,0 -1.19348,0.604526 -1.28653,1.193576 0,0 -0.496,7.346958 -3.069,15.375989 -2.5885,8.04451 -5.5645,13.00451 -8.1375,16.66252 0,0 -0.29451,0.496 -0.29451,1.1005 0,0.2015 0,0.38755 0.093,0.58903 0.29451,0.69747 0.992,1.78252 0.992,1.78252 0,0 0.20151,0.60443 1.08501,0.60443 h 17.06554"
     id="path247"
     style="stroke-width:0.992001" />
  <path
     class="TimeSig"
     d="m 174.41814,321.322 c 7.93601,-3.08451 8.43201,-8.24601 8.43201,-10.02849 0,-0.20157 0,-0.38757 0,-0.496 0,-0.88357 -0.29442,-12.10558 -17.36001,-12.10558 -17.0655,0 -16.5695,12.10558 -16.5695,12.10558 h 0.093 l -0.093,0.20148 c 0,3.565 2.88301,6.355 6.44801,6.355 3.56505,0 6.35506,-2.79 6.35506,-6.355 0,-2.88305 -2.18558,-5.65748 -4.96006,-6.24653 0.093,-0.10853 0.186,-0.20148 0.29451,-0.29453 1.37954,-0.992 3.27049,-1.488 5.16155,-1.488 4.154,0 8.618,2.48 8.618,7.82758 0,6.24648 -4.65,7.14548 -5.84358,7.34698 -1.19347,0.20151 -6.74243,0.589 -7.93597,0.589 -1.19351,0 -1.28651,1.395 -1.28651,1.395 v 1.98401 c 0,0 0.186,1.085 1.28651,1.1935 1.68954,0.093 3.96797,0.093 7.14555,0.589 4.35548,0.589 6.634,3.565 6.634,10.50906 0,6.64948 -4.464,8.43201 -8.618,8.43201 -2.79001,0 -5.36306,-0.79053 -6.44806,-1.58105 3.27048,-0.20148 5.95206,-3.06895 5.95206,-6.35496 0,-3.56505 -2.79001,-6.44805 -6.35506,-6.44805 -3.565,0 -6.44801,2.883 -6.44801,6.44805 0,0 0,0.20148 0,0.40295 0,1.28653 0.29451,4.86706 3.87501,8.13749 3.85951,3.56505 8.72648,3.67357 10.91206,3.67357 9.51696,0 19.84002,-3.286 19.84002,-14.08958 0,-7.23849 -4.96001,-10.32299 -9.33106,-11.70249 h 0.20147"
     id="path248"
     style="stroke-width:0.992001" />
  <path
     class="TimeSig"
     d="m 164.15719,384.60849 v 7.33158 h -8.23054 c -0.69747,0 -1.39495,0.60443 -1.39495,1.39495 v 1.89105 c 0,0.79043 0.69748,1.37948 1.39495,1.37948 h 30.05456 c 0.806,0 1.39495,-0.58905 1.39495,-1.37948 v -1.89105 c 0,-0.79052 -0.58895,-1.39495 -1.39495,-1.39495 h -8.92801 v -7.33158 h 8.92801 c 0.806,0 1.39495,-0.69748 1.39495,-1.488 v -1.89098 c 0,-0.6975 -0.58895,-1.3795 -1.39495,-1.3795 h -8.92801 v -15.77902 c 0,-0.589 -0.29452,-1.085 -0.682,-1.2865 l -1.19348,-0.6045 c -0.20157,-0.093 -0.29452,-0.093 -0.496,-0.093 -0.10852,0 -0.10852,0 -0.20157,0 -0.29443,0 -0.69748,0.093 -0.89895,0.2945 l -9.02106,8.23051 c -0.29443,0.31 -0.40295,0.6975 -0.40295,1.1005 v 8.13751 h -11.50103 c 0,0 11.11355,-11.90401 22.81599,-27.59008 0.40305,-0.496 0.496,-0.992 0.496,-1.37948 0,-0.496 -0.20148,-0.89895 -0.29443,-0.992 l -2.18557,-2.18547 c -0.29443,-0.20148 -0.58895,-0.40305 -0.992,-0.40305 -0.58895,0 -13.99644,0 -14.78697,0 -0.69748,0 -1.19348,0.60452 -1.28653,1.19357 0,0 -0.496,7.34696 -3.069,15.37599 -2.5885,8.04451 -5.5645,13.00451 -8.1375,16.66252 0,0 -0.29451,0.496 -0.29451,1.1005 0,0.2015 0,0.38755 0.093,0.58903 0.29451,0.69747 0.992,1.78252 0.992,1.78252 0,0 0.20151,0.60443 1.08501,0.60443 h 17.06554"
     id="path249"
     style="stroke-width:0.992001" />
  <path
     class="Beam"
     fill-rule="evenodd"
     d="m 5340.4836,12.407 h 402.93 v 12.4 h -402.93 v -12.4"
     id="path250" />
  <path
     class="Beam"
     fill-rule="evenodd"
     d="m 3707.5436,142.6 402.94,18.6 v 12.413 l -402.94,-18.6 V 142.6"
     id="path251" />
  <path
     class="Beam"
     fill-rule="evenodd"
     d="M 533.67364,18.6 936.60364,0 v 12.413 l -402.93,18.6 V 18.6"
     id="path252" />
  <path
     class="Beam"
     fill-rule="evenodd"
     d="m 10946.784,0 403,18.6 v 12.413 l -403,-18.6 V 0"
     id="path253" />
  <path
     class="Beam"
     fill-rule="evenodd"
     d="m 8514.3536,136.404 402.94,-12.4 v 12.406 l -402.94,12.4 v -12.406"
     id="path254" />
  <path
     class="Beam"
     fill-rule="evenodd"
     d="m 10116.184,142.6 402.9,18.6 v 12.413 l -402.9,-18.6 V 142.6"
     id="path255" />
  <path
     class="Beam"
     fill-rule="evenodd"
     d="m 2105.7336,136.404 402.94,-12.4 v 12.406 l -402.94,12.4 v -12.406"
     id="path256" />
  <path
     class="Beam"
     fill-rule="evenodd"
     d="m 4538.1936,0 402.94,18.6 v 12.413 l -402.94,-18.6 V 0"
     id="path257" />
  <path
     class="Beam"
     fill-rule="evenodd"
     d="M 6942.2936,18.6 7345.2236,0 v 12.413 l -402.93,18.6 V 18.6"
     id="path258" />
  <path
     class="Beam"
     fill-rule="evenodd"
     d="m 11749.084,12.407 h 402.9 v 12.4 h -402.9 v -12.4"
     id="path259" />
  <path
     class="NoteDot"
     d="m 13098.784,99.207 c 0,2.77451 2.185,4.96 4.96,4.96 2.774,0 4.96,-2.18549 4.96,-4.96 0,-2.774508 -2.186,-4.960005 -4.96,-4.960005 -2.775,0 -4.96,2.185497 -4.96,4.960005"
     id="path260"
     style="stroke-width:0.992001" />
  <path
     class="NoteDot"
     d="m 9092.9136,285.207 c 0,2.77451 2.1855,4.96 4.96,4.96 2.7746,0 4.9601,-2.18549 4.9601,-4.96 0,-2.77451 -2.1855,-4.96001 -4.9601,-4.96001 -2.7745,0 -4.96,2.1855 -4.96,4.96001"
     id="path261"
     style="stroke-width:0.992001" />
  <path
     class="NoteDot"
     d="m 13098.784,310.007 c 0,2.77451 2.185,4.96001 4.96,4.96001 2.774,0 4.96,-2.1855 4.96,-4.96001 0,-2.77451 -2.186,-4.96001 -4.96,-4.96001 -2.775,0 -4.96,2.1855 -4.96,4.96001"
     id="path262"
     style="stroke-width:0.992001" />
  <path
     class="NoteDot"
     d="m 1883.3936,260.407 c 0,2.77451 2.1855,4.96 4.96,4.96 2.7746,0 4.9601,-2.18549 4.9601,-4.96 0,-2.77451 -2.1855,-4.96001 -4.9601,-4.96001 -2.7745,0 -4.96,2.1855 -4.96,4.96001"
     id="path263"
     style="stroke-width:0.992001" />
  <path
     class="NoteDot"
     d="m 2684.3036,285.207 c 0,2.77451 2.1855,4.96 4.96,4.96 2.7746,0 4.9601,-2.18549 4.9601,-4.96 0,-2.77451 -2.1855,-4.96001 -4.9601,-4.96001 -2.7745,0 -4.96,2.1855 -4.96,4.96001"
     id="path264"
     style="stroke-width:0.992001" />
  <path
     class="NoteDot"
     d="m 9893.7836,285.207 c 0,2.77451 2.1855,4.96 4.96,4.96 2.7746,0 4.9601,-2.18549 4.9601,-4.96 0,-2.77451 -2.1855,-4.96001 -4.9601,-4.96001 -2.7745,0 -4.96,2.1855 -4.96,4.96001"
     id="path265"
     style="stroke-width:0.992001" />
  <path
     class="NoteDot"
     d="m 8292.0136,260.407 c 0,2.77451 2.1855,4.96 4.96,4.96 2.7746,0 4.9601,-2.18549 4.9601,-4.96 0,-2.77451 -2.1855,-4.96001 -4.9601,-4.96001 -2.7745,0 -4.96,2.1855 -4.96,4.96001"
     id="path266"
     style="stroke-width:0.992001" />
  <path
     class="NoteDot"
     d="m 3485.2036,285.207 c 0,2.77451 2.1855,4.96 4.96,4.96 2.7746,0 4.9601,-2.18549 4.9601,-4.96 0,-2.77451 -2.1855,-4.96001 -4.9601,-4.96001 -2.7745,0 -4.96,2.1855 -4.96,4.96001"
     id="path267"
     style="stroke-width:0.992001" />
  <path
     class="NoteDot"
     d="m 10694.684,310.007 c 0,2.77451 2.185,4.96001 4.96,4.96001 2.774,0 4.96,-2.1855 4.96,-4.96001 0,-2.77451 -2.186,-4.96001 -4.96,-4.96001 -2.775,0 -4.96,2.1855 -4.96,4.96001"
     id="path268"
     style="stroke-width:0.992001" />
  <path
     class="NoteDot"
     d="m 7491.1036,285.207 c 0,2.77451 2.1855,4.96 4.96,4.96 2.7746,0 4.9601,-2.18549 4.9601,-4.96 0,-2.77451 -2.1855,-4.96001 -4.9601,-4.96001 -2.7745,0 -4.96,2.1855 -4.96,4.96001"
     id="path269"
     style="stroke-width:0.992001" />
  <path
     class="NoteDot"
     d="m 1082.4936,285.207 c 0,2.77451 2.1855,4.96 4.96,4.96 2.7746,0 4.9601,-2.18549 4.9601,-4.96 0,-2.77451 -2.1855,-4.96001 -4.9601,-4.96001 -2.7745,0 -4.96,2.1855 -4.96,4.96001"
     id="path270"
     style="stroke-width:0.992001" />
  <path
     class="NoteDot"
     d="m 4286.1136,310.007 c 0,2.77451 2.1855,4.96001 4.96,4.96001 2.7746,0 4.9601,-2.1855 4.9601,-4.96001 0,-2.77451 -2.1855,-4.96001 -4.9601,-4.96001 -2.7745,0 -4.96,2.1855 -4.96,4.96001"
     id="path271"
     style="stroke-width:0.992001" />
  <path
     class="Bracket"
     d="m 3.3985167,217.007 c 6.4615805,-6.85505 19.0475803,-20.84565 19.0475803,-46.748 0,-32.7574 -14.0468748,-65.85175 -14.0468748,-86.304 0,-21.969402 12.5859998,-42.47775 13.3164198,-43.152 0,-0.393402 0,-0.393402 0,-0.730348 0,-0.393402 0,-0.730707 -0.337125,-1.067652 -0.393295,0 -1.12375,0 -1.460875,0.67425 -0.337125,0.393402 -19.77800025,19.778 -19.77800025,49.276348 0,31.633652 12.58600025,53.940002 12.58600025,95.294002 0,7.92235 -3.2588753,20.50835 -12.24887525,31.68975 -0.337125,0 -0.337125,0.67425 -0.337125,1.06765 -0.337125,0.33695 0,0.73035 0.337125,1.06765 8.98999995,11.12495 12.24887525,23.71095 12.24887525,31.6333 0,41.354 -12.58600025,63.6607 -12.58600025,95.294 0,29.16147 19.44087525,48.93949 19.77800025,49.27661 0.337125,0.73044 1.06758,1.06756 1.460875,0.73044 0.337125,-0.33713 0.67425,-0.73044 0.337125,-1.06756 0,0 0,-0.39332 0,-0.73044 -0.73042,-0.73046 -13.3164198,-21.23888 -13.3164198,-43.152 0,-20.50835 14.0468748,-53.60305 14.0468748,-86.304 0,-26.23965 -12.5859998,-39.9494 -19.0475803,-46.748"
     id="path272"
     style="stroke-width:3.596" />
</svg>
