<?xml version="1.0" encoding="UTF-8" standalone="no"?>
<svg
   width="611.64423mm"
   height="28.872814mm"
   viewBox="0 0 8668.9733 409.221"
   version="1.2"
   id="svg556"
   sodipodi:docname="Minuet in G.svg"
   inkscape:version="1.2.2 (b0a8486541, 2022-12-01)"
   xmlns:inkscape="http://www.inkscape.org/namespaces/inkscape"
   xmlns:sodipodi="http://sodipodi.sourceforge.net/DTD/sodipodi-0.dtd"
   xmlns="http://www.w3.org/2000/svg"
   xmlns:svg="http://www.w3.org/2000/svg">
  <defs
     id="defs560" />
  <sodipodi:namedview
     id="namedview558"
     pagecolor="#ffffff"
     bordercolor="#666666"
     borderopacity="1.0"
     inkscape:showpageshadow="2"
     inkscape:pageopacity="0.0"
     inkscape:pagecheckerboard="0"
     inkscape:deskcolor="#d1d1d1"
     inkscape:document-units="mm"
     showgrid="false"
     inkscape:zoom="0.01"
     inkscape:cx="95900"
     inkscape:cy="350"
     inkscape:window-width="1444"
     inkscape:window-height="1024"
     inkscape:window-x="0"
     inkscape:window-y="0"
     inkscape:window-maximized="0"
     inkscape:current-layer="svg556" />
  <title
     id="title2">MinuetInG</title>
  <desc
     id="desc4">Generated by MuseScore Studio 4.5.2</desc>
  <polyline
     class="StaffLines"
     fill="none"
     stroke="#000000"
     stroke-width="2.73"
     stroke-linejoin="bevel"
     points="336.599,386.199 8974.39,386.199"
     id="polyline6"
     transform="translate(-305.41636,-348.978)" />
  <polyline
     class="StaffLines"
     fill="none"
     stroke="#000000"
     stroke-width="2.73"
     stroke-linejoin="bevel"
     points="336.599,410.999 8974.39,410.999"
     id="polyline8"
     transform="translate(-305.41636,-348.978)" />
  <polyline
     class="StaffLines"
     fill="none"
     stroke="#000000"
     stroke-width="2.73"
     stroke-linejoin="bevel"
     points="336.599,435.799 8974.39,435.799"
     id="polyline10"
     transform="translate(-305.41636,-348.978)" />
  <polyline
     class="StaffLines"
     fill="none"
     stroke="#000000"
     stroke-width="2.73"
     stroke-linejoin="bevel"
     points="336.599,460.599 8974.39,460.599"
     id="polyline12"
     transform="translate(-305.41636,-348.978)" />
  <polyline
     class="StaffLines"
     fill="none"
     stroke="#000000"
     stroke-width="2.73"
     stroke-linejoin="bevel"
     points="336.599,485.399 8974.39,485.399"
     id="polyline14"
     transform="translate(-305.41636,-348.978)" />
  <polyline
     class="StaffLines"
     fill="none"
     stroke="#000000"
     stroke-width="2.73"
     stroke-linejoin="bevel"
     points="336.599,646.599 8974.39,646.599"
     id="polyline16"
     transform="translate(-305.41636,-348.978)" />
  <polyline
     class="StaffLines"
     fill="none"
     stroke="#000000"
     stroke-width="2.73"
     stroke-linejoin="bevel"
     points="336.599,671.399 8974.39,671.399"
     id="polyline18"
     transform="translate(-305.41636,-348.978)" />
  <polyline
     class="StaffLines"
     fill="none"
     stroke="#000000"
     stroke-width="2.73"
     stroke-linejoin="bevel"
     points="336.599,696.199 8974.39,696.199"
     id="polyline20"
     transform="translate(-305.41636,-348.978)" />
  <polyline
     class="StaffLines"
     fill="none"
     stroke="#000000"
     stroke-width="2.73"
     stroke-linejoin="bevel"
     points="336.599,720.999 8974.39,720.999"
     id="polyline22"
     transform="translate(-305.41636,-348.978)" />
  <polyline
     class="StaffLines"
     fill="none"
     stroke="#000000"
     stroke-width="2.73"
     stroke-linejoin="bevel"
     points="336.599,745.799 8974.39,745.799"
     id="polyline24"
     transform="translate(-305.41636,-348.978)" />
  <polyline
     class="BarLine"
     fill="none"
     stroke="#000000"
     stroke-width="4.46"
     stroke-linejoin="bevel"
     points="3471.01,384.835 3471.01,646.599"
     id="polyline26"
     transform="translate(-305.41636,-348.978)" />
  <polyline
     class="BarLine"
     fill="none"
     stroke="#000000"
     stroke-width="4.46"
     stroke-linejoin="bevel"
     points="7439.02,384.835 7439.02,646.599"
     id="polyline28"
     transform="translate(-305.41636,-348.978)" />
  <polyline
     class="BarLine"
     fill="none"
     stroke="#000000"
     stroke-width="4.46"
     stroke-linejoin="bevel"
     points="991.009,384.835 991.009,646.599"
     id="polyline30"
     transform="translate(-305.41636,-348.978)" />
  <polyline
     class="BarLine"
     fill="none"
     stroke="#000000"
     stroke-width="4.46"
     stroke-linejoin="bevel"
     points="4959.01,384.835 4959.01,646.599"
     id="polyline32"
     transform="translate(-305.41636,-348.978)" />
  <polyline
     class="BarLine"
     fill="none"
     stroke="#000000"
     stroke-width="4.46"
     stroke-linejoin="bevel"
     points="2975.01,384.835 2975.01,646.599"
     id="polyline34"
     transform="translate(-305.41636,-348.978)" />
  <polyline
     class="BarLine"
     fill="none"
     stroke="#000000"
     stroke-width="4.46"
     stroke-linejoin="bevel"
     points="1487.01,384.835 1487.01,646.599"
     id="polyline36"
     transform="translate(-305.41636,-348.978)" />
  <polyline
     class="BarLine"
     fill="none"
     stroke="#000000"
     stroke-width="4.46"
     stroke-linejoin="bevel"
     points="4463.01,384.835 4463.01,646.599"
     id="polyline38"
     transform="translate(-305.41636,-348.978)" />
  <polyline
     class="BarLine"
     fill="none"
     stroke="#000000"
     stroke-width="4.46"
     stroke-linejoin="bevel"
     points="5455.02,384.835 5455.02,646.599"
     id="polyline40"
     transform="translate(-305.41636,-348.978)" />
  <polyline
     class="BarLine"
     fill="none"
     stroke="#000000"
     stroke-width="4.46"
     stroke-linejoin="bevel"
     points="7935.02,384.835 7935.02,646.599"
     id="polyline42"
     transform="translate(-305.41636,-348.978)" />
  <polyline
     class="BarLine"
     fill="none"
     stroke="#000000"
     stroke-width="4.46"
     stroke-linejoin="bevel"
     points="6943.02,384.835 6943.02,646.599"
     id="polyline44"
     transform="translate(-305.41636,-348.978)" />
  <polyline
     class="BarLine"
     fill="none"
     stroke="#000000"
     stroke-width="4.46"
     stroke-linejoin="bevel"
     points="2479.01,384.835 2479.01,646.599"
     id="polyline46"
     transform="translate(-305.41636,-348.978)" />
  <polyline
     class="BarLine"
     fill="none"
     stroke="#000000"
     stroke-width="4.46"
     stroke-linejoin="bevel"
     points="3967.01,384.835 3967.01,646.599"
     id="polyline48"
     transform="translate(-305.41636,-348.978)" />
  <polyline
     class="BarLine"
     fill="none"
     stroke="#000000"
     stroke-width="4.46"
     stroke-linejoin="bevel"
     points="5951.02,384.835 5951.02,646.599"
     id="polyline50"
     transform="translate(-305.41636,-348.978)" />
  <polyline
     class="BarLine"
     fill="none"
     stroke="#000000"
     stroke-width="4.46"
     stroke-linejoin="bevel"
     points="338.831,384.835 338.831,646.599"
     id="polyline52"
     transform="translate(-305.41636,-348.978)" />
  <polyline
     class="BarLine"
     fill="none"
     stroke="#000000"
     stroke-width="4.46"
     stroke-linejoin="bevel"
     points="1983.01,384.835 1983.01,646.599"
     id="polyline54"
     transform="translate(-305.41636,-348.978)" />
  <polyline
     class="BarLine"
     fill="none"
     stroke="#000000"
     stroke-width="4.46"
     stroke-linejoin="bevel"
     points="6447.02,384.835 6447.02,646.599"
     id="polyline56"
     transform="translate(-305.41636,-348.978)" />
  <polyline
     class="BarLine"
     fill="none"
     stroke="#000000"
     stroke-width="4.46"
     stroke-linejoin="bevel"
     points="8431.02,384.835 8431.02,646.599"
     id="polyline58"
     transform="translate(-305.41636,-348.978)" />
  <polyline
     class="BarLine"
     fill="none"
     stroke="#000000"
     stroke-width="4.46"
     stroke-linejoin="bevel"
     points="8949.34,384.835 8949.34,646.599"
     id="polyline60"
     transform="translate(-305.41636,-348.978)" />
  <polyline
     class="BarLine"
     fill="none"
     stroke="#000000"
     stroke-width="13.64"
     stroke-linejoin="bevel"
     points="8967.57,384.835 8967.57,646.599"
     id="polyline62"
     transform="translate(-305.41636,-348.978)" />
  <polyline
     class="BarLine"
     fill="none"
     stroke="#000000"
     stroke-width="4.46"
     stroke-linejoin="bevel"
     points="5951.02,645.235 5951.02,747.163"
     id="polyline64"
     transform="translate(-305.41636,-348.978)" />
  <polyline
     class="BarLine"
     fill="none"
     stroke="#000000"
     stroke-width="4.46"
     stroke-linejoin="bevel"
     points="2975.01,645.235 2975.01,747.163"
     id="polyline66"
     transform="translate(-305.41636,-348.978)" />
  <polyline
     class="BarLine"
     fill="none"
     stroke="#000000"
     stroke-width="4.46"
     stroke-linejoin="bevel"
     points="1983.01,645.235 1983.01,747.163"
     id="polyline68"
     transform="translate(-305.41636,-348.978)" />
  <polyline
     class="BarLine"
     fill="none"
     stroke="#000000"
     stroke-width="4.46"
     stroke-linejoin="bevel"
     points="4959.01,645.235 4959.01,747.163"
     id="polyline70"
     transform="translate(-305.41636,-348.978)" />
  <polyline
     class="BarLine"
     fill="none"
     stroke="#000000"
     stroke-width="4.46"
     stroke-linejoin="bevel"
     points="1487.01,645.235 1487.01,747.163"
     id="polyline72"
     transform="translate(-305.41636,-348.978)" />
  <polyline
     class="BarLine"
     fill="none"
     stroke="#000000"
     stroke-width="4.46"
     stroke-linejoin="bevel"
     points="6447.02,645.235 6447.02,747.163"
     id="polyline74"
     transform="translate(-305.41636,-348.978)" />
  <polyline
     class="BarLine"
     fill="none"
     stroke="#000000"
     stroke-width="4.46"
     stroke-linejoin="bevel"
     points="5455.02,645.235 5455.02,747.163"
     id="polyline76"
     transform="translate(-305.41636,-348.978)" />
  <polyline
     class="BarLine"
     fill="none"
     stroke="#000000"
     stroke-width="4.46"
     stroke-linejoin="bevel"
     points="6943.02,645.235 6943.02,747.163"
     id="polyline78"
     transform="translate(-305.41636,-348.978)" />
  <polyline
     class="BarLine"
     fill="none"
     stroke="#000000"
     stroke-width="4.46"
     stroke-linejoin="bevel"
     points="7439.02,645.235 7439.02,747.163"
     id="polyline80"
     transform="translate(-305.41636,-348.978)" />
  <polyline
     class="BarLine"
     fill="none"
     stroke="#000000"
     stroke-width="4.46"
     stroke-linejoin="bevel"
     points="2479.01,645.235 2479.01,747.163"
     id="polyline82"
     transform="translate(-305.41636,-348.978)" />
  <polyline
     class="BarLine"
     fill="none"
     stroke="#000000"
     stroke-width="4.46"
     stroke-linejoin="bevel"
     points="338.831,645.235 338.831,747.163"
     id="polyline84"
     transform="translate(-305.41636,-348.978)" />
  <polyline
     class="BarLine"
     fill="none"
     stroke="#000000"
     stroke-width="4.46"
     stroke-linejoin="bevel"
     points="8949.34,645.235 8949.34,747.163"
     id="polyline86"
     transform="translate(-305.41636,-348.978)" />
  <polyline
     class="BarLine"
     fill="none"
     stroke="#000000"
     stroke-width="13.64"
     stroke-linejoin="bevel"
     points="8967.57,645.235 8967.57,747.163"
     id="polyline88"
     transform="translate(-305.41636,-348.978)" />
  <polyline
     class="BarLine"
     fill="none"
     stroke="#000000"
     stroke-width="4.46"
     stroke-linejoin="bevel"
     points="3471.01,645.235 3471.01,747.163"
     id="polyline90"
     transform="translate(-305.41636,-348.978)" />
  <polyline
     class="BarLine"
     fill="none"
     stroke="#000000"
     stroke-width="4.46"
     stroke-linejoin="bevel"
     points="991.009,645.235 991.009,747.163"
     id="polyline92"
     transform="translate(-305.41636,-348.978)" />
  <polyline
     class="BarLine"
     fill="none"
     stroke="#000000"
     stroke-width="4.46"
     stroke-linejoin="bevel"
     points="3967.01,645.235 3967.01,747.163"
     id="polyline94"
     transform="translate(-305.41636,-348.978)" />
  <polyline
     class="BarLine"
     fill="none"
     stroke="#000000"
     stroke-width="4.46"
     stroke-linejoin="bevel"
     points="7935.02,645.235 7935.02,747.163"
     id="polyline96"
     transform="translate(-305.41636,-348.978)" />
  <polyline
     class="BarLine"
     fill="none"
     stroke="#000000"
     stroke-width="4.46"
     stroke-linejoin="bevel"
     points="8431.02,645.235 8431.02,747.163"
     id="polyline98"
     transform="translate(-305.41636,-348.978)" />
  <polyline
     class="BarLine"
     fill="none"
     stroke="#000000"
     stroke-width="4.46"
     stroke-linejoin="bevel"
     points="4463.01,645.235 4463.01,747.163"
     id="polyline100"
     transform="translate(-305.41636,-348.978)" />
  <path
     class="Accidental"
     d="m 1598.6542,26.80499 c 0.6045,-0.09305 1.1005,-0.790526 1.1005,-1.395052 v -5.843481 c 0,-0.790525 -0.6045,-1.394951 -1.395,-1.394951 -0.093,0 -0.093,0 -0.2015,0 l -3.2705,0.697476 V 4.081917 h -2.7746 v 15.376015 l -8.8349,1.798002 V 7.2594946 h -2.7746 V 21.844985 l -3.875,0.790525 c -0.589,0.108426 -1.085,0.790426 -1.085,1.394952 v 0.201475 5.750551 -0.201495 c 0,0.790495 0.589,1.395001 1.395,1.395001 0.093,0 0.186,0 0.2945,0 l 3.2705,-0.697506 v 16.368027 l -3.875,0.790496 c -0.589,0.09305 -1.085,0.790525 -1.085,1.395051 v 5.750431 c 0,0.790526 0.589,1.379576 1.395,1.379576 0.093,0 0.186,0 0.2945,0 l 3.2705,-0.682001 v 14.77149 h 2.7746 V 54.875543 l 8.8349,-1.782527 v 13.996539 h 2.7746 v -14.58549 l 3.7665,-0.697575 c 0.6045,-0.108426 1.1005,-0.790426 1.1005,-1.394952 v -5.843531 c 0,-0.806 -0.6045,-1.395001 -1.395,-1.395001 -0.093,0 -0.093,0 -0.2015,0 l -3.2705,0.697506 V 27.502485 l 3.7665,-0.697495 m -15.376,3.069003 8.8349,-1.782507 v 16.368026 l -8.8349,1.891002 V 29.873993"
     id="path102"
     style="stroke-width:0.992001" />
  <path
     class="Accidental"
     d="m 5566.6542,26.80499 c 0.6045,-0.09305 1.1005,-0.790526 1.1005,-1.395052 v -5.843481 c 0,-0.790525 -0.6045,-1.394951 -1.395,-1.394951 -0.093,0 -0.093,0 -0.2015,0 l -3.2705,0.697476 V 4.081917 h -2.7746 v 15.376015 l -8.8349,1.798002 V 7.2594946 h -2.7746 V 21.844985 l -3.875,0.790525 c -0.589,0.108426 -1.085,0.790426 -1.085,1.394952 v 0.201475 5.750551 -0.201495 c 0,0.790495 0.589,1.395001 1.395,1.395001 0.093,0 0.186,0 0.2945,0 l 3.2705,-0.697506 v 16.368027 l -3.875,0.790496 c -0.589,0.09305 -1.085,0.790525 -1.085,1.395051 v 5.750431 c 0,0.790526 0.589,1.379576 1.395,1.379576 0.093,0 0.186,0 0.2945,0 l 3.2705,-0.682001 v 14.77149 h 2.7746 V 54.875543 l 8.8349,-1.782527 v 13.996539 h 2.7746 v -14.58549 l 3.7665,-0.697575 c 0.6045,-0.108426 1.1005,-0.790426 1.1005,-1.394952 v -5.843531 c 0,-0.806 -0.6045,-1.395001 -1.395,-1.395001 -0.093,0 -0.093,0 -0.2015,0 l -3.2705,0.697506 V 27.502485 l 3.7665,-0.697495 m -15.376,3.069003 8.8349,-1.782507 v 16.368026 l -8.8349,1.891002 V 29.873993"
     id="path104"
     style="stroke-width:0.992001" />
  <path
     class="Accidental"
     d="m 7175.0642,113.60499 c 0.6045,-0.0931 1.1005,-0.79053 1.1005,-1.39505 v -5.84348 c 0,-0.79053 -0.6045,-1.39495 -1.395,-1.39495 -0.093,0 -0.093,0 -0.2015,0 l -3.2705,0.69747 V 90.881917 h -2.7746 v 15.376013 l -8.8349,1.798 V 94.059495 h -2.7746 v 14.585485 l -3.875,0.79053 c -0.589,0.10843 -1.085,0.79043 -1.085,1.39495 v 0.20148 5.75055 -0.2015 c 0,0.7905 0.589,1.395 1.395,1.395 0.093,0 0.186,0 0.2945,0 l 3.2705,-0.6975 v 16.36802 l -3.875,0.7905 c -0.589,0.0931 -1.085,0.79053 -1.085,1.39505 v 5.75043 c 0,0.79053 0.589,1.37958 1.395,1.37958 0.093,0 0.186,0 0.2945,0 l 3.2705,-0.682 v 14.77149 h 2.7746 v -15.37602 l 8.8349,-1.78252 v 13.99653 h 2.7746 v -14.58548 l 3.7665,-0.69758 c 0.6045,-0.10843 1.1005,-0.79043 1.1005,-1.39495 v -5.84353 c 0,-0.806 -0.6045,-1.395 -1.395,-1.395 -0.093,0 -0.093,0 -0.2015,0 l -3.2705,0.6975 v -16.36802 l 3.7665,-0.6975 m -15.376,3.069 8.8349,-1.7825 v 16.36802 l -8.8349,1.891 v -16.47652"
     id="path106"
     style="stroke-width:0.992001" />
  <path
     class="Accidental"
     d="m 3207.0542,113.60499 c 0.6045,-0.0931 1.1005,-0.79053 1.1005,-1.39505 v -5.84348 c 0,-0.79053 -0.6045,-1.39495 -1.395,-1.39495 -0.093,0 -0.093,0 -0.2015,0 l -3.2705,0.69747 V 90.881917 h -2.7746 v 15.376013 l -8.8349,1.798 V 94.059495 h -2.7746 v 14.585485 l -3.875,0.79053 c -0.589,0.10843 -1.085,0.79043 -1.085,1.39495 v 0.20148 5.75055 -0.2015 c 0,0.7905 0.589,1.395 1.395,1.395 0.093,0 0.186,0 0.2945,0 l 3.2705,-0.6975 v 16.36802 l -3.875,0.7905 c -0.589,0.0931 -1.085,0.79053 -1.085,1.39505 v 5.75043 c 0,0.79053 0.589,1.37958 1.395,1.37958 0.093,0 0.186,0 0.2945,0 l 3.2705,-0.682 v 14.77149 h 2.7746 v -15.37602 l 8.8349,-1.78252 v 13.99653 h 2.7746 v -14.58548 l 3.7665,-0.69758 c 0.6045,-0.10843 1.1005,-0.79043 1.1005,-1.39495 v -5.84353 c 0,-0.806 -0.6045,-1.395 -1.395,-1.395 -0.093,0 -0.093,0 -0.2015,0 l -3.2705,0.6975 v -16.36802 l 3.7665,-0.6975 m -15.376,3.069 8.8349,-1.7825 v 16.36802 l -8.8349,1.891 v -16.47652"
     id="path108"
     style="stroke-width:0.992001" />
  <path
     class="Accidental"
     d="m 4032.3442,312.00499 c 0.6045,-0.0931 1.1005,-0.79053 1.1005,-1.39505 v -5.84348 c 0,-0.79053 -0.6045,-1.39495 -1.395,-1.39495 -0.093,0 -0.093,0 -0.2015,0 l -3.2705,0.69747 v -14.78706 h -2.7746 v 15.37601 l -8.8349,1.798 v -13.99644 h -2.7746 v 14.58549 l -3.875,0.79053 c -0.589,0.10843 -1.085,0.79043 -1.085,1.39495 v 0.20148 5.75055 -0.2015 c 0,0.7905 0.589,1.395 1.395,1.395 0.093,0 0.186,0 0.2945,0 l 3.2705,-0.6975 v 16.36802 l -3.875,0.7905 c -0.589,0.0931 -1.085,0.79053 -1.085,1.39505 v 5.75043 c 0,0.79053 0.589,1.37958 1.395,1.37958 0.093,0 0.186,0 0.2945,0 l 3.2705,-0.682 v 14.77149 h 2.7746 v -15.37602 l 8.8349,-1.78252 v 13.99653 h 2.7746 v -14.58548 l 3.7665,-0.69758 c 0.6045,-0.10843 1.1005,-0.79043 1.1005,-1.39495 v -5.84353 c 0,-0.806 -0.6045,-1.395 -1.395,-1.395 -0.093,0 -0.093,0 -0.2015,0 l -3.2705,0.6975 v -16.36802 l 3.7665,-0.6975 m -15.376,3.069 8.8349,-1.7825 v 16.36802 l -8.8349,1.891 v -16.47652"
     id="path110"
     style="stroke-width:0.992001" />
  <path
     class="Accidental"
     d="m 8000.3542,312.00499 c 0.6045,-0.0931 1.1005,-0.79053 1.1005,-1.39505 v -5.84348 c 0,-0.79053 -0.6045,-1.39495 -1.395,-1.39495 -0.093,0 -0.093,0 -0.2015,0 l -3.2705,0.69747 v -14.78706 h -2.7746 v 15.37601 l -8.8349,1.798 v -13.99644 h -2.7746 v 14.58549 l -3.875,0.79053 c -0.589,0.10843 -1.085,0.79043 -1.085,1.39495 v 0.20148 5.75055 -0.2015 c 0,0.7905 0.589,1.395 1.395,1.395 0.093,0 0.186,0 0.2945,0 l 3.2705,-0.6975 v 16.36802 l -3.875,0.7905 c -0.589,0.0931 -1.085,0.79053 -1.085,1.39505 v 5.75043 c 0,0.79053 0.589,1.37958 1.395,1.37958 0.093,0 0.186,0 0.2945,0 l 3.2705,-0.682 v 14.77149 h 2.7746 v -15.37602 l 8.8349,-1.78252 v 13.99653 h 2.7746 v -14.58548 l 3.7665,-0.69758 c 0.6045,-0.10843 1.1005,-0.79043 1.1005,-1.39495 v -5.84353 c 0,-0.806 -0.6045,-1.395 -1.395,-1.395 -0.093,0 -0.093,0 -0.2015,0 l -3.2705,0.6975 v -16.36802 l 3.7665,-0.6975 m -15.376,3.069 8.8349,-1.7825 v 16.36802 l -8.8349,1.891 v -16.47652"
     id="path112"
     style="stroke-width:0.992001" />
  <polyline
     class="LedgerLine"
     fill="none"
     stroke="#000000"
     stroke-width="3.97"
     stroke-linejoin="bevel"
     points="7479.58,621.799 7528.17,621.799"
     id="polyline114"
     transform="translate(-305.41636,-348.978)" />
  <polyline
     class="LedgerLine"
     fill="none"
     stroke="#000000"
     stroke-width="3.97"
     stroke-linejoin="bevel"
     points="5494.2,621.799 5542.79,621.799"
     id="polyline116"
     transform="translate(-305.41636,-348.978)" />
  <polyline
     class="LedgerLine"
     fill="none"
     stroke="#000000"
     stroke-width="3.97"
     stroke-linejoin="bevel"
     points="3511.58,621.799 3560.17,621.799"
     id="polyline118"
     transform="translate(-305.41636,-348.978)" />
  <polyline
     class="LedgerLine"
     fill="none"
     stroke="#000000"
     stroke-width="3.97"
     stroke-linejoin="bevel"
     points="1526.19,621.799 1574.79,621.799"
     id="polyline120"
     transform="translate(-305.41636,-348.978)" />
  <polyline
     class="Stem"
     fill="none"
     stroke="#000000"
     stroke-width="2.48"
     stroke-linejoin="bevel"
     points="7668.99,456.631 7668.99,367.599"
     id="polyline122"
     transform="translate(-305.41636,-348.978)" />
  <polyline
     class="Stem"
     fill="none"
     stroke="#000000"
     stroke-width="2.48"
     stroke-linejoin="bevel"
     points="4692.16,456.631 4692.16,373.698"
     id="polyline124"
     transform="translate(-305.41636,-348.978)" />
  <polyline
     class="Stem"
     fill="none"
     stroke="#000000"
     stroke-width="2.48"
     stroke-linejoin="bevel"
     points="7398.35,456.631 7398.35,373.698"
     id="polyline126"
     transform="translate(-305.41636,-348.978)" />
  <polyline
     class="Stem"
     fill="none"
     stroke="#000000"
     stroke-width="2.48"
     stroke-linejoin="bevel"
     points="7744.11,444.231 7744.11,367.599"
     id="polyline128"
     transform="translate(-305.41636,-348.978)" />
  <polyline
     class="Stem"
     fill="none"
     stroke="#000000"
     stroke-width="2.48"
     stroke-linejoin="bevel"
     points="7819.23,431.831 7819.23,367.599"
     id="polyline130"
     transform="translate(-305.41636,-348.978)" />
  <polyline
     class="Stem"
     fill="none"
     stroke="#000000"
     stroke-width="2.48"
     stroke-linejoin="bevel"
     points="4767.55,444.231 4767.55,367.565"
     id="polyline132"
     transform="translate(-305.41636,-348.978)" />
  <polyline
     class="Stem"
     fill="none"
     stroke="#000000"
     stroke-width="2.48"
     stroke-linejoin="bevel"
     points="4210.7,444.231 4210.7,367.599"
     id="polyline134"
     transform="translate(-305.41636,-348.978)" />
  <polyline
     class="Stem"
     fill="none"
     stroke="#000000"
     stroke-width="2.48"
     stroke-linejoin="bevel"
     points="4015.62,439.965 4015.62,510.199"
     id="polyline136"
     transform="translate(-305.41636,-348.978)" />
  <polyline
     class="Stem"
     fill="none"
     stroke="#000000"
     stroke-width="2.48"
     stroke-linejoin="bevel"
     points="7894.35,456.631 7894.35,367.599"
     id="polyline138"
     transform="translate(-305.41636,-348.978)" />
  <polyline
     class="Stem"
     fill="none"
     stroke="#000000"
     stroke-width="2.48"
     stroke-linejoin="bevel"
     points="7983.63,439.965 7983.63,510.199"
     id="polyline140"
     transform="translate(-305.41636,-348.978)" />
  <polyline
     class="Stem"
     fill="none"
     stroke="#000000"
     stroke-width="2.48"
     stroke-linejoin="bevel"
     points="8178.7,444.231 8178.7,367.599"
     id="polyline142"
     transform="translate(-305.41636,-348.978)" />
  <polyline
     class="Stem"
     fill="none"
     stroke="#000000"
     stroke-width="2.48"
     stroke-linejoin="bevel"
     points="8509.37,456.631 8509.37,373.799"
     id="polyline144"
     transform="translate(-305.41636,-348.978)" />
  <polyline
     class="Stem"
     fill="none"
     stroke="#000000"
     stroke-width="2.48"
     stroke-linejoin="bevel"
     points="4511.62,415.165 4511.62,497.799"
     id="polyline146"
     transform="translate(-305.41636,-348.978)" />
  <polyline
     class="Stem"
     fill="none"
     stroke="#000000"
     stroke-width="2.48"
     stroke-linejoin="bevel"
     points="3926.34,456.631 3926.34,367.599"
     id="polyline148"
     transform="translate(-305.41636,-348.978)" />
  <polyline
     class="Stem"
     fill="none"
     stroke="#000000"
     stroke-width="2.48"
     stroke-linejoin="bevel"
     points="3851.22,431.831 3851.22,367.599"
     id="polyline150"
     transform="translate(-305.41636,-348.978)" />
  <polyline
     class="Stem"
     fill="none"
     stroke="#000000"
     stroke-width="2.48"
     stroke-linejoin="bevel"
     points="3776.1,444.231 3776.1,367.599"
     id="polyline152"
     transform="translate(-305.41636,-348.978)" />
  <polyline
     class="Stem"
     fill="none"
     stroke="#000000"
     stroke-width="2.48"
     stroke-linejoin="bevel"
     points="6872.6,452.365 6872.6,516.298"
     id="polyline154"
     transform="translate(-305.41636,-348.978)" />
  <polyline
     class="Stem"
     fill="none"
     stroke="#000000"
     stroke-width="2.48"
     stroke-linejoin="bevel"
     points="5999.62,377.965 5999.62,460.599"
     id="polyline156"
     transform="translate(-305.41636,-348.978)" />
  <polyline
     class="Stem"
     fill="none"
     stroke="#000000"
     stroke-width="2.48"
     stroke-linejoin="bevel"
     points="6360.04,456.631 6360.04,373.799"
     id="polyline158"
     transform="translate(-305.41636,-348.978)" />
  <polyline
     class="Stem"
     fill="none"
     stroke="#000000"
     stroke-width="2.48"
     stroke-linejoin="bevel"
     points="5880.6,390.365 5880.6,479.266"
     id="polyline160"
     transform="translate(-305.41636,-348.978)" />
  <polyline
     class="Stem"
     fill="none"
     stroke="#000000"
     stroke-width="2.48"
     stroke-linejoin="bevel"
     points="5805.2,402.765 5805.2,483.354"
     id="polyline162"
     transform="translate(-305.41636,-348.978)" />
  <polyline
     class="Stem"
     fill="none"
     stroke="#000000"
     stroke-width="2.48"
     stroke-linejoin="bevel"
     points="6495.62,427.565 6495.62,503.999"
     id="polyline164"
     transform="translate(-305.41636,-348.978)" />
  <polyline
     class="Stem"
     fill="none"
     stroke="#000000"
     stroke-width="2.48"
     stroke-linejoin="bevel"
     points="6646.41,415.165 6646.41,497.9"
     id="polyline166"
     transform="translate(-305.41636,-348.978)" />
  <polyline
     class="Stem"
     fill="none"
     stroke="#000000"
     stroke-width="2.48"
     stroke-linejoin="bevel"
     points="6721.81,427.565 6721.81,504.032"
     id="polyline168"
     transform="translate(-305.41636,-348.978)" />
  <polyline
     class="Stem"
     fill="none"
     stroke="#000000"
     stroke-width="2.48"
     stroke-linejoin="bevel"
     points="6797.21,439.965 6797.21,510.165"
     id="polyline170"
     transform="translate(-305.41636,-348.978)" />
  <polyline
     class="Stem"
     fill="none"
     stroke="#000000"
     stroke-width="2.48"
     stroke-linejoin="bevel"
     points="5729.81,415.165 5729.81,487.443"
     id="polyline172"
     transform="translate(-305.41636,-348.978)" />
  <polyline
     class="Stem"
     fill="none"
     stroke="#000000"
     stroke-width="2.48"
     stroke-linejoin="bevel"
     points="5654.41,427.565 5654.41,491.531"
     id="polyline174"
     transform="translate(-305.41636,-348.978)" />
  <polyline
     class="Stem"
     fill="none"
     stroke="#000000"
     stroke-width="2.48"
     stroke-linejoin="bevel"
     points="5503.62,402.765 5503.62,485.399"
     id="polyline176"
     transform="translate(-305.41636,-348.978)" />
  <polyline
     class="Stem"
     fill="none"
     stroke="#000000"
     stroke-width="2.48"
     stroke-linejoin="bevel"
     points="4842.95,431.831 4842.95,361.432"
     id="polyline178"
     transform="translate(-305.41636,-348.978)" />
  <polyline
     class="Stem"
     fill="none"
     stroke="#000000"
     stroke-width="2.48"
     stroke-linejoin="bevel"
     points="5368.03,456.631 5368.03,373.799"
     id="polyline180"
     transform="translate(-305.41636,-348.978)" />
  <polyline
     class="Stem"
     fill="none"
     stroke="#000000"
     stroke-width="2.48"
     stroke-linejoin="bevel"
     points="5202.7,456.631 5202.7,373.799"
     id="polyline182"
     transform="translate(-305.41636,-348.978)" />
  <polyline
     class="Stem"
     fill="none"
     stroke="#000000"
     stroke-width="2.48"
     stroke-linejoin="bevel"
     points="5007.62,415.165 5007.62,497.799"
     id="polyline184"
     transform="translate(-305.41636,-348.978)" />
  <polyline
     class="Stem"
     fill="none"
     stroke="#000000"
     stroke-width="2.48"
     stroke-linejoin="bevel"
     points="6991.62,439.965 6991.62,510.199"
     id="polyline186"
     transform="translate(-305.41636,-348.978)" />
  <polyline
     class="Stem"
     fill="none"
     stroke="#000000"
     stroke-width="2.48"
     stroke-linejoin="bevel"
     points="7172.16,419.431 7172.16,355.299"
     id="polyline188"
     transform="translate(-305.41636,-348.978)" />
  <polyline
     class="Stem"
     fill="none"
     stroke="#000000"
     stroke-width="2.48"
     stroke-linejoin="bevel"
     points="7247.56,431.831 7247.56,361.432"
     id="polyline190"
     transform="translate(-305.41636,-348.978)" />
  <polyline
     class="Stem"
     fill="none"
     stroke="#000000"
     stroke-width="2.48"
     stroke-linejoin="bevel"
     points="7322.95,444.231 7322.95,367.565"
     id="polyline192"
     transform="translate(-305.41636,-348.978)" />
  <polyline
     class="Stem"
     fill="none"
     stroke="#000000"
     stroke-width="2.48"
     stroke-linejoin="bevel"
     points="6194.7,456.631 6194.7,373.799"
     id="polyline194"
     transform="translate(-305.41636,-348.978)" />
  <polyline
     class="Stem"
     fill="none"
     stroke="#000000"
     stroke-width="2.48"
     stroke-linejoin="bevel"
     points="7518.75,469.031 7518.75,386.199"
     id="polyline196"
     transform="translate(-305.41636,-348.978)" />
  <polyline
     class="Stem"
     fill="none"
     stroke="#000000"
     stroke-width="2.48"
     stroke-linejoin="bevel"
     points="4918.34,419.431 4918.34,355.299"
     id="polyline198"
     transform="translate(-305.41636,-348.978)" />
  <polyline
     class="Stem"
     fill="none"
     stroke="#000000"
     stroke-width="2.48"
     stroke-linejoin="bevel"
     points="1234.7,456.631 1234.7,373.799"
     id="polyline200"
     transform="translate(-305.41636,-348.978)" />
  <polyline
     class="Stem"
     fill="none"
     stroke="#000000"
     stroke-width="2.48"
     stroke-linejoin="bevel"
     points="724.152,456.631 724.152,373.698"
     id="polyline202"
     transform="translate(-305.41636,-348.978)" />
  <polyline
     class="Stem"
     fill="none"
     stroke="#000000"
     stroke-width="2.48"
     stroke-linejoin="bevel"
     points="799.547,444.231 799.547,367.565"
     id="polyline204"
     transform="translate(-305.41636,-348.978)" />
  <polyline
     class="Stem"
     fill="none"
     stroke="#000000"
     stroke-width="2.48"
     stroke-linejoin="bevel"
     points="1535.62,402.765 1535.62,485.399"
     id="polyline206"
     transform="translate(-305.41636,-348.978)" />
  <polyline
     class="Stem"
     fill="none"
     stroke="#000000"
     stroke-width="2.48"
     stroke-linejoin="bevel"
     points="2678.41,415.165 2678.41,497.9"
     id="polyline208"
     transform="translate(-305.41636,-348.978)" />
  <polyline
     class="Stem"
     fill="none"
     stroke="#000000"
     stroke-width="2.48"
     stroke-linejoin="bevel"
     points="1400.03,456.631 1400.03,373.799"
     id="polyline210"
     transform="translate(-305.41636,-348.978)" />
  <polyline
     class="Stem"
     fill="none"
     stroke="#000000"
     stroke-width="2.48"
     stroke-linejoin="bevel"
     points="3354.95,444.231 3354.95,367.565"
     id="polyline212"
     transform="translate(-305.41636,-348.978)" />
  <polyline
     class="Stem"
     fill="none"
     stroke="#000000"
     stroke-width="2.48"
     stroke-linejoin="bevel"
     points="2753.8,427.565 2753.8,504.032"
     id="polyline214"
     transform="translate(-305.41636,-348.978)" />
  <polyline
     class="Stem"
     fill="none"
     stroke="#000000"
     stroke-width="2.48"
     stroke-linejoin="bevel"
     points="3279.55,431.831 3279.55,361.432"
     id="polyline216"
     transform="translate(-305.41636,-348.978)" />
  <polyline
     class="Stem"
     fill="none"
     stroke="#000000"
     stroke-width="2.48"
     stroke-linejoin="bevel"
     points="2031.62,377.965 2031.62,460.599"
     id="polyline218"
     transform="translate(-305.41636,-348.978)" />
  <polyline
     class="Stem"
     fill="none"
     stroke="#000000"
     stroke-width="2.48"
     stroke-linejoin="bevel"
     points="874.942,431.831 874.942,361.432"
     id="polyline220"
     transform="translate(-305.41636,-348.978)" />
  <polyline
     class="Stem"
     fill="none"
     stroke="#000000"
     stroke-width="2.48"
     stroke-linejoin="bevel"
     points="3204.15,419.431 3204.15,355.299"
     id="polyline222"
     transform="translate(-305.41636,-348.978)" />
  <polyline
     class="Stem"
     fill="none"
     stroke="#000000"
     stroke-width="2.48"
     stroke-linejoin="bevel"
     points="2829.2,439.965 2829.2,510.165"
     id="polyline224"
     transform="translate(-305.41636,-348.978)" />
  <polyline
     class="Stem"
     fill="none"
     stroke="#000000"
     stroke-width="2.48"
     stroke-linejoin="bevel"
     points="2904.6,452.365 2904.6,516.298"
     id="polyline226"
     transform="translate(-305.41636,-348.978)" />
  <polyline
     class="Stem"
     fill="none"
     stroke="#000000"
     stroke-width="2.48"
     stroke-linejoin="bevel"
     points="3023.62,439.965 3023.62,510.199"
     id="polyline228"
     transform="translate(-305.41636,-348.978)" />
  <polyline
     class="Stem"
     fill="none"
     stroke="#000000"
     stroke-width="2.48"
     stroke-linejoin="bevel"
     points="1039.62,415.165 1039.62,497.799"
     id="polyline230"
     transform="translate(-305.41636,-348.978)" />
  <polyline
     class="Stem"
     fill="none"
     stroke="#000000"
     stroke-width="2.48"
     stroke-linejoin="bevel"
     points="950.337,419.431 950.337,355.299"
     id="polyline232"
     transform="translate(-305.41636,-348.978)" />
  <polyline
     class="Stem"
     fill="none"
     stroke="#000000"
     stroke-width="2.48"
     stroke-linejoin="bevel"
     points="3430.34,456.631 3430.34,373.698"
     id="polyline234"
     transform="translate(-305.41636,-348.978)" />
  <polyline
     class="Stem"
     fill="none"
     stroke="#000000"
     stroke-width="2.48"
     stroke-linejoin="bevel"
     points="1686.41,427.565 1686.41,491.531"
     id="polyline236"
     transform="translate(-305.41636,-348.978)" />
  <polyline
     class="Stem"
     fill="none"
     stroke="#000000"
     stroke-width="2.48"
     stroke-linejoin="bevel"
     points="3550.74,469.031 3550.74,386.199"
     id="polyline238"
     transform="translate(-305.41636,-348.978)" />
  <polyline
     class="Stem"
     fill="none"
     stroke="#000000"
     stroke-width="2.48"
     stroke-linejoin="bevel"
     points="2527.62,427.565 2527.62,503.999"
     id="polyline240"
     transform="translate(-305.41636,-348.978)" />
  <polyline
     class="Stem"
     fill="none"
     stroke="#000000"
     stroke-width="2.48"
     stroke-linejoin="bevel"
     points="1912.59,390.365 1912.59,479.266"
     id="polyline242"
     transform="translate(-305.41636,-348.978)" />
  <polyline
     class="Stem"
     fill="none"
     stroke="#000000"
     stroke-width="2.48"
     stroke-linejoin="bevel"
     points="2392.03,456.631 2392.03,373.799"
     id="polyline244"
     transform="translate(-305.41636,-348.978)" />
  <polyline
     class="Stem"
     fill="none"
     stroke="#000000"
     stroke-width="2.48"
     stroke-linejoin="bevel"
     points="1761.8,415.165 1761.8,487.443"
     id="polyline246"
     transform="translate(-305.41636,-348.978)" />
  <polyline
     class="Stem"
     fill="none"
     stroke="#000000"
     stroke-width="2.48"
     stroke-linejoin="bevel"
     points="2226.7,456.631 2226.7,373.799"
     id="polyline248"
     transform="translate(-305.41636,-348.978)" />
  <polyline
     class="Stem"
     fill="none"
     stroke="#000000"
     stroke-width="2.48"
     stroke-linejoin="bevel"
     points="1837.2,402.765 1837.2,483.354"
     id="polyline250"
     transform="translate(-305.41636,-348.978)" />
  <polyline
     class="Stem"
     fill="none"
     stroke="#000000"
     stroke-width="2.48"
     stroke-linejoin="bevel"
     points="543.617,415.165 543.617,497.799"
     id="polyline252"
     transform="translate(-305.41636,-348.978)" />
  <polyline
     class="Stem"
     fill="none"
     stroke="#000000"
     stroke-width="2.48"
     stroke-linejoin="bevel"
     points="3700.98,456.631 3700.98,367.599"
     id="polyline254"
     transform="translate(-305.41636,-348.978)" />
  <polyline
     class="Stem"
     fill="none"
     stroke="#000000"
     stroke-width="2.48"
     stroke-linejoin="bevel"
     points="3671.24,638.365 3671.24,720.999"
     id="polyline256"
     transform="translate(-305.41636,-348.978)" />
  <polyline
     class="Stem"
     fill="none"
     stroke="#000000"
     stroke-width="2.48"
     stroke-linejoin="bevel"
     points="2527.62,650.765 2527.62,733.399"
     id="polyline258"
     transform="translate(-305.41636,-348.978)" />
  <polyline
     class="Stem"
     fill="none"
     stroke="#000000"
     stroke-width="2.48"
     stroke-linejoin="bevel"
     points="4813.2,650.765 4813.2,733.399"
     id="polyline260"
     transform="translate(-305.41636,-348.978)" />
  <polyline
     class="Stem"
     fill="none"
     stroke="#000000"
     stroke-width="2.48"
     stroke-linejoin="bevel"
     points="5999.62,638.365 5999.62,720.999"
     id="polyline262"
     transform="translate(-305.41636,-348.978)" />
  <polyline
     class="Stem"
     fill="none"
     stroke="#000000"
     stroke-width="2.48"
     stroke-linejoin="bevel"
     points="1039.62,638.365 1039.62,720.999"
     id="polyline264"
     transform="translate(-305.41636,-348.978)" />
  <polyline
     class="Stem"
     fill="none"
     stroke="#000000"
     stroke-width="2.48"
     stroke-linejoin="bevel"
     points="5007.62,638.365 5007.62,720.999"
     id="polyline266"
     transform="translate(-305.41636,-348.978)" />
  <polyline
     class="Stem"
     fill="none"
     stroke="#000000"
     stroke-width="2.48"
     stroke-linejoin="bevel"
     points="2031.62,638.365 2031.62,720.999"
     id="polyline268"
     transform="translate(-305.41636,-348.978)" />
  <polyline
     class="Stem"
     fill="none"
     stroke="#000000"
     stroke-width="2.48"
     stroke-linejoin="bevel"
     points="6495.62,650.765 6495.62,733.399"
     id="polyline270"
     transform="translate(-305.41636,-348.978)" />
  <polyline
     class="Stem"
     fill="none"
     stroke="#000000"
     stroke-width="2.48"
     stroke-linejoin="bevel"
     points="6991.62,663.165 6991.62,745.799"
     id="polyline272"
     transform="translate(-305.41636,-348.978)" />
  <polyline
     class="Stem"
     fill="none"
     stroke="#000000"
     stroke-width="2.48"
     stroke-linejoin="bevel"
     points="5503.62,625.965 5503.62,708.599"
     id="polyline274"
     transform="translate(-305.41636,-348.978)" />
  <polyline
     class="Stem"
     fill="none"
     stroke="#000000"
     stroke-width="2.48"
     stroke-linejoin="bevel"
     points="1535.62,625.965 1535.62,708.599"
     id="polyline276"
     transform="translate(-305.41636,-348.978)" />
  <polyline
     class="Stem"
     fill="none"
     stroke="#000000"
     stroke-width="2.48"
     stroke-linejoin="bevel"
     points="8314.29,675.565 8314.29,758.199"
     id="polyline278"
     transform="translate(-305.41636,-348.978)" />
  <polyline
     class="Stem"
     fill="none"
     stroke="#000000"
     stroke-width="2.48"
     stroke-linejoin="bevel"
     points="7983.63,638.365 7983.63,720.999"
     id="polyline280"
     transform="translate(-305.41636,-348.978)" />
  <polyline
     class="Stem"
     fill="none"
     stroke="#000000"
     stroke-width="2.48"
     stroke-linejoin="bevel"
     points="4015.62,638.365 4015.62,720.999"
     id="polyline282"
     transform="translate(-305.41636,-348.978)" />
  <polyline
     class="Stem"
     fill="none"
     stroke="#000000"
     stroke-width="2.48"
     stroke-linejoin="bevel"
     points="543.617,663.165 543.617,745.799"
     id="polyline284"
     transform="translate(-305.41636,-348.978)" />
  <polyline
     class="Stem"
     fill="none"
     stroke="#000000"
     stroke-width="2.48"
     stroke-linejoin="bevel"
     points="3023.62,663.165 3023.62,745.799"
     id="polyline286"
     transform="translate(-305.41636,-348.978)" />
  <polyline
     class="Stem"
     fill="none"
     stroke="#000000"
     stroke-width="2.48"
     stroke-linejoin="bevel"
     points="4180.95,650.765 4180.95,733.399"
     id="polyline288"
     transform="translate(-305.41636,-348.978)" />
  <polyline
     class="Stem"
     fill="none"
     stroke="#000000"
     stroke-width="2.48"
     stroke-linejoin="bevel"
     points="3521,613.565 3521,696.199"
     id="polyline290"
     transform="translate(-305.41636,-348.978)" />
  <polyline
     class="Stem"
     fill="none"
     stroke="#000000"
     stroke-width="2.48"
     stroke-linejoin="bevel"
     points="4346.29,675.565 4346.29,758.199"
     id="polyline292"
     transform="translate(-305.41636,-348.978)" />
  <polyline
     class="Stem"
     fill="none"
     stroke="#000000"
     stroke-width="2.48"
     stroke-linejoin="bevel"
     points="7789.48,663.165 7789.48,745.799"
     id="polyline294"
     transform="translate(-305.41636,-348.978)" />
  <polyline
     class="Stem"
     fill="none"
     stroke="#000000"
     stroke-width="2.48"
     stroke-linejoin="bevel"
     points="8148.96,650.765 8148.96,733.399"
     id="polyline296"
     transform="translate(-305.41636,-348.978)" />
  <polyline
     class="Stem"
     fill="none"
     stroke="#000000"
     stroke-width="2.48"
     stroke-linejoin="bevel"
     points="3821.48,663.165 3821.48,745.799"
     id="polyline298"
     transform="translate(-305.41636,-348.978)" />
  <polyline
     class="Stem"
     fill="none"
     stroke="#000000"
     stroke-width="2.48"
     stroke-linejoin="bevel"
     points="4511.62,663.165 4511.62,745.799"
     id="polyline300"
     transform="translate(-305.41636,-348.978)" />
  <polyline
     class="Stem"
     fill="none"
     stroke="#000000"
     stroke-width="2.48"
     stroke-linejoin="bevel"
     points="7489.01,613.565 7489.01,696.199"
     id="polyline302"
     transform="translate(-305.41636,-348.978)" />
  <polyline
     class="Stem"
     fill="none"
     stroke="#000000"
     stroke-width="2.48"
     stroke-linejoin="bevel"
     points="845.198,650.765 845.198,733.399"
     id="polyline304"
     transform="translate(-305.41636,-348.978)" />
  <polyline
     class="Stem"
     fill="none"
     stroke="#000000"
     stroke-width="2.48"
     stroke-linejoin="bevel"
     points="8479.63,663.165 8479.63,745.799"
     id="polyline306"
     transform="translate(-305.41636,-348.978)" />
  <polyline
     class="Stem"
     fill="none"
     stroke="#000000"
     stroke-width="2.48"
     stroke-linejoin="bevel"
     points="7639.24,638.365 7639.24,720.999"
     id="polyline308"
     transform="translate(-305.41636,-348.978)" />
  <path
     class="Note"
     d="m 6188.9636,78.590509 c 0,4.2625 3.069,9.021029 11.1135,9.021029 10.3076,0 21.1266,-8.432028 21.1266,-17.158542 0,-5.859006 -4.96,-9.129484 -11.1135,-9.129484 -9.6255,0 -21.1266,8.137483 -21.1266,17.266997"
     id="path310"
     style="stroke-width:0.992001" />
  <path
     class="Note"
     d="m 8194.1002,98.523512 c -9.6255,0 -21.1266,8.044478 -21.1266,17.266998 0,4.2625 3.069,9.02103 11.1135,9.02103 10.3076,0 21.1266,-8.43203 21.1266,-17.15854 0,-5.85901 -4.96,-9.129488 -11.1135,-9.129488 m -2.6815,17.468488 c -0.2945,0.186 -7.533,4.15401 -11.0051,4.15401 -3.2704,0 -3.968,-2.666 -3.968,-3.56501 0,-4.1695 9.9201,-9.021 10.3231,-9.22251 0.3875,-0.20149 7.44,-4.1695 11.005,-4.1695 2.387,0 3.968,1.395 3.968,3.56501 0,4.278 -10.013,9.03651 -10.323,9.238"
     id="path312"
     style="stroke-width:0.992001" />
  <path
     class="Note"
     d="m 7863.4302,86.123512 c -9.6255,0 -21.1266,8.044483 -21.1266,17.266998 0,4.2625 3.069,9.02103 11.1135,9.02103 10.3076,0 21.1266,-8.43203 21.1266,-17.158544 0,-5.859006 -4.96,-9.129484 -11.1135,-9.129484 m -2.6815,17.468488 c -0.2945,0.186 -7.533,4.15401 -11.0051,4.15401 -3.2704,0 -3.968,-2.666 -3.968,-3.565 0,-4.16951 9.9201,-9.021014 10.3231,-9.222519 0.3875,-0.201495 7.44,-4.169499 11.005,-4.169499 2.387,0 3.968,1.395001 3.968,3.565003 0,4.278004 -10.013,9.036515 -10.323,9.238005"
     id="path314"
     style="stroke-width:0.992001" />
  <path
     class="Note"
     d="m 1530.5436,53.790509 c 0,4.262499 3.069,9.021029 11.1135,9.021029 10.3076,0 21.1266,-8.432028 21.1266,-17.158542 0,-5.859006 -4.96,-9.129484 -11.1135,-9.129484 -9.6255,0 -21.1266,8.137483 -21.1266,17.266997"
     id="path316"
     style="stroke-width:0.992001" />
  <path
     class="Note"
     d="m 1228.9636,53.790509 c 0,4.262499 3.069,9.021029 11.1135,9.021029 10.3076,0 21.1266,-8.432028 21.1266,-17.158542 0,-5.859006 -4.96,-9.129484 -11.1135,-9.129484 -9.6255,0 -21.1266,8.137483 -21.1266,17.266997"
     id="path318"
     style="stroke-width:0.992001" />
  <path
     class="Note"
     d="m 6339.7536,66.190509 c 0,4.262499 3.069,9.021029 11.1135,9.021029 10.3076,0 21.1266,-8.432028 21.1266,-17.158542 0,-5.859006 -4.96,-9.129484 -11.1135,-9.129484 -9.6255,0 -21.1266,8.137483 -21.1266,17.266997"
     id="path320"
     style="stroke-width:0.992001" />
  <path
     class="Note"
     d="m 1379.7536,78.590509 c 0,4.2625 3.069,9.021029 11.1135,9.021029 10.3076,0 21.1266,-8.432028 21.1266,-17.158542 0,-5.859006 -4.96,-9.129484 -11.1135,-9.129484 -9.6255,0 -21.1266,8.137483 -21.1266,17.266997"
     id="path322"
     style="stroke-width:0.992001" />
  <path
     class="Note"
     d="m 6023.6336,115.79051 c 0,4.2625 3.069,9.02103 11.1135,9.02103 10.3076,0 21.1266,-8.43203 21.1266,-17.15854 0,-5.85901 -4.96,-9.129488 -11.1135,-9.129488 -9.6255,0 -21.1266,8.137478 -21.1266,17.266998"
     id="path324"
     style="stroke-width:0.992001" />
  <path
     class="Note"
     d="m 1455.1436,66.190509 c 0,4.262499 3.069,9.021029 11.1135,9.021029 10.3076,0 21.1266,-8.432028 21.1266,-17.158542 0,-5.859006 -4.96,-9.129484 -11.1135,-9.129484 -9.6255,0 -21.1266,8.137483 -21.1266,17.266997"
     id="path326"
     style="stroke-width:0.992001" />
  <path
     class="Note"
     d="m 5858.3036,115.79051 c 0,4.2625 3.069,9.02103 11.1135,9.02103 10.3076,0 21.1266,-8.43203 21.1266,-17.15854 0,-5.85901 -4.96,-9.129488 -11.1135,-9.129488 -9.6255,0 -21.1266,8.137478 -21.1266,17.266998"
     id="path328"
     style="stroke-width:0.992001" />
  <path
     class="Note"
     d="m 236.96064,66.190509 c 0,4.262499 3.069,9.021029 11.11349,9.021029 10.30758,0 21.12654,-8.432028 21.12654,-17.158542 0,-5.859006 -4.96,-9.129484 -11.11348,-9.129484 -9.62549,0 -21.12655,8.137483 -21.12655,17.266997"
     id="path330"
     style="stroke-width:0.992001" />
  <path
     class="Note"
     d="m 6415.1536,78.590509 c 0,4.2625 3.069,9.021029 11.1135,9.021029 10.3076,0 21.1266,-8.432028 21.1266,-17.158542 0,-5.859006 -4.96,-9.129484 -11.1135,-9.129484 -9.6255,0 -21.1266,8.137483 -21.1266,17.266997"
     id="path332"
     style="stroke-width:0.992001" />
  <path
     class="Note"
     d="m 1605.9336,41.390509 c 0,4.2625 3.069,9.021029 11.1135,9.021029 10.3076,0 21.1266,-8.432028 21.1266,-17.158542 0,-5.859006 -4.96,-9.129484 -11.1135,-9.129484 -9.6255,0 -21.1266,8.137483 -21.1266,17.266997"
     id="path334"
     style="stroke-width:0.992001" />
  <path
     class="Note"
     d="m 6911.1536,90.990509 c 0,4.262499 3.069,9.021031 11.1135,9.021031 10.3076,0 21.1266,-8.43203 21.1266,-17.158544 0,-5.859006 -4.96,-9.129484 -11.1135,-9.129484 -9.6255,0 -21.1266,8.137483 -21.1266,17.266997"
     id="path336"
     style="stroke-width:0.992001" />
  <path
     class="Note"
     d="m 7182.3536,128.19051 c 0,4.2625 3.069,9.02103 11.1135,9.02103 10.3076,0 21.1266,-8.43203 21.1266,-17.15854 0,-5.85901 -4.96,-9.12949 -11.1135,-9.12949 -9.6255,0 -21.1266,8.13748 -21.1266,17.267"
     id="path338"
     style="stroke-width:0.992001" />
  <path
     class="Note"
     d="m 613.93664,78.590509 c 0,4.2625 3.069,9.021029 11.11349,9.021029 10.30758,0 21.12654,-8.432028 21.12654,-17.158542 0,-5.859006 -4.96,-9.129484 -11.11348,-9.129484 -9.62549,0 -21.12655,8.137483 -21.12655,17.266997"
     id="path340"
     style="stroke-width:0.992001" />
  <path
     class="Note"
     d="m 732.96364,66.190509 c 0,4.262499 3.069,9.021029 11.11349,9.021029 10.30758,0 21.12654,-8.432028 21.12654,-17.158542 0,-5.859006 -4.96,-9.129484 -11.11348,-9.129484 -9.62549,0 -21.12655,8.137483 -21.12655,17.266997"
     id="path342"
     style="stroke-width:0.992001" />
  <path
     class="Note"
     d="m 7332.5836,115.79051 c 0,4.2625 3.069,9.02103 11.1135,9.02103 10.3076,0 21.1266,-8.43203 21.1266,-17.15854 0,-5.85901 -4.96,-9.129488 -11.1135,-9.129488 -9.6255,0 -21.1266,8.137478 -21.1266,17.266998"
     id="path344"
     style="stroke-width:0.992001" />
  <path
     class="Note"
     d="m 538.54164,90.990509 c 0,4.262499 3.069,9.021031 11.11349,9.021031 10.30758,0 21.12654,-8.43203 21.12654,-17.158544 0,-5.859006 -4.96,-9.129484 -11.11348,-9.129484 -9.62549,0 -21.12655,8.137483 -21.12655,17.266997"
     id="path346"
     style="stroke-width:0.992001" />
  <path
     class="Note"
     d="m 7061.9436,115.79051 c 0,4.2625 3.069,9.02103 11.1135,9.02103 10.3076,0 21.1266,-8.43203 21.1266,-17.15854 0,-5.85901 -4.96,-9.129488 -11.1135,-9.129488 -9.6255,0 -21.1266,8.137478 -21.1266,17.266998"
     id="path348"
     style="stroke-width:0.992001" />
  <path
     class="Note"
     d="m 6986.5536,103.39051 c 0,4.2625 3.069,9.02103 11.1135,9.02103 10.3076,0 21.1266,-8.43203 21.1266,-17.158544 0,-5.859006 -4.96,-9.129484 -11.1135,-9.129484 -9.6255,0 -21.1266,8.137483 -21.1266,17.266998"
     id="path350"
     style="stroke-width:0.992001" />
  <path
     class="Note"
     d="m 7407.7036,103.39051 c 0,4.2625 3.069,9.02103 11.1135,9.02103 10.3076,0 21.1266,-8.43203 21.1266,-17.158544 0,-5.859006 -4.96,-9.129484 -11.1135,-9.129484 -9.6255,0 -21.1266,8.137483 -21.1266,17.266998"
     id="path352"
     style="stroke-width:0.992001" />
  <path
     class="Note"
     d="m 7482.8236,90.990509 c 0,4.262499 3.069,9.021031 11.1135,9.021031 10.3076,0 21.1266,-8.43203 21.1266,-17.158544 0,-5.859006 -4.96,-9.129484 -11.1135,-9.129484 -9.6255,0 -21.1266,8.137483 -21.1266,17.266997"
     id="path354"
     style="stroke-width:0.992001" />
  <path
     class="Note"
     d="m 6490.5536,90.990509 c 0,4.262499 3.069,9.021031 11.1135,9.021031 10.3076,0 21.1266,-8.43203 21.1266,-17.158544 0,-5.859006 -4.96,-9.129484 -11.1135,-9.129484 -9.6255,0 -21.1266,8.137483 -21.1266,17.266997"
     id="path356"
     style="stroke-width:0.992001" />
  <path
     class="Note"
     d="m 898.29364,115.79051 c 0,4.2625 3.069,9.02103 11.11349,9.02103 10.30758,0 21.12654,-8.43203 21.12654,-17.15854 0,-5.85901 -4.96,-9.129488 -11.11348,-9.129488 -9.62549,0 -21.12655,8.137478 -21.12655,17.266998"
     id="path358"
     style="stroke-width:0.992001" />
  <path
     class="Note"
     d="m 6835.7636,78.590509 c 0,4.2625 3.069,9.021029 11.1135,9.021029 10.3076,0 21.1266,-8.432028 21.1266,-17.158542 0,-5.859006 -4.96,-9.129484 -11.1135,-9.129484 -9.6255,0 -21.1266,8.137483 -21.1266,17.266997"
     id="path360"
     style="stroke-width:0.992001" />
  <path
     class="Note"
     d="m 463.14564,103.39051 c 0,4.2625 3.069,9.02103 11.11349,9.02103 10.30758,0 21.12654,-8.43203 21.12654,-17.158544 0,-5.859006 -4.96,-9.129484 -11.11348,-9.129484 -9.62549,0 -21.12655,8.137483 -21.12655,17.266998"
     id="path362"
     style="stroke-width:0.992001" />
  <path
     class="Note"
     d="m 6684.9636,90.990509 c 0,4.262499 3.069,9.021031 11.1135,9.021031 10.3076,0 21.1266,-8.43203 21.1266,-17.158544 0,-5.859006 -4.96,-9.129484 -11.1135,-9.129484 -9.6255,0 -21.1266,8.137483 -21.1266,17.266997"
     id="path364"
     style="stroke-width:0.992001" />
  <path
     class="Note"
     d="m 7557.9436,115.79051 c 0,4.2625 3.069,9.02103 11.1135,9.02103 10.3076,0 21.1266,-8.43203 21.1266,-17.15854 0,-5.85901 -4.96,-9.129488 -11.1135,-9.129488 -9.6255,0 -21.1266,8.137478 -21.1266,17.266998"
     id="path366"
     style="stroke-width:0.992001" />
  <path
     class="Note"
     d="m 1063.6236,115.79051 c 0,4.2625 3.069,9.02103 11.1135,9.02103 10.3076,0 21.1266,-8.43203 21.1266,-17.15854 0,-5.85901 -4.96,-9.129488 -11.1135,-9.129488 -9.6255,0 -21.1266,8.137478 -21.1266,17.266998"
     id="path368"
     style="stroke-width:0.992001" />
  <path
     class="Note"
     d="m 387.75064,115.79051 c 0,4.2625 3.069,9.02103 11.11349,9.02103 10.30758,0 21.12654,-8.43203 21.12654,-17.15854 0,-5.85901 -4.96,-9.129488 -11.11348,-9.129488 -9.62549,0 -21.12655,8.137478 -21.12655,17.266998"
     id="path370"
     style="stroke-width:0.992001" />
  <path
     class="Note"
     d="m 7676.9736,90.990509 c 0,4.262499 3.069,9.021031 11.1135,9.021031 10.3076,0 21.1266,-8.43203 21.1266,-17.158544 0,-5.859006 -4.96,-9.129484 -11.1135,-9.129484 -9.6255,0 -21.1266,8.137483 -21.1266,17.266997"
     id="path372"
     style="stroke-width:0.992001" />
  <path
     class="Note"
     d="m 6565.9436,103.39051 c 0,4.2625 3.069,9.02103 11.1135,9.02103 10.3076,0 21.1266,-8.43203 21.1266,-17.158544 0,-5.859006 -4.96,-9.129484 -11.1135,-9.129484 -9.6255,0 -21.1266,8.137483 -21.1266,17.266998"
     id="path374"
     style="stroke-width:0.992001" />
  <path
     class="Note"
     d="m 2447.1436,78.590509 c 0,4.2625 3.069,9.021029 11.1135,9.021029 10.3076,0 21.1266,-8.432028 21.1266,-17.158542 0,-5.859006 -4.96,-9.129484 -11.1135,-9.129484 -9.6255,0 -21.1266,8.137483 -21.1266,17.266997"
     id="path376"
     style="stroke-width:0.992001" />
  <path
     class="Note"
     d="m 2943.1536,90.990509 c 0,4.262499 3.069,9.021031 11.1135,9.021031 10.3076,0 21.1266,-8.43203 21.1266,-17.158544 0,-5.859006 -4.96,-9.129484 -11.1135,-9.129484 -9.6255,0 -21.1266,8.137483 -21.1266,17.266997"
     id="path378"
     style="stroke-width:0.992001" />
  <path
     class="Note"
     d="m 2867.7536,78.590509 c 0,4.2625 3.069,9.021029 11.1135,9.021029 10.3076,0 21.1266,-8.432028 21.1266,-17.158542 0,-5.859006 -4.96,-9.129484 -11.1135,-9.129484 -9.6255,0 -21.1266,8.137483 -21.1266,17.266997"
     id="path380"
     style="stroke-width:0.992001" />
  <path
     class="Note"
     d="m 4204.9636,66.190509 c 0,4.262499 3.069,9.021029 11.1135,9.021029 10.3076,0 21.1266,-8.432028 21.1266,-17.158542 0,-5.859006 -4.96,-9.129484 -11.1135,-9.129484 -9.6255,0 -21.1266,8.137483 -21.1266,17.266997"
     id="path382"
     style="stroke-width:0.992001" />
  <path
     class="Note"
     d="m 2371.7536,66.190509 c 0,4.262499 3.069,9.021029 11.1135,9.021029 10.3076,0 21.1266,-8.432028 21.1266,-17.158542 0,-5.859006 -4.96,-9.129484 -11.1135,-9.129484 -9.6255,0 -21.1266,8.137483 -21.1266,17.266997"
     id="path384"
     style="stroke-width:0.992001" />
  <path
     class="Note"
     d="m 3439.7036,103.39051 c 0,4.2625 3.069,9.02103 11.1135,9.02103 10.3076,0 21.1266,-8.43203 21.1266,-17.158544 0,-5.859006 -4.96,-9.129484 -11.1135,-9.129484 -9.6255,0 -21.1266,8.137483 -21.1266,17.266998"
     id="path386"
     style="stroke-width:0.992001" />
  <path
     class="Note"
     d="m 3514.8236,90.990509 c 0,4.262499 3.069,9.021031 11.1135,9.021031 10.3076,0 21.1266,-8.43203 21.1266,-17.158544 0,-5.859006 -4.96,-9.129484 -11.1135,-9.129484 -9.6255,0 -21.1266,8.137483 -21.1266,17.266997"
     id="path388"
     style="stroke-width:0.992001" />
  <path
     class="Note"
     d="m 5031.6336,115.79051 c 0,4.2625 3.069,9.02103 11.1135,9.02103 10.3076,0 21.1266,-8.43203 21.1266,-17.15854 0,-5.85901 -4.96,-9.129488 -11.1135,-9.129488 -9.6255,0 -21.1266,8.137478 -21.1266,17.266998"
     id="path390"
     style="stroke-width:0.992001" />
  <path
     class="Note"
     d="m 4866.3036,115.79051 c 0,4.2625 3.069,9.02103 11.1135,9.02103 10.3076,0 21.1266,-8.43203 21.1266,-17.15854 0,-5.85901 -4.96,-9.129488 -11.1135,-9.129488 -9.6255,0 -21.1266,8.137478 -21.1266,17.266998"
     id="path392"
     style="stroke-width:0.992001" />
  <path
     class="Note"
     d="m 3214.3436,128.19051 c 0,4.2625 3.069,9.02103 11.1135,9.02103 10.3076,0 21.1266,-8.43203 21.1266,-17.15854 0,-5.85901 -4.96,-9.12949 -11.1135,-9.12949 -9.6255,0 -21.1266,8.13748 -21.1266,17.267"
     id="path394"
     style="stroke-width:0.992001" />
  <path
     class="Note"
     d="m 5196.9636,53.790509 c 0,4.262499 3.069,9.021029 11.1135,9.021029 10.3076,0 21.1266,-8.432028 21.1266,-17.158542 0,-5.859006 -4.96,-9.129484 -11.1135,-9.129484 -9.6255,0 -21.1266,8.137483 -21.1266,17.266997"
     id="path396"
     style="stroke-width:0.992001" />
  <path
     class="Note"
     d="m 3589.9436,115.79051 c 0,4.2625 3.069,9.02103 11.1135,9.02103 10.3076,0 21.1266,-8.43203 21.1266,-17.15854 0,-5.85901 -4.96,-9.129488 -11.1135,-9.129488 -9.6255,0 -21.1266,8.137478 -21.1266,17.266998"
     id="path398"
     style="stroke-width:0.992001" />
  <path
     class="Note"
     d="m 4355.7536,115.79051 c 0,4.2625 3.069,9.02103 11.1135,9.02103 10.3076,0 21.1266,-8.43203 21.1266,-17.15854 0,-5.85901 -4.96,-9.129488 -11.1135,-9.129488 -9.6255,0 -21.1266,8.137478 -21.1266,17.266998"
     id="path400"
     style="stroke-width:0.992001" />
  <path
     class="Note"
     d="m 4700.9636,66.190509 c 0,4.262499 3.069,9.021029 11.1135,9.021029 10.3076,0 21.1266,-8.432028 21.1266,-17.158542 0,-5.859006 -4.96,-9.129484 -11.1135,-9.129484 -9.6255,0 -21.1266,8.137483 -21.1266,17.266997"
     id="path402"
     style="stroke-width:0.992001" />
  <path
     class="Note"
     d="m 2522.5436,90.990509 c 0,4.262499 3.069,9.021031 11.1135,9.021031 10.3076,0 21.1266,-8.43203 21.1266,-17.158544 0,-5.859006 -4.96,-9.129484 -11.1135,-9.129484 -9.6255,0 -21.1266,8.137483 -21.1266,17.266997"
     id="path404"
     style="stroke-width:0.992001" />
  <path
     class="Note"
     d="m 2597.9436,103.39051 c 0,4.2625 3.069,9.02103 11.1135,9.02103 10.3076,0 21.1266,-8.43203 21.1266,-17.158544 0,-5.859006 -4.96,-9.129484 -11.1135,-9.129484 -9.6255,0 -21.1266,8.137483 -21.1266,17.266998"
     id="path406"
     style="stroke-width:0.992001" />
  <path
     class="Note"
     d="m 4581.9436,78.590509 c 0,4.2625 3.069,9.021029 11.1135,9.021029 10.3076,0 21.1266,-8.432028 21.1266,-17.158542 0,-5.859006 -4.96,-9.129484 -11.1135,-9.129484 -9.6255,0 -21.1266,8.137483 -21.1266,17.266997"
     id="path408"
     style="stroke-width:0.992001" />
  <path
     class="Note"
     d="m 2716.9636,90.990509 c 0,4.262499 3.069,9.021031 11.1135,9.021031 10.3076,0 21.1266,-8.43203 21.1266,-17.158544 0,-5.859006 -4.96,-9.129484 -11.1135,-9.129484 -9.6255,0 -21.1266,8.137483 -21.1266,17.266997"
     id="path410"
     style="stroke-width:0.992001" />
  <path
     class="Note"
     d="m 4506.5436,90.990509 c 0,4.262499 3.069,9.021031 11.1135,9.021031 10.3076,0 21.1266,-8.43203 21.1266,-17.158544 0,-5.859006 -4.96,-9.129484 -11.1135,-9.129484 -9.6255,0 -21.1266,8.137483 -21.1266,17.266997"
     id="path412"
     style="stroke-width:0.992001" />
  <path
     class="Note"
     d="m 4431.1536,103.39051 c 0,4.2625 3.069,9.02103 11.1135,9.02103 10.3076,0 21.1266,-8.43203 21.1266,-17.158544 0,-5.859006 -4.96,-9.129484 -11.1135,-9.129484 -9.6255,0 -21.1266,8.137483 -21.1266,17.266998"
     id="path414"
     style="stroke-width:0.992001" />
  <path
     class="Note"
     d="m 3093.9436,115.79051 c 0,4.2625 3.069,9.02103 11.1135,9.02103 10.3076,0 21.1266,-8.43203 21.1266,-17.15854 0,-5.85901 -4.96,-9.129488 -11.1135,-9.129488 -9.6255,0 -21.1266,8.137478 -21.1266,17.266998"
     id="path416"
     style="stroke-width:0.992001" />
  <path
     class="Note"
     d="m 3708.9636,90.990509 c 0,4.262499 3.069,9.021031 11.1135,9.021031 10.3076,0 21.1266,-8.43203 21.1266,-17.158544 0,-5.859006 -4.96,-9.129484 -11.1135,-9.129484 -9.6255,0 -21.1266,8.137483 -21.1266,17.266997"
     id="path418"
     style="stroke-width:0.992001" />
  <path
     class="Note"
     d="m 5692.9636,28.990509 c 0,4.262499 3.069,9.021029 11.1135,9.021029 10.3076,0 21.1266,-8.432028 21.1266,-17.158542 0,-5.859006 -4.96,-9.129484 -11.1135,-9.129484 -9.6255,0 -21.1266,8.137483 -21.1266,17.266997"
     id="path420"
     style="stroke-width:0.992001" />
  <path
     class="Note"
     d="m 1724.9636,28.990509 c 0,4.262499 3.069,9.021029 11.1135,9.021029 10.3076,0 21.1266,-8.432028 21.1266,-17.158542 0,-5.859006 -4.96,-9.129484 -11.1135,-9.129484 -9.6255,0 -21.1266,8.137483 -21.1266,17.266997"
     id="path422"
     style="stroke-width:0.992001" />
  <path
     class="Note"
     d="m 3018.5436,103.39051 c 0,4.2625 3.069,9.02103 11.1135,9.02103 10.3076,0 21.1266,-8.43203 21.1266,-17.158544 0,-5.859006 -4.96,-9.129484 -11.1135,-9.129484 -9.6255,0 -21.1266,8.137483 -21.1266,17.266998"
     id="path424"
     style="stroke-width:0.992001" />
  <path
     class="Note"
     d="m 1890.2936,115.79051 c 0,4.2625 3.069,9.02103 11.1135,9.02103 10.3076,0 21.1266,-8.43203 21.1266,-17.15854 0,-5.85901 -4.96,-9.129488 -11.1135,-9.129488 -9.6255,0 -21.1266,8.137478 -21.1266,17.266998"
     id="path426"
     style="stroke-width:0.992001" />
  <path
     class="Note"
     d="m 5573.9436,41.390509 c 0,4.2625 3.069,9.021029 11.1135,9.021029 10.3076,0 21.1266,-8.432028 21.1266,-17.158542 0,-5.859006 -4.96,-9.129484 -11.1135,-9.129484 -9.6255,0 -21.1266,8.137483 -21.1266,17.266997"
     id="path428"
     style="stroke-width:0.992001" />
  <path
     class="Note"
     d="m 5498.5436,53.790509 c 0,4.262499 3.069,9.021029 11.1135,9.021029 10.3076,0 21.1266,-8.432028 21.1266,-17.158542 0,-5.859006 -4.96,-9.129484 -11.1135,-9.129484 -9.6255,0 -21.1266,8.137483 -21.1266,17.266997"
     id="path430"
     style="stroke-width:0.992001" />
  <path
     class="Note"
     d="m 3895.4202,86.123512 c -9.6255,0 -21.1266,8.044483 -21.1266,17.266998 0,4.2625 3.069,9.02103 11.1135,9.02103 10.3076,0 21.1266,-8.43203 21.1266,-17.158544 0,-5.859006 -4.96,-9.129484 -11.1135,-9.129484 m -2.6815,17.468488 c -0.2945,0.186 -7.533,4.15401 -11.0051,4.15401 -3.2704,0 -3.968,-2.666 -3.968,-3.565 0,-4.16951 9.9201,-9.021014 10.3231,-9.222519 0.3875,-0.201495 7.44,-4.169499 11.005,-4.169499 2.387,0 3.968,1.395001 3.968,3.565003 0,4.278004 -10.013,9.036515 -10.323,9.238005"
     id="path432"
     style="stroke-width:0.992001" />
  <path
     class="Note"
     d="m 2055.6336,115.79051 c 0,4.2625 3.069,9.02103 11.1135,9.02103 10.3076,0 21.1266,-8.43203 21.1266,-17.15854 0,-5.85901 -4.96,-9.129488 -11.1135,-9.129488 -9.6255,0 -21.1266,8.137478 -21.1266,17.266998"
     id="path434"
     style="stroke-width:0.992001" />
  <path
     class="Note"
     d="m 3364.5836,115.79051 c 0,4.2625 3.069,9.02103 11.1135,9.02103 10.3076,0 21.1266,-8.43203 21.1266,-17.15854 0,-5.85901 -4.96,-9.129488 -11.1135,-9.129488 -9.6255,0 -21.1266,8.137478 -21.1266,17.266998"
     id="path436"
     style="stroke-width:0.992001" />
  <path
     class="Note"
     d="m 5423.1536,66.190509 c 0,4.262499 3.069,9.021029 11.1135,9.021029 10.3076,0 21.1266,-8.432028 21.1266,-17.158542 0,-5.859006 -4.96,-9.129484 -11.1135,-9.129484 -9.6255,0 -21.1266,8.137483 -21.1266,17.266997"
     id="path438"
     style="stroke-width:0.992001" />
  <path
     class="Note"
     d="m 5347.7536,78.590509 c 0,4.2625 3.069,9.021029 11.1135,9.021029 10.3076,0 21.1266,-8.432028 21.1266,-17.158542 0,-5.859006 -4.96,-9.129484 -11.1135,-9.129484 -9.6255,0 -21.1266,8.137483 -21.1266,17.266997"
     id="path440"
     style="stroke-width:0.992001" />
  <path
     class="Note"
     d="m 2220.9636,78.590509 c 0,4.2625 3.069,9.021029 11.1135,9.021029 10.3076,0 21.1266,-8.432028 21.1266,-17.158542 0,-5.859006 -4.96,-9.129484 -11.1135,-9.129484 -9.6255,0 -21.1266,8.137483 -21.1266,17.266997"
     id="path442"
     style="stroke-width:0.992001" />
  <path
     class="Note"
     d="m 3874.2936,301.79051 c 0,4.2625 3.069,9.02103 11.1135,9.02103 10.3076,0 21.1266,-8.43203 21.1266,-17.15854 0,-5.85901 -4.96,-9.12949 -11.1135,-9.12949 -9.6255,0 -21.1266,8.13748 -21.1266,17.267"
     id="path444"
     style="stroke-width:0.992001" />
  <path
     class="Note"
     d="m 7332.5836,289.39051 c 0,4.2625 3.069,9.02103 11.1135,9.02103 10.3076,0 21.1266,-8.43203 21.1266,-17.15854 0,-5.85901 -4.96,-9.12949 -11.1135,-9.12949 -9.6255,0 -21.1266,8.13748 -21.1266,17.267"
     id="path446"
     style="stroke-width:0.992001" />
  <path
     class="Note"
     d="m 7482.8236,314.19051 c 0,4.2625 3.069,9.02103 11.1135,9.02103 10.3076,0 21.1266,-8.43203 21.1266,-17.15854 0,-5.85901 -4.96,-9.12949 -11.1135,-9.12949 -9.6255,0 -21.1266,8.13748 -21.1266,17.267"
     id="path448"
     style="stroke-width:0.992001" />
  <path
     class="Note"
     d="m 4039.6336,326.59051 c 0,4.2625 3.069,9.02103 11.1135,9.02103 10.3076,0 21.1266,-8.43203 21.1266,-17.15854 0,-5.85901 -4.96,-9.12949 -11.1135,-9.12949 -9.6255,0 -21.1266,8.13749 -21.1266,17.267"
     id="path450"
     style="stroke-width:0.992001" />
  <path
     class="Note"
     d="m 4226.0902,296.92351 c -9.6255,0 -21.1266,8.04448 -21.1266,17.267 0,4.2625 3.069,9.02103 11.1135,9.02103 10.3076,0 21.1266,-8.43203 21.1266,-17.15854 0,-5.85901 -4.96,-9.12949 -11.1135,-9.12949 m -2.6815,17.46849 c -0.2945,0.186 -7.533,4.15401 -11.0051,4.15401 -3.2704,0 -3.968,-2.666 -3.968,-3.565 0,-4.16951 9.9201,-9.02101 10.3231,-9.22252 0.3875,-0.20149 7.44,-4.1695 11.005,-4.1695 2.387,0 3.968,1.395 3.968,3.56501 0,4.278 -10.013,9.03651 -10.323,9.238"
     id="path452"
     style="stroke-width:0.992001" />
  <path
     class="Note"
     d="m 3214.3436,264.59051 c 0,4.2625 3.069,9.02103 11.1135,9.02103 10.3076,0 21.1266,-8.43203 21.1266,-17.15854 0,-5.85901 -4.96,-9.12949 -11.1135,-9.12949 -9.6255,0 -21.1266,8.13748 -21.1266,17.267"
     id="path454"
     style="stroke-width:0.992001" />
  <path
     class="Note"
     d="m 7182.3536,264.59051 c 0,4.2625 3.069,9.02103 11.1135,9.02103 10.3076,0 21.1266,-8.43203 21.1266,-17.15854 0,-5.85901 -4.96,-9.12949 -11.1135,-9.12949 -9.6255,0 -21.1266,8.13748 -21.1266,17.267"
     id="path456"
     style="stroke-width:0.992001" />
  <path
     class="Note"
     d="m 3708.9636,289.39051 c 0,4.2625 3.069,9.02103 11.1135,9.02103 10.3076,0 21.1266,-8.43203 21.1266,-17.15854 0,-5.85901 -4.96,-9.12949 -11.1135,-9.12949 -9.6255,0 -21.1266,8.13748 -21.1266,17.267"
     id="path458"
     style="stroke-width:0.992001" />
  <path
     class="Note"
     d="m 3514.8236,314.19051 c 0,4.2625 3.069,9.02103 11.1135,9.02103 10.3076,0 21.1266,-8.43203 21.1266,-17.15854 0,-5.85901 -4.96,-9.12949 -11.1135,-9.12949 -9.6255,0 -21.1266,8.13748 -21.1266,17.267"
     id="path460"
     style="stroke-width:0.992001" />
  <path
     class="Note"
     d="m 538.54164,301.79051 c 0,4.2625 3.069,9.02103 11.11349,9.02103 10.30758,0 21.12654,-8.43203 21.12654,-17.15854 0,-5.85901 -4.96,-9.12949 -11.11348,-9.12949 -9.62549,0 -21.12655,8.13748 -21.12655,17.267"
     id="path462"
     style="stroke-width:0.992001" />
  <path
     class="Note"
     d="m 258.08719,296.92351 c -9.62549,0 -21.12655,8.04448 -21.12655,17.267 0,4.2625 3.069,9.02103 11.11349,9.02103 10.30758,0 21.12654,-8.43203 21.12654,-17.15854 0,-5.85901 -4.96,-9.12949 -11.11348,-9.12949 m -2.68148,17.46849 c -0.29453,0.186 -7.53306,4.15401 -11.00506,4.15401 -3.2705,0 -3.968,-2.666 -3.968,-3.565 0,-4.16951 9.92001,-9.02101 10.32306,-9.22252 0.38747,-0.20149 7.44,-4.1695 11.00496,-4.1695 2.38705,0 3.968,1.395 3.968,3.56501 0,4.278 -10.01296,9.03651 -10.32296,9.238"
     id="path464"
     style="stroke-width:0.992001" />
  <path
     class="Note"
     d="m 7676.9736,289.39051 c 0,4.2625 3.069,9.02103 11.1135,9.02103 10.3076,0 21.1266,-8.43203 21.1266,-17.15854 0,-5.85901 -4.96,-9.12949 -11.1135,-9.12949 -9.6255,0 -21.1266,8.13748 -21.1266,17.267"
     id="path466"
     style="stroke-width:0.992001" />
  <path
     class="Note"
     d="m 4506.5436,301.79051 c 0,4.2625 3.069,9.02103 11.1135,9.02103 10.3076,0 21.1266,-8.43203 21.1266,-17.15854 0,-5.85901 -4.96,-9.12949 -11.1135,-9.12949 -9.6255,0 -21.1266,8.13748 -21.1266,17.267"
     id="path468"
     style="stroke-width:0.992001" />
  <path
     class="Note"
     d="m 5714.0902,272.12351 c -9.6255,0 -21.1266,8.04448 -21.1266,17.267 0,4.2625 3.069,9.02103 11.1135,9.02103 10.3076,0 21.1266,-8.43203 21.1266,-17.15854 0,-5.85901 -4.96,-9.12949 -11.1135,-9.12949 m -2.6815,17.46849 c -0.2945,0.186 -7.533,4.15401 -11.0051,4.15401 -3.2704,0 -3.968,-2.666 -3.968,-3.565 0,-4.16951 9.9201,-9.02101 10.3231,-9.22252 0.3875,-0.20149 7.44,-4.1695 11.005,-4.1695 2.387,0 3.968,1.395 3.968,3.56501 0,4.278 -10.013,9.03651 -10.323,9.238"
     id="path470"
     style="stroke-width:0.992001" />
  <path
     class="Note"
     d="m 1746.0902,272.12351 c -9.6255,0 -21.1266,8.04448 -21.1266,17.267 0,4.2625 3.069,9.02103 11.1135,9.02103 10.3076,0 21.1266,-8.43203 21.1266,-17.15854 0,-5.85901 -4.96,-9.12949 -11.1135,-9.12949 m -2.6815,17.46849 c -0.2945,0.186 -7.533,4.15401 -11.0051,4.15401 -3.2704,0 -3.968,-2.666 -3.968,-3.565 0,-4.16951 9.9201,-9.02101 10.3231,-9.22252 0.3875,-0.20149 7.44,-4.1695 11.005,-4.1695 2.387,0 3.968,1.395 3.968,3.56501 0,4.278 -10.013,9.03651 -10.323,9.238"
     id="path472"
     style="stroke-width:0.992001" />
  <path
     class="Note"
     d="m 6210.0902,284.52351 c -9.6255,0 -21.1266,8.04448 -21.1266,17.267 0,4.2625 3.069,9.02103 11.1135,9.02103 10.3076,0 21.1266,-8.43203 21.1266,-17.15854 0,-5.85901 -4.96,-9.12949 -11.1135,-9.12949 m -2.6815,17.46849 c -0.2945,0.186 -7.533,4.15401 -11.0051,4.15401 -3.2704,0 -3.968,-2.666 -3.968,-3.56501 0,-4.1695 9.9201,-9.021 10.3231,-9.22251 0.3875,-0.20149 7.44,-4.1695 11.005,-4.1695 2.387,0 3.968,1.395 3.968,3.56501 0,4.278 -10.013,9.03651 -10.323,9.238"
     id="path474"
     style="stroke-width:0.992001" />
  <path
     class="Note"
     d="m 8194.1002,296.92351 c -9.6255,0 -21.1266,8.04448 -21.1266,17.267 0,4.2625 3.069,9.02103 11.1135,9.02103 10.3076,0 21.1266,-8.43203 21.1266,-17.15854 0,-5.85901 -4.96,-9.12949 -11.1135,-9.12949 m -2.6815,17.46849 c -0.2945,0.186 -7.533,4.15401 -11.0051,4.15401 -3.2704,0 -3.968,-2.666 -3.968,-3.565 0,-4.16951 9.9201,-9.02101 10.3231,-9.22252 0.3875,-0.20149 7.44,-4.1695 11.005,-4.1695 2.387,0 3.968,1.395 3.968,3.56501 0,4.278 -10.013,9.03651 -10.323,9.238"
     id="path476"
     style="stroke-width:0.992001" />
  <path
     class="Note"
     d="m 3364.5836,289.39051 c 0,4.2625 3.069,9.02103 11.1135,9.02103 10.3076,0 21.1266,-8.43203 21.1266,-17.15854 0,-5.85901 -4.96,-9.12949 -11.1135,-9.12949 -9.6255,0 -21.1266,8.13748 -21.1266,17.267"
     id="path478"
     style="stroke-width:0.992001" />
  <path
     class="Note"
     d="m 1250.0902,259.72351 c -9.6255,0 -21.1266,8.04448 -21.1266,17.267 0,4.2625 3.069,9.02103 11.1135,9.02103 10.3076,0 21.1266,-8.43203 21.1266,-17.15854 0,-5.85901 -4.96,-9.12949 -11.1135,-9.12949 m -2.6815,17.46849 c -0.2945,0.186 -7.533,4.15401 -11.0051,4.15401 -3.2704,0 -3.968,-2.666 -3.968,-3.56501 0,-4.1695 9.9201,-9.021 10.3231,-9.22251 0.3875,-0.20149 7.44,-4.1695 11.005,-4.1695 2.387,0 3.968,1.395 3.968,3.56501 0,4.278 -10.013,9.03651 -10.323,9.238"
     id="path480"
     style="stroke-width:0.992001" />
  <path
     class="Note"
     d="m 5218.0902,259.72351 c -9.6255,0 -21.1266,8.04448 -21.1266,17.267 0,4.2625 3.069,9.02103 11.1135,9.02103 10.3076,0 21.1266,-8.43203 21.1266,-17.15854 0,-5.85901 -4.96,-9.12949 -11.1135,-9.12949 m -2.6815,17.46849 c -0.2945,0.186 -7.533,4.15401 -11.0051,4.15401 -3.2704,0 -3.968,-2.666 -3.968,-3.56501 0,-4.1695 9.9201,-9.021 10.3231,-9.22251 0.3875,-0.20149 7.44,-4.1695 11.005,-4.1695 2.387,0 3.968,1.395 3.968,3.56501 0,4.278 -10.013,9.03651 -10.323,9.238"
     id="path482"
     style="stroke-width:0.992001" />
  <path
     class="Note"
     d="m 2242.0902,284.52351 c -9.6255,0 -21.1266,8.04448 -21.1266,17.267 0,4.2625 3.069,9.02103 11.1135,9.02103 10.3076,0 21.1266,-8.43203 21.1266,-17.15854 0,-5.85901 -4.96,-9.12949 -11.1135,-9.12949 m -2.6815,17.46849 c -0.2945,0.186 -7.533,4.15401 -11.0051,4.15401 -3.2704,0 -3.968,-2.666 -3.968,-3.56501 0,-4.1695 9.9201,-9.021 10.3231,-9.22251 0.3875,-0.20149 7.44,-4.1695 11.005,-4.1695 2.387,0 3.968,1.395 3.968,3.56501 0,4.278 -10.013,9.03651 -10.323,9.238"
     id="path484"
     style="stroke-width:0.992001" />
  <path
     class="Note"
     d="m 6706.0902,296.92351 c -9.6255,0 -21.1266,8.04448 -21.1266,17.267 0,4.2625 3.069,9.02103 11.1135,9.02103 10.3076,0 21.1266,-8.43203 21.1266,-17.15854 0,-5.85901 -4.96,-9.12949 -11.1135,-9.12949 m -2.6815,17.46849 c -0.2945,0.186 -7.533,4.15401 -11.0051,4.15401 -3.2704,0 -3.968,-2.666 -3.968,-3.565 0,-4.16951 9.9201,-9.02101 10.3231,-9.22252 0.3875,-0.20149 7.44,-4.1695 11.005,-4.1695 2.387,0 3.968,1.395 3.968,3.56501 0,4.278 -10.013,9.03651 -10.323,9.238"
     id="path486"
     style="stroke-width:0.992001" />
  <path
     class="Note"
     d="m 8007.6336,326.59051 c 0,4.2625 3.069,9.02103 11.1135,9.02103 10.3076,0 21.1266,-8.43203 21.1266,-17.15854 0,-5.85901 -4.96,-9.12949 -11.1135,-9.12949 -9.6255,0 -21.1266,8.13749 -21.1266,17.267"
     id="path488"
     style="stroke-width:0.992001" />
  <path
     class="Note"
     d="m 4722.0902,272.12351 c -9.6255,0 -21.1266,8.04448 -21.1266,17.267 0,4.2625 3.069,9.02103 11.1135,9.02103 10.3076,0 21.1266,-8.43203 21.1266,-17.15854 0,-5.85901 -4.96,-9.12949 -11.1135,-9.12949 m -2.6815,17.46849 c -0.2945,0.186 -7.533,4.15401 -11.0051,4.15401 -3.2704,0 -3.968,-2.666 -3.968,-3.565 0,-4.16951 9.9201,-9.02101 10.3231,-9.22252 0.3875,-0.20149 7.44,-4.1695 11.005,-4.1695 2.387,0 3.968,1.395 3.968,3.56501 0,4.278 -10.013,9.03651 -10.323,9.238"
     id="path490"
     style="stroke-width:0.992001" />
  <path
     class="Note"
     d="m 7842.3036,301.79051 c 0,4.2625 3.069,9.02103 11.1135,9.02103 10.3076,0 21.1266,-8.43203 21.1266,-17.15854 0,-5.85901 -4.96,-9.12949 -11.1135,-9.12949 -9.6255,0 -21.1266,8.13748 -21.1266,17.267"
     id="path492"
     style="stroke-width:0.992001" />
  <path
     class="Note"
     d="m 754.09019,272.12351 c -9.62549,0 -21.12655,8.04448 -21.12655,17.267 0,4.2625 3.069,9.02103 11.11349,9.02103 10.30758,0 21.12654,-8.43203 21.12654,-17.15854 0,-5.85901 -4.96,-9.12949 -11.11348,-9.12949 m -2.68148,17.46849 c -0.29453,0.186 -7.53306,4.15401 -11.00506,4.15401 -3.2705,0 -3.968,-2.666 -3.968,-3.565 0,-4.16951 9.92001,-9.02101 10.32306,-9.22252 0.38747,-0.20149 7.44,-4.1695 11.00496,-4.1695 2.38705,0 3.968,1.395 3.968,3.56501 0,4.278 -10.01296,9.03651 -10.32296,9.238"
     id="path494"
     style="stroke-width:0.992001" />
  <path
     class="Note"
     d="m 2738.0902,296.92351 c -9.6255,0 -21.1266,8.04448 -21.1266,17.267 0,4.2625 3.069,9.02103 11.1135,9.02103 10.3076,0 21.1266,-8.43203 21.1266,-17.15854 0,-5.85901 -4.96,-9.12949 -11.1135,-9.12949 m -2.6815,17.46849 c -0.2945,0.186 -7.533,4.15401 -11.0051,4.15401 -3.2704,0 -3.968,-2.666 -3.968,-3.565 0,-4.16951 9.9201,-9.02101 10.3231,-9.22252 0.3875,-0.20149 7.44,-4.1695 11.005,-4.1695 2.387,0 3.968,1.395 3.968,3.56501 0,4.278 -10.013,9.03651 -10.323,9.238"
     id="path496"
     style="stroke-width:0.992001" />
  <path
     class="Clef"
     d="m 110.00017,113.698 c 0,7.05251 -2.88295,14.29102 -9.92001,17.17407 -2.076949,-11.90406 -4.758427,-27.68308 -5.456002,-32.054133 8.928012,0 15.376012,6.060553 15.376012,14.880063 m -14.089486,18.35207 c -1.984002,0.40295 -3.859479,0.60443 -5.750531,0.60443 -14.18244,0 -26.287997,-9.92001 -26.287997,-24.9085 0,-12.090066 8.525029,-22.909027 17.267038,-30.457559 1.674001,-1.488002 3.270528,-2.867479 4.758529,-4.35548 0.883476,5.347481 1.580952,10.01296 2.278428,14.089489 -9.036435,2.681478 -15.174441,12.198537 -15.174441,21.52955 0,6.944 5.456006,16.46101 13.392014,16.46101 0.790426,0 1.689477,-0.40295 1.689477,-1.28652 0,-0.89895 -0.992001,-1.39495 -2.185478,-2.18548 -3.875053,-2.387 -6.060531,-4.96001 -6.060531,-9.82701 0,-6.04501 4.464005,-10.91206 10.322961,-12.291537 l 5.750531,32.627607 M 87.18415,30.075443 c 0.899051,-3.968004 5.456006,-14.384015 10.617585,-14.384015 1.488002,0 3.859475,4.85148 3.859475,11.702437 0,10.32306 -7.626003,18.057593 -14.47706,24.800025 -0.588951,-3.968004 -1.084951,-7.827483 -1.084951,-11.996962 0,-3.673479 0.294525,-7.052532 1.084951,-10.121485 M 66.352129,162.50758 c 0,6.55653 5.053055,15.19001 18.445068,15.19001 4.66548,0 8.742009,-1.19347 12.306963,-3.37905 5.36306,-3.76643 6.74253,-10.32296 6.74253,-16.56949 0,-3.85948 -0.58895,-8.32349 -1.58095,-13.98097 -0.29453,-1.984 -0.89905,-4.96 -1.488,-8.83506 9.71843,-3.17747 16.95697,-13.29896 16.95697,-23.51352 0,-14.97304 -10.61749,-25.094526 -25.094554,-25.094526 -0.992001,-5.952006 -1.984002,-11.811061 -2.882954,-17.360017 10.524538,-11.020536 17.762968,-23.420548 17.762968,-39.18404 0,-9.036533 -2.77443,-16.368016 -4.37095,-19.9481476 -2.37148,-5.0532531 -5.254534,-8.5252566 -7.037061,-8.5252566 -0.697476,0 -3.766429,1.1933772 -7.036957,5.0532531 -6.355056,7.5481351 -8.137484,20.2426731 -8.137484,28.5661571 0,5.362955 0.496001,10.23001 2.185478,21.343496 -0.108525,0.09305 -5.270006,5.347481 -7.347057,7.037057 -9.036435,8.432009 -21.529497,20.428971 -21.529497,40.284514 0,18.53807 16.166541,33.12356 34.627084,33.12356 2.867478,0 5.548956,-0.29453 7.827483,-0.69748 1.890953,9.53244 2.976003,16.47645 2.976003,21.73098 0,10.32306 -5.25453,15.77906 -15.26749,15.77906 -2.387052,0 -4.464005,-0.496 -4.665579,-0.496 -0.09295,-0.10852 -0.294426,-0.20157 -0.294426,-0.29452 0,-0.20148 0.201475,-0.31 0.496,-0.40305 4.66548,-0.69748 9.315485,-4.66548 9.315485,-11.00497 0,-5.36305 -4.061054,-11.02053 -11.501061,-11.02053 -6.944007,0 -11.408012,5.65748 -11.408012,12.19854"
     id="path498"
     style="stroke-width:0.992001" />
  <path
     class="Clef"
     d="m 79.449717,297.52793 c -7.548533,0 -13.593588,4.35557 -13.702014,4.35557 -5.75055,4.26243 -8.029058,9.33096 -8.928059,12.80299 -0.496,1.7825 -0.682,3.565 -0.682,5.25451 0,2.387 0.387505,4.557 1.286506,6.448 1.193496,2.68151 3.472003,4.55701 6.448006,5.54901 1.193546,0.403 2.479973,0.60448 3.766499,0.60448 2.185478,0 4.464005,-0.60448 6.355056,-1.68948 3.068954,-1.6895 4.960005,-5.2545 4.960005,-9.12951 0,-3.47201 -1.798002,-6.64951 -4.774005,-8.52501 -2.077051,-1.39498 -4.061053,-1.78255 -5.75053,-1.78255 -1.193477,0 -2.278527,0.186 -3.177479,0.496 -0.992001,0.38757 -2.666052,1.37955 -3.472053,2.07705 0.310001,-1.89105 1.488002,-4.75853 2.588478,-6.35505 1.085051,-1.58096 3.270528,-3.56496 4.960005,-4.46401 2.480003,-1.37948 5.65758,-1.984 9.129584,-1.984 10.121485,0 15.08149,8.13758 15.08149,24.80007 0,9.23806 -3.472003,18.05755 -6.448006,23.9165 -3.286004,6.54106 -7.641483,12.80307 -11.516537,16.27507 -10.322961,9.42401 -20.041515,13.88801 -20.134515,13.88801 0,0 -1.193506,0.682 -1.193506,1.87548 0,0.20148 0.093,0.29453 0.093,0.496 0.31,0.992 1.193506,1.19348 1.798002,1.19348 0.093,0 0.387505,-0.0929 0.496,-0.0929 0.093,0 11.408061,-4.66548 20.429021,-11.71802 5.06853,-3.658 9.625485,-7.626 13.593489,-11.90401 3.565053,-3.85948 6.649581,-8.02906 9.129583,-12.19853 4.355483,-7.44001 6.835483,-15.17454 6.835483,-21.82403 0,-8.23051 -2.17,-15.08149 -6.24653,-19.93307 -4.665482,-5.56443 -11.702538,-8.432 -20.924973,-8.432 m 31.139503,12.58601 c 0,2.79005 2.18548,4.96005 4.77401,4.96005 2.57295,0 4.75853,-2.17 4.75853,-4.96005 0,-2.77443 -2.18558,-5.05296 -4.75853,-5.05296 -2.58853,0 -4.77401,2.27853 -4.77401,5.05296 m 0,24.5056 c 0,2.77452 2.18548,5.06853 4.77401,5.06853 2.57295,0 4.75853,-2.29401 4.75853,-5.06853 0,-2.77453 -2.18558,-5.05303 -4.75853,-5.05303 -2.58853,0 -4.77401,2.2785 -4.77401,5.05303"
     id="path500"
     style="stroke-width:0.992001" />
  <path
     class="TimeSig"
     d="m 174.41814,60.935998 c 7.93601,-3.084508 8.43201,-8.246008 8.43201,-10.028485 0,-0.201575 0,-0.387575 0,-0.496 0,-0.883576 -0.29442,-12.105587 -17.36001,-12.105587 -17.0655,0 -16.5695,12.105587 -16.5695,12.105587 h 0.093 l -0.093,0.201475 c 0,3.565004 2.88301,6.355006 6.44801,6.355006 3.56505,0 6.35506,-2.790002 6.35506,-6.355006 0,-2.883053 -2.18558,-5.657481 -4.96006,-6.246531 0.093,-0.108525 0.186,-0.201476 0.29451,-0.294525 1.37954,-0.992001 3.27049,-1.488002 5.16155,-1.488002 4.154,0 8.618,2.480003 8.618,7.827583 0,6.246481 -4.65,7.145482 -5.84358,7.346977 -1.19347,0.201505 -6.74243,0.589001 -7.93597,0.589001 -1.19351,0 -1.28651,1.395001 -1.28651,1.395001 v 1.984007 c 0,0 0.186,1.085001 1.28651,1.193501 1.68954,0.093 3.96797,0.093 7.14555,0.589001 4.35548,0.589001 6.634,3.565004 6.634,10.50906 0,6.649482 -4.464,8.432009 -8.618,8.432009 -2.79001,0 -5.36306,-0.790526 -6.44806,-1.581052 3.27048,-0.201475 5.95206,-3.068953 5.95206,-6.354956 0,-3.565054 -2.79001,-6.448056 -6.35506,-6.448056 -3.565,0 -6.44801,2.883002 -6.44801,6.448056 0,0 0,0.201475 0,0.40295 0,1.286527 0.29451,4.867055 3.87501,8.137484 3.85951,3.565053 8.72648,3.673578 10.91206,3.673578 9.51696,0 19.84002,-3.286003 19.84002,-14.089589 0,-7.238482 -4.96001,-10.322985 -9.33106,-11.702487 h 0.20147"
     id="path502"
     style="stroke-width:0.992001" />
  <path
     class="TimeSig"
     d="m 164.15719,124.22249 v 7.33158 h -8.23054 c -0.69747,0 -1.39495,0.60443 -1.39495,1.39495 v 1.89105 c 0,0.79043 0.69748,1.37948 1.39495,1.37948 h 30.05456 c 0.806,0 1.39495,-0.58905 1.39495,-1.37948 v -1.89105 c 0,-0.79052 -0.58895,-1.39495 -1.39495,-1.39495 h -8.92801 v -7.33158 h 8.92801 c 0.806,0 1.39495,-0.69748 1.39495,-1.488 v -1.89098 c 0,-0.6975 -0.58895,-1.3795 -1.39495,-1.3795 h -8.92801 v -15.77902 c 0,-0.589 -0.29452,-1.085 -0.682,-1.2865 l -1.19348,-0.6045 c -0.20157,-0.093 -0.29452,-0.093 -0.496,-0.093 -0.10852,0 -0.10852,0 -0.20157,0 -0.29443,0 -0.69748,0.093 -0.89895,0.2945 l -9.02106,8.23051 c -0.29443,0.31 -0.40295,0.6975 -0.40295,1.1005 v 8.13751 h -11.50103 c 0,0 11.11355,-11.90401 22.81599,-27.59008 0.40305,-0.496 0.496,-0.992001 0.496,-1.379476 0,-0.496001 -0.20148,-0.898951 -0.29443,-0.992001 l -2.18557,-2.185478 c -0.29443,-0.201475 -0.58895,-0.40305 -0.992,-0.40305 -0.58895,0 -13.99644,0 -14.78697,0 -0.69748,0 -1.19348,0.604526 -1.28653,1.193576 0,0 -0.496,7.346958 -3.069,15.375989 -2.5885,8.04451 -5.5645,13.00451 -8.1375,16.66252 0,0 -0.29451,0.496 -0.29451,1.1005 0,0.2015 0,0.38755 0.093,0.58903 0.29451,0.69747 0.992,1.78252 0.992,1.78252 0,0 0.20151,0.60443 1.08501,0.60443 h 17.06554"
     id="path504"
     style="stroke-width:0.992001" />
  <path
     class="TimeSig"
     d="m 174.41814,321.336 c 7.93601,-3.08451 8.43201,-8.24601 8.43201,-10.02849 0,-0.20157 0,-0.38757 0,-0.496 0,-0.88357 -0.29442,-12.10558 -17.36001,-12.10558 -17.0655,0 -16.5695,12.10558 -16.5695,12.10558 h 0.093 l -0.093,0.20148 c 0,3.565 2.88301,6.355 6.44801,6.355 3.56505,0 6.35506,-2.79 6.35506,-6.355 0,-2.88305 -2.18558,-5.65748 -4.96006,-6.24653 0.093,-0.10853 0.186,-0.20148 0.29451,-0.29453 1.37954,-0.992 3.27049,-1.488 5.16155,-1.488 4.154,0 8.618,2.48 8.618,7.82758 0,6.24648 -4.65,7.14548 -5.84358,7.34698 -1.19347,0.20151 -6.74243,0.589 -7.93597,0.589 -1.19351,0 -1.28651,1.395 -1.28651,1.395 v 1.98401 c 0,0 0.186,1.085 1.28651,1.1935 1.68954,0.093 3.96797,0.093 7.14555,0.589 4.35548,0.589 6.634,3.565 6.634,10.50906 0,6.64948 -4.464,8.43201 -8.618,8.43201 -2.79001,0 -5.36306,-0.79053 -6.44806,-1.58105 3.27048,-0.20148 5.95206,-3.06895 5.95206,-6.35496 0,-3.56505 -2.79001,-6.44805 -6.35506,-6.44805 -3.565,0 -6.44801,2.883 -6.44801,6.44805 0,0 0,0.20148 0,0.40295 0,1.28653 0.29451,4.86706 3.87501,8.13749 3.85951,3.56505 8.72648,3.67357 10.91206,3.67357 9.51696,0 19.84002,-3.286 19.84002,-14.08958 0,-7.23849 -4.96001,-10.32299 -9.33106,-11.70249 h 0.20147"
     id="path506"
     style="stroke-width:0.992001" />
  <path
     class="TimeSig"
     d="m 164.15719,384.62249 v 7.33158 h -8.23054 c -0.69747,0 -1.39495,0.60443 -1.39495,1.39495 v 1.89105 c 0,0.79043 0.69748,1.37948 1.39495,1.37948 h 30.05456 c 0.806,0 1.39495,-0.58905 1.39495,-1.37948 v -1.89105 c 0,-0.79052 -0.58895,-1.39495 -1.39495,-1.39495 h -8.92801 v -7.33158 h 8.92801 c 0.806,0 1.39495,-0.69748 1.39495,-1.488 v -1.89098 c 0,-0.6975 -0.58895,-1.3795 -1.39495,-1.3795 h -8.92801 v -15.77902 c 0,-0.589 -0.29452,-1.085 -0.682,-1.2865 l -1.19348,-0.6045 c -0.20157,-0.093 -0.29452,-0.093 -0.496,-0.093 -0.10852,0 -0.10852,0 -0.20157,0 -0.29443,0 -0.69748,0.093 -0.89895,0.2945 l -9.02106,8.23051 c -0.29443,0.31 -0.40295,0.6975 -0.40295,1.1005 v 8.13751 h -11.50103 c 0,0 11.11355,-11.90401 22.81599,-27.59008 0.40305,-0.496 0.496,-0.992 0.496,-1.37948 0,-0.496 -0.20148,-0.89895 -0.29443,-0.992 l -2.18557,-2.18547 c -0.29443,-0.20148 -0.58895,-0.40305 -0.992,-0.40305 -0.58895,0 -13.99644,0 -14.78697,0 -0.69748,0 -1.19348,0.60452 -1.28653,1.19357 0,0 -0.496,7.34696 -3.069,15.37599 -2.5885,8.04451 -5.5645,13.00451 -8.1375,16.66252 0,0 -0.29451,0.496 -0.29451,1.1005 0,0.2015 0,0.38755 0.093,0.58903 0.29451,0.69747 0.992,1.78252 0.992,1.78252 0,0 0.20151,0.60443 1.08501,0.60443 h 17.06554"
     id="path508"
     style="stroke-width:0.992001" />
  <path
     class="Beam"
     fill-rule="evenodd"
     d="m 3394.3236,12.421 h 227.84 v 12.4 h -227.84 v -12.4"
     id="path510" />
  <path
     class="Beam"
     fill-rule="evenodd"
     d="m 2897.4936,0 228.67,18.6 v 12.441 l -228.67,-18.6 V 0"
     id="path512" />
  <path
     class="Beam"
     fill-rule="evenodd"
     d="m 7362.3336,12.421 h 227.84 v 12.4 h -227.84 v -12.4"
     id="path514" />
  <path
     class="Beam"
     fill-rule="evenodd"
     d="M 4385.5036,18.6 4614.1636,0 v 12.441 l -228.66,18.6 V 18.6"
     id="path516" />
  <path
     class="Beam"
     fill-rule="evenodd"
     d="m 6865.5036,0 228.67,18.6 v 12.441 l -228.67,-18.6 V 0"
     id="path518" />
  <path
     class="Beam"
     fill-rule="evenodd"
     d="m 2371.7536,142.6 228.67,18.6 v 12.441 l -228.67,-18.6 V 142.6"
     id="path520" />
  <path
     class="Beam"
     fill-rule="evenodd"
     d="m 1379.7536,136.412 228.66,-12.4 v 12.418 l -228.66,12.4 v -12.418"
     id="path522" />
  <path
     class="Beam"
     fill-rule="evenodd"
     d="M 417.49564,18.6 646.16064,0 v 12.441 l -228.665,18.6 V 18.6"
     id="path524" />
  <path
     class="Beam"
     fill-rule="evenodd"
     d="m 5347.7536,136.412 228.67,-12.4 v 12.418 l -228.67,12.4 v -12.418"
     id="path526" />
  <path
     class="Beam"
     fill-rule="evenodd"
     d="m 6339.7536,142.6 228.67,18.6 v 12.441 l -228.67,-18.6 V 142.6"
     id="path528" />
  <path
     class="NoteDot"
     d="m 8217.5936,99.221 c 0,2.77451 2.1855,4.96001 4.96,4.96001 2.7746,0 4.9601,-2.1855 4.9601,-4.96001 0,-2.774508 -2.1855,-4.960005 -4.9601,-4.960005 -2.7745,0 -4.96,2.185497 -4.96,4.960005"
     id="path530"
     style="stroke-width:0.992001" />
  <path
     class="NoteDot"
     d="m 5241.5936,260.421 c 0,2.77451 2.1855,4.96 4.96,4.96 2.7746,0 4.9601,-2.18549 4.9601,-4.96 0,-2.77451 -2.1855,-4.96001 -4.9601,-4.96001 -2.7745,0 -4.96,2.1855 -4.96,4.96001"
     id="path532"
     style="stroke-width:0.992001" />
  <path
     class="NoteDot"
     d="m 5737.5936,285.221 c 0,2.77451 2.1855,4.96001 4.96,4.96001 2.7746,0 4.9601,-2.1855 4.9601,-4.96001 0,-2.77451 -2.1855,-4.96001 -4.9601,-4.96001 -2.7745,0 -4.96,2.1855 -4.96,4.96001"
     id="path534"
     style="stroke-width:0.992001" />
  <path
     class="NoteDot"
     d="m 1769.5836,285.221 c 0,2.77451 2.1855,4.96001 4.96,4.96001 2.7746,0 4.9601,-2.1855 4.9601,-4.96001 0,-2.77451 -2.1855,-4.96001 -4.9601,-4.96001 -2.7745,0 -4.96,2.1855 -4.96,4.96001"
     id="path536"
     style="stroke-width:0.992001" />
  <path
     class="NoteDot"
     d="m 8217.5936,310.021 c 0,2.77451 2.1855,4.96001 4.96,4.96001 2.7746,0 4.9601,-2.1855 4.9601,-4.96001 0,-2.77451 -2.1855,-4.96001 -4.9601,-4.96001 -2.7745,0 -4.96,2.1855 -4.96,4.96001"
     id="path538"
     style="stroke-width:0.992001" />
  <path
     class="NoteDot"
     d="m 6233.5936,285.221 c 0,2.77451 2.1855,4.96001 4.96,4.96001 2.7746,0 4.9601,-2.1855 4.9601,-4.96001 0,-2.77451 -2.1855,-4.96001 -4.9601,-4.96001 -2.7745,0 -4.96,2.1855 -4.96,4.96001"
     id="path540"
     style="stroke-width:0.992001" />
  <path
     class="NoteDot"
     d="m 1273.5836,260.421 c 0,2.77451 2.1855,4.96 4.96,4.96 2.7746,0 4.9601,-2.18549 4.9601,-4.96 0,-2.77451 -2.1855,-4.96001 -4.9601,-4.96001 -2.7745,0 -4.96,2.1855 -4.96,4.96001"
     id="path542"
     style="stroke-width:0.992001" />
  <path
     class="NoteDot"
     d="m 2265.5836,285.221 c 0,2.77451 2.1855,4.96001 4.96,4.96001 2.7746,0 4.9601,-2.1855 4.9601,-4.96001 0,-2.77451 -2.1855,-4.96001 -4.9601,-4.96001 -2.7745,0 -4.96,2.1855 -4.96,4.96001"
     id="path544"
     style="stroke-width:0.992001" />
  <path
     class="NoteDot"
     d="m 6729.5936,310.021 c 0,2.77451 2.1855,4.96001 4.96,4.96001 2.7746,0 4.9601,-2.1855 4.9601,-4.96001 0,-2.77451 -2.1855,-4.96001 -4.9601,-4.96001 -2.7745,0 -4.96,2.1855 -4.96,4.96001"
     id="path546"
     style="stroke-width:0.992001" />
  <path
     class="NoteDot"
     d="m 4745.5936,285.221 c 0,2.77451 2.1855,4.96001 4.96,4.96001 2.7746,0 4.9601,-2.1855 4.9601,-4.96001 0,-2.77451 -2.1855,-4.96001 -4.9601,-4.96001 -2.7745,0 -4.96,2.1855 -4.96,4.96001"
     id="path548"
     style="stroke-width:0.992001" />
  <path
     class="NoteDot"
     d="m 777.58364,285.221 c 0,2.77451 2.18551,4.96001 4.96001,4.96001 2.7745,0 4.96,-2.1855 4.96,-4.96001 0,-2.77451 -2.1855,-4.96001 -4.96,-4.96001 -2.7745,0 -4.96001,2.1855 -4.96001,4.96001"
     id="path550"
     style="stroke-width:0.992001" />
  <path
     class="NoteDot"
     d="m 2761.5836,310.021 c 0,2.77451 2.1855,4.96001 4.96,4.96001 2.7746,0 4.9601,-2.1855 4.9601,-4.96001 0,-2.77451 -2.1855,-4.96001 -4.9601,-4.96001 -2.7745,0 -4.96,2.1855 -4.96,4.96001"
     id="path552"
     style="stroke-width:0.992001" />
  <path
     class="Bracket"
     d="m 3.3985167,217.021 c 6.4615805,-6.85505 19.0475803,-20.84565 19.0475803,-46.748 0,-32.7574 -14.0468748,-65.85175 -14.0468748,-86.304 0,-21.969402 12.5859998,-42.47775 13.3164198,-43.152 0,-0.393402 0,-0.393402 0,-0.730348 0,-0.393402 0,-0.730707 -0.337125,-1.067652 -0.393295,0 -1.12375,0 -1.460875,0.67425 -0.337125,0.393402 -19.77800025,19.778 -19.77800025,49.276348 0,31.633652 12.58600025,53.940002 12.58600025,95.294002 0,7.92235 -3.2588753,20.50835 -12.24887525,31.68975 -0.337125,0 -0.337125,0.67425 -0.337125,1.06765 -0.337125,0.33695 0,0.73035 0.337125,1.06765 8.98999995,11.12495 12.24887525,23.71095 12.24887525,31.6333 0,41.354 -12.58600025,63.6607 -12.58600025,95.294 0,29.16147 19.44087525,48.93949 19.77800025,49.27661 0.337125,0.73044 1.06758,1.06756 1.460875,0.73044 0.337125,-0.33713 0.67425,-0.73044 0.337125,-1.06756 0,0 0,-0.39332 0,-0.73044 -0.73042,-0.73046 -13.3164198,-21.23888 -13.3164198,-43.152 0,-20.50835 14.0468748,-53.60305 14.0468748,-86.304 0,-26.23965 -12.5859998,-39.9494 -19.0475803,-46.748"
     id="path554"
     style="stroke-width:3.596" />
</svg>
