<?xml version="1.0" encoding="UTF-8" standalone="no"?>
<svg
   width="296.2193mm"
   height="28.001982mm"
   viewBox="0 0 4198.3839 396.87849"
   version="1.2"
   id="svg103"
   sodipodi:docname="RowRowRowYourBoat.svg"
   inkscape:version="1.4.2 (ebf0e94, 2025-05-08)"
   xmlns:inkscape="http://www.inkscape.org/namespaces/inkscape"
   xmlns:sodipodi="http://sodipodi.sourceforge.net/DTD/sodipodi-0.dtd"
   xmlns="http://www.w3.org/2000/svg"
   xmlns:svg="http://www.w3.org/2000/svg">
  <defs
     id="defs103" />
  <sodipodi:namedview
     id="namedview103"
     pagecolor="#ffffff"
     bordercolor="#000000"
     borderopacity="0.25"
     inkscape:showpageshadow="2"
     inkscape:pageopacity="0.0"
     inkscape:pagecheckerboard="0"
     inkscape:deskcolor="#d1d1d1"
     inkscape:document-units="mm"
     inkscape:zoom="0.35901719"
     inkscape:cx="433.1269"
     inkscape:cy="147.62524"
     inkscape:window-width="1025"
     inkscape:window-height="1026"
     inkscape:window-x="0"
     inkscape:window-y="0"
     inkscape:window-maximized="0"
     inkscape:current-layer="svg103" />
  <title
     id="title1">RowRowRowYourBoat</title>
  <desc
     id="desc1">Generated by MuseScore Studio 4.5.2</desc>
  <polyline
     class="StaffLines"
     fill="none"
     stroke="#000000"
     stroke-width="2.73"
     stroke-linejoin="bevel"
     points="336.599,386.199 4503.8,386.199"
     id="polyline1"
     transform="translate(-305.41636,-350.28551)" />
  <polyline
     class="StaffLines"
     fill="none"
     stroke="#000000"
     stroke-width="2.73"
     stroke-linejoin="bevel"
     points="336.599,410.999 4503.8,410.999"
     id="polyline2"
     transform="translate(-305.41636,-350.28551)" />
  <polyline
     class="StaffLines"
     fill="none"
     stroke="#000000"
     stroke-width="2.73"
     stroke-linejoin="bevel"
     points="336.599,435.799 4503.8,435.799"
     id="polyline3"
     transform="translate(-305.41636,-350.28551)" />
  <polyline
     class="StaffLines"
     fill="none"
     stroke="#000000"
     stroke-width="2.73"
     stroke-linejoin="bevel"
     points="336.599,460.599 4503.8,460.599"
     id="polyline4"
     transform="translate(-305.41636,-350.28551)" />
  <polyline
     class="StaffLines"
     fill="none"
     stroke="#000000"
     stroke-width="2.73"
     stroke-linejoin="bevel"
     points="336.599,485.399 4503.8,485.399"
     id="polyline5"
     transform="translate(-305.41636,-350.28551)" />
  <polyline
     class="StaffLines"
     fill="none"
     stroke="#000000"
     stroke-width="2.73"
     stroke-linejoin="bevel"
     points="336.599,646.599 4503.8,646.599"
     id="polyline6"
     transform="translate(-305.41636,-350.28551)" />
  <polyline
     class="StaffLines"
     fill="none"
     stroke="#000000"
     stroke-width="2.73"
     stroke-linejoin="bevel"
     points="336.599,671.399 4503.8,671.399"
     id="polyline7"
     transform="translate(-305.41636,-350.28551)" />
  <polyline
     class="StaffLines"
     fill="none"
     stroke="#000000"
     stroke-width="2.73"
     stroke-linejoin="bevel"
     points="336.599,696.199 4503.8,696.199"
     id="polyline8"
     transform="translate(-305.41636,-350.28551)" />
  <polyline
     class="StaffLines"
     fill="none"
     stroke="#000000"
     stroke-width="2.73"
     stroke-linejoin="bevel"
     points="336.599,720.999 4503.8,720.999"
     id="polyline9"
     transform="translate(-305.41636,-350.28551)" />
  <polyline
     class="StaffLines"
     fill="none"
     stroke="#000000"
     stroke-width="2.73"
     stroke-linejoin="bevel"
     points="336.599,745.799 4503.8,745.799"
     id="polyline10"
     transform="translate(-305.41636,-350.28551)" />
  <polyline
     class="BarLine"
     fill="none"
     stroke="#000000"
     stroke-width="4.46"
     stroke-linejoin="bevel"
     points="1478.83,384.835 1478.83,646.599"
     id="polyline11"
     transform="translate(-305.41636,-350.28551)" />
  <polyline
     class="BarLine"
     fill="none"
     stroke="#000000"
     stroke-width="4.46"
     stroke-linejoin="bevel"
     points="338.831,384.835 338.831,646.599"
     id="polyline12"
     transform="translate(-305.41636,-350.28551)" />
  <polyline
     class="BarLine"
     fill="none"
     stroke="#000000"
     stroke-width="4.46"
     stroke-linejoin="bevel"
     points="1974.83,384.835 1974.83,646.599"
     id="polyline13"
     transform="translate(-305.41636,-350.28551)" />
  <polyline
     class="BarLine"
     fill="none"
     stroke="#000000"
     stroke-width="4.46"
     stroke-linejoin="bevel"
     points="4478.75,384.835 4478.75,646.599"
     id="polyline14"
     transform="translate(-305.41636,-350.28551)" />
  <polyline
     class="BarLine"
     fill="none"
     stroke="#000000"
     stroke-width="13.64"
     stroke-linejoin="bevel"
     points="4496.98,384.835 4496.98,646.599"
     id="polyline15"
     transform="translate(-305.41636,-350.28551)" />
  <polyline
     class="BarLine"
     fill="none"
     stroke="#000000"
     stroke-width="4.46"
     stroke-linejoin="bevel"
     points="2470.83,384.835 2470.83,646.599"
     id="polyline16"
     transform="translate(-305.41636,-350.28551)" />
  <polyline
     class="BarLine"
     fill="none"
     stroke="#000000"
     stroke-width="4.46"
     stroke-linejoin="bevel"
     points="3958.83,384.835 3958.83,646.599"
     id="polyline17"
     transform="translate(-305.41636,-350.28551)" />
  <polyline
     class="BarLine"
     fill="none"
     stroke="#000000"
     stroke-width="4.46"
     stroke-linejoin="bevel"
     points="982.825,384.835 982.825,646.599"
     id="polyline18"
     transform="translate(-305.41636,-350.28551)" />
  <polyline
     class="BarLine"
     fill="none"
     stroke="#000000"
     stroke-width="4.46"
     stroke-linejoin="bevel"
     points="2966.83,384.835 2966.83,646.599"
     id="polyline19"
     transform="translate(-305.41636,-350.28551)" />
  <polyline
     class="BarLine"
     fill="none"
     stroke="#000000"
     stroke-width="4.46"
     stroke-linejoin="bevel"
     points="3462.83,384.835 3462.83,646.599"
     id="polyline20"
     transform="translate(-305.41636,-350.28551)" />
  <polyline
     class="BarLine"
     fill="none"
     stroke="#000000"
     stroke-width="4.46"
     stroke-linejoin="bevel"
     points="2966.83,645.235 2966.83,747.163"
     id="polyline21"
     transform="translate(-305.41636,-350.28551)" />
  <polyline
     class="BarLine"
     fill="none"
     stroke="#000000"
     stroke-width="4.46"
     stroke-linejoin="bevel"
     points="1478.83,645.235 1478.83,747.163"
     id="polyline22"
     transform="translate(-305.41636,-350.28551)" />
  <polyline
     class="BarLine"
     fill="none"
     stroke="#000000"
     stroke-width="4.46"
     stroke-linejoin="bevel"
     points="1974.83,645.235 1974.83,747.163"
     id="polyline23"
     transform="translate(-305.41636,-350.28551)" />
  <polyline
     class="BarLine"
     fill="none"
     stroke="#000000"
     stroke-width="4.46"
     stroke-linejoin="bevel"
     points="2470.83,645.235 2470.83,747.163"
     id="polyline24"
     transform="translate(-305.41636,-350.28551)" />
  <polyline
     class="BarLine"
     fill="none"
     stroke="#000000"
     stroke-width="4.46"
     stroke-linejoin="bevel"
     points="982.825,645.235 982.825,747.163"
     id="polyline25"
     transform="translate(-305.41636,-350.28551)" />
  <polyline
     class="BarLine"
     fill="none"
     stroke="#000000"
     stroke-width="4.46"
     stroke-linejoin="bevel"
     points="338.831,645.235 338.831,747.163"
     id="polyline26"
     transform="translate(-305.41636,-350.28551)" />
  <polyline
     class="BarLine"
     fill="none"
     stroke="#000000"
     stroke-width="4.46"
     stroke-linejoin="bevel"
     points="3462.83,645.235 3462.83,747.163"
     id="polyline27"
     transform="translate(-305.41636,-350.28551)" />
  <polyline
     class="BarLine"
     fill="none"
     stroke="#000000"
     stroke-width="4.46"
     stroke-linejoin="bevel"
     points="4478.75,645.235 4478.75,747.163"
     id="polyline28"
     transform="translate(-305.41636,-350.28551)" />
  <polyline
     class="BarLine"
     fill="none"
     stroke="#000000"
     stroke-width="13.64"
     stroke-linejoin="bevel"
     points="4496.98,645.235 4496.98,747.163"
     id="polyline29"
     transform="translate(-305.41636,-350.28551)" />
  <polyline
     class="BarLine"
     fill="none"
     stroke="#000000"
     stroke-width="4.46"
     stroke-linejoin="bevel"
     points="3958.83,645.235 3958.83,747.163"
     id="polyline30"
     transform="translate(-305.41636,-350.28551)" />
  <polyline
     class="LedgerLine"
     fill="none"
     stroke="#000000"
     stroke-width="3.97"
     stroke-linejoin="bevel"
     points="534.193,510.199 582.785,510.199"
     id="polyline31"
     transform="translate(-305.41636,-350.28551)" />
  <polyline
     class="LedgerLine"
     fill="none"
     stroke="#000000"
     stroke-width="3.97"
     stroke-linejoin="bevel"
     points="778.101,510.199 826.694,510.199"
     id="polyline32"
     transform="translate(-305.41636,-350.28551)" />
  <polyline
     class="LedgerLine"
     fill="none"
     stroke="#000000"
     stroke-width="3.97"
     stroke-linejoin="bevel"
     points="3998.01,510.199 4046.61,510.199"
     id="polyline33"
     transform="translate(-305.41636,-350.28551)" />
  <polyline
     class="LedgerLine"
     fill="none"
     stroke="#000000"
     stroke-width="3.97"
     stroke-linejoin="bevel"
     points="1022.01,510.199 1070.6,510.199"
     id="polyline34"
     transform="translate(-305.41636,-350.28551)" />
  <polyline
     class="LedgerLine"
     fill="none"
     stroke="#000000"
     stroke-width="3.97"
     stroke-linejoin="bevel"
     points="3254.01,510.199 3302.6,510.199"
     id="polyline35"
     transform="translate(-305.41636,-350.28551)" />
  <polyline
     class="LedgerLine"
     fill="none"
     stroke="#000000"
     stroke-width="3.97"
     stroke-linejoin="bevel"
     points="3378.01,510.199 3426.6,510.199"
     id="polyline36"
     transform="translate(-305.41636,-350.28551)" />
  <polyline
     class="Stem"
     fill="none"
     stroke="#000000"
     stroke-width="2.48"
     stroke-linejoin="bevel"
     points="3417.18,506.231 3417.18,423.399"
     id="polyline37"
     transform="translate(-305.41636,-350.28551)" />
  <polyline
     class="Stem"
     fill="none"
     stroke="#000000"
     stroke-width="2.48"
     stroke-linejoin="bevel"
     points="573.361,506.231 573.361,423.399"
     id="polyline38"
     transform="translate(-305.41636,-350.28551)" />
  <polyline
     class="Stem"
     fill="none"
     stroke="#000000"
     stroke-width="2.48"
     stroke-linejoin="bevel"
     points="1061.18,506.231 1061.18,423.399"
     id="polyline39"
     transform="translate(-305.41636,-350.28551)" />
  <polyline
     class="Stem"
     fill="none"
     stroke="#000000"
     stroke-width="2.48"
     stroke-linejoin="bevel"
     points="2519.44,427.565 2519.44,503.999"
     id="polyline40"
     transform="translate(-305.41636,-350.28551)" />
  <polyline
     class="Stem"
     fill="none"
     stroke="#000000"
     stroke-width="2.48"
     stroke-linejoin="bevel"
     points="2643.44,427.565 2643.44,503.999"
     id="polyline41"
     transform="translate(-305.41636,-350.28551)" />
  <polyline
     class="Stem"
     fill="none"
     stroke="#000000"
     stroke-width="2.48"
     stroke-linejoin="bevel"
     points="3169.18,481.431 3169.18,398.599"
     id="polyline42"
     transform="translate(-305.41636,-350.28551)" />
  <polyline
     class="Stem"
     fill="none"
     stroke="#000000"
     stroke-width="2.48"
     stroke-linejoin="bevel"
     points="2797.18,456.631 2797.18,373.799"
     id="polyline43"
     transform="translate(-305.41636,-350.28551)" />
  <polyline
     class="Stem"
     fill="none"
     stroke="#000000"
     stroke-width="2.48"
     stroke-linejoin="bevel"
     points="2921.18,456.631 2921.18,373.799"
     id="polyline44"
     transform="translate(-305.41636,-350.28551)" />
  <polyline
     class="Stem"
     fill="none"
     stroke="#000000"
     stroke-width="2.48"
     stroke-linejoin="bevel"
     points="3293.18,506.231 3293.18,423.399"
     id="polyline45"
     transform="translate(-305.41636,-350.28551)" />
  <polyline
     class="Stem"
     fill="none"
     stroke="#000000"
     stroke-width="2.48"
     stroke-linejoin="bevel"
     points="817.27,506.231 817.27,423.399"
     id="polyline46"
     transform="translate(-305.41636,-350.28551)" />
  <polyline
     class="Stem"
     fill="none"
     stroke="#000000"
     stroke-width="2.48"
     stroke-linejoin="bevel"
     points="3045.18,481.431 3045.18,398.599"
     id="polyline47"
     transform="translate(-305.41636,-350.28551)" />
  <polyline
     class="Stem"
     fill="none"
     stroke="#000000"
     stroke-width="2.48"
     stroke-linejoin="bevel"
     points="3541.18,456.631 3541.18,373.799"
     id="polyline48"
     transform="translate(-305.41636,-350.28551)" />
  <polyline
     class="Stem"
     fill="none"
     stroke="#000000"
     stroke-width="2.48"
     stroke-linejoin="bevel"
     points="2053.18,456.631 2053.18,373.799"
     id="polyline49"
     transform="translate(-305.41636,-350.28551)" />
  <polyline
     class="Stem"
     fill="none"
     stroke="#000000"
     stroke-width="2.48"
     stroke-linejoin="bevel"
     points="3665.18,469.031 3665.18,386.199"
     id="polyline50"
     transform="translate(-305.41636,-350.28551)" />
  <polyline
     class="Stem"
     fill="none"
     stroke="#000000"
     stroke-width="2.48"
     stroke-linejoin="bevel"
     points="1185.18,493.831 1185.18,410.999"
     id="polyline51"
     transform="translate(-305.41636,-350.28551)" />
  <polyline
     class="Stem"
     fill="none"
     stroke="#000000"
     stroke-width="2.48"
     stroke-linejoin="bevel"
     points="3789.18,481.431 3789.18,398.599"
     id="polyline52"
     transform="translate(-305.41636,-350.28551)" />
  <polyline
     class="Stem"
     fill="none"
     stroke="#000000"
     stroke-width="2.48"
     stroke-linejoin="bevel"
     points="1309.18,481.431 1309.18,398.599"
     id="polyline53"
     transform="translate(-305.41636,-350.28551)" />
  <polyline
     class="Stem"
     fill="none"
     stroke="#000000"
     stroke-width="2.48"
     stroke-linejoin="bevel"
     points="1557.18,481.431 1557.18,398.599"
     id="polyline54"
     transform="translate(-305.41636,-350.28551)" />
  <polyline
     class="Stem"
     fill="none"
     stroke="#000000"
     stroke-width="2.48"
     stroke-linejoin="bevel"
     points="1929.18,469.031 1929.18,386.199"
     id="polyline55"
     transform="translate(-305.41636,-350.28551)" />
  <polyline
     class="Stem"
     fill="none"
     stroke="#000000"
     stroke-width="2.48"
     stroke-linejoin="bevel"
     points="3913.18,493.831 3913.18,410.999"
     id="polyline56"
     transform="translate(-305.41636,-350.28551)" />
  <polyline
     class="Stem"
     fill="none"
     stroke="#000000"
     stroke-width="2.48"
     stroke-linejoin="bevel"
     points="1805.18,481.431 1805.18,398.599"
     id="polyline57"
     transform="translate(-305.41636,-350.28551)" />
  <polyline
     class="Stem"
     fill="none"
     stroke="#000000"
     stroke-width="2.48"
     stroke-linejoin="bevel"
     points="4037.18,506.231 4037.18,423.399"
     id="polyline58"
     transform="translate(-305.41636,-350.28551)" />
  <polyline
     class="Stem"
     fill="none"
     stroke="#000000"
     stroke-width="2.48"
     stroke-linejoin="bevel"
     points="1681.18,493.831 1681.18,410.999"
     id="polyline59"
     transform="translate(-305.41636,-350.28551)" />
  <path
     class="Note"
     d="m 972.77364,139.283 c 0,4.2625 3.069,9.02103 11.11349,9.02103 10.30758,0 21.12657,-8.43203 21.12657,-17.15855 0,-5.859 -4.96,-9.12948 -11.11351,-9.12948 -9.62549,0 -21.12655,8.13748 -21.12655,17.267"
     id="path59"
     style="stroke-width:0.992001" />
  <path
     class="Note"
     d="m 3700.7836,164.083 c 0,4.2625 3.069,9.02103 11.1135,9.02103 10.3076,0 21.1266,-8.43203 21.1266,-17.15855 0,-5.859 -4.96,-9.12948 -11.1135,-9.12948 -9.6255,0 -21.1266,8.13748 -21.1266,17.267"
     id="path60"
     style="stroke-width:0.992001" />
  <path
     class="Note"
     d="m 2832.7836,139.283 c 0,4.2625 3.069,9.02103 11.1135,9.02103 10.3076,0 21.1266,-8.43203 21.1266,-17.15855 0,-5.859 -4.96,-9.12948 -11.1135,-9.12948 -9.6255,0 -21.1266,8.13748 -21.1266,17.267"
     id="path61"
     style="stroke-width:0.992001" />
  <path
     class="Note"
     d="m 3576.7836,151.683 c 0,4.2625 3.069,9.02103 11.1135,9.02103 10.3076,0 21.1266,-8.43203 21.1266,-17.15855 0,-5.859 -4.96,-9.12948 -11.1135,-9.12948 -9.6255,0 -21.1266,8.13748 -21.1266,17.267"
     id="path62"
     style="stroke-width:0.992001" />
  <path
     class="Note"
     d="m 2956.7836,164.083 c 0,4.2625 3.069,9.02103 11.1135,9.02103 10.3076,0 21.1266,-8.43203 21.1266,-17.15855 0,-5.859 -4.96,-9.12948 -11.1135,-9.12948 -9.6255,0 -21.1266,8.13748 -21.1266,17.267"
     id="path63"
     style="stroke-width:0.992001" />
  <path
     class="Note"
     d="m 3452.7836,139.283 c 0,4.2625 3.069,9.02103 11.1135,9.02103 10.3076,0 21.1266,-8.43203 21.1266,-17.15855 0,-5.859 -4.96,-9.12948 -11.1135,-9.12948 -9.6255,0 -21.1266,8.13748 -21.1266,17.267"
     id="path64"
     style="stroke-width:0.992001" />
  <path
     class="Note"
     d="m 3080.7836,164.083 c 0,4.2625 3.069,9.02103 11.1135,9.02103 10.3076,0 21.1266,-8.43203 21.1266,-17.15855 0,-5.859 -4.96,-9.12948 -11.1135,-9.12948 -9.6255,0 -21.1266,8.13748 -21.1266,17.267"
     id="path65"
     style="stroke-width:0.992001" />
  <path
     class="Note"
     d="m 236.96064,164.083 c 0,4.2625 3.069,9.02103 11.11349,9.02103 10.30758,0 21.12654,-8.43203 21.12654,-17.15855 0,-5.859 -4.96,-9.12948 -11.11348,-9.12948 -9.62549,0 -21.12655,8.13748 -21.12655,17.267"
     id="path66"
     style="stroke-width:0.992001" />
  <path
     class="Note"
     d="m 3328.7836,126.883 c 0,4.2625 3.069,9.02103 11.1135,9.02103 10.3076,0 21.1266,-8.43203 21.1266,-17.15855 0,-5.859 -4.96,-9.12948 -11.1135,-9.12948 -9.6255,0 -21.1266,8.13748 -21.1266,17.267"
     id="path67"
     style="stroke-width:0.992001" />
  <path
     class="Note"
     d="m 3204.7836,114.483 c 0,4.2625 3.069,9.02103 11.1135,9.02103 10.3076,0 21.1266,-8.43203 21.1266,-17.15855 0,-5.859 -4.96,-9.129481 -11.1135,-9.129481 -9.6255,0 -21.1266,8.137481 -21.1266,17.267001"
     id="path68"
     style="stroke-width:0.992001" />
  <path
     class="Note"
     d="m 2708.7836,139.283 c 0,4.2625 3.069,9.02103 11.1135,9.02103 10.3076,0 21.1266,-8.43203 21.1266,-17.15855 0,-5.859 -4.96,-9.12948 -11.1135,-9.12948 -9.6255,0 -21.1266,8.13748 -21.1266,17.267"
     id="path69"
     style="stroke-width:0.992001" />
  <path
     class="Note"
     d="m 1220.7736,139.283 c 0,4.2625 3.069,9.02103 11.1135,9.02103 10.3076,0 21.1266,-8.43203 21.1266,-17.15855 0,-5.859 -4.96,-9.12948 -11.1135,-9.12948 -9.6255,0 -21.1266,8.13748 -21.1266,17.267"
     id="path70"
     style="stroke-width:0.992001" />
  <path
     class="Note"
     d="m 1344.7736,151.683 c 0,4.2625 3.069,9.02103 11.1135,9.02103 10.3076,0 21.1266,-8.43203 21.1266,-17.15855 0,-5.859 -4.96,-9.12948 -11.1135,-9.12948 -9.6255,0 -21.1266,8.13748 -21.1266,17.267"
     id="path71"
     style="stroke-width:0.992001" />
  <path
     class="Note"
     d="m 1468.7736,139.283 c 0,4.2625 3.069,9.02103 11.1135,9.02103 10.3076,0 21.1266,-8.43203 21.1266,-17.15855 0,-5.859 -4.96,-9.12948 -11.1135,-9.12948 -9.6255,0 -21.1266,8.13748 -21.1266,17.267"
     id="path72"
     style="stroke-width:0.992001" />
  <path
     class="Note"
     d="m 1592.7736,126.883 c 0,4.2625 3.069,9.02103 11.1135,9.02103 10.3076,0 21.1266,-8.43203 21.1266,-17.15855 0,-5.859 -4.96,-9.12948 -11.1135,-9.12948 -9.6255,0 -21.1266,8.13748 -21.1266,17.267"
     id="path73"
     style="stroke-width:0.992001" />
  <path
     class="Note"
     d="m 848.77364,151.683 c 0,4.2625 3.069,9.02103 11.11349,9.02103 10.30758,0 21.12654,-8.43203 21.12654,-17.15855 0,-5.859 -4.96,-9.12948 -11.11348,-9.12948 -9.62549,0 -21.12655,8.13748 -21.12655,17.267"
     id="path74"
     style="stroke-width:0.992001" />
  <path
     class="Note"
     d="m 724.77364,164.083 c 0,4.2625 3.069,9.02103 11.11349,9.02103 10.30758,0 21.12654,-8.43203 21.12654,-17.15855 0,-5.859 -4.96,-9.12948 -11.11348,-9.12948 -9.62549,0 -21.12655,8.13748 -21.12655,17.267"
     id="path75"
     style="stroke-width:0.992001" />
  <path
     class="Note"
     d="m 1716.7736,114.483 c 0,4.2625 3.069,9.02103 11.1135,9.02103 10.3076,0 21.1266,-8.43203 21.1266,-17.15855 0,-5.859 -4.96,-9.129481 -11.1135,-9.129481 -9.6255,0 -21.1266,8.137481 -21.1266,17.267001"
     id="path76"
     style="stroke-width:0.992001" />
  <path
     class="Note"
     d="m 2212.7836,77.282996 c 0,4.2625 3.069,9.021029 11.1135,9.021029 10.3076,0 21.1266,-8.432028 21.1266,-17.158542 0,-5.859006 -4.96,-9.129484 -11.1135,-9.129484 -9.6255,0 -21.1266,8.137483 -21.1266,17.266997"
     id="path77"
     style="stroke-width:0.992001" />
  <path
     class="Note"
     d="m 480.86864,164.083 c 0,4.2625 3.069,9.02103 11.11349,9.02103 10.30758,0 21.12654,-8.43203 21.12654,-17.15855 0,-5.859 -4.96,-9.12948 -11.11348,-9.12948 -9.62549,0 -21.12655,8.13748 -21.12655,17.267"
     id="path78"
     style="stroke-width:0.992001" />
  <path
     class="Note"
     d="m 2584.7836,114.483 c 0,4.2625 3.069,9.02103 11.1135,9.02103 10.3076,0 21.1266,-8.43203 21.1266,-17.15855 0,-5.859 -4.96,-9.129481 -11.1135,-9.129481 -9.6255,0 -21.1266,8.137481 -21.1266,17.267001"
     id="path79"
     style="stroke-width:0.992001" />
  <path
     class="Note"
     d="m 2460.7836,114.483 c 0,4.2625 3.069,9.02103 11.1135,9.02103 10.3076,0 21.1266,-8.43203 21.1266,-17.15855 0,-5.859 -4.96,-9.129481 -11.1135,-9.129481 -9.6255,0 -21.1266,8.137481 -21.1266,17.267001"
     id="path80"
     style="stroke-width:0.992001" />
  <path
     class="Note"
     d="m 2336.7836,77.282996 c 0,4.2625 3.069,9.021029 11.1135,9.021029 10.3076,0 21.1266,-8.432028 21.1266,-17.158542 0,-5.859006 -4.96,-9.129484 -11.1135,-9.129484 -9.6255,0 -21.1266,8.137483 -21.1266,17.266997"
     id="path81"
     style="stroke-width:0.992001" />
  <path
     class="Clef"
     d="m 110.00017,112.39049 c 0,7.05251 -2.88295,14.29101 -9.92001,17.17407 -2.076949,-11.90407 -4.758427,-27.68308 -5.456002,-32.054135 8.928012,0 15.376012,6.060555 15.376012,14.880065 m -14.089486,18.35207 c -1.984002,0.40295 -3.859479,0.60442 -5.750531,0.60442 -14.18244,0 -26.287997,-9.92001 -26.287997,-24.9085 0,-12.090058 8.525029,-22.90902 17.267038,-30.457552 1.674001,-1.488002 3.270528,-2.867478 4.758529,-4.35548 0.883476,5.347481 1.580952,10.012961 2.278428,14.08949 -9.036435,2.681478 -15.174441,12.198537 -15.174441,21.529542 0,6.94401 5.456006,16.46102 13.392014,16.46102 0.790426,0 1.689477,-0.40295 1.689477,-1.28653 0,-0.89895 -0.992001,-1.39495 -2.185478,-2.18547 -3.875053,-2.38701 -6.060531,-4.96001 -6.060531,-9.82701 0,-6.04501 4.464005,-10.912063 10.322961,-12.29154 l 5.750531,32.62761 M 87.18415,28.76793 c 0.899051,-3.968004 5.456006,-14.384015 10.617585,-14.384015 1.488002,0 3.859475,4.85148 3.859475,11.702438 0,10.32306 -7.626003,18.057592 -14.47706,24.800025 -0.588951,-3.968004 -1.084951,-7.827483 -1.084951,-11.996963 0,-3.673479 0.294525,-7.052532 1.084951,-10.121485 M 66.352129,161.20006 c 0,6.55653 5.053055,15.19002 18.445068,15.19002 4.66548,0 8.742009,-1.19348 12.306963,-3.37905 5.36306,-3.76643 6.74253,-10.32297 6.74253,-16.5695 0,-3.85948 -0.58895,-8.32348 -1.58095,-13.98096 -0.29453,-1.984 -0.89905,-4.96001 -1.488,-8.83506 9.71843,-3.17748 16.95697,-13.29896 16.95697,-23.51352 0,-14.973043 -10.61749,-25.094528 -25.094554,-25.094528 C 91.648155,79.065456 90.656154,73.2064 89.757202,67.657444 100.28174,56.636908 107.52017,44.236896 107.52017,28.473405 c 0,-9.036534 -2.77443,-16.368017 -4.37095,-19.9481484 C 100.77774,3.4720035 97.894686,0 96.112159,0 95.414683,0 92.34573,1.1933772 89.075202,5.0532531 82.720146,12.601389 80.937718,25.295926 80.937718,33.61941 c 0,5.362956 0.496001,10.23001 2.185478,21.343497 -0.108525,0.09305 -5.270006,5.34748 -7.347057,7.037056 -9.036435,8.432009 -21.529497,20.428971 -21.529497,40.284517 0,18.53807 16.166541,33.12356 34.627084,33.12356 2.867478,0 5.548956,-0.29453 7.827483,-0.69748 1.890953,9.53244 2.976003,16.47644 2.976003,21.73097 0,10.32306 -5.25453,15.77907 -15.26749,15.77907 -2.387052,0 -4.464005,-0.496 -4.665579,-0.496 -0.09295,-0.10853 -0.294426,-0.20158 -0.294426,-0.29453 0,-0.20147 0.201475,-0.31 0.496,-0.40305 4.66548,-0.69747 9.315485,-4.66548 9.315485,-11.00496 0,-5.36305 -4.061054,-11.02053 -11.501061,-11.02053 -6.944007,0 -11.408012,5.65748 -11.408012,12.19853"
     id="path82"
     style="stroke-width:0.992001" />
  <path
     class="Clef"
     d="m 79.449717,296.22041 c -7.548533,0 -13.593588,4.35558 -13.702014,4.35558 -5.75055,4.26243 -8.029058,9.33096 -8.928059,12.80298 -0.496,1.78251 -0.682,3.56501 -0.682,5.25451 0,2.38701 0.387505,4.55701 1.286506,6.44801 1.193496,2.68151 3.472003,4.55701 6.448006,5.54901 1.193546,0.403 2.479973,0.60447 3.766499,0.60447 2.185478,0 4.464005,-0.60447 6.355056,-1.68947 3.068954,-1.6895 4.960005,-5.2545 4.960005,-9.12951 0,-3.47201 -1.798002,-6.64951 -4.774005,-8.52502 -2.077051,-1.39497 -4.061053,-1.78254 -5.75053,-1.78254 -1.193477,0 -2.278527,0.186 -3.177479,0.496 -0.992001,0.38757 -2.666052,1.37954 -3.472053,2.07705 0.310001,-1.89105 1.488002,-4.75853 2.588478,-6.35506 1.085051,-1.58095 3.270528,-3.56495 4.960005,-4.464 2.480003,-1.37948 5.65758,-1.984 9.129584,-1.984 10.121485,0 15.08149,8.13758 15.08149,24.80007 0,9.23806 -3.472003,18.05754 -6.448006,23.9165 -3.286004,6.54106 -7.641483,12.80306 -11.516537,16.27507 -10.322961,9.42401 -20.041515,13.88801 -20.134515,13.88801 0,0 -1.193506,0.682 -1.193506,1.87548 0,0.20147 0.093,0.29452 0.093,0.496 0.31,0.992 1.193506,1.19347 1.798002,1.19347 0.093,0 0.387505,-0.0929 0.496,-0.0929 0.093,0 11.408061,-4.66548 20.429021,-11.71801 5.06853,-3.658 9.625485,-7.62601 13.593489,-11.90401 3.565053,-3.85948 6.649581,-8.02906 9.129583,-12.19854 4.355483,-7.44 6.835483,-15.17454 6.835483,-21.82402 0,-8.23051 -2.17,-15.08149 -6.24653,-19.93307 -4.665482,-5.56443 -11.702538,-8.43201 -20.924973,-8.43201 m 31.139503,12.58602 c 0,2.79005 2.18548,4.96005 4.77401,4.96005 2.57295,0 4.75853,-2.17 4.75853,-4.96005 0,-2.77443 -2.18558,-5.05296 -4.75853,-5.05296 -2.58853,0 -4.77401,2.27853 -4.77401,5.05296 m 0,24.50559 c 0,2.77453 2.18548,5.06853 4.77401,5.06853 2.57295,0 4.75853,-2.294 4.75853,-5.06853 0,-2.77452 -2.18558,-5.05302 -4.75853,-5.05302 -2.58853,0 -4.77401,2.2785 -4.77401,5.05302"
     id="path83"
     style="stroke-width:0.992001" />
  <path
     class="TimeSig"
     d="m 164.15719,73.314975 v 7.331582 h -8.23054 c -0.69747,0 -1.39495,0.604426 -1.39495,1.394952 v 1.891051 c 0,0.790427 0.69748,1.379477 1.39495,1.379477 h 30.05456 c 0.806,0 1.39495,-0.58905 1.39495,-1.379477 v -1.891051 c 0,-0.790526 -0.58895,-1.394952 -1.39495,-1.394952 h -8.92801 v -7.331582 h 8.92801 c 0.806,0 1.39495,-0.697476 1.39495,-1.488001 v -1.890973 c 0,-0.697505 -0.58895,-1.379506 -1.39495,-1.379506 H 177.0532 V 52.777479 c 0,-0.589 -0.29452,-1.085001 -0.682,-1.286506 l -1.19348,-0.604496 c -0.20157,-0.093 -0.29452,-0.093 -0.496,-0.093 -0.10852,0 -0.10852,0 -0.20157,0 -0.29443,0 -0.69748,0.093 -0.89895,0.294496 l -9.02106,8.230513 c -0.29443,0.31 -0.40295,0.6975 -0.40295,1.100501 v 8.137508 h -11.50103 c 0,0 11.11355,-11.904012 22.81599,-27.590077 0.40305,-0.496001 0.496,-0.992001 0.496,-1.379477 0,-0.496 -0.20148,-0.898951 -0.29443,-0.992001 l -2.18557,-2.185477 c -0.29443,-0.201476 -0.58895,-0.40305 -0.992,-0.40305 -0.58895,0 -13.99644,0 -14.78697,0 -0.69748,0 -1.19348,0.604525 -1.28653,1.193575 0,0 -0.496,7.346958 -3.069,15.375986 -2.5885,8.044513 -5.5645,13.004518 -8.1375,16.662522 0,0 -0.29451,0.496 -0.29451,1.100506 0,0.201495 0,0.387545 0.093,0.58902 0.29451,0.697476 0.992,1.782527 0.992,1.782527 0,0 0.20151,0.604426 1.08501,0.604426 h 17.06554"
     id="path84"
     style="stroke-width:0.992001" />
  <path
     class="TimeSig"
     d="m 164.15719,122.91498 v 7.33158 h -8.23054 c -0.69747,0 -1.39495,0.60442 -1.39495,1.39495 v 1.89105 c 0,0.79043 0.69748,1.37948 1.39495,1.37948 h 30.05456 c 0.806,0 1.39495,-0.58905 1.39495,-1.37948 v -1.89105 c 0,-0.79053 -0.58895,-1.39495 -1.39495,-1.39495 h -8.92801 v -7.33158 h 8.92801 c 0.806,0 1.39495,-0.69748 1.39495,-1.48801 V 119.536 c 0,-0.6975 -0.58895,-1.3795 -1.39495,-1.3795 h -8.92801 v -15.77902 c 0,-0.589 -0.29452,-1.085 -0.682,-1.28651 l -1.19348,-0.60449 c -0.20157,-0.093 -0.29452,-0.093 -0.496,-0.093 -0.10852,0 -0.10852,0 -0.20157,0 -0.29443,0 -0.69748,0.093 -0.89895,0.29449 l -9.02106,8.23052 c -0.29443,0.31 -0.40295,0.6975 -0.40295,1.1005 v 8.13751 h -11.50103 c 0,0 11.11355,-11.90402 22.81599,-27.590082 0.40305,-0.496001 0.496,-0.992001 0.496,-1.379477 0,-0.496 -0.20148,-0.898951 -0.29443,-0.992001 l -2.18557,-2.185477 c -0.29443,-0.201476 -0.58895,-0.40305 -0.992,-0.40305 -0.58895,0 -13.99644,0 -14.78697,0 -0.69748,0 -1.19348,0.604525 -1.28653,1.193575 0,0 -0.496,7.346958 -3.069,15.375982 -2.5885,8.04452 -5.5645,13.00452 -8.1375,16.66253 0,0 -0.29451,0.496 -0.29451,1.1005 0,0.2015 0,0.38755 0.093,0.58902 0.29451,0.69748 0.992,1.78253 0.992,1.78253 0,0 0.20151,0.60443 1.08501,0.60443 h 17.06554"
     id="path85"
     style="stroke-width:0.992001" />
  <path
     class="TimeSig"
     d="m 164.15719,333.71498 v 7.33158 h -8.23054 c -0.69747,0 -1.39495,0.60442 -1.39495,1.39495 v 1.89105 c 0,0.79043 0.69748,1.37948 1.39495,1.37948 h 30.05456 c 0.806,0 1.39495,-0.58905 1.39495,-1.37948 v -1.89105 c 0,-0.79053 -0.58895,-1.39495 -1.39495,-1.39495 h -8.92801 v -7.33158 h 8.92801 c 0.806,0 1.39495,-0.69748 1.39495,-1.48801 V 330.336 c 0,-0.6975 -0.58895,-1.3795 -1.39495,-1.3795 h -8.92801 v -15.77902 c 0,-0.589 -0.29452,-1.085 -0.682,-1.28651 l -1.19348,-0.60449 c -0.20157,-0.093 -0.29452,-0.093 -0.496,-0.093 -0.10852,0 -0.10852,0 -0.20157,0 -0.29443,0 -0.69748,0.093 -0.89895,0.29449 l -9.02106,8.23052 c -0.29443,0.31 -0.40295,0.6975 -0.40295,1.1005 v 8.13751 h -11.50103 c 0,0 11.11355,-11.90402 22.81599,-27.59008 0.40305,-0.496 0.496,-0.992 0.496,-1.37948 0,-0.496 -0.20148,-0.89895 -0.29443,-0.992 l -2.18557,-2.18548 c -0.29443,-0.20147 -0.58895,-0.40305 -0.992,-0.40305 -0.58895,0 -13.99644,0 -14.78697,0 -0.69748,0 -1.19348,0.60453 -1.28653,1.19358 0,0 -0.496,7.34696 -3.069,15.37598 -2.5885,8.04452 -5.5645,13.00452 -8.1375,16.66253 0,0 -0.29451,0.496 -0.29451,1.1005 0,0.2015 0,0.38755 0.093,0.58902 0.29451,0.69748 0.992,1.78253 0.992,1.78253 0,0 0.20151,0.60443 1.08501,0.60443 h 17.06554"
     id="path86"
     style="stroke-width:0.992001" />
  <path
     class="TimeSig"
     d="m 164.15719,383.31498 v 7.33158 h -8.23054 c -0.69747,0 -1.39495,0.60442 -1.39495,1.39495 v 1.89105 c 0,0.79043 0.69748,1.37948 1.39495,1.37948 h 30.05456 c 0.806,0 1.39495,-0.58905 1.39495,-1.37948 v -1.89105 c 0,-0.79053 -0.58895,-1.39495 -1.39495,-1.39495 h -8.92801 v -7.33158 h 8.92801 c 0.806,0 1.39495,-0.69748 1.39495,-1.48801 V 379.936 c 0,-0.6975 -0.58895,-1.3795 -1.39495,-1.3795 h -8.92801 v -15.77902 c 0,-0.589 -0.29452,-1.085 -0.682,-1.28651 l -1.19348,-0.60449 c -0.20157,-0.093 -0.29452,-0.093 -0.496,-0.093 -0.10852,0 -0.10852,0 -0.20157,0 -0.29443,0 -0.69748,0.093 -0.89895,0.29449 l -9.02106,8.23052 c -0.29443,0.31 -0.40295,0.6975 -0.40295,1.1005 v 8.13751 h -11.50103 c 0,0 11.11355,-11.90402 22.81599,-27.59008 0.40305,-0.496 0.496,-0.992 0.496,-1.37948 0,-0.496 -0.20148,-0.89895 -0.29443,-0.992 l -2.18557,-2.18548 c -0.29443,-0.20147 -0.58895,-0.40305 -0.992,-0.40305 -0.58895,0 -13.99644,0 -14.78697,0 -0.69748,0 -1.19348,0.60453 -1.28653,1.19358 0,0 -0.496,7.34696 -3.069,15.37598 -2.5885,8.04452 -5.5645,13.00452 -8.1375,16.66253 0,0 -0.29451,0.496 -0.29451,1.1005 0,0.2015 0,0.38755 0.093,0.58902 0.29451,0.69748 0.992,1.78253 0.992,1.78253 0,0 0.20151,0.60443 1.08501,0.60443 h 17.06554"
     id="path87"
     style="stroke-width:0.992001" />
  <path
     class="Rest"
     d="m 3935.9436,84.521486 c 0,1.395002 0,1.395002 1.395,1.395002 h 29.4656 c 1.3795,0 1.3795,0 1.3795,-1.395002 V 73.810951 c 0,-1.394952 0,-1.394952 -1.3795,-1.394952 h -29.4656 c -1.395,0 -1.395,0 -1.395,1.394952 v 10.710535"
     id="path88"
     style="stroke-width:0.992001" />
  <path
     class="Rest"
     d="m 1863.5897,101.97455 c -0.093,-0.093 -0.2946,-0.29452 -0.589,-0.682 l -11.408,-14.089556 c -0.1085,-0.108505 -0.2016,-0.403001 -0.2016,-0.604506 0,-0.2945 0.093,-0.682 0.2016,-0.883501 l 10.106,-15.28299 c 0.1084,-0.201575 0.2015,-0.496001 0.2015,-0.697575 v -0.883476 c 0,-0.294525 -0.093,-0.604526 -0.2945,-0.790526 l -16.0735,-21.730972 c 0,0 -0.3876,-0.604526 -0.992,-0.604526 -0.2946,0 -0.496,0.108525 -0.7906,0.310001 -0.403,0.294525 -0.496,0.682 -0.496,0.992001 0,0.58905 0.2945,1.08505 0.2945,1.08505 l 7.5486,10.322961 c 0.186,0.294525 0.2944,0.682001 0.2944,1.178001 0,0.40305 -0.1084,0.899051 -0.2944,1.193477 l -10.0286,15.283065 c -0.093,0.201495 -0.2015,0.589 -0.2015,0.790496 v 0.899 c 0,0.294506 0.1085,0.589001 0.31,0.790506 l 11.0981,13.795014 c -0.3876,-0.108495 -1.2865,-0.31 -2.48,-0.31 -1.6741,0 -3.8595,0.403 -5.6421,1.984002 -2.1855,1.984051 -3.379,4.774054 -3.379,7.254054 0,1.37948 0.2945,2.77443 1.085,3.85948 2.0925,3.17748 9.5325,12.60149 9.5325,12.60149 0,0 0.496,0.60453 1.1936,0.60453 0.186,0 0.3875,0 0.589,-0.20148 0.496,-0.40305 0.6974,-0.79053 0.6974,-1.19358 0,-0.40295 -0.2014,-0.69747 -0.2944,-0.89895 -0.31,-0.496 -3.472,-6.24653 -3.472,-6.24653 0,0 -0.6975,-1.39495 -0.6975,-3.17748 0,-1.28652 0.3875,-2.86747 1.6895,-4.16948 1.178,-1.178 2.573,-1.58105 3.8595,-1.58105 1.2865,0 2.3869,0.40305 3.1775,0.89905 l 3.875,2.48001 c 0,0 0.3875,0.186 0.7904,0.186 0.3876,0 0.6976,-0.0931 0.992,-0.496 0.2016,-0.38758 0.2946,-0.58905 0.2946,-0.88358 0,-0.29443 -0.093,-0.496 -0.2946,-0.79043 l -0.2014,-0.31"
     id="path89"
     style="stroke-width:0.992001" />
  <path
     class="Rest"
     d="m 3841.1797,101.97455 c -0.093,-0.093 -0.2946,-0.29452 -0.589,-0.682 l -11.408,-14.089556 c -0.1085,-0.108505 -0.2016,-0.403001 -0.2016,-0.604506 0,-0.2945 0.093,-0.682 0.2016,-0.883501 l 10.106,-15.28299 c 0.1084,-0.201575 0.2015,-0.496001 0.2015,-0.697575 v -0.883476 c 0,-0.294525 -0.093,-0.604526 -0.2945,-0.790526 l -16.0735,-21.730972 c 0,0 -0.3876,-0.604526 -0.992,-0.604526 -0.2946,0 -0.496,0.108525 -0.7906,0.310001 -0.403,0.294525 -0.496,0.682 -0.496,0.992001 0,0.58905 0.2945,1.08505 0.2945,1.08505 l 7.5486,10.322961 c 0.186,0.294525 0.2944,0.682001 0.2944,1.178001 0,0.40305 -0.1084,0.899051 -0.2944,1.193477 l -10.0286,15.283065 c -0.093,0.201495 -0.2015,0.589 -0.2015,0.790496 v 0.899 c 0,0.294506 0.1085,0.589001 0.31,0.790506 l 11.0981,13.795014 c -0.3876,-0.108495 -1.2865,-0.31 -2.48,-0.31 -1.6741,0 -3.8595,0.403 -5.6421,1.984002 -2.1855,1.984051 -3.379,4.774054 -3.379,7.254054 0,1.37948 0.2945,2.77443 1.085,3.85948 2.0925,3.17748 9.5325,12.60149 9.5325,12.60149 0,0 0.496,0.60453 1.1936,0.60453 0.186,0 0.3875,0 0.589,-0.20148 0.496,-0.40305 0.6974,-0.79053 0.6974,-1.19358 0,-0.40295 -0.2014,-0.69747 -0.2944,-0.89895 -0.31,-0.496 -3.472,-6.24653 -3.472,-6.24653 0,0 -0.6975,-1.39495 -0.6975,-3.17748 0,-1.28652 0.3875,-2.86747 1.6895,-4.16948 1.178,-1.178 2.573,-1.58105 3.8595,-1.58105 1.2865,0 2.3869,0.40305 3.1775,0.89905 l 3.875,2.48001 c 0,0 0.3875,0.186 0.7904,0.186 0.3876,0 0.6976,-0.0931 0.992,-0.496 0.2016,-0.38758 0.2946,-0.58905 0.2946,-0.88358 0,-0.29443 -0.093,-0.496 -0.2946,-0.79043 l -0.2014,-0.31"
     id="path90"
     style="stroke-width:0.992001" />
  <path
     class="Rest"
     d="m 1964.7736,84.521486 c 0,1.395002 0,1.395002 1.395,1.395002 h 29.4656 c 1.3795,0 1.3795,0 1.3795,-1.395002 V 73.810951 c 0,-1.394952 0,-1.394952 -1.3795,-1.394952 h -29.4656 c -1.395,0 -1.395,0 -1.395,1.394952 v 10.710535"
     id="path91"
     style="stroke-width:0.992001" />
  <path
     class="Rest"
     d="m 625.63866,101.97455 c -0.0929,-0.093 -0.29452,-0.29452 -0.58895,-0.682 L 613.6417,87.202994 c -0.10852,-0.108505 -0.20157,-0.403001 -0.20157,-0.604506 0,-0.2945 0.0931,-0.682 0.20157,-0.883501 l 10.10601,-15.28299 c 0.10843,-0.201575 0.20148,-0.496001 0.20148,-0.697575 v -0.883476 c 0,-0.294525 -0.0931,-0.604526 -0.29453,-0.790526 L 607.58115,46.329448 c 0,0 -0.3875,-0.604526 -0.992,-0.604526 -0.2945,0 -0.496,0.108525 -0.79051,0.310001 -0.403,0.294525 -0.496,0.682 -0.496,0.992001 0,0.58905 0.29451,1.08505 0.29451,1.08505 l 7.54855,10.322961 c 0.186,0.294525 0.29443,0.682001 0.29443,1.178001 0,0.40305 -0.10843,0.899051 -0.29443,1.193477 l -10.02856,15.283065 c -0.093,0.201495 -0.2015,0.589 -0.2015,0.790496 v 0.899 c 0,0.294506 0.1085,0.589001 0.31,0.790506 l 11.09806,13.795014 c -0.38757,-0.108495 -1.28652,-0.31 -2.48005,-0.31 -1.674,0 -3.8595,0.403 -5.642,1.984002 -2.1855,1.984051 -3.37901,4.774054 -3.37901,7.254054 0,1.37948 0.2945,2.77443 1.085,3.85948 2.09251,3.17748 9.53249,12.60149 9.53249,12.60149 0,0 0.496,0.60453 1.19357,0.60453 0.186,0 0.38748,0 0.58895,-0.20148 0.496,-0.40305 0.69748,-0.79053 0.69748,-1.19358 0,-0.40295 -0.20148,-0.69747 -0.29443,-0.89895 -0.31,-0.496 -3.47205,-6.24653 -3.47205,-6.24653 0,0 -0.69749,-1.39495 -0.69749,-3.17748 0,-1.28652 0.38749,-2.86747 1.68954,-4.16948 1.178,-1.178 2.57295,-1.58105 3.85948,-1.58105 1.28653,0 2.38695,0.40305 3.17748,0.89905 l 3.87505,2.48001 c 0,0 0.38748,0.186 0.79043,0.186 0.38757,0 0.69757,-0.0931 0.992,-0.496 0.20157,-0.38758 0.29453,-0.58905 0.29453,-0.88358 0,-0.29443 -0.093,-0.496 -0.29453,-0.79043 l -0.20148,-0.31"
     id="path92"
     style="stroke-width:0.992001" />
  <path
     class="Rest"
     d="m 381.73066,101.97455 c -0.0929,-0.093 -0.29452,-0.29452 -0.58895,-0.682 L 369.7337,87.202994 c -0.10852,-0.108505 -0.20157,-0.403001 -0.20157,-0.604506 0,-0.2945 0.0931,-0.682 0.20157,-0.883501 l 10.10601,-15.28299 c 0.10843,-0.201575 0.20148,-0.496001 0.20148,-0.697575 v -0.883476 c 0,-0.294525 -0.093,-0.604526 -0.29453,-0.790526 L 363.67315,46.329448 c 0,0 -0.3875,-0.604526 -0.992,-0.604526 -0.2945,0 -0.496,0.108525 -0.79051,0.310001 -0.403,0.294525 -0.496,0.682 -0.496,0.992001 0,0.58905 0.29451,1.08505 0.29451,1.08505 l 7.54855,10.322961 c 0.186,0.294525 0.29443,0.682001 0.29443,1.178001 0,0.40305 -0.10843,0.899051 -0.29443,1.193477 l -10.02856,15.283065 c -0.093,0.201495 -0.2015,0.589 -0.2015,0.790496 v 0.899 c 0,0.294506 0.1085,0.589001 0.31,0.790506 l 11.09806,13.795014 c -0.38757,-0.108495 -1.28652,-0.31 -2.48005,-0.31 -1.674,0 -3.8595,0.403 -5.642,1.984002 -2.1855,1.984051 -3.37901,4.774054 -3.37901,7.254054 0,1.37948 0.2945,2.77443 1.085,3.85948 2.09251,3.17748 9.53249,12.60149 9.53249,12.60149 0,0 0.496,0.60453 1.19357,0.60453 0.186,0 0.38748,0 0.58895,-0.20148 0.496,-0.40305 0.69748,-0.79053 0.69748,-1.19358 0,-0.40295 -0.20148,-0.69747 -0.29443,-0.89895 -0.31,-0.496 -3.47205,-6.24653 -3.47205,-6.24653 0,0 -0.69749,-1.39495 -0.69749,-3.17748 0,-1.28652 0.38749,-2.86747 1.68954,-4.16948 1.178,-1.178 2.57295,-1.58105 3.85948,-1.58105 1.28653,0 2.38695,0.40305 3.17748,0.89905 l 3.87505,2.48001 c 0,0 0.38748,0.186 0.79043,0.186 0.38757,0 0.69757,-0.0931 0.992,-0.496 0.20157,-0.38758 0.29453,-0.58905 0.29453,-0.88358 0,-0.29443 -0.093,-0.496 -0.29453,-0.79043 l -0.20148,-0.31"
     id="path93"
     style="stroke-width:0.992001" />
  <path
     class="Rest"
     d="m 1119.5897,101.97455 c -0.093,-0.093 -0.2946,-0.29452 -0.589,-0.682 l -11.408,-14.089556 c -0.1085,-0.108505 -0.2016,-0.403001 -0.2016,-0.604506 0,-0.2945 0.093,-0.682 0.2016,-0.883501 l 10.106,-15.28299 c 0.1084,-0.201575 0.2015,-0.496001 0.2015,-0.697575 v -0.883476 c 0,-0.294525 -0.093,-0.604526 -0.2945,-0.790526 l -16.0735,-21.730972 c 0,0 -0.3876,-0.604526 -0.992,-0.604526 -0.2946,0 -0.496,0.108525 -0.7906,0.310001 -0.403,0.294525 -0.496,0.682 -0.496,0.992001 0,0.58905 0.2945,1.08505 0.2945,1.08505 l 7.5486,10.322961 c 0.186,0.294525 0.2944,0.682001 0.2944,1.178001 0,0.40305 -0.1084,0.899051 -0.2944,1.193477 l -10.0286,15.283065 c -0.093,0.201495 -0.2015,0.589 -0.2015,0.790496 v 0.899 c 0,0.294506 0.1085,0.589001 0.31,0.790506 l 11.0981,13.795014 c -0.3876,-0.108495 -1.2865,-0.31 -2.48,-0.31 -1.6741,0 -3.8595,0.403 -5.6421,1.984002 -2.1855,1.984051 -3.379,4.774054 -3.379,7.254054 0,1.37948 0.2945,2.77443 1.085,3.85948 2.0925,3.17748 9.5325,12.60149 9.5325,12.60149 0,0 0.496,0.60453 1.1936,0.60453 0.186,0 0.3875,0 0.589,-0.20148 0.496,-0.40305 0.6974,-0.79053 0.6974,-1.19358 0,-0.40295 -0.2014,-0.69747 -0.2944,-0.89895 -0.31,-0.496 -3.472,-6.24653 -3.472,-6.24653 0,0 -0.6975,-1.39495 -0.6975,-3.17748 0,-1.28652 0.3875,-2.86747 1.6895,-4.16948 1.178,-1.178 2.573,-1.58105 3.8595,-1.58105 1.2865,0 2.3869,0.40305 3.1775,0.89905 l 3.875,2.48001 c 0,0 0.3875,0.186 0.7904,0.186 0.3876,0 0.6976,-0.0931 0.992,-0.496 0.2016,-0.38758 0.2946,-0.58905 0.2946,-0.88358 0,-0.29443 -0.093,-0.496 -0.2946,-0.79043 l -0.2014,-0.31"
     id="path94"
     style="stroke-width:0.992001" />
  <path
     class="Rest"
     d="m 416.55164,320.61749 c -0.806,0 -1.395,0.589 -1.395,1.395 v 10.71048 c 0,0.79053 0.589,1.37958 1.395,1.37958 h 29.46556 c 0.79052,0 1.37947,-0.58905 1.37947,-1.37958 v -10.71048 c 0,-0.806 -0.58895,-1.395 -1.37947,-1.395 h -29.46556"
     id="path95"
     style="stroke-width:0.992001" />
  <path
     class="Rest"
     d="m 3921.2286,320.61749 c -0.806,0 -1.395,0.589 -1.395,1.395 v 10.71048 c 0,0.79053 0.589,1.37958 1.395,1.37958 h 29.4656 c 0.7905,0 1.3795,-0.58905 1.3795,-1.37958 v -10.71048 c 0,-0.806 -0.589,-1.395 -1.3795,-1.395 h -29.4656"
     id="path96"
     style="stroke-width:0.992001" />
  <path
     class="Rest"
     d="m 2917.2586,320.61749 c -0.806,0 -1.395,0.589 -1.395,1.395 v 10.71048 c 0,0.79053 0.589,1.37958 1.395,1.37958 h 29.4656 c 0.7905,0 1.3795,-0.58905 1.3795,-1.37958 v -10.71048 c 0,-0.806 -0.589,-1.395 -1.3795,-1.395 h -29.4656"
     id="path97"
     style="stroke-width:0.992001" />
  <path
     class="Rest"
     d="m 1429.2586,320.61749 c -0.806,0 -1.395,0.589 -1.395,1.395 v 10.71048 c 0,0.79053 0.589,1.37958 1.395,1.37958 h 29.4656 c 0.7905,0 1.3795,-0.58905 1.3795,-1.37958 v -10.71048 c 0,-0.806 -0.589,-1.395 -1.3795,-1.395 h -29.4656"
     id="path98"
     style="stroke-width:0.992001" />
  <path
     class="Rest"
     d="m 933.25864,320.61749 c -0.806,0 -1.395,0.589 -1.395,1.395 v 10.71048 c 0,0.79053 0.589,1.37958 1.395,1.37958 h 29.46556 c 0.79052,0 1.37947,-0.58905 1.37947,-1.37958 v -10.71048 c 0,-0.806 -0.58895,-1.395 -1.37947,-1.395 h -29.46556"
     id="path99"
     style="stroke-width:0.992001" />
  <path
     class="Rest"
     d="m 3413.2586,320.61749 c -0.806,0 -1.395,0.589 -1.395,1.395 v 10.71048 c 0,0.79053 0.589,1.37958 1.395,1.37958 h 29.4656 c 0.7905,0 1.3795,-0.58905 1.3795,-1.37958 v -10.71048 c 0,-0.806 -0.589,-1.395 -1.3795,-1.395 h -29.4656"
     id="path100"
     style="stroke-width:0.992001" />
  <path
     class="Rest"
     d="m 2421.2586,320.61749 c -0.806,0 -1.395,0.589 -1.395,1.395 v 10.71048 c 0,0.79053 0.589,1.37958 1.395,1.37958 h 29.4656 c 0.7905,0 1.3795,-0.58905 1.3795,-1.37958 v -10.71048 c 0,-0.806 -0.589,-1.395 -1.3795,-1.395 h -29.4656"
     id="path101"
     style="stroke-width:0.992001" />
  <path
     class="Rest"
     d="m 1925.2586,320.61749 c -0.806,0 -1.395,0.589 -1.395,1.395 v 10.71048 c 0,0.79053 0.589,1.37958 1.395,1.37958 h 29.4656 c 0.7905,0 1.3795,-0.58905 1.3795,-1.37958 v -10.71048 c 0,-0.806 -0.589,-1.395 -1.3795,-1.395 h -29.4656"
     id="path102"
     style="stroke-width:0.992001" />
  <path
     class="Bracket"
     d="m 3.3985167,215.71349 c 6.4615805,-6.85506 19.0475803,-20.84566 19.0475803,-46.748 0,-32.75741 -14.0468748,-65.85175 -14.0468748,-86.304003 0,-21.969402 12.5859998,-42.47775 13.3164198,-43.152 0,-0.393402 0,-0.393402 0,-0.730347 0,-0.393403 0,-0.730708 -0.337125,-1.067653 -0.393295,0 -1.12375,0 -1.460875,0.67425 -0.337125,0.393403 -19.77800025,19.778 -19.77800025,49.276348 0,31.633655 12.58600025,53.939995 12.58600025,95.293995 0,7.92235 -3.2588753,20.50835 -12.24887525,31.68975 -0.337125,0 -0.337125,0.67425 -0.337125,1.06766 -0.337125,0.33694 0,0.73034 0.337125,1.06765 8.98999995,11.12494 12.24887525,23.71094 12.24887525,31.63329 0,41.354 -12.58600025,63.66071 -12.58600025,95.294 0,29.16148 19.44087525,48.93949 19.77800025,49.27662 0.337125,0.73044 1.06758,1.06756 1.460875,0.73044 0.337125,-0.33713 0.67425,-0.73044 0.337125,-1.06757 0,0 0,-0.39331 0,-0.73043 -0.73042,-0.73046 -13.3164198,-21.23888 -13.3164198,-43.152 0,-20.50835 14.0468748,-53.60306 14.0468748,-86.304 0,-26.23966 -12.5859998,-39.94941 -19.0475803,-46.748"
     id="path103"
     style="stroke-width:3.596" />
</svg>
