<?xml version="1.0" encoding="UTF-8" standalone="no"?>
<svg
   width="433.40457mm"
   height="12.445288mm"
   viewBox="0 0 6142.7421 176.38991"
   version="1.2"
   id="svg112"
   sodipodi:docname="Twinkle-1.svg"
   inkscape:version="1.4.2 (ebf0e94, 2025-05-08)"
   xmlns:inkscape="http://www.inkscape.org/namespaces/inkscape"
   xmlns:sodipodi="http://sodipodi.sourceforge.net/DTD/sodipodi-0.dtd"
   xmlns="http://www.w3.org/2000/svg"
   xmlns:svg="http://www.w3.org/2000/svg">
  <defs
     id="defs112" />
  <sodipodi:namedview
     id="namedview112"
     pagecolor="#ffffff"
     bordercolor="#000000"
     borderopacity="0.25"
     inkscape:showpageshadow="2"
     inkscape:pageopacity="0.0"
     inkscape:pagecheckerboard="0"
     inkscape:deskcolor="#d1d1d1"
     inkscape:document-units="mm"
     inkscape:zoom="0.70750827"
     inkscape:cx="811.29794"
     inkscape:cy="118.01982"
     inkscape:window-width="1920"
     inkscape:window-height="1034"
     inkscape:window-x="-4"
     inkscape:window-y="-4"
     inkscape:window-maximized="1"
     inkscape:current-layer="svg112" />
  <title
     id="title1">Twinkle.mid</title>
  <desc
     id="desc1">Generated by MuseScore Studio 4.5.2</desc>
  <polyline
     class="StaffLines"
     fill="none"
     stroke="#000000"
     stroke-width="2.73"
     stroke-linejoin="bevel"
     points="336.598,386.198 6479.34,386.198"
     id="polyline1"
     transform="translate(-336.598,-350.28462)" />
  <polyline
     class="StaffLines"
     fill="none"
     stroke="#000000"
     stroke-width="2.73"
     stroke-linejoin="bevel"
     points="336.598,410.998 6479.34,410.998"
     id="polyline2"
     transform="translate(-336.598,-350.28462)" />
  <polyline
     class="StaffLines"
     fill="none"
     stroke="#000000"
     stroke-width="2.73"
     stroke-linejoin="bevel"
     points="336.598,435.798 6479.34,435.798"
     id="polyline3"
     transform="translate(-336.598,-350.28462)" />
  <polyline
     class="StaffLines"
     fill="none"
     stroke="#000000"
     stroke-width="2.73"
     stroke-linejoin="bevel"
     points="336.598,460.598 6479.34,460.598"
     id="polyline4"
     transform="translate(-336.598,-350.28462)" />
  <polyline
     class="StaffLines"
     fill="none"
     stroke="#000000"
     stroke-width="2.73"
     stroke-linejoin="bevel"
     points="336.598,485.398 6479.34,485.398"
     id="polyline5"
     transform="translate(-336.598,-350.28462)" />
  <polyline
     class="BarLine"
     fill="none"
     stroke="#000000"
     stroke-width="4.46"
     stroke-linejoin="bevel"
     points="6454.29,384.834 6454.29,486.762"
     id="polyline6"
     transform="translate(-336.598,-350.28462)" />
  <polyline
     class="BarLine"
     fill="none"
     stroke="#000000"
     stroke-width="13.64"
     stroke-linejoin="bevel"
     points="6472.52,384.834 6472.52,486.762"
     id="polyline7"
     transform="translate(-336.598,-350.28462)" />
  <polyline
     class="BarLine"
     fill="none"
     stroke="#000000"
     stroke-width="4.46"
     stroke-linejoin="bevel"
     points="3005.11,384.834 3005.11,486.762"
     id="polyline8"
     transform="translate(-372.11039,-350.28462)" />
  <polyline
     class="BarLine"
     fill="none"
     stroke="#000000"
     stroke-width="4.46"
     stroke-linejoin="bevel"
     points="3501.11,384.834 3501.11,486.762"
     id="polyline9"
     transform="translate(-372.11039,-350.28462)" />
  <polyline
     class="BarLine"
     fill="none"
     stroke="#000000"
     stroke-width="4.46"
     stroke-linejoin="bevel"
     points="4989.11,384.834 4989.11,486.762"
     id="polyline10"
     transform="translate(-372.11039,-350.28462)" />
  <polyline
     class="BarLine"
     fill="none"
     stroke="#000000"
     stroke-width="4.46"
     stroke-linejoin="bevel"
     points="1517.11,384.834 1517.11,486.762"
     id="polyline11"
     transform="translate(-372.11039,-350.28462)" />
  <polyline
     class="BarLine"
     fill="none"
     stroke="#000000"
     stroke-width="4.46"
     stroke-linejoin="bevel"
     points="2509.11,384.834 2509.11,486.762"
     id="polyline12"
     transform="translate(-372.11039,-350.28462)" />
  <polyline
     class="BarLine"
     fill="none"
     stroke="#000000"
     stroke-width="4.46"
     stroke-linejoin="bevel"
     points="5981.11,384.834 5981.11,486.762"
     id="polyline13"
     transform="translate(-372.11039,-350.28462)" />
  <polyline
     class="BarLine"
     fill="none"
     stroke="#000000"
     stroke-width="4.46"
     stroke-linejoin="bevel"
     points="3997.11,384.834 3997.11,486.762"
     id="polyline14"
     transform="translate(-372.11039,-350.28462)" />
  <polyline
     class="BarLine"
     fill="none"
     stroke="#000000"
     stroke-width="4.46"
     stroke-linejoin="bevel"
     points="5485.11,384.834 5485.11,486.762"
     id="polyline15"
     transform="translate(-372.11039,-350.28462)" />
  <polyline
     class="BarLine"
     fill="none"
     stroke="#000000"
     stroke-width="4.46"
     stroke-linejoin="bevel"
     points="2013.11,384.834 2013.11,486.762"
     id="polyline16"
     transform="translate(-372.11039,-350.28462)" />
  <polyline
     class="BarLine"
     fill="none"
     stroke="#000000"
     stroke-width="4.46"
     stroke-linejoin="bevel"
     points="4493.11,384.834 4493.11,486.762"
     id="polyline17"
     transform="translate(-372.11039,-350.28462)" />
  <polyline
     class="BarLine"
     fill="none"
     stroke="#000000"
     stroke-width="4.46"
     stroke-linejoin="bevel"
     points="1021.11,384.834 1021.11,486.762"
     id="polyline18"
     transform="translate(-372.11039,-350.28462)" />
  <polyline
     class="LedgerLine"
     fill="none"
     stroke="#000000"
     stroke-width="3.97"
     stroke-linejoin="bevel"
     points="2289.1,510.198 2337.69,510.198"
     id="polyline19"
     transform="translate(-336.598,-350.28462)" />
  <polyline
     class="LedgerLine"
     fill="none"
     stroke="#000000"
     stroke-width="3.97"
     stroke-linejoin="bevel"
     points="648.179,510.198 696.772,510.198"
     id="polyline20"
     transform="translate(-336.598,-350.28462)" />
  <polyline
     class="LedgerLine"
     fill="none"
     stroke="#000000"
     stroke-width="3.97"
     stroke-linejoin="bevel"
     points="6244.06,510.198 6292.65,510.198"
     id="polyline21"
     transform="translate(-336.598,-350.28462)" />
  <polyline
     class="LedgerLine"
     fill="none"
     stroke="#000000"
     stroke-width="3.97"
     stroke-linejoin="bevel"
     points="527.341,510.198 575.934,510.198"
     id="polyline22"
     transform="translate(-336.598,-350.28462)" />
  <polyline
     class="LedgerLine"
     fill="none"
     stroke="#000000"
     stroke-width="3.97"
     stroke-linejoin="bevel"
     points="4501.54,510.198 4550.13,510.198"
     id="polyline23"
     transform="translate(-336.598,-350.28462)" />
  <polyline
     class="LedgerLine"
     fill="none"
     stroke="#000000"
     stroke-width="3.97"
     stroke-linejoin="bevel"
     points="4620.83,510.198 4669.42,510.198"
     id="polyline24"
     transform="translate(-336.598,-350.28462)" />
  <polyline
     class="Stem"
     fill="none"
     stroke="#000000"
     stroke-width="2.48"
     stroke-linejoin="bevel"
     points="3320.27,493.83 3320.27,410.998"
     id="polyline25"
     transform="translate(-336.598,-350.28462)" />
  <polyline
     class="Stem"
     fill="none"
     stroke="#000000"
     stroke-width="2.48"
     stroke-linejoin="bevel"
     points="6016.81,493.83 6016.81,410.998"
     id="polyline26"
     transform="translate(-336.598,-350.28462)" />
  <polyline
     class="Stem"
     fill="none"
     stroke="#000000"
     stroke-width="2.48"
     stroke-linejoin="bevel"
     points="3180.54,481.43 3180.54,398.598"
     id="polyline27"
     transform="translate(-336.598,-350.28462)" />
  <polyline
     class="Stem"
     fill="none"
     stroke="#000000"
     stroke-width="2.48"
     stroke-linejoin="bevel"
     points="3536.81,456.63 3536.81,373.798"
     id="polyline28"
     transform="translate(-336.598,-350.28462)" />
  <polyline
     class="Stem"
     fill="none"
     stroke="#000000"
     stroke-width="2.48"
     stroke-linejoin="bevel"
     points="3659.07,456.63 3659.07,373.798"
     id="polyline29"
     transform="translate(-336.598,-350.28462)" />
  <polyline
     class="Stem"
     fill="none"
     stroke="#000000"
     stroke-width="2.48"
     stroke-linejoin="bevel"
     points="3781.33,469.03 3781.33,386.198"
     id="polyline30"
     transform="translate(-336.598,-350.28462)" />
  <polyline
     class="Stem"
     fill="none"
     stroke="#000000"
     stroke-width="2.48"
     stroke-linejoin="bevel"
     points="3040.81,481.43 3040.81,398.598"
     id="polyline31"
     transform="translate(-336.598,-350.28462)" />
  <polyline
     class="Stem"
     fill="none"
     stroke="#000000"
     stroke-width="2.48"
     stroke-linejoin="bevel"
     points="6150.02,493.83 6150.02,410.998"
     id="polyline32"
     transform="translate(-336.598,-350.28462)" />
  <polyline
     class="Stem"
     fill="none"
     stroke="#000000"
     stroke-width="2.48"
     stroke-linejoin="bevel"
     points="3903.6,469.03 3903.6,386.198"
     id="polyline33"
     transform="translate(-336.598,-350.28462)" />
  <polyline
     class="Stem"
     fill="none"
     stroke="#000000"
     stroke-width="2.48"
     stroke-linejoin="bevel"
     points="6283.23,506.23 6283.23,423.398"
     id="polyline34"
     transform="translate(-336.598,-350.28462)" />
  <polyline
     class="Stem"
     fill="none"
     stroke="#000000"
     stroke-width="2.48"
     stroke-linejoin="bevel"
     points="4032.81,481.43 4032.81,398.598"
     id="polyline35"
     transform="translate(-336.598,-350.28462)" />
  <polyline
     class="Stem"
     fill="none"
     stroke="#000000"
     stroke-width="2.48"
     stroke-linejoin="bevel"
     points="5887.6,481.43 5887.6,398.598"
     id="polyline36"
     transform="translate(-336.598,-350.28462)" />
  <polyline
     class="Stem"
     fill="none"
     stroke="#000000"
     stroke-width="2.48"
     stroke-linejoin="bevel"
     points="5024.81,444.23 5024.81,367.598"
     id="polyline37"
     transform="translate(-336.598,-350.28462)" />
  <polyline
     class="Stem"
     fill="none"
     stroke="#000000"
     stroke-width="2.48"
     stroke-linejoin="bevel"
     points="4172.54,481.43 4172.54,398.598"
     id="polyline38"
     transform="translate(-336.598,-350.28462)" />
  <polyline
     class="Stem"
     fill="none"
     stroke="#000000"
     stroke-width="2.48"
     stroke-linejoin="bevel"
     points="4312.27,493.83 4312.27,410.998"
     id="polyline39"
     transform="translate(-336.598,-350.28462)" />
  <polyline
     class="Stem"
     fill="none"
     stroke="#000000"
     stroke-width="2.48"
     stroke-linejoin="bevel"
     points="5765.33,481.43 5765.33,398.598"
     id="polyline40"
     transform="translate(-336.598,-350.28462)" />
  <polyline
     class="Stem"
     fill="none"
     stroke="#000000"
     stroke-width="2.48"
     stroke-linejoin="bevel"
     points="5643.07,469.03 5643.07,386.198"
     id="polyline41"
     transform="translate(-336.598,-350.28462)" />
  <polyline
     class="Stem"
     fill="none"
     stroke="#000000"
     stroke-width="2.48"
     stroke-linejoin="bevel"
     points="5520.81,469.03 5520.81,386.198"
     id="polyline42"
     transform="translate(-336.598,-350.28462)" />
  <polyline
     class="Stem"
     fill="none"
     stroke="#000000"
     stroke-width="2.48"
     stroke-linejoin="bevel"
     points="4540.71,506.23 4540.71,423.398"
     id="polyline43"
     transform="translate(-336.598,-350.28462)" />
  <polyline
     class="Stem"
     fill="none"
     stroke="#000000"
     stroke-width="2.48"
     stroke-linejoin="bevel"
     points="4660,506.23 4660,423.398"
     id="polyline44"
     transform="translate(-336.598,-350.28462)" />
  <polyline
     class="Stem"
     fill="none"
     stroke="#000000"
     stroke-width="2.48"
     stroke-linejoin="bevel"
     points="4779.29,456.63 4779.29,373.798"
     id="polyline45"
     transform="translate(-336.598,-350.28462)" />
  <polyline
     class="Stem"
     fill="none"
     stroke="#000000"
     stroke-width="2.48"
     stroke-linejoin="bevel"
     points="4898.57,456.63 4898.57,373.798"
     id="polyline46"
     transform="translate(-336.598,-350.28462)" />
  <polyline
     class="Stem"
     fill="none"
     stroke="#000000"
     stroke-width="2.48"
     stroke-linejoin="bevel"
     points="5304.27,456.63 5304.27,373.798"
     id="polyline47"
     transform="translate(-336.598,-350.28462)" />
  <polyline
     class="Stem"
     fill="none"
     stroke="#000000"
     stroke-width="2.48"
     stroke-linejoin="bevel"
     points="5164.54,444.23 5164.54,367.598"
     id="polyline48"
     transform="translate(-336.598,-350.28462)" />
  <polyline
     class="Stem"
     fill="none"
     stroke="#000000"
     stroke-width="2.48"
     stroke-linejoin="bevel"
     points="2544.81,456.63 2544.81,373.798"
     id="polyline49"
     transform="translate(-336.598,-350.28462)" />
  <polyline
     class="Stem"
     fill="none"
     stroke="#000000"
     stroke-width="2.48"
     stroke-linejoin="bevel"
     points="1056.81,444.23 1056.81,367.598"
     id="polyline50"
     transform="translate(-336.598,-350.28462)" />
  <polyline
     class="Stem"
     fill="none"
     stroke="#000000"
     stroke-width="2.48"
     stroke-linejoin="bevel"
     points="2048.81,493.83 2048.81,410.998"
     id="polyline51"
     transform="translate(-336.598,-350.28462)" />
  <polyline
     class="Stem"
     fill="none"
     stroke="#000000"
     stroke-width="2.48"
     stroke-linejoin="bevel"
     points="1919.6,481.43 1919.6,398.598"
     id="polyline52"
     transform="translate(-336.598,-350.28462)" />
  <polyline
     class="Stem"
     fill="none"
     stroke="#000000"
     stroke-width="2.48"
     stroke-linejoin="bevel"
     points="929.024,456.63 929.024,373.798"
     id="polyline53"
     transform="translate(-336.598,-350.28462)" />
  <polyline
     class="Stem"
     fill="none"
     stroke="#000000"
     stroke-width="2.48"
     stroke-linejoin="bevel"
     points="2188.54,493.83 2188.54,410.998"
     id="polyline54"
     transform="translate(-336.598,-350.28462)" />
  <polyline
     class="Stem"
     fill="none"
     stroke="#000000"
     stroke-width="2.48"
     stroke-linejoin="bevel"
     points="1797.33,481.43 1797.33,398.598"
     id="polyline55"
     transform="translate(-336.598,-350.28462)" />
  <polyline
     class="Stem"
     fill="none"
     stroke="#000000"
     stroke-width="2.48"
     stroke-linejoin="bevel"
     points="2328.27,506.23 2328.27,423.398"
     id="polyline56"
     transform="translate(-336.598,-350.28462)" />
  <polyline
     class="Stem"
     fill="none"
     stroke="#000000"
     stroke-width="2.48"
     stroke-linejoin="bevel"
     points="808.186,456.63 808.186,373.798"
     id="polyline57"
     transform="translate(-336.598,-350.28462)" />
  <polyline
     class="Stem"
     fill="none"
     stroke="#000000"
     stroke-width="2.48"
     stroke-linejoin="bevel"
     points="1196.54,444.23 1196.54,367.598"
     id="polyline58"
     transform="translate(-336.598,-350.28462)" />
  <polyline
     class="Stem"
     fill="none"
     stroke="#000000"
     stroke-width="2.48"
     stroke-linejoin="bevel"
     points="1675.07,469.03 1675.07,386.198"
     id="polyline59"
     transform="translate(-336.598,-350.28462)" />
  <polyline
     class="Stem"
     fill="none"
     stroke="#000000"
     stroke-width="2.48"
     stroke-linejoin="bevel"
     points="687.348,506.23 687.348,423.398"
     id="polyline60"
     transform="translate(-336.598,-350.28462)" />
  <polyline
     class="Stem"
     fill="none"
     stroke="#000000"
     stroke-width="2.48"
     stroke-linejoin="bevel"
     points="2667.07,456.63 2667.07,373.798"
     id="polyline61"
     transform="translate(-336.598,-350.28462)" />
  <polyline
     class="Stem"
     fill="none"
     stroke="#000000"
     stroke-width="2.48"
     stroke-linejoin="bevel"
     points="2789.33,469.03 2789.33,386.198"
     id="polyline62"
     transform="translate(-336.598,-350.28462)" />
  <polyline
     class="Stem"
     fill="none"
     stroke="#000000"
     stroke-width="2.48"
     stroke-linejoin="bevel"
     points="566.51,506.23 566.51,423.398"
     id="polyline63"
     transform="translate(-336.598,-350.28462)" />
  <polyline
     class="Stem"
     fill="none"
     stroke="#000000"
     stroke-width="2.48"
     stroke-linejoin="bevel"
     points="1336.27,456.63 1336.27,373.798"
     id="polyline64"
     transform="translate(-336.598,-350.28462)" />
  <polyline
     class="Stem"
     fill="none"
     stroke="#000000"
     stroke-width="2.48"
     stroke-linejoin="bevel"
     points="1552.81,469.03 1552.81,386.198"
     id="polyline65"
     transform="translate(-336.598,-350.28462)" />
  <polyline
     class="Stem"
     fill="none"
     stroke="#000000"
     stroke-width="2.48"
     stroke-linejoin="bevel"
     points="2911.6,469.03 2911.6,386.198"
     id="polyline66"
     transform="translate(-336.598,-350.28462)" />
  <path
     class="Note"
     d="m 4657.222,102.08288 c 0,4.2625 3.069,9.02102 11.1135,9.02102 10.3075,0 21.1265,-8.43202 21.1265,-17.158524 0,-5.859 -4.96,-9.129475 -11.1135,-9.129475 -9.6255,0 -21.1265,8.137475 -21.1265,17.266979"
     id="path66"
     style="stroke-width:0.992" />
  <path
     class="Note"
     d="m 989.80852,97.215901 c -9.62547,0 -21.12652,8.044479 -21.12652,17.266979 0,4.2625 3.069,9.02102 11.11348,9.02102 10.30757,0 21.12652,-8.43202 21.12652,-17.15852 0,-5.859 -4.96,-9.129479 -11.11348,-9.129479 m -2.68147,17.468479 c -0.29453,0.186 -7.53305,4.154 -11.00505,4.154 -3.2705,0 -3.968,-2.666 -3.968,-3.565 0,-4.1695 9.92,-9.021 10.32305,-9.22251 0.38747,-0.20149 7.44,-4.16949 11.00495,-4.16949 2.38705,0 3.968,1.395 3.968,3.565 0,4.278 -10.01295,9.0365 -10.32295,9.238"
     id="path67"
     style="stroke-width:0.992" />
  <path
     class="Note"
     d="m 4796.952,102.08288 c 0,4.2625 3.069,9.02102 11.1135,9.02102 10.3075,0 21.1265,-8.43202 21.1265,-17.158524 0,-5.859 -4.96,-9.129475 -11.1135,-9.129475 -9.6255,0 -21.1265,8.137475 -21.1265,17.266979"
     id="path68"
     style="stroke-width:0.992" />
  <path
     class="Note"
     d="m 828.952,102.08288 c 0,4.2625 3.069,9.02102 11.11348,9.02102 10.30757,0 21.12652,-8.43202 21.12652,-17.158524 0,-5.859 -4.96,-9.129475 -11.11348,-9.129475 -9.62547,0 -21.12652,8.137475 -21.12652,17.266979"
     id="path69"
     style="stroke-width:0.992" />
  <path
     class="Note"
     d="m 689.222,102.08288 c 0,4.2625 3.069,9.02102 11.11348,9.02102 10.30757,0 21.12652,-8.43202 21.12652,-17.158524 0,-5.859 -4.96,-9.129475 -11.11348,-9.129475 -9.62547,0 -21.12652,8.137475 -21.12652,17.266979"
     id="path70"
     style="stroke-width:0.992" />
  <path
     class="Note"
     d="m 2673.222,139.28288 c 0,4.2625 3.069,9.02102 11.1135,9.02102 10.3075,0 21.1265,-8.43202 21.1265,-17.15852 0,-5.859 -4.96,-9.12948 -11.1135,-9.12948 -9.6255,0 -21.1265,8.13748 -21.1265,17.26698"
     id="path71"
     style="stroke-width:0.992" />
  <path
     class="Note"
     d="m 4957.8085,97.215901 c -9.6255,0 -21.1265,8.044479 -21.1265,17.266979 0,4.2625 3.069,9.02102 11.1135,9.02102 10.3075,0 21.1265,-8.43202 21.1265,-17.15852 0,-5.859 -4.96,-9.129479 -11.1135,-9.129479 m -2.6815,17.468479 c -0.2945,0.186 -7.533,4.154 -11.005,4.154 -3.2705,0 -3.968,-2.666 -3.968,-3.565 0,-4.1695 9.92,-9.021 10.323,-9.22251 0.3875,-0.20149 7.44,-4.16949 11.005,-4.16949 2.387,0 3.968,1.395 3.968,3.565 0,4.278 -10.013,9.0365 -10.323,9.238"
     id="path72"
     style="stroke-width:0.992" />
  <path
     class="Note"
     d="m 561.441,114.48288 c 0,4.2625 3.069,9.02102 11.11348,9.02102 10.30757,0 21.12652,-8.43202 21.12652,-17.15852 0,-5.859 -4.96,-9.129479 -11.11348,-9.129479 -9.62547,0 -21.12652,8.137479 -21.12652,17.266979"
     id="path73"
     style="stroke-width:0.992" />
  <path
     class="Note"
     d="m 5153.222,126.88288 c 0,4.2625 3.069,9.02102 11.1135,9.02102 10.3075,0 21.1265,-8.43202 21.1265,-17.15852 0,-5.859 -4.96,-9.12948 -11.1135,-9.12948 -9.6255,0 -21.1265,8.13748 -21.1265,17.26698"
     id="path74"
     style="stroke-width:0.992" />
  <path
     class="Note"
     d="m 440.603,114.48288 c 0,4.2625 3.069,9.02102 11.11348,9.02102 10.30757,0 21.12652,-8.43202 21.12652,-17.15852 0,-5.859 -4.96,-9.129479 -11.11348,-9.129479 -9.62547,0 -21.12652,8.137479 -21.12652,17.266979"
     id="path75"
     style="stroke-width:0.992" />
  <path
     class="Note"
     d="m 5275.492,126.88288 c 0,4.2625 3.069,9.02102 11.1135,9.02102 10.3075,0 21.1265,-8.43202 21.1265,-17.15852 0,-5.859 -4.96,-9.12948 -11.1135,-9.12948 -9.6255,0 -21.1265,8.13748 -21.1265,17.26698"
     id="path76"
     style="stroke-width:0.992" />
  <path
     class="Note"
     d="m 5397.752,139.28288 c 0,4.2625 3.069,9.02102 11.1135,9.02102 10.3075,0 21.1265,-8.43202 21.1265,-17.15852 0,-5.859 -4.96,-9.12948 -11.1135,-9.12948 -9.6255,0 -21.1265,8.13748 -21.1265,17.26698"
     id="path77"
     style="stroke-width:0.992" />
  <path
     class="Note"
     d="m 319.765,164.08288 c 0,4.2625 3.069,9.02102 11.11348,9.02102 10.30757,0 21.12652,-8.43202 21.12652,-17.15852 0,-5.859 -4.96,-9.12948 -11.11348,-9.12948 -9.62547,0 -21.12652,8.13748 -21.12652,17.26698"
     id="path78"
     style="stroke-width:0.992" />
  <path
     class="Note"
     d="m 5520.012,139.28288 c 0,4.2625 3.069,9.02102 11.1135,9.02102 10.3075,0 21.1265,-8.43202 21.1265,-17.15852 0,-5.859 -4.96,-9.12948 -11.1135,-9.12948 -9.6255,0 -21.1265,8.13748 -21.1265,17.26698"
     id="path79"
     style="stroke-width:0.992" />
  <path
     class="Note"
     d="m 198.927,164.08288 c 0,4.2625 3.069,9.02102 11.11348,9.02102 10.30757,0 21.12652,-8.43202 21.12652,-17.15852 0,-5.859 -4.96,-9.12948 -11.11348,-9.12948 -9.62547,0 -21.12652,8.13748 -21.12652,17.26698"
     id="path80"
     style="stroke-width:0.992" />
  <path
     class="Note"
     d="m 5649.222,151.68288 c 0,4.2625 3.069,9.02102 11.1135,9.02102 10.3075,0 21.1265,-8.43202 21.1265,-17.15852 0,-5.859 -4.96,-9.12948 -11.1135,-9.12948 -9.6255,0 -21.1265,8.13748 -21.1265,17.26698"
     id="path81"
     style="stroke-width:0.992" />
  <path
     class="Note"
     d="m 5936.7685,146.8159 c -9.6255,0 -21.1265,8.04448 -21.1265,17.26698 0,4.2625 3.069,9.02102 11.1135,9.02102 10.3075,0 21.1265,-8.43202 21.1265,-17.15852 0,-5.859 -4.96,-9.12948 -11.1135,-9.12948 m -2.6815,17.46848 c -0.2945,0.186 -7.533,4.154 -11.005,4.154 -3.2705,0 -3.968,-2.666 -3.968,-3.565 0,-4.1695 9.92,-9.021 10.323,-9.22251 0.3875,-0.20149 7.44,-4.16949 11.005,-4.16949 2.387,0 3.968,1.395 3.968,3.565 0,4.278 -10.013,9.0365 -10.323,9.238"
     id="path82"
     style="stroke-width:0.992" />
  <path
     class="Note"
     d="m 5782.432,151.68288 c 0,4.2625 3.069,9.02102 11.1135,9.02102 10.3075,0 21.1265,-8.43202 21.1265,-17.15852 0,-5.859 -4.96,-9.12948 -11.1135,-9.12948 -9.6255,0 -21.1265,8.13748 -21.1265,17.26698"
     id="path83"
     style="stroke-width:0.992" />
  <path
     class="Note"
     d="m 4411.702,114.48288 c 0,4.2625 3.069,9.02102 11.1135,9.02102 10.3075,0 21.1265,-8.43202 21.1265,-17.15852 0,-5.859 -4.96,-9.129479 -11.1135,-9.129479 -9.6255,0 -21.1265,8.137479 -21.1265,17.266979"
     id="path84"
     style="stroke-width:0.992" />
  <path
     class="Note"
     d="m 2544.012,126.88288 c 0,4.2625 3.069,9.02102 11.1135,9.02102 10.3075,0 21.1265,-8.43202 21.1265,-17.15852 0,-5.859 -4.96,-9.12948 -11.1135,-9.12948 -9.6255,0 -21.1265,8.13748 -21.1265,17.26698"
     id="path85"
     style="stroke-width:0.992" />
  <path
     class="Note"
     d="m 2812.952,139.28288 c 0,4.2625 3.069,9.02102 11.1135,9.02102 10.3075,0 21.1265,-8.43202 21.1265,-17.15852 0,-5.859 -4.96,-9.12948 -11.1135,-9.12948 -9.6255,0 -21.1265,8.13748 -21.1265,17.26698"
     id="path86"
     style="stroke-width:0.992" />
  <path
     class="Note"
     d="m 2421.752,126.88288 c 0,4.2625 3.069,9.02102 11.1135,9.02102 10.3075,0 21.1265,-8.43202 21.1265,-17.15852 0,-5.859 -4.96,-9.12948 -11.1135,-9.12948 -9.6255,0 -21.1265,8.13748 -21.1265,17.26698"
     id="path87"
     style="stroke-width:0.992" />
  <path
     class="Note"
     d="m 2973.8085,134.4159 c -9.6255,0 -21.1265,8.04448 -21.1265,17.26698 0,4.2625 3.069,9.02102 11.1135,9.02102 10.3075,0 21.1265,-8.43202 21.1265,-17.15852 0,-5.859 -4.96,-9.12948 -11.1135,-9.12948 m -2.6815,17.46848 c -0.2945,0.186 -7.533,4.154 -11.005,4.154 -3.2705,0 -3.968,-2.666 -3.968,-3.565 0,-4.1695 9.92,-9.021 10.323,-9.22251 0.3875,-0.20149 7.44,-4.16949 11.005,-4.16949 2.387,0 3.968,1.395 3.968,3.565 0,4.278 -10.013,9.0365 -10.323,9.238"
     id="path88"
     style="stroke-width:0.992" />
  <path
     class="Note"
     d="m 2299.492,114.48288 c 0,4.2625 3.069,9.02102 11.1135,9.02102 10.3075,0 21.1265,-8.43202 21.1265,-17.15852 0,-5.859 -4.96,-9.129479 -11.1135,-9.129479 -9.6255,0 -21.1265,8.137479 -21.1265,17.266979"
     id="path89"
     style="stroke-width:0.992" />
  <path
     class="Note"
     d="m 3169.222,114.48288 c 0,4.2625 3.069,9.02102 11.1135,9.02102 10.3075,0 21.1265,-8.43202 21.1265,-17.15852 0,-5.859 -4.96,-9.129479 -11.1135,-9.129479 -9.6255,0 -21.1265,8.137479 -21.1265,17.266979"
     id="path90"
     style="stroke-width:0.992" />
  <path
     class="Note"
     d="m 2177.222,114.48288 c 0,4.2625 3.069,9.02102 11.1135,9.02102 10.3075,0 21.1265,-8.43202 21.1265,-17.15852 0,-5.859 -4.96,-9.129479 -11.1135,-9.129479 -9.6255,0 -21.1265,8.137479 -21.1265,17.266979"
     id="path91"
     style="stroke-width:0.992" />
  <path
     class="Note"
     d="m 3291.492,114.48288 c 0,4.2625 3.069,9.02102 11.1135,9.02102 10.3075,0 21.1265,-8.43202 21.1265,-17.15852 0,-5.859 -4.96,-9.129479 -11.1135,-9.129479 -9.6255,0 -21.1265,8.137479 -21.1265,17.266979"
     id="path92"
     style="stroke-width:0.992" />
  <path
     class="Note"
     d="m 3413.752,126.88288 c 0,4.2625 3.069,9.02102 11.1135,9.02102 10.3075,0 21.1265,-8.43202 21.1265,-17.15852 0,-5.859 -4.96,-9.12948 -11.1135,-9.12948 -9.6255,0 -21.1265,8.13748 -21.1265,17.26698"
     id="path93"
     style="stroke-width:0.992" />
  <path
     class="Note"
     d="m 1981.8085,146.8159 c -9.6255,0 -21.1265,8.04448 -21.1265,17.26698 0,4.2625 3.069,9.02102 11.1135,9.02102 10.3075,0 21.1265,-8.43202 21.1265,-17.15852 0,-5.859 -4.96,-9.12948 -11.1135,-9.12948 m -2.6815,17.46848 c -0.2945,0.186 -7.533,4.154 -11.005,4.154 -3.2705,0 -3.968,-2.666 -3.968,-3.565 0,-4.1695 9.92,-9.021 10.323,-9.22251 0.3875,-0.20149 7.44,-4.16949 11.005,-4.16949 2.387,0 3.968,1.395 3.968,3.565 0,4.278 -10.013,9.0365 -10.323,9.238"
     id="path94"
     style="stroke-width:0.992" />
  <path
     class="Note"
     d="m 3536.012,126.88288 c 0,4.2625 3.069,9.02102 11.1135,9.02102 10.3075,0 21.1265,-8.43202 21.1265,-17.15852 0,-5.859 -4.96,-9.12948 -11.1135,-9.12948 -9.6255,0 -21.1265,8.13748 -21.1265,17.26698"
     id="path95"
     style="stroke-width:0.992" />
  <path
     class="Note"
     d="m 1820.952,151.68288 c 0,4.2625 3.069,9.02102 11.1135,9.02102 10.3075,0 21.1265,-8.43202 21.1265,-17.15852 0,-5.859 -4.96,-9.12948 -11.1135,-9.12948 -9.6255,0 -21.1265,8.13748 -21.1265,17.26698"
     id="path96"
     style="stroke-width:0.992" />
  <path
     class="Note"
     d="m 3665.222,139.28288 c 0,4.2625 3.069,9.02102 11.1135,9.02102 10.3075,0 21.1265,-8.43202 21.1265,-17.15852 0,-5.859 -4.96,-9.12948 -11.1135,-9.12948 -9.6255,0 -21.1265,8.13748 -21.1265,17.26698"
     id="path97"
     style="stroke-width:0.992" />
  <path
     class="Note"
     d="m 1681.222,151.68288 c 0,4.2625 3.069,9.02102 11.1135,9.02102 10.3075,0 21.1265,-8.43202 21.1265,-17.15852 0,-5.859 -4.96,-9.12948 -11.1135,-9.12948 -9.6255,0 -21.1265,8.13748 -21.1265,17.26698"
     id="path98"
     style="stroke-width:0.992" />
  <path
     class="Note"
     d="m 3804.952,139.28288 c 0,4.2625 3.069,9.02102 11.1135,9.02102 10.3075,0 21.1265,-8.43202 21.1265,-17.15852 0,-5.859 -4.96,-9.12948 -11.1135,-9.12948 -9.6255,0 -21.1265,8.13748 -21.1265,17.26698"
     id="path99"
     style="stroke-width:0.992" />
  <path
     class="Note"
     d="m 3965.8085,134.4159 c -9.6255,0 -21.1265,8.04448 -21.1265,17.26698 0,4.2625 3.069,9.02102 11.1135,9.02102 10.3075,0 21.1265,-8.43202 21.1265,-17.15852 0,-5.859 -4.96,-9.12948 -11.1135,-9.12948 m -2.6815,17.46848 c -0.2945,0.186 -7.533,4.154 -11.005,4.154 -3.2705,0 -3.968,-2.666 -3.968,-3.565 0,-4.1695 9.92,-9.021 10.323,-9.22251 0.3875,-0.20149 7.44,-4.16949 11.005,-4.16949 2.387,0 3.968,1.395 3.968,3.565 0,4.278 -10.013,9.0365 -10.323,9.238"
     id="path100"
     style="stroke-width:0.992" />
  <path
     class="Note"
     d="m 1552.012,139.28288 c 0,4.2625 3.069,9.02102 11.1135,9.02102 10.3075,0 21.1265,-8.43202 21.1265,-17.15852 0,-5.859 -4.96,-9.12948 -11.1135,-9.12948 -9.6255,0 -21.1265,8.13748 -21.1265,17.26698"
     id="path101"
     style="stroke-width:0.992" />
  <path
     class="Note"
     d="m 1429.752,139.28288 c 0,4.2625 3.069,9.02102 11.1135,9.02102 10.3075,0 21.1265,-8.43202 21.1265,-17.15852 0,-5.859 -4.96,-9.12948 -11.1135,-9.12948 -9.6255,0 -21.1265,8.13748 -21.1265,17.26698"
     id="path102"
     style="stroke-width:0.992" />
  <path
     class="Note"
     d="m 4173.132,164.08288 c 0,4.2625 3.069,9.02102 11.1135,9.02102 10.3075,0 21.1265,-8.43202 21.1265,-17.15852 0,-5.859 -4.96,-9.12948 -11.1135,-9.12948 -9.6255,0 -21.1265,8.13748 -21.1265,17.26698"
     id="path103"
     style="stroke-width:0.992" />
  <path
     class="Note"
     d="m 1307.492,126.88288 c 0,4.2625 3.069,9.02102 11.1135,9.02102 10.3075,0 21.1265,-8.43202 21.1265,-17.15852 0,-5.859 -4.96,-9.12948 -11.1135,-9.12948 -9.6255,0 -21.1265,8.13748 -21.1265,17.26698"
     id="path104"
     style="stroke-width:0.992" />
  <path
     class="Note"
     d="m 4292.412,164.08288 c 0,4.2625 3.069,9.02102 11.1135,9.02102 10.3075,0 21.1265,-8.43202 21.1265,-17.15852 0,-5.859 -4.96,-9.12948 -11.1135,-9.12948 -9.6255,0 -21.1265,8.13748 -21.1265,17.26698"
     id="path105"
     style="stroke-width:0.992" />
  <path
     class="Note"
     d="m 1185.222,126.88288 c 0,4.2625 3.069,9.02102 11.1135,9.02102 10.3075,0 21.1265,-8.43202 21.1265,-17.15852 0,-5.859 -4.96,-9.12948 -11.1135,-9.12948 -9.6255,0 -21.1265,8.13748 -21.1265,17.26698"
     id="path106"
     style="stroke-width:0.992" />
  <path
     class="Note"
     d="m 4530.992,114.48288 c 0,4.2625 3.069,9.02102 11.1135,9.02102 10.3075,0 21.1265,-8.43202 21.1265,-17.15852 0,-5.859 -4.96,-9.129479 -11.1135,-9.129479 -9.6255,0 -21.1265,8.137479 -21.1265,17.266979"
     id="path107"
     style="stroke-width:0.992" />
  <path
     class="Clef"
     d="m 74.353475,112.39038 c 0,7.0525 -2.88295,14.291 -9.92,17.17405 -2.07695,-11.90405 -4.758425,-27.68305 -5.456,-32.054104 8.928,0 15.376,6.060544 15.376,14.880054 M 60.264,130.74243 c -1.984,0.40295 -3.859475,0.60442 -5.750525,0.60442 -14.182425,0 -26.28797,-9.92 -26.28797,-24.90847 0,-12.090054 8.52502,-22.909004 17.26702,-30.457529 1.674,-1.488 3.270525,-2.867475 4.758525,-4.355475 0.883475,5.347475 1.58095,10.01295 2.278425,14.089475 -9.036425,2.681475 -15.174425,12.198525 -15.174425,21.529529 0,6.944 5.456,16.461 13.392,16.461 0.790425,0 1.689475,-0.40295 1.689475,-1.28653 0,-0.89895 -0.992,-1.39495 -2.185475,-2.18547 -3.87505,-2.387 -6.060525,-4.96 -6.060525,-9.827 0,-6.045 4.464,-10.912054 10.32295,-12.291529 L 60.264,130.74243 M 51.537475,28.767901 c 0.89905,-3.968 5.456,-14.384 10.617575,-14.384 1.488,0 3.859475,4.851475 3.859475,11.702425 0,10.32305 -7.626,18.057575 -14.47705,24.8 -0.58895,-3.968 -1.08495,-7.827475 -1.08495,-11.99695 0,-3.673475 0.294525,-7.052525 1.08495,-10.121475 m -20.832,132.431999 c 0,6.55653 5.05305,15.19 18.44505,15.19 4.665475,0 8.742,-1.19347 12.30695,-3.37905 C 66.820525,169.24443 68.2,162.6879 68.2,156.44138 c 0,-3.85948 -0.58895,-8.32348 -1.58095,-13.98095 -0.294525,-1.984 -0.89905,-4.96 -1.488,-8.83505 9.718425,-3.17748 16.95695,-13.29895 16.95695,-23.5135 0,-14.973029 -10.617475,-25.094504 -25.094525,-25.094504 -0.992,-5.952 -1.984,-11.81105 -2.88295,-17.36 10.524525,-11.020525 17.76295,-23.420525 17.76295,-39.184 0,-9.036525 -2.774425,-16.368 -4.37095,-19.948128 C 65.13105,3.472 62.248,0 60.465475,0 59.768,0 56.69905,1.193376 53.428525,5.053248 c -6.35505,7.548128 -8.137475,20.242653 -8.137475,28.566128 0,5.36295 0.496,10.23 2.185475,21.343475 -0.108525,0.09305 -5.27,5.347475 -7.34705,7.03705 C 31.09305,70.431901 18.6,82.428851 18.6,102.28438 c 0,18.53805 16.166525,33.12352 34.62705,33.12352 2.867475,0 5.54895,-0.29452 7.827475,-0.69747 1.89095,9.53242 2.976,16.47642 2.976,21.73095 0,10.32305 -5.254525,15.77905 -15.267475,15.77905 -2.38705,0 -4.464,-0.496 -4.665575,-0.496 -0.09295,-0.10853 -0.294425,-0.20158 -0.294425,-0.29453 0,-0.20147 0.201475,-0.31 0.496,-0.40305 4.665475,-0.69747 9.315475,-4.66547 9.315475,-11.00495 0,-5.36305 -4.06105,-11.02052 -11.50105,-11.02052 -6.944,0 -11.408,5.65747 -11.408,12.19852"
     id="path108"
     style="stroke-width:0.992" />
  <path
     class="TimeSig"
     d="m 126.12352,73.314851 v 7.331575 H 117.893 c -0.69748,0 -1.39495,0.604425 -1.39495,1.39495 v 1.89105 c 0,0.790425 0.69747,1.379475 1.39495,1.379475 h 30.05452 c 0.806,0 1.39496,-0.58905 1.39496,-1.379475 v -1.89105 c 0,-0.790525 -0.58896,-1.39495 -1.39496,-1.39495 h -8.928 v -7.331575 h 8.928 c 0.806,0 1.39496,-0.697475 1.39496,-1.488 v -1.89097 c 0,-0.697505 -0.58896,-1.379505 -1.39496,-1.379505 h -8.928 v -15.779 c 0,-0.589 -0.29452,-1.085 -0.682,-1.286505 l -1.19347,-0.604495 c -0.20157,-0.093 -0.29453,-0.093 -0.496,-0.093 -0.10853,0 -0.10853,0 -0.20157,0 -0.29443,0 -0.69748,0.093 -0.89896,0.294495 l -9.02104,8.230505 c -0.29443,0.31 -0.40296,0.6975 -0.40296,1.1005 v 8.1375 H 114.6225 c 0,0 11.11355,-11.904 22.81598,-27.59005 0.40304,-0.496 0.496,-0.992 0.496,-1.379475 0,-0.496 -0.20148,-0.89895 -0.29443,-0.992 l -2.18557,-2.185475 c -0.29443,-0.201475 -0.58896,-0.40305 -0.992,-0.40305 -0.58896,0 -13.99643,0 -14.78696,0 -0.69747,0 -1.19347,0.604525 -1.28652,1.193575 0,0 -0.496,7.34695 -3.069,15.37597 -2.5885,8.044505 -5.5645,13.004505 -8.1375,16.662505 0,0 -0.2945,0.496 -0.2945,1.100505 0,0.201495 0,0.387545 0.093,0.58902 0.2945,0.697475 0.992,1.782525 0.992,1.782525 0,0 0.2015,0.604425 1.085,0.604425 h 17.06552"
     id="path109"
     style="stroke-width:0.992" />
  <path
     class="TimeSig"
     d="m 126.12352,122.91485 v 7.33158 H 117.893 c -0.69748,0 -1.39495,0.60442 -1.39495,1.39495 v 1.89105 c 0,0.79042 0.69747,1.37947 1.39495,1.37947 h 30.05452 c 0.806,0 1.39496,-0.58905 1.39496,-1.37947 v -1.89105 c 0,-0.79053 -0.58896,-1.39495 -1.39496,-1.39495 h -8.928 v -7.33158 h 8.928 c 0.806,0 1.39496,-0.69747 1.39496,-1.488 v -1.89097 c 0,-0.6975 -0.58896,-1.3795 -1.39496,-1.3795 h -8.928 v -15.779 c 0,-0.589 -0.29452,-1.085 -0.682,-1.28651 l -1.19347,-0.60449 c -0.20157,-0.093 -0.29453,-0.093 -0.496,-0.093 -0.10853,0 -0.10853,0 -0.20157,0 -0.29443,0 -0.69748,0.093 -0.89896,0.29449 l -9.02104,8.23051 c -0.29443,0.31 -0.40296,0.6975 -0.40296,1.1005 v 8.1375 H 114.6225 c 0,0 11.11355,-11.904 22.81598,-27.590054 0.40304,-0.496 0.496,-0.992 0.496,-1.379475 0,-0.496 -0.20148,-0.89895 -0.29443,-0.992 l -2.18557,-2.185475 c -0.29443,-0.201475 -0.58896,-0.40305 -0.992,-0.40305 -0.58896,0 -13.99643,0 -14.78696,0 -0.69747,0 -1.19347,0.604525 -1.28652,1.193575 0,0 -0.496,7.34695 -3.069,15.375969 -2.5885,8.04451 -5.5645,13.00451 -8.1375,16.66251 0,0 -0.2945,0.496 -0.2945,1.1005 0,0.2015 0,0.38755 0.093,0.58902 0.2945,0.69748 0.992,1.78253 0.992,1.78253 0,0 0.2015,0.60442 1.085,0.60442 h 17.06552"
     id="path110"
     style="stroke-width:0.992" />
</svg>
